#N canvas 175 458 1491 737 10;
#X obj 304 186 r notesIn-\$1;
#X obj 299 491 s notesOut-\$1;
#X obj 422 12 r loadbang-\$1;
#X obj 25 186 inlet~ inL-\$1;
#X obj 135 186 inlet~ inR-\$1;
#X obj 27 491 outlet~ outL-\$1;
#X obj 136 491 outlet~ outR-\$1;
#X obj 464 185 r auxIn-\$1;
#X obj 603 178 r expIn-\$1;
#X obj 603 203 r fsIn-\$1;
#N canvas 49 248 1584 1099 sequencer 0;
#X obj 453 349 tgl 15 0 empty empty empty 17 7 0 10 -262144 -1 -1 0
1;
#N canvas 382 50 1126 994 seqplayer 0;
#X obj 115 701 delay;
#X obj 180 442 tgl 15 0 empty empty empty 17 7 0 10 -262144 -1 -1 0
1;
#X msg 179 393 1;
#X obj 283 584 ==;
#X obj 252 520 t b f;
#X obj 116 672 spigot 0;
#X obj 137 -9 stripnote;
#X obj 130 191 spigot;
#X obj 39 128 tgl 15 0 empty empty empty 17 7 0 10 -262144 -1 -1 1
1;
#X obj 283 562 == 15;
#X obj 413 801 + 60;
#X obj 413 857 pack 0 100;
#X obj 137 -63 inlet;
#X obj 39 73 inlet;
#X obj 341 74 inlet;
#X obj 365 418 - 1;
#X obj 413 878 outlet;
#X obj 680 73 inlet;
#X text 36 39 enable;
#X text 189 -61 note;
#X text 328 47 length;
#X text 689 41 speed;
#X obj 255 15 unpack;
#X obj 299 181 tgl 15 0 empty empty empty 17 7 0 10 -262144 -1 -1 0
1;
#X obj 299 214 ==;
#X obj 283 610 spigot 1, f 16;
#X obj 237 715 tgl 15 0 empty empty empty 17 7 0 10 -262144 -1 -1 0
1;
#N canvas 1232 509 450 297 switch 0;
#X obj 145 49 inlet;
#X obj 147 184 outlet;
#X obj 266 178 outlet;
#X obj 320 50 inlet;
#X obj 281 84 ==;
#X obj 150 128 spigot 1;
#X obj 258 124 spigot 0;
#X obj 230 49 inlet;
#X connect 0 0 5 0;
#X connect 3 0 4 0;
#X connect 3 0 6 1;
#X connect 4 0 5 1;
#X connect 5 0 1 0;
#X connect 6 0 2 0;
#X connect 7 0 6 0;
#X restore 149 289 pd switch;
#N canvas 233 116 450 297 switch 0;
#X obj 145 49 inlet;
#X obj 147 184 outlet;
#X obj 266 178 outlet;
#X obj 320 50 inlet;
#X obj 249 81 ==;
#X obj 150 128 spigot 1;
#X obj 258 124 spigot 0;
#X connect 0 0 5 0;
#X connect 0 0 6 0;
#X connect 3 0 4 0;
#X connect 3 0 6 1;
#X connect 4 0 5 1;
#X connect 5 0 1 0;
#X connect 6 0 2 0;
#X restore 67 553 pd switch;
#X obj 164 359 t b b b f b;
#X obj 224 309 t f b;
#X msg 120 511 0;
#X msg 157 513 1;
#X obj 206 331 f;
#X obj 143 257 t a a;
#X obj 204 134 f;
#X obj 274 78 sel 0;
#X obj 303 100 bang;
#X msg 304 123 1;
#X obj 137 -40 t a a;
#X obj 260 44 swap;
#X obj 259 128 f;
#X obj 229 105 t b b;
#X obj 227 158 ==;
#X obj 225 182 sel 1;
#X msg 225 204 0;
#X obj 413 826 - 60;
#X obj 367 736 moses 1;
#X text 440 757 filter out notes that are 0;
#X obj 367 654 t f f, f 14;
#X obj 192 231 r \$0-is-playing;
#X obj 480 707 tabread \$0-seqvel;
#X obj 367 708 tabread \$0-seq;
#X obj 236 459 b;
#X obj 237 750 s \$0-is-playing;
#X obj 681 211 max 10;
#X obj 236 488 counter-up 16 \$1;
#X connect 0 0 28 0;
#X connect 1 0 5 1;
#X connect 1 0 26 0;
#X connect 2 0 1 0;
#X connect 3 0 25 0;
#X connect 4 0 5 0;
#X connect 4 1 9 0;
#X connect 4 1 49 0;
#X connect 5 0 0 0;
#X connect 6 0 7 0;
#X connect 6 0 35 1;
#X connect 7 0 34 0;
#X connect 8 0 7 1;
#X connect 9 0 3 0;
#X connect 10 0 46 0;
#X connect 11 0 16 0;
#X connect 12 0 39 0;
#X connect 13 0 8 0;
#X connect 14 0 15 0;
#X connect 14 0 56 2;
#X connect 15 0 9 1;
#X connect 17 0 55 0;
#X connect 22 0 40 0;
#X connect 22 1 40 1;
#X connect 23 0 24 0;
#X connect 24 0 25 1;
#X connect 25 0 5 1;
#X connect 25 0 26 0;
#X connect 26 0 54 0;
#X connect 27 0 29 0;
#X connect 27 1 30 0;
#X connect 28 0 53 0;
#X connect 28 1 33 0;
#X connect 29 0 53 0;
#X connect 29 1 2 0;
#X connect 29 2 56 1;
#X connect 29 3 10 1;
#X connect 29 4 31 0;
#X connect 30 0 33 1;
#X connect 30 1 32 0;
#X connect 31 0 28 1;
#X connect 32 0 28 1;
#X connect 33 0 29 0;
#X connect 34 0 27 0;
#X connect 34 1 27 1;
#X connect 35 0 43 0;
#X connect 36 0 42 0;
#X connect 36 1 37 0;
#X connect 37 0 38 0;
#X connect 38 0 23 0;
#X connect 39 0 6 0;
#X connect 39 1 22 0;
#X connect 40 0 36 0;
#X connect 40 1 41 1;
#X connect 41 0 43 1;
#X connect 42 0 35 0;
#X connect 42 1 41 0;
#X connect 43 0 44 0;
#X connect 44 0 45 0;
#X connect 45 0 23 0;
#X connect 46 0 11 0;
#X connect 47 1 10 0;
#X connect 49 0 52 0;
#X connect 49 1 51 0;
#X connect 50 0 27 2;
#X connect 51 0 11 1;
#X connect 52 0 47 0;
#X connect 53 0 56 0;
#X connect 55 0 0 1;
#X connect 56 0 4 0;
#X restore 117 427 pd seqplayer;
#X obj 25 318 tgl 15 0 empty empty empty 17 7 0 10 -262144 -1 -1 1
1;
#N canvas 1112 552 1208 658 states 0;
#X obj 209 279 f;
#X obj 209 226 sel 1;
#X obj 131 242 sel 1;
#X obj 209 186 t f f, f 12;
#X obj 209 305 sel 1;
#X text 537 82 Controls LED & Screen Infomation:;
#X obj 209 251 del 500;
#X text 104 4 Controls State With Aux Button;
#X msg 622 216 1;
#X msg 209 339 1;
#X msg 222 450 0;
#X msg 408 91 0;
#X obj 131 415 sel 0 1 2, f 27;
#X text 528 11 states are: 0 = play mode \, 1 = punch in \, 2 = play
w latch, f 70;
#X obj 530 172 sel 0 1 2, f 53;
#X msg 131 458 2;
#X msg 311 465 0;
#X msg 539 220 0;
#X msg 862 227 2;
#X msg 530 301 Aux: Play Mode;
#X msg 714 293 Aux: Punch Mode;
#X msg 894 303 Aux: Play Mode Latch;
#X obj 131 27 r punchy-\$1-aux-in;
#X obj 209 367 s \$0-state;
#X obj 131 301 v \$0-state;
#X obj 402 198 r \$0-state;
#X obj 402 220 v \$0-state;
#X obj 408 121 s \$0-state;
#X obj 530 130 r \$0-state;
#X obj 131 489 s \$0-state;
#X obj 222 490 s \$0-state;
#X obj 309 500 s \$0-state;
#X obj 131 145 spigot;
#X msg 170 70 0;
#X msg 188 114 1;
#X obj 170 48 r punchy-\$1-disable;
#X obj 188 92 r punchy-\$1-enable;
#X msg 234 149 1 \, bang;
#X obj 408 69 r loadbang-\$1;
#X obj 539 244 s punchy-\$1-led;
#X obj 863 252 s punchy-\$1-led;
#X obj 656 256 s punchy-\$1-led;
#X obj 634 387 s punchy-\$1-aux-label;
#X connect 0 0 4 0;
#X connect 1 0 6 0;
#X connect 2 0 24 0;
#X connect 3 0 1 0;
#X connect 3 1 0 1;
#X connect 4 0 9 0;
#X connect 6 0 0 0;
#X connect 8 0 41 0;
#X connect 9 0 23 0;
#X connect 10 0 30 0;
#X connect 11 0 27 0;
#X connect 12 0 15 0;
#X connect 12 1 10 0;
#X connect 12 2 16 0;
#X connect 14 0 17 0;
#X connect 14 0 19 0;
#X connect 14 1 8 0;
#X connect 14 1 20 0;
#X connect 14 2 18 0;
#X connect 14 2 21 0;
#X connect 15 0 29 0;
#X connect 16 0 31 0;
#X connect 17 0 39 0;
#X connect 18 0 40 0;
#X connect 19 0 42 0;
#X connect 20 0 42 0;
#X connect 21 0 42 0;
#X connect 22 0 32 0;
#X connect 24 0 12 0;
#X connect 25 0 26 0;
#X connect 28 0 14 0;
#X connect 32 0 3 0;
#X connect 32 0 2 0;
#X connect 33 0 32 1;
#X connect 34 0 32 1;
#X connect 35 0 33 0;
#X connect 35 0 37 0;
#X connect 36 0 34 0;
#X connect 36 0 37 0;
#X connect 37 0 24 0;
#X connect 38 0 11 0;
#X restore 706 44 pd states;
#X msg 453 314 0;
#X msg 489 315 1;
#X msg 25 274 1;
#X msg 71 275 0;
#X obj 453 271 sel 0 1 2;
#X obj 25 241 sel 0 1 2;
#X msg 115 274 1;
#X msg 524 314 0;
#X obj 760 373 t f b;
#X obj 1230 564 t f b;
#X obj 1262 609 f;
#X obj 1262 632 == 1;
#X obj 1262 656 sel 1;
#X text 1303 605 when done recording;
#X obj 117 548 makenote 100 100;
#X text 438 11 states are: 0 = play mode \, 1 = punch in \, 2 = play
w latch, f 70;
#N canvas 39 50 919 857 seqpuncher 0;
#X obj 220 132 tgl 15 0 empty empty empty 17 7 0 10 -262144 -1 -1 0
1;
#X obj 351 334 spigot 0;
#X obj 401 264 t f b;
#X obj 444 566 sel 1;
#X obj 321 169 t f f;
#X obj 321 138 stripnote;
#X obj 444 627 outlet;
#X obj 321 107 inlet;
#X obj 220 103 inlet;
#X text 544 263 writes notes to sequence;
#X text 508 577 bang at end, f 12;
#X obj 654 136 inlet;
#X obj 556 421 - 1;
#X text 647 104 len;
#X obj 631 618 outlet;
#X text 674 593 len, f 4;
#X obj 631 589 + 1;
#X obj 145 465 f;
#X obj 338 443 t b f b;
#X obj 188 778 outlet;
#X obj 188 731 swap;
#X obj 188 753 pack;
#X obj 391 628 + 1;
#X obj 251 547 tabwrite \$0-seq;
#X obj 82 639 tabwrite \$0-seqvel;
#X msg 391 659 Punching \$1;
#X obj 391 692 s punchy-\$1-aux-label;
#X obj 143 343 r punchy_velo-\$1;
#X obj 399 480 counter-up 64 \$1;
#X obj 444 540 == 63;
#X connect 0 0 2 0;
#X connect 1 0 18 0;
#X connect 2 0 1 1;
#X connect 2 1 28 1;
#X connect 3 0 6 0;
#X connect 4 0 1 0;
#X connect 5 0 4 0;
#X connect 7 0 5 0;
#X connect 8 0 0 0;
#X connect 11 0 12 0;
#X connect 11 0 28 2;
#X connect 12 0 29 1;
#X connect 16 0 14 0;
#X connect 17 0 20 0;
#X connect 17 0 24 0;
#X connect 18 0 17 0;
#X connect 18 1 20 1;
#X connect 18 1 23 0;
#X connect 18 2 28 0;
#X connect 20 0 21 0;
#X connect 20 1 21 1;
#X connect 21 0 19 0;
#X connect 22 0 25 0;
#X connect 25 0 26 0;
#X connect 27 0 17 1;
#X connect 28 0 16 0;
#X connect 28 0 22 0;
#X connect 28 0 23 1;
#X connect 28 0 24 1;
#X connect 28 0 29 0;
#X connect 29 0 3 0;
#X restore 453 396 pd seqpuncher;
#X text 500 471 seq saving and recalling;
#X text 763 85 up to 32 notes long \, len is stashed as last entry
;
#X text 697 325 stash length as last entry;
#X obj 283 308 expr 1000/($f1/60);
#X obj 117 516 unpack, f 8;
#X obj 117 573 pack, f 16;
#X obj 117 605 s punchy-\$1-notes-out;
#X obj 282 221 r master-bpm;
#X obj 171 367 r \$0-len;
#X obj 144 11 spigot;
#X msg 247 -43 0;
#X msg 283 -19 1;
#N canvas 757 99 886 799 latch 0;
#X obj 43 421 latch-notes;
#X obj 263 252 tgl 15 0 empty empty empty 17 7 0 10 -262144 -1 -1 0
1;
#X obj 123 368 spigot 1;
#X obj 43 368 spigot 0;
#X obj 263 278 == 0;
#X obj 263 368 sel 0 1;
#X obj 263 134 inlet;
#X obj 43 626 outlet;
#X obj 43 106 inlet;
#X text 44 53 incoming notes get sent through latch if enabled \, or
directly to output if disabled;
#X text 323 367 Update Screen & LED;
#X msg 286 458 Aux: Latch OFF \;;
#X msg 263 579 Aux: Latch ON \;;
#X text 311 135 1-0 enable / disables latch;
#X obj 263 160 t f b, f 7;
#X obj 309 314 b;
#X msg 298 408 0;
#X msg 289 534 2;
#X obj 448 672 s punchy-\$1-aux-label, f 27;
#X obj 385 559 s punchy-\$1-led;
#X connect 0 0 7 0;
#X connect 1 0 4 0;
#X connect 1 0 3 1;
#X connect 2 0 7 0;
#X connect 3 0 0 0;
#X connect 4 0 2 1;
#X connect 4 0 5 0;
#X connect 5 0 12 0;
#X connect 5 0 17 0;
#X connect 5 1 11 0;
#X connect 5 1 16 0;
#X connect 6 0 14 0;
#X connect 8 0 3 0;
#X connect 8 0 2 0;
#X connect 11 0 18 0;
#X connect 12 0 18 0;
#X connect 14 0 1 0;
#X connect 14 1 15 0;
#X connect 15 0 0 1;
#X connect 16 0 19 0;
#X connect 17 0 19 0;
#X restore 144 313 pd latch;
#X obj 144 -89 r punchy-\$1-notes-in;
#X obj 283 -41 r punchy-\$1-enable;
#X msg 243 190 0;
#X obj 197 156 sel 0 1 2;
#X msg 287 189 1;
#X msg 197 189 0;
#X obj 197 230 tgl 15 0 empty empty empty 17 7 0 10 -262144 -1 -1 0
1;
#X obj 197 134 r \$0-state;
#X obj 25 219 r \$0-state;
#X obj 461 424 s \$0-state;
#X obj 541 425 s \$0-len;
#X obj 497 344 r \$0-notes;
#X obj 58 159 s \$0-notes;
#X obj 453 240 r \$0-state;
#X obj 760 347 r \$0-len;
#X obj 1230 536 r \$0-state;
#X obj 760 456 tabwrite \$0-seq;
#X obj 247 -65 r punchy-\$1-disable;
#X obj 394 274 t b a;
#X obj 283 358 * 4;
#X obj 396 155 * 0.25;
#X obj 283 330 / 4;
#X obj 186 76 bag;
#X obj 186 98 pack 0 0;
#X msg 186 49 flush;
#X obj 226 454 r punchy_length-\$1;
#X obj 396 64 r punchy_beat-\$1;
#X obj 820 131 table \$0-seq 65;
#X obj 812 177 table \$0-seqvel 65;
#X msg 792 406 64;
#X obj 283 266 f 120;
#X obj 328 366 print punchy tempo;
#X obj 471 190 r loadbang-\$1;
#X obj 862 718 t b l;
#X obj 861 639 list;
#X obj 1054 833 print sequence;
#X msg 874 884 read \$1/presets/\$2/\$3-punchy-seqvel.txt;
#X msg 1130 799 write \$1/presets/\$2/\$3-punchy-seq.txt;
#X msg 1130 882 write \$1/presets/\$2/\$3-punchy-seqvel.txt;
#X msg 835 799 read \$1/presets/\$2/\$3-punchy-seq.txt;
#X obj 1034 860 s \$0-seq;
#X obj 1030 965 s \$0-seqvel;
#X obj 1081 534 r rackSavePreset;
#N canvas 100 635 803 448 presetDir 0;
#X obj 88 153 s rackMsgs;
#X obj 88 106 symbol \$1;
#X msg 88 128 getsetting currentPreset Defaut rackCurrentPreset-\$1
;
#X obj 88 181 r rackCurrentPreset;
#X obj 215 181 r rackCurrentPreset-\$1;
#X obj 87 215 symbol \$1;
#X obj 442 163 s rackMsgs;
#X obj 442 113 symbol \$1;
#X obj 204 50 r loadbang-\$1;
#X obj 442 186 r rackDataDir;
#X obj 535 189 r rackDataDir-\$1;
#X msg 442 138 getsetting dataDir ./data rackDataDir-\$1;
#X obj 441 219 symbol \$1;
#X obj 249 276 pack s s s;
#X obj 255 210 symbol \$1;
#X obj 205 76 t b b b;
#X obj 444 71 bng 15 250 50 0 empty empty empty 17 7 0 10 -262144 -1
-1;
#X obj 71 67 bng 15 250 50 0 empty empty empty 17 7 0 10 -262144 -1
-1;
#X obj 114 243 t b b s;
#X obj 255 232 t b s;
#X obj 111 387 outlet;
#X obj 219 386 outlet;
#X text 81 25 track preset directory and bang on change;
#X connect 1 0 2 0;
#X connect 2 0 0 0;
#X connect 3 0 5 0;
#X connect 4 0 5 0;
#X connect 5 0 18 0;
#X connect 7 0 11 0;
#X connect 8 0 15 0;
#X connect 9 0 12 0;
#X connect 10 0 12 0;
#X connect 11 0 6 0;
#X connect 12 0 13 0;
#X connect 13 0 21 0;
#X connect 14 0 19 0;
#X connect 15 0 1 0;
#X connect 15 1 14 0;
#X connect 15 2 7 0;
#X connect 16 0 7 0;
#X connect 17 0 1 0;
#X connect 18 0 20 0;
#X connect 18 1 13 0;
#X connect 18 2 13 1;
#X connect 19 0 13 0;
#X connect 19 1 13 2;
#X restore 867 564 pd presetDir;
#N canvas 103 262 721 484 savePreset 0;
#X obj 343 124 r saveState;
#X obj 252 232 list;
#X obj 146 127 unpack s s s;
#X obj 251 167 pack s s s;
#X obj 272 127 symbol \$1;
#X obj 113 96 list;
#X obj 233 101 t b b a b;
#X obj 106 54 inlet;
#X obj 258 286 outlet;
#X obj 229 39 inlet;
#X connect 0 0 1 0;
#X connect 1 0 8 0;
#X connect 2 0 3 0;
#X connect 2 2 3 2;
#X connect 3 0 1 1;
#X connect 4 0 3 1;
#X connect 5 0 2 0;
#X connect 6 0 1 0;
#X connect 6 1 3 0;
#X connect 6 2 4 0;
#X connect 6 3 5 0;
#X connect 7 0 5 1;
#X connect 9 0 6 0;
#X restore 1097 610 pd savePreset;
#X obj 765 829 tabread \$0-seq;
#X obj 765 857 s \$0-len;
#X msg 765 803 64;
#X obj 1267 689 bng 15 250 50 0 empty empty empty 17 7 0 10 -262144
-1 -1;
#X text 1047 506 I think I only want to save when preset saved;
#X connect 0 0 20 0;
#X connect 1 0 25 0;
#X connect 2 0 1 0;
#X connect 4 0 0 0;
#X connect 5 0 0 0;
#X connect 6 0 2 0;
#X connect 7 0 2 0;
#X connect 8 0 4 0;
#X connect 8 1 5 0;
#X connect 8 2 11 0;
#X connect 9 0 6 0;
#X connect 9 1 7 0;
#X connect 9 2 10 0;
#X connect 10 0 2 0;
#X connect 11 0 0 0;
#X connect 12 0 50 0;
#X connect 12 1 63 0;
#X connect 13 0 14 1;
#X connect 13 1 14 0;
#X connect 14 0 15 0;
#X connect 15 0 16 0;
#X connect 16 0 82 0;
#X connect 18 0 26 0;
#X connect 18 1 26 1;
#X connect 20 0 25 0;
#X connect 20 1 43 0;
#X connect 20 2 44 0;
#X connect 24 0 55 0;
#X connect 25 0 18 0;
#X connect 25 1 18 1;
#X connect 26 0 27 0;
#X connect 28 0 64 0;
#X connect 29 0 1 2;
#X connect 30 0 33 0;
#X connect 30 0 46 0;
#X connect 30 0 56 0;
#X connect 31 0 30 1;
#X connect 32 0 30 1;
#X connect 33 0 1 1;
#X connect 34 0 30 0;
#X connect 35 0 32 0;
#X connect 35 0 58 0;
#X connect 36 0 40 0;
#X connect 37 0 39 0;
#X connect 37 1 36 0;
#X connect 37 2 38 0;
#X connect 38 0 40 0;
#X connect 39 0 40 0;
#X connect 40 0 33 1;
#X connect 41 0 37 0;
#X connect 42 0 9 0;
#X connect 45 0 20 1;
#X connect 47 0 8 0;
#X connect 48 0 12 0;
#X connect 49 0 13 0;
#X connect 51 0 31 0;
#X connect 51 0 58 0;
#X connect 52 0 24 0;
#X connect 52 1 53 1;
#X connect 53 0 1 3;
#X connect 54 0 52 0;
#X connect 55 0 53 0;
#X connect 56 0 57 0;
#X connect 57 0 33 0;
#X connect 58 0 56 0;
#X connect 59 0 18 2;
#X connect 60 0 54 0;
#X connect 63 0 50 1;
#X connect 64 0 24 0;
#X connect 64 0 65 0;
#X connect 66 0 64 0;
#X connect 67 0 81 0;
#X connect 67 1 73 0;
#X connect 67 1 70 0;
#X connect 68 0 67 0;
#X connect 70 0 75 0;
#X connect 71 0 69 0;
#X connect 71 0 74 0;
#X connect 72 0 75 0;
#X connect 73 0 69 0;
#X connect 73 0 74 0;
#X connect 76 0 78 1;
#X connect 77 0 68 0;
#X connect 77 1 78 0;
#X connect 77 1 68 1;
#X connect 78 0 71 0;
#X connect 78 0 72 0;
#X connect 79 0 80 0;
#X connect 81 0 79 0;
#X restore 301 337 pd sequencer;
#X obj 304 285 s punchy-\$1-notes-in;
#X obj 422 45 s punchy-\$1-enable;
#X obj 299 445 r punchy-\$1-notes-out;
#X obj 464 243 s punchy-\$1-aux-in;
#X obj 926 182 r punchy-\$1-led;
#X obj 760 182 r punchy-\$1-aux-label;
#X obj 760 203 s aux-label-\$1;
#X obj 926 203 s aux-led-\$1;
#X obj 304 207 list split 2;
#X obj 299 466 list append 0;
#X obj 587 295 r ctrlIn-\$1;
#X obj 587 321 s ctrlOut-\$1;
#X connect 0 0 19 0;
#X connect 2 0 12 0;
#X connect 7 0 14 0;
#X connect 13 0 20 0;
#X connect 15 0 18 0;
#X connect 16 0 17 0;
#X connect 19 0 11 0;
#X connect 20 0 1 0;
