#N canvas 231 486 969 792 10;
#X obj 304 186 r notesIn-\$1;
#X obj 304 491 s notesOut-\$1;
#X obj 23 9 r loaddefs-\$1;
#X msg 23 76 loaddefinitions \$1;
#X obj 181 9 r loadbang-\$1;
#X obj 181 76 print loading definiton for \$1;
#X obj 23 41 symbol;
#X obj 25 186 inlet~ inL-\$1;
#X obj 135 186 inlet~ inR-\$1;
#X obj 27 491 outlet~ outL-\$1;
#X obj 136 491 outlet~ outR-\$1;
#X obj 424 185 r auxIn-\$1;
#X obj 423 208 r expIn-\$1;
#X obj 423 233 r fsIn-\$1;
#X obj 404 410 rngs_reverb~, f 15;
#X msg 865 305 lp \$1;
#X msg 675 305 time \$1;
#X msg 762 305 diffusion \$1;
#X obj 583 262 / 100;
#X obj 675 261 / 100;
#X obj 762 262 / 100;
#X obj 865 262 / 100;
#X obj 583 217 r r_amount-\$1;
#X obj 675 217 r r_time-\$1;
#X obj 762 217 r r_diff-\$1;
#X obj 865 217 r r_cutoff-\$1;
#X obj 181 35 print loaded:reverb into \$1, f 35;
#X obj 23 112 KontrolModule \$1 F-r_reverb;
#X connect 0 0 1 0;
#X connect 2 0 6 0;
#X connect 2 0 5 0;
#X connect 3 0 27 0;
#X connect 4 0 26 0;
#X connect 6 0 3 0;
#X connect 7 0 14 0;
#X connect 8 0 14 1;
#X connect 14 0 9 0;
#X connect 14 1 10 0;
#X connect 15 0 14 0;
#X connect 16 0 14 0;
#X connect 17 0 14 0;
#X connect 18 0 14 2;
#X connect 19 0 16 0;
#X connect 20 0 17 0;
#X connect 21 0 15 0;
#X connect 22 0 18 0;
#X connect 23 0 19 0;
#X connect 24 0 20 0;
#X connect 25 0 21 0;
