#N canvas 885 547 1305 611 10;
#N canvas 0 50 450 278 (subpatch) 0;
#X array \$1-\$2-array-\$3 88200 float 2;
#X coords 0 1 88200 -1 335 251 1 0 0;
#X restore 7 124 graph;
#X text 4 4 Arg1: construct the read message using the sound file name
(\$1);
#X text 4 34 Arg2: Module Shortname;
#X text 4 54 Arg3: Module Instance Number;
#X obj 746 344 soundfiler;
#X obj 729 148 list;
#N canvas 1340 741 803 448 sampleDir 0;
#X obj 442 163 s rackMsgs;
#X obj 74 387 outlet;
#X obj 245 387 outlet;
#X text 81 25 samples dir bang;
#X obj 76 47 inlet kit;
#X obj 442 186 r rackMediaDir;
#X obj 152 46 inlet slot;
#X obj 80 88 t b f;
#X obj 154 90 t b f;
#X obj 370 39 t b b;
#X obj 233 45 inlet dur;
#X obj 249 276 pack s f f s f;
#X obj 266 131 i;
#X obj 244 328 t b l;
#X obj 370 14 r loadbang-\$3;
#X obj 274 86 symbol \$1-\$2-array-\$3;
#X obj 535 186 r rackMediaDir-\$3;
#X obj 442 84 symbol \$3;
#X msg 442 138 getsetting mediaDir ./data rackMediaDir-\$1;
#X obj 441 219 symbol \$3;
#X connect 4 0 7 0;
#X connect 5 0 19 0;
#X connect 6 0 8 0;
#X connect 7 0 11 0;
#X connect 7 1 11 1;
#X connect 8 0 11 0;
#X connect 8 1 11 2;
#X connect 9 0 17 0;
#X connect 9 1 15 0;
#X connect 10 0 12 0;
#X connect 11 0 13 0;
#X connect 12 0 11 4;
#X connect 13 0 1 0;
#X connect 13 1 2 0;
#X connect 14 0 9 0;
#X connect 15 0 11 3;
#X connect 16 0 19 0;
#X connect 17 0 18 0;
#X connect 18 0 0 0;
#X connect 19 0 11 0;
#X restore 725 95 pd sampleDir;
#X obj 790 249 print soundfiler;
#X msg 758 203 read -resize \$1/samples/kit-\$2/\$3.wav \$4;
#X obj 721 38 r s_kit-\$3;
#X obj 807 37 r s_slot\$1-\$3;
#X connect 5 0 8 0;
#X connect 6 0 5 0;
#X connect 6 1 5 1;
#X connect 8 0 7 0;
#X connect 8 0 4 0;
#X connect 9 0 6 0;
#X connect 10 0 6 1;
