#N canvas 869 246 1371 914 10;
#X obj 213 455 expr 1000 / $f1;
#X obj 213 538 *, f 6;
#X obj 225 506 t b f;
#X obj 91 303 array size;
#X obj 158 287 route list;
#X obj 59 21 inlet;
#X obj 111 81 unpack 0 0, f 54;
#X obj 448 292 sel 0, f 17;
#X obj 547 565 vline~;
#X obj 547 595 *~;
#X obj 547 468 * 0.00787402;
#X obj 212 892 *~, f 27;
#X text 267 8 plays a sound file;
#X obj 213 748 *~ 140688, f 12;
#X obj 219 835 *~, f 20;
#X text 97 833 clickless window;
#X obj 211 799 tabread4~;
#X msg 487 490 0 \$1;
#X obj 482 430 f;
#X obj 213 922 hip~ 5;
#X text 262 921 cut DC;
#X text 529 440 Velocity Relative Trigger;
#X text 430 511 turn dsp off;
#X obj 547 337 t f b b, f 23;
#X obj 273 643 f;
#X text 171 314 get size of chosen array;
#X text 75 748 point to new array;
#X text 596 356 reset phasor;
#X obj 273 541 t b b;
#X obj 448 226 f;
#X text 99 891 release envelope;
#X obj 212 862 *~, f 24;
#X text 100 861 decay envelope;
#X msg 547 528 \$1 4;
#X text 562 729 re-trigger for decay;
#N canvas 1266 295 609 687 decay 0;
#X obj 82 486 outlet~;
#X obj 19 2 inlet;
#X obj 82 453 *~;
#X obj 81 422 vline~;
#X obj 80 324 f 1000;
#X obj 81 357 pack 0 0;
#X obj 120 124 t f f;
#X text 190 145 if knob all the way up \, never decay;
#X text 272 93 do a simple amplitude decay;
#X obj 189 173 expr if($f1 > 0.98 \, 1 \, 0);
#X obj 19 234 t b b;
#X msg 81 386 1 1 \, \$2 \$1 1;
#X text 35 26 trigger;
#X msg 39 354 0;
#X obj 152 8 inlet;
#X text 168 29 duration;
#X obj 1079 360 s s24-\$1-decay-local;
#X obj 120 92 r s24-\$1-decay-local;
#X floatatom 205 345 5 0 0 0 - - -;
#X floatatom 178 119 5 0 0 0 - - -;
#X obj 119 296 * 200;
#X obj 155 249 t b a;
#X connect 1 0 10 0;
#X connect 2 0 0 0;
#X connect 3 0 2 0;
#X connect 3 0 2 1;
#X connect 4 0 5 0;
#X connect 4 0 18 0;
#X connect 5 0 11 0;
#X connect 6 0 20 0;
#X connect 6 1 9 0;
#X connect 9 0 5 1;
#X connect 10 0 4 0;
#X connect 10 1 13 0;
#X connect 11 0 3 0;
#X connect 13 0 3 0;
#X connect 14 0 21 0;
#X connect 17 0 6 0;
#X connect 17 0 19 0;
#X connect 20 0 4 1;
#X connect 21 0 20 0;
#X connect 21 1 20 1;
#X restore 515 798 pd decay;
#X obj 515 747 threshold~ 0.0001 0 0.9999 0;
#X obj 49 395 s \$0-duration;
#X obj 91 371 s \$0-duration-ms;
#X obj 91 345 / 44.1;
#X obj 293 695 r \$0-duration;
#X obj 500 368 r s24-\$1-release-local;
#X obj 225 480 r s24-\$1-speed-local;
#X obj 291 607 r s24-\$1-start-local;
#X obj 213 950 throw~ s24-\$1-voice-out;
#X obj 158 260 list prepend symbol;
#X text 265 30 Argument1: Module Shortcut Name;
#X text 267 50 Argument2: Module Number;
#X obj 237 593 f;
#X obj 213 426 r \$0-duration-ms;
#X obj 568 772 r \$0-duration-ms;
#X obj 80 144 f;
#X obj 59 59 t b l;
#X msg 213 560 \$1 20;
#X obj 213 629 vline~;
#X obj 57 677 route list;
#X obj 57 650 list prepend set;
#X obj 91 234 t b a a, f 12;
#X obj 212 770 +~ 1;
#X obj 347 760 +~ 1;
#X obj 347 811 *~, f 4;
#X obj 293 717 - 2;
#X obj 347 738 *~ 22048;
#X floatatom 336 642 5 0 0 0 - - -;
#X obj 705 651 switch~;
#X msg 705 398 1;
#X msg 448 526 0;
#X obj 348 787 tabread4~ s24-\$1-crown;
#X obj 125 149 symbol \$1;
#X obj 59 111 t b b b;
#X obj 91 185 pack 0 sym;
#X obj 440 455 delay;
#X obj 448 334 t b b, f 7;
#X obj 213 698 s_vphasor \$1;
#X msg 91 209 \$1-s24-array-\$2;
#X obj 795 81 inlet ctrl;
#X obj 748 168 - 0.5;
#X obj 742 222 t b f;
#X obj 902 100 r pb_range-\$1;
#X obj 902 121 * 2;
#X obj 748 189 * 2;
#X obj 790 123 route 0 2 123;
#X obj 854 185 t b;
#X connect 0 0 1 0;
#X connect 1 0 53 0;
#X connect 1 0 48 1;
#X connect 2 0 1 0;
#X connect 2 1 1 1;
#X connect 3 0 39 0;
#X connect 3 0 37 0;
#X connect 4 0 3 1;
#X connect 5 0 52 0;
#X connect 6 0 51 1;
#X connect 6 1 29 1;
#X connect 7 0 72 0;
#X connect 7 1 23 0;
#X connect 8 0 9 1;
#X connect 8 0 9 0;
#X connect 9 0 11 1;
#X connect 10 0 33 0;
#X connect 11 0 19 0;
#X connect 13 0 58 0;
#X connect 14 0 31 0;
#X connect 16 0 14 0;
#X connect 17 0 8 0;
#X connect 18 0 17 0;
#X connect 18 0 71 1;
#X connect 19 0 44 0;
#X connect 23 0 10 0;
#X connect 23 1 28 0;
#X connect 23 2 65 0;
#X connect 24 0 73 1;
#X connect 28 0 48 0;
#X connect 28 1 24 0;
#X connect 29 0 7 0;
#X connect 31 0 11 0;
#X connect 33 0 8 0;
#X connect 35 0 31 1;
#X connect 36 0 35 0;
#X connect 39 0 38 0;
#X connect 40 0 61 0;
#X connect 41 0 18 1;
#X connect 42 0 2 0;
#X connect 43 0 24 1;
#X connect 43 0 63 0;
#X connect 45 0 4 0;
#X connect 48 0 54 0;
#X connect 49 0 0 0;
#X connect 50 0 35 1;
#X connect 51 0 70 0;
#X connect 52 0 69 0;
#X connect 52 1 6 0;
#X connect 53 0 54 0;
#X connect 54 0 73 0;
#X connect 55 0 16 0;
#X connect 56 0 55 0;
#X connect 57 0 3 0;
#X connect 57 1 45 0;
#X connect 57 2 56 0;
#X connect 58 0 16 0;
#X connect 59 0 67 0;
#X connect 60 0 14 1;
#X connect 61 0 13 1;
#X connect 62 0 59 0;
#X connect 65 0 64 0;
#X connect 66 0 64 0;
#X connect 67 0 60 0;
#X connect 67 0 60 1;
#X connect 68 0 70 1;
#X connect 69 0 29 0;
#X connect 69 1 51 0;
#X connect 69 2 68 0;
#X connect 70 0 74 0;
#X connect 71 0 66 0;
#X connect 72 0 71 0;
#X connect 72 1 18 0;
#X connect 73 0 13 0;
#X connect 73 0 36 0;
#X connect 73 0 62 0;
#X connect 74 0 57 0;
#X connect 76 0 80 0;
#X connect 78 0 79 0;
#X connect 79 0 80 1;
#X connect 80 0 77 0;
#X connect 81 0 76 0;
#X connect 81 2 82 0;
#X connect 82 0 7 0;
