#N canvas 926 377 1435 972 10;
#X obj 774 25 r notesIn-\$1;
#X obj 905 603 s notesOut-\$1;
#X obj 894 24 r auxIn-\$1;
#X obj 893 47 r expIn-\$1;
#X obj 893 72 r fsIn-\$1;
#X obj 886 138 r ctrlIn-\$1;
#X obj 886 164 s ctrlOut-\$1;
#X obj 72 86 inlet~ inL;
#X obj 168 85 inlet~ inR;
#X obj 652 603 outlet~ outR;
#X obj 500 603 outlet~ outL;
#N canvas 704 383 299 314 cuepoints 0;
#X obj 147 110 +;
#X msg 147 85 1;
#X obj 23 19 inlet;
#X obj 147 133 & 7;
#X obj 123 185 f;
#X obj 123 207 + 1;
#X obj 57 185 f;
#X obj 23 68 t f b b b;
#X obj 147 158 * 2;
#X obj 90 19 inlet;
#X text 22 258 write pairs of start- and stop points;
#X floatatom 169 200 5 0 0 0 - - -;
#X floatatom 169 224 5 0 0 0 - - -;
#X obj 23 42 change;
#X obj 24 233 tabwrite \$1_cuepoints;
#X connect 0 0 3 0;
#X connect 1 0 0 0;
#X connect 2 0 13 0;
#X connect 3 0 0 1;
#X connect 3 0 8 0;
#X connect 4 0 5 0;
#X connect 5 0 12 0;
#X connect 5 0 14 1;
#X connect 6 0 14 0;
#X connect 7 0 6 1;
#X connect 7 0 14 0;
#X connect 7 1 4 0;
#X connect 7 2 6 0;
#X connect 7 3 1 0;
#X connect 8 0 4 1;
#X connect 8 0 11 0;
#X connect 8 0 14 1;
#X connect 9 0 13 0;
#X connect 13 0 7 0;
#X restore 157 893 pd cuepoints;
#X obj 98 199 hip~ 40;
#X obj 615 453 +~;
#X obj 615 485 +~;
#X obj 615 512 +~;
#X obj 548 270 r master-ticks;
#X msg 12 586 attackstep \$1;
#X msg 17 647 attackthresh \$1;
#X msg 190 616 silencethresh \$1;
#X msg 192 667 timeconstant \$1;
#X obj 11 556 r attackstep-\$1;
#X obj 16 625 r attackthresh-\$1;
#X obj 190 587 r silencethresh-\$1;
#X obj 192 642 r timeconstant-\$1;
#X obj 357 231 table \$1_cuepoints 16;
#X obj 356 263 table \$1_audio 262147;
#X obj 522 365 sliceplay \$1 1;
#X obj 176 772 slicerec~ \$1_audio;
#X obj 819 367 sliceplay \$1 4;
#X obj 721 366 sliceplay \$1 3;
#X obj 621 365 sliceplay \$1 2;
#X connect 0 0 27 1;
#X connect 0 0 29 1;
#X connect 0 0 30 1;
#X connect 0 0 31 1;
#X connect 7 0 12 0;
#X connect 8 0 12 0;
#X connect 12 0 28 0;
#X connect 13 0 14 0;
#X connect 14 0 15 0;
#X connect 15 0 10 0;
#X connect 15 0 9 0;
#X connect 16 0 27 0;
#X connect 16 0 29 0;
#X connect 16 0 30 0;
#X connect 16 0 31 0;
#X connect 17 0 28 0;
#X connect 18 0 28 0;
#X connect 19 0 28 0;
#X connect 20 0 28 0;
#X connect 21 0 17 0;
#X connect 22 0 18 0;
#X connect 23 0 19 0;
#X connect 24 0 20 0;
#X connect 27 0 13 0;
#X connect 28 0 11 0;
#X connect 28 1 11 1;
#X connect 29 0 15 1;
#X connect 30 0 14 1;
#X connect 31 0 13 1;
