#N canvas 277 318 850 813 10;
#X obj 343 776 outlet~;
#X msg 22 561 interrupt \$1;
#X msg 134 533 compensation \$1;
#X msg 251 536 minspeed \$1;
#X obj 16 17 inlet;
#X obj 16 200 % 24;
#X obj 16 221 sel 0;
#X floatatom 569 516 8 0 0 0 - - -;
#X floatatom 526 569 8 0 0 0 - - -;
#X obj 455 622 pack;
#X obj 494 444 * 2;
#X obj 494 468 + 1;
#X obj 452 498 f;
#X obj 452 389 t b f;
#X obj 43 302 random 8;
#X floatatom 16 399 5 0 0 0 - - -;
#X obj 43 281 spigot 0;
#X obj 16 346 float;
#X obj 16 242 t b b;
#X text 64 345 slice;
#X obj 494 494 tabread \$1_cuepoints;
#X obj 451 548 tabread \$1_cuepoints;
#X obj 344 675 sliceplay~ \$1_audio;
#X obj 123 17 r div-\$2-\$1;
#X obj 147 181 r slice-\$2-\$1;
#X obj 20 449 r rate-\$2-\$1;
#X obj 22 540 r interrupt-\$1;
#X obj 134 488 r compensate-\$1;
#X obj 251 490 r minspeed-\$1;
#X obj 16 153 spigot 1;
#X obj 20 486 / 100;
#X obj 134 512 / 100;
#X obj 251 511 / 100;
#X obj 642 445 r mix-\$2-\$1;
#X obj 642 496 / 100;
#X obj 642 561 *;
#X obj 642 534 t f f;
#X obj 642 588 sig~;
#X obj 642 615 lop~ 5;
#X obj 343 738 *~;
#X obj 123 53 t f f;
#X obj 123 80 > 0;
#X obj 147 204 t f f;
#X obj 174 241 == 0;
#X obj 414 448 bng 15 250 50 0 empty empty empty 17 7 0 10 -262144
-1 -1;
#X obj 350 448 nbx 5 14 -1e+37 1e+37 0 0 empty empty empty 0 -8 0 10
-262144 -1 -1 0 256;
#X obj 451 31 inlet;
#X connect 1 0 22 0;
#X connect 2 0 22 0;
#X connect 3 0 22 0;
#X connect 4 0 29 0;
#X connect 5 0 6 0;
#X connect 6 0 18 0;
#X connect 9 0 22 1;
#X connect 10 0 11 0;
#X connect 10 0 12 1;
#X connect 11 0 20 0;
#X connect 12 0 21 0;
#X connect 13 0 12 0;
#X connect 13 0 44 0;
#X connect 13 0 45 0;
#X connect 13 1 10 0;
#X connect 14 0 17 1;
#X connect 16 0 14 0;
#X connect 17 0 15 0;
#X connect 17 0 13 0;
#X connect 18 0 17 0;
#X connect 18 1 16 0;
#X connect 20 0 7 0;
#X connect 20 0 9 1;
#X connect 21 0 8 0;
#X connect 21 0 9 0;
#X connect 22 0 39 0;
#X connect 23 0 40 0;
#X connect 24 0 42 0;
#X connect 25 0 30 0;
#X connect 26 0 1 0;
#X connect 27 0 31 0;
#X connect 28 0 32 0;
#X connect 29 0 5 0;
#X connect 30 0 22 0;
#X connect 31 0 2 0;
#X connect 32 0 3 0;
#X connect 33 0 34 0;
#X connect 34 0 36 0;
#X connect 35 0 37 0;
#X connect 36 0 35 0;
#X connect 36 1 35 1;
#X connect 37 0 38 0;
#X connect 38 0 39 1;
#X connect 39 0 0 0;
#X connect 40 0 41 0;
#X connect 40 1 5 1;
#X connect 41 0 29 1;
#X connect 42 0 17 1;
#X connect 42 1 43 0;
#X connect 43 0 16 1;
#X connect 46 0 13 0;
