#N canvas 1164 430 850 811 10;
#X obj 349 776 outlet~;
#X msg 22 561 interrupt \$1;
#X msg 134 533 compensation \$1;
#X msg 251 536 minspeed \$1;
#X obj 15 17 inlet;
#X obj 16 227 % 24;
#X obj 16 248 sel 0;
#X floatatom 492 521 8 0 0 0 - - -;
#X floatatom 492 595 8 0 0 0 - - -;
#X obj 455 622 pack;
#X obj 478 449 * 2;
#X obj 478 473 + 1;
#X obj 444 498 f;
#X obj 444 384 t b f;
#X obj 51 329 random 8;
#X floatatom 41 399 5 0 0 0 - - -;
#X obj 51 308 spigot 0;
#X obj 16 373 float;
#X obj 16 269 t b b;
#X obj 168 232 sel 0;
#X obj 212 253 t f b;
#X msg 168 253 1;
#X msg 218 290 0;
#X text 64 372 slice;
#X obj 478 499 tabread \$1_cuepoints;
#X obj 451 548 tabread \$1_cuepoints;
#X obj 349 705 sliceplay~ \$1_audio;
#X obj 110 16 r div-\$2-\$1;
#X obj 168 211 r slice-\$2-\$1;
#X obj 19 449 r rate-\$2-\$1;
#X obj 22 540 r interrupt-\$1;
#X obj 134 488 r compensate-\$1;
#X obj 251 490 r minspeed-\$1;
#X obj 108 47 sel 0;
#X obj 15 153 spigot 1;
#X msg 51 98 0;
#X msg 89 98 1;
#X msg 209 91 0;
#X msg 173 91 1;
#X obj 82 67 t b b;
#X obj 148 66 t b b f;
#X obj 363 20 inlet;
#X obj 363 123 spigot 0;
#X obj 363 150 unpack 0 0 0;
#X obj 363 218 spigot 0;
#X obj 402 176 > 9;
#X obj 363 239 - 60;
#X obj 20 486 / 100;
#X obj 134 512 / 100;
#X obj 251 511 / 100;
#X obj 369 330 spigot 1;
#X obj 630 199 r enabled-\$2-\$1;
#X connect 1 0 26 0;
#X connect 2 0 26 0;
#X connect 3 0 26 0;
#X connect 4 0 34 0;
#X connect 5 0 6 0;
#X connect 6 0 18 0;
#X connect 9 0 26 1;
#X connect 10 0 11 0;
#X connect 10 0 12 1;
#X connect 11 0 24 0;
#X connect 12 0 25 0;
#X connect 13 0 12 0;
#X connect 13 1 10 0;
#X connect 14 0 17 1;
#X connect 16 0 14 0;
#X connect 17 0 15 0;
#X connect 17 0 50 0;
#X connect 18 0 17 0;
#X connect 18 1 16 0;
#X connect 19 0 21 0;
#X connect 19 1 20 0;
#X connect 20 0 17 1;
#X connect 20 1 22 0;
#X connect 21 0 16 1;
#X connect 22 0 16 1;
#X connect 24 0 7 0;
#X connect 24 0 9 1;
#X connect 25 0 8 0;
#X connect 25 0 9 0;
#X connect 26 0 0 0;
#X connect 27 0 33 0;
#X connect 28 0 19 0;
#X connect 29 0 47 0;
#X connect 30 0 1 0;
#X connect 31 0 48 0;
#X connect 32 0 49 0;
#X connect 33 0 39 0;
#X connect 33 1 40 0;
#X connect 34 0 5 0;
#X connect 35 0 34 1;
#X connect 36 0 34 1;
#X connect 37 0 42 1;
#X connect 38 0 42 1;
#X connect 39 0 38 0;
#X connect 39 1 35 0;
#X connect 40 0 37 0;
#X connect 40 1 36 0;
#X connect 40 2 5 1;
#X connect 41 0 42 0;
#X connect 42 0 43 0;
#X connect 43 0 44 0;
#X connect 43 1 45 0;
#X connect 44 0 46 0;
#X connect 45 0 44 1;
#X connect 46 0 50 0;
#X connect 47 0 26 0;
#X connect 48 0 2 0;
#X connect 49 0 3 0;
#X connect 50 0 13 0;
#X connect 51 0 50 1;
