#N canvas 577 106 1572 758 10;
#X obj 424 182 unpack 0 0;
#X obj 425 213 - 24;
#X obj 334 130 r notesIn-\$1;
#X obj 334 495 s notesOut-\$1;
#X obj 193 8 r loadbang-\$1;
#X obj 16 9 r loaddefs-\$1;
#X msg 16 58 loaddefinitions \$1;
#X obj 16 34 symbol;
#X obj 192 83 print loading definiton for \$1;
#X obj 17 88 KontrolModule \$1 S-brdsmono;
#X obj 193 34 print loaded:brds monointo \$1, f 12;
#X obj 18 436 +~;
#X obj 105 436 +~;
#X obj 378 348 voice \$1;
#X obj 18 130 inlet~ inL;
#X obj 103 130 inlet~ inR;
#X obj 132 495 outlet~ outR;
#X obj 18 495 outlet~ outL;
#X obj 203 131 r auxIn-\$1;
#X obj 202 154 r expIn-\$1;
#X obj 202 179 r fsIn-\$1;
#X obj 463 389 *~ 1;
#X obj 424 266 pack 0 0;
#X connect 0 0 1 0;
#X connect 0 1 22 1;
#X connect 1 0 22 0;
#X connect 2 0 3 0;
#X connect 2 0 0 0;
#X connect 4 0 10 0;
#X connect 5 0 7 0;
#X connect 5 0 8 0;
#X connect 6 0 9 0;
#X connect 7 0 6 0;
#X connect 11 0 17 0;
#X connect 12 0 16 0;
#X connect 13 0 21 0;
#X connect 14 0 11 0;
#X connect 15 0 12 0;
#X connect 21 0 12 1;
#X connect 21 0 11 1;
#X connect 22 0 13 0;
