#N canvas 30 52 1116 1079 10;
#X obj 304 186 r notesIn-\$1;
#X obj 304 671 s notesOut-\$1;
#X obj 25 186 inlet~ inL-\$1;
#X obj 135 186 inlet~ inR-\$1;
#X obj 27 671 outlet~ outL-\$1;
#X obj 136 671 outlet~ outR-\$1;
#X obj 424 185 r auxIn-\$1;
#X obj 423 208 r expIn-\$1;
#X obj 423 233 r fsIn-\$1;
#X obj 518 375 *~ 0.7;
#X obj 496 430 c_xfade;
#X obj 703 254 lop~ 10;
#X obj 703 215 / 100;
#X obj 703 182 r ps_dw-\$1;
#X obj 589 187 r ps_pitch-\$1;
#X obj 518 343 e_forcepitch \$1;
#X obj 420 265 r ctrlIn-\$1;
#X obj 420 291 s ctrlOut-\$1;
#X connect 2 0 10 0;
#X connect 2 0 15 0;
#X connect 9 0 10 1;
#X connect 10 0 4 0;
#X connect 10 0 5 0;
#X connect 11 0 10 2;
#X connect 12 0 11 0;
#X connect 13 0 12 0;
#X connect 14 0 15 1;
#X connect 15 0 9 0;
