#N canvas 140 347 1847 726 10;
#X obj 304 186 r notesIn-\$1;
#X obj 304 491 s notesOut-\$1;
#X obj 25 186 inlet~ inL-\$1;
#X obj 135 186 inlet~ inR-\$1;
#X obj 27 491 outlet~ outL-\$1;
#X obj 136 491 outlet~ outR-\$1;
#X obj 424 185 r auxIn-\$1;
#X obj 423 208 r expIn-\$1;
#X obj 423 233 r fsIn-\$1;
#N canvas 393 290 986 858 synth 0;
#X obj 234 341 outlet~;
#X obj 234 134 inlet;
#X obj 233 315 hip~ 5;
#X obj 233 293 lop~ 1000;
#X obj 234 182 bp-voice \$1;
#X obj 232 233 *~ 1;
#X connect 1 0 4 0;
#X connect 2 0 0 0;
#X connect 3 0 2 0;
#X connect 4 0 5 0;
#X connect 5 0 3 0;
#X restore 142 319 pd synth;
#X connect 0 0 9 0;
#X connect 9 0 4 0;
#X connect 9 0 5 0;
