#N canvas 577 36 1548 1271 10;
#X obj 674 174 r notesIn-\$1;
#X obj 669 764 s notesOut-\$1;
#X obj 794 173 r auxIn-\$1;
#X obj 793 196 r expIn-\$1;
#X obj 793 221 r fsIn-\$1;
#X obj 786 287 r ctrlIn-\$1;
#X obj 786 313 s ctrlOut-\$1;
#X obj 54 216 / 100;
#X obj 264 419 *~;
#X obj 383 419 *~;
#X obj 53 280 *;
#X obj 53 253 t f f;
#X obj 53 308 sig~;
#X obj 53 333 lop~ 5;
#X obj 264 189 inlet~ inL;
#X obj 383 191 inlet~ inR;
#X obj 416 764 outlet~ outR;
#X obj 264 764 outlet~ outL;
#X obj 510 222 / 100;
#X obj 509 286 *;
#X obj 509 259 t f f;
#X obj 509 314 sig~;
#X obj 509 339 lop~ 5;
#X obj 67 473 sig~;
#X obj 67 498 lop~ 5;
#X obj 502 476 sig~;
#X obj 502 501 lop~ 5;
#X obj 264 587 o_2pan;
#X obj 383 589 o_2pan;
#X obj 54 187 r pan_lgain-\$1;
#X obj 67 437 r pan_lpan-\$1;
#X obj 502 440 r pan_rpan-\$1;
#X obj 510 193 r pan_rgain-\$1;
#X connect 7 0 11 0;
#X connect 8 0 27 0;
#X connect 9 0 28 0;
#X connect 10 0 12 0;
#X connect 11 0 10 0;
#X connect 11 1 10 1;
#X connect 12 0 13 0;
#X connect 13 0 8 1;
#X connect 14 0 8 0;
#X connect 15 0 9 0;
#X connect 18 0 20 0;
#X connect 19 0 21 0;
#X connect 20 0 19 0;
#X connect 20 1 19 1;
#X connect 21 0 22 0;
#X connect 22 0 9 1;
#X connect 23 0 24 0;
#X connect 24 0 27 1;
#X connect 25 0 26 0;
#X connect 26 0 28 1;
#X connect 27 0 17 0;
#X connect 27 1 16 0;
#X connect 28 0 17 0;
#X connect 28 1 16 0;
#X connect 29 0 7 0;
#X connect 30 0 23 0;
#X connect 31 0 25 0;
#X connect 32 0 18 0;
