#N canvas 414 391 2052 956 10;
#X obj 401 470 outlet msg;
#X obj 237 470 outlet ctrl;
#X obj 232 187 r m_bus_\$1-\$2;
#X obj 399 71 r m_\$1-\$2;
#X obj 237 354 pack 0 0;
#X obj 318 354 < 10;
#X obj 237 414 spigot 0;
#X obj 446 371 != 1;
#X obj 401 414 spigot 0;
#X obj 400 342 pack s 0 0;
#X obj 400 309 symbol \$1;
#X obj 399 277 t b f;
#X msg 401 441 modulate \$1 \$2 \$3;
#X obj 399 230 change -1;
#X obj 399 126 select 0;
#X obj 400 185 bela_trigIn;
#X connect 2 0 4 0;
#X connect 2 0 5 0;
#X connect 2 0 9 1;
#X connect 3 0 14 0;
#X connect 4 0 6 0;
#X connect 5 0 6 1;
#X connect 5 0 7 0;
#X connect 6 0 1 0;
#X connect 7 0 8 1;
#X connect 8 0 12 0;
#X connect 9 0 8 0;
#X connect 10 0 9 0;
#X connect 11 0 4 0;
#X connect 11 0 10 0;
#X connect 11 1 9 2;
#X connect 11 1 4 1;
#X connect 12 0 0 0;
#X connect 13 0 11 0;
#X connect 14 1 15 0;
#X connect 15 0 13 0;
