#N canvas 20 64 1522 1074 10;
#X obj 304 186 r notesIn-\$1;
#X obj 304 681 s notesOut-\$1;
#X obj 23 9 r loaddefs-\$1;
#X msg 23 76 loaddefinitions \$1;
#X obj 181 9 r loadbang-\$1;
#X obj 181 76 print loading definiton for \$1;
#X obj 23 41 symbol;
#X obj 25 186 inlet~ inL-\$1;
#X obj 135 186 inlet~ inR-\$1;
#X obj 27 681 outlet~ outL-\$1;
#X obj 136 681 outlet~ outR-\$1;
#X obj 424 185 r auxIn-\$1;
#X obj 423 208 r expIn-\$1;
#X obj 423 233 r fsIn-\$1;
#X obj 768 424 - 1;
#X obj 768 446 abs;
#X obj 680 493 e_tremolo mtrem;
#X text 698 74 C&G Tremolo Effects Module;
#X obj 768 401 / 100;
#X obj 23 112 KontrolModule \$1 F-tremelo;
#X obj 181 35 print loaded:tremelo into \$1, f 35;
#X obj 722 300 r trem_freq-\$1;
#X obj 768 369 r trem_dw-\$1;
#X connect 0 0 1 0;
#X connect 2 0 6 0;
#X connect 2 0 5 0;
#X connect 3 0 19 0;
#X connect 4 0 20 0;
#X connect 6 0 3 0;
#X connect 7 0 16 0;
#X connect 14 0 15 0;
#X connect 15 0 16 2;
#X connect 16 0 9 0;
#X connect 16 0 10 0;
#X connect 18 0 14 0;
#X connect 21 0 16 1;
#X connect 22 0 18 0;
