#N canvas 170 533 891 543 10;
#X declare -path subpatches;
#X obj 76 75 loadbang;
#X obj 358 196 vsl 15 128 0 1 0 0 empty empty empty 0 -9 0 10 -262144
-1 -1 0 1;
#X obj 421 196 vsl 15 128 0 1 0 0 empty empty empty 0 -9 0 10 -262144
-1 -1 0 1;
#X obj 482 196 vsl 15 128 0 1 0 0 empty empty empty 0 -9 0 10 -262144
-1 -1 0 1;
#X obj 544 196 vsl 15 128 0 1 0 0 empty empty empty 0 -9 0 10 -262144
-1 -1 0 1;
#X obj 653 197 vsl 15 128 0 1 0 0 empty empty empty 0 -9 0 10 -262144
-1 -1 0 1;
#X obj 470 414 unpack;
#X floatatom 470 443 5 0 0 0 - - -;
#X floatatom 509 443 5 0 0 0 - - -;
#X obj 366 420 tgl 15 0 empty empty empty 17 7 0 10 -262144 -1 -1 0
1;
#X obj 654 368 tgl 15 0 empty empty empty 17 7 0 10 -262144 -1 -1 0
1;
#N canvas 140 53 922 604 audioIO 0;
#X obj 513 336 dac~;
#X obj 192 166 adc~, f 6;
#X obj 191 448 pack 0 0 0 0, f 18;
#X msg 191 470 sendtyped /oled/vumeter iiii \$1 \$2 \$3 \$4;
#X obj 483 233 *~;
#X obj 572 235 *~;
#X obj 810 122 *;
#X obj 810 95 t f f;
#X obj 314 403 * 12;
#X obj 314 378 sqrt;
#X obj 273 403 * 12;
#X obj 273 378 sqrt;
#X obj 191 378 sqrt;
#X obj 232 378 sqrt;
#X obj 481 157 tb_peakcomp~ -3 8 10 100 0;
#X obj 191 403 * 14;
#X obj 232 403 * 14;
#X obj 232 425 - 2;
#X obj 191 425 - 2;
#X obj 810 150 sig~;
#X obj 482 179 clip~ -1 1;
#X obj 571 179 clip~ -1 1;
#X text 268 34 Receives and sends audio to patch. Outgoing audio is
run through a compressor to provide some headroom if things get too
loud. Also sends values to the Organelle's OLED VU meter.;
#X obj 742 360 vsl 15 128 0 1 0 0 empty empty empty 0 -9 0 10 -262144
-1 -1 0 1;
#X obj 74 431 timer;
#X floatatom 74 453 5 0 0 0 - - -;
#X obj 84 405 t b b;
#X obj 142 328 pvu~ 100;
#X obj 214 325 pvu~ 100;
#X obj 278 326 pvu~ 100;
#X obj 341 329 pvu~ 100;
#X obj 810 175 lop~ 5;
#X obj 110 244 s~ oinL;
#X obj 285 245 s~ oinR;
#X obj 742 326 r ovol;
#X obj 810 69 r ovol;
#X obj 480 135 catch~ ooutL;
#X obj 659 133 catch~ ooutR;
#X obj 191 492 s oscOutRaw;
#X connect 1 0 27 0;
#X connect 1 0 32 0;
#X connect 1 1 28 0;
#X connect 1 1 33 0;
#X connect 2 0 3 0;
#X connect 3 0 38 0;
#X connect 4 0 0 0;
#X connect 4 0 29 0;
#X connect 5 0 0 1;
#X connect 5 0 30 0;
#X connect 6 0 19 0;
#X connect 7 0 6 0;
#X connect 7 1 6 1;
#X connect 8 0 2 3;
#X connect 9 0 8 0;
#X connect 10 0 2 2;
#X connect 11 0 10 0;
#X connect 12 0 15 0;
#X connect 13 0 16 0;
#X connect 14 0 20 0;
#X connect 14 1 21 0;
#X connect 15 0 18 0;
#X connect 16 0 17 0;
#X connect 17 0 2 1;
#X connect 18 0 2 0;
#X connect 19 0 31 0;
#X connect 20 0 4 0;
#X connect 21 0 5 0;
#X connect 24 0 25 0;
#X connect 26 0 24 0;
#X connect 26 1 24 1;
#X connect 27 0 12 0;
#X connect 27 0 26 0;
#X connect 28 0 13 0;
#X connect 29 0 11 0;
#X connect 30 0 9 0;
#X connect 31 0 5 1;
#X connect 31 0 4 1;
#X connect 34 0 23 0;
#X connect 35 0 7 0;
#X connect 36 0 14 0;
#X connect 37 0 14 1;
#X restore 76 202 pd audioIO;
#N canvas 85 315 1265 661 messageIO 1;
#X msg 870 180 port 4000;
#X obj 546 252 tgl 15 0 empty empty empty 17 7 0 10 -262144 -1 -1 1
1;
#X msg 617 178 connect localhost 4001;
#X obj 870 208 udpreceive;
#X obj 870 232 unpackOSC;
#X obj 546 180 packOSC;
#X obj 546 216 udpsend;
#X obj 546 97 r oscOut;
#X obj 752 95 t b b;
#X obj 752 67 loadbang;
#X obj 870 256 s oscIn;
#N canvas 309 254 633 581 LED 0;
#X msg 74 339 send /led \$1;
#X obj 75 137 % 8;
#X obj 75 86 r led;
#X msg 125 134 0;
#X obj 125 84 r quitting;
#X obj 89 235 sel 0 1 2 3 4 5 6 7, f 37;
#X msg 87 266 0;
#X msg 123 266 4;
#X msg 160 266 5;
#X msg 197 265 1;
#X msg 232 265 3;
#X msg 270 265 2;
#X msg 306 267 6;
#X msg 343 267 7;
#X obj 74 368 s oscOutRaw;
#X connect 0 0 14 0;
#X connect 1 0 5 0;
#X connect 2 0 1 0;
#X connect 3 0 5 0;
#X connect 4 0 3 0;
#X connect 5 0 6 0;
#X connect 5 1 7 0;
#X connect 5 2 8 0;
#X connect 5 3 9 0;
#X connect 5 4 10 0;
#X connect 5 5 11 0;
#X connect 5 6 12 0;
#X connect 5 7 13 0;
#X connect 6 0 0 0;
#X connect 7 0 0 0;
#X connect 8 0 0 0;
#X connect 9 0 0 0;
#X connect 10 0 0 0;
#X connect 11 0 0 0;
#X connect 12 0 0 0;
#X connect 13 0 0 0;
#X restore 683 364 pd LED;
#N canvas 16 50 1215 407 OLED 1;
#X obj 110 173 list append;
#X obj 110 198 list trim;
#X obj 137 110 t b l;
#X msg 35 138 send /oled/line/1;
#X obj 110 223 s oscOut;
#X obj 137 78 list;
#X obj 135 44 r screenLine1;
#X obj 297 169 list append;
#X obj 297 194 list trim;
#X obj 324 106 t b l;
#X obj 297 219 s oscOut;
#X obj 324 74 list;
#X obj 505 198 list trim;
#X obj 532 110 t b l;
#X obj 505 223 s oscOut;
#X obj 532 78 list;
#X obj 505 173 list append;
#X obj 697 170 list append;
#X obj 697 195 list trim;
#X obj 724 107 t b l;
#X obj 697 220 s oscOut;
#X obj 724 75 list;
#X obj 914 170 list append;
#X obj 914 195 list trim;
#X obj 941 107 t b l;
#X obj 914 220 s oscOut;
#X obj 941 75 list;
#X obj 322 40 r screenLine2;
#X obj 530 44 r screenLine3;
#X obj 722 41 r screenLine4;
#X obj 939 41 r screenLine5;
#X msg 222 134 send /oled/line/2;
#X msg 430 138 send /oled/line/3;
#X msg 622 136 send /oled/line/4;
#X msg 839 135 send /oled/line/5;
#X obj 1075 168 list append;
#X obj 1075 193 list trim;
#X obj 1102 105 t b l;
#X obj 1102 73 list;
#X msg 1000 133 send /oled/line/5;
#X obj 1075 218 s oscOutRaw;
#X obj 1100 39 r auxLine;
#X connect 0 0 1 0;
#X connect 1 0 4 0;
#X connect 2 0 3 0;
#X connect 2 1 0 1;
#X connect 3 0 0 0;
#X connect 5 0 2 0;
#X connect 6 0 5 0;
#X connect 7 0 8 0;
#X connect 8 0 10 0;
#X connect 9 0 31 0;
#X connect 9 1 7 1;
#X connect 11 0 9 0;
#X connect 12 0 14 0;
#X connect 13 0 32 0;
#X connect 13 1 16 1;
#X connect 15 0 13 0;
#X connect 16 0 12 0;
#X connect 17 0 18 0;
#X connect 18 0 20 0;
#X connect 19 0 33 0;
#X connect 19 1 17 1;
#X connect 21 0 19 0;
#X connect 22 0 23 0;
#X connect 23 0 25 0;
#X connect 24 0 34 0;
#X connect 24 1 22 1;
#X connect 26 0 24 0;
#X connect 27 0 11 0;
#X connect 28 0 15 0;
#X connect 29 0 21 0;
#X connect 30 0 26 0;
#X connect 31 0 7 0;
#X connect 32 0 16 0;
#X connect 33 0 17 0;
#X connect 34 0 22 0;
#X connect 35 0 36 0;
#X connect 36 0 40 0;
#X connect 37 0 39 0;
#X connect 37 1 35 1;
#X connect 38 0 37 0;
#X connect 39 0 35 0;
#X connect 41 0 38 0;
#X restore 685 396 pd OLED;
#N canvas 8 50 450 300 quit 0;
#X obj 96 95 sel 1;
#X obj 96 149 delay 100;
#X msg 96 171 \; pd quit;
#X obj 96 117 t b b;
#X obj 170 150 s quitting;
#X obj 96 60 routeOSC /quitpd;
#X obj 96 26 r oscIn;
#X connect 0 0 3 0;
#X connect 1 0 2 0;
#X connect 3 0 1 0;
#X connect 3 1 4 0;
#X connect 5 0 0 0;
#X connect 6 0 5 0;
#X restore 683 470 pd quit;
#N canvas 13 51 788 459 keys 0;
#X obj 119 56 routeOSC /key;
#X obj 206 114 unpack;
#X floatatom 206 144 5 0 0 0 - - -;
#X floatatom 253 146 5 0 0 0 - - -;
#X obj 253 173 / 1;
#X obj 206 171 + 59;
#X obj 119 112 sel 100;
#X msg 119 145 1;
#X msg 165 145 0;
#X obj 119 83 route 0;
#X obj 119 26 r oscIn;
#X obj 206 212 pack 0 0 0;
#X obj 206 247 s onotes;
#X obj 119 178 s oaux;
#X connect 0 0 9 0;
#X connect 1 0 2 0;
#X connect 1 1 3 0;
#X connect 2 0 5 0;
#X connect 3 0 4 0;
#X connect 4 0 11 1;
#X connect 5 0 11 0;
#X connect 6 0 7 0;
#X connect 6 1 8 0;
#X connect 7 0 13 0;
#X connect 8 0 13 0;
#X connect 9 0 6 0;
#X connect 9 1 1 0;
#X connect 10 0 0 0;
#X connect 11 0 12 0;
#X restore 683 497 pd keys;
#N canvas 12 51 821 300 footSwitch 0;
#X obj 194 109 routeOSC /fs;
#X obj 194 76 r oscIn;
#X obj 194 171 == 0;
#X text 253 167 flip this cause most foot switches we tried are normally
closed, f 66;
#X obj 327 118 r footSwitchPolarity;
#X obj 254 219 s ofsRaw;
#X obj 194 218 s ofs;
#X connect 0 0 2 0;
#X connect 1 0 0 0;
#X connect 2 0 5 0;
#X connect 2 0 6 0;
#X connect 4 0 2 1;
#X restore 683 524 pd footSwitch;
#N canvas 369 229 1252 622 analog 0;
#X obj 148 147 routeOSC /knobs;
#X obj 148 175 unpack 0 0 0 0 0 0, f 129;
#X obj 148 113 r oscIn;
#X obj 1122 211 r expOverride;
#X obj 1122 305 tgl 15 0 empty empty empty 17 7 0 10 -262144 -1 -1
0 1;
#X floatatom 1048 339 5 0 0 0 - - -;
#X obj 145 323 change -1;
#X obj 868 210 change -1;
#X obj 1048 209 change -1;
#X obj 1048 275 override 20;
#X obj 338 373 change -1;
#X obj 538 367 change -1;
#X obj 707 381 change -1;
#X obj 145 349 / 1023;
#X obj 338 401 / 1023;
#X obj 538 395 / 1023;
#X obj 707 409 / 1023;
#X obj 868 245 / 1023;
#X obj 1048 306 / 1023;
#X obj 148 297 override2 20 1;
#X text 298 34 knobs pass thru override2 if their value is coming from
somewhere else (knobs.txt preset file or MIDI CC);
#X obj 338 344 override2 20 2;
#X obj 538 338 override2 20 3;
#X obj 707 352 override2 20 4;
#X obj 145 375 s oknob1;
#X obj 338 427 s oknob2;
#X obj 538 421 s oknob3;
#X obj 707 435 s oknob4;
#X obj 868 278 s ovol;
#X obj 1048 366 s oexp;
#X obj 984 270 s oexpRaw;
#X obj 599 230 s oknob4Raw;
#X obj 425 232 s oknob3Raw;
#X obj 257 234 s oknob2Raw;
#X obj 63 231 s oknob1Raw;
#X connect 0 0 1 0;
#X connect 1 0 19 0;
#X connect 1 0 34 0;
#X connect 1 1 21 0;
#X connect 1 1 33 0;
#X connect 1 2 22 0;
#X connect 1 2 32 0;
#X connect 1 3 23 0;
#X connect 1 3 31 0;
#X connect 1 4 7 0;
#X connect 1 5 8 0;
#X connect 2 0 0 0;
#X connect 3 0 9 1;
#X connect 5 0 29 0;
#X connect 6 0 13 0;
#X connect 7 0 17 0;
#X connect 8 0 9 0;
#X connect 8 0 30 0;
#X connect 9 0 18 0;
#X connect 9 1 4 0;
#X connect 10 0 14 0;
#X connect 11 0 15 0;
#X connect 12 0 16 0;
#X connect 13 0 24 0;
#X connect 14 0 25 0;
#X connect 15 0 26 0;
#X connect 16 0 27 0;
#X connect 17 0 28 0;
#X connect 18 0 5 0;
#X connect 19 0 6 0;
#X connect 21 0 10 0;
#X connect 22 0 11 0;
#X connect 23 0 12 0;
#X restore 684 557 pd analog;
#X text 657 334 stuff going out (from patch)...;
#X text 654 441 stuff coming in (to patch)...;
#X text 571 253 connected to mother background program;
#X text 595 9 Receives and sends signals to the Organelle hardware.
A program running in the background interacts with the hardware and
exchanges messages with this patch using OSC over UDP.;
#X obj 638 87 r oscOutGate;
#X obj 425 134 r oscOutRaw;
#X obj 546 133 spigot 1;
#X text 66 120 oscOutRaw used in orac if you are carefully handling
active module ideally the gate woudl be closed at startup but for older
orac modules leave it open will only be an issue if back compat modes
are used;
#X connect 0 0 3 0;
#X connect 2 0 6 0;
#X connect 3 0 4 0;
#X connect 4 0 10 0;
#X connect 5 0 6 0;
#X connect 6 0 1 0;
#X connect 7 0 23 0;
#X connect 8 0 2 0;
#X connect 8 1 0 0;
#X connect 9 0 8 0;
#X connect 21 0 23 1;
#X connect 22 0 5 0;
#X connect 23 0 5 0;
#X restore 76 229 pd messageIO;
#X text 237 19 Mother Patch. This patch is the bridge between the hardware
and Pd. Without it open the Organelle does not work. It should not
need to be edited under most circumstances.;
#X text 455 135 knobs;
#X text 617 129 foot switch / expression pedal, f 17;
#X text 349 370 aux button;
#X text 473 367 keyboard;
#X text 318 100 The following values are available in your patch:;
#N canvas 336 713 541 549 menuControl 0;
#X msg 109 336 send /gohome 1;
#X obj 109 311 bang;
#X msg 228 343 send /enablepatchsub 1;
#X obj 228 315 bang;
#X obj 133 77 r oscIn;
#N canvas 5 50 450 300 speedlim50 0;
#X obj 139 116 spigot 1;
#X msg 188 90 0;
#X msg 234 91 1;
#X obj 135 59 t b f;
#X obj 131 147 t b f;
#X obj 184 147 delay 50;
#X obj 130 25 inlet;
#X obj 150 210 outlet;
#X connect 0 0 4 0;
#X connect 1 0 0 1;
#X connect 2 0 0 1;
#X connect 3 0 1 0;
#X connect 3 1 0 0;
#X connect 4 0 5 0;
#X connect 4 1 7 0;
#X connect 5 0 2 0;
#X connect 6 0 3 0;
#X restore 133 129 pd speedlim50;
#X obj 133 103 routeOSC /encoder/turn /encoder/button;
#X text 64 10 If we get a bang to enableSubMenu we start recieving
messages from the selector encoder. A goHome menu returns to the Organelle
main menu.;
#X obj 133 157 s oenc;
#X obj 264 130 s oencbut;
#X obj 136 396 s oscOutRaw;
#X obj 228 287 r oEnableSubMenu;
#X obj 109 289 r oGoHome;
#X connect 0 0 10 0;
#X connect 1 0 0 0;
#X connect 2 0 10 0;
#X connect 3 0 2 0;
#X connect 4 0 6 0;
#X connect 5 0 8 0;
#X connect 6 0 5 0;
#X connect 6 1 9 0;
#X connect 11 0 3 0;
#X connect 12 0 1 0;
#X restore 75 284 pd menuControl;
#N canvas 432 163 404 168 META 0;
#X text 12 113 VERSION 1.2;
#X text 12 5 KEYWORDS Mother;
#X text 12 45 DESCRIPTION This patch bridges Organelle hardware and
Pd;
#X text 12 89 WEBSITE http://critterandguitari.com;
#X text 12 69 AUTHOR Critter & Guitari;
#X text 12 25 LICENSE BSD;
#X restore 79 23 pd META;
#N canvas 11 50 731 554 init 0;
#X msg 110 263 \; pd dsp 1, f 10;
#X obj 110 227 delay 200;
#X obj 200 229 delay 100;
#X msg 200 333 send /patchLoaded 1;
#X obj 110 182 t b b;
#X obj 200 252 t b b;
#X obj 104 147 inlet;
#N canvas 241 50 1006 843 checkAndRecallKnobState 0;
#X obj 337 512 textfile;
#X obj 504 154 sel 1;
#X msg 177 177 rewind;
#X obj 140 119 bng 15 250 50 0 empty empty empty 17 7 0 10 -262144
-1 -1;
#X obj 337 536 unpack 0 0 0 0;
#X obj 140 141 t b b b;
#X obj 602 236 pack s 0 0 0 0;
#X obj 652 186 r knob1;
#X obj 710 189 r knob2;
#X obj 774 192 r knob3;
#X obj 839 189 r knob4;
#X msg 553 209 set;
#X obj 602 259 list trim;
#X obj 228 580 t b f;
#X obj 70 672 s recallState;
#X obj 504 94 r oscIn;
#X obj 504 124 routeOSC /saveState;
#X msg 398 261 write /tmp/state/knobs.txt;
#X msg 240 169 read /tmp/patch/knobs.txt;
#X obj 359 218 s saveState;
#X obj 505 184 t b b b;
#X text 266 22 Save and recall knob states. We always save to the /tmp/state
directory which gets copied to the current patch or new patch whe the
Save or Save New system command is selected.;
#X obj 259 665 s knob1;
#X obj 290 645 s knob1Override;
#X obj 140 93 inlet;
#X obj 258 613 t f b;
#X obj 436 602 t f b;
#X obj 581 604 t f b;
#X obj 733 602 t f b;
#X obj 437 654 s knob2;
#X obj 468 634 s knob2Override;
#X obj 582 656 s knob3;
#X obj 613 635 s knob3Override;
#X obj 734 654 s knob4;
#X obj 764 634 s knob4Override;
#X connect 0 0 4 0;
#X connect 1 0 20 0;
#X connect 2 0 0 0;
#X connect 3 0 5 0;
#X connect 4 0 13 0;
#X connect 4 1 26 0;
#X connect 4 2 27 0;
#X connect 4 3 28 0;
#X connect 5 0 0 0;
#X connect 5 1 2 0;
#X connect 5 2 18 0;
#X connect 6 0 12 0;
#X connect 7 0 6 1;
#X connect 8 0 6 2;
#X connect 9 0 6 3;
#X connect 10 0 6 4;
#X connect 11 0 6 0;
#X connect 12 0 0 0;
#X connect 13 0 14 0;
#X connect 13 1 25 0;
#X connect 15 0 16 0;
#X connect 16 0 1 0;
#X connect 17 0 0 0;
#X connect 18 0 0 0;
#X connect 20 0 19 0;
#X connect 20 1 17 0;
#X connect 20 2 11 0;
#X connect 24 0 3 0;
#X connect 25 0 22 0;
#X connect 25 1 23 0;
#X connect 26 0 29 0;
#X connect 26 1 30 0;
#X connect 27 0 31 0;
#X connect 27 1 32 0;
#X connect 28 0 33 0;
#X connect 28 1 34 0;
#X restore 232 287 pd checkAndRecallKnobState;
#X text 156 33 1 check for basic knobs.txt preset file to override
knob values;
#X text 158 71 2 signal mother host patch is loaded \, casuing initial
knob values to be sent.;
#X text 157 111 3 start audio;
#X obj 200 358 s oscOutRaw;
#X connect 1 0 0 0;
#X connect 2 0 5 0;
#X connect 3 0 11 0;
#X connect 4 0 1 0;
#X connect 4 1 2 0;
#X connect 5 0 3 0;
#X connect 6 0 4 0;
#X restore 76 103 pd init;
#X obj 358 162 r oknob1;
#X obj 421 162 r oknob2;
#X obj 482 162 r oknob3;
#X obj 544 162 r oknob4;
#X obj 653 160 r oexp;
#X obj 654 340 r ofs;
#X obj 470 388 r onotes;
#X obj 366 394 r oaux;
#X obj 65 360 declare -path subpatches;
#N canvas 673 64 1887 1239 MIDI 0;
#X obj 44 166 spigot 1;
#X obj 76 783 pgmin;
#X obj 76 892 spigot 1;
#X obj 169 860 loadbang;
#X obj 76 952 spigot 0;
#X msg 169 916 1;
#X obj 169 888 delay 500;
#X msg 169 944 0;
#X text 246 887 speed limit these;
#X obj 76 995 t f b b;
#X obj 534 196 >= 64;
#X obj 350 181 t f b;
#X obj 350 208 / 127;
#X obj 38 4 cnv 15 300 25 empty empty MIDI_IN 0 12 0 14 -4032 -66577
0;
#X obj 44 43 notein;
#X obj 357 372 ctlin;
#X obj 357 452 / 127;
#X msg 471 491 1;
#X msg 438 490 2;
#X obj 340 594 spigot 1;
#X obj 440 413 f;
#X obj 347 413 t b f;
#X obj 579 372 bendin;
#X obj 591 452 / 16383;
#X obj 565 594 spigot 1;
#X obj 579 416 t b f;
#X msg 559 452 0;
#X obj 734 594 spigot 1;
#X obj 748 418 t b f;
#X obj 748 372 touchin;
#X obj 760 452 / 127;
#X msg 728 452 3;
#X obj 112 114 r midiNoteGate;
#X obj 434 559 r midiCtrlGate;
#X obj 638 559 r midiCtrlGate;
#X obj 811 559 r midiCtrlGate;
#X obj 402 43 r midiExpCC;
#X obj 598 43 r midiFsCC;
#X obj 350 43 ctlin;
#X obj 350 154 change -1;
#X obj 534 227 change -1;
#X obj 534 43 ctlin;
#X obj 555 75 == 64;
#X obj 534 100 spigot 1;
#X obj 399 75 == 4;
#X obj 350 100 spigot 1;
#X obj 534 154 change -1;
#X obj 76 1023 change -1;
#X obj 169 832 r midiPgmGate;
#X obj 748 194 >= 64;
#X obj 748 227 change -1;
#X obj 748 43 ctlin;
#X obj 748 100 spigot 1;
#X obj 748 154 change -1;
#X obj 812 43 r midiAuxCC;
#X obj 769 73 == 69;
#X obj 109 372 ctlin;
#X obj 92 594 spigot 1;
#X obj 192 413 f;
#X obj 99 413 t b f;
#X obj 186 559 r midiCtrlGate;
#X obj 43 262 s onotes;
#X obj 350 261 s oexp;
#X obj 534 262 s ofs;
#X obj 748 262 s oaux;
#X obj 76 1050 s opgmChg;
#X obj 734 677 s octrl;
#X obj 565 677 s octrl;
#X obj 339 677 s octrl;
#X obj 91 677 s omidiCC;
#X obj 44 108 midisel3;
#X obj 92 530 midisel3;
#X obj 340 530 midisel3;
#X obj 565 530 midisel3;
#X obj 734 530 midisel3;
#X obj 350 127 midisel2;
#X obj 534 127 midisel2;
#X obj 748 127 midisel2;
#X obj 76 832 midisel2;
#X obj 1406 427 r midiCh;
#X obj 259 1245 >= 64;
#X obj 259 1278 change -1;
#X obj 259 1094 ctlin;
#X obj 259 1151 spigot 1;
#X obj 259 1205 change -1;
#X obj 259 1178 midisel2;
#X obj 280 1124 == 101;
#X obj 78 1245 >= 64;
#X obj 78 1278 change -1;
#X obj 78 1094 ctlin;
#X obj 78 1151 spigot 1;
#X obj 78 1205 change -1;
#X obj 78 1178 midisel2;
#X obj 259 1311 s onextpreset;
#X obj 78 1313 s oprevpreset;
#X obj 99 1124 == 100;
#X obj 458 1244 >= 64;
#X obj 458 1277 change -1;
#X obj 458 1093 ctlin;
#X obj 458 1150 spigot 1;
#X obj 458 1204 change -1;
#X obj 458 1177 midisel2;
#X obj 458 1310 s osavepreset;
#X obj 479 1123 == 102;
#X obj 401 990 change -1;
#X obj 401 806 ctlin;
#X obj 401 863 spigot 1;
#X obj 401 890 midisel2;
#X obj 401 1023 s oselectmodule;
#X obj 465 806 r midiSelectModuleCC;
#X obj 522 1093 r midiSavePresetCC;
#X obj 323 1094 r midiNextPresetCC;
#X obj 142 1094 r midiPrevPresetCC;
#X obj 422 836 == 0;
#X obj 439 452 route 74 1 123;
#X msg 506 491 123;
#X connect 0 0 61 0;
#X connect 1 0 78 0;
#X connect 1 1 78 1;
#X connect 2 0 4 0;
#X connect 3 0 6 0;
#X connect 4 0 9 0;
#X connect 5 0 4 1;
#X connect 6 0 5 0;
#X connect 7 0 4 1;
#X connect 9 0 47 0;
#X connect 9 1 6 0;
#X connect 9 2 7 0;
#X connect 10 0 40 0;
#X connect 11 0 12 0;
#X connect 12 0 62 0;
#X connect 14 0 70 0;
#X connect 14 1 70 1;
#X connect 14 2 70 2;
#X connect 15 0 21 0;
#X connect 15 1 20 1;
#X connect 15 2 72 2;
#X connect 16 0 72 1;
#X connect 17 0 72 0;
#X connect 18 0 72 0;
#X connect 19 0 68 0;
#X connect 20 0 114 0;
#X connect 21 0 20 0;
#X connect 21 1 16 0;
#X connect 22 0 25 0;
#X connect 22 1 73 2;
#X connect 23 0 73 1;
#X connect 24 0 67 0;
#X connect 25 0 26 0;
#X connect 25 1 23 0;
#X connect 26 0 73 0;
#X connect 27 0 66 0;
#X connect 28 0 31 0;
#X connect 28 1 30 0;
#X connect 29 0 28 0;
#X connect 29 1 74 2;
#X connect 30 0 74 1;
#X connect 31 0 74 0;
#X connect 32 0 0 1;
#X connect 33 0 19 1;
#X connect 34 0 24 1;
#X connect 35 0 27 1;
#X connect 36 0 44 1;
#X connect 37 0 42 1;
#X connect 38 0 45 0;
#X connect 38 1 44 0;
#X connect 38 2 75 1;
#X connect 39 0 11 0;
#X connect 40 0 63 0;
#X connect 41 0 43 0;
#X connect 41 1 42 0;
#X connect 41 2 76 1;
#X connect 42 0 43 1;
#X connect 43 0 76 0;
#X connect 44 0 45 1;
#X connect 45 0 75 0;
#X connect 46 0 10 0;
#X connect 47 0 65 0;
#X connect 48 0 2 1;
#X connect 49 0 50 0;
#X connect 50 0 64 0;
#X connect 51 0 52 0;
#X connect 51 1 55 0;
#X connect 51 2 77 1;
#X connect 52 0 77 0;
#X connect 53 0 49 0;
#X connect 54 0 55 1;
#X connect 55 0 52 1;
#X connect 56 0 59 0;
#X connect 56 1 58 1;
#X connect 56 2 71 2;
#X connect 57 0 69 0;
#X connect 58 0 71 0;
#X connect 59 0 58 0;
#X connect 59 1 71 1;
#X connect 60 0 57 1;
#X connect 70 0 0 0;
#X connect 71 0 57 0;
#X connect 72 0 19 0;
#X connect 73 0 24 0;
#X connect 74 0 27 0;
#X connect 75 0 39 0;
#X connect 76 0 46 0;
#X connect 77 0 53 0;
#X connect 78 0 2 0;
#X connect 79 0 70 3;
#X connect 79 0 75 2;
#X connect 79 0 76 2;
#X connect 79 0 77 2;
#X connect 79 0 78 2;
#X connect 79 0 71 3;
#X connect 79 0 72 3;
#X connect 79 0 73 3;
#X connect 79 0 74 3;
#X connect 79 0 107 2;
#X connect 79 0 101 2;
#X connect 79 0 85 2;
#X connect 79 0 92 2;
#X connect 80 0 81 0;
#X connect 81 0 93 0;
#X connect 82 0 83 0;
#X connect 82 1 86 0;
#X connect 82 2 85 1;
#X connect 83 0 85 0;
#X connect 84 0 80 0;
#X connect 85 0 84 0;
#X connect 86 0 83 1;
#X connect 87 0 88 0;
#X connect 88 0 94 0;
#X connect 89 0 90 0;
#X connect 89 1 95 0;
#X connect 89 2 92 1;
#X connect 90 0 92 0;
#X connect 91 0 87 0;
#X connect 92 0 91 0;
#X connect 95 0 90 1;
#X connect 96 0 97 0;
#X connect 97 0 102 0;
#X connect 98 0 99 0;
#X connect 98 1 103 0;
#X connect 98 2 101 1;
#X connect 99 0 101 0;
#X connect 100 0 96 0;
#X connect 101 0 100 0;
#X connect 103 0 99 1;
#X connect 104 0 108 0;
#X connect 105 0 106 0;
#X connect 105 1 113 0;
#X connect 105 2 107 1;
#X connect 106 0 107 0;
#X connect 107 0 104 0;
#X connect 109 0 113 1;
#X connect 110 0 103 1;
#X connect 111 0 86 1;
#X connect 112 0 95 1;
#X connect 113 0 106 1;
#X connect 114 0 18 0;
#X connect 114 1 17 0;
#X connect 114 2 115 0;
#X connect 115 0 72 0;
#X restore 77 254 pd MIDI;
#X connect 0 0 21 0;
#X connect 6 0 7 0;
#X connect 6 1 8 0;
#X connect 22 0 1 0;
#X connect 23 0 2 0;
#X connect 24 0 3 0;
#X connect 25 0 4 0;
#X connect 26 0 5 0;
#X connect 27 0 10 0;
#X connect 28 0 6 0;
#X connect 29 0 9 0;
