#N canvas 0 473 1692 690 10;
#X obj 304 186 r notesIn-\$1;
#X obj 23 112 KontrolModule \$1 U-overloop;
#X obj 304 491 s notesOut-\$1;
#X obj 23 9 r loaddefs-\$1;
#X msg 23 76 loaddefinitions \$1;
#X obj 181 9 r loadbang-\$1;
#X obj 181 76 print loading definiton for \$1;
#X obj 23 41 symbol;
#X obj 25 186 inlet~ inL-\$1;
#X obj 135 186 inlet~ inR-\$1;
#X obj 27 491 outlet~ outL-\$1;
#X obj 136 491 outlet~ outR-\$1;
#X obj 424 185 r auxIn-\$1;
#X obj 423 208 r expIn-\$1;
#X obj 423 233 r fsIn-\$1;
#X obj 181 45 print loaded:overloop into \$1, f 35;
#X obj 421 76 s aux-label-\$1;
#X obj 516 45 int 0;
#X obj 516 76 s aux-led-\$1;
#X obj 421 45 symbol;
#N canvas 203 234 1218 843 overloop 1;
#X obj 43 386 sig~;
#X obj 43 408 lop~ 5;
#X obj 43 430 *~;
#X obj 74 540 *~;
#X obj 538 343 tgl 50 0 empty empty empty 17 7 0 100 -262144 -1 -1
0 1;
#X floatatom 618 406 5 0 0 0 - - -, f 5;
#X floatatom 837 425 5 0 0 0 - - -, f 5;
#X obj 724 343 tgl 50 0 empty empty empty 17 7 0 100 -262144 -1 -1
0 1;
#X obj 230 70 sig~;
#X obj 228 117 *~;
#X obj 146 166 *~;
#X obj 503 118 tgl 50 0 empty empty empty 17 7 0 100 -262144 -1 -1
0 1;
#X obj 669 318 + 1, f 4;
#X msg 538 323 1;
#X obj 544 197 sel 1 0;
#X msg 577 323 0;
#X msg 760 322 0;
#X msg 724 322 1;
#X obj 578 227 t b b b b;
#X obj 506 89 sel 1;
#X obj 807 156 - 59;
#X floatatom 805 254 5 0 0 0 - - -, f 5;
#X obj 801 277 t b b f;
#X obj 899 503 - 24;
#X obj 893 534 moses 0;
#X obj 805 225 + 0;
#X obj 248 384 delay5sec 5;
#X obj 704 128 toggle-keys;
#X obj 653 44 stripnote;
#X obj 652 70 moses 60;
#X obj 704 97 moses 84;
#X obj 675 534 sel 0 1;
#X obj 464 500 sel 1;
#X obj 649 97 t b b;
#X obj 229 92 lop~ 20;
#X obj 627 319 i 1;
#X obj 807 200 abs;
#X obj 807 178 - 25;
#X floatatom 415 352 5 0 0 0 - - -, f 5;
#X obj 642 292 t b f;
#X obj 655 405 ==;
#X obj 675 501 spigot 1;
#X obj 525 607 delay 100;
#X msg 525 566 stop;
#X obj 592 568 spigot 1;
#N canvas 15 73 567 548 getNumSounds 0;
#X obj 121 110 folder_list;
#X msg 120 68 symbol ./Sounds/*.wav;
#X obj 121 159 i 0;
#X obj 122 181 + 1;
#X obj 119 137 bang;
#X obj 124 31 t b b;
#X msg 183 142 0;
#X obj 121 218 outlet;
#X obj 73 9 inlet;
#X obj 124 9 r loadbang-\$1;
#X connect 0 0 4 0;
#X connect 1 0 0 0;
#X connect 2 0 3 0;
#X connect 3 0 2 1;
#X connect 3 0 7 0;
#X connect 4 0 2 0;
#X connect 5 0 1 0;
#X connect 5 1 6 0;
#X connect 6 0 2 1;
#X connect 8 0 5 0;
#X connect 9 0 5 0;
#X restore 415 320 pd getNumSounds;
#X obj 765 636 f;
#X obj 433 607 f;
#X msg 649 131 60;
#X obj 165 127 *~ 3;
#X obj 59 14 inlet~ inR;
#X obj 134 14 inlet~ inL;
#X obj 152 639 outlet~ outL;
#X obj 271 642 outlet~ outR;
#X obj 232 49 / 100;
#X obj 653 14 r notesIn-\$1;
#X obj 230 14 r ol_ilevel-\$1;
#X obj 43 341 r ol_rlevel-\$1;
#X obj 43 361 / 100;
#X obj 264 234 r ol_delay-\$1;
#X obj 322 327 / 100;
#X obj 333 282 r ol_feedback-\$1;
#X obj 404 14 r fsIn-\$1;
#X obj 503 14 r auxIn-\$1;
#X obj 606 782 s aux-label-\$1;
#X obj 701 782 s aux-led-\$1;
#X msg 634 682 Stopped;
#X msg 790 682 Playing \$1.wav;
#X msg 416 682 Recording \$1.wav;
#X obj 413 713 r loadbang-\$1;
#X msg 413 734 Aux: Rec / Play;
#X msg 715 637 3;
#X msg 685 637 0;
#X msg 466 609 1;
#X msg 597 637 7;
#X obj 504 454 recorder 1 \$1;
#X obj 73 572 s~ recycle-\$1;
#X obj 322 425 r~ recorderin-\$1;
#X obj 146 204 s~ recorderin-\$1;
#X obj 642 270 r numSounds-\$1;
#X obj 415 376 s numSounds-\$1;
#X obj 568 534 r looped-\$1;
#X obj 720 453 player 0 \$1;
#X obj 126 290 catch~ sampout-\$1;
#X msg 375 733 0;
#X connect 0 0 1 0;
#X connect 1 0 2 0;
#X connect 1 0 2 1;
#X connect 2 0 3 1;
#X connect 3 0 76 0;
#X connect 4 0 32 0;
#X connect 4 0 40 0;
#X connect 4 0 75 0;
#X connect 5 0 47 1;
#X connect 5 0 75 1;
#X connect 6 0 46 1;
#X connect 6 0 82 1;
#X connect 7 0 41 0;
#X connect 7 0 82 0;
#X connect 8 0 34 0;
#X connect 9 0 49 0;
#X connect 10 0 78 0;
#X connect 11 0 14 0;
#X connect 12 0 5 0;
#X connect 12 0 35 1;
#X connect 13 0 4 0;
#X connect 14 0 13 0;
#X connect 14 1 18 0;
#X connect 15 0 4 0;
#X connect 16 0 7 0;
#X connect 17 0 7 0;
#X connect 18 0 33 0;
#X connect 18 1 35 0;
#X connect 18 2 16 0;
#X connect 18 3 15 0;
#X connect 19 0 11 0;
#X connect 20 0 37 0;
#X connect 21 0 22 0;
#X connect 22 0 17 0;
#X connect 22 1 16 0;
#X connect 22 2 6 0;
#X connect 23 0 24 0;
#X connect 24 1 25 1;
#X connect 25 0 21 0;
#X connect 26 0 3 0;
#X connect 26 0 52 0;
#X connect 26 0 53 0;
#X connect 27 0 16 0;
#X connect 27 1 20 0;
#X connect 28 0 29 0;
#X connect 29 1 30 0;
#X connect 30 0 27 0;
#X connect 31 0 72 0;
#X connect 31 0 66 0;
#X connect 31 1 71 0;
#X connect 31 1 46 0;
#X connect 32 0 73 0;
#X connect 32 0 43 0;
#X connect 32 0 47 0;
#X connect 33 0 48 0;
#X connect 33 1 27 1;
#X connect 34 0 9 0;
#X connect 34 0 9 1;
#X connect 35 0 12 0;
#X connect 35 0 23 0;
#X connect 36 0 25 0;
#X connect 37 0 36 0;
#X connect 38 0 80 0;
#X connect 39 0 35 0;
#X connect 39 1 35 1;
#X connect 40 0 41 1;
#X connect 40 0 44 1;
#X connect 41 0 31 0;
#X connect 42 0 71 0;
#X connect 43 0 42 0;
#X connect 44 0 74 0;
#X connect 44 0 42 0;
#X connect 45 0 38 0;
#X connect 46 0 67 0;
#X connect 47 0 68 0;
#X connect 48 0 27 0;
#X connect 49 0 10 1;
#X connect 50 0 10 0;
#X connect 51 0 10 0;
#X connect 54 0 8 0;
#X connect 55 0 28 0;
#X connect 56 0 54 0;
#X connect 57 0 58 0;
#X connect 58 0 0 0;
#X connect 59 0 26 1;
#X connect 60 0 26 2;
#X connect 61 0 60 0;
#X connect 62 0 19 0;
#X connect 63 0 19 0;
#X connect 66 0 64 0;
#X connect 67 0 64 0;
#X connect 68 0 64 0;
#X connect 69 0 70 0;
#X connect 69 0 84 0;
#X connect 70 0 64 0;
#X connect 71 0 65 0;
#X connect 72 0 65 0;
#X connect 73 0 65 0;
#X connect 74 0 65 0;
#X connect 77 0 52 0;
#X connect 77 0 53 0;
#X connect 79 0 39 0;
#X connect 81 0 44 0;
#X connect 83 0 26 0;
#X connect 84 0 65 0;
#X restore 70 335 pd overloop;
#X connect 0 0 2 0;
#X connect 3 0 7 0;
#X connect 3 0 6 0;
#X connect 4 0 1 0;
#X connect 5 0 15 0;
#X connect 5 0 17 0;
#X connect 5 0 19 0;
#X connect 7 0 4 0;
#X connect 8 0 20 0;
#X connect 9 0 20 1;
#X connect 17 0 18 0;
#X connect 19 0 16 0;
#X connect 20 0 10 0;
#X connect 20 1 11 0;
