#N canvas 97 506 1166 838 10;
#X msg 43 157 analog 1 \$1;
#X msg 140 157 analog 2 \$1;
#X msg 222 157 analog 3 \$1;
#X msg 306 157 analog 4 \$1;
#X msg 392 157 analog 5 \$1;
#X msg 489 157 analog 6 \$1;
#X msg 571 157 analog 7 \$1;
#X msg 655 157 analog 8 \$1;
#X obj 212 43 adc~ 3 4 5 6 7 8 9 10;
#X obj 105 608 s rackMsgs;
#X obj 43 114 belaAIN;
#X obj 998 8 loadbang;
#X obj 140 114 belaAIN;
#X obj 222 114 belaAIN;
#X obj 306 114 belaAIN;
#X obj 392 114 belaAIN;
#X obj 489 114 belaAIN;
#X obj 571 114 belaAIN;
#X obj 655 114 belaAIN;
#X msg 403 412 digital 1 \$1;
#X msg 499 412 digital 2 \$1;
#X msg 582 412 digital 3 \$1;
#X msg 665 412 digital 4 \$1;
#X msg 754 412 digital 5 \$1;
#X msg 845 412 digital 6 \$1;
#X msg 933 412 digital 7 \$1;
#X msg 1027 412 digital 8 \$1;
#X obj 897 47 metro 100;
#X msg 824 166 in 11 \, in 12 \, in 13 \, in 14 \, in 15 \, in 16 \,
in 17 \, in 18;
#X obj 824 245 s bela_setDigital;
#X obj 403 372 r bela_digitalIn11;
#X obj 499 340 r bela_digitalIn12;
#X obj 582 372 r bela_digitalIn13;
#X obj 665 340 r bela_digitalIn14;
#X obj 754 372 r bela_digitalIn15;
#X obj 846 340 r bela_digitalIn16;
#X obj 933 372 r bela_digitalIn17;
#X obj 1027 340 r bela_digitalIn8;
#X connect 0 0 9 0;
#X connect 1 0 9 0;
#X connect 2 0 9 0;
#X connect 3 0 9 0;
#X connect 4 0 9 0;
#X connect 5 0 9 0;
#X connect 6 0 9 0;
#X connect 8 0 10 0;
#X connect 8 1 12 0;
#X connect 8 2 13 0;
#X connect 8 3 14 0;
#X connect 8 4 15 0;
#X connect 8 5 16 0;
#X connect 8 6 17 0;
#X connect 8 7 18 0;
#X connect 10 0 0 0;
#X connect 11 0 27 0;
#X connect 11 0 28 0;
#X connect 12 0 1 0;
#X connect 13 0 2 0;
#X connect 14 0 3 0;
#X connect 15 0 4 0;
#X connect 16 0 5 0;
#X connect 17 0 6 0;
#X connect 18 0 7 0;
#X connect 19 0 9 0;
#X connect 20 0 9 0;
#X connect 21 0 9 0;
#X connect 22 0 9 0;
#X connect 23 0 9 0;
#X connect 24 0 9 0;
#X connect 25 0 9 0;
#X connect 26 0 9 0;
#X connect 27 0 10 1;
#X connect 27 0 12 1;
#X connect 27 0 13 1;
#X connect 27 0 14 1;
#X connect 27 0 15 1;
#X connect 27 0 16 1;
#X connect 27 0 17 1;
#X connect 27 0 18 1;
#X connect 28 0 29 0;
#X connect 30 0 19 0;
#X connect 31 0 20 0;
#X connect 32 0 21 0;
#X connect 33 0 22 0;
#X connect 34 0 23 0;
#X connect 35 0 24 0;
#X connect 36 0 25 0;
#X connect 37 0 26 0;
