#N canvas 97 506 1166 838 10;
#X obj 212 43 adc~ 3 4 5 6 7 8 9 10;
#X obj 105 608 s rackMsgs;
#X obj 43 114 belaAIN;
#X obj 998 8 loadbang;
#X obj 140 114 belaAIN;
#X obj 222 114 belaAIN;
#X obj 306 114 belaAIN;
#X obj 392 114 belaAIN;
#X obj 489 114 belaAIN;
#X obj 571 114 belaAIN;
#X obj 655 114 belaAIN;
#X obj 897 47 metro 100;
#X msg 824 166 in 11 \, in 12 \, in 13 \, in 14 \, in 15 \, in 16 \,
in 17 \, in 18;
#X obj 824 245 s bela_setDigital;
#X obj 371 372 r bela_digitalIn11;
#X obj 488 340 r bela_digitalIn12;
#X obj 635 367 r bela_digitalIn13;
#X obj 734 335 r bela_digitalIn14;
#X obj 585 547 r bela_digitalIn15;
#X obj 705 516 r bela_digitalIn16;
#X obj 805 547 r bela_digitalIn17;
#X obj 937 516 r bela_digitalIn8;
#X msg 20 157 modulate 1 \$1;
#X msg 120 158 modulate 2 \$1;
#X msg 216 157 modulate 3 \$1;
#X msg 306 157 modulate 4 \$1;
#X msg 395 157 modulate 5 \$1;
#X msg 489 157 modulate 6 \$1;
#X msg 584 157 modulate 7 \$1;
#X msg 677 157 modulate 8 \$1;
#X msg 371 412 modulate 11 \$1;
#X msg 488 412 modulate 12 \$1;
#X msg 635 407 modulate 13 \$1;
#X msg 734 407 modulate 14 \$1;
#X msg 585 587 modulate 15 \$1;
#X msg 704 588 modulate 16 \$1;
#X msg 805 587 modulate 17 \$1;
#X msg 937 588 modulate 8 \$1;
#X connect 0 0 2 0;
#X connect 0 1 4 0;
#X connect 0 2 5 0;
#X connect 0 3 6 0;
#X connect 0 4 7 0;
#X connect 0 5 8 0;
#X connect 0 6 9 0;
#X connect 0 7 10 0;
#X connect 2 0 22 0;
#X connect 3 0 11 0;
#X connect 3 0 12 0;
#X connect 4 0 23 0;
#X connect 5 0 24 0;
#X connect 6 0 25 0;
#X connect 7 0 26 0;
#X connect 8 0 27 0;
#X connect 9 0 28 0;
#X connect 10 0 29 0;
#X connect 11 0 2 1;
#X connect 11 0 4 1;
#X connect 11 0 5 1;
#X connect 11 0 6 1;
#X connect 11 0 7 1;
#X connect 11 0 8 1;
#X connect 11 0 9 1;
#X connect 11 0 10 1;
#X connect 12 0 13 0;
#X connect 14 0 30 0;
#X connect 15 0 31 0;
#X connect 16 0 32 0;
#X connect 17 0 33 0;
#X connect 18 0 34 0;
#X connect 19 0 35 0;
#X connect 20 0 36 0;
#X connect 21 0 37 0;
#X connect 22 0 1 0;
#X connect 23 0 1 0;
#X connect 24 0 1 0;
#X connect 25 0 1 0;
#X connect 26 0 1 0;
#X connect 27 0 1 0;
#X connect 28 0 1 0;
#X connect 30 0 1 0;
#X connect 31 0 1 0;
#X connect 32 0 1 0;
#X connect 33 0 1 0;
#X connect 34 0 1 0;
#X connect 35 0 1 0;
#X connect 36 0 1 0;
#X connect 37 0 1 0;
