#N canvas 565 153 1335 682 10;
#X declare -path subpatches;
#X obj 108 25 declare -path subpatches;
#X obj 138 155 adc~ 3 4 5 6 7 8 9 10;
#X obj 134 279 snapshot~;
#X obj 813 27 loadbang;
#X obj 231 279 snapshot~;
#X obj 306 279 snapshot~;
#X obj 391 279 snapshot~;
#X obj 486 279 snapshot~;
#X obj 583 279 snapshot~;
#X obj 658 279 snapshot~;
#X obj 743 279 snapshot~;
#X obj 133 349 s a_cvIn1;
#X obj 213 349 s a_cvIn2;
#X obj 288 349 s a_cvIn3;
#X obj 358 349 s a_cvIn4;
#X obj 430 349 s a_cvIn5;
#X obj 497 349 s a_cvIn6;
#X obj 567 349 s a_cvIn7;
#X obj 639 349 s a_cvIn8;
#X obj 124 590 s d_cvIn1;
#X obj 204 590 s d_cvIn2;
#X obj 279 590 s d_cvIn3;
#X obj 379 590 s d_cvIn4;
#X obj 476 590 s d_cvIn5;
#X obj 573 590 s d_cvIn6;
#X obj 649 590 s d_cvIn7;
#X obj 734 590 s d_cvIn8;
#X obj 134 300 change -1;
#X obj 231 300 change -1;
#X obj 306 300 change -1;
#X obj 391 300 change -1;
#X obj 486 300 change -1;
#X obj 583 300 change -1;
#X obj 658 300 change -1;
#X obj 743 300 change -1;
#X obj 804 102 metro 200;
#X obj 734 541 change -1;
#X obj 649 541 change -1;
#X obj 574 541 change -1;
#X obj 477 541 change -1;
#X obj 382 541 change -1;
#X obj 297 541 change -1;
#X obj 222 541 change -1;
#X obj 125 541 change -1;
#X obj 837 570 sel 1;
#X msg 837 591 nextpreset;
#X obj 837 612 s rackMsgs;
#X text 829 525 digital 8 is used to switch presets;
#X obj 923 451 s bela_setDigital;
#X msg 922 405 in 11;
#X msg 968 405 in 12;
#X msg 1017 405 in 13;
#X msg 1066 405 in 14;
#X msg 1110 405 in 15;
#X msg 1155 405 in 16;
#X msg 1204 405 in 17;
#X msg 1248 405 in 18;
#X obj 914 350 t b b b b b b b b;
#X obj 332 488 r bela_digitalIn14;
#X obj 110 462 r bela_digitalIn11;
#X obj 192 487 r bela_digitalIn12;
#X obj 274 460 r bela_digitalIn13;
#X obj 438 458 r bela_digitalIn15;
#X obj 506 487 r bela_digitalIn16;
#X obj 571 459 r bela_digitalIn17;
#X obj 629 487 r bela_digitalIn18;
#X connect 1 0 2 0;
#X connect 1 1 4 0;
#X connect 1 2 5 0;
#X connect 1 3 6 0;
#X connect 1 4 7 0;
#X connect 1 5 8 0;
#X connect 1 6 9 0;
#X connect 1 7 10 0;
#X connect 2 0 27 0;
#X connect 3 0 35 0;
#X connect 4 0 28 0;
#X connect 5 0 29 0;
#X connect 6 0 30 0;
#X connect 7 0 31 0;
#X connect 8 0 32 0;
#X connect 9 0 33 0;
#X connect 10 0 34 0;
#X connect 27 0 11 0;
#X connect 28 0 12 0;
#X connect 29 0 13 0;
#X connect 30 0 14 0;
#X connect 31 0 15 0;
#X connect 32 0 16 0;
#X connect 33 0 17 0;
#X connect 34 0 18 0;
#X connect 35 0 2 0;
#X connect 35 0 10 0;
#X connect 35 0 9 0;
#X connect 35 0 8 0;
#X connect 35 0 7 0;
#X connect 35 0 6 0;
#X connect 35 0 5 0;
#X connect 35 0 4 0;
#X connect 36 0 26 0;
#X connect 36 0 44 0;
#X connect 37 0 25 0;
#X connect 38 0 24 0;
#X connect 39 0 23 0;
#X connect 40 0 22 0;
#X connect 41 0 21 0;
#X connect 42 0 20 0;
#X connect 43 0 19 0;
#X connect 44 0 45 0;
#X connect 45 0 46 0;
#X connect 49 0 48 0;
#X connect 50 0 48 0;
#X connect 51 0 48 0;
#X connect 52 0 48 0;
#X connect 53 0 48 0;
#X connect 57 0 49 0;
#X connect 57 1 50 0;
#X connect 57 2 51 0;
#X connect 57 3 52 0;
#X connect 57 4 53 0;
#X connect 57 5 54 0;
#X connect 57 6 55 0;
#X connect 57 7 56 0;
#X connect 58 0 40 0;
#X connect 59 0 43 0;
#X connect 60 0 42 0;
#X connect 61 0 41 0;
#X connect 62 0 39 0;
#X connect 63 0 38 0;
#X connect 64 0 37 0;
#X connect 65 0 36 0;
