#N canvas 1035 433 667 620 10;
#X obj 78 154 snapshot~;
#X obj 78 478 outlet;
#X obj 192 54 inlet sample;
#X obj 78 435 change -1;
#X obj 79 54 inlet~;
#X obj 78 111 lop~ 30;
#X obj 78 392 clip 0 1;
#X obj 78 197 * 1024;
#X obj 78 226 int;
#X obj 78 255 / 1024;
#X connect 0 0 7 0;
#X connect 2 0 0 0;
#X connect 3 0 1 0;
#X connect 4 0 5 0;
#X connect 5 0 0 0;
#X connect 6 0 3 0;
#X connect 7 0 8 0;
#X connect 8 0 9 0;
#X connect 9 0 6 0;
