#N canvas 255 393 1335 682 10;
#X declare -path subpatches;
#X obj 108 25 declare -path subpatches;
#X obj 138 155 adc~ 3 4 5 6 7 8 9 10;
#X obj 134 279 snapshot~;
#X obj 804 102 metro 100;
#X obj 813 27 loadbang;
#X obj 231 279 snapshot~;
#X obj 306 279 snapshot~;
#X obj 391 279 snapshot~;
#X obj 486 279 snapshot~;
#X obj 583 279 snapshot~;
#X obj 658 279 snapshot~;
#X obj 743 279 snapshot~;
#X obj 133 349 s a_cvIn1;
#X obj 213 349 s a_cvIn2;
#X obj 288 349 s a_cvIn3;
#X obj 358 349 s a_cvIn4;
#X obj 430 349 s a_cvIn5;
#X obj 497 349 s a_cvIn6;
#X obj 567 349 s a_cvIn7;
#X obj 639 349 s a_cvIn8;
#X obj 125 520 snapshot~;
#X obj 222 520 snapshot~;
#X obj 297 520 snapshot~;
#X obj 382 520 snapshot~;
#X obj 477 520 snapshot~;
#X obj 574 520 snapshot~;
#X obj 649 520 snapshot~;
#X obj 734 520 snapshot~;
#X obj 129 396 adc~ 11 12 13 14 15 16 17 18;
#X obj 124 590 s d_cvIn1;
#X obj 204 590 s d_cvIn2;
#X obj 279 590 s d_cvIn3;
#X obj 349 590 s d_cvIn4;
#X obj 421 590 s d_cvIn5;
#X obj 488 590 s d_cvIn6;
#X obj 558 590 s d_cvIn7;
#X obj 630 590 s d_cvIn8;
#X connect 1 0 2 0;
#X connect 1 1 5 0;
#X connect 1 2 6 0;
#X connect 1 3 7 0;
#X connect 1 4 8 0;
#X connect 1 5 9 0;
#X connect 1 6 10 0;
#X connect 1 7 11 0;
#X connect 2 0 12 0;
#X connect 3 0 2 0;
#X connect 3 0 11 0;
#X connect 3 0 10 0;
#X connect 3 0 9 0;
#X connect 3 0 8 0;
#X connect 3 0 7 0;
#X connect 3 0 6 0;
#X connect 3 0 5 0;
#X connect 3 0 20 0;
#X connect 3 0 27 0;
#X connect 3 0 26 0;
#X connect 3 0 25 0;
#X connect 3 0 24 0;
#X connect 3 0 23 0;
#X connect 3 0 22 0;
#X connect 3 0 21 0;
#X connect 4 0 3 0;
#X connect 5 0 13 0;
#X connect 6 0 14 0;
#X connect 7 0 15 0;
#X connect 8 0 16 0;
#X connect 9 0 17 0;
#X connect 10 0 18 0;
#X connect 11 0 19 0;
#X connect 20 0 29 0;
#X connect 21 0 30 0;
#X connect 22 0 31 0;
#X connect 23 0 32 0;
#X connect 24 0 33 0;
#X connect 25 0 34 0;
#X connect 26 0 35 0;
#X connect 27 0 36 0;
#X connect 28 0 20 0;
#X connect 28 1 21 0;
#X connect 28 2 22 0;
#X connect 28 3 23 0;
#X connect 28 4 24 0;
#X connect 28 5 25 0;
#X connect 28 6 26 0;
#X connect 28 7 27 0;
