#N canvas 577 106 1572 758 10;
#X obj 463 389 *~ 0.3;
#X obj 423 262 pack 0 0 0;
#X obj 423 286 route 1 2 3 4;
#X obj 424 182 unpack 0 0;
#X obj 424 206 - 24;
#X obj 423 238 poly 4 1;
#X obj 334 130 r notesIn-\$1;
#X obj 334 495 s notesOut-\$1;
#X obj 378 348 voice \$1;
#X obj 434 348 voice \$1;
#X obj 491 348 voice \$1;
#X obj 547 348 voice \$1;
#X obj 18 130 inlet~ inL;
#X obj 103 130 inlet~ inR;
#X obj 132 495 outlet~ outR;
#X obj 18 495 outlet~ outL;
#X obj 203 131 r auxIn-\$1;
#X obj 202 154 r expIn-\$1;
#X obj 202 179 r fsIn-\$1;
#X connect 0 0 14 0;
#X connect 0 0 15 0;
#X connect 1 0 2 0;
#X connect 2 0 8 0;
#X connect 2 1 9 0;
#X connect 2 2 10 0;
#X connect 2 3 11 0;
#X connect 3 0 4 0;
#X connect 3 1 5 1;
#X connect 4 0 5 0;
#X connect 5 0 1 0;
#X connect 5 1 1 1;
#X connect 5 2 1 2;
#X connect 6 0 3 0;
#X connect 8 0 0 0;
#X connect 9 0 0 0;
#X connect 10 0 0 0;
#X connect 11 0 0 0;
