#N canvas 238 242 2322 1103 10;
#X obj 240 186 r notesIn-\$1;
#X obj 242 491 s notesOut-\$1;
#X obj 23 9 r loaddefs-\$1;
#X msg 23 58 loaddefinitions \$1;
#X obj 166 5 r loadbang-\$1;
#X obj 181 76 print loading definiton for \$1;
#X obj 23 34 symbol;
#X obj 25 186 inlet~ inL-\$1;
#X obj 135 186 inlet~ inR-\$1;
#X obj 27 491 outlet~ outL-\$1;
#X obj 136 491 outlet~ outR-\$1;
#X obj 181 35 print loaded:linear router into \$1, f 39;
#X obj 23 112 KontrolModule \$1 R-4x2+2;
#X text 44 577 this is a simple routing module \, we could have different
ones! in this router we route notes etc to the active module \, and
audio and notes from m1 to m5 note: if you add more modules \, then
this module needs updating...;
#X obj 336 187 r auxIn-\$1;
#X obj 335 210 r expIn-\$1;
#X obj 335 235 r fsIn-\$1;
#X text 1034 7 4 chains of 2 with 2 master;
#X obj 328 294 actmodhandler \$1;
#X obj 692 364 +~;
#X obj 783 364 +~;
#X obj 692 452 +~;
#X obj 784 452 +~;
#X obj 499 117 connectin m0 \$1;
#X obj 758 691 connectout m9 \$1;
#X obj 499 170 connectmod m0 m1 \$1;
#X obj 668 117 connectin m2 \$1;
#X obj 829 117 connectin m4 \$1;
#X obj 979 168 connectmod m6 m7 \$1;
#X obj 979 115 connectin m6 \$1;
#X obj 668 170 connectmod m2 m3 \$1;
#X obj 829 170 connectmod m4 m5 \$1;
#X obj 759 661 connectmod m8 m9 \$1;
#X obj 692 614 s~ inL-m8, f 10;
#X obj 784 614 s~ inR-m8, f 10;
#X obj 872 614 s notesIn-m8, f 13;
#X obj 505 232 chainout m1 \$1;
#X obj 668 232 chainout m3 \$1;
#X obj 832 232 chainout m5 \$1;
#X obj 982 229 chainout m7 \$1;
#X obj 692 541 +~;
#X obj 784 541 +~;
#X connect 0 0 1 0;
#X connect 2 0 6 0;
#X connect 2 0 5 0;
#X connect 3 0 12 0;
#X connect 4 0 11 0;
#X connect 6 0 3 0;
#X connect 7 0 9 0;
#X connect 8 0 10 0;
#X connect 19 0 21 0;
#X connect 20 0 22 0;
#X connect 21 0 40 0;
#X connect 22 0 41 0;
#X connect 36 0 19 0;
#X connect 36 1 20 0;
#X connect 36 2 35 0;
#X connect 37 0 19 1;
#X connect 37 1 20 1;
#X connect 37 2 35 0;
#X connect 38 0 21 1;
#X connect 38 1 22 1;
#X connect 38 2 35 0;
#X connect 39 0 40 1;
#X connect 39 1 41 1;
#X connect 39 2 35 0;
#X connect 40 0 33 0;
#X connect 41 0 34 0;
