#N canvas 508 256 2052 956 10;
#X obj 304 186 r notesIn-\$1;
#X obj 304 601 s notesOut-\$1;
#X obj 25 186 inlet~ inL-\$1;
#X obj 135 186 inlet~ inR-\$1;
#X obj 27 601 outlet~ outL-\$1;
#X obj 136 601 outlet~ outR-\$1;
#X obj 424 185 r auxIn-\$1;
#X obj 423 208 r expIn-\$1;
#X obj 423 233 r fsIn-\$1;
#X obj 504 185 r ctrlIn-\$1;
#X obj 504 600 s ctrlOut-\$1;
#X obj 1048 246 select 0;
#X obj 1032 313 bela_trigIn;
#X obj 661 186 r m_note_cv-\$1;
#X obj 1048 186 r m_gate_cv-\$1;
#X obj 700 480 *;
#X obj 700 501 +;
#X obj 660 322 adc~ 3;
#X obj 661 242 route 0;
#X obj 660 272 + 2;
#X obj 700 522 pack 0 0;
#X obj 660 407 snapshot~;
#X obj 1033 334 t b f;
#X obj 744 476 * 127;
#X obj 814 186 r m_amt_note-\$1;
#X obj 931 186 r m_offset_note-\$1;
#X msg 660 293 set \$1;
#X obj 1048 217 t f f;
#X obj 1098 290 > 0;
#X connect 11 1 12 0;
#X connect 12 0 22 0;
#X connect 13 0 18 0;
#X connect 14 0 27 0;
#X connect 15 0 16 0;
#X connect 16 0 20 0;
#X connect 17 0 21 0;
#X connect 18 1 19 0;
#X connect 19 0 26 0;
#X connect 20 0 1 0;
#X connect 21 0 15 0;
#X connect 22 0 21 0;
#X connect 22 1 23 0;
#X connect 23 0 20 1;
#X connect 24 0 15 1;
#X connect 25 0 16 1;
#X connect 26 0 17 0;
#X connect 27 0 11 0;
#X connect 27 1 28 0;
#X connect 28 0 12 1;
