#N canvas 0 34 1548 1271 10;
#X obj 304 186 r notesIn-\$1;
#X obj 304 971 s notesOut-\$1;
#X obj 25 186 inlet~ inL-\$1;
#X obj 135 186 inlet~ inR-\$1;
#X obj 27 971 outlet~ outL-\$1;
#X obj 136 971 outlet~ outR-\$1;
#X obj 424 185 r auxIn-\$1;
#X obj 423 208 r expIn-\$1;
#X obj 423 233 r fsIn-\$1;
#X obj 700 468 AudioPan, f 28;
#X obj 864 252 +~ 0.5;
#X obj 864 230 *~ 0.5;
#X obj 863 201 *~ 0.1, f 16;
#X obj 864 280 clip~ 0 1;
#X obj 863 173 osc~ 0.01;
#X obj 838 659 hip~ 5;
#X obj 669 659 hip~ 5;
#X msg 1071 180 \$1 10;
#X obj 669 629 c_xfade, f 11;
#X obj 1071 462 lop~ 10;
#X obj 838 629 c_xfade, f 9;
#X obj 863 60 r pan_rate-\$1;
#X obj 956 60 r pan_depth-\$1;
#X obj 1071 60 r pan_dw-\$1;
#X obj 1071 105 / 100;
#X obj 956 105 / 100;
#X connect 2 0 9 0;
#X connect 2 0 20 0;
#X connect 2 0 18 0;
#X connect 9 0 18 1;
#X connect 9 1 20 1;
#X connect 10 0 13 0;
#X connect 11 0 10 0;
#X connect 12 0 11 0;
#X connect 13 0 9 1;
#X connect 14 0 12 0;
#X connect 15 0 5 0;
#X connect 16 0 4 0;
#X connect 17 0 19 0;
#X connect 18 0 16 0;
#X connect 19 0 20 2;
#X connect 19 0 18 2;
#X connect 20 0 15 0;
#X connect 21 0 14 0;
#X connect 22 0 25 0;
#X connect 23 0 24 0;
#X connect 24 0 17 0;
#X connect 25 0 12 1;
