#N canvas 743 190 1071 479 10;
#X declare -path externals;
#X declare -path subpatches;
#N canvas 302 457 1338 833 rack 1;
#X obj 234 137 r knob1Raw;
#X msg 234 177 knob1Raw \$1;
#X obj 332 127 r knob2Raw;
#X obj 400 137 r knob3Raw;
#X obj 489 137 r knob4Raw;
#X msg 489 177 knob4Raw \$1;
#X msg 400 177 knob3Raw \$1;
#X msg 332 167 knob2Raw \$1;
#X obj 577 137 r enc;
#X msg 577 177 enc \$1;
#X msg 666 177 encbut \$1;
#X obj 666 137 r encbut;
#X obj 775 137 ctlin;
#X obj 775 177 pack f f;
#X msg 775 217 midiCC \$2 \$1;
#X obj 44 29 loadbang;
#X msg 44 109 loadpreset Default;
#X obj 897 177 routeOSC /key;
#X obj 897 137 r oscIn;
#X msg 897 217 key \$1 \$2;
#X msg 184 87 loadsettings orac;
#X obj 44 69 t b b b;
#X obj 332 87 s rackloaded;
#X obj 11 183 r rackMsgs;
#X obj 168 327 KontrolRack organelle 8000 9000;
#X connect 0 0 1 0;
#X connect 1 0 24 0;
#X connect 2 0 7 0;
#X connect 3 0 6 0;
#X connect 4 0 5 0;
#X connect 5 0 24 0;
#X connect 6 0 24 0;
#X connect 7 0 24 0;
#X connect 8 0 9 0;
#X connect 9 0 24 0;
#X connect 10 0 24 0;
#X connect 11 0 10 0;
#X connect 12 0 13 0;
#X connect 12 1 13 1;
#X connect 13 0 14 0;
#X connect 14 0 24 0;
#X connect 15 0 21 0;
#X connect 16 0 24 0;
#X connect 17 0 19 0;
#X connect 18 0 17 0;
#X connect 19 0 24 0;
#X connect 20 0 24 0;
#X connect 21 0 16 0;
#X connect 21 1 20 0;
#X connect 21 2 22 0;
#X connect 23 0 24 0;
#X restore 50 9 pd rack;
#X text 50 38 module slots;
#X text 194 8 ORAC module v1;
#N canvas 449 193 946 579 m0 0;
#X obj 10 10 r~ inL-m0;
#X obj 110 10 r~ inR-m0;
#X obj 10 60 modules/U-polybeats/module m0;
#X obj 10 110 s~ outL-m0;
#X obj 110 110 s~ outR-m0;
#X obj 400 1 r rackloaded;
#X obj 400 30 t b b;
#X msg 400 60 modules/U-polybeats/module.json;
#X obj 400 110 send loaddefs-m0;
#X obj 600 110 send loadbang-m0;
#X connect 0 0 2 0;
#X connect 1 0 2 1;
#X connect 2 0 3 0;
#X connect 2 1 4 0;
#X connect 5 0 6 0;
#X connect 6 0 9 0;
#X connect 6 1 7 0;
#X connect 7 0 8 0;
#X restore 50 61 pd m0;
#N canvas 504 887 794 264 m1 0;
#X obj 10 10 r~ inL-m1;
#X obj 110 10 r~ inR-m1;
#X obj 10 60 modules/S-basicpoly/module m1;
#X obj 10 110 s~ outL-m1;
#X obj 110 110 s~ outR-m1;
#X obj 400 1 r rackloaded;
#X obj 400 30 t b b;
#X msg 400 60 modules/S-basicpoly/module.json;
#X obj 400 110 send loaddefs-m1;
#X obj 600 110 send loadbang-m1;
#X connect 0 0 2 0;
#X connect 1 0 2 1;
#X connect 2 0 3 0;
#X connect 2 1 4 0;
#X connect 5 0 6 0;
#X connect 6 0 9 0;
#X connect 6 1 7 0;
#X connect 7 0 8 0;
#X restore 50 90 pd m1;
#N canvas 1143 343 450 300 m2 0;
#X obj 10 10 r~ inL-m2;
#X obj 110 10 r~ inR-m2;
#X obj 10 60 modules/U-default/module m2;
#X obj 10 110 s~ outL-m2;
#X obj 110 110 s~ outR-m2;
#X obj 400 1 r rackloaded;
#X obj 400 30 t b b;
#X msg 400 60 modules/U-default/module.json;
#X obj 400 110 send loaddefs-m2;
#X obj 600 110 send loadbang-m2;
#X connect 0 0 2 0;
#X connect 1 0 2 1;
#X connect 2 0 3 0;
#X connect 2 1 4 0;
#X connect 5 0 6 0;
#X connect 6 0 9 0;
#X connect 6 1 7 0;
#X connect 7 0 8 0;
#X restore 50 119 pd m2;
#N canvas 1285 549 450 300 m3 0;
#X obj 10 10 r~ inL-m3;
#X obj 110 10 r~ inR-m3;
#X obj 10 110 s~ outL-m3;
#X obj 110 110 s~ outR-m3;
#X obj 400 1 r rackloaded;
#X obj 400 30 t b b;
#X msg 400 60 modules/U-default/module.json;
#X obj 400 110 send loaddefs-m3;
#X obj 600 110 send loadbang-m3;
#X obj 10 60 modules/U-default/module m3;
#X connect 0 0 9 0;
#X connect 1 0 9 1;
#X connect 4 0 5 0;
#X connect 5 0 8 0;
#X connect 5 1 6 0;
#X connect 6 0 7 0;
#X connect 9 0 2 0;
#X connect 9 1 3 0;
#X restore 50 148 pd m3;
#N canvas 1104 510 450 300 m4 0;
#X obj 10 10 r~ inL-m4;
#X obj 110 10 r~ inR-m4;
#X obj 10 110 s~ outL-m4;
#X obj 110 110 s~ outR-m4;
#X obj 400 1 r rackloaded;
#X obj 400 30 t b b;
#X msg 400 60 modules/U-default/module.json;
#X obj 400 110 send loaddefs-m4;
#X obj 600 110 send loadbang-m4;
#X obj 10 60 modules/U-default/module m4;
#X connect 0 0 9 0;
#X connect 1 0 9 1;
#X connect 4 0 5 0;
#X connect 5 0 8 0;
#X connect 5 1 6 0;
#X connect 6 0 7 0;
#X connect 9 0 2 0;
#X connect 9 1 3 0;
#X restore 50 177 pd m4;
#N canvas 325 605 946 579 m5 0;
#X obj 10 10 r~ inL-m5;
#X obj 110 10 r~ inR-m5;
#X obj 10 110 s~ outL-m5;
#X obj 110 110 s~ outR-m5;
#X obj 400 1 r rackloaded;
#X obj 400 30 t b b;
#X msg 400 60 modules/U-default/module.json;
#X obj 400 110 send loaddefs-m5;
#X obj 600 110 send loadbang-m5;
#X obj 10 60 modules/U-default/module m5;
#X connect 0 0 9 0;
#X connect 1 0 9 1;
#X connect 4 0 5 0;
#X connect 5 0 8 0;
#X connect 5 1 6 0;
#X connect 6 0 7 0;
#X connect 9 0 2 0;
#X connect 9 1 3 0;
#X restore 100 61 pd m5;
#N canvas 325 605 946 579 m6 0;
#X obj 10 10 r~ inL-m6;
#X obj 110 10 r~ inR-m6;
#X obj 10 110 s~ outL-m6;
#X obj 110 110 s~ outR-m6;
#X obj 400 1 r rackloaded;
#X obj 400 30 t b b;
#X msg 400 60 modules/U-default/module.json;
#X obj 400 110 send loaddefs-m6;
#X obj 600 110 send loadbang-m6;
#X obj 10 60 modules/U-default/module m6;
#X connect 0 0 9 0;
#X connect 1 0 9 1;
#X connect 4 0 5 0;
#X connect 5 0 8 0;
#X connect 5 1 6 0;
#X connect 6 0 7 0;
#X connect 9 0 2 0;
#X connect 9 1 3 0;
#X restore 100 90 pd m6;
#N canvas 325 605 946 579 m7 0;
#X obj 10 10 r~ inL-m7;
#X obj 110 10 r~ inR-m7;
#X obj 10 110 s~ outL-m7;
#X obj 110 110 s~ outR-m7;
#X obj 400 1 r rackloaded;
#X obj 400 30 t b b;
#X msg 400 60 modules/U-default/module.json;
#X obj 400 110 send loaddefs-m7;
#X obj 600 110 send loadbang-m7;
#X obj 10 60 modules/U-default/module m7;
#X connect 0 0 9 0;
#X connect 1 0 9 1;
#X connect 4 0 5 0;
#X connect 5 0 8 0;
#X connect 5 1 6 0;
#X connect 6 0 7 0;
#X connect 9 0 2 0;
#X connect 9 1 3 0;
#X restore 100 119 pd m7;
#N canvas 1285 549 450 300 m8 0;
#X obj 10 10 r~ inL-m8;
#X obj 110 10 r~ inR-m8;
#X obj 10 60 modules/U-clock/module m8;
#X obj 10 110 s~ outL-m8;
#X obj 110 110 s~ outR-m8;
#X obj 400 1 r rackloaded;
#X obj 400 30 t b b;
#X msg 400 60 modules/U-clock/module.json;
#X obj 400 110 send loaddefs-m8;
#X obj 600 110 send loadbang-m8;
#X connect 0 0 2 0;
#X connect 1 0 2 1;
#X connect 2 0 3 0;
#X connect 2 1 4 0;
#X connect 5 0 6 0;
#X connect 6 0 9 0;
#X connect 6 1 7 0;
#X connect 7 0 8 0;
#X restore 100 148 pd m8;
#N canvas 1398 523 450 300 m9 0;
#X obj 10 10 r~ inL-m9;
#X obj 110 10 r~ inR-m9;
#X obj 10 60 modules/R-1x10/module m9;
#X obj 10 110 s~ outL-m9;
#X obj 110 110 s~ outR-m9;
#X obj 400 1 r rackloaded;
#X obj 400 30 t b b;
#X msg 400 60 modules/R-1x10/module.json;
#X obj 400 110 send loaddefs-m9;
#X obj 600 110 send loadbang-m9;
#X connect 0 0 2 0;
#X connect 1 0 2 1;
#X connect 2 0 3 0;
#X connect 2 1 4 0;
#X connect 5 0 6 0;
#X connect 6 0 9 0;
#X connect 6 1 7 0;
#X connect 7 0 8 0;
#X restore 100 177 pd m9;
#X obj 197 61 r notes;
#X obj 255 61 r encbut;
#X obj 413 61 r fs;
#X obj 320 61 r aux;
#X obj 362 61 r exp;
#X text 197 37 dummy targets;
#X obj 550 63 declare -path externals;
#N canvas 778 635 763 454 startup 0;
#X obj 175 39 r activeModule;
#X obj 63 39 loadbang;
#X obj 63 202 symbol m0;
#X obj 63 70 del 500;
#X obj 63 264 s activeModule;
#X obj 63 233 spigot 0;
#X obj 63 101 t b b b;
#X msg 111 136 1;
#X msg 47 136 0;
#X text 297 38 a temporary fix;
#X text 300 68 during startup modules might 'miss' the active module
being set \, as they are not loaded yet \, so here we repeat it after
500ms;
#X obj 175 86 symbol;
#X msg 211 130;
#X obj 211 151 s screenLine5;
#X obj 331 129 int 0;
#X obj 331 150 s led;
#X connect 0 0 11 0;
#X connect 1 0 3 0;
#X connect 1 0 12 0;
#X connect 1 0 14 0;
#X connect 2 0 5 0;
#X connect 3 0 6 0;
#X connect 5 0 4 0;
#X connect 6 0 8 0;
#X connect 6 1 2 0;
#X connect 6 2 7 0;
#X connect 7 0 5 1;
#X connect 8 0 5 1;
#X connect 11 0 2 1;
#X connect 12 0 13 0;
#X connect 14 0 15 0;
#X restore 114 9 pd startup;
#X obj 550 86 declare -path subpatches;
