#N canvas 695 311 1071 479 10;
#X declare -path externals;
#X declare -path subpatches;
#N canvas 302 457 1338 833 rack 1;
#X obj 234 130 r knob1Raw;
#X msg 234 170 knob1Raw \$1;
#X obj 322 131 r knob2Raw;
#X obj 406 131 r knob3Raw;
#X obj 490 130 r knob4Raw;
#X msg 490 170 knob4Raw \$1;
#X msg 406 171 knob3Raw \$1;
#X msg 322 171 knob2Raw \$1;
#X obj 577 129 r enc;
#X msg 577 169 enc \$1;
#X msg 663 168 encbut \$1;
#X obj 663 128 r encbut;
#X obj 775 137 ctlin;
#X obj 775 177 pack f f;
#X msg 775 217 midiCC \$2 \$1;
#X obj 168 327 KontrolRack midi 6000 6001;
#X obj 44 29 loadbang;
#X obj 897 177 routeOSC /key;
#X obj 897 137 r oscIn;
#X msg 897 217 key \$1 \$2;
#X msg 116 145 loadsettings orac;
#X obj 332 87 s rackloaded;
#X obj 11 183 r rackMsgs;
#X obj 44 69 t b b;
#X connect 0 0 1 0;
#X connect 1 0 15 0;
#X connect 2 0 7 0;
#X connect 3 0 6 0;
#X connect 4 0 5 0;
#X connect 5 0 15 0;
#X connect 6 0 15 0;
#X connect 7 0 15 0;
#X connect 8 0 9 0;
#X connect 9 0 15 0;
#X connect 10 0 15 0;
#X connect 11 0 10 0;
#X connect 12 0 13 0;
#X connect 12 1 13 1;
#X connect 13 0 14 0;
#X connect 14 0 15 0;
#X connect 16 0 23 0;
#X connect 17 0 19 0;
#X connect 18 0 17 0;
#X connect 19 0 15 0;
#X connect 20 0 15 0;
#X connect 22 0 15 0;
#X connect 23 0 20 0;
#X connect 23 1 21 0;
#X restore 50 9 pd rack;
#X text 50 38 module slots;
#N canvas 449 193 946 579 m0 0;
#X obj 10 10 r~ inL-m0;
#X obj 110 10 r~ inR-m0;
#X obj 10 60 modules/ut/polybeats/module m0;
#X obj 10 110 s~ outL-m0;
#X obj 110 110 s~ outR-m0;
#X obj 400 1 r rackloaded;
#X obj 400 30 t b b;
#X msg 400 60 loaddefinitions modules/ut/polybeats/module.json;
#X obj 400 110 KontrolModule m0 ut/polybeats;
#X obj 600 110 send loadbang-m0;
#X connect 0 0 2 0;
#X connect 1 0 2 1;
#X connect 2 0 3 0;
#X connect 2 1 4 0;
#X connect 5 0 6 0;
#X connect 6 0 9 0;
#X connect 6 1 7 0;
#X connect 7 0 8 0;
#X restore 50 61 pd m0;
#N canvas 504 887 794 264 m1 0;
#X obj 10 10 r~ inL-m1;
#X obj 110 10 r~ inR-m1;
#X obj 10 60 modules/sy/basicmono/module m1;
#X obj 10 110 s~ outL-m1;
#X obj 110 110 s~ outR-m1;
#X obj 400 1 r rackloaded;
#X obj 400 30 t b b;
#X msg 400 60 loaddefinitions modules/sy/basicmono/module.json;
#X obj 400 110 KontrolModule m1 sy/basicmono;
#X obj 600 110 send loadbang-m1;
#X connect 0 0 2 0;
#X connect 1 0 2 1;
#X connect 2 0 3 0;
#X connect 2 1 4 0;
#X connect 5 0 6 0;
#X connect 6 0 9 0;
#X connect 6 1 7 0;
#X connect 7 0 8 0;
#X restore 50 90 pd m1;
#N canvas 526 418 1035 347 m2 0;
#X obj 10 10 r~ inL-m2;
#X obj 110 10 r~ inR-m2;
#X obj 10 60 modules/fx/panner/module m2;
#X obj 10 110 s~ outL-m2;
#X obj 110 110 s~ outR-m2;
#X obj 400 1 r rackloaded;
#X obj 400 30 t b b;
#X msg 400 60 loaddefinitions modules/fx/panner/module.json;
#X obj 400 110 KontrolModule m2 fx/panner;
#X obj 600 110 send loadbang-m2;
#X connect 0 0 2 0;
#X connect 1 0 2 1;
#X connect 2 0 3 0;
#X connect 2 1 4 0;
#X connect 5 0 6 0;
#X connect 6 0 9 0;
#X connect 6 1 7 0;
#X connect 7 0 8 0;
#X restore 50 119 pd m2;
#N canvas 653 563 885 356 m3 0;
#X obj 10 10 r~ inL-m3;
#X obj 110 10 r~ inR-m3;
#X obj 10 60 modules/ut/default/module m3;
#X obj 10 110 s~ outL-m3;
#X obj 110 110 s~ outR-m3;
#X obj 400 1 r rackloaded;
#X obj 400 30 t b b;
#X msg 400 60 loaddefinitions modules/ut/default/module.json;
#X obj 400 110 KontrolModule m3 ut/default;
#X obj 600 110 send loadbang-m3;
#X connect 0 0 2 0;
#X connect 1 0 2 1;
#X connect 2 0 3 0;
#X connect 2 1 4 0;
#X connect 5 0 6 0;
#X connect 6 0 9 0;
#X connect 6 1 7 0;
#X connect 7 0 8 0;
#X restore 50 148 pd m3;
#N canvas 714 538 943 317 m4 0;
#X obj 10 10 r~ inL-m4;
#X obj 110 10 r~ inR-m4;
#X obj 10 60 modules/ut/default/module m4;
#X obj 10 110 s~ outL-m4;
#X obj 110 110 s~ outR-m4;
#X obj 400 1 r rackloaded;
#X obj 400 30 t b b;
#X msg 400 60 loaddefinitions modules/ut/default/module.json;
#X obj 400 110 KontrolModule m4 ut/default;
#X obj 600 110 send loadbang-m4;
#X connect 0 0 2 0;
#X connect 1 0 2 1;
#X connect 2 0 3 0;
#X connect 2 1 4 0;
#X connect 5 0 6 0;
#X connect 6 0 9 0;
#X connect 6 1 7 0;
#X connect 7 0 8 0;
#X restore 50 177 pd m4;
#N canvas 325 605 946 579 m5 0;
#X obj 10 10 r~ inL-m5;
#X obj 110 10 r~ inR-m5;
#X obj 10 60 modules/ut/default/module m5;
#X obj 10 110 s~ outL-m5;
#X obj 110 110 s~ outR-m5;
#X obj 400 1 r rackloaded;
#X obj 400 30 t b b;
#X msg 400 60 loaddefinitions modules/ut/default/module.json;
#X obj 400 110 KontrolModule m5 ut/default;
#X obj 600 110 send loadbang-m5;
#X connect 0 0 2 0;
#X connect 1 0 2 1;
#X connect 2 0 3 0;
#X connect 2 1 4 0;
#X connect 5 0 6 0;
#X connect 6 0 9 0;
#X connect 6 1 7 0;
#X connect 7 0 8 0;
#X restore 100 61 pd m5;
#N canvas 325 605 946 579 m6 0;
#X obj 10 10 r~ inL-m6;
#X obj 110 10 r~ inR-m6;
#X obj 10 60 modules/ut/default/module m6;
#X obj 10 110 s~ outL-m6;
#X obj 110 110 s~ outR-m6;
#X obj 400 1 r rackloaded;
#X obj 400 30 t b b;
#X msg 400 60 loaddefinitions modules/ut/default/module.json;
#X obj 400 110 KontrolModule m6 ut/default;
#X obj 600 110 send loadbang-m6;
#X connect 0 0 2 0;
#X connect 1 0 2 1;
#X connect 2 0 3 0;
#X connect 2 1 4 0;
#X connect 5 0 6 0;
#X connect 6 0 9 0;
#X connect 6 1 7 0;
#X connect 7 0 8 0;
#X restore 100 90 pd m6;
#N canvas 325 605 946 579 m7 0;
#X obj 10 10 r~ inL-m7;
#X obj 110 10 r~ inR-m7;
#X obj 10 60 modules/ut/default/module m7;
#X obj 10 110 s~ outL-m7;
#X obj 110 110 s~ outR-m7;
#X obj 400 1 r rackloaded;
#X obj 400 30 t b b;
#X msg 400 60 loaddefinitions modules/ut/default/module.json;
#X obj 400 110 KontrolModule m7 ut/default;
#X obj 600 110 send loadbang-m7;
#X connect 0 0 2 0;
#X connect 1 0 2 1;
#X connect 2 0 3 0;
#X connect 2 1 4 0;
#X connect 5 0 6 0;
#X connect 6 0 9 0;
#X connect 6 1 7 0;
#X connect 7 0 8 0;
#X restore 100 119 pd m7;
#N canvas 495 614 693 304 m8 0;
#X obj 10 10 r~ inL-m8;
#X obj 110 10 r~ inR-m8;
#X obj 10 60 modules/ut/clock/module m8;
#X obj 10 110 s~ outL-m8;
#X obj 110 110 s~ outR-m8;
#X obj 400 1 r rackloaded;
#X obj 400 30 t b b;
#X msg 400 60 loaddefinitions modules/ut/clock/module.json;
#X obj 400 110 KontrolModule m8 ut/clock;
#X obj 600 110 send loadbang-m8;
#X connect 0 0 2 0;
#X connect 1 0 2 1;
#X connect 2 0 3 0;
#X connect 2 1 4 0;
#X connect 5 0 6 0;
#X connect 6 0 9 0;
#X connect 6 1 7 0;
#X connect 7 0 8 0;
#X restore 100 148 pd m8;
#N canvas 856 535 919 329 m9 0;
#X obj 10 10 r~ inL-m9;
#X obj 110 10 r~ inR-m9;
#X obj 10 60 modules/r/1x10/module m9;
#X obj 10 110 s~ outL-m9;
#X obj 110 110 s~ outR-m9;
#X obj 400 1 r rackloaded;
#X obj 400 30 t b b;
#X msg 400 60 loaddefinitions modules/r/1x10/module.json;
#X obj 400 110 KontrolModule m9 r/1x10;
#X obj 600 110 send loadbang-m9;
#X connect 0 0 2 0;
#X connect 1 0 2 1;
#X connect 2 0 3 0;
#X connect 2 1 4 0;
#X connect 5 0 6 0;
#X connect 6 0 9 0;
#X connect 6 1 7 0;
#X connect 7 0 8 0;
#X restore 100 177 pd m9;
#X obj 197 61 r notes;
#X obj 255 61 r encbut;
#X obj 413 61 r fs;
#X obj 320 61 r aux;
#X obj 362 61 r exp;
#X text 197 37 dummy targets;
#X obj 550 63 declare -path externals;
#N canvas 778 635 763 454 startup 0;
#X obj 175 39 r activeModule;
#X obj 63 39 loadbang;
#X obj 63 202 symbol m0;
#X obj 63 70 del 500;
#X obj 63 264 s activeModule;
#X obj 63 233 spigot 0;
#X obj 63 101 t b b b;
#X msg 111 136 1;
#X msg 47 136 0;
#X text 297 38 a temporary fix;
#X text 300 68 during startup modules might 'miss' the active module
being set \, as they are not loaded yet \, so here we repeat it after
500ms;
#X obj 175 86 symbol;
#X msg 211 130;
#X obj 211 151 s screenLine5;
#X obj 331 129 int 0;
#X obj 331 150 s led;
#X connect 0 0 11 0;
#X connect 1 0 3 0;
#X connect 1 0 12 0;
#X connect 1 0 14 0;
#X connect 2 0 5 0;
#X connect 3 0 6 0;
#X connect 5 0 4 0;
#X connect 6 0 8 0;
#X connect 6 1 2 0;
#X connect 6 2 7 0;
#X connect 7 0 5 1;
#X connect 8 0 5 1;
#X connect 11 0 2 1;
#X connect 12 0 13 0;
#X connect 14 0 15 0;
#X restore 114 9 pd startup;
#X obj 550 86 declare -path subpatches;
#X text 194 8 ORAC module v2;
