#N canvas 74 318 1976 1011 10;
#X obj 304 186 r notesIn-\$1;
#X obj 304 631 s notesOut-\$1;
#X obj 25 186 inlet~ inL-\$1;
#X obj 135 186 inlet~ inR-\$1;
#X obj 27 631 outlet~ outL-\$1;
#X obj 136 631 outlet~ outR-\$1;
#X obj 514 185 r auxIn-\$1;
#X obj 513 208 r expIn-\$1;
#X obj 513 233 r fsIn-\$1;
#X obj 769 552 mtof;
#X obj 769 593 s wavs-\$1-width-local;
#X obj 1128 506 s wavs-\$1-decay-local;
#X obj 992 587 s wavs-\$1-position-local;
#X obj 992 563 + 0.001;
#X obj 769 532 + 30;
#X obj 769 512 * 97;
#X obj 47 271 catch~ wavs-\$1-voice-out;
#X text 750 212 A Module that loads a wav file named wave.wav and scans
through it to create a 'waveform'. position sets the point and width
sets how wide the loop is. The wider the loop the more 'partials' and
noise. A lowpass filter is added at the end.;
#N canvas 558 296 1359 486 synth 1;
#X obj 9 127 poly 8 1, f 10;
#X obj 9 179 pack 0 0 0;
#X obj 9 231 route 1 2 3 4 5 6 7 8, f 60;
#X obj 9 10 inlet;
#X obj 42 151 - 0;
#X obj 250 327 wavs-voice \$1;
#X obj 117 300 wavs-voice \$1;
#X obj 150 327 wavs-voice \$1;
#X obj 358 326 wavs-voice \$1;
#X obj 325 299 wavs-voice \$1;
#X obj 9 301 wavs-voice \$1;
#X obj 42 328 wavs-voice \$1;
#X obj 217 300 wavs-voice \$1;
#X obj 125 15 inlet ctrl;
#X obj 263 151 route 1 2 3 4 5 6 7 8, f 60;
#N canvas 324 629 450 300 route 0;
#X obj 69 97 unpack 0 0 0;
#X obj 68 68 t l l;
#X obj 68 197 list;
#X obj 139 144 t b;
#X obj 139 123 route 1 0;
#X obj 226 163 unpack 0 0 0;
#X obj 226 194 pack 0 0 0;
#X obj 68 19 inlet msg;
#X obj 68 218 outlet global;
#X obj 226 215 outlet voice;
#X obj 187 162 - 1;
#X connect 0 2 4 0;
#X connect 1 0 0 0;
#X connect 1 1 2 1;
#X connect 1 1 5 0;
#X connect 2 0 8 0;
#X connect 3 0 2 0;
#X connect 4 0 3 0;
#X connect 4 1 3 0;
#X connect 4 2 10 0;
#X connect 5 0 6 1;
#X connect 5 1 6 2;
#X connect 6 0 9 0;
#X connect 7 0 1 0;
#X connect 10 0 6 0;
#X restore 17 42 pd route;
#N canvas 324 629 450 300 route 0;
#X obj 69 97 unpack 0 0 0;
#X obj 68 68 t l l;
#X obj 68 197 list;
#X obj 139 144 t b;
#X obj 139 123 route 1 0;
#X obj 234 171 unpack 0 0 0;
#X obj 234 202 pack 0 0 0;
#X obj 68 19 inlet msg;
#X obj 68 218 outlet global;
#X obj 234 223 outlet voice;
#X obj 190 158 - 1;
#X connect 0 2 4 0;
#X connect 1 0 0 0;
#X connect 1 1 2 1;
#X connect 1 1 5 0;
#X connect 2 0 8 0;
#X connect 3 0 2 0;
#X connect 4 0 3 0;
#X connect 4 1 3 0;
#X connect 4 2 10 0;
#X connect 5 0 6 1;
#X connect 5 1 6 2;
#X connect 6 0 9 0;
#X connect 7 0 1 0;
#X connect 10 0 6 0;
#X restore 148 48 pd route;
#X obj 430 42 unpack 0 0 0;
#X obj 430 63 sel 123;
#X msg 430 84 stop;
#X connect 0 0 1 0;
#X connect 0 1 4 0;
#X connect 0 2 1 2;
#X connect 1 0 2 0;
#X connect 2 0 10 0;
#X connect 2 1 11 0;
#X connect 2 2 6 0;
#X connect 2 3 7 0;
#X connect 2 4 12 0;
#X connect 2 5 5 0;
#X connect 2 6 9 0;
#X connect 2 7 8 0;
#X connect 3 0 15 0;
#X connect 4 0 1 1;
#X connect 13 0 16 0;
#X connect 13 0 17 0;
#X connect 14 0 10 1;
#X connect 14 1 11 1;
#X connect 14 2 6 1;
#X connect 14 3 7 1;
#X connect 14 4 12 1;
#X connect 14 5 5 1;
#X connect 14 6 9 1;
#X connect 14 7 8 1;
#X connect 15 0 0 0;
#X connect 15 1 2 0;
#X connect 16 0 11 1;
#X connect 16 0 10 1;
#X connect 16 0 12 1;
#X connect 16 0 9 1;
#X connect 16 0 8 1;
#X connect 16 0 7 1;
#X connect 16 0 6 1;
#X connect 16 0 5 1;
#X connect 16 1 14 0;
#X connect 17 0 18 0;
#X connect 18 0 19 0;
#X connect 19 0 0 0;
#X restore 359 391 pd synth;
#N canvas 364 351 1761 596 array 0;
#X obj 784 342 soundfiler;
#N canvas 0 50 450 250 (subpatch) 0;
#X array wavs-\$1-array 41661 float 2;
#X coords 0 1 41661 -1 200 140 1;
#X restore 332 43 graph;
#X obj 814 384 s wavs-\$1-filesize;
#X msg 785 490 \; wavs-\$1-array normalize;
#X obj 784 384 b;
#X obj 785 411 symbol \$1;
#X obj 771 209 list;
#N canvas 338 792 803 448 sampleDir 0;
#X obj 442 163 s rackMsgs;
#X obj 442 84 symbol \$1;
#X obj 370 14 r loadbang-\$1;
#X obj 441 219 symbol \$1;
#X obj 74 387 outlet;
#X obj 245 387 outlet;
#X text 81 25 samples dir bang;
#X obj 76 47 inlet kit;
#X msg 442 138 getsetting mediaDir ./data rackMediaDir-\$1;
#X obj 535 189 r rackMediaDir-\$1;
#X obj 442 186 r rackMediaDir;
#X obj 152 46 inlet slot;
#X obj 80 88 t b f;
#X obj 154 90 t b f;
#X obj 370 39 t b b;
#X obj 233 45 inlet dur;
#X obj 249 276 pack s f f s f;
#X obj 266 131 i;
#X obj 244 328 t b l;
#X obj 303 86 symbol wavs-\$1-array;
#X connect 1 0 8 0;
#X connect 2 0 14 0;
#X connect 3 0 16 0;
#X connect 7 0 12 0;
#X connect 8 0 0 0;
#X connect 9 0 3 0;
#X connect 10 0 3 0;
#X connect 11 0 13 0;
#X connect 12 0 16 0;
#X connect 12 1 16 1;
#X connect 13 0 16 0;
#X connect 13 1 16 2;
#X connect 14 0 1 0;
#X connect 14 1 19 0;
#X connect 15 0 17 0;
#X connect 16 0 18 0;
#X connect 17 0 16 4;
#X connect 18 0 4 0;
#X connect 18 1 5 0;
#X connect 19 0 16 3;
#X restore 767 156 pd sampleDir;
#X obj 763 99 r s_kit-\$1;
#X obj 849 98 r s_slot1-\$1;
#X obj 938 99 r dur-\$1;
#X obj 832 310 print soundfiler;
#X msg 800 264 read -resize \$1/samples/kit-\$2/\$3.wav \$4;
#X connect 0 0 2 0;
#X connect 0 0 4 0;
#X connect 4 0 5 0;
#X connect 5 0 3 0;
#X connect 6 0 12 0;
#X connect 7 0 6 0;
#X connect 7 1 6 1;
#X connect 8 0 7 0;
#X connect 9 0 7 1;
#X connect 10 0 7 2;
#X connect 12 0 11 0;
#X connect 12 0 0 0;
#X restore 751 314 pd array;
#N canvas 1054 812 450 300 LFO 0;
#X obj 219 50 hsl 128 15 0 2000 0 0 empty empty empty -2 -8 0 10 -262144
-1 -1 0 1;
#X obj 68 57 hsl 128 15 0 4 0 0 empty empty empty -2 -8 0 10 -262144
-1 -1 0 1;
#X obj 49 130 s wavs-\$1-rate-local;
#X obj 200 130 s wavs-\$1-depth-local;
#X floatatom 65 77 5 0 0 0 - - -;
#X floatatom 216 70 5 0 0 0 - - -;
#X msg 127 103 0;
#X msg 275 92 300;
#X obj 181 9 r loadbang-\$1;
#X connect 0 0 3 0;
#X connect 0 0 5 0;
#X connect 1 0 2 0;
#X connect 1 0 4 0;
#X connect 6 0 2 0;
#X connect 7 0 3 0;
#X connect 8 0 6 0;
#X connect 8 0 7 0;
#X restore 751 341 pd LFO;
#X obj 48 379 lop~ 200;
#X obj 113 355 hip~ 200;
#X obj 112 378 lop~ 300;
#X text 745 174 C&G Wavescanner;
#X obj 47 451 +~;
#X text 815 314 reads the file wave-wavs.wav in the Sounds folder;
#X obj 992 444 r wavs_pos-\$1;
#X obj 768 444 r wavs_width-\$1;
#X obj 1127 445 r wavs_decay-\$1;
#X obj 769 492 / 100;
#X obj 992 506 / 100;
#X obj 47 493 *~ 5;
#X obj 47 405 *~ 2;
#X obj 111 400 *~ 0.2;
#X obj 405 186 r ctrlIn-\$1;
#X obj 403 631 s ctrlOut-\$1;
#X connect 0 0 18 0;
#X connect 9 0 10 0;
#X connect 13 0 12 0;
#X connect 14 0 9 0;
#X connect 15 0 14 0;
#X connect 16 0 21 0;
#X connect 16 0 22 0;
#X connect 21 0 33 0;
#X connect 22 0 23 0;
#X connect 23 0 34 0;
#X connect 25 0 32 0;
#X connect 27 0 31 0;
#X connect 28 0 30 0;
#X connect 29 0 11 0;
#X connect 30 0 15 0;
#X connect 31 0 13 0;
#X connect 32 0 4 0;
#X connect 32 0 5 0;
#X connect 33 0 25 0;
#X connect 34 0 25 1;
#X connect 35 0 18 1;
