#N canvas 554 279 1582 927 10;
#X obj 72 141 osc~ 1;
#X obj 72 243 *~;
#X obj 182 415 +~;
#X text 526 212 fundamental;
#X obj 467 210 phasor~;
#X obj 467 232 *~ -1;
#X obj 468 257 +~ 1;
#X obj 444 282 min~;
#X obj 444 304 *~ 2;
#X obj 444 406 *~;
#X obj 287 513 +~;
#X obj 286 539 tabread4~ wavs-\$1-array;
#X obj 467 93 unpack 0 0;
#X obj 287 697 *~;
#X obj 534 473 f;
#X msg 534 509 0 \$1;
#X text 572 476 decay time;
#X obj 534 586 *~;
#X obj 534 440 t b b;
#X obj 534 538 vline~;
#X obj 696 444 t f b, f 10;
#X obj 696 406 * 0.00787402;
#X msg 696 471 \$1 5;
#X obj 534 157 sel 0;
#X obj 467 71 inlet;
#X obj 651 525 del;
#X obj 592 451 + 5;
#X msg 651 547 0;
#X msg 763 481 1;
#X obj 463 322 r wavs-\$1-width-local;
#X obj 72 112 r wavs-\$1-rate-local;
#X obj 90 217 r wavs-\$1-depth-local;
#X obj 286 782 hip~ 4;
#X obj 286 804 throw~ wavs-\$1-voice-out;
#X obj 72 163 *~ 0.5;
#X obj 72 185 +~ 0.5;
#X obj 279 222 r wavs-\$1-filesize;
#X obj 463 368 lop~ 2;
#X obj 552 360 r wavs-\$1-decay-local;
#X obj 246 89 r wavs-\$1-position-local;
#X obj 247 190 t b f;
#X obj 247 252 f;
#X obj 247 274 *, f 5;
#X obj 247 296 sig~;
#X obj 340 561 r~ \$0-phase;
#X obj 287 667 *~;
#X obj 525 250 s~ \$0-phase;
#X obj 340 583 -~ 0.5;
#X obj 340 605 *~ 0.5;
#X obj 340 627 cos~;
#X obj 463 346 +~ 10;
#X obj 247 325 samphold~;
#X obj 306 299 r~ \$0-phase;
#X obj 72 273 samphold~;
#X obj 131 247 r~ \$0-phase;
#X obj 401 456 samphold~;
#X obj 460 430 r~ \$0-phase;
#X obj 401 478 *~;
#X obj 199 383 lop~ 1;
#X obj 467 161 +;
#X obj 467 184 mtof;
#X obj 571 80 r wavs_trans-\$1;
#X obj 770 112 inlet ctrl;
#X obj 467 134 + 0;
#X obj 722 201 - 0.5;
#X obj 716 255 t b f;
#X obj 247 140 + 0;
#X obj 788 240 t b f;
#X obj 918 106 r pb_range-\$1;
#X obj 918 127 * 2;
#X obj 722 222 * 2;
#X obj 247 161 max 1;
#X obj 764 156 route 0 2 123;
#X obj 916 236 t b;
#X connect 0 0 34 0;
#X connect 1 0 53 0;
#X connect 2 0 10 0;
#X connect 4 0 5 0;
#X connect 4 0 46 0;
#X connect 5 0 6 0;
#X connect 5 0 7 0;
#X connect 6 0 7 1;
#X connect 7 0 8 0;
#X connect 8 0 9 0;
#X connect 9 0 55 0;
#X connect 10 0 11 0;
#X connect 11 0 45 0;
#X connect 12 0 63 0;
#X connect 12 1 23 0;
#X connect 13 0 32 0;
#X connect 14 0 15 0;
#X connect 15 0 19 0;
#X connect 17 0 13 1;
#X connect 18 0 14 0;
#X connect 18 1 25 0;
#X connect 19 0 17 1;
#X connect 19 0 17 0;
#X connect 20 0 22 0;
#X connect 20 1 28 0;
#X connect 21 0 20 0;
#X connect 22 0 19 0;
#X connect 23 0 18 0;
#X connect 23 1 21 0;
#X connect 24 0 12 0;
#X connect 25 0 27 0;
#X connect 26 0 25 1;
#X connect 29 0 50 0;
#X connect 30 0 0 0;
#X connect 31 0 1 1;
#X connect 32 0 33 0;
#X connect 34 0 35 0;
#X connect 35 0 1 0;
#X connect 36 0 41 1;
#X connect 37 0 9 1;
#X connect 38 0 14 1;
#X connect 38 0 26 0;
#X connect 39 0 66 0;
#X connect 40 0 41 0;
#X connect 40 1 42 1;
#X connect 41 0 42 0;
#X connect 42 0 43 0;
#X connect 43 0 51 0;
#X connect 44 0 47 0;
#X connect 45 0 13 0;
#X connect 47 0 48 0;
#X connect 48 0 49 0;
#X connect 49 0 45 1;
#X connect 50 0 37 0;
#X connect 51 0 58 0;
#X connect 52 0 51 1;
#X connect 53 0 2 0;
#X connect 54 0 53 1;
#X connect 55 0 57 0;
#X connect 56 0 55 1;
#X connect 56 0 57 1;
#X connect 57 0 10 1;
#X connect 58 0 2 1;
#X connect 59 0 60 0;
#X connect 60 0 4 0;
#X connect 61 0 59 1;
#X connect 62 0 72 0;
#X connect 63 0 59 0;
#X connect 64 0 70 0;
#X connect 65 0 63 0;
#X connect 65 1 63 1;
#X connect 66 0 71 0;
#X connect 67 0 66 0;
#X connect 67 1 66 1;
#X connect 68 0 69 0;
#X connect 69 0 70 1;
#X connect 70 0 65 0;
#X connect 71 0 40 0;
#X connect 72 0 64 0;
#X connect 72 1 67 0;
#X connect 72 2 73 0;
#X connect 73 0 18 0;
