#N canvas 707 453 869 725 10;
#X obj 86 21 inlet counter;
#X obj 209 231 euclid, f 25;
#X obj 212 402 s notesOut-\$2;
#X obj 227 16 r e_notes_\$1-\$2;
#X obj 461 27 r e_note_\$1-\$2;
#X obj 561 27 r e_vel_\$1-\$2;
#X obj 136 139 spigot 0;
#X obj 561 63 t f f;
#X obj 179 113 > 0;
#X obj 264 42 r e_off_\$1-\$2;
#X obj 113 88 %;
#X obj 326 65 r e_len_\$1-\$2;
#X obj 661 64 r e_nlen_\$1-\$2;
#X obj 211 287 makenote 60 100 50;
#X obj 210 323 pack f f;
#X obj 136 163 spigot 0;
#X obj 199 149 > 0;
#X obj 136 187 spigot 0;
#X obj 220 171 > 0;
#X obj 211 261 float 60;
#X msg 212 349 \$1 \$2 0;
#X connect 0 0 10 0;
#X connect 1 0 19 0;
#X connect 3 0 1 1;
#X connect 3 0 16 0;
#X connect 4 0 19 1;
#X connect 5 0 7 0;
#X connect 6 0 15 0;
#X connect 7 0 8 0;
#X connect 7 1 13 1;
#X connect 8 0 6 1;
#X connect 9 0 1 2;
#X connect 10 0 6 0;
#X connect 11 0 1 3;
#X connect 11 0 10 1;
#X connect 11 0 18 0;
#X connect 12 0 13 2;
#X connect 13 0 14 0;
#X connect 13 1 14 1;
#X connect 14 0 20 0;
#X connect 15 0 17 0;
#X connect 16 0 15 1;
#X connect 17 0 1 0;
#X connect 18 0 17 1;
#X connect 19 0 13 0;
#X connect 20 0 2 0;
