#N canvas 577 106 1572 758 10;
#X obj 334 182 unpack 0 0;
#X obj 335 213 - 24;
#X obj 334 130 r notesIn-\$1;
#X obj 334 495 s notesOut-\$1;
#X obj 331 330 voice \$1;
#X obj 18 130 inlet~ inL;
#X obj 103 130 inlet~ inR;
#X obj 132 495 outlet~ outR;
#X obj 18 495 outlet~ outL;
#X obj 203 131 r auxIn-\$1;
#X obj 202 154 r expIn-\$1;
#X obj 202 179 r fsIn-\$1;
#X obj 334 266 pack 0 0;
#X connect 0 0 1 0;
#X connect 0 1 12 1;
#X connect 1 0 12 0;
#X connect 2 0 0 0;
#X connect 4 0 7 0;
#X connect 4 0 8 0;
#X connect 12 0 4 0;
