#N canvas 301 366 721 432 10;
#X obj 78 46 inlet~;
#X obj 79 201 outlet~;
#N canvas 228 198 627 317 LICENSE-BSD 0;
#X text 121 56 This software is copyrighted by Miller Puckette \, Reality
Jockey Ltd. and others. The terms (the "Standard Improved BSD License")
apply to all files associated with the software unless explicitly disclaimed
in individual files.;
#X text 123 148 See the file LICENSE.txt for the full license text.
;
#X restore 523 40 pd LICENSE-BSD;
#X obj 94 69 inlet;
#X text 156 92 size;
#X text 172 121 delay;
#X obj 108 94 inlet;
#X obj 124 120 inlet;
#X obj 78 148 guts-pshifter \$1;
#X connect 0 0 8 0;
#X connect 3 0 8 1;
#X connect 6 0 8 2;
#X connect 7 0 8 3;
#X connect 8 0 1 0;
