#N canvas 908 149 1268 1016 10;
#X obj 209 842 hip~ 5;
#X obj 208 719 line~;
#X msg 231 662 0;
#X obj 208 909 *~ 0.25;
#X obj 208 879 *~;
#X obj 209 939 *~ 1;
#X text 290 49 get yer notes;
#X text 445 404 scale playback speed;
#X obj 214 51 inlet;
#X obj 208 973 outlet~;
#X obj 240 416 / 261.626;
#X obj 240 438 / 2;
#X obj 174 631 /;
#X obj 149 664 pack 0 0;
#X obj 245 534 * 1;
#X obj 148 603 / 44.1;
#X obj 146 502 f 88200;
#X obj 215 359 t b f b;
#X obj 112 561 t f f b b;
#X obj 374 801 vline~;
#X msg 367 683 0 2;
#X obj 154 411 delay 3;
#X obj 527 558 / 44.1;
#X obj 465 643 /;
#X obj 465 583 t b f;
#X obj 465 616 f;
#X obj 375 833 *~;
#N canvas 9 50 902 744 note-shape 0;
#X floatatom 394 295 5 0 0 0 - - -;
#X obj 378 262 * 1;
#X floatatom 431 370 5 0 0 0 - - -;
#X obj 381 316 t f f;
#X floatatom 411 435 5 0 0 0 - - -;
#X msg 277 535 \$1 \$2 \, 0 \$3 \$2;
#X obj 282 498 pack 1 0 0;
#X obj 405 404 -;
#X obj 426 340 * 0.5;
#X obj 339 130 inlet;
#X obj 207 79 inlet;
#X text 191 46 bang to go;
#X text 439 141 duration of max ( 0 - 1);
#X obj 644 187 inlet;
#X obj 467 161 inlet;
#X text 343 107 max duration in ms;
#X obj 426 210 f;
#X obj 566 243 f;
#X obj 340 190 f;
#X obj 219 120 t b b b b;
#X text 645 168 shape ( 0 - 1 );
#X text 287 46 comment;
#X obj 279 578 outlet;
#X text 339 575 to vline~;
#X obj 341 452 + 1;
#X obj 415 463 + 10;
#X connect 0 0 3 0;
#X connect 1 0 0 0;
#X connect 2 0 7 1;
#X connect 2 0 24 0;
#X connect 3 0 7 0;
#X connect 3 1 8 0;
#X connect 4 0 25 0;
#X connect 5 0 22 0;
#X connect 6 0 5 0;
#X connect 7 0 4 0;
#X connect 8 0 2 0;
#X connect 9 0 18 0;
#X connect 10 0 19 0;
#X connect 13 0 17 0;
#X connect 14 0 16 0;
#X connect 16 0 1 1;
#X connect 17 0 8 1;
#X connect 18 0 1 0;
#X connect 19 0 6 0;
#X connect 19 1 18 0;
#X connect 19 2 16 0;
#X connect 19 3 17 0;
#X connect 24 0 6 1;
#X connect 25 0 6 2;
#X restore 440 754 pd note-shape;
#X obj 397 415 / 100;
#X obj 397 437 mtof;
#X obj 397 459 / 8.1785;
#X obj 396 387 * 2400;
#X obj 183 467 r bsamp-\$1-dur;
#X obj 208 774 tabread4~ bsamp-\$1-newsample, f 19;
#X obj 530 495 r bsamp-\$1-dur;
#X obj 208 741 +~ 1;
#X obj 215 327 mtof;
#X obj 215 306 +;
#X obj 214 79 stripnote;
#X obj 233 280 r s_trans-\$1;
#X obj 403 288 + 20;
#X obj 403 331 / 40;
#X obj 544 723 / 100;
#X obj 535 658 / 100;
#X obj 535 630 r s_duration-\$1;
#X obj 543 694 r s_envelope-\$1;
#X obj 402 73 r s_speed-\$1;
#X obj 591 70 inlet ctrl;
#X obj 591 111 route 0 2;
#X obj 549 156 - 0.5;
#X obj 543 210 t b f;
#X obj 214 150 + 0;
#X obj 706 87 r pb_range-\$1;
#X obj 706 108 * 2;
#X obj 549 177 * 2;
#X connect 0 0 4 0;
#X connect 1 0 35 0;
#X connect 2 0 1 0;
#X connect 3 0 5 0;
#X connect 4 0 3 0;
#X connect 5 0 9 0;
#X connect 8 0 38 0;
#X connect 10 0 11 0;
#X connect 11 0 14 0;
#X connect 12 0 13 1;
#X connect 13 0 1 0;
#X connect 14 0 12 1;
#X connect 14 0 24 0;
#X connect 15 0 12 0;
#X connect 16 0 18 0;
#X connect 17 0 21 0;
#X connect 17 1 10 0;
#X connect 17 2 20 0;
#X connect 18 0 13 0;
#X connect 18 1 15 0;
#X connect 18 2 2 0;
#X connect 18 3 27 0;
#X connect 19 0 26 1;
#X connect 19 0 26 0;
#X connect 20 0 19 0;
#X connect 21 0 16 0;
#X connect 22 0 25 1;
#X connect 23 0 27 1;
#X connect 24 0 25 0;
#X connect 24 1 23 1;
#X connect 25 0 23 0;
#X connect 26 0 4 1;
#X connect 27 0 19 0;
#X connect 28 0 29 0;
#X connect 29 0 30 0;
#X connect 30 0 14 1;
#X connect 31 0 28 0;
#X connect 32 0 16 1;
#X connect 33 0 0 0;
#X connect 34 0 22 0;
#X connect 35 0 33 0;
#X connect 36 0 17 0;
#X connect 37 0 36 0;
#X connect 38 0 51 0;
#X connect 39 0 37 1;
#X connect 40 0 41 0;
#X connect 41 0 31 0;
#X connect 42 0 27 3;
#X connect 43 0 27 2;
#X connect 44 0 43 0;
#X connect 45 0 42 0;
#X connect 46 0 40 0;
#X connect 47 0 48 0;
#X connect 48 0 49 0;
#X connect 49 0 54 0;
#X connect 50 0 51 0;
#X connect 50 1 51 1;
#X connect 51 0 37 0;
#X connect 52 0 53 0;
#X connect 53 0 54 1;
#X connect 54 0 50 0;
