#N canvas 896 305 1660 710 10;
#X obj 304 186 r notesIn-\$1;
#X obj 304 491 s notesOut-\$1;
#X obj 28 186 inlet~ inL-\$1;
#X obj 135 186 inlet~ inR-\$1;
#X obj 27 491 outlet~ outL-\$1;
#X obj 136 491 outlet~ outR-\$1;
#X obj 494 185 r auxIn-\$1;
#X obj 493 208 r expIn-\$1;
#X obj 493 233 r fsIn-\$1;
#X text 589 77 sample is transposed by keys;
#N canvas 157 436 1542 727 array 0;
#X obj 788 405 soundfiler;
#N canvas 0 50 450 300 (subpatch) 0;
#X array bsamp-\$1-newsample 88204 float 0;
#X coords 0 1.02 88203 -1.02 200 130 1 0 0;
#X restore 382 297 graph;
#X text 111 45 load .wav into the table below;
#X obj 816 471 s bsamp-\$1-dur;
#X msg 735 539 \; bsamp-\$1-newsample normalize 1;
#X obj 784 444 t b f;
#X obj 735 512 symbol \$1;
#X obj 771 209 list;
#N canvas 733 549 803 448 sampleDir 0;
#X obj 442 163 s rackMsgs;
#X obj 442 84 symbol \$1;
#X obj 370 14 r loadbang-\$1;
#X obj 441 219 symbol \$1;
#X obj 74 387 outlet;
#X obj 245 387 outlet;
#X text 81 25 samples dir bang;
#X obj 76 47 inlet kit;
#X msg 442 138 getsetting mediaDir ./data rackMediaDir-\$1;
#X obj 535 189 r rackMediaDir-\$1;
#X obj 442 186 r rackMediaDir;
#X obj 152 46 inlet slot;
#X obj 80 88 t b f;
#X obj 154 90 t b f;
#X obj 370 39 t b b;
#X obj 233 45 inlet dur;
#X obj 249 276 pack s f f s f;
#X obj 266 131 i;
#X obj 244 328 t b l;
#X obj 274 86 symbol bsamp-\$1-newsample;
#X obj 274 109 t b s;
#X connect 1 0 8 0;
#X connect 2 0 14 0;
#X connect 3 0 16 0;
#X connect 7 0 12 0;
#X connect 8 0 0 0;
#X connect 9 0 3 0;
#X connect 10 0 3 0;
#X connect 11 0 13 0;
#X connect 12 0 16 0;
#X connect 12 1 16 1;
#X connect 13 0 16 0;
#X connect 13 1 16 2;
#X connect 14 0 1 0;
#X connect 14 1 19 0;
#X connect 15 0 17 0;
#X connect 16 0 18 0;
#X connect 17 0 16 4;
#X connect 18 0 4 0;
#X connect 18 1 5 0;
#X connect 19 0 20 0;
#X connect 20 0 16 0;
#X connect 20 1 16 3;
#X restore 767 156 pd sampleDir;
#X obj 763 99 r s_kit-\$1;
#X obj 849 98 r s_slot1-\$1;
#X obj 938 99 r dur-\$1;
#X obj 832 310 print soundfiler;
#X msg 800 264 read -resize \$1/samples/kit-\$2/\$3.wav \$4;
#X connect 0 0 5 0;
#X connect 5 0 6 0;
#X connect 5 1 3 0;
#X connect 6 0 4 0;
#X connect 7 0 13 0;
#X connect 8 0 7 0;
#X connect 8 1 7 1;
#X connect 9 0 8 0;
#X connect 10 0 8 1;
#X connect 11 0 8 2;
#X connect 13 0 12 0;
#X connect 13 0 0 0;
#X restore 577 154 pd array;
#N canvas 248 202 711 641 synth 1;
#X obj 42 172 pack 0 0 0;
#X obj 44 515 *~ 1;
#X obj 43 332 route 1 2 3 4 5 6, f 47;
#X obj 42 134 poly 6 1, f 11;
#X obj 43 566 outlet~;
#X obj 42 22 inlet;
#X obj 82 395 bsamp-voice \$1;
#X obj 43 364 bsamp-voice \$1;
#X obj 148 364 bsamp-voice \$1;
#X obj 256 364 bsamp-voice \$1;
#X obj 218 386 bsamp-voice \$1;
#X obj 326 386 bsamp-voice \$1;
#X obj 338 262 route 1 2 3 4 5 6, f 47;
#N canvas 324 629 450 300 route 0;
#X obj 69 97 unpack 0 0 0;
#X obj 68 68 t l l;
#X obj 68 197 list;
#X obj 139 144 t b;
#X obj 139 123 route 1 0;
#X obj 226 163 unpack 0 0 0;
#X obj 226 194 pack 0 0 0;
#X obj 68 19 inlet msg;
#X obj 68 218 outlet global;
#X obj 226 215 outlet voice;
#X obj 187 162 - 1;
#X connect 0 2 4 0;
#X connect 1 0 0 0;
#X connect 1 1 2 1;
#X connect 1 1 5 0;
#X connect 2 0 8 0;
#X connect 3 0 2 0;
#X connect 4 0 3 0;
#X connect 4 1 3 0;
#X connect 4 2 10 0;
#X connect 5 0 6 1;
#X connect 5 1 6 2;
#X connect 6 0 9 0;
#X connect 7 0 1 0;
#X connect 10 0 6 0;
#X restore 97 78 pd route;
#N canvas 324 629 450 300 route 0;
#X obj 69 97 unpack 0 0 0;
#X obj 68 68 t l l;
#X obj 68 197 list;
#X obj 139 144 t b;
#X obj 139 123 route 1 0;
#X obj 234 171 unpack 0 0 0;
#X obj 234 202 pack 0 0 0;
#X obj 68 19 inlet msg;
#X obj 68 218 outlet global;
#X obj 234 223 outlet voice;
#X obj 190 158 - 1;
#X connect 0 2 4 0;
#X connect 1 0 0 0;
#X connect 1 1 2 1;
#X connect 1 1 5 0;
#X connect 2 0 8 0;
#X connect 3 0 2 0;
#X connect 4 0 3 0;
#X connect 4 1 3 0;
#X connect 4 2 10 0;
#X connect 5 0 6 1;
#X connect 5 1 6 2;
#X connect 6 0 9 0;
#X connect 7 0 1 0;
#X connect 10 0 6 0;
#X restore 228 84 pd route;
#X obj 228 41 inlet ctrl;
#X obj 437 74 unpack 0 0 0;
#X obj 437 95 sel 123;
#X msg 437 116 stop;
#X connect 0 0 2 0;
#X connect 1 0 4 0;
#X connect 2 0 7 0;
#X connect 2 1 6 0;
#X connect 2 2 8 0;
#X connect 2 3 10 0;
#X connect 2 4 9 0;
#X connect 2 5 11 0;
#X connect 3 0 0 0;
#X connect 3 1 0 1;
#X connect 3 2 0 2;
#X connect 5 0 13 0;
#X connect 6 0 1 0;
#X connect 7 0 1 0;
#X connect 8 0 1 0;
#X connect 9 0 1 0;
#X connect 10 0 1 0;
#X connect 11 0 1 0;
#X connect 12 0 7 1;
#X connect 12 1 6 1;
#X connect 12 2 8 1;
#X connect 12 3 10 1;
#X connect 12 4 9 1;
#X connect 12 5 11 1;
#X connect 13 0 3 0;
#X connect 13 1 2 0;
#X connect 14 0 8 1;
#X connect 14 0 7 1;
#X connect 14 0 11 1;
#X connect 14 0 10 1;
#X connect 14 0 9 1;
#X connect 14 0 6 1;
#X connect 14 1 12 0;
#X connect 15 0 14 0;
#X connect 15 0 16 0;
#X connect 16 0 17 0;
#X connect 17 0 18 0;
#X connect 18 0 3 0;
#X restore 65 338 pd synth;
#X text 646 150 reads the file wave-bsamp.wav in the Sounds Folder.
, f 22;
#X text 591 54 C&G basic sampler with recording;
#X obj 399 186 r ctrlIn-\$1;
#X obj 405 491 s ctrlOut-\$1;
#X connect 0 0 11 0;
#X connect 11 0 4 0;
#X connect 11 0 5 0;
#X connect 14 0 11 1;
