#N canvas 530 250 1976 1011 10;
#X obj 304 186 r notesIn-\$1;
#X obj 304 631 s notesOut-\$1;
#X obj 25 186 inlet~ inL-\$1;
#X obj 135 186 inlet~ inR-\$1;
#X obj 27 631 outlet~ outL-\$1;
#X obj 136 631 outlet~ outR-\$1;
#X obj 424 185 r auxIn-\$1;
#X obj 423 208 r expIn-\$1;
#X obj 423 233 r fsIn-\$1;
#X obj 599 712 mtof;
#X obj 599 753 s wavs-\$1-width-local;
#X obj 958 666 s wavs-\$1-decay-local;
#X obj 822 747 s wavs-\$1-position-local;
#X obj 822 723 + 0.001;
#X obj 599 692 + 30;
#X obj 599 672 * 97;
#X obj 47 271 catch~ wavs-\$1-voice-out;
#X text 580 372 A Module that loads a wav file named wave.wav and scans
through it to create a 'waveform'. position sets the point and width
sets how wide the loop is. The wider the loop the more 'partials' and
noise. A lowpass filter is added at the end.;
#N canvas 1561 359 732 486 synth 0;
#X obj 9 37 poly 8 1, f 10;
#X obj 9 89 pack 0 0 0;
#X obj 9 111 route 1 2 3 4 5 6 7 8, f 60;
#X obj 9 10 inlet;
#X obj 42 61 - 0;
#X obj 250 167 wavs-voice \$1;
#X obj 117 140 wavs-voice \$1;
#X obj 150 167 wavs-voice \$1;
#X obj 358 166 wavs-voice \$1;
#X obj 325 139 wavs-voice \$1;
#X obj 9 141 wavs-voice \$1;
#X obj 42 168 wavs-voice \$1;
#X obj 217 140 wavs-voice \$1;
#X connect 0 0 1 0;
#X connect 0 1 4 0;
#X connect 0 2 1 2;
#X connect 1 0 2 0;
#X connect 2 0 10 0;
#X connect 2 1 11 0;
#X connect 2 2 6 0;
#X connect 2 3 7 0;
#X connect 2 4 12 0;
#X connect 2 5 5 0;
#X connect 2 6 9 0;
#X connect 2 7 8 0;
#X connect 3 0 0 0;
#X connect 4 0 1 1;
#X restore 359 391 pd synth;
#N canvas 1360 575 608 463 array 0;
#X obj 60 225 soundfiler;
#N canvas 0 50 450 250 (subpatch) 0;
#X array wavs-\$1-array 41661 float 2;
#X coords 0 1 41661 -1 200 140 1;
#X restore 332 43 graph;
#X obj 90 267 s wavs-\$1-filesize;
#X msg 61 373 \; wavs-\$1-array normalize;
#X obj 60 267 b;
#X obj 62 58 bng 15 250 50 0 empty empty empty 17 7 0 10 -262144 -1
-1;
#X obj 60 138 symbol Sounds/WaveScanner-sound/wave-wavs.wav, f 38
;
#X obj 63 28 r loadbang-\$1;
#X obj 60 172 pack sym sym;
#X obj 131 118 symbol \$1;
#X msg 60 203 read -resize \$1 wavs-\$2-array;
#X obj 61 294 symbol \$1;
#X obj 68 95 t b b;
#X connect 0 0 2 0;
#X connect 0 0 4 0;
#X connect 4 0 11 0;
#X connect 5 0 12 0;
#X connect 6 0 8 0;
#X connect 7 0 5 0;
#X connect 8 0 10 0;
#X connect 9 0 8 1;
#X connect 10 0 0 0;
#X connect 11 0 3 0;
#X connect 12 0 6 0;
#X connect 12 1 9 0;
#X restore 581 474 pd array;
#N canvas 1054 812 450 300 LFO 0;
#X obj 219 50 hsl 128 15 0 2000 0 0 empty empty empty -2 -8 0 10 -262144
-1 -1 0 1;
#X obj 68 57 hsl 128 15 0 4 0 0 empty empty empty -2 -8 0 10 -262144
-1 -1 0 1;
#X obj 49 130 s wavs-\$1-rate-local;
#X obj 200 130 s wavs-\$1-depth-local;
#X floatatom 65 77 5 0 0 0 - - -;
#X floatatom 216 70 5 0 0 0 - - -;
#X msg 127 103 0;
#X msg 275 92 300;
#X obj 181 9 r loadbang-\$1;
#X connect 0 0 3 0;
#X connect 0 0 5 0;
#X connect 1 0 2 0;
#X connect 1 0 4 0;
#X connect 6 0 2 0;
#X connect 7 0 3 0;
#X connect 8 0 6 0;
#X connect 8 0 7 0;
#X restore 581 501 pd LFO;
#X obj 48 379 lop~ 200;
#X obj 113 355 hip~ 200;
#X obj 112 378 lop~ 300;
#X text 575 334 C&G Wavescanner;
#X obj 47 451 +~;
#X text 645 474 reads the file wave-wavs.wav in the Sounds folder;
#X obj 822 604 r wavs_pos-\$1;
#X obj 598 604 r wavs_width-\$1;
#X obj 957 605 r wavs_decay-\$1;
#X obj 599 652 / 100;
#X obj 822 666 / 100;
#X obj 47 493 *~ 5;
#X obj 47 405 *~ 2;
#X obj 111 400 *~ 0.2;
#X connect 0 0 18 0;
#X connect 9 0 10 0;
#X connect 13 0 12 0;
#X connect 14 0 9 0;
#X connect 15 0 14 0;
#X connect 16 0 21 0;
#X connect 16 0 22 0;
#X connect 21 0 33 0;
#X connect 22 0 23 0;
#X connect 23 0 34 0;
#X connect 25 0 32 0;
#X connect 27 0 31 0;
#X connect 28 0 30 0;
#X connect 29 0 11 0;
#X connect 30 0 15 0;
#X connect 31 0 13 0;
#X connect 32 0 4 0;
#X connect 32 0 5 0;
#X connect 33 0 25 0;
#X connect 34 0 25 1;
