#N canvas 1331 778 1014 499 10;
#N canvas 0 50 450 278 (subpatch) 0;
#X array \$1-\$2-array-\$3 88200 float 2;
#X coords 0 1 88200 -1 335 251 1 0 0;
#X restore 7 124 graph;
#X obj 449 271 soundfiler;
#X obj 449 73 bng 15 250 50 0 empty empty empty 17 7 0 10 -262144 -1
-1;
#X obj 449 185 list prepend -resize;
#X obj 449 213 list prepend read;
#X obj 449 241 list trim;
#X obj 449 121 list;
#X text 4 4 Arg1: construct the read message using the sound file name
(\$1);
#X obj 449 99 symbol \$1-\$2-array-\$3;
#X text 4 34 Arg2: Module Shortname;
#X text 4 54 Arg3: Module Instance Number;
#X obj 449 152 list prepend Sounds/s24-sounds/\$1;
#X obj 449 32 r loadbang-\$3;
#X connect 2 0 8 0;
#X connect 3 0 4 0;
#X connect 4 0 5 0;
#X connect 5 0 1 0;
#X connect 6 0 11 0;
#X connect 8 0 6 0;
#X connect 11 0 3 0;
#X connect 12 0 2 0;
