#N canvas 295 209 1503 1001 10;
#X obj 240 186 r notesIn-\$1;
#X obj 242 491 s notesOut-\$1;
#X obj 23 9 r loaddefs-\$1;
#X msg 23 58 loaddefinitions \$1;
#X obj 166 5 r loadbang-\$1;
#X obj 181 76 print loading definiton for \$1;
#X obj 23 34 symbol;
#X obj 25 186 inlet~ inL-\$1;
#X obj 135 186 inlet~ inR-\$1;
#X obj 27 491 outlet~ outL-\$1;
#X obj 136 491 outlet~ outR-\$1;
#X obj 181 35 print loaded:linear router into \$1, f 39;
#X obj 23 112 KontrolModule \$1 R-4x2+2-QUAD;
#X obj 336 187 r auxIn-\$1;
#X obj 335 210 r expIn-\$1;
#X obj 335 235 r fsIn-\$1;
#X obj 328 294 actmodhandler \$1;
#X obj 662 130 r~ inL;
#X obj 786 132 r~ inR;
#X obj 664 666 throw~ outL;
#X obj 754 666 throw~ outR;
#X obj 1188 304 connectmod m9 \$1;
#X obj 661 299 connectmod m0 \$1;
#X obj 661 324 connectmod m1 \$1;
#X obj 1188 256 connectmod m8 \$1;
#X obj 1048 324 connectmod m7 \$1;
#X obj 1048 299 connectmod m6 \$1;
#X obj 787 299 connectmod m2 \$1;
#X obj 787 324 connectmod m3 \$1;
#X obj 914 299 connectmod m4 \$1;
#X obj 914 324 connectmod m5 \$1;
#X obj 878 667 dac~ 3 4;
#X obj 662 254 chainin_mono 1 \$1;
#X obj 787 254 chainin_mono 2 \$1;
#X obj 914 254 chainin_mono 3 \$1;
#X obj 1044 255 chainin_mono 4 \$1;
#X obj 914 133 adc~ 3;
#X obj 1044 136 adc~ 4;
#X text 659 48 4 chains of 2 quad output;
#X obj 662 409 chainout_quad 1 \$1;
#X text 656 16 THIS IS EXPERIMENTAL ONLY - DO NOT USE;
#X obj 787 409 chainout_quad 2 \$1;
#X obj 918 409 chainout_quad 3 \$1;
#X obj 1048 409 chainout_quad 4 \$1;
#X connect 2 0 6 0;
#X connect 2 0 5 0;
#X connect 3 0 12 0;
#X connect 4 0 11 0;
#X connect 6 0 3 0;
#X connect 17 0 32 0;
#X connect 18 0 33 0;
#X connect 22 0 23 0;
#X connect 22 1 23 1;
#X connect 22 2 23 2;
#X connect 23 0 39 0;
#X connect 23 1 39 1;
#X connect 23 2 39 2;
#X connect 24 0 21 0;
#X connect 24 1 21 1;
#X connect 24 2 21 2;
#X connect 25 0 43 0;
#X connect 25 1 43 1;
#X connect 25 2 43 2;
#X connect 26 0 25 0;
#X connect 26 1 25 1;
#X connect 26 2 25 2;
#X connect 27 0 28 0;
#X connect 27 1 28 1;
#X connect 27 2 28 2;
#X connect 28 0 41 0;
#X connect 28 1 41 1;
#X connect 28 2 41 2;
#X connect 29 0 30 0;
#X connect 29 1 30 1;
#X connect 29 2 30 2;
#X connect 30 0 42 0;
#X connect 30 1 42 1;
#X connect 30 2 42 2;
#X connect 32 0 22 0;
#X connect 32 1 22 1;
#X connect 32 2 22 2;
#X connect 33 0 27 0;
#X connect 33 1 27 1;
#X connect 33 2 27 2;
#X connect 34 0 29 0;
#X connect 34 1 29 1;
#X connect 34 2 29 2;
#X connect 35 0 26 0;
#X connect 35 1 26 1;
#X connect 35 2 26 2;
#X connect 36 0 34 0;
#X connect 37 0 35 0;
#X connect 39 0 19 0;
#X connect 39 1 20 0;
#X connect 39 2 31 0;
#X connect 39 3 31 1;
#X connect 41 0 19 0;
#X connect 41 1 20 0;
#X connect 41 2 31 0;
#X connect 41 3 31 1;
#X connect 42 0 19 0;
#X connect 42 1 20 0;
#X connect 42 2 31 0;
#X connect 42 3 31 1;
#X connect 43 0 19 0;
#X connect 43 1 20 0;
#X connect 43 2 31 0;
#X connect 43 3 31 1;
