#N canvas 1068 220 1918 998 10;
#X obj 89 54 netreceive 3000;
#X text 57 29 Receive Controls via TCP;
#X text 445 32 primary controls;
#X text 321 305 secondary controls (accessible when source is held)
;
#X obj 610 140 route record file source reset freeze;
#X obj 90 140 route start speed size density pitch overlap blend window
;
#X obj 75 395 route start_alt speed_alt size_alt density_alt pitch
alt overlap_alt blend_alt window_alt;
#X obj 542 396 route record_alt file_alt source_alt reset_alt freeze_alt
;
#X obj 93 196 s a_cvIn1;
#X obj 113 218 s a_cvIn2;
#X obj 173 196 s a_cvIn3;
#X obj 193 218 s a_cvIn4;
#X obj 250 196 s a_cvIn5;
#X obj 270 218 s a_cvIn6;
#X obj 328 196 s a_cvIn7;
#X obj 348 218 s a_cvIn8;
#X obj 81 452 s a_cvIn9;
#X obj 101 474 s a_cvIn10;
#X obj 161 452 s a_cvIn11;
#X obj 181 474 s a_cvIn12;
#X obj 238 452 s a_cvIn13;
#X obj 258 474 s a_cvIn14;
#X obj 316 452 s a_cvIn15;
#X obj 336 474 s a_cvIn16;
#X text 102 352 analog 9 to 16;
#X text 105 105 analog 1 to 18;
#X obj 613 187 s d_cvIn1;
#X obj 633 209 s d_cvIn2;
#X obj 693 187 s d_cvIn3;
#X obj 713 209 s d_cvIn4;
#X text 606 106 digital 1 to 5;
#X obj 781 187 s d_cvIn5;
#X obj 552 458 s d_cvIn6;
#X obj 572 480 s d_cvIn7;
#X obj 632 458 s d_cvIn8;
#X obj 652 480 s d_cvIn9;
#X obj 720 458 s d_cvIn10;
#X text 540 353 digital 6 to 10;
#X text 543 373 note: in9 - reset_alt is never sent;
#X text 104 371 note: in10 - speed_alt is never sent;
#X connect 0 0 5 0;
#X connect 4 0 26 0;
#X connect 4 1 27 0;
#X connect 4 2 28 0;
#X connect 4 3 29 0;
#X connect 4 4 31 0;
#X connect 5 0 8 0;
#X connect 5 1 9 0;
#X connect 5 2 10 0;
#X connect 5 3 11 0;
#X connect 5 4 12 0;
#X connect 5 5 13 0;
#X connect 5 6 14 0;
#X connect 5 7 15 0;
#X connect 6 0 16 0;
#X connect 6 1 17 0;
#X connect 6 2 18 0;
#X connect 6 3 19 0;
#X connect 6 4 20 0;
#X connect 6 5 21 0;
#X connect 6 6 22 0;
#X connect 6 7 23 0;
#X connect 7 0 32 0;
#X connect 7 1 33 0;
#X connect 7 2 34 0;
#X connect 7 3 35 0;
#X connect 7 4 36 0;
