#N canvas 1681 54 1918 998 10;
#X obj 56 302 netreceive 3000;
#X obj 140 357 route start size density overlap blend window pitch
speed record file source reset freeze;
#X obj 554 354 route start_alt size_alt density_alt overlap_alt blend_alt
window_alt pitch_alt record_alt file_alt source_alt freeze_alt;
#X obj 141 639 s start;
#X obj 173 599 s size;
#X obj 202 554 s density;
#X obj 231 517 s overlap;
#X obj 261 485 s blend;
#X obj 292 451 s window;
#X obj 322 430 s pitch;
#X obj 353 403 s speed;
#X obj 388 540 s record;
#X obj 414 518 s file;
#X obj 447 499 s source;
#X obj 474 461 s reset;
#X obj 505 424 s freeze;
#X obj 549 538 s start_alt;
#X obj 567 513 s size_alt;
#X obj 582 490 s density_alt;
#X obj 600 465 s overlap_alt;
#X obj 683 544 s blend_alt;
#X obj 709 519 s window_alt;
#X obj 726 498 s pitch_alt;
#X obj 913 545 s freeze_alt;
#X obj 790 545 s record_alt;
#X obj 808 520 s file_alt;
#X obj 826 498 s source_alt;
#X obj 1104 438 loadbang;
#X obj 1104 460 delay 300;
#X obj 1104 482 s initbang;
#X obj 1294 448 r initbang;
#X msg 1294 470 \; pd dsp 1;
#X text 24 277 Receive Controls via TCP;
#X text 283 317 primary controls;
#X text 582 314 secondary controls (accessible when source is held)
;
#X text 1126 413 Initialization -- Turn DSP on;
#X obj 115 138 adc~;
#X obj 116 196 dac~;
#X text 149 167 Audio Bypass -- Input to Output;
#X connect 0 0 1 0;
#X connect 1 0 3 0;
#X connect 1 1 4 0;
#X connect 1 2 5 0;
#X connect 1 3 6 0;
#X connect 1 4 7 0;
#X connect 1 5 8 0;
#X connect 1 6 9 0;
#X connect 1 7 10 0;
#X connect 1 8 11 0;
#X connect 1 9 12 0;
#X connect 1 10 13 0;
#X connect 1 11 14 0;
#X connect 1 12 15 0;
#X connect 1 13 2 0;
#X connect 2 0 16 0;
#X connect 2 1 17 0;
#X connect 2 2 18 0;
#X connect 2 3 19 0;
#X connect 2 4 20 0;
#X connect 2 5 21 0;
#X connect 2 6 22 0;
#X connect 2 7 24 0;
#X connect 2 8 25 0;
#X connect 2 9 26 0;
#X connect 2 10 23 0;
#X connect 27 0 28 0;
#X connect 28 0 29 0;
#X connect 30 0 31 0;
#X connect 36 0 37 0;
#X connect 36 1 37 1;
