#N canvas 339 350 1918 998 10;
#X obj 89 54 netreceive 3000;
#X text 57 29 Receive Controls via TCP;
#X text 738 13 primary controls;
#X text 576 317 secondary controls (accessible when source is held)
;
#X obj 1072 153 route record file source reset freeze;
#X obj 90 140 route start speed size density pitch overlap blend window
;
#X obj 1002 475 route record_alt file_alt source_alt reset_alt freeze_alt
;
#X obj 71 239 s a_cvIn1;
#X text 102 352 analog 9 to 16;
#X text 1074 121 digital 1 to 5;
#X text 1006 414 digital 6 to 10;
#X text 1009 434 note: in9 - reset_alt is never sent;
#X text 104 371 note: in10 - speed_alt is never sent;
#X text 105 105 analog 1 to 8;
#X obj 75 395 route start_alt speed_alt size_alt density_alt pitch_alt
overlap_alt blend_alt window_alt;
#X obj 71 199 change -1;
#X obj 138 199 change -1;
#X obj 202 199 change -1;
#X obj 271 199 change -1;
#X obj 340 199 change -1;
#X obj 411 199 change -1;
#X obj 478 199 change -1;
#X obj 548 199 change -1;
#X obj 138 239 s a_cvIn2;
#X obj 202 239 s a_cvIn3;
#X obj 271 239 s a_cvIn4;
#X obj 340 239 s a_cvIn5;
#X obj 411 239 s a_cvIn6;
#X obj 478 239 s a_cvIn7;
#X obj 548 239 s a_cvIn8;
#X obj 17 552 change -1;
#X obj 84 552 change -1;
#X obj 148 552 change -1;
#X obj 217 552 change -1;
#X obj 286 552 change -1;
#X obj 357 552 change -1;
#X obj 424 552 change -1;
#X obj 494 552 change -1;
#X obj 17 592 s a_cvIn9;
#X obj 84 592 s a_cvIn10;
#X obj 148 592 s a_cvIn11;
#X obj 217 592 s a_cvIn12;
#X obj 286 592 s a_cvIn13;
#X obj 357 592 s a_cvIn14;
#X obj 494 592 s a_cvIn16;
#X obj 424 592 s a_cvIn15;
#X obj 1045 243 change -1;
#X obj 1112 243 change -1;
#X obj 1176 243 change -1;
#X obj 1245 243 change -1;
#X obj 1314 243 change -1;
#X obj 1045 283 s d_cvIn1;
#X obj 1112 283 s d_cvIn2;
#X obj 1176 283 s d_cvIn3;
#X obj 1245 283 s d_cvIn4;
#X obj 1314 283 s d_cvIn5;
#X obj 1014 571 change -1;
#X obj 1081 571 change -1;
#X obj 1145 571 change -1;
#X obj 1214 571 change -1;
#X obj 1283 571 change -1;
#X obj 1014 611 s d_cvIn6;
#X obj 1081 611 s d_cvIn7;
#X obj 1145 611 s d_cvIn8;
#X obj 1214 611 s d_cvIn9;
#X obj 1283 611 s d_cvIn10;
#X obj 1132 382 s rackMsgs;
#X text 1206 122 note: file is used to switch presets!;
#X msg 1131 355 nextpreset;
#X obj 1130 316 sel 1;
#X connect 0 0 5 0;
#X connect 4 0 46 0;
#X connect 4 1 47 0;
#X connect 4 2 48 0;
#X connect 4 3 49 0;
#X connect 4 4 50 0;
#X connect 4 5 14 0;
#X connect 5 0 15 0;
#X connect 5 1 16 0;
#X connect 5 2 17 0;
#X connect 5 3 18 0;
#X connect 5 4 19 0;
#X connect 5 5 20 0;
#X connect 5 6 21 0;
#X connect 5 7 22 0;
#X connect 5 8 4 0;
#X connect 6 0 56 0;
#X connect 6 1 57 0;
#X connect 6 2 58 0;
#X connect 6 3 59 0;
#X connect 6 4 60 0;
#X connect 14 0 30 0;
#X connect 14 1 31 0;
#X connect 14 2 32 0;
#X connect 14 3 33 0;
#X connect 14 4 34 0;
#X connect 14 5 35 0;
#X connect 14 6 36 0;
#X connect 14 7 37 0;
#X connect 14 8 6 0;
#X connect 15 0 7 0;
#X connect 16 0 23 0;
#X connect 17 0 24 0;
#X connect 18 0 25 0;
#X connect 19 0 26 0;
#X connect 20 0 27 0;
#X connect 21 0 28 0;
#X connect 22 0 29 0;
#X connect 30 0 38 0;
#X connect 31 0 39 0;
#X connect 32 0 40 0;
#X connect 33 0 41 0;
#X connect 34 0 42 0;
#X connect 35 0 43 0;
#X connect 36 0 45 0;
#X connect 37 0 44 0;
#X connect 46 0 51 0;
#X connect 47 0 52 0;
#X connect 47 0 69 0;
#X connect 48 0 53 0;
#X connect 49 0 54 0;
#X connect 50 0 55 0;
#X connect 56 0 61 0;
#X connect 57 0 62 0;
#X connect 58 0 63 0;
#X connect 59 0 64 0;
#X connect 60 0 65 0;
#X connect 68 0 66 0;
#X connect 69 0 68 0;
