#N canvas 1608 532 785 637 10;
#X obj 449 142 / 100;
#X obj 353 249 spigot 0;
#X obj 398 220 > 0;
#X obj 569 143 t f f;
#X obj 569 101 r r-out-midich-\$1-\$2;
#X obj 353 325 noteout 1;
#X obj 353 285 unpack 0 0;
#X obj 62 101 r~ outL-\$1;
#X obj 153 101 r~ outR-\$1;
#X obj 449 101 r r-out-gain-\$1-\$2;
#X obj 62 390 outlet~;
#X obj 153 390 outlet~;
#X obj 62 241 *~;
#X obj 153 241 *~;
#X obj 246 392 outlet;
#X obj 244 102 r notesOut-\$1;
#X obj 246 241 spigot 1;
#X obj 448 70 r r-out-notethru-\$1-\$2;
#X connect 0 0 12 1;
#X connect 0 0 13 1;
#X connect 1 0 6 0;
#X connect 2 0 1 1;
#X connect 3 0 2 0;
#X connect 3 1 5 2;
#X connect 4 0 3 0;
#X connect 6 0 5 0;
#X connect 6 1 5 1;
#X connect 7 0 12 0;
#X connect 8 0 13 0;
#X connect 9 0 0 0;
#X connect 12 0 10 0;
#X connect 13 0 11 0;
#X connect 15 0 1 0;
#X connect 15 0 16 0;
#X connect 16 0 14 0;
#X connect 17 0 16 1;
