#N canvas 560 656 848 375 10;
#X obj 46 32 r~ inL;
#X obj 137 32 r~ inR;
#X obj 46 224 s~ inL-\$1, f 10;
#X obj 137 224 s~ inR-\$1, f 10;
#X obj 225 224 s notesIn-\$1, f 13;
#X obj 407 47 / 100;
#X obj 225 35 notein;
#X obj 225 96 pack 0 0;
#X obj 326 130 == 0;
#X obj 46 161 *~ 1;
#X obj 137 159 *~ 1;
#X obj 225 183 spigot 0;
#X obj 407 26 r r-in-gain-\$1-\$2;
#X obj 517 26 r r-in-midich-\$1-\$2;
#X connect 0 0 9 0;
#X connect 1 0 10 0;
#X connect 5 0 9 1;
#X connect 5 0 10 1;
#X connect 6 0 7 0;
#X connect 6 1 7 1;
#X connect 6 2 8 0;
#X connect 7 0 11 0;
#X connect 8 0 11 1;
#X connect 9 0 2 0;
#X connect 10 0 3 0;
#X connect 11 0 4 0;
#X connect 12 0 5 0;
#X connect 13 0 8 1;
