#N canvas 621 688 1296 766 10;
#X obj 264 279 s bela_setDigital @hv_param;
#X text 16 80 Trig in 1: 26;
#X text 16 90 Trig in 2: 25;
#X text 16 100 Trig in 3: 12;
#X text 16 110 Trig in 4: 14;
#X obj 250 77 select 1 2 3 4;
#X msg 245 112 26;
#X msg 287 112 25;
#X msg 336 112 12;
#X msg 374 112 14;
#X msg 264 246 in \$1;
#X obj 409 586 outlet;
#X obj 359 437 r bela_digitalIn25;
#X obj 506 437 r bela_digitalIn12;
#X obj 651 437 r bela_digitalIn14;
#X text 30 537 All the other switches are;
#X text 30 557 corresponding Trig in.;
#X text 16 69 Switch 1: 17;
#X msg 192 114 17;
#X obj 218 437 r bela_digitalIn26;
#X obj 57 437 r bela_digitalIn17;
#X text 30 527 to Trig in 1 in hardware.;
#X obj 211 525 change;
#X text 30 517 Switch 1 is NOT connected;
#X text 30 547 connected "wired OR" to the;
#X obj 211 496 |;
#X obj 201 467 t b f;
#X text 41 494 Digital "wired-OR" >>>>;
#X obj 250 28 inlet trig;
#X obj 527 27 inlet enabled;
#X obj 263 196 route 1 0;
#X obj 263 171 pack 0 0;
#X obj 263 146 i;
#X obj 527 64 i;
#X msg 350 246 disable \$1;
#X obj 250 49 t b f;
#X connect 5 0 6 0;
#X connect 5 0 18 0;
#X connect 5 1 7 0;
#X connect 5 2 8 0;
#X connect 5 3 9 0;
#X connect 6 0 32 0;
#X connect 7 0 32 0;
#X connect 8 0 32 0;
#X connect 9 0 32 0;
#X connect 10 0 0 0;
#X connect 12 0 11 0;
#X connect 13 0 11 0;
#X connect 14 0 11 0;
#X connect 18 0 32 0;
#X connect 19 0 26 0;
#X connect 20 0 25 0;
#X connect 22 0 11 0;
#X connect 25 0 22 0;
#X connect 26 0 25 0;
#X connect 26 1 25 1;
#X connect 28 0 35 0;
#X connect 29 0 33 0;
#X connect 30 0 10 0;
#X connect 30 1 34 0;
#X connect 31 0 30 0;
#X connect 32 0 31 1;
#X connect 33 0 31 0;
#X connect 34 0 0 0;
#X connect 35 0 33 0;
#X connect 35 1 5 0;
