#N canvas 417 804 952 503 10;
#X text 37 47 Trig in 1: 26;
#X text 37 57 Trig in 2: 25;
#X text 37 67 Trig in 3: 12;
#X text 37 77 Trig in 4: 14;
#X text 37 36 Switch 1: 17;
#X obj 283 449 outlet~;
#X obj 256 370 adc~ 26 25 12 14;
#X obj 196 370 adc~ 17;
#X obj 264 279 s bela_setDigital @hv_param;
#X obj 250 77 select 1 2 3 4;
#X msg 245 112 26;
#X msg 287 112 25;
#X msg 336 112 12;
#X msg 374 112 14;
#X msg 192 114 17;
#X obj 250 28 inlet trig;
#X obj 527 27 inlet enabled;
#X obj 263 196 route 1 0;
#X obj 263 171 pack 0 0;
#X obj 263 146 i;
#X obj 527 64 i;
#X msg 350 246 disable \$1;
#X obj 250 49 t b f;
#X msg 264 246 in \$1 ~;
#X connect 6 0 5 0;
#X connect 6 1 5 0;
#X connect 6 2 5 0;
#X connect 6 3 5 0;
#X connect 7 0 5 0;
#X connect 9 0 10 0;
#X connect 9 0 14 0;
#X connect 9 1 11 0;
#X connect 9 2 12 0;
#X connect 9 3 13 0;
#X connect 10 0 19 0;
#X connect 11 0 19 0;
#X connect 12 0 19 0;
#X connect 13 0 19 0;
#X connect 14 0 19 0;
#X connect 15 0 22 0;
#X connect 16 0 20 0;
#X connect 17 0 23 0;
#X connect 17 1 21 0;
#X connect 18 0 17 0;
#X connect 19 0 18 1;
#X connect 20 0 18 0;
#X connect 21 0 8 0;
#X connect 22 0 20 0;
#X connect 22 1 9 0;
#X connect 23 0 8 0;
