#N canvas 57 277 1366 898 10;
#X obj 211 642 s bela_digitalOut11 @hv_param;
#X obj 211 612 spigot;
#X obj 404 618 spigot;
#X obj 595 616 spigot;
#X obj 786 617 spigot;
#X obj 85 468 inlet;
#X obj 404 641 s bela_digitalOut16 @hv_param;
#X obj 595 641 s bela_digitalOut23 @hv_param;
#X obj 788 642 s bela_digitalOut24 @hv_param;
#X text 275 45 Trig out 1: 11;
#X text 275 55 Trig out 2: 16;
#X text 275 65 Trig out 3: 23;
#X text 275 75 Trig out 4: 24;
#X obj 541 292 s bela_setDigital @hv_param;
#X obj 527 90 select 1 2 3 4;
#X obj 527 41 inlet trig;
#X obj 804 40 inlet enabled;
#X obj 540 209 route 1 0;
#X obj 540 184 pack 0 0;
#X obj 540 159 i;
#X obj 804 77 i;
#X msg 627 259 disable \$1;
#X obj 527 62 t b f;
#X msg 522 125 11;
#X msg 564 125 16;
#X msg 613 125 23;
#X msg 651 125 24;
#X msg 541 259 out \$1;
#X obj 521 393 swap;
#X obj 521 414 pack 0 0;
#X obj 521 435 route 1 2 3 4;
#X connect 1 0 0 0;
#X connect 2 0 6 0;
#X connect 3 0 7 0;
#X connect 4 0 8 0;
#X connect 5 0 2 0;
#X connect 5 0 4 0;
#X connect 5 0 3 0;
#X connect 5 0 1 0;
#X connect 14 0 23 0;
#X connect 14 1 24 0;
#X connect 14 2 25 0;
#X connect 14 3 26 0;
#X connect 15 0 22 0;
#X connect 16 0 20 0;
#X connect 17 0 27 0;
#X connect 17 1 21 0;
#X connect 18 0 17 0;
#X connect 18 0 28 0;
#X connect 19 0 18 1;
#X connect 20 0 18 0;
#X connect 21 0 13 0;
#X connect 22 0 20 0;
#X connect 22 1 14 0;
#X connect 23 0 19 0;
#X connect 24 0 19 0;
#X connect 25 0 19 0;
#X connect 26 0 19 0;
#X connect 27 0 13 0;
#X connect 28 0 29 0;
#X connect 28 1 29 1;
#X connect 29 0 30 0;
#X connect 30 0 1 1;
#X connect 30 1 2 1;
#X connect 30 2 3 1;
#X connect 30 3 4 1;
