#N canvas 88 473 1012 772 10;
#X text 275 45 Trig out 1: 11;
#X text 275 55 Trig out 2: 16;
#X text 275 65 Trig out 3: 23;
#X text 275 75 Trig out 4: 24;
#X obj 503 414 inlet~;
#X obj 613 504 *~ 0;
#X obj 503 503 *~ 0;
#X obj 445 503 *~ 0;
#X obj 565 504 *~ 0;
#X obj 471 563 dac~ 11 16 23 24;
#X text 195 502 Only enable the corresponding output;
#X obj 447 292 s bela_setDigital @hv_param;
#X obj 433 90 select 1 2 3 4;
#X obj 433 41 inlet trig;
#X obj 710 40 inlet enabled;
#X obj 446 209 route 1 0;
#X obj 446 184 pack 0 0;
#X obj 446 159 i;
#X obj 710 77 i;
#X msg 533 259 disable \$1;
#X obj 433 62 t b f;
#X msg 428 125 11;
#X msg 470 125 16;
#X msg 519 125 23;
#X msg 557 125 24;
#X msg 447 259 out \$1 ~;
#X obj 460 331 swap;
#X obj 460 389 route 1 2 3 4;
#X obj 460 352 pack;
#X connect 4 0 7 0;
#X connect 4 0 6 0;
#X connect 4 0 8 0;
#X connect 4 0 5 0;
#X connect 5 0 9 3;
#X connect 6 0 9 1;
#X connect 7 0 9 0;
#X connect 8 0 9 2;
#X connect 12 0 21 0;
#X connect 12 1 22 0;
#X connect 12 2 23 0;
#X connect 12 3 24 0;
#X connect 13 0 20 0;
#X connect 14 0 18 0;
#X connect 15 0 25 0;
#X connect 15 1 19 0;
#X connect 16 0 15 0;
#X connect 16 0 26 0;
#X connect 17 0 16 1;
#X connect 18 0 16 0;
#X connect 19 0 11 0;
#X connect 20 0 18 0;
#X connect 20 1 12 0;
#X connect 21 0 17 0;
#X connect 22 0 17 0;
#X connect 23 0 17 0;
#X connect 24 0 17 0;
#X connect 25 0 11 0;
#X connect 26 0 28 0;
#X connect 26 1 28 1;
#X connect 27 0 7 1;
#X connect 27 1 6 1;
#X connect 27 2 8 1;
#X connect 27 3 5 1;
#X connect 28 0 27 0;
