#N canvas 302 415 1440 684 10;
#X obj 304 186 r notesIn-\$1;
#X obj 299 542 s notesOut-\$1;
#X obj 23 9 r loaddefs-\$1;
#X msg 23 76 loaddefinitions \$1;
#X obj 181 9 r loadbang-\$1;
#X obj 181 76 print loading definiton for \$1;
#X obj 23 41 symbol;
#X obj 25 186 inlet~ inL-\$1;
#X obj 135 186 inlet~ inR-\$1;
#X obj 22 542 outlet~ outL-\$1;
#X obj 131 542 outlet~ outR-\$1;
#X obj 424 185 r auxIn-\$1;
#X obj 423 208 r expIn-\$1;
#X obj 423 233 r fsIn-\$1;
#X obj 614 341 *~, f 7;
#X obj 659 200 lop~ 8;
#X obj 660 234 *~, f 5;
#X obj 659 308 +~ 1;
#X obj 659 286 *~ 200;
#X msg 731 149 Distort Amt. \$1 %;
#X obj 731 121 int;
#X obj 613 374 clip~ -1 1, f 40;
#X obj 579 465 hip~ 5;
#X msg 748 298 \$1 20;
#X obj 888 311 line;
#X obj 748 320 line;
#X obj 731 171 s dclip-\$1-level-label;
#X msg 889 275 \$1 20;
#X obj 613 396 *~ 0.125;
#X obj 731 99 * 100;
#X obj 579 443 c_xfade, f 65;
#X obj 1150 235 lop~ 10;
#X text 614 33 C&G Simple Distort Module using clip~;
#X obj 1228 60 r dclip_dw-\$1;
#X obj 1228 89 / 100;
#X obj 181 35 print loaded:distortion into \$1, f 35;
#X obj 23 112 KontrolModule \$1 F-dclip;
#X obj 731 77 r dclip_level-\$1;
#X obj 680 152 / 100;
#X obj 919 52 r dclip_bott-\$1;
#X obj 1019 52 r dclip_top-\$1;
#X connect 0 0 1 0;
#X connect 2 0 6 0;
#X connect 2 0 5 0;
#X connect 3 0 36 0;
#X connect 4 0 35 0;
#X connect 6 0 3 0;
#X connect 7 0 30 0;
#X connect 7 0 14 0;
#X connect 14 0 21 0;
#X connect 15 0 16 0;
#X connect 15 0 16 1;
#X connect 16 0 18 0;
#X connect 17 0 14 1;
#X connect 18 0 17 0;
#X connect 19 0 26 0;
#X connect 20 0 19 0;
#X connect 21 0 28 0;
#X connect 22 0 9 0;
#X connect 22 0 10 0;
#X connect 23 0 25 0;
#X connect 24 0 21 2;
#X connect 25 0 21 1;
#X connect 27 0 24 0;
#X connect 28 0 30 1;
#X connect 29 0 20 0;
#X connect 30 0 22 0;
#X connect 31 0 30 2;
#X connect 33 0 34 0;
#X connect 34 0 31 0;
#X connect 37 0 29 0;
#X connect 37 0 38 0;
#X connect 38 0 15 0;
#X connect 39 0 23 0;
#X connect 40 0 27 0;
