#N canvas 851 547 1341 755 10;
#X obj 304 186 r notesIn-\$1;
#X obj 305 491 s notesOut-\$1;
#X obj 420 10 r loadbang-\$1;
#X obj 25 186 inlet~ inL-\$1;
#X obj 135 186 inlet~ inR-\$1;
#X obj 27 491 outlet~ outL-\$1;
#X obj 136 491 outlet~ outR-\$1;
#X obj 474 185 r auxIn-\$1;
#X obj 573 185 r expIn-\$1;
#X obj 573 210 r fsIn-\$1;
#N canvas 926 130 1151 908 sequencer 0;
#X text 35 210 then play them!;
#N canvas 1011 50 533 527 countnotes 0;
#X obj 103 259 > 0;
#X obj 103 286 sel 1;
#X obj 103 352 + 1, f 4;
#X obj 103 312 f 0, f 28;
#X obj 36 120 until;
#X obj 36 144 f, f 7;
#X obj 98 144 + 1, f 4;
#X msg 296 198 0, f 2;
#X msg 36 95 8, f 2;
#X obj 85 395 f 0;
#X obj 85 418 outlet;
#X obj 36 180 t f f, f 10;
#X obj 36 224 sel 7;
#X obj 36 71 t b b, f 12;
#X obj 36 45 r \$0-countem;
#X obj 103 234 tabread \$0-notes-from-poly;
#X connect 0 0 1 0;
#X connect 1 0 3 0;
#X connect 2 0 3 1;
#X connect 2 0 9 1;
#X connect 3 0 2 0;
#X connect 4 0 5 0;
#X connect 5 0 6 0;
#X connect 5 0 11 0;
#X connect 6 0 5 1;
#X connect 7 0 5 1;
#X connect 7 0 3 1;
#X connect 7 0 9 1;
#X connect 8 0 4 0;
#X connect 9 0 10 0;
#X connect 11 0 12 0;
#X connect 11 1 15 0;
#X connect 12 0 9 0;
#X connect 13 0 8 0;
#X connect 13 1 7 0;
#X connect 14 0 13 0;
#X connect 15 0 0 0;
#X restore 37 153 pd countnotes;
#N canvas 23 50 846 663 note-arrays 0;
#N canvas 136 50 826 891 array-sort 0;
#X obj 243 291 until;
#X obj 243 333 f;
#X obj 276 334 + 1, f 4;
#X msg 304 269 0, f 2;
#X obj 292 447 f;
#X obj 243 412 t f b;
#X obj 243 362 t f f;
#X obj 257 632 f;
#X obj 450 559 sel 1;
#X obj 194 665 f;
#X obj 193 779 f;
#X obj 193 733 t b b, f 8;
#X obj 404 766 t b f, f 18;
#X obj 246 779 f;
#X obj 232 106 until;
#X obj 232 143 f;
#X obj 264 142 + 1;
#X msg 278 106 0, f 2;
#X obj 232 57 t b b, f 7;
#X obj 232 178 t b f, f 24;
#X obj 232 228 t b b b b, f 16;
#X msg 404 791 0, f 2;
#X msg 341 269 0;
#X obj 243 513 expr if ($f1 > $f2 \, $f1 \, $f2) \; if ($f1 > $f2 \,
1 \, 0);
#X msg 232 81 8, f 2;
#X msg 243 263 8, f 2;
#X text 399 317 sort array a into b. a gets clobbered in the process
probably a much better way to do this ...;
#X obj 243 390 tabread \$0-notes-squashed;
#X obj 404 827 tabwrite \$0-notes-squashed;
#X obj 193 827 tabwrite \$0-notes-decreasing;
#X obj 232 25 r \$0-reorder;
#X connect 0 0 1 0;
#X connect 1 0 2 0;
#X connect 1 0 6 0;
#X connect 2 0 1 1;
#X connect 3 0 1 1;
#X connect 4 0 23 1;
#X connect 5 0 23 0;
#X connect 5 1 4 0;
#X connect 6 0 27 0;
#X connect 6 1 7 1;
#X connect 7 0 9 1;
#X connect 8 0 7 0;
#X connect 9 0 11 0;
#X connect 9 0 12 0;
#X connect 10 0 29 0;
#X connect 11 0 10 0;
#X connect 11 1 13 0;
#X connect 12 0 21 0;
#X connect 12 1 28 1;
#X connect 13 0 29 1;
#X connect 14 0 15 0;
#X connect 15 0 16 0;
#X connect 15 0 19 0;
#X connect 16 0 15 1;
#X connect 17 0 15 1;
#X connect 18 0 24 0;
#X connect 18 1 17 0;
#X connect 19 0 20 0;
#X connect 19 1 13 1;
#X connect 20 0 9 0;
#X connect 20 1 25 0;
#X connect 20 2 3 0;
#X connect 20 3 22 0;
#X connect 21 0 28 0;
#X connect 22 0 4 1;
#X connect 23 0 4 1;
#X connect 23 0 10 1;
#X connect 23 1 8 0;
#X connect 24 0 14 0;
#X connect 25 0 0 0;
#X connect 27 0 5 0;
#X connect 30 0 18 0;
#X restore 60 460 pd array-sort;
#X text 382 306 array1 is raw data from poly (notes with 0 velocity
are given 0 pitch);
#N canvas 168 50 726 731 increasing 0;
#X obj 156 260 until;
#X obj 157 304 f;
#X obj 189 303 + 1, f 4;
#X msg 214 240 0, f 2;
#X obj 155 236 f 0;
#X obj 156 357 - 0;
#X obj 157 408 abs;
#X obj 157 326 t f f;
#X obj 266 471 f;
#X obj 156 469 t f b;
#X obj 156 379 + 1;
#X obj 416 331 until;
#X obj 416 373 f;
#X obj 449 374 + 1, f 4;
#X msg 474 311 0, f 2;
#X obj 416 276 t b b;
#X obj 424 398 t b f;
#X msg 415 423 0, f 2;
#X msg 416 303 8, f 2;
#X obj 155 197 t b b b;
#X obj 153 67 inlet;
#X obj 320 197 r \$0-num-down;
#X obj 413 448 tabwrite \$0-notes-increasing;
#X obj 152 508 tabwrite \$0-notes-increasing;
#X obj 156 437 tabread \$0-notes-decreasing;
#X connect 0 0 1 0;
#X connect 1 0 2 0;
#X connect 1 0 7 0;
#X connect 2 0 1 1;
#X connect 3 0 1 1;
#X connect 4 0 0 0;
#X connect 5 0 10 0;
#X connect 6 0 24 0;
#X connect 7 0 5 0;
#X connect 7 1 8 1;
#X connect 8 0 23 1;
#X connect 9 0 23 0;
#X connect 9 1 8 0;
#X connect 10 0 6 0;
#X connect 11 0 12 0;
#X connect 12 0 13 0;
#X connect 12 0 16 0;
#X connect 13 0 12 1;
#X connect 14 0 12 1;
#X connect 15 0 18 0;
#X connect 15 1 14 0;
#X connect 16 0 17 0;
#X connect 16 1 22 1;
#X connect 17 0 22 0;
#X connect 18 0 11 0;
#X connect 19 0 4 0;
#X connect 19 1 3 0;
#X connect 19 2 15 0;
#X connect 20 0 19 0;
#X connect 21 0 4 1;
#X connect 21 0 5 1;
#X connect 24 0 9 0;
#X restore 62 530 pd increasing;
#N canvas 10 50 1000 647 array-copy 0;
#X obj 228 194 until;
#X obj 228 236 f;
#X obj 261 237 + 1, f 4;
#X msg 286 174 0, f 2;
#X obj 436 272 until;
#X obj 436 314 f;
#X obj 469 315 + 1, f 4;
#X msg 494 252 0, f 2;
#X obj 436 217 t b b;
#X obj 444 339 t b f;
#X msg 435 364 0, f 2;
#X obj 227 121 t b b b;
#X msg 228 166 8, f 2;
#X msg 436 244 8, f 2;
#X text 324 98 this removes 0 elements (or actually just moves the
following elements over 1 place);
#X text 538 296 first zero out the destination array;
#X obj 228 258 t f f;
#X obj 229 297 tabread \$0-notes-from-poly;
#X obj 438 385 tabwrite \$0-notes-squashed;
#X obj 229 400 tabwrite \$0-notes-squashed;
#X obj 227 97 b;
#X obj 228 75 r \$0-copy;
#X connect 0 0 1 0;
#X connect 1 0 2 0;
#X connect 1 0 16 0;
#X connect 2 0 1 1;
#X connect 3 0 1 1;
#X connect 4 0 5 0;
#X connect 5 0 6 0;
#X connect 5 0 9 0;
#X connect 6 0 5 1;
#X connect 7 0 5 1;
#X connect 8 0 13 0;
#X connect 8 1 7 0;
#X connect 9 0 10 0;
#X connect 9 1 18 1;
#X connect 10 0 18 0;
#X connect 11 0 12 0;
#X connect 11 1 3 0;
#X connect 11 2 8 0;
#X connect 12 0 0 0;
#X connect 13 0 4 0;
#X connect 16 0 17 0;
#X connect 16 1 19 1;
#X connect 17 0 19 0;
#X connect 20 0 11 0;
#X connect 21 0 20 0;
#X restore 57 391 pd array-copy;
#X text 393 528 then increasing;
#X obj 37 115 unpack;
#N canvas 12 50 740 589 format_for_array 0;
#X obj 111 44 inlet;
#X obj 102 128 f;
#X obj 144 151 sel 0;
#X msg 121 188 0;
#X obj 167 181 t b b;
#X obj 137 126 f;
#X obj 79 268 t f b;
#X obj 75 336 pack 0 0;
#X obj 85 75 unpack 0 0 0;
#X obj 41 132 t b f;
#X obj 117 304 f;
#X obj 78 389 outlet;
#X obj 133 274 - 1;
#X text 169 280 array index starts at 0 \, poly index starts at 1;
#X text 223 150 if the velocity is > 0 \, outputs note number. If =
0 \, it outputs 0 for note number;
#X connect 0 0 8 0;
#X connect 1 0 6 0;
#X connect 2 0 3 0;
#X connect 2 1 4 0;
#X connect 3 0 6 0;
#X connect 4 0 1 0;
#X connect 5 0 2 0;
#X connect 6 0 7 0;
#X connect 6 1 10 0;
#X connect 7 0 11 0;
#X connect 8 0 9 0;
#X connect 8 1 1 1;
#X connect 8 2 5 1;
#X connect 9 0 5 0;
#X connect 9 1 12 0;
#X connect 10 0 7 1;
#X connect 12 0 10 1;
#X restore 37 87 pd format_for_array;
#X obj 37 168 t b b b b f, f 70;
#X obj 62 503 r \$0-others;
#X obj 42 214 s \$0-others;
#X obj 175 216 s \$0-reorder;
#X obj 298 216 s \$0-copy;
#X obj 401 213 s \$0-countem;
#X obj 37 58 inlet;
#X obj 520 215 tabwrite \$0-notes-from-poly;
#X obj 190 316 table \$0-notes-from-poly 8;
#X obj 190 390 table \$0-notes-squashed 8;
#X text 374 391 array squash pulls out 0 notes.;
#X obj 190 460 table \$0-notes-decreasing 8;
#X text 391 462 here the notes are sorted...;
#X obj 190 528 table \$0-notes-increasing 8;
#X connect 5 0 7 0;
#X connect 5 1 14 1;
#X connect 6 0 5 0;
#X connect 7 0 9 0;
#X connect 7 1 10 0;
#X connect 7 2 11 0;
#X connect 7 3 12 0;
#X connect 7 4 14 0;
#X connect 8 0 2 0;
#X connect 13 0 6 0;
#X restore 436 538 pd note-arrays;
#N canvas 1104 265 1100 963 arp 0;
#X obj 244 886 outlet;
#X obj 166 546 random;
#X obj 166 449 spigot 0;
#X obj 219 400 t f f;
#X obj 244 681 + 12;
#X obj 166 495 t b b;
#X obj 269 654 * 12;
#X obj 269 628 random 2;
#X obj 289 168 snapshot~;
#X obj 307 144 metro 10;
#X msg 175 37 1;
#X obj 290 119 osc~ 0.03;
#X obj 289 195 * 0.5;
#X obj 289 230 + 0.5;
#X obj 289 258 * 1000;
#X obj 479 576 random;
#X obj 479 493 spigot 0;
#X obj 532 444 t f f;
#X obj 479 728 + 12;
#X obj 479 539 t b b, f 9;
#X obj 539 677 * 12;
#X obj 539 651 random 2;
#X obj 539 243 snapshot~;
#X obj 560 212 metro 10;
#X obj 539 279 * 0.5;
#X obj 539 305 + 0.5;
#X obj 540 184 osc~ 0.031;
#X obj 244 719 - 24;
#X obj 539 332 * 500;
#X obj 289 281 + 120;
#X obj 539 355 + 100;
#X obj 219 371 r \$0-num-down;
#X obj 532 416 r \$0-num-down;
#X obj 479 614 tabread \$0-notes-increasing;
#X obj 166 580 tabread \$0-notes-increasing;
#X obj 732 13 r master-bpm;
#X obj 732 42 expr 1000/($f1/60);
#X obj 732 96 / 4;
#X obj 802 101 / 8;
#X obj 784 136 +;
#X obj 732 64 t f f;
#X obj 479 379 metro 100;
#X obj 166 326 metro 100, f 18;
#X obj 732 118 i;
#X obj 784 158 i;
#X obj 244 836 makenote 100 500, f 19;
#X obj 581 781 i;
#X obj 479 830 makenote 80 500;
#X obj 32 14 r genny-\$1-enable;
#X msg 32 36 1;
#X obj 166 90 tgl 15 0 empty empty empty 17 7 0 10 -262144 -1 -1 1
1;
#X obj 30 59 r genny-\$1-disable;
#X msg 30 81 0;
#X obj 580 118 / 100;
#X obj 353 51 / 100;
#X obj 175 14 r loadbang-\$1;
#X obj 353 23 r genny_rate1-\$1;
#X obj 580 96 r genny_rate2-\$1;
#X obj 581 711 r genny_length-\$1;
#X obj 244 858 pack 0 0 0, f 19;
#X obj 479 852 pack 0 0 0, f 15;
#X connect 1 0 34 0;
#X connect 2 0 5 0;
#X connect 3 0 2 1;
#X connect 3 1 1 1;
#X connect 4 0 27 0;
#X connect 5 0 1 0;
#X connect 5 1 7 0;
#X connect 6 0 4 1;
#X connect 7 0 6 0;
#X connect 8 0 12 0;
#X connect 9 0 8 0;
#X connect 10 0 50 0;
#X connect 11 0 8 0;
#X connect 12 0 13 0;
#X connect 13 0 14 0;
#X connect 14 0 29 0;
#X connect 15 0 33 0;
#X connect 16 0 19 0;
#X connect 17 0 16 1;
#X connect 17 1 15 1;
#X connect 18 0 47 0;
#X connect 19 0 15 0;
#X connect 19 1 21 0;
#X connect 20 0 18 1;
#X connect 21 0 20 0;
#X connect 22 0 24 0;
#X connect 23 0 22 0;
#X connect 24 0 25 0;
#X connect 25 0 28 0;
#X connect 26 0 22 0;
#X connect 27 0 45 0;
#X connect 28 0 30 0;
#X connect 29 0 42 1;
#X connect 30 0 41 1;
#X connect 31 0 3 0;
#X connect 32 0 17 0;
#X connect 33 0 18 0;
#X connect 34 0 4 0;
#X connect 35 0 36 0;
#X connect 36 0 40 0;
#X connect 37 0 39 0;
#X connect 37 0 43 0;
#X connect 38 0 39 1;
#X connect 39 0 44 0;
#X connect 40 0 37 0;
#X connect 40 1 38 0;
#X connect 41 0 16 0;
#X connect 42 0 2 0;
#X connect 43 0 29 1;
#X connect 44 0 30 1;
#X connect 45 0 59 0;
#X connect 45 1 59 1;
#X connect 46 0 45 2;
#X connect 46 0 47 2;
#X connect 47 0 60 0;
#X connect 47 1 60 1;
#X connect 48 0 49 0;
#X connect 49 0 50 0;
#X connect 50 0 9 0;
#X connect 50 0 42 0;
#X connect 50 0 23 0;
#X connect 50 0 41 0;
#X connect 51 0 52 0;
#X connect 52 0 50 0;
#X connect 53 0 26 0;
#X connect 54 0 11 0;
#X connect 55 0 10 0;
#X connect 56 0 54 0;
#X connect 57 0 53 0;
#X connect 58 0 46 0;
#X connect 59 0 0 0;
#X connect 60 0 0 0;
#X restore 39 234 pd arp;
#X obj 37 175 s \$0-num-down;
#X obj 39 276 s genny-\$1-notes-out;
#X text 112 26 notes are put into an array and then sorted in increasing
/ decreasing order. the 'arp' subpatch then cycles randomly through
them. THIS IS THE MODULE VERSION.;
#X obj 436 194 spigot;
#X msg 475 139 0;
#X msg 511 163 1;
#X obj 354 227 bag;
#X msg 354 177 flush;
#X obj 354 249 pack 0 0;
#X obj 436 94 r genny-\$1-notes-in;
#X obj 475 117 r genny-\$1-disable;
#X obj 511 141 r genny-\$1-enable;
#X obj 436 450 unpack 0 0;
#X obj 436 510 pack 0 0 0;
#X obj 436 475 poly 8 1, f 10;
#X obj 489 377 sel 1;
#N canvas 1331 208 886 799 latch 0;
#X obj 43 421 latch-notes;
#X obj 263 252 tgl 15 0 empty empty empty 17 7 0 10 -262144 -1 -1 0
1;
#X obj 123 368 spigot 1;
#X obj 43 368 spigot 0;
#X obj 263 278 == 0;
#X obj 263 368 sel 0 1;
#X obj 263 134 inlet;
#X obj 43 626 outlet;
#X obj 43 106 inlet;
#X text 311 135 bang enable / disables latch;
#X text 44 53 incoming notes get sent through latch if enabled \, or
directly to output if disabled;
#X text 323 367 Update Screen & LED;
#X msg 286 458 Aux: Latch OFF \;;
#X msg 263 579 Aux: Latch ON \;;
#X obj 309 316 b;
#X obj 263 160 t b b, f 7;
#X obj 346 175 inlet;
#X text 392 173 kill;
#X obj 346 202 t f b;
#X obj 448 672 s genny-\$1-aux-label;
#X msg 298 408 0;
#X msg 289 534 2;
#X obj 425 596 s genny-\$1-led;
#X connect 0 0 7 0;
#X connect 1 0 4 0;
#X connect 1 0 3 1;
#X connect 2 0 7 0;
#X connect 3 0 0 0;
#X connect 4 0 2 1;
#X connect 4 0 5 0;
#X connect 5 0 13 0;
#X connect 5 0 21 0;
#X connect 5 1 12 0;
#X connect 5 1 20 0;
#X connect 6 0 15 0;
#X connect 8 0 3 0;
#X connect 8 0 2 0;
#X connect 12 0 19 0;
#X connect 13 0 19 0;
#X connect 14 0 0 1;
#X connect 15 0 1 0;
#X connect 15 1 14 0;
#X connect 16 0 18 0;
#X connect 18 0 1 0;
#X connect 18 1 14 0;
#X connect 20 0 22 0;
#X connect 21 0 22 0;
#X restore 436 416 pd latch;
#X obj 489 236 r genny-\$1-aux-in;
#X obj 489 341 spigot;
#X msg 528 286 0;
#X msg 564 310 1;
#X msg 600 310 0;
#X obj 528 264 r genny-\$1-disable;
#X obj 564 288 r genny-\$1-enable;
#X connect 1 0 4 0;
#X connect 3 0 5 0;
#X connect 7 0 10 0;
#X connect 7 0 20 0;
#X connect 8 0 7 1;
#X connect 8 0 20 2;
#X connect 9 0 7 1;
#X connect 10 0 12 0;
#X connect 11 0 10 0;
#X connect 12 0 16 0;
#X connect 13 0 7 0;
#X connect 14 0 8 0;
#X connect 14 0 11 0;
#X connect 15 0 9 0;
#X connect 16 0 18 0;
#X connect 16 1 18 1;
#X connect 17 0 2 0;
#X connect 18 0 17 0;
#X connect 18 1 17 1;
#X connect 18 2 17 2;
#X connect 19 0 20 1;
#X connect 20 0 16 0;
#X connect 21 0 22 0;
#X connect 22 0 19 0;
#X connect 23 0 22 1;
#X connect 24 0 22 1;
#X connect 25 0 20 2;
#X connect 26 0 23 0;
#X connect 27 0 24 0;
#X connect 27 0 25 0;
#X restore 306 326 pd sequencer;
#X obj 421 46 s genny-\$1-enable;
#X obj 304 269 s genny-\$1-notes-in;
#X obj 305 423 r genny-\$1-notes-out;
#X obj 474 268 s genny-\$1-aux-in;
#X obj 643 393 r genny-\$1-aux-label;
#X obj 799 395 r genny-\$1-led;
#X obj 643 414 s aux-label-\$1;
#X obj 799 415 s aux-led-\$1;
#X obj 691 185 r ctrlIn-\$1;
#X obj 691 211 s ctrlOut-\$1;
#X connect 0 0 12 0;
#X connect 2 0 11 0;
#X connect 7 0 14 0;
#X connect 13 0 1 0;
#X connect 15 0 17 0;
#X connect 16 0 18 0;
