#N canvas 8 38 1515 1172 10;
#X obj 304 186 r notesIn-\$1;
#X obj 304 491 s notesOut-\$1;
#X obj 25 186 inlet~ inL-\$1;
#X obj 135 186 inlet~ inR-\$1;
#X obj 27 1001 outlet~ outL-\$1;
#X obj 136 1001 outlet~ outR-\$1;
#X obj 424 185 r auxIn-\$1;
#X obj 423 208 r expIn-\$1;
#X obj 423 233 r fsIn-\$1;
#X obj 503 757 bob~, f 21;
#X obj 646 710 line~;
#X obj 646 685 pack 0 50;
#X obj 646 660 * 3.8;
#X obj 563 231 pack 0 50;
#X obj 563 258 line~;
#X obj 651 334 osc~;
#X obj 650 392 *~, f 10;
#X obj 651 310 line~;
#X obj 651 286 pack 0 50;
#X obj 563 429 +~, f 13;
#X obj 735 290 line~;
#X obj 735 266 pack 0 50;
#X obj 716 360 *~;
#X obj 503 779 hip~ 5;
#X obj 563 147 r moog_cut-\$1;
#X obj 651 147 r moog_rate-\$1;
#X obj 752 147 r moog_depth-\$1;
#X obj 646 507 r moog_res-\$1;
#X obj 735 242 / 100;
#X text 495 30 C&G Moog Resonant Filter effect module \, with LFO oscillation
;
#X obj 646 635 / 100;
#X connect 2 0 9 0;
#X connect 9 0 23 0;
#X connect 10 0 9 2;
#X connect 11 0 10 0;
#X connect 12 0 11 0;
#X connect 13 0 14 0;
#X connect 14 0 19 0;
#X connect 14 0 22 0;
#X connect 15 0 16 0;
#X connect 16 0 19 1;
#X connect 17 0 15 0;
#X connect 18 0 17 0;
#X connect 19 0 9 1;
#X connect 20 0 22 1;
#X connect 21 0 20 0;
#X connect 22 0 16 1;
#X connect 23 0 4 0;
#X connect 23 0 5 0;
#X connect 24 0 13 0;
#X connect 25 0 18 0;
#X connect 26 0 28 0;
#X connect 27 0 30 0;
#X connect 28 0 21 0;
#X connect 30 0 12 0;
