#N canvas 13 39 1397 1161 10;
#X obj 304 186 r notesIn-\$1;
#X obj 304 491 s notesOut-\$1;
#X obj 23 9 r loaddefs-\$1;
#X msg 23 76 loaddefinitions \$1;
#X obj 181 9 r loadbang-\$1;
#X obj 181 76 print loading definiton for \$1;
#X obj 23 41 symbol;
#X obj 25 186 inlet~ inL-\$1;
#X obj 135 186 inlet~ inR-\$1;
#X obj 27 865 outlet~ outL-\$1;
#X obj 136 865 outlet~ outR-\$1;
#X obj 424 185 r auxIn-\$1;
#X obj 423 208 r expIn-\$1;
#X obj 423 233 r fsIn-\$1;
#X obj 658 286 +~ 1;
#X obj 658 313 *~ 0.5;
#X obj 966 558 delwrite~ \$0-delay1 5000;
#X obj 658 609 vd~ \$0-delay1, f 16;
#N canvas 10 50 450 300 rep 0;
#X obj 119 16 inlet~;
#X obj 164 96 tgl 15 0 empty empty empty 17 7 0 10 -262144 -1 -1 0
1;
#X obj 119 149 tabwrite~ \$0-LFO1;
#X obj 164 119 metro 100;
#X obj 236 15 block~ 4096 1 0.125;
#X obj 164 70 f 0;
#X obj 164 45 r loadbang-\$1;
#X connect 0 0 2 0;
#X connect 1 0 3 0;
#X connect 3 0 2 0;
#X connect 5 0 1 0;
#X connect 6 0 5 0;
#X restore 672 340 pd rep;
#N canvas 0 50 450 300 (subpatch) 0;
#X array \$0-LFO1 4096 float 0;
#X coords 0 1 4095 0 150 98 2 0 0;
#X restore 889 723 graph;
#X text 602 233 Low Frequency Oscillator;
#X text 794 609 x[n-t];
#X text 949 698 t (ms);
#X text 874 51 Depth (ms);
#X text 553 679 x[n];
#X obj 966 501 *~ 1;
#X text 671 707 y[n] = x[n] + ax[n-t];
#X text 1145 46 Feedback (0-1);
#X obj 658 259 osc~ 1;
#X text 724 679 ax[n-t];
#X text 732 31 Rate (Hz);
#X obj 549 706 +~, f 16;
#X obj 658 372 *~ 1, f 9;
#X obj 658 428 +~, f 11;
#X obj 1005 135 sig~;
#X obj 1005 180 lop~ 10;
#X obj 733 406 +~ 1;
#X text 723 342 turn on to see LFO;
#X text 908 33 Rate;
#X text 963 33 Depth;
#X text 1025 34 Shift;
#X obj 1230 178 * 0.89;
#X text 515 27 C&G Flange effect module;
#X obj 660 78 r flan_rate-\$1;
#X obj 843 78 r flan_depth-\$1;
#X obj 1005 78 r flan_shift-\$1;
#X obj 1183 78 r flan_feedback-\$1;
#X obj 1230 135 / 100;
#X obj 843 135 / 100;
#X obj 181 35 print loaded:flanger into \$1, f 35;
#X obj 23 110 KontrolModule \$1 F-flanger;
#X connect 2 0 6 0;
#X connect 2 0 5 0;
#X connect 3 0 50 0;
#X connect 4 0 49 0;
#X connect 6 0 3 0;
#X connect 7 0 16 0;
#X connect 7 0 31 0;
#X connect 14 0 15 0;
#X connect 15 0 32 0;
#X connect 15 0 18 0;
#X connect 17 0 25 0;
#X connect 17 0 31 1;
#X connect 25 0 16 0;
#X connect 28 0 14 0;
#X connect 31 0 10 0;
#X connect 31 0 9 0;
#X connect 32 0 33 0;
#X connect 33 0 17 0;
#X connect 34 0 35 0;
#X connect 35 0 36 0;
#X connect 36 0 33 1;
#X connect 41 0 25 1;
#X connect 43 0 28 0;
#X connect 44 0 48 0;
#X connect 45 0 34 0;
#X connect 46 0 47 0;
#X connect 47 0 41 0;
#X connect 48 0 32 1;
