#N canvas 1315 449 1200 840 10;
#X obj 240 186 r notesIn-\$1;
#X obj 242 491 s notesOut-\$1;
#X obj 23 9 r loaddefs-\$1;
#X msg 23 58 loaddefinitions \$1;
#X obj 166 9 r loadbang-\$1;
#X obj 181 76 print loading definiton for \$1;
#X obj 23 34 symbol;
#X obj 25 186 inlet~ inL-\$1;
#X obj 135 186 inlet~ inR-\$1;
#X obj 27 491 outlet~ outL-\$1;
#X obj 136 491 outlet~ outR-\$1;
#X obj 181 35 print loaded:linear router into \$1, f 39;
#X obj 23 112 KontrolModule \$1 R-1x10-SALT;
#X text 44 577 this is a simple routing module \, we could have different
ones! in this router we route notes etc to the active module \, and
audio and notes from m1 to m5 note: if you add more modules \, then
this module needs updating...;
#X text 768 43 linear routing of audio and notes between modules;
#X obj 336 187 r auxIn-\$1;
#X obj 335 210 r expIn-\$1;
#X obj 335 235 r fsIn-\$1;
#X obj 336 272 actmodhandler \$1;
#X obj 526 598 bela_enableLeds;
#X obj 525 629 r led;
#X obj 525 662 bela_led 1;
#X obj 682 595 adc~ 3 4 5 6 7 8 9 10;
#X obj 682 645 dac~ 3 4 5 6 7 8 9 10;
#X obj 893 688 snapshot~;
#X obj 958 589 bela_trigIn 1;
#X obj 893 718 * 127;
#X obj 900 772 int;
#X obj 958 643 t b f;
#X obj 526 699 bela_trigIn 2;
#X obj 526 735 bela_led 2;
#X obj 991 688 * 100;
#X obj 969 736 pack f f;
#X obj 951 782 s notes;
#X obj 877 641 bela_led 1;
#X obj 662 12 r~ inL;
#X obj 753 12 r~ inR;
#X obj 661 500 throw~ outL;
#X obj 751 500 throw~ outR;
#X obj 659 57 chainin 1 \$1;
#X obj 661 321 connectmod m9 \$1;
#X obj 660 99 connectmod m0 \$1;
#X obj 661 124 connectmod m1 \$1;
#X obj 661 148 connectmod m2 \$1;
#X obj 661 172 connectmod m3 \$1;
#X obj 661 196 connectmod m4 \$1;
#X obj 661 220 connectmod m5 \$1;
#X obj 661 243 connectmod m6 \$1;
#X obj 661 267 connectmod m7 \$1;
#X obj 661 292 connectmod m8 \$1;
#X obj 666 398 chainout 1 \$1;
#X connect 2 0 6 0;
#X connect 2 0 5 0;
#X connect 3 0 12 0;
#X connect 4 0 11 0;
#X connect 6 0 3 0;
#X connect 20 0 21 0;
#X connect 22 0 23 0;
#X connect 22 0 24 0;
#X connect 22 1 23 1;
#X connect 22 2 23 2;
#X connect 22 3 23 3;
#X connect 22 4 23 4;
#X connect 22 5 23 5;
#X connect 22 6 23 6;
#X connect 22 7 23 7;
#X connect 24 0 26 0;
#X connect 25 0 28 0;
#X connect 25 0 34 0;
#X connect 26 0 27 0;
#X connect 27 0 32 0;
#X connect 28 0 24 0;
#X connect 28 1 31 0;
#X connect 29 0 30 0;
#X connect 31 0 32 1;
#X connect 32 0 33 0;
#X connect 35 0 39 0;
#X connect 36 0 39 1;
#X connect 39 0 41 0;
#X connect 39 1 41 1;
#X connect 39 2 41 2;
#X connect 40 0 50 0;
#X connect 40 1 50 1;
#X connect 40 2 50 2;
#X connect 41 0 42 0;
#X connect 41 1 42 1;
#X connect 41 2 42 2;
#X connect 42 0 43 0;
#X connect 42 1 43 1;
#X connect 42 2 43 2;
#X connect 43 0 44 0;
#X connect 43 1 44 1;
#X connect 43 2 44 2;
#X connect 44 0 45 0;
#X connect 44 1 45 1;
#X connect 44 2 45 2;
#X connect 45 0 46 0;
#X connect 45 1 46 1;
#X connect 45 2 46 2;
#X connect 46 0 47 0;
#X connect 46 1 47 1;
#X connect 46 2 47 2;
#X connect 47 0 48 0;
#X connect 47 1 48 1;
#X connect 47 2 48 2;
#X connect 48 0 49 0;
#X connect 48 1 49 1;
#X connect 48 2 49 2;
#X connect 49 0 40 0;
#X connect 49 1 40 1;
#X connect 49 2 40 2;
#X connect 50 0 37 0;
#X connect 50 1 38 0;
