#N canvas 521 219 891 543 10;
#X obj 76 75 loadbang;
#X obj 358 162 r knob1;
#X obj 358 196 vsl 15 128 0 1 0 0 empty empty empty 0 -9 0 10 -262144
-1 -1 0 1;
#X obj 421 196 vsl 15 128 0 1 0 0 empty empty empty 0 -9 0 10 -262144
-1 -1 0 1;
#X obj 482 196 vsl 15 128 0 1 0 0 empty empty empty 0 -9 0 10 -262144
-1 -1 0 1;
#X obj 544 196 vsl 15 128 0 1 0 0 empty empty empty 0 -9 0 10 -262144
-1 -1 0 1;
#X obj 421 162 r knob2;
#X obj 482 162 r knob3;
#X obj 544 162 r knob4;
#X obj 653 197 vsl 15 128 0 1 0 0 empty empty empty 0 -9 0 10 -262144
-1 -1 0 1;
#X obj 470 388 r notes;
#X obj 470 414 unpack;
#X floatatom 470 443 5 0 0 0 - - -;
#X floatatom 509 443 5 0 0 0 - - -;
#X obj 366 394 r aux;
#X obj 366 420 tgl 15 0 empty empty empty 17 7 0 10 -262144 -1 -1 0
1;
#X obj 654 340 r fs;
#X obj 654 368 tgl 15 0 empty empty empty 17 7 0 10 -262144 -1 -1 0
1;
#X obj 653 163 r exp;
#N canvas 140 54 922 604 audioIO 0;
#X obj 513 336 dac~;
#X obj 659 135 catch~ outR;
#X obj 480 135 catch~ outL;
#X obj 192 166 adc~, f 6;
#X obj 285 245 s~ inR;
#X obj 110 244 s~ inL;
#X obj 483 233 *~;
#X obj 572 235 *~;
#X obj 810 69 r vol;
#X obj 810 122 *;
#X obj 810 95 t f f;
#X obj 481 157 tb_peakcomp~ -3 8 10 100 0;
#X obj 810 150 sig~;
#X obj 482 179 clip~ -1 1;
#X obj 571 179 clip~ -1 1;
#X text 268 34 Receives and sends audio to patch. Outgoing audio is
run through a compressor to provide some headroom if things get too
loud. Also sends values to the Organelle's OLED VU meter.;
#X obj 742 360 vsl 15 128 0 1 0 0 empty empty empty 0 -9 0 10 -262144
-1 -1 0 1;
#X obj 742 326 r vol;
#X obj 810 175 lop~ 5;
#X connect 1 0 11 1;
#X connect 2 0 11 0;
#X connect 3 0 5 0;
#X connect 3 1 4 0;
#X connect 6 0 0 0;
#X connect 7 0 0 1;
#X connect 8 0 10 0;
#X connect 9 0 12 0;
#X connect 10 0 9 0;
#X connect 10 1 9 1;
#X connect 11 0 13 0;
#X connect 11 1 14 0;
#X connect 12 0 18 0;
#X connect 13 0 6 0;
#X connect 14 0 7 0;
#X connect 17 0 16 0;
#X connect 18 0 7 1;
#X connect 18 0 6 1;
#X restore 76 202 pd audioIO;
#N canvas 588 550 1265 661 messageIO 1;
#X obj 765 66 r notes;
#N canvas 15 54 633 581 LED 0;
#X obj 75 137 % 8;
#X obj 75 86 r led;
#X msg 125 134 0;
#X obj 125 84 r quitting;
#X obj 89 235 sel 0 1 2 3 4 5 6 7, f 37;
#X msg 87 266 0;
#X msg 123 266 4;
#X msg 160 266 5;
#X msg 197 265 1;
#X msg 232 265 3;
#X msg 270 265 2;
#X msg 306 267 6;
#X msg 343 267 7;
#X msg 74 339 displayText 15 5 64 [\$1];
#X obj 74 368 s nuiOut;
#X connect 0 0 4 0;
#X connect 1 0 0 0;
#X connect 2 0 4 0;
#X connect 3 0 2 0;
#X connect 4 0 5 0;
#X connect 4 1 6 0;
#X connect 4 2 7 0;
#X connect 4 3 8 0;
#X connect 4 4 9 0;
#X connect 4 5 10 0;
#X connect 4 6 11 0;
#X connect 4 7 12 0;
#X connect 5 0 13 0;
#X connect 6 0 13 0;
#X connect 7 0 13 0;
#X connect 8 0 13 0;
#X connect 9 0 13 0;
#X connect 10 0 13 0;
#X connect 11 0 13 0;
#X connect 12 0 13 0;
#X connect 13 0 14 0;
#X restore 381 363 pd LED;
#N canvas 181 268 1435 686 OLED 0;
#X obj 107 230 list append;
#X obj 107 255 list trim;
#X obj 137 78 list;
#X obj 137 37 r screenLine1;
#X obj 294 226 list append;
#X obj 294 251 list trim;
#X obj 324 74 list;
#X obj 502 255 list trim;
#X obj 532 78 list;
#X obj 502 230 list append;
#X obj 694 227 list append;
#X obj 694 252 list trim;
#X obj 724 75 list;
#X obj 911 227 list append;
#X obj 911 252 list trim;
#X obj 941 75 list;
#X obj 322 40 r screenLine2;
#X obj 530 44 r screenLine3;
#X obj 722 41 r screenLine4;
#X obj 939 41 r screenLine5;
#X obj 107 280 s nuiOut;
#X obj 294 276 s nuiOut;
#X obj 502 280 s nuiOut;
#X obj 694 277 s nuiOut;
#X obj 911 277 s nuiOut;
#X msg 32 195 displayText 15 0 0;
#X msg 219 190 displayText 15 1 0;
#X msg 427 195 displayText 15 2 0;
#X msg 619 193 displayText 15 3 0;
#X msg 836 192 displayText 15 4 0;
#X obj 137 110 t b l b;
#X msg 176 142 clearText 0 0;
#X obj 324 106 t b l b;
#X msg 362 139 clearText 0 1;
#X msg 552 143 clearText 0 2;
#X msg 727 141 clearText 0 3;
#X msg 929 145 clearText 0 4;
#X obj 941 107 t b l b;
#X obj 724 107 t b l b;
#X obj 532 110 t b l b;
#X connect 0 0 1 0;
#X connect 1 0 20 0;
#X connect 2 0 30 0;
#X connect 3 0 2 0;
#X connect 4 0 5 0;
#X connect 5 0 21 0;
#X connect 6 0 32 0;
#X connect 7 0 22 0;
#X connect 8 0 39 0;
#X connect 9 0 7 0;
#X connect 10 0 11 0;
#X connect 11 0 23 0;
#X connect 12 0 38 0;
#X connect 13 0 14 0;
#X connect 14 0 24 0;
#X connect 15 0 37 0;
#X connect 16 0 6 0;
#X connect 17 0 8 0;
#X connect 18 0 12 0;
#X connect 19 0 15 0;
#X connect 25 0 0 0;
#X connect 26 0 4 0;
#X connect 27 0 9 0;
#X connect 28 0 10 0;
#X connect 29 0 13 0;
#X connect 30 0 25 0;
#X connect 30 1 0 1;
#X connect 30 2 31 0;
#X connect 31 0 20 0;
#X connect 32 0 26 0;
#X connect 32 1 4 1;
#X connect 32 2 33 0;
#X connect 33 0 21 0;
#X connect 34 0 22 0;
#X connect 35 0 23 0;
#X connect 36 0 24 0;
#X connect 37 0 29 0;
#X connect 37 1 13 1;
#X connect 37 2 36 0;
#X connect 38 0 28 0;
#X connect 38 1 10 1;
#X connect 38 2 35 0;
#X connect 39 0 27 0;
#X connect 39 1 9 1;
#X connect 39 2 34 0;
#X restore 383 395 pd OLED;
#N canvas 1145 401 1252 622 analog 1;
#X obj 868 276 s vol;
#X obj 98 427 s knob1;
#X obj 24 236 s knob1Raw;
#X obj 98 375 change -1;
#X obj 868 210 change -1;
#X obj 257 234 s knob2Raw;
#X obj 338 427 s knob2;
#X obj 338 373 change -1;
#X obj 538 367 change -1;
#X obj 425 232 s knob3Raw;
#X obj 538 421 s knob3;
#X obj 707 381 change -1;
#X obj 599 230 s knob4Raw;
#X obj 707 435 s knob4;
#X obj 98 401 / 1023;
#X obj 338 401 / 1023;
#X obj 538 395 / 1023;
#X obj 707 409 / 1023;
#X obj 868 243 / 1023;
#X obj 101 349 override2 20 1;
#X text 277 182 knobs pass thru override2 if their value is coming
from somewhere else (knobs.txt preset file or MIDI CC);
#X obj 338 344 override2 20 2;
#X obj 538 338 override2 20 3;
#X obj 707 352 override2 20 4;
#X obj 187 -6 r nui_encoder;
#X obj 187 17 route 0 1 2 3;
#X obj 83 121 nbx 5 14 -1e+37 1e+37 0 0 empty empty empty 0 -8 0 10
-262144 -1 -1 0 256;
#N canvas 0 54 450 300 encscale 0;
#X obj 94 72 t b f;
#X obj 94 94 f 0;
#X obj 94 121 +;
#X obj 94 156 clip -64 64;
#X obj 94 179 + 64;
#X obj 94 202 * 8;
#X obj 94 225 - 0;
#X obj 95 32 inlet;
#X obj 94 248 outlet;
#X connect 0 0 1 0;
#X connect 0 1 2 1;
#X connect 1 0 2 0;
#X connect 2 0 3 0;
#X connect 3 0 4 0;
#X connect 3 0 1 1;
#X connect 4 0 5 0;
#X connect 5 0 6 0;
#X connect 6 0 8 0;
#X connect 7 0 0 0;
#X restore 83 94 pd encscale;
#X obj 171 121 nbx 5 14 -1e+37 1e+37 0 0 empty empty empty 0 -8 0 10
-262144 -1 -1 0 256;
#N canvas 0 54 450 300 encscale 0;
#X obj 94 72 t b f;
#X obj 94 94 f 0;
#X obj 94 121 +;
#X obj 94 156 clip -64 64;
#X obj 94 179 + 64;
#X obj 94 202 * 8;
#X obj 94 225 - 0;
#X obj 95 32 inlet;
#X obj 94 248 outlet;
#X connect 0 0 1 0;
#X connect 0 1 2 1;
#X connect 1 0 2 0;
#X connect 2 0 3 0;
#X connect 3 0 4 0;
#X connect 3 0 1 1;
#X connect 4 0 5 0;
#X connect 5 0 6 0;
#X connect 6 0 8 0;
#X connect 7 0 0 0;
#X restore 171 94 pd encscale;
#X obj 265 120 nbx 5 14 -1e+37 1e+37 0 0 empty empty empty 0 -8 0 10
-262144 -1 -1 0 256;
#N canvas 0 54 450 300 encscale 0;
#X obj 94 72 t b f;
#X obj 94 94 f 0;
#X obj 94 121 +;
#X obj 94 156 clip -64 64;
#X obj 94 179 + 64;
#X obj 94 202 * 8;
#X obj 94 225 - 0;
#X obj 95 32 inlet;
#X obj 94 248 outlet;
#X connect 0 0 1 0;
#X connect 0 1 2 1;
#X connect 1 0 2 0;
#X connect 2 0 3 0;
#X connect 3 0 4 0;
#X connect 3 0 1 1;
#X connect 4 0 5 0;
#X connect 5 0 6 0;
#X connect 6 0 8 0;
#X connect 7 0 0 0;
#X restore 265 93 pd encscale;
#X obj 359 115 nbx 5 14 -1e+37 1e+37 0 0 empty empty empty 0 -8 0 10
-262144 -1 -1 0 256;
#N canvas 0 54 450 300 encscale 0;
#X obj 94 72 t b f;
#X obj 94 94 f 0;
#X obj 94 121 +;
#X obj 94 156 clip -64 64;
#X obj 94 179 + 64;
#X obj 94 202 * 8;
#X obj 94 225 - 0;
#X obj 95 32 inlet;
#X obj 94 248 outlet;
#X connect 0 0 1 0;
#X connect 0 1 2 1;
#X connect 1 0 2 0;
#X connect 2 0 3 0;
#X connect 3 0 4 0;
#X connect 3 0 1 1;
#X connect 4 0 5 0;
#X connect 5 0 6 0;
#X connect 6 0 8 0;
#X connect 7 0 0 0;
#X restore 359 88 pd encscale;
#X obj 862 148 nbx 5 14 -1e+37 1e+37 0 0 empty empty empty 0 -8 0 10
-262144 -1 -1 0 256;
#N canvas 0 54 450 300 encscale 0;
#X obj 94 72 t b f;
#X obj 94 94 f 0;
#X obj 94 121 +;
#X obj 94 156 clip -64 64;
#X obj 94 179 + 64;
#X obj 94 202 * 8;
#X obj 94 225 - 0;
#X obj 95 32 inlet;
#X obj 94 248 outlet;
#X connect 0 0 1 0;
#X connect 0 1 2 1;
#X connect 1 0 2 0;
#X connect 2 0 3 0;
#X connect 3 0 4 0;
#X connect 3 0 1 1;
#X connect 4 0 5 0;
#X connect 5 0 6 0;
#X connect 6 0 8 0;
#X connect 7 0 0 0;
#X restore 863 121 pd encscale;
#X obj 861 56 spigot;
#X obj 940 21 tgl 15 0 empty empty empty 17 7 0 10 -262144 -1 -1 0
1;
#X obj 954 -9 r funcBut;
#X obj 940 41 == 0;
#X obj 362 64 spigot 1;
#X obj 509 15 loadbang;
#X obj 509 38 delay 1;
#X msg 509 61 512;
#X connect 3 0 14 0;
#X connect 4 0 18 0;
#X connect 7 0 15 0;
#X connect 8 0 16 0;
#X connect 11 0 17 0;
#X connect 14 0 1 0;
#X connect 15 0 6 0;
#X connect 16 0 10 0;
#X connect 17 0 13 0;
#X connect 18 0 0 0;
#X connect 19 0 3 0;
#X connect 21 0 7 0;
#X connect 22 0 8 0;
#X connect 23 0 11 0;
#X connect 24 0 25 0;
#X connect 25 0 27 0;
#X connect 25 1 29 0;
#X connect 25 2 31 0;
#X connect 25 3 36 0;
#X connect 25 3 40 0;
#X connect 26 0 2 0;
#X connect 26 0 19 0;
#X connect 27 0 26 0;
#X connect 28 0 5 0;
#X connect 28 0 21 0;
#X connect 29 0 28 0;
#X connect 30 0 9 0;
#X connect 30 0 22 0;
#X connect 31 0 30 0;
#X connect 32 0 12 0;
#X connect 32 0 23 0;
#X connect 33 0 32 0;
#X connect 34 0 4 0;
#X connect 35 0 34 0;
#X connect 36 0 35 0;
#X connect 37 0 36 1;
#X connect 37 0 39 0;
#X connect 38 0 37 0;
#X connect 39 0 40 1;
#X connect 40 0 33 0;
#X connect 41 0 42 0;
#X connect 42 0 43 0;
#X connect 43 0 32 0;
#X connect 43 0 30 0;
#X connect 43 0 28 0;
#X connect 43 0 26 0;
#X connect 43 0 34 0;
#X restore 383 432 pd analog;
#X text 355 333 stuff going out (from patch)...;
#X text 293 8 Receives and sends signals to the Organelle hardware.
A program running in the background interacts with the hardware and
exchanges messages with this patch using OSC over UDP.;
#X obj 8 236 NuiPd;
#X obj 8 56 tgl 15 0 empty empty empty 17 7 0 10 -262144 -1 -1 1 1
;
#X msg 8 168 process 1;
#X obj 8 7 loadbang;
#X obj 8 32 delay 1;
#X obj 8 80 metro 1 10 msec;
#X obj 47 205 r nuiOut;
#X obj 900 35 r nui_button;
#X obj 900 58 route 0 1 2;
#X obj 900 200 tgl 15 0 empty empty empty 17 7 0 10 -262144 -1 -1 0
1;
#X obj 921 200 tgl 15 0 empty empty empty 17 7 0 10 -262144 -1 -1 0
1;
#X obj 942 200 tgl 15 0 empty empty empty 17 7 0 10 -262144 -1 -1 0
1;
#X obj 906 117 s aux;
#X obj 928 141 s fs;
#X obj 950 169 s funcBut;
#X connect 7 0 11 0;
#X connect 8 0 6 0;
#X connect 9 0 10 0;
#X connect 10 0 7 0;
#X connect 11 0 8 0;
#X connect 12 0 6 0;
#X connect 13 0 14 0;
#X connect 14 0 15 0;
#X connect 14 0 18 0;
#X connect 14 1 16 0;
#X connect 14 1 19 0;
#X connect 14 2 17 0;
#X connect 14 2 20 0;
#X restore 76 229 pd messageIO;
#N canvas 273 157 1779 821 MIDI 0;
#X obj 51 227 spigot 1;
#X obj 139 183 r midiInGate;
#X obj 51 257 t f b;
#X obj 51 295 / 127;
#X obj 51 317 s knob1;
#X obj 103 290 s knob1Override;
#X obj 51 188 change;
#X obj 250 223 spigot 1;
#X obj 338 179 r midiInGate;
#X obj 250 253 t f b;
#X obj 250 291 / 127;
#X obj 250 184 change;
#X obj 444 219 spigot 1;
#X obj 532 175 r midiInGate;
#X obj 444 249 t f b;
#X obj 444 287 / 127;
#X obj 444 180 change;
#X obj 642 218 spigot 1;
#X obj 730 174 r midiInGate;
#X obj 642 248 t f b;
#X obj 642 286 / 127;
#X obj 642 184 change;
#X obj 250 313 s knob2;
#X obj 444 309 s knob3;
#X obj 642 308 s knob4;
#X obj 302 286 s knob2Override;
#X obj 497 282 s knob3Override;
#X obj 694 280 s knob4Override;
#X obj 891 323 spigot 1;
#X obj 839 607 spigot 1;
#X obj 839 639 unpack;
#X obj 839 671 noteout;
#X obj 960 288 r midiInGate;
#X obj 891 356 s notes;
#X obj 892 570 r midiOutGate;
#X obj 48 631 i;
#X obj 48 653 change;
#X obj 48 585 spigot 1;
#X obj 101 553 r midiOutGate;
#X obj 220 633 i;
#X obj 220 655 change;
#X obj 220 587 spigot 1;
#X obj 273 555 r midiOutGate;
#X obj 390 637 i;
#X obj 390 659 change;
#X obj 390 591 spigot 1;
#X obj 443 559 r midiOutGate;
#X obj 568 634 i;
#X obj 568 656 change;
#X obj 568 588 spigot 1;
#X obj 621 556 r midiOutGate;
#X obj 568 612 / 8;
#X obj 390 615 / 8;
#X obj 220 611 / 8;
#X obj 48 609 / 8;
#X obj 48 675 ctlout 21 1;
#X obj 220 677 ctlout 22 1;
#X obj 388 681 ctlout 23 1;
#X obj 568 678 ctlout 24 1;
#X obj 48 512 r knob1Raw;
#X obj 220 523 r knob2Raw;
#X obj 390 519 r knob3Raw;
#X obj 568 529 r knob4Raw;
#X obj 839 533 r notesRaw;
#X text 670 101 MIDI in;
#X text 570 473 MIDI out;
#X obj 1091 641 i;
#X obj 1091 663 change;
#X obj 1091 595 spigot 1;
#X obj 1144 563 r midiOutGate;
#X obj 1091 536 r auxRaw;
#X obj 1091 619 * 127;
#X obj 1091 689 ctlout 25 1;
#X obj 1092 210 spigot 1;
#X obj 1180 166 r midiInGate;
#X obj 1092 298 s aux;
#X obj 1272 632 i;
#X obj 1272 654 change;
#X obj 1272 586 spigot 1;
#X obj 1325 554 r midiOutGate;
#X obj 1272 610 * 127;
#X obj 1272 527 r fsRaw;
#X obj 1272 680 ctlout 64 1;
#X obj 1285 210 spigot 1;
#X obj 1373 160 r midiInGate;
#X obj 1285 307 s fs;
#X obj 1285 240 >= 64;
#X obj 1285 272 change;
#X obj 1092 239 >= 64;
#X obj 1092 271 change;
#N canvas 1252 260 653 703 program-change-in 0;
#X obj 116 35 pgmin;
#X obj 141 361 s oscOut;
#X msg 141 332 send /pgmchg \$1;
#X obj 141 171 spigot 1;
#X obj 194 111 r midiInGate;
#X obj 232 139 loadbang;
#X obj 141 231 spigot 0;
#X msg 232 196 1;
#X obj 232 167 delay 500;
#X msg 227 234 0;
#X text 271 220 speed limit these;
#X text 43 4 program change in loads new patch;
#X obj 141 265 t f b b;
#X obj 141 298 i;
#N canvas 1101 410 681 530 chsel 0;
#X obj 159 28 r midiCh;
#X obj 67 61 swap;
#X obj 67 86 pack;
#X obj 44 29 inlet;
#X obj 97 28 inlet;
#X obj 67 347 outlet;
#X obj 67 169 route 1;
#X obj 120 211 spigot;
#X obj 159 167 == 0;
#X obj 120 234 unpack;
#X connect 0 0 6 1;
#X connect 0 0 8 0;
#X connect 1 0 2 0;
#X connect 1 1 2 1;
#X connect 2 0 6 0;
#X connect 3 0 1 0;
#X connect 4 0 1 1;
#X connect 6 0 5 0;
#X connect 6 1 7 0;
#X connect 7 0 9 0;
#X connect 8 0 7 1;
#X connect 9 1 5 0;
#X restore 115 78 pd chsel;
#X connect 0 0 14 0;
#X connect 0 1 14 1;
#X connect 2 0 1 0;
#X connect 3 0 6 0;
#X connect 4 0 3 1;
#X connect 5 0 8 0;
#X connect 6 0 12 0;
#X connect 7 0 6 1;
#X connect 8 0 7 0;
#X connect 9 0 6 1;
#X connect 12 0 13 0;
#X connect 12 1 8 0;
#X connect 12 2 9 0;
#X connect 13 0 2 0;
#X connect 14 0 3 0;
#X restore 1338 58 pd program-change-in;
#X obj 1474 635 i;
#X obj 1474 657 change;
#X obj 1474 589 spigot 1;
#X obj 1527 557 r midiOutGate;
#X obj 1474 613 / 8;
#X obj 1474 679 ctlout 26 1;
#X obj 1474 530 r expRaw;
#X obj 1550 210 spigot 1;
#X obj 1638 166 r midiInGate;
#X obj 1550 240 t f b;
#X obj 1550 278 / 127;
#X obj 1550 187 change;
#X obj 1602 273 s expOverride;
#X obj 1550 300 s exp;
#X text 709 472 the 'raw' stuff comes directly from built in controls
;
#X text 659 31 This patch provides the default MIDI behavior. All MIDI
output and input can be suppressed by sending a 0 to midiOutGate and
midiInGate respectively.;
#X text 1351 30 program change loads new patches;
#X obj 51 116 ctlin 21;
#X obj 892 154 notein;
#N canvas 667 404 743 412 chsel 0;
#X obj 159 28 r midiCh;
#X obj 67 61 swap;
#X obj 67 86 pack;
#X obj 44 29 inlet;
#X obj 97 28 inlet;
#X obj 67 347 outlet;
#X obj 67 169 route 1;
#X obj 120 211 spigot;
#X obj 159 167 == 0;
#X obj 120 234 unpack;
#X connect 0 0 6 1;
#X connect 0 0 8 0;
#X connect 1 0 2 0;
#X connect 1 1 2 1;
#X connect 2 0 6 0;
#X connect 3 0 1 0;
#X connect 4 0 1 1;
#X connect 6 0 5 0;
#X connect 6 1 7 0;
#X connect 7 0 9 0;
#X connect 8 0 7 1;
#X connect 9 1 5 0;
#X restore 51 147 pd chsel;
#N canvas 6 50 1280 956 chsel 0;
#X obj 187 417 pack;
#X obj 207 372 f;
#X obj 168 372 f;
#X obj 237 123 f;
#X obj 152 87 t b f;
#X obj 237 145 sel 1;
#X obj 237 325 t b b;
#X obj 342 33 r midiCh;
#X obj 117 35 inlet;
#X obj 199 37 inlet;
#X obj 274 39 inlet;
#X obj 186 444 outlet;
#X obj 325 173 spigot;
#X obj 364 129 == 0;
#X obj 302 246 bng 15 250 50 0 empty empty empty 17 7 0 10 -262144
-1 -1;
#X connect 0 0 11 0;
#X connect 1 0 0 1;
#X connect 2 0 0 0;
#X connect 3 0 5 0;
#X connect 4 0 3 0;
#X connect 4 1 2 1;
#X connect 5 0 6 0;
#X connect 5 1 12 0;
#X connect 6 0 2 0;
#X connect 6 1 1 0;
#X connect 7 0 5 1;
#X connect 7 0 13 0;
#X connect 8 0 4 0;
#X connect 9 0 1 1;
#X connect 10 0 3 1;
#X connect 12 0 14 0;
#X connect 13 0 12 1;
#X connect 14 0 6 0;
#X restore 885 226 pd chsel;
#X obj 164 117 r midiCh;
#X floatatom 164 139 5 0 0 0 - - -;
#X obj 250 119 ctlin 22;
#X obj 444 128 ctlin 23;
#X obj 642 132 ctlin 24;
#X obj 1092 136 ctlin 25;
#X obj 1285 138 ctlin 64;
#X obj 1550 136 ctlin 26;
#X obj 1092 186 change;
#X obj 1285 184 change;
#X obj 122 641 r midiOutCh;
#X obj 294 645 r midiOutCh;
#X obj 462 645 r midiOutCh;
#X obj 642 631 r midiOutCh;
#X obj 903 637 r midiOutCh;
#X obj 1165 653 r midiOutCh;
#X obj 1346 645 r midiOutCh;
#X obj 1548 646 r midiOutCh;
#N canvas 312 499 743 412 chsel 0;
#X obj 159 28 r midiCh;
#X obj 67 61 swap;
#X obj 67 86 pack;
#X obj 44 29 inlet;
#X obj 97 28 inlet;
#X obj 67 347 outlet;
#X obj 67 169 route 1;
#X obj 120 211 spigot;
#X obj 159 167 == 0;
#X obj 120 234 unpack;
#X connect 0 0 6 1;
#X connect 0 0 8 0;
#X connect 1 0 2 0;
#X connect 1 1 2 1;
#X connect 2 0 6 0;
#X connect 3 0 1 0;
#X connect 4 0 1 1;
#X connect 6 0 5 0;
#X connect 6 1 7 0;
#X connect 7 0 9 0;
#X connect 8 0 7 1;
#X connect 9 1 5 0;
#X restore 250 151 pd chsel;
#N canvas 312 499 743 412 chsel 0;
#X obj 159 28 r midiCh;
#X obj 67 61 swap;
#X obj 67 86 pack;
#X obj 44 29 inlet;
#X obj 97 28 inlet;
#X obj 67 347 outlet;
#X obj 67 169 route 1;
#X obj 120 211 spigot;
#X obj 159 167 == 0;
#X obj 120 234 unpack;
#X connect 0 0 6 1;
#X connect 0 0 8 0;
#X connect 1 0 2 0;
#X connect 1 1 2 1;
#X connect 2 0 6 0;
#X connect 3 0 1 0;
#X connect 4 0 1 1;
#X connect 6 0 5 0;
#X connect 6 1 7 0;
#X connect 7 0 9 0;
#X connect 8 0 7 1;
#X connect 9 1 5 0;
#X restore 443 153 pd chsel;
#N canvas 312 499 743 412 chsel 0;
#X obj 159 28 r midiCh;
#X obj 67 61 swap;
#X obj 67 86 pack;
#X obj 44 29 inlet;
#X obj 97 28 inlet;
#X obj 67 347 outlet;
#X obj 67 169 route 1;
#X obj 120 211 spigot;
#X obj 159 167 == 0;
#X obj 120 234 unpack;
#X connect 0 0 6 1;
#X connect 0 0 8 0;
#X connect 1 0 2 0;
#X connect 1 1 2 1;
#X connect 2 0 6 0;
#X connect 3 0 1 0;
#X connect 4 0 1 1;
#X connect 6 0 5 0;
#X connect 6 1 7 0;
#X connect 7 0 9 0;
#X connect 8 0 7 1;
#X connect 9 1 5 0;
#X restore 640 157 pd chsel;
#N canvas 312 499 743 412 chsel 0;
#X obj 159 28 r midiCh;
#X obj 67 61 swap;
#X obj 67 86 pack;
#X obj 44 29 inlet;
#X obj 97 28 inlet;
#X obj 67 347 outlet;
#X obj 67 169 route 1;
#X obj 120 211 spigot;
#X obj 159 167 == 0;
#X obj 120 234 unpack;
#X connect 0 0 6 1;
#X connect 0 0 8 0;
#X connect 1 0 2 0;
#X connect 1 1 2 1;
#X connect 2 0 6 0;
#X connect 3 0 1 0;
#X connect 4 0 1 1;
#X connect 6 0 5 0;
#X connect 6 1 7 0;
#X connect 7 0 9 0;
#X connect 8 0 7 1;
#X connect 9 1 5 0;
#X restore 1092 162 pd chsel;
#N canvas 312 499 743 412 chsel 0;
#X obj 159 28 r midiCh;
#X obj 67 61 swap;
#X obj 67 86 pack;
#X obj 44 29 inlet;
#X obj 97 28 inlet;
#X obj 67 347 outlet;
#X obj 67 169 route 1;
#X obj 120 211 spigot;
#X obj 159 167 == 0;
#X obj 120 234 unpack;
#X connect 0 0 6 1;
#X connect 0 0 8 0;
#X connect 1 0 2 0;
#X connect 1 1 2 1;
#X connect 2 0 6 0;
#X connect 3 0 1 0;
#X connect 4 0 1 1;
#X connect 6 0 5 0;
#X connect 6 1 7 0;
#X connect 7 0 9 0;
#X connect 8 0 7 1;
#X connect 9 1 5 0;
#X restore 1285 162 pd chsel;
#N canvas 312 499 743 412 chsel 0;
#X obj 159 28 r midiCh;
#X obj 67 61 swap;
#X obj 67 86 pack;
#X obj 44 29 inlet;
#X obj 97 28 inlet;
#X obj 67 347 outlet;
#X obj 67 169 route 1;
#X obj 120 211 spigot;
#X obj 159 167 == 0;
#X obj 120 234 unpack;
#X connect 0 0 6 1;
#X connect 0 0 8 0;
#X connect 1 0 2 0;
#X connect 1 1 2 1;
#X connect 2 0 6 0;
#X connect 3 0 1 0;
#X connect 4 0 1 1;
#X connect 6 0 5 0;
#X connect 6 1 7 0;
#X connect 7 0 9 0;
#X connect 8 0 7 1;
#X connect 9 1 5 0;
#X restore 1550 160 pd chsel;
#X connect 0 0 2 0;
#X connect 1 0 0 1;
#X connect 2 0 3 0;
#X connect 2 1 5 0;
#X connect 3 0 4 0;
#X connect 6 0 0 0;
#X connect 7 0 9 0;
#X connect 8 0 7 1;
#X connect 9 0 10 0;
#X connect 9 1 25 0;
#X connect 10 0 22 0;
#X connect 11 0 7 0;
#X connect 12 0 14 0;
#X connect 13 0 12 1;
#X connect 14 0 15 0;
#X connect 14 1 26 0;
#X connect 15 0 23 0;
#X connect 16 0 12 0;
#X connect 17 0 19 0;
#X connect 18 0 17 1;
#X connect 19 0 20 0;
#X connect 19 1 27 0;
#X connect 20 0 24 0;
#X connect 21 0 17 0;
#X connect 28 0 33 0;
#X connect 29 0 30 0;
#X connect 30 0 31 0;
#X connect 30 1 31 1;
#X connect 32 0 28 1;
#X connect 34 0 29 1;
#X connect 35 0 36 0;
#X connect 36 0 55 0;
#X connect 37 0 54 0;
#X connect 38 0 37 1;
#X connect 39 0 40 0;
#X connect 40 0 56 0;
#X connect 41 0 53 0;
#X connect 42 0 41 1;
#X connect 43 0 44 0;
#X connect 44 0 57 0;
#X connect 45 0 52 0;
#X connect 46 0 45 1;
#X connect 47 0 48 0;
#X connect 48 0 58 0;
#X connect 49 0 51 0;
#X connect 50 0 49 1;
#X connect 51 0 47 0;
#X connect 52 0 43 0;
#X connect 53 0 39 0;
#X connect 54 0 35 0;
#X connect 59 0 37 0;
#X connect 60 0 41 0;
#X connect 61 0 45 0;
#X connect 62 0 49 0;
#X connect 63 0 29 0;
#X connect 66 0 67 0;
#X connect 67 0 72 0;
#X connect 68 0 71 0;
#X connect 69 0 68 1;
#X connect 70 0 68 0;
#X connect 71 0 66 0;
#X connect 73 0 88 0;
#X connect 74 0 73 1;
#X connect 76 0 77 0;
#X connect 77 0 82 0;
#X connect 78 0 80 0;
#X connect 79 0 78 1;
#X connect 80 0 76 0;
#X connect 81 0 78 0;
#X connect 83 0 86 0;
#X connect 84 0 83 1;
#X connect 86 0 87 0;
#X connect 87 0 85 0;
#X connect 88 0 89 0;
#X connect 89 0 75 0;
#X connect 91 0 92 0;
#X connect 92 0 96 0;
#X connect 93 0 95 0;
#X connect 94 0 93 1;
#X connect 95 0 91 0;
#X connect 97 0 93 0;
#X connect 98 0 100 0;
#X connect 99 0 98 1;
#X connect 100 0 101 0;
#X connect 100 1 103 0;
#X connect 101 0 104 0;
#X connect 102 0 98 0;
#X connect 108 0 110 0;
#X connect 108 1 110 1;
#X connect 109 0 111 0;
#X connect 109 1 111 1;
#X connect 109 2 111 2;
#X connect 110 0 6 0;
#X connect 111 0 28 0;
#X connect 112 0 113 0;
#X connect 114 0 130 0;
#X connect 114 1 130 1;
#X connect 115 0 131 0;
#X connect 115 1 131 1;
#X connect 116 0 132 0;
#X connect 116 1 132 1;
#X connect 117 0 133 0;
#X connect 117 1 133 1;
#X connect 118 0 134 0;
#X connect 118 1 134 1;
#X connect 119 0 135 0;
#X connect 119 1 135 1;
#X connect 120 0 73 0;
#X connect 121 0 83 0;
#X connect 122 0 55 2;
#X connect 123 0 56 2;
#X connect 124 0 57 2;
#X connect 125 0 58 2;
#X connect 126 0 31 2;
#X connect 127 0 72 2;
#X connect 128 0 82 2;
#X connect 129 0 96 2;
#X connect 130 0 11 0;
#X connect 131 0 16 0;
#X connect 132 0 21 0;
#X connect 133 0 120 0;
#X connect 134 0 121 0;
#X connect 135 0 102 0;
#X restore 76 257 pd MIDI;
#X text 237 19 Mother Patch. This patch is the bridge between the hardware
and Pd. Without it open the Organelle does not work. It should not
need to be edited under most circumstances.;
#X text 455 135 knobs;
#X text 617 129 foot switch / expression pedal, f 17;
#X text 349 370 aux button;
#X text 473 367 keyboard;
#X text 318 100 The following values are available in your patch:;
#N canvas 939 358 541 549 menuControl 0;
#X obj 136 396 s oscOut;
#X msg 109 336 send /gohome 1;
#X obj 228 287 r enableSubMenu;
#X obj 109 311 bang;
#X obj 109 289 r goHome;
#X msg 228 343 send /enablepatchsub 1;
#X obj 228 315 bang;
#X obj 133 77 r oscIn;
#N canvas 5 50 450 300 speedlim50 0;
#X obj 139 116 spigot 1;
#X msg 188 90 0;
#X msg 234 91 1;
#X obj 135 59 t b f;
#X obj 131 147 t b f;
#X obj 184 147 delay 50;
#X obj 130 25 inlet;
#X obj 150 210 outlet;
#X connect 0 0 4 0;
#X connect 1 0 0 1;
#X connect 2 0 0 1;
#X connect 3 0 1 0;
#X connect 3 1 0 0;
#X connect 4 0 5 0;
#X connect 4 1 7 0;
#X connect 5 0 2 0;
#X connect 6 0 3 0;
#X restore 133 129 pd speedlim50;
#X obj 133 157 s enc;
#X obj 264 130 s encbut;
#X obj 133 103 routeOSC /encoder/turn /encoder/button;
#X text 64 10 If we get a bang to enableSubMenu we start recieving
messages from the selector encoder. A goHome menu returns to the Organelle
main menu.;
#X connect 1 0 0 0;
#X connect 2 0 6 0;
#X connect 3 0 1 0;
#X connect 4 0 3 0;
#X connect 5 0 0 0;
#X connect 6 0 5 0;
#X connect 7 0 11 0;
#X connect 8 0 9 0;
#X connect 11 0 8 0;
#X connect 11 1 10 0;
#X restore 75 284 pd menuControl;
#N canvas 432 163 404 168 META 0;
#X text 12 113 VERSION 1.2;
#X text 12 5 KEYWORDS Mother;
#X text 12 45 DESCRIPTION This patch bridges Organelle hardware and
Pd;
#X text 12 89 WEBSITE http://critterandguitari.com;
#X text 12 69 AUTHOR Critter & Guitari;
#X text 12 25 LICENSE BSD;
#X restore 79 23 pd META;
#N canvas 11 54 731 554 init 0;
#X msg 110 263 \; pd dsp 1, f 10;
#X obj 110 227 delay 200;
#X obj 200 229 delay 100;
#X msg 200 333 send /patchLoaded 1;
#X obj 200 358 s oscOut;
#X obj 110 182 t b b;
#X obj 200 252 t b b;
#X obj 104 147 inlet;
#N canvas 241 50 1006 843 checkAndRecallKnobState 0;
#X obj 337 512 textfile;
#X obj 504 154 sel 1;
#X msg 177 177 rewind;
#X obj 140 119 bng 15 250 50 0 empty empty empty 17 7 0 10 -262144
-1 -1;
#X obj 337 536 unpack 0 0 0 0;
#X obj 140 141 t b b b;
#X obj 602 236 pack s 0 0 0 0;
#X obj 652 186 r knob1;
#X obj 710 189 r knob2;
#X obj 774 192 r knob3;
#X obj 839 189 r knob4;
#X msg 553 209 set;
#X obj 602 259 list trim;
#X obj 228 580 t b f;
#X obj 70 672 s recallState;
#X obj 504 94 r oscIn;
#X obj 504 124 routeOSC /saveState;
#X msg 398 261 write /tmp/state/knobs.txt;
#X msg 240 169 read /tmp/patch/knobs.txt;
#X obj 359 218 s saveState;
#X obj 505 184 t b b b;
#X text 266 22 Save and recall knob states. We always save to the /tmp/state
directory which gets copied to the current patch or new patch whe the
Save or Save New system command is selected.;
#X obj 259 665 s knob1;
#X obj 290 645 s knob1Override;
#X obj 140 93 inlet;
#X obj 258 613 t f b;
#X obj 436 602 t f b;
#X obj 581 604 t f b;
#X obj 733 602 t f b;
#X obj 437 654 s knob2;
#X obj 468 634 s knob2Override;
#X obj 582 656 s knob3;
#X obj 613 635 s knob3Override;
#X obj 734 654 s knob4;
#X obj 764 634 s knob4Override;
#X connect 0 0 4 0;
#X connect 1 0 20 0;
#X connect 2 0 0 0;
#X connect 3 0 5 0;
#X connect 4 0 13 0;
#X connect 4 1 26 0;
#X connect 4 2 27 0;
#X connect 4 3 28 0;
#X connect 5 0 0 0;
#X connect 5 1 2 0;
#X connect 5 2 18 0;
#X connect 6 0 12 0;
#X connect 7 0 6 1;
#X connect 8 0 6 2;
#X connect 9 0 6 3;
#X connect 10 0 6 4;
#X connect 11 0 6 0;
#X connect 12 0 0 0;
#X connect 13 0 14 0;
#X connect 13 1 25 0;
#X connect 15 0 16 0;
#X connect 16 0 1 0;
#X connect 17 0 0 0;
#X connect 18 0 0 0;
#X connect 20 0 19 0;
#X connect 20 1 17 0;
#X connect 20 2 11 0;
#X connect 24 0 3 0;
#X connect 25 0 22 0;
#X connect 25 1 23 0;
#X connect 26 0 29 0;
#X connect 26 1 30 0;
#X connect 27 0 31 0;
#X connect 27 1 32 0;
#X connect 28 0 33 0;
#X connect 28 1 34 0;
#X restore 232 287 pd checkAndRecallKnobState;
#X text 156 33 1 check for basic knobs.txt preset file to override
knob values;
#X text 158 71 2 signal mother host patch is loaded \, casuing initial
knob values to be sent.;
#X text 157 111 3 start audio;
#X connect 1 0 0 0;
#X connect 2 0 6 0;
#X connect 3 0 4 0;
#X connect 5 0 1 0;
#X connect 5 1 2 0;
#X connect 6 0 3 0;
#X connect 6 1 8 0;
#X connect 7 0 5 0;
#X restore 76 103 pd init;
#X obj 738 195 vsl 15 128 0 1 0 0 empty empty empty 0 -9 0 10 -262144
-1 -1 0 1;
#X obj 738 161 r vol;
#X connect 0 0 30 0;
#X connect 1 0 2 0;
#X connect 6 0 3 0;
#X connect 7 0 4 0;
#X connect 8 0 5 0;
#X connect 10 0 11 0;
#X connect 11 0 12 0;
#X connect 11 1 13 0;
#X connect 14 0 15 0;
#X connect 16 0 17 0;
#X connect 18 0 9 0;
#X connect 32 0 31 0;
