#N canvas 474 351 450 300 10;
#X obj 80 63 inlet~;
#X obj 81 111 phasor~;
#X obj 335 73 inlet;
#X text 262 51 pwm~;
#X text 78 43 freq~;
#X text 335 55 phase;
#N canvas 525 283 512 505 sigment 0;
#X obj 71 154 wrap~;
#X obj 71 216 -~ 0.5;
#X obj 71 132 -~;
#X obj 70 52 inlet~;
#X text 70 34 phasor~;
#X obj 70 277 outlet~;
#X text 261 29 phase;
#X obj 259 50 inlet~;
#X obj 70 184 u_splicetrans;
#X obj 159 51 inlet~;
#X obj 70 253 *~ -1;
#X text 161 32 freq~;
#X connect 0 0 8 0;
#X connect 1 0 10 0;
#X connect 2 0 0 0;
#X connect 3 0 2 0;
#X connect 7 0 2 1;
#X connect 8 0 1 0;
#X connect 9 0 8 1;
#X connect 10 0 5 0;
#X restore 82 174 pd sigment -1;
#N canvas 525 283 508 458 sigment 0;
#X obj 71 154 wrap~;
#X obj 71 216 -~ 0.5;
#X obj 71 132 -~;
#X obj 70 52 inlet~;
#X text 70 34 phasor~;
#X obj 70 277 outlet~;
#X text 261 29 phase;
#X obj 259 50 inlet~;
#X obj 70 184 u_splicetrans;
#X obj 159 51 inlet~;
#X text 161 32 freq~;
#X connect 0 0 8 0;
#X connect 1 0 5 0;
#X connect 2 0 0 0;
#X connect 3 0 2 0;
#X connect 7 0 2 1;
#X connect 8 0 1 0;
#X connect 9 0 8 1;
#X restore 185 174 pd sigment 1;
#X obj 81 234 outlet~;
#N canvas 228 198 627 317 LICENSE-BSD 0;
#X text 121 56 This software is copyrighted by Miller Puckette \, Reality
Jockey Ltd. and others. The terms (the "Standard Improved BSD License")
apply to all files associated with the software unless explicitly disclaimed
in individual files.;
#X text 123 148 See the file LICENSE.txt for the full license text.
;
#X restore 333 30 pd LICENSE-BSD;
#X obj 265 72 sig~ 0.5;
#X connect 0 0 1 0;
#X connect 0 0 6 1;
#X connect 0 0 7 1;
#X connect 1 0 6 0;
#X connect 1 0 7 0;
#X connect 2 0 1 1;
#X connect 6 0 8 0;
#X connect 7 0 8 0;
#X connect 10 0 7 2;
