#N canvas 0 23 494 590 10;
#N canvas 475 183 676 682 hhnoise 1;
#X obj 178 566 outlet~;
#X obj 194 311 *~;
#X obj 178 479 +~;
#X obj 179 540 osc~;
#X obj 195 426 *~;
#X obj 195 203 unpack f f f f f;
#X obj 177 450 sig~;
#X obj 195 250 osc~;
#X obj 209 274 osc~;
#N canvas 730 23 450 300 programmer 1;
#X msg 99 193 2834.65 2165.35 0.811024 1771.65 6708.66;
#X obj 244 63 hsl 128 15 0 5000 0 0 empty empty modf1 32 7 1 8 -262144
-1 -1 0 1;
#X obj 136 147 pack f f f f f;
#X obj 136 124 t b;
#X msg 136 169 set \$1 \$2 \$3 \$4 \$5;
#X obj 244 78 hsl 128 15 0 5000 0 0 empty empty modf2 32 7 1 8 -262144
-1 -1 0 1;
#X obj 244 93 hsl 128 15 0 1 0 0 empty empty env 32 7 1 8 -262144 -1
-1 0 1;
#X obj 244 108 hsl 128 15 0 5000 0 0 empty empty fm_amount 32 7 1 8
-262144 -1 -1 0 1;
#X obj 244 123 hsl 128 15 0 12000 0 0 empty empty base_freq 32 7 1
8 -262144 -1 -1 0 1;
#X obj 95 150 del 2;
#X obj 96 224 outlet;
#X msg 122 259 1141.73 472.441 0.645669 2874.02 10299.2;
#X msg 149 230 748.031 1023.62 0.173228 1968.5 9259.84;
#X msg 183 277 2834.65 2165.35 0.511811 4370.08 8125.98;
#X obj 304 162 r loadbang-\$1;
#X connect 0 0 10 0;
#X connect 1 0 2 0;
#X connect 1 0 3 0;
#X connect 2 0 4 0;
#X connect 3 0 2 0;
#X connect 3 0 9 0;
#X connect 4 0 0 0;
#X connect 5 0 2 1;
#X connect 5 0 3 0;
#X connect 6 0 2 2;
#X connect 6 0 3 0;
#X connect 7 0 2 3;
#X connect 7 0 3 0;
#X connect 8 0 2 4;
#X connect 8 0 3 0;
#X connect 9 0 0 0;
#X connect 11 0 10 0;
#X connect 12 0 10 0;
#X connect 13 0 10 0;
#X connect 14 0 12 0;
#X restore 195 177 pd programmer;
#X obj 153 311 +~;
#N canvas 0 0 450 300 xf 0;
#X obj 107 37 inlet~;
#X obj 158 37 inlet~;
#X obj 123 135 *~;
#X obj 152 134 *~;
#X obj 134 178 outlet~;
#X obj 171 87 sig~ 1;
#X obj 169 108 -~;
#X obj 227 37 inlet~ xfade;
#X connect 0 0 2 0;
#X connect 1 0 3 0;
#X connect 2 0 4 0;
#X connect 3 0 4 0;
#X connect 5 0 6 0;
#X connect 6 0 3 1;
#X connect 7 0 6 1;
#X connect 7 0 2 1;
#X restore 154 351 pd xf;
#X text 263 302 2 ringmod;
#X obj 223 311 *~;
#X obj 222 133 inlet~ spectrum env;
#X obj 124 591 s~ \$0-fb;
#X obj 208 482 r~ \$0-fb;
#X obj 179 516 +~;
#X text 219 540 fbfm;
#X obj 125 567 *~ 600;
#X connect 1 0 11 1;
#X connect 2 0 17 0;
#X connect 3 0 0 0;
#X connect 3 0 19 0;
#X connect 4 0 2 1;
#X connect 5 0 7 0;
#X connect 5 1 8 0;
#X connect 5 2 13 1;
#X connect 5 3 4 1;
#X connect 5 4 6 0;
#X connect 6 0 2 0;
#X connect 7 0 1 0;
#X connect 7 0 10 0;
#X connect 8 0 1 1;
#X connect 8 0 10 1;
#X connect 9 0 5 0;
#X connect 10 0 11 0;
#X connect 11 0 4 0;
#X connect 13 0 11 2;
#X connect 14 0 13 0;
#X connect 16 0 17 1;
#X connect 17 0 3 0;
#X connect 19 0 15 0;
#X restore 70 396 pd hhnoise;
#X obj 131 434 *~;
#X obj 147 349 vline~;
#X obj 148 395 *~;
#X obj 131 513 switch~;
#X obj 131 461 env~;
#X msg 172 486 1;
#X obj 147 164 t b b;
#X obj 131 486 > 0.1;
#X obj 72 485 outlet~;
#X obj 197 164 t b b;
#X msg 147 293 \$1 0 0 \, 0 \$2 1;
#X obj 147 270 pack f f;
#X obj 147 219 t f f;
#X obj 197 217 t f f;
#X msg 147 193 0.6;
#X msg 197 194 1;
#X obj 302 113 inlet decay;
#X obj 243 247 *;
#X obj 196 247 *;
#X obj 315 171 * 600;
#X text 202 429 fm hi hat;
#X text 96 505 ajf;
#X obj 175 87 inlet hihat;
#X obj 175 115 sel 2 1;
#X msg 396 113 0.1;
#X obj 263 171 * 7000;
#X obj 396 88 r loadbang-\$1;
#X connect 0 0 1 0;
#X connect 1 0 5 0;
#X connect 1 0 9 0;
#X connect 2 0 3 0;
#X connect 2 0 3 1;
#X connect 2 0 0 0;
#X connect 3 0 1 1;
#X connect 5 0 8 0;
#X connect 6 0 4 0;
#X connect 7 0 15 0;
#X connect 7 1 6 0;
#X connect 8 0 4 0;
#X connect 10 0 16 0;
#X connect 10 1 6 0;
#X connect 11 0 2 0;
#X connect 12 0 11 0;
#X connect 13 0 12 0;
#X connect 13 1 19 0;
#X connect 14 0 12 0;
#X connect 14 1 18 0;
#X connect 15 0 13 0;
#X connect 16 0 14 0;
#X connect 17 0 20 0;
#X connect 17 0 26 0;
#X connect 18 0 12 1;
#X connect 19 0 12 1;
#X connect 20 0 18 1;
#X connect 23 0 24 0;
#X connect 24 0 7 0;
#X connect 24 1 10 0;
#X connect 25 0 20 0;
#X connect 25 0 26 0;
#X connect 26 0 19 1;
#X connect 27 0 25 0;
