#N canvas 575 351 1426 863 10;
#X obj 295 128 r notesIn-\$1;
#X obj 295 607 s notesOut-\$1;
#X obj 16 9 r loaddefs-\$1;
#X msg 16 58 loaddefinitions \$1;
#X obj 174 9 r loadbang-\$1;
#X obj 174 76 print loading definiton for \$1;
#X obj 16 34 symbol;
#X obj 101 127 inlet~ inR;
#X obj 16 126 inlet~ inL;
#X obj 9 612 outlet~ outL;
#X obj 93 612 outlet~ outR;
#X obj 203 131 r auxIn-\$1;
#X obj 202 154 r expIn-\$1;
#X obj 202 179 r fsIn-\$1;
#X obj 16 88 KontrolModule \$1 F-wrps;
#X obj 174 35 print loaded:wrps into \$1, f 12;
#X obj 47 346 wrps~;
#X obj 130 244 r wrps_param-\$1;
#X msg 712 118 shape \$1;
#X msg 828 118 algo \$1;
#X msg 921 118 timbre \$1;
#X msg 548 289 note \$1;
#X obj 548 248 + 1;
#X obj 712 76 / 100;
#X obj 828 76 / 100;
#X obj 921 76 / 100;
#X obj 634 76 > 0.5;
#X msg 1050 116 drive1 \$1;
#X msg 1167 116 drive2 \$1;
#X obj 1050 76 / 100;
#X obj 1167 76 / 100;
#X obj 924 370 s wrps_param-\$1;
#X obj 712 36 r w_shape-\$1;
#X obj 828 36 r w_algo-\$1;
#X obj 921 36 r w_timbre-\$1;
#X obj 419 191 unpack f f;
#X obj 476 218 > 0;
#X obj 476 304 tgl 15 0 empty empty empty 17 7 0 10 -262144 -1 -1 0
1;
#X obj 476 246 +;
#X obj 476 275 > 0;
#X obj 474 453 adsr 1 10 100 50 500;
#X obj 474 506 *~;
#X obj 520 417 r e_attack-\$1;
#X obj 605 417 r e_decay-\$1;
#X obj 694 417 r e_sustain-\$1;
#X obj 793 417 r e_release-\$1;
#X obj 40 545 *~;
#X obj 79 545 *~;
#X obj 634 119 t b f;
#X obj 1050 36 r w_drive1-\$1;
#X obj 1167 36 r w_drive2-\$1;
#X obj 634 36 r w_gate-\$1;
#X connect 0 0 35 0;
#X connect 2 0 6 0;
#X connect 2 0 5 0;
#X connect 3 0 14 0;
#X connect 4 0 15 0;
#X connect 6 0 3 0;
#X connect 7 0 16 1;
#X connect 8 0 16 0;
#X connect 16 0 46 0;
#X connect 16 1 47 0;
#X connect 17 0 16 0;
#X connect 18 0 31 0;
#X connect 19 0 31 0;
#X connect 20 0 31 0;
#X connect 21 0 31 0;
#X connect 22 0 21 0;
#X connect 23 0 18 0;
#X connect 24 0 19 0;
#X connect 25 0 20 0;
#X connect 26 0 48 0;
#X connect 27 0 31 0;
#X connect 28 0 31 0;
#X connect 29 0 27 0;
#X connect 30 0 28 0;
#X connect 32 0 23 0;
#X connect 33 0 24 0;
#X connect 34 0 25 0;
#X connect 35 0 22 0;
#X connect 35 1 36 0;
#X connect 36 0 38 0;
#X connect 37 0 40 0;
#X connect 38 0 39 0;
#X connect 39 0 37 0;
#X connect 40 0 41 1;
#X connect 40 0 41 0;
#X connect 41 0 47 1;
#X connect 41 0 46 1;
#X connect 42 0 40 2;
#X connect 43 0 40 3;
#X connect 44 0 40 4;
#X connect 45 0 40 5;
#X connect 46 0 9 0;
#X connect 47 0 10 0;
#X connect 48 0 38 0;
#X connect 48 1 38 1;
#X connect 49 0 29 0;
#X connect 50 0 30 0;
#X connect 51 0 26 0;
