#N canvas 52 537 1861 804 10;
#X obj 304 186 r notesIn-\$1;
#X obj 304 491 s notesOut-\$1;
#X obj 23 9 r loaddefs-\$1;
#X msg 23 76 loaddefinitions \$1;
#X obj 181 9 r loadbang-\$1;
#X obj 181 76 print loading definiton for \$1;
#X obj 23 41 symbol;
#X obj 25 186 inlet~ inL-\$1;
#X obj 135 186 inlet~ inR-\$1;
#X obj 27 491 outlet~ outL-\$1;
#X obj 136 491 outlet~ outR-\$1;
#X obj 424 185 r auxIn-\$1;
#X obj 423 208 r expIn-\$1;
#X obj 423 233 r fsIn-\$1;
#X text 1056 52 Fender Rhodes style voice using rjdj rhodey abstraction
\, which is itself based on the STK Rhodey code;
#N canvas 485 88 794 483 synth 0;
#X obj 57 225 pack 0 0 0, f 11;
#X obj 57 251 route 1 2 3 4 5 6 7 8, f 91;
#X obj 57 389 *~ 0.3;
#X obj 57 129 poly 8 1, f 11;
#X obj 57 463 outlet~;
#X obj 57 84 inlet;
#X obj 57 297 rhodey-voice \$1;
#X obj 57 433 hip~ 5;
#X obj 214 299 rhodey-voice \$1;
#X obj 136 323 rhodey-voice \$1;
#X obj 292 321 rhodey-voice \$1;
#X obj 374 294 rhodey-voice \$1;
#X obj 455 327 rhodey-voice \$1;
#X obj 535 295 rhodey-voice \$1;
#X obj 603 321 rhodey-voice \$1;
#X connect 0 0 1 0;
#X connect 1 0 6 0;
#X connect 1 1 9 0;
#X connect 1 2 8 0;
#X connect 1 3 10 0;
#X connect 1 4 11 0;
#X connect 1 5 12 0;
#X connect 1 6 13 0;
#X connect 1 7 14 0;
#X connect 2 0 7 0;
#X connect 3 0 0 0;
#X connect 3 1 0 1;
#X connect 3 2 0 2;
#X connect 5 0 3 0;
#X connect 6 0 2 0;
#X connect 7 0 4 0;
#X connect 8 0 2 0;
#X connect 9 0 2 0;
#X connect 10 0 2 0;
#X connect 11 0 2 0;
#X connect 12 0 2 0;
#X connect 13 0 2 0;
#X connect 14 0 2 0;
#X restore 62 315 pd synth;
#X text 602 52 C&G Rhodey synth;
#X obj 181 35 print loaded:rhodey into \$1, f 35;
#X obj 23 112 KontrolModule \$1 S-rhodey;
#X connect 0 0 15 0;
#X connect 2 0 6 0;
#X connect 2 0 5 0;
#X connect 3 0 18 0;
#X connect 4 0 17 0;
#X connect 6 0 3 0;
#X connect 15 0 9 0;
#X connect 15 0 10 0;
