#N canvas 133 544 1540 726 10;
#X obj 304 186 r notesIn-\$1;
#X obj 23 112 KontrolModule \$1 U-default;
#X obj 304 491 s notesOut-\$1;
#X obj 23 9 r loaddefs-\$1;
#X msg 23 76 loaddefinitions \$1;
#X obj 181 9 r loadbang-\$1;
#X obj 181 76 print loading definiton for \$1;
#X obj 23 41 symbol;
#X obj 25 186 inlet~ inL-\$1;
#X obj 135 186 inlet~ inR-\$1;
#X obj 27 491 outlet~ outL-\$1;
#X obj 136 491 outlet~ outR-\$1;
#X obj 424 185 r auxIn-\$1;
#X obj 423 208 r expIn-\$1;
#X obj 423 233 r fsIn-\$1;
#X obj 181 45 print loaded:default into \$1, f 35;
#X obj 516 45 int 0;
#X obj 516 76 s aux-led-\$1;
#X obj 628 169 s aux-label-\$1;
#X msg 628 137 Audio/Notes passthru;
#X connect 0 0 2 0;
#X connect 3 0 7 0;
#X connect 3 0 6 0;
#X connect 4 0 1 0;
#X connect 5 0 15 0;
#X connect 5 0 16 0;
#X connect 5 0 19 0;
#X connect 7 0 4 0;
#X connect 8 0 10 0;
#X connect 9 0 11 0;
#X connect 16 0 17 0;
#X connect 19 0 18 0;
