#N canvas 48 241 1503 1001 10;
#X obj 240 186 r notesIn-\$1;
#X obj 242 491 s notesOut-\$1;
#X obj 23 9 r loaddefs-\$1;
#X msg 23 58 loaddefinitions \$1;
#X obj 166 5 r loadbang-\$1;
#X obj 181 76 print loading definiton for \$1;
#X obj 23 34 symbol;
#X obj 25 186 inlet~ inL-\$1;
#X obj 135 186 inlet~ inR-\$1;
#X obj 27 491 outlet~ outL-\$1;
#X obj 136 491 outlet~ outR-\$1;
#X obj 181 35 print loaded:linear router into \$1, f 39;
#X obj 23 112 KontrolModule \$1 R-4x2+2;
#X text 44 577 this is a simple routing module \, we could have different
ones! in this router we route notes etc to the active module \, and
audio and notes from m1 to m5 note: if you add more modules \, then
this module needs updating...;
#X obj 336 187 r auxIn-\$1;
#X obj 335 210 r expIn-\$1;
#X obj 335 235 r fsIn-\$1;
#X text 659 48 4 chains of 2 with 2 master;
#X obj 328 294 actmodhandler \$1;
#X obj 661 130 r~ inL;
#X obj 748 129 r~ inR;
#X obj 661 908 throw~ outL;
#X obj 751 908 throw~ outR;
#X obj 662 254 chainin 1 \$1;
#X obj 661 766 connectmod m9 \$1;
#X obj 661 299 connectmod m0 \$1;
#X obj 661 324 connectmod m1 \$1;
#X obj 787 409 chainout 2 \$1;
#X obj 787 254 chainin 2 \$1;
#X obj 662 409 chainout 1 \$1;
#X obj 914 258 chainin 3 \$1;
#X obj 918 409 chainout 3 \$1;
#X obj 662 505 +~;
#X obj 753 505 +~;
#X obj 662 593 +~;
#X obj 754 593 +~;
#X obj 661 682 +~;
#X obj 754 682 +~;
#X obj 661 729 connectmod m8 \$1;
#X obj 1048 409 chainout 4 \$1;
#X obj 1048 324 connectmod m7 \$1;
#X obj 1048 299 connectmod m6 \$1;
#X obj 1045 259 chainin 4 \$1;
#X obj 787 299 connectmod m2 \$1;
#X obj 787 324 connectmod m3 \$1;
#X obj 914 299 connectmod m4 \$1;
#X obj 914 324 connectmod m5 \$1;
#X connect 2 0 6 0;
#X connect 2 0 5 0;
#X connect 3 0 12 0;
#X connect 4 0 11 0;
#X connect 6 0 3 0;
#X connect 19 0 23 0;
#X connect 19 0 28 0;
#X connect 19 0 30 0;
#X connect 19 0 42 0;
#X connect 20 0 23 1;
#X connect 20 0 28 1;
#X connect 20 0 30 1;
#X connect 20 0 42 1;
#X connect 23 0 25 0;
#X connect 23 1 25 1;
#X connect 23 2 25 2;
#X connect 24 0 21 0;
#X connect 24 1 22 0;
#X connect 25 0 26 0;
#X connect 25 1 26 1;
#X connect 25 2 26 2;
#X connect 26 0 29 0;
#X connect 26 1 29 1;
#X connect 26 2 29 2;
#X connect 27 0 32 1;
#X connect 27 1 33 1;
#X connect 28 0 43 0;
#X connect 28 1 43 1;
#X connect 28 2 43 2;
#X connect 29 0 32 0;
#X connect 29 1 33 0;
#X connect 30 0 45 0;
#X connect 30 1 45 1;
#X connect 30 2 45 2;
#X connect 31 0 34 1;
#X connect 31 1 35 1;
#X connect 32 0 34 0;
#X connect 33 0 35 0;
#X connect 34 0 36 0;
#X connect 35 0 37 0;
#X connect 36 0 38 0;
#X connect 37 0 38 1;
#X connect 38 0 24 0;
#X connect 38 1 24 1;
#X connect 38 2 24 2;
#X connect 39 0 36 1;
#X connect 39 1 37 1;
#X connect 40 0 39 0;
#X connect 40 1 39 1;
#X connect 40 2 39 2;
#X connect 41 0 40 0;
#X connect 41 1 40 1;
#X connect 41 2 40 2;
#X connect 42 0 41 0;
#X connect 42 1 41 1;
#X connect 42 2 41 2;
#X connect 43 0 44 0;
#X connect 43 1 44 1;
#X connect 43 2 44 2;
#X connect 44 0 27 0;
#X connect 44 1 27 1;
#X connect 44 2 27 2;
#X connect 45 0 46 0;
#X connect 45 1 46 1;
#X connect 45 2 46 2;
#X connect 46 0 31 0;
#X connect 46 1 31 1;
#X connect 46 2 31 2;
