#N canvas 334 546 823 684 10;
#X obj 304 186 r notesIn-\$1;
#X obj 304 491 s notesOut-\$1;
#X obj 25 186 inlet~ inL-\$1;
#X obj 135 186 inlet~ inR-\$1;
#X obj 27 491 outlet~ outL-\$1;
#X obj 136 491 outlet~ outR-\$1;
#X obj 424 185 r auxIn-\$1;
#X obj 423 208 r expIn-\$1;
#X obj 423 233 r fsIn-\$1;
#X obj 578 350 / 100;
#X obj 670 350 / 100;
#X obj 578 314 r rc_amount-\$1;
#X obj 670 314 r rc_depth-\$1;
#X obj 532 390 rngs_ensemble~;
#X obj 421 265 r ctrlIn-\$1;
#X obj 421 291 s ctrlOut-\$1;
#X connect 2 0 13 0;
#X connect 3 0 13 1;
#X connect 9 0 13 2;
#X connect 10 0 13 3;
#X connect 11 0 9 0;
#X connect 12 0 10 0;
#X connect 13 0 4 0;
#X connect 13 1 5 0;
