#N canvas 587 288 1421 684 10;
#X obj 304 186 r notesIn-\$1;
#X obj 301 491 s notesOut-\$1;
#X obj 581 8 r loadbang-\$1;
#X obj 25 186 inlet~ inL-\$1;
#X obj 135 186 inlet~ inR-\$1;
#X obj 27 491 outlet~ outL-\$1;
#X obj 136 491 outlet~ outR-\$1;
#X obj 424 185 r auxIn-\$1;
#X obj 423 208 r expIn-\$1;
#X obj 423 233 r fsIn-\$1;
#N canvas 1285 315 671 689 sequencer 0;
#X obj 120 48 r nr-\$1-notes-in;
#X obj 120 288 s nr-\$1-notes-out;
#X obj 120 236 spigot;
#X msg 159 91 0;
#X msg 195 115 1;
#X obj 159 69 r nr-\$1-disable;
#X obj 195 93 r nr-\$1-enable;
#N canvas 1710 421 733 562 poly-thing 0;
#X obj 7 207 pack 0 0 0, f 11;
#X obj 7 233 route 1 2 3 4 5 6 7 8 9 10, f 59;
#X obj 7 377 unpack 0 0;
#X obj 7 474 makenote 100 100, f 19;
#X obj 7 496 pack 0 0;
#X obj 137 445 i;
#X obj 7 180 poly 10, f 11;
#X obj 137 391 r nr-\$1-length-local;
#X obj 7 593 spigot;
#X msg 46 538 0;
#X msg 82 562 1;
#X obj 46 516 r nr-\$1-disable;
#X obj 82 540 r nr-\$1-enable;
#X obj 8 133 inlet;
#X obj 7 620 outlet;
#X floatatom 180 432 5 0 0 0 - - -;
#X obj 7 255 nr-voice \$1;
#X obj 42 279 nr-voice \$1;
#X obj 87 255 nr-voice \$1;
#X obj 132 279 nr-voice \$1;
#X obj 212 279 nr-voice \$1;
#X obj 384 279 nr-voice \$1;
#X obj 167 255 nr-voice \$1;
#X obj 248 255 nr-voice \$1;
#X obj 302 279 nr-voice \$1;
#X obj 339 255 nr-voice \$1;
#X connect 0 0 1 0;
#X connect 1 0 16 0;
#X connect 1 1 17 0;
#X connect 1 2 18 0;
#X connect 1 3 19 0;
#X connect 1 4 22 0;
#X connect 1 5 20 0;
#X connect 1 6 23 0;
#X connect 1 7 24 0;
#X connect 1 8 25 0;
#X connect 1 9 21 0;
#X connect 2 0 3 0;
#X connect 2 1 3 1;
#X connect 3 0 4 0;
#X connect 3 1 4 1;
#X connect 4 0 8 0;
#X connect 5 0 3 2;
#X connect 6 0 0 0;
#X connect 6 1 0 1;
#X connect 6 2 0 2;
#X connect 7 0 5 0;
#X connect 7 0 15 0;
#X connect 8 0 14 0;
#X connect 9 0 8 1;
#X connect 10 0 8 1;
#X connect 11 0 9 0;
#X connect 12 0 10 0;
#X connect 13 0 6 0;
#X connect 16 0 2 0;
#X connect 17 0 2 0;
#X connect 18 0 2 0;
#X connect 19 0 2 0;
#X connect 20 0 2 0;
#X connect 21 0 2 0;
#X connect 22 0 2 0;
#X connect 23 0 2 0;
#X connect 24 0 2 0;
#X connect 25 0 2 0;
#X restore 120 262 pd poly-thing;
#X obj 57 169 bag;
#X msg 57 139 flush;
#X obj 57 191 pack 0 0;
#X connect 0 0 8 0;
#X connect 0 0 2 0;
#X connect 2 0 7 0;
#X connect 3 0 2 1;
#X connect 4 0 2 1;
#X connect 5 0 3 0;
#X connect 5 0 9 0;
#X connect 6 0 4 0;
#X connect 7 0 1 0;
#X connect 8 0 10 0;
#X connect 9 0 8 0;
#X connect 10 0 2 0;
#X restore 301 355 pd sequencer;
#X text 618 146 relative length of note out;
#X obj 632 201 s nr-\$1-length-local;
#X obj 453 45 s nr-\$1-enable;
#X obj 304 301 s nr-\$1-notes-in;
#X obj 301 398 r nr-\$1-notes-out;
#X text 632 278 Number of Repeats on release;
#X obj 630 360 s nr-\$1-number-local;
#X text 636 62 A Note Repeater Module.;
#X obj 632 161 r nr_length-\$1;
#N canvas 893 317 1096 936 notes-labels 0;
#X text 277 71 Rate of repeat;
#X obj 87 656 s nr-\$1-speed-local;
#X text 134 90 note divisions;
#N canvas 245 324 450 300 triplets 0;
#X obj 58 168 outlet;
#X obj 76 86 sel 0 8 16;
#X obj 227 28 r master-ticks;
#X obj 227 50 spigot 0;
#X obj 280 -13 inlet;
#X connect 1 0 0 0;
#X connect 1 1 0 0;
#X connect 1 2 0 0;
#X connect 2 0 3 0;
#X connect 3 0 1 0;
#X connect 4 0 3 1;
#X restore 274 363 pd triplets;
#N canvas 605 152 450 300 sixteenths 0;
#X obj 76 158 outlet;
#X obj 76 86 sel 0 6 12 18;
#X obj 68 32 r master-ticks;
#X obj 68 54 spigot 0;
#X obj 121 -9 inlet;
#X connect 1 0 0 0;
#X connect 1 1 0 0;
#X connect 1 2 0 0;
#X connect 1 3 0 0;
#X connect 2 0 3 0;
#X connect 3 0 1 0;
#X connect 4 0 3 1;
#X restore 400 363 pd sixteenths;
#N canvas 240 382 450 300 quarters 0;
#X obj 73 115 sel 0;
#X obj 73 151 outlet;
#X obj 73 61 r master-ticks;
#X obj 72 88 spigot 0;
#X obj 126 20 inlet, f 12;
#X connect 0 0 1 0;
#X connect 2 0 3 0;
#X connect 3 0 0 0;
#X connect 4 0 3 1;
#X restore 22 363 pd quarters;
#N canvas 672 196 450 300 eighths 0;
#X obj 75 120 outlet;
#X obj 77 87 sel 0 12;
#X obj 70 24 r master-ticks;
#X obj 70 46 spigot 0;
#X obj 123 -17 inlet;
#X connect 1 0 0 0;
#X connect 1 1 0 0;
#X connect 2 0 3 0;
#X connect 3 0 1 0;
#X connect 4 0 3 1;
#X restore 169 363 pd eighths;
#N canvas 604 155 450 300 thirtyseconds 0;
#X obj 74 152 outlet;
#X obj 76 86 sel 0 3 6 9 12 15 18 21;
#X obj 171 27 r master-ticks;
#X obj 171 49 spigot 0;
#X obj 224 -14 inlet;
#X connect 1 0 0 0;
#X connect 1 1 0 0;
#X connect 1 2 0 0;
#X connect 1 3 0 0;
#X connect 1 4 0 0;
#X connect 1 5 0 0;
#X connect 1 6 0 0;
#X connect 1 7 0 0;
#X connect 2 0 3 0;
#X connect 3 0 1 0;
#X connect 4 0 3 1;
#X restore 548 363 pd thirtyseconds;
#N canvas 605 152 450 300 explosion 0;
#X obj 73 121 outlet;
#X obj 73 61 r master-ticks;
#X obj 73 83 spigot 0;
#X obj 126 20 inlet;
#X connect 1 0 2 0;
#X connect 2 0 0 0;
#X connect 3 0 2 1;
#X restore 728 363 pd explosion;
#X msg 302 177 0;
#X obj 262 262 route 1 2 3 4 5 6, f 50;
#X obj 277 143 t a b;
#X obj 277 121 pack 0 1;
#X msg 169 415 Note: Eighths;
#X obj 277 90 r nr_speed-\$1;
#X obj 433 651 s aux-label-\$1;
#X msg 26 415 Note: Quarters;
#X obj 25 314 t f b;
#X obj 171 314 t f b;
#X obj 286 314 t f b;
#X obj 400 314 t f b;
#X obj 548 314 t f b;
#X obj 728 314 t f b;
#X msg 728 415 Note: SixtyFourths;
#X msg 548 415 Note: ThirtySeconds;
#X msg 400 415 Note: Sixteenths;
#X msg 274 415 Note: Triplets;
#X connect 3 0 1 0;
#X connect 4 0 1 0;
#X connect 5 0 1 0;
#X connect 6 0 1 0;
#X connect 7 0 1 0;
#X connect 8 0 1 0;
#X connect 9 0 5 0;
#X connect 9 0 6 0;
#X connect 9 0 3 0;
#X connect 9 0 4 0;
#X connect 9 0 7 0;
#X connect 9 0 8 0;
#X connect 10 0 17 0;
#X connect 10 1 18 0;
#X connect 10 2 19 0;
#X connect 10 3 20 0;
#X connect 10 4 21 0;
#X connect 10 5 22 0;
#X connect 11 0 10 0;
#X connect 11 1 9 0;
#X connect 12 0 11 0;
#X connect 13 0 15 0;
#X connect 14 0 12 0;
#X connect 16 0 15 0;
#X connect 17 0 5 0;
#X connect 17 1 16 0;
#X connect 18 0 6 0;
#X connect 18 1 13 0;
#X connect 19 0 3 0;
#X connect 19 1 26 0;
#X connect 20 0 4 0;
#X connect 20 1 25 0;
#X connect 21 0 7 0;
#X connect 21 1 24 0;
#X connect 22 0 8 0;
#X connect 22 1 23 0;
#X connect 23 0 15 0;
#X connect 24 0 15 0;
#X connect 25 0 15 0;
#X connect 26 0 15 0;
#X restore 634 114 pd notes-labels;
#X obj 630 298 r nr_number-\$1;
#X obj 579 527 s aux-label-\$1;
#X obj 677 527 s aux-led-\$1;
#X msg 580 495;
#X obj 678 494 int 0;
#X obj 427 262 r ctrlIn-\$1;
#X obj 427 288 s ctrlOut-\$1;
#X obj 304 207 list split 2;
#X obj 301 419 list append 0;
#X connect 0 0 28 0;
#X connect 2 0 13 0;
#X connect 2 0 24 0;
#X connect 2 0 25 0;
#X connect 15 0 29 0;
#X connect 19 0 12 0;
#X connect 21 0 17 0;
#X connect 24 0 22 0;
#X connect 25 0 23 0;
#X connect 28 0 14 0;
#X connect 29 0 1 0;
