#N canvas 808 405 1020 859 10;
#X obj 504 18 inlet;
#X obj 82 193 mtof;
#X obj 155 11 inlet;
#X obj 155 32 unpack f f, f 24;
#X obj 320 60 / 127;
#X obj 82 236 sqrt;
#X obj 82 215 / 2000;
#X obj 320 222 s \$0-envelopes;
#N canvas 5 101 262 827 dispatchers 0;
#X obj 97 -53 u_dispatch \$0 env1a;
#X obj 97 -29 u_dispatch \$0 env1d;
#X obj 97 -8 u_dispatch \$0 env1s;
#X obj 97 14 u_dispatch \$0 env1r;
#X obj 97 39 u_dispatch \$0 env2a;
#X obj 97 63 u_dispatch \$0 env2d;
#X obj 97 84 u_dispatch \$0 env2s;
#X obj 97 106 u_dispatch \$0 env2r;
#X obj 97 129 u_dispatch \$0 env3a;
#X obj 97 153 u_dispatch \$0 env3d;
#X obj 97 174 u_dispatch \$0 env3s;
#X obj 97 196 u_dispatch \$0 env3r;
#X obj 97 220 u_dispatch \$0 osc1a;
#X obj 97 241 u_dispatch \$0 osc1b;
#X obj 97 263 u_dispatch \$0 osc1c;
#X obj 97 284 u_dispatch \$0 osc1d;
#X obj 97 306 u_dispatch \$0 osc2a;
#X obj 97 327 u_dispatch \$0 osc2b;
#X obj 97 349 u_dispatch \$0 osc2c;
#X obj 97 370 u_dispatch \$0 osc2d;
#X obj 97 390 u_dispatch \$0 osc3a;
#X obj 97 411 u_dispatch \$0 osc3b;
#X obj 97 433 u_dispatch \$0 osc3c;
#X obj 97 454 u_dispatch \$0 osc3d;
#X obj 97 476 u_dispatch \$0 mod1a;
#X obj 97 497 u_dispatch \$0 mod1b;
#X obj 97 519 u_dispatch \$0 mod1c;
#X obj 97 540 u_dispatch \$0 mod1d;
#X obj 97 561 u_dispatch \$0 mod2a;
#X obj 97 582 u_dispatch \$0 mod2b;
#X obj 97 604 u_dispatch \$0 mod2c;
#X obj 97 625 u_dispatch \$0 mod2d;
#X obj 97 646 u_dispatch \$0 mod3a;
#X obj 97 667 u_dispatch \$0 mod3b;
#X obj 97 688 u_dispatch \$0 mod3c;
#X obj 97 710 u_dispatch \$0 mod3d;
#X obj 97 -78 inlet;
#X connect 0 0 1 0;
#X connect 1 0 2 0;
#X connect 2 0 3 0;
#X connect 3 0 4 0;
#X connect 4 0 5 0;
#X connect 5 0 6 0;
#X connect 6 0 7 0;
#X connect 7 0 8 0;
#X connect 8 0 9 0;
#X connect 9 0 10 0;
#X connect 10 0 11 0;
#X connect 11 0 12 0;
#X connect 12 0 13 0;
#X connect 13 0 14 0;
#X connect 14 0 15 0;
#X connect 15 0 16 0;
#X connect 16 0 17 0;
#X connect 17 0 18 0;
#X connect 18 0 19 0;
#X connect 19 0 20 0;
#X connect 20 0 21 0;
#X connect 21 0 22 0;
#X connect 22 0 23 0;
#X connect 23 0 24 0;
#X connect 24 0 25 0;
#X connect 25 0 26 0;
#X connect 26 0 27 0;
#X connect 27 0 28 0;
#X connect 28 0 29 0;
#X connect 29 0 30 0;
#X connect 30 0 31 0;
#X connect 31 0 32 0;
#X connect 32 0 33 0;
#X connect 33 0 34 0;
#X connect 34 0 35 0;
#X connect 36 0 0 0;
#X restore 571 124 pd dispatchers;
#X obj 513 808 outlet~;
#X obj 156 201 s~ \$0-f;
#X obj 265 397 r~ \$0-f;
#X obj 215 395 *~;
#X obj 404 311 r \$0-osc1a;
#X obj 404 333 sig~;
#X obj 503 383 sig~;
#X obj 503 359 r \$0-osc1b;
#X obj 513 722 *~, f 5;
#X obj 523 452 sig~;
#X obj 504 477 *~;
#X obj 523 430 r \$0-osc1d;
#X obj 82 256 sig~;
#X obj 82 276 s~ \$0-keyscale;
#X obj 521 302 clip~ 0.1 0.9;
#X obj 405 359 +~;
#X obj 503 407 +~;
#X obj 425 389 r \$0-osc1c;
#X obj 423 409 sig~;
#X obj 404 433 *~;
#X obj 485 657 +~ 200;
#X obj 485 611 *~;
#X obj 556 589 sig~;
#X obj 556 561 r \$0-mod1a;
#X obj 557 619 *~ 3500;
#X obj 486 636 *~;
#X obj 154 330 sig~;
#X obj 154 302 r \$0-mod1b;
#X obj 215 433 +~;
#X obj 248 434 -~;
#X obj 234 267 r~ \$0-keyscale;
#X obj 234 342 *~;
#X obj 235 293 *~ 7;
#X obj 252 315 r~ \$0-e1;
#X obj 522 277 r~ \$0-e2;
#X obj 505 524 r~ \$0-e3;
#X obj 356 289 sig~;
#X obj 356 261 r \$0-mod1c;
#X obj 357 313 *~ 10;
#X obj 340 358 *~;
#N canvas 8 50 600 375 s_blsyncsquare 0;
#X obj 78 30 inlet~;
#X obj 79 78 phasor~;
#X obj 266 29 inlet~;
#X obj 336 30 inlet;
#X text 263 8 pwm~;
#X text 76 10 freq~;
#X text 336 12 phase;
#N canvas 527 277 512 505 sigment 0;
#X obj 71 154 wrap~;
#X obj 71 216 -~ 0.5;
#X obj 71 132 -~;
#X obj 70 52 inlet~;
#X text 70 34 phasor~;
#X obj 70 277 outlet~;
#X text 261 29 phase;
#X obj 259 50 inlet~;
#X obj 159 51 inlet~;
#X obj 70 253 *~ -1;
#X text 161 32 freq~;
#X obj 70 184 u_splicetrans 0 \$1;
#X connect 0 0 11 0;
#X connect 1 0 9 0;
#X connect 2 0 0 0;
#X connect 3 0 2 0;
#X connect 7 0 2 1;
#X connect 8 0 11 1;
#X connect 9 0 5 0;
#X connect 11 0 1 0;
#X restore 82 204 pd sigment -1;
#N canvas 525 283 508 458 sigment 0;
#X obj 71 154 wrap~;
#X obj 71 216 -~ 0.5;
#X obj 71 132 -~;
#X obj 70 52 inlet~;
#X text 70 34 phasor~;
#X obj 70 277 outlet~;
#X text 261 29 phase;
#X obj 259 50 inlet~;
#X obj 159 51 inlet~;
#X text 161 32 freq~;
#X obj 70 184 u_splicetrans 0 \$1;
#X connect 0 0 10 0;
#X connect 1 0 5 0;
#X connect 2 0 0 0;
#X connect 3 0 2 0;
#X connect 7 0 2 1;
#X connect 8 0 10 1;
#X connect 10 0 1 0;
#X restore 185 204 pd sigment 1;
#X obj 81 264 outlet~;
#N canvas 228 198 627 317 LICENSE-BSD 0;
#X text 121 56 This software is copyrighted by Miller Puckette \, Reality
Jockey Ltd. and others. The terms (the "Standard Improved BSD License")
apply to all files associated with the software unless explicitly disclaimed
in individual files.;
#X text 123 148 See the file LICENSE.txt for the full license text.
;
#X restore 440 29 pd LICENSE-BSD;
#X obj 81 144 wrap~;
#X obj 80 106 *~;
#X obj 168 31 inlet~;
#X text 167 12 sync~;
#X connect 0 0 1 0;
#X connect 0 0 7 1;
#X connect 0 0 8 1;
#X connect 1 0 12 0;
#X connect 2 0 8 2;
#X connect 3 0 1 1;
#X connect 7 0 9 0;
#X connect 8 0 9 0;
#X connect 11 0 7 0;
#X connect 11 0 8 0;
#X connect 12 0 11 0;
#X connect 13 0 12 1;
#X restore 312 502 pd s_blsyncsquare;
#X obj 504 68 route save;
#X obj 504 124 outlet;
#N canvas 379 256 758 317 envelopes 0;
#X obj 499 192 t a a;
#X obj 499 22 r \$0-envelopes;
#X obj 546 49 r \$0-env3a;
#X obj 583 90 r \$0-env3d;
#X obj 611 108 r \$0-env3s;
#X obj 640 126 r \$0-env3r;
#X obj 546 122 * 2000;
#X obj 583 142 * 4000;
#X obj 611 164 * 100;
#X obj 499 240 s~ \$0-e3;
#X obj 546 144 int;
#X obj 546 166 + 1;
#X obj 546 71 t f f;
#X obj 546 93 *;
#X obj 583 164 i;
#X obj 583 186 + 1;
#X obj 277 190 t a a;
#X obj 277 20 r \$0-envelopes;
#X obj 324 120 * 2000;
#X obj 361 140 * 4000;
#X obj 389 162 * 100;
#X obj 324 142 int;
#X obj 324 164 + 1;
#X obj 324 69 t f f;
#X obj 324 91 *;
#X obj 361 162 i;
#X obj 361 184 + 1;
#X obj 433 158 * 4000;
#X obj 324 47 r \$0-env2a;
#X obj 361 88 r \$0-env2d;
#X obj 389 106 r \$0-env2s;
#X obj 418 124 r \$0-env2r;
#X obj 277 238 s~ \$0-e2;
#X obj 58 190 t a a;
#X obj 58 20 r \$0-envelopes;
#X obj 105 120 * 2000;
#X obj 142 140 * 4000;
#X obj 170 162 * 100;
#X obj 58 214 c_adsr 1 10 100 50 400;
#X obj 105 142 int;
#X obj 105 164 + 1;
#X obj 105 69 t f f;
#X obj 105 91 *;
#X obj 142 162 i;
#X obj 142 184 + 1;
#X obj 105 47 r \$0-env1a;
#X obj 142 88 r \$0-env1d;
#X obj 170 106 r \$0-env1s;
#X obj 199 124 r \$0-env1r;
#X obj 58 238 s~ \$0-e1;
#X obj 433 180 + 1;
#X obj 653 165 * 4000;
#X obj 653 187 + 1;
#X obj 214 150 * 4000;
#X obj 214 172 + 1;
#X obj 499 216 c_adsr 1 10 100 50 400;
#X obj 277 214 c_adsr 1 10 100 50 400;
#X connect 0 0 55 0;
#X connect 0 1 55 1;
#X connect 1 0 0 0;
#X connect 2 0 12 0;
#X connect 3 0 7 0;
#X connect 4 0 8 0;
#X connect 5 0 51 0;
#X connect 6 0 10 0;
#X connect 7 0 14 0;
#X connect 8 0 55 4;
#X connect 10 0 11 0;
#X connect 11 0 55 2;
#X connect 12 0 13 0;
#X connect 12 1 13 1;
#X connect 13 0 6 0;
#X connect 14 0 15 0;
#X connect 15 0 55 3;
#X connect 16 0 56 0;
#X connect 16 1 56 1;
#X connect 17 0 16 0;
#X connect 18 0 21 0;
#X connect 19 0 25 0;
#X connect 20 0 56 4;
#X connect 21 0 22 0;
#X connect 22 0 56 2;
#X connect 23 0 24 0;
#X connect 23 1 24 1;
#X connect 24 0 18 0;
#X connect 25 0 26 0;
#X connect 26 0 56 3;
#X connect 27 0 50 0;
#X connect 28 0 23 0;
#X connect 29 0 19 0;
#X connect 30 0 20 0;
#X connect 31 0 27 0;
#X connect 33 0 38 0;
#X connect 33 1 38 1;
#X connect 34 0 33 0;
#X connect 35 0 39 0;
#X connect 36 0 43 0;
#X connect 37 0 38 4;
#X connect 38 0 49 0;
#X connect 39 0 40 0;
#X connect 40 0 38 2;
#X connect 41 0 42 0;
#X connect 41 1 42 1;
#X connect 42 0 35 0;
#X connect 43 0 44 0;
#X connect 44 0 38 3;
#X connect 45 0 41 0;
#X connect 46 0 36 0;
#X connect 47 0 37 0;
#X connect 48 0 53 0;
#X connect 50 0 56 5;
#X connect 51 0 52 0;
#X connect 52 0 55 5;
#X connect 53 0 54 0;
#X connect 54 0 38 5;
#X connect 55 0 9 0;
#X connect 56 0 32 0;
#X restore 386 125 pd envelopes;
#X obj 504 45 list trim;
#X obj 504 91 u_loader s_czz_synth-\$1 \$0;
#X obj 707 515 *~ 5;
#X obj 512 755 *~, f 6;
#X text 562 753 extra gain needed;
#X obj 707 455 r \$0-mod3d;
#X text 115 673 ajf2010;
#X obj 234 364 *~;
#X obj 232 529 r~ \$0-e1;
#X obj 231 564 *~;
#X obj 231 586 *~;
#X obj 230 639 *~;
#X obj 273 559 noise~;
#X obj 486 586 *~;
#X obj 519 586 *~;
#X obj 272 603 hip~ 500;
#X obj 512 777 hip~ 5;
#X obj 272 581 *~ 0.3;
#X obj 459 696 vcf~ 2;
#X obj 156 130 +;
#X obj 156 154 mtof;
#X obj 156 176 sig~;
#X floatatom 237 93 5 0 0 0 - - -;
#X obj 201 58 r czz-\$2-trans;
#X obj 320 84 * -1;
#X obj 320 106 + 1;
#X obj 320 174 * -1;
#X obj 320 197 + 1;
#X obj 320 128 t f f;
#X obj 320 150 *;
#X obj 459 502 s_blsquare \$2;
#X obj 720 29 inlet ctrl;
#X obj 741 105 route 0 2;
#X obj 699 150 - 0.5;
#X obj 693 204 t b f;
#X text 764 159 PB = 0..1 \, but its biploar -1 to 1 \, so (x-0.5 *
2 * 48);
#X obj 156 107 + 0;
#X obj 844 89 r pb_range-\$2;
#X obj 699 171 * 2;
#X obj 844 110 * 2;
#X connect 0 0 53 0;
#X connect 1 0 6 0;
#X connect 2 0 3 0;
#X connect 3 0 89 0;
#X connect 3 1 4 0;
#X connect 4 0 77 0;
#X connect 5 0 21 0;
#X connect 6 0 5 0;
#X connect 11 0 37 1;
#X connect 11 0 38 1;
#X connect 12 0 37 0;
#X connect 12 0 38 0;
#X connect 13 0 14 0;
#X connect 14 0 24 0;
#X connect 15 0 25 0;
#X connect 16 0 15 0;
#X connect 17 0 56 0;
#X connect 18 0 19 1;
#X connect 19 0 83 1;
#X connect 20 0 18 0;
#X connect 21 0 22 0;
#X connect 23 0 25 1;
#X connect 23 0 24 1;
#X connect 24 0 28 0;
#X connect 25 0 19 0;
#X connect 26 0 27 0;
#X connect 27 0 28 1;
#X connect 28 0 49 2;
#X connect 29 0 71 1;
#X connect 30 0 34 0;
#X connect 31 0 33 0;
#X connect 32 0 31 0;
#X connect 33 0 34 1;
#X connect 34 0 29 0;
#X connect 35 0 12 0;
#X connect 36 0 35 0;
#X connect 37 0 49 0;
#X connect 38 0 83 0;
#X connect 39 0 41 0;
#X connect 40 0 60 0;
#X connect 40 0 60 1;
#X connect 41 0 40 0;
#X connect 42 0 40 1;
#X connect 42 0 48 0;
#X connect 43 0 23 0;
#X connect 44 0 66 0;
#X connect 44 0 66 1;
#X connect 44 0 67 0;
#X connect 44 0 67 1;
#X connect 45 0 47 0;
#X connect 46 0 45 0;
#X connect 47 0 48 1;
#X connect 48 0 49 1;
#X connect 49 0 71 0;
#X connect 50 0 54 0;
#X connect 50 1 8 0;
#X connect 53 0 50 0;
#X connect 54 0 51 0;
#X connect 55 0 56 1;
#X connect 56 0 69 0;
#X connect 58 0 55 0;
#X connect 60 0 12 1;
#X connect 61 0 62 0;
#X connect 61 0 62 1;
#X connect 62 0 63 0;
#X connect 62 0 63 1;
#X connect 63 0 64 0;
#X connect 64 0 71 0;
#X connect 65 0 70 0;
#X connect 66 0 30 1;
#X connect 66 0 30 0;
#X connect 67 0 17 1;
#X connect 68 0 64 1;
#X connect 69 0 9 0;
#X connect 70 0 68 0;
#X connect 71 1 17 0;
#X connect 72 0 73 0;
#X connect 72 0 1 0;
#X connect 73 0 74 0;
#X connect 74 0 10 0;
#X connect 76 0 72 1;
#X connect 76 0 75 0;
#X connect 77 0 78 0;
#X connect 78 0 81 0;
#X connect 79 0 80 0;
#X connect 80 0 7 0;
#X connect 81 0 82 0;
#X connect 81 1 82 1;
#X connect 82 0 79 0;
#X connect 83 0 71 0;
#X connect 84 0 85 0;
#X connect 85 0 86 0;
#X connect 86 0 91 0;
#X connect 87 0 89 0;
#X connect 87 1 89 1;
#X connect 89 0 72 0;
#X connect 90 0 92 0;
#X connect 91 0 87 0;
#X connect 92 0 91 1;
