#N canvas -56 44 1370 729 10;
#X obj 504 62 r notesIn-\$1;
#X obj 334 495 s notesOut-\$1;
#X obj 18 130 inlet~ inL;
#X obj 103 130 inlet~ inR;
#X obj 132 495 outlet~ outR;
#X obj 18 495 outlet~ outL;
#X obj 203 131 r auxIn-\$1;
#X obj 202 154 r expIn-\$1;
#X obj 202 179 r fsIn-\$1;
#X msg 1453 646 bypass \$1;
#X msg 1206 646 easter_egg \$1;
#X msg 1344 646 seed \$1;
#X obj 68 316 lmnts~;
#X obj 12 264 r lmnts_param-\$1;
#X obj 966 710 s lmnts_param-\$1;
#X obj 1207 578 r l_easter_egg-\$1;
#X obj 1344 578 r l_seed-\$1;
#X obj 1454 578 r l_bypass-\$1;
#X msg 799 122 contour \$1;
#X msg 504 394 pitch \$1;
#X obj 504 323 +;
#X obj 504 184 spigot 0;
#X msg 567 349 gate \$1;
#X obj 504 131 - 60;
#X obj 567 281 tgl 15 0 empty empty empty 17 7 0 10 -262144 -1 -1 0
1;
#X obj 567 183 > 0;
#X obj 799 86 / 100;
#X obj 906 277 s lmnts_param-\$1;
#X obj 799 48 r l_contour-\$1;
#X msg 906 122 bow_level \$1;
#X msg 1011 122 bow_timbre \$1;
#X obj 904 86 / 100;
#X obj 1010 86 / 100;
#X obj 904 48 r l_bow_level-\$1;
#X obj 1010 48 r l_bow_timbre-\$1;
#X msg 1128 122 blow_level \$1;
#X msg 1371 122 blow_flow \$1;
#X msg 1246 122 blow_timbre \$1;
#X obj 1128 86 / 100;
#X obj 1246 86 / 100;
#X obj 1371 86 / 100;
#X obj 1128 47 r l_blow_level-\$1;
#X obj 1246 47 r l_blow_timbre-\$1;
#X obj 1371 47 r l_blow_flow-\$1;
#X msg 693 422 strike_level \$1;
#X msg 963 422 strike_mallet \$1;
#X msg 821 422 strike_timbre \$1;
#X obj 693 382 / 100;
#X obj 821 382 / 100;
#X obj 963 382 / 100;
#X obj 964 492 s lmnts_param-\$1;
#X obj 693 342 r l_strike_level-\$1;
#X obj 821 342 r l_strike_timbre-\$1;
#X obj 963 342 r l_strike_mallet-\$1;
#X msg 1109 422 space \$1;
#X msg 1197 422 geometry \$1;
#X msg 1315 422 brightness \$1;
#X msg 1444 422 damping \$1;
#X obj 1110 382 / 100;
#X obj 1197 382 / 100;
#X obj 1315 369 / 100;
#X obj 1444 382 / 100;
#X obj 1110 341 r l_space-\$1;
#X obj 1197 341 r l_geometry-\$1;
#X obj 1315 341 r l_brightness-\$1;
#X obj 1444 341 r l_damping-\$1;
#X msg 1075 646 mod_depth \$1;
#X msg 717 646 resonator \$1;
#X msg 857 646 position \$1;
#X obj 967 608 / 64;
#X msg 967 646 mod_pitch \$1;
#X text 726 672 disabled;
#X obj 857 608 / 100;
#X obj 1075 608 / 100;
#X obj 857 578 r l_position-\$1;
#X obj 967 578 r l_modpitch-\$1;
#X obj 1075 578 r l_moddepth-\$1;
#X obj 717 578 r l_resonator-\$1;
#X obj 431 495 s ctrlOut-\$1;
#X obj 341 245 - 0.5;
#X obj 341 298 t b f;
#X obj 504 232 + 0;
#X obj 341 149 unpack 0 0 0;
#X obj 341 125 r ctrlIn-\$1;
#X obj 1315 394 +;
#X obj 366 204 t b f;
#X obj 617 25 r l_tune-\$1;
#X obj 631 127 + 0;
#X obj 696 65 / 100;
#X obj 696 27 r l_finetune-\$1;
#X obj 696 86 t b f;
#X obj 630 174 t b f;
#X obj 504 344 / 64;
#X obj 425 173 r pb_range-\$1;
#X obj 425 194 * 2;
#X obj 341 266 * 2;
#X obj 341 172 route 0 2 123;
#X msg 664 234 gate 0;
#X obj 504 103 poly 1 1;
#X connect 0 0 98 0;
#X connect 2 0 12 0;
#X connect 3 0 12 1;
#X connect 9 0 14 0;
#X connect 10 0 14 0;
#X connect 11 0 14 0;
#X connect 12 0 5 0;
#X connect 12 1 4 0;
#X connect 13 0 12 0;
#X connect 15 0 10 0;
#X connect 16 0 11 0;
#X connect 17 0 9 0;
#X connect 18 0 27 0;
#X connect 19 0 27 0;
#X connect 20 0 92 0;
#X connect 21 0 81 0;
#X connect 22 0 27 0;
#X connect 23 0 21 0;
#X connect 24 0 22 0;
#X connect 25 0 24 0;
#X connect 26 0 18 0;
#X connect 28 0 26 0;
#X connect 29 0 27 0;
#X connect 30 0 27 0;
#X connect 31 0 29 0;
#X connect 32 0 30 0;
#X connect 33 0 31 0;
#X connect 34 0 32 0;
#X connect 35 0 27 0;
#X connect 36 0 27 0;
#X connect 37 0 27 0;
#X connect 38 0 35 0;
#X connect 39 0 37 0;
#X connect 40 0 36 0;
#X connect 41 0 38 0;
#X connect 42 0 39 0;
#X connect 43 0 40 0;
#X connect 44 0 50 0;
#X connect 45 0 50 0;
#X connect 46 0 50 0;
#X connect 47 0 44 0;
#X connect 48 0 46 0;
#X connect 49 0 45 0;
#X connect 51 0 47 0;
#X connect 52 0 48 0;
#X connect 53 0 49 0;
#X connect 54 0 50 0;
#X connect 55 0 50 0;
#X connect 56 0 50 0;
#X connect 57 0 50 0;
#X connect 58 0 54 0;
#X connect 59 0 55 0;
#X connect 60 0 84 0;
#X connect 61 0 57 0;
#X connect 62 0 58 0;
#X connect 63 0 59 0;
#X connect 64 0 60 0;
#X connect 65 0 61 0;
#X connect 66 0 14 0;
#X connect 68 0 14 0;
#X connect 69 0 70 0;
#X connect 70 0 14 0;
#X connect 72 0 68 0;
#X connect 73 0 66 0;
#X connect 74 0 72 0;
#X connect 75 0 69 0;
#X connect 76 0 73 0;
#X connect 77 0 67 0;
#X connect 79 0 95 0;
#X connect 80 0 81 0;
#X connect 80 1 81 1;
#X connect 81 0 20 0;
#X connect 82 0 96 0;
#X connect 83 0 82 0;
#X connect 84 0 56 0;
#X connect 85 0 84 0;
#X connect 85 1 84 1;
#X connect 86 0 87 0;
#X connect 87 0 91 0;
#X connect 88 0 90 0;
#X connect 89 0 88 0;
#X connect 90 0 87 0;
#X connect 90 1 87 1;
#X connect 91 0 20 0;
#X connect 91 1 20 1;
#X connect 92 0 19 0;
#X connect 93 0 94 0;
#X connect 94 0 95 1;
#X connect 95 0 80 0;
#X connect 96 0 79 0;
#X connect 96 1 85 0;
#X connect 96 2 97 0;
#X connect 97 0 27 0;
#X connect 98 1 23 0;
#X connect 98 2 25 0;
#X connect 98 2 21 1;
