#N canvas 556 516 1318 828 10;
#N canvas 766 448 894 536 textdisplay 1;
#X obj 1 1 cnv 25 300 25 empty text1 empty 0 12 0 14 -233017 -66577
0;
#X obj 1 27 cnv 25 300 25 empty text2 empty 0 12 0 14 -233017 -66577
0;
#X obj 1 53 cnv 25 300 25 empty text3 empty 0 12 0 14 -233017 -66577
0;
#X obj 1 79 cnv 25 300 25 empty text4 empty 0 12 0 14 -233017 -66577
0;
#X obj 1 105 cnv 25 300 25 empty text5 empty 0 12 0 14 -233017 -66577
0;
#X obj 28 294 r oscIn;
#X msg 29 439 label \$1;
#X obj 29 415 symbol;
#X obj 29 463 s text1;
#X msg 92 438 label \$1;
#X obj 92 414 symbol;
#X obj 92 462 s text2;
#X msg 153 438 label \$1;
#X obj 153 414 symbol;
#X msg 217 438 label \$1;
#X obj 217 414 symbol;
#X msg 278 437 label \$1;
#X obj 278 413 symbol;
#X obj 153 462 s text3;
#X obj 217 462 s text4;
#X obj 278 461 s text5;
#X msg 399 437 label \$1;
#X obj 399 413 symbol;
#X obj 399 461 s text1;
#X msg 462 436 label \$1;
#X obj 462 412 symbol;
#X obj 462 460 s text2;
#X msg 523 436 label \$1;
#X obj 523 412 symbol;
#X msg 587 436 label \$1;
#X obj 587 412 symbol;
#X msg 648 435 label \$1;
#X obj 648 411 symbol;
#X obj 523 460 s text3;
#X obj 587 460 s text4;
#X obj 648 459 s text5;
#X obj 397 349 routeOSC /clearText;
#X obj 399 378 t b;
#X obj 28 318 routeOSC /text;
#X obj 28 350 route 1 2 3 4 5;
#X connect 5 0 36 0;
#X connect 5 0 38 0;
#X connect 6 0 8 0;
#X connect 7 0 6 0;
#X connect 9 0 11 0;
#X connect 10 0 9 0;
#X connect 12 0 18 0;
#X connect 13 0 12 0;
#X connect 14 0 19 0;
#X connect 15 0 14 0;
#X connect 16 0 20 0;
#X connect 17 0 16 0;
#X connect 21 0 23 0;
#X connect 22 0 21 0;
#X connect 24 0 26 0;
#X connect 25 0 24 0;
#X connect 27 0 33 0;
#X connect 28 0 27 0;
#X connect 29 0 34 0;
#X connect 30 0 29 0;
#X connect 31 0 35 0;
#X connect 32 0 31 0;
#X connect 36 0 37 0;
#X connect 37 0 22 0;
#X connect 37 0 25 0;
#X connect 37 0 28 0;
#X connect 37 0 30 0;
#X connect 37 0 32 0;
#X connect 38 0 39 0;
#X connect 39 0 7 0;
#X connect 39 1 10 0;
#X connect 39 2 13 0;
#X connect 39 3 15 0;
#X connect 39 4 17 0;
#X coords 0 0 305 135 305 135 2 0 0;
#X restore 54 291 pd textdisplay;
#X obj 53 63 ctrl P1;
#N canvas 1428 660 576 469 nav 0;
#X obj 10 3 bng 30 250 50 0 NavUp empty empty 17 7 0 10 -262144 -1
-1;
#X obj 10 103 bng 30 250 50 0 NavDown empty empty 17 7 0 10 -262144
-1 -1;
#X obj 40 50 bng 30 250 50 0 NavActivate empty empty 17 7 0 10 -204786
-4034 -4034;
#X obj 23 275 s oscOut;
#X obj 23 151 r NavUp;
#X msg 23 232 send /NavUp 1;
#X obj 118 275 s oscOut;
#X obj 118 151 r NavDown;
#X msg 118 232 send /NavDown 1;
#X obj 226 276 s oscOut;
#X obj 226 152 r NavActivate;
#X msg 226 233 send /NavActivate 1;
#X connect 4 0 5 0;
#X connect 5 0 3 0;
#X connect 7 0 8 0;
#X connect 8 0 6 0;
#X connect 10 0 11 0;
#X connect 11 0 9 0;
#X coords 0 9 85 135 85 135 2 0 0;
#X restore 364 291 pd nav;
#N canvas 1154 512 1107 682 init 1;
#X obj 22 277 tgl 15 0 empty empty empty 17 7 0 10 -262144 -1 -1 0
1;
#X obj 345 207 unpackOSC;
#X obj 24 137 packOSC;
#X obj 24 109 r oscOut;
#X obj 230 52 t b b;
#X obj 230 24 loadbang;
#X obj 345 231 s oscIn;
#X text 135 291 stuff going out (from patch)...;
#X text 47 278 connected to mother background program;
#X obj 22 192 list prepend send;
#X obj 22 213 list trim;
#X obj 22 254 netsend -u -b;
#X obj 345 183 netreceive -u -b;
#X msg 348 137 listen 8000;
#X msg 95 135 connect localhost 8001;
#X obj 195 19 bng 15 250 50 0 empty empty empty 17 7 0 10 -262144 -1
-1;
#X obj 486 171 print;
#X obj 413 270 print;
#X connect 1 0 6 0;
#X connect 1 0 17 0;
#X connect 2 0 9 0;
#X connect 3 0 2 0;
#X connect 4 0 14 0;
#X connect 4 1 13 0;
#X connect 5 0 4 0;
#X connect 9 0 10 0;
#X connect 10 0 11 0;
#X connect 11 0 0 0;
#X connect 12 0 1 0;
#X connect 13 0 12 0;
#X connect 13 0 16 0;
#X connect 14 0 11 0;
#X connect 15 0 4 0;
#X restore 56 447 pd init;
#X obj 52 180 ctrl P5;
#X obj 163 63 ctrl P2;
#X obj 270 62 ctrl P3;
#X obj 378 62 ctrl P4;
#X obj 160 180 ctrl P6;
#X obj 272 181 ctrl P7;
#X obj 379 181 ctrl P8;
