#N canvas 68 517 1318 828 10;
#X declare -path externals;
#X obj 55 52 ctrl P1;
#N canvas 1428 660 576 469 nav 0;
#X obj 10 3 bng 30 250 50 0 NavPrev empty empty 17 7 0 10 -262144 -1
-1;
#X obj 10 103 bng 30 250 50 0 NavNext empty empty 17 7 0 10 -262144
-1 -1;
#X obj 40 50 bng 30 250 50 0 NavActivate empty empty 17 7 0 10 -204786
-4034 -4034;
#X obj 23 275 s oscOut;
#X obj 124 275 s oscOut;
#X obj 226 276 s oscOut;
#X obj 226 152 r NavActivate;
#X msg 226 233 send /NavActivate 1;
#X obj 23 151 r NavPrev;
#X obj 124 151 r NavNext;
#X msg 23 232 send /NavPrev 1;
#X msg 124 232 send /NavNext 1;
#X connect 6 0 7 0;
#X connect 7 0 5 0;
#X connect 8 0 10 0;
#X connect 9 0 11 0;
#X connect 10 0 3 0;
#X connect 11 0 4 0;
#X coords 0 9 85 135 85 135 2 0 0;
#X restore 380 342 pd nav;
#X obj 52 170 ctrl P5;
#X obj 162 52 ctrl P2;
#X obj 270 52 ctrl P3;
#X obj 378 52 ctrl P4;
#X obj 160 170 ctrl P6;
#X obj 272 171 ctrl P7;
#X obj 379 171 ctrl P8;
#N canvas 1127 601 677 632 moduletitle 0;
#X obj 39 6 cnv 15 350 25 empty moduletitle Polybeats 2 12 0 14 -233017
-66577 0;
#X obj 32 343 r oscIn;
#X obj 34 402 symbol;
#X obj 5 6 bng 25 250 50 0 ModPrev empty Prev 0 30 0 10 -262144 -1
-1;
#X obj 167 443 s oscOut;
#X obj 291 455 s oscOut;
#X obj 396 5 bng 25 250 50 0 ModNext empty Next 0 30 0 10 -262144 -1
-1;
#X obj 33 373 routeOSC /module;
#X obj 35 452 s moduletitle;
#X msg 167 412 send /ModulePrev 1;
#X msg 291 412 send /ModuleNext 1;
#X obj 291 377 r ModNext;
#X obj 166 375 r ModPrev;
#X msg 35 428 label \$1;
#X connect 1 0 7 0;
#X connect 2 0 13 0;
#X connect 7 0 2 0;
#X connect 9 0 4 0;
#X connect 10 0 5 0;
#X connect 11 0 10 0;
#X connect 12 0 9 0;
#X connect 13 0 8 0;
#X coords 0 0 1 1 425 40 2 0 0;
#X restore 53 4 pd moduletitle;
#N canvas 1127 601 677 632 pagetitle 0;
#X obj 39 6 cnv 15 350 25 empty pagetitle Main 2 12 0 14 -233017 -66577
0;
#X obj 32 343 r oscIn;
#X obj 33 373 routeOSC /page;
#X obj 34 402 symbol;
#X obj 5 6 bng 25 250 50 0 PagePrev empty Prev 0 30 0 10 -262144 -1
-1;
#X obj 167 443 s oscOut;
#X obj 291 455 s oscOut;
#X obj 291 377 r PageNext;
#X obj 166 375 r PagePrev;
#X msg 167 412 send /PagePrev 1;
#X msg 291 412 send /PageNext 1;
#X obj 396 5 bng 25 250 50 0 PageNext empty Next 0 30 0 10 -262144
-1 -1;
#X obj 35 452 s pagetitle;
#X msg 35 428 label \$1;
#X connect 1 0 2 0;
#X connect 2 0 3 0;
#X connect 3 0 13 0;
#X connect 7 0 10 0;
#X connect 8 0 9 0;
#X connect 9 0 5 0;
#X connect 10 0 6 0;
#X connect 13 0 12 0;
#X coords 0 0 1 1 425 40 2 0 0;
#X restore 53 285 pd pagetitle;
#N canvas 1279 248 1107 682 connect 0;
#X obj 48 426 tgl 15 0 empty empty empty 17 7 0 10 -262144 -1 -1 1
1;
#X obj 518 359 unpackOSC;
#X obj 50 286 packOSC;
#X obj 50 258 r oscOut;
#X obj 518 383 s oscIn;
#X text 161 440 stuff going out (from patch)...;
#X text 73 427 connected to mother background program;
#X obj 126 343 list prepend send;
#X obj 48 362 list trim;
#X obj 48 403 netsend -u -b;
#X obj 518 335 netreceive -u -b;
#X obj 195 4 inlet host;
#X obj 386 13 inlet localport;
#X msg 521 289 listen \$1;
#X msg 397 295 send /Connect \$1;
#X obj 192 218 symbol;
#X obj 252 368 print SEND:;
#X obj 390 329 s oscOut;
#X obj 652 341 print LISTEN:;
#X obj 462 219 int;
#X obj 392 222 int;
#X msg 225 292 disconnect;
#X obj 198 31 t b b b b b s;
#X msg 607 290 listen 0;
#X msg 199 267 connect \$1 6100;
#X connect 1 0 4 0;
#X connect 2 0 7 0;
#X connect 3 0 2 0;
#X connect 7 0 8 0;
#X connect 8 0 9 0;
#X connect 9 0 0 0;
#X connect 10 0 1 0;
#X connect 11 0 22 0;
#X connect 12 0 19 1;
#X connect 12 0 20 1;
#X connect 13 0 10 0;
#X connect 13 0 18 0;
#X connect 14 0 17 0;
#X connect 15 0 24 0;
#X connect 19 0 13 0;
#X connect 20 0 14 0;
#X connect 21 0 9 0;
#X connect 22 0 20 0;
#X connect 22 1 15 0;
#X connect 22 2 21 0;
#X connect 22 3 19 0;
#X connect 22 4 23 0;
#X connect 22 5 15 1;
#X connect 23 0 10 0;
#X connect 24 0 9 0;
#X connect 24 0 16 0;
#X restore 82 599 pd connect;
#X obj 86 514 loadbang;
#X obj 86 535 t b b;
#X obj 51 513 bng 15 250 50 0 empty empty empty 17 7 0 10 -262144 -1
-1;
#X obj 203 567 int 6101;
#X obj 83 567 symbol localhost;
#X obj 288 515 declare -path externals;
#X obj 54 343 menudisp;
#X connect 12 0 13 0;
#X connect 13 0 16 0;
#X connect 13 1 15 0;
#X connect 14 0 13 0;
#X connect 15 0 11 1;
#X connect 16 0 11 0;
