#N canvas 671 541 1090 544 10;
#X obj 1 1 cnv 25 300 25 empty text1 m0:Polybeats 0 12 0 14 -355 -262144
0;
#X obj 1 105 cnv 25 300 25 empty text5 Save 0 12 0 14 -195568 -262144
0;
#X obj 28 294 r oscIn;
#X msg 29 439 label \$1;
#X obj 29 415 symbol;
#X obj 29 463 s text1;
#X msg 92 438 label \$1;
#X obj 92 414 symbol;
#X obj 92 462 s text2;
#X msg 153 438 label \$1;
#X obj 153 414 symbol;
#X msg 217 438 label \$1;
#X obj 217 414 symbol;
#X msg 278 437 label \$1;
#X obj 278 413 symbol;
#X obj 153 462 s text3;
#X obj 217 462 s text4;
#X obj 278 461 s text5;
#X msg 399 437 label \$1;
#X obj 399 413 symbol;
#X obj 399 461 s text1;
#X msg 462 436 label \$1;
#X obj 462 412 symbol;
#X obj 462 460 s text2;
#X msg 523 436 label \$1;
#X obj 523 412 symbol;
#X msg 587 436 label \$1;
#X obj 587 412 symbol;
#X msg 648 435 label \$1;
#X obj 648 411 symbol;
#X obj 523 460 s text3;
#X obj 587 460 s text4;
#X obj 648 459 s text5;
#X obj 397 349 routeOSC /clearText;
#X obj 399 378 t b;
#X obj 28 318 routeOSC /text;
#X obj 28 350 route 1 2 3 4 5;
#X obj 367 259 s text1;
#X obj 439 42 r oscIn;
#X obj 439 63 routeOSC /selectText;
#X obj 440 93 t f b;
#X obj 440 155 sel 1 2 3 4 5;
#X msg 368 217 color 178 0 0;
#X msg 692 103 color 230 0 0;
#X msg 467 218 color 178 0 0;
#X msg 566 220 color 178 0 0;
#X msg 663 221 color 178 0 0;
#X msg 769 221 color 178 0 0;
#X obj 469 256 s text2;
#X obj 567 255 s text3;
#X obj 667 253 s text4;
#X obj 773 261 s text5;
#X obj 1 27 cnv 15 300 25 empty text2 Default 0 12 0 14 -195568 -262144
0;
#X obj 1 53 cnv 15 300 25 empty text3 Default 0 12 0 14 -195568 -262144
0;
#X obj 1 79 cnv 15 300 25 empty text4 Default 0 12 0 14 -195568 -262144
0;
#X connect 2 0 33 0;
#X connect 2 0 35 0;
#X connect 3 0 5 0;
#X connect 4 0 3 0;
#X connect 6 0 8 0;
#X connect 7 0 6 0;
#X connect 9 0 15 0;
#X connect 10 0 9 0;
#X connect 11 0 16 0;
#X connect 12 0 11 0;
#X connect 13 0 17 0;
#X connect 14 0 13 0;
#X connect 18 0 20 0;
#X connect 19 0 18 0;
#X connect 21 0 23 0;
#X connect 22 0 21 0;
#X connect 24 0 30 0;
#X connect 25 0 24 0;
#X connect 26 0 31 0;
#X connect 27 0 26 0;
#X connect 28 0 32 0;
#X connect 29 0 28 0;
#X connect 33 0 34 0;
#X connect 34 0 19 0;
#X connect 34 0 22 0;
#X connect 34 0 25 0;
#X connect 34 0 27 0;
#X connect 34 0 29 0;
#X connect 35 0 36 0;
#X connect 36 0 4 0;
#X connect 36 1 7 0;
#X connect 36 2 10 0;
#X connect 36 3 12 0;
#X connect 36 4 14 0;
#X connect 38 0 39 0;
#X connect 39 0 40 0;
#X connect 40 0 41 0;
#X connect 40 1 43 0;
#X connect 41 0 42 0;
#X connect 41 1 44 0;
#X connect 41 2 45 0;
#X connect 41 3 46 0;
#X connect 41 4 47 0;
#X connect 42 0 37 0;
#X connect 43 0 37 0;
#X connect 43 0 48 0;
#X connect 43 0 49 0;
#X connect 43 0 50 0;
#X connect 43 0 51 0;
#X connect 44 0 48 0;
#X connect 45 0 49 0;
#X connect 46 0 50 0;
#X connect 47 0 51 0;
#X coords 0 0 305 135 305 135 1 0 0;
