#N canvas 714 432 1692 690 10;
#X obj 304 186 r notesIn-\$1;
#X obj 304 491 s notesOut-\$1;
#X obj 421 9 r loadbang-\$1;
#X obj 25 186 inlet~ inL-\$1;
#X obj 135 186 inlet~ inR-\$1;
#X obj 27 491 outlet~ outL-\$1;
#X obj 136 491 outlet~ outR-\$1;
#X obj 424 185 r auxIn-\$1;
#X obj 423 208 r expIn-\$1;
#X obj 423 233 r fsIn-\$1;
#X obj 421 76 s aux-label-\$1;
#X obj 516 45 int 0;
#X obj 516 76 s aux-led-\$1;
#X obj 421 45 symbol;
#N canvas 266 101 1853 1209 overloop 0;
#X obj 43 386 sig~;
#X obj 43 408 lop~ 5;
#X obj 43 430 *~;
#X obj 74 540 *~;
#X obj 542 457 tgl 50 0 empty empty empty 17 7 0 100 -262144 -1 -1
0 1;
#X floatatom 612 532 5 0 0 0 - - -;
#X floatatom 838 551 5 0 0 0 - - -;
#X obj 727 484 tgl 50 0 empty empty empty 17 7 0 100 -262144 -1 -1
0 1;
#X obj 230 70 sig~;
#X obj 228 117 *~;
#X obj 146 166 *~;
#X obj 503 127 tgl 50 0 empty empty empty 17 7 0 100 -262144 -1 -1
0 1;
#X obj 654 387 + 1, f 4;
#X msg 497 434 1;
#X obj 544 206 sel 1 0;
#X msg 536 434 0;
#X msg 764 451 0;
#X msg 728 451 1;
#X obj 578 236 t b b b b;
#X obj 506 98 sel 1;
#X obj 752 171 - 59;
#X floatatom 812 393 5 0 0 0 - - -;
#X obj 808 416 t b b f;
#X obj 248 384 delay5sec 5;
#X obj 704 138 toggle-keys;
#X obj 653 53 stripnote;
#X obj 652 79 moses 60;
#X obj 704 106 moses 84;
#X obj 749 750 sel 0 1;
#X obj 502 650 sel 1;
#X obj 649 106 t b b;
#X obj 229 92 lop~ 20;
#X obj 612 388 i 1;
#X obj 749 198 abs;
#X obj 673 543 ==;
#X obj 713 651 spigot 1;
#X obj 600 759 delay 100;
#X msg 561 712 stop;
#X obj 611 691 spigot 1;
#X obj 844 837 f;
#X obj 471 757 f;
#X obj 165 127 *~ 3;
#X obj 59 14 inlet~ inR;
#X obj 134 14 inlet~ inL;
#X obj 152 639 outlet~ outL;
#X obj 271 642 outlet~ outR;
#X obj 232 49 / 100;
#X obj 649 2 r notesIn-\$1;
#X obj 230 14 r ol_ilevel-\$1;
#X obj 43 341 r ol_rlevel-\$1;
#X obj 43 361 / 100;
#X obj 264 234 r ol_delay-\$1;
#X obj 322 327 / 100;
#X obj 333 282 r ol_feedback-\$1;
#X obj 404 14 r fsIn-\$1;
#X obj 503 14 r auxIn-\$1;
#X obj 636 974 s aux-label-\$1;
#X obj 731 974 s aux-led-\$1;
#X msg 686 887 Stopped;
#X msg 798 897 Playing \$1.wav;
#X msg 562 886 Recording \$1.wav;
#X obj 402 857 r loadbang-\$1;
#X msg 451 884 Aux: Rec / Play;
#X msg 774 855 3;
#X msg 744 855 0;
#X msg 644 850 1;
#X msg 702 851 7;
#X obj 510 586 recorder 1 \$1;
#X obj 73 572 s~ recycle-\$1;
#X obj 322 425 r~ recorderin-\$1;
#X obj 146 204 s~ recorderin-\$1;
#X obj 608 658 r looped-\$1;
#X obj 729 581 player 0 \$1;
#X obj 126 290 catch~ sampout-\$1;
#X msg 417 909 0;
#X obj 620 429 moses 25;
#X msg 648 472 1;
#X obj 872 269 r loadbang-\$1;
#X obj 794 323 moses 1;
#X obj 764 356 + 24;
#X obj 822 244 - 1, f 4;
#X obj 799 191 t b b f;
#X msg 870 302 1;
#X obj 798 283 f;
#X msg 659 140 60;
#X obj 649 22 list split 2;
#X connect 0 0 1 0;
#X connect 1 0 2 0;
#X connect 1 0 2 1;
#X connect 2 0 3 1;
#X connect 3 0 68 0;
#X connect 4 0 29 0;
#X connect 4 0 34 0;
#X connect 4 0 67 0;
#X connect 5 0 40 1;
#X connect 5 0 67 1;
#X connect 5 0 80 0;
#X connect 6 0 39 1;
#X connect 6 0 72 1;
#X connect 7 0 35 0;
#X connect 7 0 72 0;
#X connect 8 0 31 0;
#X connect 9 0 41 0;
#X connect 10 0 70 0;
#X connect 11 0 14 0;
#X connect 12 0 32 1;
#X connect 13 0 4 0;
#X connect 14 0 13 0;
#X connect 14 1 18 0;
#X connect 15 0 4 0;
#X connect 16 0 7 0;
#X connect 17 0 7 0;
#X connect 18 0 30 0;
#X connect 18 1 32 0;
#X connect 18 2 16 0;
#X connect 18 3 15 0;
#X connect 19 0 11 0;
#X connect 20 0 33 0;
#X connect 21 0 22 0;
#X connect 22 0 17 0;
#X connect 22 1 16 0;
#X connect 22 2 6 0;
#X connect 23 0 3 0;
#X connect 23 0 44 0;
#X connect 23 0 45 0;
#X connect 24 0 16 0;
#X connect 24 1 20 0;
#X connect 25 0 26 0;
#X connect 26 1 27 0;
#X connect 27 0 24 0;
#X connect 28 0 64 0;
#X connect 28 0 58 0;
#X connect 28 1 63 0;
#X connect 28 1 39 0;
#X connect 29 0 65 0;
#X connect 29 0 37 0;
#X connect 29 0 40 0;
#X connect 30 0 84 0;
#X connect 30 1 24 1;
#X connect 31 0 9 0;
#X connect 31 0 9 1;
#X connect 32 0 12 0;
#X connect 32 0 75 0;
#X connect 33 0 81 0;
#X connect 34 0 35 1;
#X connect 34 0 38 1;
#X connect 35 0 28 0;
#X connect 36 0 63 0;
#X connect 37 0 36 0;
#X connect 38 0 66 0;
#X connect 38 0 36 0;
#X connect 39 0 59 0;
#X connect 40 0 60 0;
#X connect 41 0 10 1;
#X connect 42 0 10 0;
#X connect 43 0 10 0;
#X connect 46 0 8 0;
#X connect 47 0 85 0;
#X connect 48 0 46 0;
#X connect 49 0 50 0;
#X connect 50 0 0 0;
#X connect 51 0 23 1;
#X connect 52 0 23 2;
#X connect 53 0 52 0;
#X connect 54 0 19 0;
#X connect 55 0 19 0;
#X connect 58 0 56 0;
#X connect 59 0 56 0;
#X connect 60 0 56 0;
#X connect 61 0 62 0;
#X connect 61 0 74 0;
#X connect 62 0 56 0;
#X connect 63 0 57 0;
#X connect 64 0 57 0;
#X connect 65 0 57 0;
#X connect 66 0 57 0;
#X connect 69 0 44 0;
#X connect 69 0 45 0;
#X connect 71 0 38 0;
#X connect 73 0 23 0;
#X connect 74 0 57 0;
#X connect 75 0 5 0;
#X connect 75 1 76 0;
#X connect 76 0 5 0;
#X connect 76 0 32 1;
#X connect 77 0 82 0;
#X connect 78 0 79 0;
#X connect 78 1 21 0;
#X connect 79 0 21 0;
#X connect 80 0 83 1;
#X connect 81 0 83 0;
#X connect 81 1 80 0;
#X connect 81 2 80 1;
#X connect 82 0 32 0;
#X connect 83 0 78 0;
#X connect 84 0 24 0;
#X connect 85 0 25 0;
#X restore 70 335 pd overloop;
#X obj 416 299 r ctrlIn-\$1;
#X obj 416 325 s ctrlOut-\$1;
#X connect 2 0 11 0;
#X connect 2 0 13 0;
#X connect 3 0 14 0;
#X connect 4 0 14 1;
#X connect 11 0 12 0;
#X connect 13 0 10 0;
#X connect 14 0 5 0;
#X connect 14 1 6 0;
