#N canvas 614 409 1691 881 10;
#X msg 333 317 start;
#X obj 304 24 tgl 50 0 empty empty empty 17 7 0 100 -262144 -1 -1 0
1;
#X obj 330 237 delay 100;
#X text 552 582 offset cause we waited a little;
#X msg 369 385 start;
#X obj 369 353 t b b;
#X obj 327 168 delay 5;
#X obj 304 -10 inlet;
#X obj 290 702 readsf~;
#X obj 372 306 i \$1;
#X obj 582 79 inlet;
#X msg 203 571 0;
#X obj 577 681 line~;
#X obj 577 703 *~;
#X obj 284 793 *~;
#X msg 569 656 0 5;
#X obj 327 138 t b b;
#X text 406 238 a little time to close file if it was just recorded
;
#X obj 332 270 t b b b;
#X msg 254 573 1 5;
#X obj 211 230 delay 5;
#X obj 211 200 t b b;
#X msg 253 277 0 5;
#X obj 304 97 sel 0 1;
#X obj 794 75 inlet;
#X text 790 132 mute;
#X obj 353 732 s looped-\$2;
#X obj 285 829 throw~ sampout-\$2;
#X obj 538 387 list;
#N canvas 1507 353 803 448 sampleDir 1;
#X obj 442 163 s rackMsgs;
#X obj 74 387 outlet;
#X obj 245 387 outlet;
#X text 81 25 samples dir bang;
#X obj 76 47 inlet kit;
#X obj 442 186 r rackMediaDir;
#X obj 152 46 inlet slot;
#X obj 80 88 t b f;
#X obj 154 90 t b f;
#X obj 244 328 t b l;
#X obj 370 14 r loadbang-\$2;
#X obj 442 84 symbol \$2;
#X obj 441 219 symbol \$2;
#X obj 249 276 pack s f f;
#X obj 535 189 r play-rackMediaDir-\$2;
#X msg 442 138 getsetting mediaDir ./data play-rackMediaDir-\$1;
#X connect 4 0 7 0;
#X connect 5 0 12 0;
#X connect 6 0 8 0;
#X connect 7 0 13 0;
#X connect 7 1 13 1;
#X connect 8 0 13 0;
#X connect 8 1 13 2;
#X connect 9 0 1 0;
#X connect 9 1 2 0;
#X connect 10 0 11 0;
#X connect 11 0 15 0;
#X connect 12 0 13 0;
#X connect 13 0 9 0;
#X connect 14 0 12 0;
#X connect 15 0 0 0;
#X restore 538 356 pd sampleDir;
#X msg 538 459 open \$1/samples/kit-\$2/\$3.wav 4410;
#X obj 538 323 r s_kit-\$2;
#X obj 581 533 print open player;
#X connect 0 0 8 0;
#X connect 1 0 23 0;
#X connect 2 0 18 0;
#X connect 4 0 8 0;
#X connect 5 0 4 0;
#X connect 5 1 28 0;
#X connect 6 0 2 0;
#X connect 7 0 1 0;
#X connect 8 0 14 0;
#X connect 8 1 5 0;
#X connect 8 1 26 0;
#X connect 9 0 29 1;
#X connect 9 0 28 1;
#X connect 10 0 9 1;
#X connect 11 0 8 0;
#X connect 12 0 13 0;
#X connect 12 0 13 1;
#X connect 13 0 14 1;
#X connect 14 0 27 0;
#X connect 15 0 12 0;
#X connect 16 0 6 0;
#X connect 16 1 15 0;
#X connect 18 0 19 0;
#X connect 18 1 0 0;
#X connect 18 2 9 0;
#X connect 19 0 12 0;
#X connect 20 0 11 0;
#X connect 21 0 20 0;
#X connect 21 1 22 0;
#X connect 22 0 12 0;
#X connect 23 0 21 0;
#X connect 23 1 16 0;
#X connect 24 0 15 0;
#X connect 28 0 30 0;
#X connect 29 0 28 0;
#X connect 29 1 28 1;
#X connect 30 0 8 0;
#X connect 30 0 32 0;
#X connect 31 0 29 0;
