#N canvas 437 263 1086 1065 10;
#X msg 185 450 start;
#X msg 142 450 stop;
#X obj 352 71 tgl 50 0 empty empty empty 17 7 0 100 -262144 -1 -1 0
1;
#X obj 362 168 sel 1 0;
#X obj 273 686 writesf~;
#X obj 435 229 t b b;
#X obj 436 257 delay 5;
#X obj 489 369 line~;
#X obj 489 391 *~;
#X obj 321 535 *~;
#X msg 505 340 0 5;
#X obj 314 375 t b b;
#X msg 323 289 1 5;
#X obj 333 199 t b b;
#X obj 334 227 delay 5;
#X obj 315 21 inlet;
#X obj 338 261 t b b;
#X obj 340 406 i \$1;
#X obj 639 88 inlet;
#X obj 383 486 r~ recorderin-\$2;
#X obj 285 487 r~ recycle-\$2;
#X obj 553 504 list;
#N canvas 947 421 803 448 sampleDir 1;
#X obj 442 163 s rackMsgs;
#X obj 74 387 outlet;
#X obj 245 387 outlet;
#X text 81 25 samples dir bang;
#X obj 76 47 inlet kit;
#X obj 442 186 r rackMediaDir;
#X obj 152 46 inlet slot;
#X obj 80 88 t b f;
#X obj 154 90 t b f;
#X obj 244 328 t b l;
#X obj 370 14 r loadbang-\$2;
#X obj 442 84 symbol \$2;
#X obj 441 219 symbol \$2;
#X obj 249 276 pack s f f;
#X obj 535 189 r rec-rackMediaDir-\$2;
#X msg 442 138 getsetting mediaDir ./data rec-rackMediaDir-\$1;
#X connect 4 0 7 0;
#X connect 5 0 12 0;
#X connect 6 0 8 0;
#X connect 7 0 13 0;
#X connect 7 1 13 1;
#X connect 8 0 13 0;
#X connect 8 1 13 2;
#X connect 9 0 1 0;
#X connect 9 1 2 0;
#X connect 10 0 11 0;
#X connect 11 0 15 0;
#X connect 12 0 13 0;
#X connect 13 0 9 0;
#X connect 14 0 12 0;
#X connect 15 0 0 0;
#X restore 540 474 pd sampleDir;
#X obj 540 441 r s_kit-\$2;
#X msg 540 577 open \$1/samples/kit-\$2/\$3.wav;
#X obj 537 631 print open recorder;
#X connect 0 0 4 0;
#X connect 1 0 4 0;
#X connect 2 0 3 0;
#X connect 3 0 13 0;
#X connect 3 1 5 0;
#X connect 5 0 6 0;
#X connect 5 1 10 0;
#X connect 6 0 1 0;
#X connect 7 0 8 0;
#X connect 7 0 8 1;
#X connect 8 0 9 1;
#X connect 9 0 4 0;
#X connect 10 0 7 0;
#X connect 11 0 0 0;
#X connect 11 1 17 0;
#X connect 12 0 7 0;
#X connect 13 0 14 0;
#X connect 13 1 10 0;
#X connect 14 0 16 0;
#X connect 15 0 2 0;
#X connect 16 0 12 0;
#X connect 16 1 11 0;
#X connect 17 0 22 1;
#X connect 18 0 17 1;
#X connect 19 0 9 0;
#X connect 20 0 9 0;
#X connect 21 0 24 0;
#X connect 22 0 21 0;
#X connect 22 1 21 1;
#X connect 23 0 22 0;
#X connect 24 0 4 0;
#X connect 24 0 25 0;
