#N canvas 122 75 465 469 10;
#X obj 181 96 f 0;
#X obj 160 122 ==;
#X obj 228 252 f 0;
#X obj 167 150 sel 1 0;
#X obj 149 64 t f f b f;
#X obj 166 200 tgl 15 0 empty empty empty 17 7 0 10 -262144 -1 -1 0
1;
#X msg 183 178 1;
#X obj 165 222 sel 0 1;
#X obj 161 29 inlet;
#X obj 220 288 outlet;
#X msg 270 183 0;
#X obj 289 30 inlet;
#X text 347 31 disable toggle;
#X obj 80 290 outlet;
#X connect 0 0 1 1;
#X connect 1 0 3 0;
#X connect 2 0 9 0;
#X connect 3 0 5 0;
#X connect 3 1 6 0;
#X connect 4 0 0 1;
#X connect 4 1 1 0;
#X connect 4 2 0 0;
#X connect 4 3 2 1;
#X connect 5 0 7 0;
#X connect 6 0 5 0;
#X connect 7 0 13 0;
#X connect 7 1 2 0;
#X connect 8 0 4 0;
#X connect 10 0 5 0;
#X connect 11 0 10 0;
