#N canvas 570 346 1082 924 10;
#X obj 304 545 +~;
#X obj 359 444 osc~;
#X obj 726 638 f;
#X msg 726 674 0 \$1;
#X obj 303 49 unpack;
#X obj 342 81 sel 0;
#X text 388 76 selects note off messages so we can set decay time later
, f 17;
#X text 345 295 convert it to signal so frequency will be constantly
updated;
#X obj 316 864 outlet~;
#X obj 356 474 *~;
#X text 764 641 decay time;
#X text 25 10 synth voice with waveform change;
#X obj 726 751 *~;
#X obj 133 685 osc~ 440;
#X obj 315 834 *~;
#X obj 305 571 /~ 4;
#X obj 266 684 s_blsquare;
#X msg 249 573 0;
#X msg 351 718 1;
#X msg 471 715 1;
#X msg 213 712 1;
#N canvas 7 50 727 452 triangle 0;
#X obj 130 207 outlet~;
#X obj 131 65 inlet~;
#N canvas 699 258 779 606 triangle 0;
#X obj 80 290 -~ 0.5;
#X obj 228 290 -~ 0.5;
#X obj 134 340 -~;
#X obj 220 480 outlet~;
#X obj 80 91 phasor~ 0;
#X text 131 55 frequency;
#X obj 228 236 wrap~;
#N canvas 0 50 540 420 4*$v1*(1-$v1) 0;
#X obj 182 177 *~ 4;
#X obj 132 177 sig~ 1;
#X obj 132 200 -~;
#X obj 132 228 *~;
#X obj 182 76 inlet~;
#X obj 132 253 outlet~;
#X connect 0 0 3 1;
#X connect 1 0 2 0;
#X connect 2 0 3 0;
#X connect 3 0 5 0;
#X connect 4 0 2 1;
#X connect 4 0 0 0;
#X restore 228 262 pd 4*$v1*(1-$v1);
#N canvas 0 50 540 420 4*$v1*(1-$v1) 0;
#X obj 182 177 *~ 4;
#X obj 132 177 sig~ 1;
#X obj 132 200 -~;
#X obj 132 228 *~;
#X obj 182 76 inlet~;
#X obj 132 253 outlet~;
#X connect 0 0 3 1;
#X connect 1 0 2 0;
#X connect 2 0 3 0;
#X connect 3 0 5 0;
#X connect 4 0 2 1;
#X connect 4 0 0 0;
#X restore 79 261 pd 4*$v1*(1-$v1);
#X text 489 64 tri-saw factor (0-1);
#X obj 80 54 inlet~;
#X obj 430 66 inlet;
#X obj 430 89 clip 0.01 0.99;
#X obj 294 372 line~;
#X obj 294 350 pack 0 10;
#N canvas 0 50 540 420 4*$f1*(1-$f1) 0;
#X obj 185 177 * 4;
#X obj 137 72 inlet;
#X msg 137 171 1 \$1;
#X obj 137 200 -;
#X obj 137 228 *;
#X obj 137 107 t a a;
#X obj 137 253 outlet;
#X connect 0 0 4 1;
#X connect 1 0 5 0;
#X connect 2 0 3 0;
#X connect 3 0 4 0;
#X connect 4 0 6 0;
#X connect 5 0 2 0;
#X connect 5 1 0 0;
#X restore 430 290 pd 4*$f1*(1-$f1);
#X obj 245 151 line~;
#X obj 245 129 pack 0 10;
#X obj 227 177 +~;
#X msg 245 98 0.5;
#X obj 220 414 /~;
#X msg 294 318 1;
#X obj 241 45 inlet;
#X obj 245 77 r loadbang-\$1;
#X obj 294 297 r loadbang-\$1;
#X connect 0 0 2 0;
#X connect 1 0 2 1;
#X connect 2 0 20 0;
#X connect 4 0 8 0;
#X connect 4 0 18 0;
#X connect 6 0 7 0;
#X connect 7 0 1 0;
#X connect 8 0 0 0;
#X connect 10 0 4 0;
#X connect 11 0 12 0;
#X connect 12 0 15 0;
#X connect 12 0 17 0;
#X connect 13 0 20 1;
#X connect 14 0 13 0;
#X connect 15 0 14 0;
#X connect 16 0 18 1;
#X connect 17 0 16 0;
#X connect 18 0 6 0;
#X connect 19 0 17 0;
#X connect 20 0 3 0;
#X connect 21 0 14 0;
#X connect 22 0 4 1;
#X connect 23 0 19 0;
#X connect 24 0 21 0;
#X restore 130 162 pd triangle;
#X text 202 48 slope;
#X msg 194 123 0.5;
#X obj 189 96 r loadbang-\$1;
#X connect 1 0 2 0;
#X connect 2 0 0 0;
#X connect 4 0 2 2;
#X connect 5 0 4 0;
#X restore 502 685 pd triangle;
#X obj 154 613 sel 0 1 2 3;
#X msg 582 722 1;
#X text 160 470 change waveform;
#X obj 122 548 delay 2;
#X obj 154 590 f;
#X obj 171 514 t b a b;
#X obj 132 743 smoothswitch;
#X obj 266 749 smoothswitch;
#X obj 390 742 smoothswitch;
#X obj 501 746 smoothswitch;
#X text 369 326 these control pitch modulation (speed and depth);
#X obj 726 605 t b b;
#X obj 726 703 vline~;
#X obj 888 609 t f b, f 10;
#X obj 888 571 * 0.00787402;
#X msg 888 636 \$1 5;
#X obj 391 683 s_blsaw;
#X obj 305 296 sig~;
#X obj 305 244 +;
#X obj 305 266 mtof;
#X obj 299 648 sig~ 0.5;
#X obj 744 525 r bp_decay-\$1;
#X obj 171 490 r bp_wave-\$1;
#X obj 323 219 r bp_trans-\$1;
#X obj 367 343 r bp_vrate-\$1;
#X obj 521 343 r bp_vdepth-\$1;
#X obj 304 24 inlet notes;
#X obj 566 17 inlet ctrl;
#X obj 732 381 t b f;
#X obj 521 406 +;
#X obj 732 338 * 100;
#X obj 524 84 - 0.5;
#X obj 304 193 + 1;
#X obj 518 160 t b f;
#X text 589 93 PB = 0..1 \, but its biploar -1 to 1 \, so (x-0.5 *
2 * 48);
#X obj 707 41 r pb_range-\$1;
#X obj 707 62 * 2;
#X obj 524 127 * 1;
#X obj 566 39 route 0 2 123;
#X obj 670 142 t b;
#X connect 0 0 15 0;
#X connect 1 0 9 0;
#X connect 2 0 3 0;
#X connect 3 0 34 0;
#X connect 4 0 54 0;
#X connect 4 1 5 0;
#X connect 5 0 33 0;
#X connect 5 1 36 0;
#X connect 9 0 0 1;
#X connect 12 0 14 1;
#X connect 13 0 28 0;
#X connect 14 0 8 0;
#X connect 15 0 13 0;
#X connect 15 0 16 0;
#X connect 15 0 21 0;
#X connect 15 0 38 0;
#X connect 16 0 29 0;
#X connect 17 0 28 1;
#X connect 17 0 29 1;
#X connect 17 0 30 1;
#X connect 17 0 31 1;
#X connect 18 0 29 1;
#X connect 19 0 30 1;
#X connect 20 0 28 1;
#X connect 21 0 31 0;
#X connect 22 0 20 0;
#X connect 22 1 18 0;
#X connect 22 2 19 0;
#X connect 22 3 23 0;
#X connect 23 0 31 1;
#X connect 25 0 26 0;
#X connect 26 0 22 0;
#X connect 27 0 25 0;
#X connect 27 1 26 1;
#X connect 27 2 17 0;
#X connect 28 0 14 0;
#X connect 29 0 14 0;
#X connect 30 0 14 0;
#X connect 31 0 14 0;
#X connect 33 0 2 0;
#X connect 34 0 12 1;
#X connect 34 0 12 0;
#X connect 35 0 37 0;
#X connect 36 0 35 0;
#X connect 37 0 34 0;
#X connect 38 0 30 0;
#X connect 39 0 0 0;
#X connect 40 0 41 0;
#X connect 41 0 39 0;
#X connect 42 0 16 1;
#X connect 43 0 2 1;
#X connect 44 0 27 0;
#X connect 45 0 40 1;
#X connect 46 0 1 0;
#X connect 47 0 51 0;
#X connect 48 0 4 0;
#X connect 49 0 60 0;
#X connect 50 0 51 0;
#X connect 50 1 51 1;
#X connect 51 0 9 1;
#X connect 52 0 50 0;
#X connect 53 0 59 0;
#X connect 54 0 40 0;
#X connect 55 0 54 0;
#X connect 55 1 54 1;
#X connect 57 0 58 0;
#X connect 58 0 59 1;
#X connect 59 0 55 0;
#X connect 60 0 53 0;
#X connect 60 1 52 0;
#X connect 60 2 61 0;
#X connect 61 0 33 0;
