#N canvas 22 50 997 848 10;
#X obj 364 212 sig~;
#X obj 158 308 *~ 1;
#X obj 533 232 sig~;
#X obj 513 371 *~;
#X obj 157 111 inlet~;
#X obj 364 117 inlet;
#X obj 533 134 inlet;
#X obj 363 645 *~ 1;
#X obj 362 712 outlet~;
#X obj 363 264 lop~ \$1;
#X text 166 157 signal;
#X text 395 162 Time in ms;
#X text 557 180 feedback 0-1;
#X obj 532 263 lop~ \$1;
#X obj 157 558 delwrite~ \$2del 3000;
#X obj 363 325 vd~ \$2del 3000;
#X connect 0 0 9 0;
#X connect 1 0 7 0;
#X connect 1 0 14 0;
#X connect 2 0 13 0;
#X connect 3 0 7 0;
#X connect 3 0 14 0;
#X connect 4 0 1 0;
#X connect 5 0 0 0;
#X connect 6 0 2 0;
#X connect 7 0 8 0;
#X connect 9 0 15 0;
#X connect 13 0 3 1;
#X connect 15 0 3 0;
