#N canvas 75 417 1508 745 10;
#X obj 304 186 r notesIn-\$1;
#X obj 304 671 s notesOut-\$1;
#X obj 25 186 inlet~ inL-\$1;
#X obj 135 186 inlet~ inR-\$1;
#X obj 27 671 outlet~ outL-\$1;
#X obj 136 671 outlet~ outR-\$1;
#X obj 424 185 r auxIn-\$1;
#X obj 423 208 r expIn-\$1;
#X obj 423 233 r fsIn-\$1;
#X obj 641 219 hip~;
#X obj 700 528 hip~ 5;
#X obj 641 395 delay3sec 5 \$1, f 52;
#X obj 700 506 c_xfade, f 65;
#X obj 1087 319 lop~ 10;
#X obj 801 72 r dly_time-\$1;
#X obj 950 72 r dly_fb-\$1;
#X obj 1085 72 r dly_dw-\$1;
#X text 652 30 C&G Simple 3 sec Delay Module with a hi-pass filter
;
#X obj 1085 144 / 100;
#X obj 950 118 / 100;
#X obj 661 72 r dly_hip-\$1;
#X obj 416 299 r ctrlIn-\$1;
#X obj 416 325 s ctrlOut-\$1;
#X connect 2 0 12 0;
#X connect 2 0 9 0;
#X connect 9 0 11 0;
#X connect 10 0 5 0;
#X connect 10 0 4 0;
#X connect 11 0 12 1;
#X connect 12 0 10 0;
#X connect 13 0 12 2;
#X connect 14 0 11 1;
#X connect 15 0 19 0;
#X connect 16 0 18 0;
#X connect 18 0 13 0;
#X connect 19 0 11 2;
#X connect 20 0 9 1;
