#N canvas 133 544 1540 726 10;
#X obj 304 186 r notesIn-\$1;
#X obj 23 112 KontrolModule \$1 U-default;
#X obj 304 491 s notesOut-\$1;
#X obj 23 9 r loaddefs-\$1;
#X msg 23 76 loaddefinitions \$1;
#X obj 181 9 r loadbang-\$1;
#X obj 181 76 print loading definiton for \$1;
#X obj 23 41 symbol;
#X obj 25 186 inlet~ inL-\$1;
#X obj 135 186 inlet~ inR-\$1;
#X obj 27 491 outlet~ outL-\$1;
#X obj 136 491 outlet~ outR-\$1;
#X obj 424 185 r auxIn-\$1;
#X obj 423 208 r expIn-\$1;
#X obj 423 233 r fsIn-\$1;
#X obj 181 45 print loaded:default into \$1, f 35;
#X obj 516 45 int 0;
#X obj 516 76 s aux-led-\$1;
#X obj 629 77 s aux-label-\$1;
#X obj 629 45 symbol;
#X obj 733 317 eseq 1 \$1;
#X obj 770 135 r master-ticks;
#N canvas 1147 317 588 535 cdivs 0;
#X obj 125 33 inlet;
#X obj 127 359 outlet;
#X obj 126 88 sel 0;
#X obj 126 109 f;
#X obj 128 236 % 32;
#X obj 171 150 + 1;
#X obj 182 33 inlet div;
#X obj 125 54 % 6;
#X obj 280 38 inlet clockmax;
#X connect 0 0 7 0;
#X connect 2 0 3 0;
#X connect 3 0 5 0;
#X connect 3 0 4 0;
#X connect 4 0 1 0;
#X connect 5 0 3 1;
#X connect 6 0 7 1;
#X connect 7 0 2 0;
#X connect 8 0 4 1;
#X restore 771 183 pd cdivs;
#X obj 887 44 r e_len_1-\$1;
#X obj 971 44 r e_len_2-\$1;
#X obj 1059 42 r e_len_3-\$1;
#X obj 1143 44 r e_len_4-\$1;
#X obj 887 101 * 1;
#X obj 887 124 * 1;
#X obj 887 147 * 1;
#X obj 888 74 max 1;
#X obj 942 74 max 1;
#X obj 1057 74 max 1;
#X obj 1111 74 max 1;
#X obj 812 317 eseq 2 \$1;
#X obj 892 317 eseq 3 \$1;
#X obj 971 317 eseq 4 \$1;
#X connect 0 0 2 0;
#X connect 3 0 7 0;
#X connect 3 0 6 0;
#X connect 4 0 1 0;
#X connect 5 0 15 0;
#X connect 5 0 16 0;
#X connect 5 0 19 0;
#X connect 7 0 4 0;
#X connect 8 0 10 0;
#X connect 9 0 11 0;
#X connect 16 0 17 0;
#X connect 19 0 18 0;
#X connect 21 0 22 0;
#X connect 22 0 20 0;
#X connect 22 0 34 0;
#X connect 22 0 35 0;
#X connect 22 0 36 0;
#X connect 23 0 30 0;
#X connect 24 0 31 0;
#X connect 25 0 32 0;
#X connect 26 0 33 0;
#X connect 27 0 28 0;
#X connect 28 0 29 0;
#X connect 29 0 22 2;
#X connect 30 0 27 0;
#X connect 31 0 27 1;
#X connect 32 0 28 1;
#X connect 33 0 29 1;
