#N canvas 84 167 866 308 10;
#X floatatom 522 119 5 0 0 0 - - -;
#X floatatom 640 120 5 0 0 0 - - -;
#X obj 522 138 s_blsaw;
#X obj 640 138 phasor~;
#X obj 560 90 mtof;
#X floatatom 560 72 5 0 0 0 - - -;
#X obj 640 179 soundoutput;
#X obj 522 180 soundoutput;
#X text 646 224 this is aliased;
#N canvas 285 142 696 470 REFERENCE 0;
#X text 112 119 Outlet 0: output signal;
#X text 110 62 Summary: bandlimited saw wave;
#X text 110 41 Name: s_blsaw;
#X text 111 84 Inlet 0: signal or float to set frequency in Hz;
#X text 112 101 Inlet 1: float to set phase (0-1);
#X text 116 151 Description: s_blsaw generates a bandlimited sawtooth
wave similar to the Pd builtin phasor~;
#X coords 0 -1 1 1 450 200 1 100 20;
#X restore 17 39 pd REFERENCE;
#X text 531 223 less aliasing;
#X text 20 10 s_blsaw - bandlimited saw wave;
#X connect 0 0 2 0;
#X connect 1 0 3 0;
#X connect 2 0 7 0;
#X connect 2 0 7 1;
#X connect 3 0 6 0;
#X connect 3 0 6 1;
#X connect 4 0 0 0;
#X connect 4 0 1 0;
#X connect 5 0 4 0;
