#N canvas 96 81 1370 714 10;
#X obj 304 186 r notesIn-\$1;
#X obj 304 491 s notesOut-\$1;
#X obj 27 186 inlet~ inL-\$1;
#X obj 136 186 inlet~ inR-\$1;
#X obj 27 491 outlet~ outL-\$1;
#X obj 136 491 outlet~ outR-\$1;
#X obj 424 185 r auxIn-\$1;
#X obj 423 208 r expIn-\$1;
#X obj 768 125 r fsIn-\$1;
#N canvas 1113 406 989 781 synth 0;
#X obj 193 262 *~ 2;
#X obj 193 284 outlet~;
#X obj 192 212 as-simple \$1;
#X obj 269 99 inlet ctrl;
#X obj 155 99 inlet notes;
#X connect 0 0 1 0;
#X connect 2 0 0 0;
#X connect 3 0 2 1;
#X connect 4 0 2 0;
#X restore 58 337 pd synth;
#X obj 628 152 sig~;
#X obj 627 183 lop~ 5;
#X obj 938 105 sig~;
#X obj 937 134 lop~ 5;
#X obj 938 82 * 2;
#X obj 625 447 sig~;
#X obj 625 475 lop~ 5;
#X obj 625 419 * 4;
#X obj 803 437 sig~;
#X obj 803 462 lop~ 5;
#X obj 681 188 + 1;
#X floatatom 681 211 5 0 0 0 - - -;
#X obj 628 235 *~ 1;
#X obj 628 103 mtof;
#X obj 628 125 / 8.1785;
#X obj 628 259 send~ as-\$1-f;
#X obj 936 160 send~ as-\$1-offset;
#X obj 625 503 send~ as-\$1-resonance;
#X obj 803 487 s~ as-\$1-cutoff-local;
#X obj 627 26 r as_tune-\$1;
#X obj 939 18 r as_oscratio-\$1;
#X obj 803 362 r as_cutoff-\$1;
#X obj 625 363 r as_reso-\$1;
#X obj 938 52 / 100;
#X obj 625 391 / 100;
#X obj 421 252 r ctrlIn-\$1;
#X obj 421 278 s ctrlOut-\$1;
#X obj 216 242 poly 1 1;
#X obj 206 274 pack 0 0;
#X connect 0 0 37 0;
#X connect 8 0 20 0;
#X connect 9 0 5 0;
#X connect 9 0 4 0;
#X connect 10 0 11 0;
#X connect 11 0 22 0;
#X connect 12 0 13 0;
#X connect 13 0 26 0;
#X connect 14 0 12 0;
#X connect 15 0 16 0;
#X connect 16 0 27 0;
#X connect 17 0 15 0;
#X connect 18 0 19 0;
#X connect 19 0 28 0;
#X connect 20 0 21 0;
#X connect 21 0 22 1;
#X connect 22 0 25 0;
#X connect 23 0 24 0;
#X connect 24 0 10 0;
#X connect 29 0 23 0;
#X connect 30 0 33 0;
#X connect 31 0 18 0;
#X connect 32 0 34 0;
#X connect 33 0 14 0;
#X connect 34 0 17 0;
#X connect 35 0 9 1;
#X connect 37 1 38 0;
#X connect 37 2 38 1;
#X connect 38 0 9 0;
