#N canvas 1548 597 690 265 10;
#X obj 76 75 loadbang;
#N canvas 140 53 922 604 audioIO 0;
#X obj 513 336 dac~;
#X obj 634 134 catch~ outR;
#X obj 481 128 catch~ outL;
#X obj 192 166 adc~, f 6;
#X obj 285 245 s~ inR;
#X obj 110 244 s~ inL;
#X obj 481 157 tb_peakcomp~ -3 8 10 100 0;
#X obj 482 179 clip~ -1 1;
#X obj 571 179 clip~ -1 1;
#X obj 483 233 *~ 1;
#X obj 572 235 *~ 1;
#X connect 1 0 6 1;
#X connect 2 0 6 0;
#X connect 3 0 5 0;
#X connect 3 1 4 0;
#X connect 6 0 7 0;
#X connect 6 1 8 0;
#X connect 7 0 9 0;
#X connect 8 0 10 0;
#X connect 9 0 0 0;
#X connect 10 0 0 1;
#X restore 155 77 pd audioIO;
#N canvas 587 201 1779 821 MIDI 0;
#X obj 42 255 spigot 1;
#X obj 431 583 spigot 1;
#X obj 431 615 unpack;
#X obj 431 647 noteout;
#X obj 111 233 r midiInGate;
#X obj 42 287 s notes;
#X obj 484 546 r midiOutGate;
#X obj 431 509 r notesRaw;
#X obj 684 607 i;
#X obj 684 629 change;
#X obj 684 561 spigot 1;
#X obj 737 529 r midiOutGate;
#X obj 684 585 * 127;
#X obj 684 502 r fsRaw;
#X obj 684 655 ctlout 64 1;
#X obj 886 610 i;
#X obj 886 632 change;
#X obj 886 564 spigot 1;
#X obj 939 532 r midiOutGate;
#X obj 886 588 / 8;
#X obj 886 654 ctlout 26 1;
#X obj 886 505 r expRaw;
#N canvas 1280 389 1280 956 chsel 0;
#X obj 207 372 f;
#X obj 168 372 f;
#X obj 237 123 f;
#X obj 152 87 t b f;
#X obj 237 145 sel 1;
#X obj 342 33 r midiCh;
#X obj 117 35 inlet;
#X obj 199 37 inlet;
#X obj 274 39 inlet;
#X obj 186 444 outlet;
#X obj 364 129 == 0;
#X obj 302 246 bng 15 250 50 0 empty empty empty 17 7 0 10 -262144
-1 -1;
#X obj 325 173 spigot 1;
#X obj 187 417 pack 0 0 0;
#X obj 237 373 f;
#X obj 237 325 t b b b;
#X connect 0 0 13 1;
#X connect 1 0 13 0;
#X connect 2 0 4 0;
#X connect 3 0 2 0;
#X connect 3 1 1 1;
#X connect 4 0 15 0;
#X connect 4 1 12 0;
#X connect 5 0 4 1;
#X connect 5 0 10 0;
#X connect 6 0 3 0;
#X connect 7 0 0 1;
#X connect 8 0 2 1;
#X connect 8 0 14 1;
#X connect 10 0 12 1;
#X connect 11 0 15 0;
#X connect 12 0 11 0;
#X connect 13 0 9 0;
#X connect 14 0 13 2;
#X connect 15 0 1 0;
#X connect 15 1 0 0;
#X connect 15 2 14 0;
#X restore 43 227 pd chsel;
#X obj 180 54 r oscIn;
#X floatatom 180 98 5 0 0 0 - - -;
#X obj 180 76 routeOSC /midiInGate;
#X obj 180 117 s midiInGate;
#X obj 234 516 r oscIn;
#X floatatom 234 560 5 0 0 0 - - -;
#X obj 234 538 routeOSC /midiOutGate;
#X obj 234 579 s midiOutGate;
#X obj 60 515 r oscIn;
#X floatatom 60 559 5 0 0 0 - - -;
#X obj 60 537 routeOSC /midiOutCh;
#X obj 60 578 s midiOutCh;
#X obj 38 53 r oscIn;
#X floatatom 38 97 5 0 0 0 - - -;
#X obj 38 116 s midiCh;
#X obj 38 75 routeOSC /midiInCh;
#X obj 495 613 r midiOutCh;
#X obj 758 620 r midiOutCh;
#X obj 960 621 r midiOutCh;
#X obj 1365 49 pgmin;
#X obj 1385 149 spigot 1;
#X obj 1438 89 r midiInGate;
#X obj 1476 117 loadbang;
#X obj 1385 209 spigot 0;
#X msg 1476 174 1;
#X obj 1476 145 delay 500;
#X msg 1471 212 0;
#X text 1502 50 speed limit these;
#X obj 1385 243 t f b b;
#X obj 1385 276 i;
#N canvas 1101 410 681 530 chsel 0;
#X obj 159 28 r midiCh;
#X obj 67 61 swap;
#X obj 67 86 pack;
#X obj 44 29 inlet;
#X obj 97 28 inlet;
#X obj 67 347 outlet;
#X obj 67 169 route 1;
#X obj 159 167 == 0;
#X obj 120 234 unpack;
#X obj 120 211 spigot 1;
#X connect 0 0 6 1;
#X connect 0 0 7 0;
#X connect 1 0 2 0;
#X connect 1 1 2 1;
#X connect 2 0 6 0;
#X connect 3 0 1 0;
#X connect 4 0 1 1;
#X connect 6 0 5 0;
#X connect 6 1 9 0;
#X connect 7 0 9 1;
#X connect 8 1 5 0;
#X connect 9 0 8 0;
#X restore 1364 92 pd chsel;
#X obj 1384 307 s pgmChg;
#X obj 1174 327 spigot 1;
#X obj 1262 277 r midiInGate;
#X obj 1174 424 s fs;
#X obj 1174 357 >= 64;
#X obj 1174 389 change;
#X obj 1177 136 spigot 1;
#X obj 1265 92 r midiInGate;
#X obj 1177 166 t f b;
#X obj 1177 204 / 127;
#X obj 1177 113 change;
#X obj 1229 199 s expOverride;
#X obj 1177 226 s exp;
#X obj 1174 255 ctlin 64;
#X obj 1177 62 ctlin 26;
#X obj 1174 301 change;
#N canvas 312 499 743 412 chsel 0;
#X obj 159 28 r midiCh;
#X obj 67 61 swap;
#X obj 67 86 pack;
#X obj 44 29 inlet;
#X obj 97 28 inlet;
#X obj 67 347 outlet;
#X obj 67 169 route 1;
#X obj 159 167 == 0;
#X obj 120 234 unpack;
#X obj 120 211 spigot 1;
#X connect 0 0 6 1;
#X connect 0 0 7 0;
#X connect 1 0 2 0;
#X connect 1 1 2 1;
#X connect 2 0 6 0;
#X connect 3 0 1 0;
#X connect 4 0 1 1;
#X connect 6 0 5 0;
#X connect 6 1 9 0;
#X connect 7 0 9 1;
#X connect 8 1 5 0;
#X connect 9 0 8 0;
#X restore 1174 279 pd chsel;
#N canvas 312 499 743 412 chsel 0;
#X obj 159 28 r midiCh;
#X obj 67 61 swap;
#X obj 67 86 pack;
#X obj 44 29 inlet;
#X obj 97 28 inlet;
#X obj 67 347 outlet;
#X obj 67 169 route 1;
#X obj 159 167 == 0;
#X obj 120 234 unpack;
#X obj 120 211 spigot 1;
#X connect 0 0 6 1;
#X connect 0 0 7 0;
#X connect 1 0 2 0;
#X connect 1 1 2 1;
#X connect 2 0 6 0;
#X connect 3 0 1 0;
#X connect 4 0 1 1;
#X connect 6 0 5 0;
#X connect 6 1 9 0;
#X connect 7 0 9 1;
#X connect 8 1 5 0;
#X connect 9 0 8 0;
#X restore 1177 86 pd chsel;
#X obj 38 4 cnv 15 300 25 empty empty MIDI_IN 0 12 0 14 -4032 -66577
0;
#X obj 52 456 cnv 15 300 25 empty empty MIDI_OUT_(under_review!) 0
12 0 14 -4032 -66577 0;
#X obj 43 190 notein;
#X obj 242 188 ctlin;
#X obj 324 236 route 74 1;
#X obj 242 240 / 127;
#N canvas 1280 389 1280 956 chsel 0;
#X obj 207 372 f;
#X obj 168 372 f;
#X obj 237 123 f;
#X obj 152 87 t b f;
#X obj 237 145 sel 1;
#X obj 342 33 r midiCh;
#X obj 117 35 inlet;
#X obj 199 37 inlet;
#X obj 274 39 inlet;
#X obj 186 444 outlet;
#X obj 364 129 == 0;
#X obj 302 246 bng 15 250 50 0 empty empty empty 17 7 0 10 -262144
-1 -1;
#X obj 325 173 spigot 1;
#X obj 187 417 pack 0 0 0;
#X obj 237 373 f;
#X obj 237 325 t b b b;
#X connect 0 0 13 1;
#X connect 1 0 13 0;
#X connect 2 0 4 0;
#X connect 3 0 2 0;
#X connect 3 1 1 1;
#X connect 4 0 15 0;
#X connect 4 1 12 0;
#X connect 5 0 4 1;
#X connect 5 0 10 0;
#X connect 6 0 3 0;
#X connect 7 0 0 1;
#X connect 8 0 2 1;
#X connect 8 0 14 1;
#X connect 10 0 12 1;
#X connect 11 0 15 0;
#X connect 12 0 11 0;
#X connect 13 0 9 0;
#X connect 14 0 13 2;
#X connect 15 0 1 0;
#X connect 15 1 0 0;
#X connect 15 2 14 0;
#X restore 225 285 pd chsel;
#X msg 356 259 1;
#X msg 323 258 2;
#X obj 226 312 spigot 1;
#X obj 321 294 r midiInGate;
#X obj 225 345 s ctrl;
#X obj 325 211 f;
#X obj 232 211 t b f;
#X obj 464 187 bendin;
#X obj 476 235 / 16383;
#X obj 450 303 spigot 1;
#X obj 527 284 r midiInGate;
#X obj 450 335 s ctrl;
#N canvas 1280 389 1280 956 chsel 0;
#X obj 207 372 f;
#X obj 168 372 f;
#X obj 237 123 f;
#X obj 152 87 t b f;
#X obj 237 145 sel 1;
#X obj 342 33 r midiCh;
#X obj 117 35 inlet;
#X obj 199 37 inlet;
#X obj 274 39 inlet;
#X obj 186 444 outlet;
#X obj 364 129 == 0;
#X obj 302 246 bng 15 250 50 0 empty empty empty 17 7 0 10 -262144
-1 -1;
#X obj 325 173 spigot 1;
#X obj 187 417 pack 0 0 0;
#X obj 237 373 f;
#X obj 237 325 t b b b;
#X connect 0 0 13 1;
#X connect 1 0 13 0;
#X connect 2 0 4 0;
#X connect 3 0 2 0;
#X connect 3 1 1 1;
#X connect 4 0 15 0;
#X connect 4 1 12 0;
#X connect 5 0 4 1;
#X connect 5 0 10 0;
#X connect 6 0 3 0;
#X connect 7 0 0 1;
#X connect 8 0 2 1;
#X connect 8 0 14 1;
#X connect 10 0 12 1;
#X connect 11 0 15 0;
#X connect 12 0 11 0;
#X connect 13 0 9 0;
#X connect 14 0 13 2;
#X connect 15 0 1 0;
#X connect 15 1 0 0;
#X connect 15 2 14 0;
#X restore 450 269 pd chsel;
#X obj 464 208 t b f;
#X msg 444 237 0;
#X obj 619 305 spigot 1;
#X obj 696 286 r midiInGate;
#X obj 619 337 s ctrl;
#N canvas 1280 389 1280 956 chsel 0;
#X obj 207 372 f;
#X obj 168 372 f;
#X obj 237 123 f;
#X obj 152 87 t b f;
#X obj 237 145 sel 1;
#X obj 342 33 r midiCh;
#X obj 117 35 inlet;
#X obj 199 37 inlet;
#X obj 274 39 inlet;
#X obj 186 444 outlet;
#X obj 364 129 == 0;
#X obj 302 246 bng 15 250 50 0 empty empty empty 17 7 0 10 -262144
-1 -1;
#X obj 325 173 spigot 1;
#X obj 187 417 pack 0 0 0;
#X obj 237 373 f;
#X obj 237 325 t b b b;
#X connect 0 0 13 1;
#X connect 1 0 13 0;
#X connect 2 0 4 0;
#X connect 3 0 2 0;
#X connect 3 1 1 1;
#X connect 4 0 15 0;
#X connect 4 1 12 0;
#X connect 5 0 4 1;
#X connect 5 0 10 0;
#X connect 6 0 3 0;
#X connect 7 0 0 1;
#X connect 8 0 2 1;
#X connect 8 0 14 1;
#X connect 10 0 12 1;
#X connect 11 0 15 0;
#X connect 12 0 11 0;
#X connect 13 0 9 0;
#X connect 14 0 13 2;
#X connect 15 0 1 0;
#X connect 15 1 0 0;
#X connect 15 2 14 0;
#X restore 619 271 pd chsel;
#X obj 633 210 t b f;
#X obj 633 189 touchin;
#X obj 645 237 / 127;
#X msg 613 239 3;
#X connect 0 0 5 0;
#X connect 1 0 2 0;
#X connect 2 0 3 0;
#X connect 2 1 3 1;
#X connect 4 0 0 1;
#X connect 6 0 1 1;
#X connect 7 0 1 0;
#X connect 8 0 9 0;
#X connect 9 0 14 0;
#X connect 10 0 12 0;
#X connect 11 0 10 1;
#X connect 12 0 8 0;
#X connect 13 0 10 0;
#X connect 15 0 16 0;
#X connect 16 0 20 0;
#X connect 17 0 19 0;
#X connect 18 0 17 1;
#X connect 19 0 15 0;
#X connect 21 0 17 0;
#X connect 22 0 0 0;
#X connect 23 0 25 0;
#X connect 24 0 26 0;
#X connect 25 0 24 0;
#X connect 27 0 29 0;
#X connect 28 0 30 0;
#X connect 29 0 28 0;
#X connect 31 0 33 0;
#X connect 32 0 34 0;
#X connect 33 0 32 0;
#X connect 35 0 38 0;
#X connect 36 0 37 0;
#X connect 38 0 36 0;
#X connect 39 0 3 2;
#X connect 40 0 14 2;
#X connect 41 0 20 2;
#X connect 42 0 53 0;
#X connect 42 1 53 1;
#X connect 43 0 46 0;
#X connect 44 0 43 1;
#X connect 45 0 48 0;
#X connect 46 0 51 0;
#X connect 47 0 46 1;
#X connect 48 0 47 0;
#X connect 49 0 46 1;
#X connect 51 0 52 0;
#X connect 51 1 48 0;
#X connect 51 2 49 0;
#X connect 52 0 54 0;
#X connect 53 0 43 0;
#X connect 55 0 58 0;
#X connect 56 0 55 1;
#X connect 58 0 59 0;
#X connect 59 0 57 0;
#X connect 60 0 62 0;
#X connect 61 0 60 1;
#X connect 62 0 63 0;
#X connect 62 1 65 0;
#X connect 63 0 66 0;
#X connect 64 0 60 0;
#X connect 67 0 70 0;
#X connect 67 1 70 1;
#X connect 68 0 71 0;
#X connect 68 1 71 1;
#X connect 69 0 55 0;
#X connect 70 0 69 0;
#X connect 71 0 64 0;
#X connect 74 0 22 0;
#X connect 74 1 22 1;
#X connect 74 2 22 2;
#X connect 75 0 85 0;
#X connect 75 1 84 1;
#X connect 75 2 78 2;
#X connect 76 0 80 0;
#X connect 76 1 79 0;
#X connect 77 0 78 1;
#X connect 78 0 81 0;
#X connect 79 0 78 0;
#X connect 80 0 78 0;
#X connect 81 0 83 0;
#X connect 82 0 81 1;
#X connect 84 0 76 0;
#X connect 85 0 84 0;
#X connect 85 1 77 0;
#X connect 86 0 92 0;
#X connect 86 1 91 2;
#X connect 87 0 91 1;
#X connect 88 0 90 0;
#X connect 89 0 88 1;
#X connect 91 0 88 0;
#X connect 92 0 93 0;
#X connect 92 1 87 0;
#X connect 93 0 91 0;
#X connect 94 0 96 0;
#X connect 95 0 94 1;
#X connect 97 0 94 0;
#X connect 98 0 101 0;
#X connect 98 1 100 0;
#X connect 99 0 98 0;
#X connect 99 1 97 2;
#X connect 100 0 97 1;
#X connect 101 0 97 0;
#X restore 234 77 pd MIDI;
#X msg 77 143 \; pd dsp 1, f 10;
#X obj 77 114 delay 200;
#X connect 0 0 4 0;
#X connect 4 0 3 0;
