#N canvas 331 364 2052 956 10;
#X obj 496 109 / 100;
#X obj 375 534 *;
#X obj 590 108 / 100;
#X obj 375 555 +;
#X obj 377 828 outlet msg;
#X obj 213 828 outlet ctrl;
#X obj 590 68 r m_offset_\$1-\$2;
#X obj 496 69 r m_amt_\$1-\$2;
#X obj 208 545 r m_bus_\$1-\$2;
#X obj 389 70 r m_\$1-\$2;
#X obj 213 712 pack 0 0;
#X obj 294 712 < 10;
#X obj 213 772 spigot 0;
#X obj 422 729 != 1;
#X obj 377 772 spigot 0;
#X obj 375 585 clip 0 1;
#X obj 375 606 change -1;
#X obj 376 700 pack s 0 0;
#X obj 376 667 symbol \$1;
#X obj 375 635 t b f;
#X msg 377 799 modulate \$1 \$2 \$3;
#X obj 708 66 r m_sr_\$1-\$2;
#X obj 320 249 belaAIN;
#X obj 320 179 adc~ 3;
#X obj 282 123 route 0;
#X obj 320 153 + 2;
#X obj 359 209 metro;
#X obj 701 118 > 0;
#X obj 389 98 > 0;
#X obj 395 164 &&;
#X connect 0 0 1 1;
#X connect 1 0 3 0;
#X connect 2 0 3 1;
#X connect 3 0 15 0;
#X connect 6 0 2 0;
#X connect 7 0 0 0;
#X connect 8 0 10 0;
#X connect 8 0 11 0;
#X connect 8 0 17 1;
#X connect 9 0 24 0;
#X connect 9 0 28 0;
#X connect 10 0 12 0;
#X connect 11 0 12 1;
#X connect 11 0 13 0;
#X connect 12 0 5 0;
#X connect 13 0 14 1;
#X connect 14 0 20 0;
#X connect 15 0 16 0;
#X connect 16 0 19 0;
#X connect 17 0 14 0;
#X connect 18 0 17 0;
#X connect 19 0 10 0;
#X connect 19 0 18 0;
#X connect 19 1 17 2;
#X connect 19 1 10 1;
#X connect 20 0 4 0;
#X connect 21 0 26 1;
#X connect 21 0 27 0;
#X connect 22 0 1 0;
#X connect 23 0 22 0;
#X connect 24 1 25 0;
#X connect 25 0 23 0;
#X connect 26 0 22 1;
#X connect 27 0 29 0;
#X connect 28 0 29 1;
#X connect 29 0 26 0;
