#N canvas 0 23 1440 855 10;
#X obj 304 186 r notesIn-\$1;
#X obj 304 601 s notesOut-\$1;
#X obj 25 186 inlet~ inL-\$1;
#X obj 135 186 inlet~ inR-\$1;
#X obj 27 601 outlet~ outL-\$1;
#X obj 136 601 outlet~ outR-\$1;
#X obj 424 185 r auxIn-\$1;
#X obj 423 208 r expIn-\$1;
#X obj 423 233 r fsIn-\$1;
#X obj 504 185 r ctrlIn-\$1;
#X obj 504 600 s ctrlOut-\$1;
#X obj 700 305 *;
#X obj 699 338 +;
#X obj 814 186 r m_amt_note-\$1;
#X obj 931 186 r m_offset_note-\$1;
#X obj 699 185 r a_cvIn5;
#X text 700 150 always pitch and reset on nebulae;
#X obj 1048 186 r d_cvIn4;
#X obj 699 401 clip 0 127;
#X obj 691 534 pack 0 0 0;
#X obj 691 433 float;
#X obj 850 344 sel 1 0;
#X obj 818 404 t b b;
#X msg 771 433 127;
#X obj 840 473 float;
#X obj 878 404 t b b;
#X msg 920 471 0;
#X obj 762 271 t b f;
#X obj 870 274 t b f;
#X obj 699 380 int;
#X obj 699 359 + 0.3;
#X text 611 380 quantize it;
#X connect 11 0 12 0;
#X connect 12 0 30 0;
#X connect 13 0 27 0;
#X connect 14 0 28 0;
#X connect 15 0 11 0;
#X connect 17 0 21 0;
#X connect 18 0 20 1;
#X connect 19 0 1 0;
#X connect 20 0 19 0;
#X connect 20 0 24 1;
#X connect 21 0 22 0;
#X connect 21 1 25 0;
#X connect 22 0 20 0;
#X connect 22 1 23 0;
#X connect 23 0 19 1;
#X connect 24 0 19 0;
#X connect 25 0 24 0;
#X connect 25 1 26 0;
#X connect 26 0 19 1;
#X connect 27 0 11 0;
#X connect 27 1 11 1;
#X connect 28 0 12 0;
#X connect 28 1 12 1;
#X connect 29 0 18 0;
#X connect 30 0 29 0;
