#N canvas 691 318 1353 794 10;
#X obj 304 28 r notesIn-\$1;
#X obj 304 601 s notesOut-\$1;
#X obj 25 28 inlet~ inL-\$1;
#X obj 135 28 inlet~ inR-\$1;
#X obj 27 601 outlet~ outL-\$1;
#X obj 136 601 outlet~ outR-\$1;
#X obj 650 28 r auxIn-\$1;
#X obj 649 51 r expIn-\$1;
#X obj 649 76 r fsIn-\$1;
#X obj 501 27 r ctrlIn-\$1;
#X obj 504 600 s ctrlOut-\$1;
#X obj 16 198 r m_offset_note-\$1;
#X obj 304 96 unpack 0 0 0;
#X obj 247 198 r m_ch_note-\$1;
#X obj 541 319 r m_ch_gate-\$1;
#X msg 274 319 set \$1;
#X obj 172 252 spigot 0;
#X obj 247 219 t a a;
#X obj 496 384 spigot 0;
#X obj 695 384 spigot 0;
#X obj 541 350 t a a;
#X obj 740 350 t a a;
#X obj 496 430 > 0;
#X obj 496 535 dac~;
#X msg 568 384 set \$1;
#X msg 767 384 set \$1;
#X obj 695 535 dac~;
#X obj 172 344 -;
#X obj 172 365 /;
#X obj 172 386 clip -1 1;
#X obj 173 535 dac~;
#X obj 496 460 sig~;
#X obj 695 460 sig~;
#X obj 172 460 sig~;
#X obj 740 319 r m_ch_timbre-\$1;
#X obj 928 384 spigot 0;
#X obj 973 350 t a a;
#X msg 1000 384 set \$1;
#X obj 928 535 dac~;
#X obj 928 460 sig~;
#X obj 973 319 r m_ch_pressure-\$1;
#X obj 501 76 route 0 2 3;
#X obj 516 214 r m_pb_range-\$1;
#X obj 501 256 *;
#X obj 693 138 unpack 0 0;
#X obj 925 138 unpack 0 0;
#X obj 693 201 * 2;
#X obj 693 222 - 1;
#X obj 172 323 + 0;
#X obj 501 138 unpack 0 0;
#X obj 501 169 * 2;
#X obj 501 190 - 1;
#X obj 231 290 t b f;
#X obj 13 248 r m_volt_range-\$1;
#X obj 13 269 * 12;
#X connect 0 0 12 0;
#X connect 9 0 41 0;
#X connect 11 0 27 1;
#X connect 12 0 16 0;
#X connect 12 1 18 0;
#X connect 13 0 17 0;
#X connect 14 0 20 0;
#X connect 15 0 30 0;
#X connect 16 0 48 0;
#X connect 17 0 16 1;
#X connect 17 1 15 0;
#X connect 18 0 22 0;
#X connect 19 0 32 0;
#X connect 20 0 18 1;
#X connect 20 1 24 0;
#X connect 21 0 19 1;
#X connect 21 1 25 0;
#X connect 22 0 31 0;
#X connect 24 0 23 0;
#X connect 25 0 26 0;
#X connect 27 0 28 0;
#X connect 28 0 29 0;
#X connect 29 0 33 0;
#X connect 31 0 23 0;
#X connect 32 0 26 0;
#X connect 33 0 30 0;
#X connect 34 0 21 0;
#X connect 35 0 39 0;
#X connect 36 0 35 1;
#X connect 36 1 37 0;
#X connect 37 0 38 0;
#X connect 39 0 38 0;
#X connect 40 0 36 0;
#X connect 41 0 49 0;
#X connect 41 1 44 0;
#X connect 41 2 45 0;
#X connect 42 0 43 1;
#X connect 43 0 52 0;
#X connect 44 0 46 0;
#X connect 45 0 35 0;
#X connect 46 0 47 0;
#X connect 47 0 19 0;
#X connect 48 0 27 0;
#X connect 49 0 50 0;
#X connect 50 0 51 0;
#X connect 51 0 43 0;
#X connect 52 0 48 0;
#X connect 52 1 48 1;
#X connect 53 0 54 0;
#X connect 54 0 28 1;
