#N canvas 75 417 1508 745 10;
#X obj 304 186 r notesIn-\$1;
#X obj 304 671 s notesOut-\$1;
#X obj 23 9 r loaddefs-\$1;
#X msg 23 76 loaddefinitions \$1;
#X obj 181 9 r loadbang-\$1;
#X obj 181 76 print loading definiton for \$1;
#X obj 23 41 symbol;
#X obj 25 186 inlet~ inL-\$1;
#X obj 135 186 inlet~ inR-\$1;
#X obj 27 671 outlet~ outL-\$1;
#X obj 136 671 outlet~ outR-\$1;
#X obj 424 185 r auxIn-\$1;
#X obj 423 208 r expIn-\$1;
#X obj 423 233 r fsIn-\$1;
#X obj 641 219 hip~;
#X obj 700 528 hip~ 5;
#X obj 641 395 delay3sec 5 \$1, f 52;
#X obj 700 506 c_xfade, f 65;
#X obj 1087 319 lop~ 10;
#X obj 801 72 r dly_time-\$1;
#X obj 950 72 r dly_fb-\$1;
#X obj 1085 72 r dly_dw-\$1;
#X text 652 30 C&G Simple 3 sec Delay Module with a hi-pass filter
;
#X obj 1085 144 / 100;
#X obj 950 118 / 100;
#X obj 23 112 KontrolModule \$1 F-delay;
#X obj 181 35 print loaded:delay into \$1, f 35;
#X obj 661 72 r dly_hip-\$1;
#X connect 0 0 1 0;
#X connect 2 0 6 0;
#X connect 2 0 5 0;
#X connect 3 0 25 0;
#X connect 4 0 26 0;
#X connect 6 0 3 0;
#X connect 7 0 17 0;
#X connect 7 0 14 0;
#X connect 14 0 16 0;
#X connect 15 0 10 0;
#X connect 15 0 9 0;
#X connect 16 0 17 1;
#X connect 17 0 15 0;
#X connect 18 0 17 2;
#X connect 19 0 16 1;
#X connect 20 0 24 0;
#X connect 21 0 23 0;
#X connect 23 0 18 0;
#X connect 24 0 16 2;
#X connect 27 0 14 1;
