#N canvas 163 52 1994 1103 10;
#X obj 240 186 r notesIn-\$1;
#X obj 242 491 s notesOut-\$1;
#X obj 23 9 r loaddefs-\$1;
#X msg 23 58 loaddefinitions \$1;
#X obj 166 5 r loadbang-\$1;
#X obj 181 76 print loading definiton for \$1;
#X obj 23 34 symbol;
#X obj 25 186 inlet~ inL-\$1;
#X obj 135 186 inlet~ inR-\$1;
#X obj 27 491 outlet~ outL-\$1;
#X obj 136 491 outlet~ outR-\$1;
#X obj 181 35 print loaded:linear router into \$1, f 39;
#X obj 23 112 KontrolModule \$1 R-3x3+1;
#X text 44 577 this is a simple routing module \, we could have different
ones! in this router we route notes etc to the active module \, and
audio and notes from m1 to m5 note: if you add more modules \, then
this module needs updating...;
#X obj 336 187 r auxIn-\$1;
#X obj 335 210 r expIn-\$1;
#X obj 335 235 r fsIn-\$1;
#X obj 773 507 s notesIn-m9, f 13;
#X obj 684 507 s~ inR-m9, f 10;
#X obj 592 507 s~ inL-m9, f 10;
#X obj 592 364 +~;
#X obj 683 364 +~;
#X obj 592 452 +~;
#X obj 684 452 +~;
#X text 633 55 3 chains of 3 into 1 master;
#X obj 328 294 actmodhandler \$1;
#X obj 499 117 connectin m0 \$1;
#X obj 659 584 connectout m9 \$1;
#X obj 499 160 connectmod m0 m1 \$1;
#X obj 499 183 connectmod m1 m2 \$1;
#X obj 829 160 connectmod m6 m7 \$1;
#X obj 668 117 connectin m3 \$1;
#X obj 829 117 connectin m6 \$1;
#X obj 829 183 connectmod m7 m8 \$1;
#X obj 668 160 connectmod m3 m4 \$1;
#X obj 668 183 connectmod m4 m5 \$1;
#X obj 505 232 chainout m2 \$1;
#X obj 668 232 chainout m5 \$1;
#X obj 832 232 chainout m8 \$1;
#X connect 0 0 1 0;
#X connect 2 0 6 0;
#X connect 2 0 5 0;
#X connect 3 0 12 0;
#X connect 4 0 11 0;
#X connect 6 0 3 0;
#X connect 7 0 9 0;
#X connect 8 0 10 0;
#X connect 20 0 22 0;
#X connect 21 0 23 0;
#X connect 22 0 19 0;
#X connect 23 0 18 0;
#X connect 36 0 20 0;
#X connect 36 1 21 0;
#X connect 36 2 17 0;
#X connect 37 0 20 1;
#X connect 37 1 21 1;
#X connect 37 2 17 0;
#X connect 38 0 22 1;
#X connect 38 1 23 1;
#X connect 38 2 17 0;
