#N canvas 449 199 1353 741 10;
#X obj 319 35 r notesIn-\$1;
#X obj 304 601 s notesOut-\$1;
#X obj 40 35 inlet~ inL-\$1;
#X obj 150 35 inlet~ inR-\$1;
#X obj 27 601 outlet~ outL-\$1;
#X obj 136 601 outlet~ outR-\$1;
#X obj 439 34 r auxIn-\$1;
#X obj 438 57 r expIn-\$1;
#X obj 438 82 r fsIn-\$1;
#X obj 519 34 r ctrlIn-\$1;
#X obj 504 600 s ctrlOut-\$1;
#X obj 649 454 dac~;
#X msg 762 370 set \$1;
#X msg 1068 372 set \$1;
#X obj 965 454 dac~;
#X obj 762 264 r m_ch_l-\$1;
#X obj 1068 265 r m_ch_r-\$1;
#X obj 649 427 *~;
#X obj 649 265 r m_gain_l-\$1;
#X obj 649 292 / 100;
#X obj 649 346 *;
#X obj 649 319 t f f;
#X obj 649 373 sig~;
#X obj 649 400 lop~ 5;
#X obj 965 292 / 100;
#X obj 965 346 *;
#X obj 965 319 t f f;
#X obj 965 373 sig~;
#X obj 965 400 lop~ 5;
#X obj 965 427 *~;
#X obj 965 265 r m_gain_r-\$1;
#X connect 2 0 17 0;
#X connect 3 0 29 0;
#X connect 12 0 11 0;
#X connect 13 0 14 0;
#X connect 15 0 12 0;
#X connect 16 0 13 0;
#X connect 17 0 11 0;
#X connect 18 0 19 0;
#X connect 19 0 21 0;
#X connect 20 0 22 0;
#X connect 21 0 20 0;
#X connect 21 1 20 1;
#X connect 22 0 23 0;
#X connect 23 0 17 1;
#X connect 24 0 26 0;
#X connect 25 0 27 0;
#X connect 26 0 25 0;
#X connect 26 1 25 1;
#X connect 27 0 28 0;
#X connect 28 0 29 1;
#X connect 29 0 14 0;
#X connect 30 0 24 0;
