#N canvas 360 208 773 408 10;
#X obj 105 205 hsl 128 15 0 1 0 0 \$0-out \$0-in AMP-DECAY 20 8 1 10
-262144 -86277 -66577 0 1;
#X obj 17 22 inlet;
#X msg 390 212 set \$1;
#X obj 70 340 outlet;
#X obj 102 282 list prepend \$1;
#X obj 102 302 list trim;
#X obj 390 236 s \$0-in;
#X obj 102 233 r \$0-out;
#N canvas 172 83 586 377 LICENSE-GPL 0;
#X text 57 88 This program is free software: you can redistribute it
and/or modify it under the terms of the GNU General Public License
as published by the Free Software Foundation \, either version 3 of
the License \, or (at your option) any later version.;
#X text 58 168 This program is distributed in the hope that it will
be useful \, but WITHOUT ANY WARRANTY \; without even the implied warranty
of MERCHANTABILITY or FITNESS FOR A PARTICULAR PURPOSE. See the GNU
General Public License for more details.;
#X text 57 261 You should have received a copy of the GNU General Public
License along with this program. If not \, see <http://www.gnu.org/licenses/>.
;
#X text 61 54 Copyright (C) 2009 \, Reality Jockey Ltd.;
#X text 60 325 See the file LICENSE.txt for the full license text.
;
#X restore 472 151 pd LICENSE-GPL;
#X obj 274 218 s \$0-in;
#X msg 274 197 color \$1 \$2;
#X obj 274 175 pack f 1;
#X obj 274 150 mod 64;
#X obj 327 149 div 64;
#X obj 274 105 t f f;
#X obj 332 109 s \$0-in;
#X obj 274 22 route color label;
#X msg 332 88 label \$1;
#X obj 17 76 route \$1;
#X obj 17 55 list trim;
#X obj 332 59 symbol;
#X obj 390 189 m_scale \$2 \$3 0 1 0 \$1;
#X obj 102 254 m_scale 0 1 \$2 \$3 0 \$1;
#X connect 1 0 19 0;
#X connect 2 0 6 0;
#X connect 4 0 5 0;
#X connect 5 0 3 0;
#X connect 7 0 22 0;
#X connect 10 0 9 0;
#X connect 11 0 10 0;
#X connect 12 0 11 0;
#X connect 13 0 11 1;
#X connect 14 0 12 0;
#X connect 14 1 13 0;
#X connect 16 0 14 0;
#X connect 16 1 20 0;
#X connect 16 2 4 0;
#X connect 16 2 21 0;
#X connect 17 0 15 0;
#X connect 18 0 16 0;
#X connect 18 1 3 0;
#X connect 19 0 18 0;
#X connect 20 0 17 0;
#X connect 21 0 2 0;
#X connect 22 0 4 0;
#X coords 0 -1 1 1 137 25 2 100 200;
