#N canvas 250 151 1908 900 10;
#X declare -path .;
#X obj 304 186 r notesIn-\$1;
#X obj 304 491 s notesOut-\$1;
#X obj 588 554 r loadbang-\$1;
#X obj 25 186 inlet~ inL-\$1;
#X obj 135 186 inlet~ inR-\$1;
#X obj 27 491 outlet~ outL-\$1;
#X obj 136 491 outlet~ outR-\$1;
#X obj 424 185 r auxIn-\$1;
#X obj 423 208 r expIn-\$1;
#X obj 423 233 r fsIn-\$1;
#X obj 1442 52 declare -path .;
#X obj 1311 55 r \$0-GUI;
#X obj 1311 548 s \$0-control;
#X text 533 847 ajf \, fbar \, 2010;
#X obj 1316 73 g_synthcontrol;
#X obj 1409 549 route env3a env3d env3s env3r, f 43;
#X text 831 113 Synth Module based off of the CZZ synth in rjdj.;
#X obj 1483 593 s czz-\$1-adsrP-d;
#X obj 1558 574 s czz-\$1-adsrP-s;
#X obj 1633 598 s czz-\$1-adsrP-r;
#N canvas 753 137 1049 802 synth 1;
#X obj 21 286 u_cocollect;
#X obj 41 225 t a b;
#X obj 17 739 s \$0-GUI;
#X obj 557 443 r \$0-control;
#X obj 204 146 poly 4 1, f 10;
#X obj 204 208 pack 0 0 0;
#X obj 204 259 route 1 2 3 4;
#X obj 557 469 r \$0-control;
#X obj 557 521 r \$0-control;
#X obj 557 495 r \$0-control;
#X obj 83 673 *~ 1;
#X obj 82 721 outlet~;
#X msg 85 317;
#X msg 39 191 list save;
#X obj 45 605 s_czz \$0-TAG \$1;
#X obj 162 607 s_czz \$0-TAG \$1;
#X obj 292 607 s_czz \$0-TAG \$1;
#X obj 422 610 s_czz \$0-TAG \$1;
#X obj 204 36 inlet notes;
#X obj 443 46 inlet ctrl;
#N canvas 324 629 450 300 route 0;
#X obj 69 97 unpack 0 0 0;
#X obj 68 68 t l l;
#X obj 68 197 list;
#X obj 139 144 t b;
#X obj 139 123 route 1 0;
#X obj 226 163 unpack 0 0 0;
#X obj 226 194 pack 0 0 0;
#X obj 68 19 inlet msg;
#X obj 68 218 outlet global;
#X obj 226 215 outlet voice;
#X obj 187 162 - 1;
#X connect 0 2 4 0;
#X connect 1 0 0 0;
#X connect 1 1 2 1;
#X connect 1 1 5 0;
#X connect 2 0 8 0;
#X connect 3 0 2 0;
#X connect 4 0 3 0;
#X connect 4 1 3 0;
#X connect 4 2 10 0;
#X connect 5 0 6 1;
#X connect 5 1 6 2;
#X connect 6 0 9 0;
#X connect 7 0 1 0;
#X connect 10 0 6 0;
#X restore 204 80 pd route;
#N canvas 324 629 450 300 route 0;
#X obj 69 97 unpack 0 0 0;
#X obj 68 68 t l l;
#X obj 68 197 list;
#X obj 139 144 t b;
#X obj 139 123 route 1 0;
#X obj 234 171 unpack 0 0 0;
#X obj 234 202 pack 0 0 0;
#X obj 68 19 inlet msg;
#X obj 68 218 outlet global;
#X obj 234 223 outlet voice;
#X obj 190 158 - 1;
#X connect 0 2 4 0;
#X connect 1 0 0 0;
#X connect 1 1 2 1;
#X connect 1 1 5 0;
#X connect 2 0 8 0;
#X connect 3 0 2 0;
#X connect 4 0 3 0;
#X connect 4 1 3 0;
#X connect 4 2 10 0;
#X connect 5 0 6 1;
#X connect 5 1 6 2;
#X connect 6 0 9 0;
#X connect 7 0 1 0;
#X connect 10 0 6 0;
#X restore 443 81 pd route;
#X obj 443 251 route 1 2 3 4;
#X connect 0 0 12 0;
#X connect 1 0 14 1;
#X connect 1 1 0 1;
#X connect 3 0 14 1;
#X connect 4 0 5 0;
#X connect 4 1 5 1;
#X connect 4 2 5 2;
#X connect 5 0 6 0;
#X connect 6 0 14 0;
#X connect 6 1 15 0;
#X connect 6 2 16 0;
#X connect 6 3 17 0;
#X connect 7 0 15 1;
#X connect 8 0 17 1;
#X connect 9 0 16 1;
#X connect 10 0 11 0;
#X connect 13 0 1 0;
#X connect 14 0 0 0;
#X connect 14 0 2 0;
#X connect 14 1 10 0;
#X connect 15 1 10 0;
#X connect 16 1 10 0;
#X connect 17 1 10 0;
#X connect 18 0 20 0;
#X connect 19 0 21 0;
#X connect 20 0 4 0;
#X connect 20 1 6 0;
#X connect 21 0 14 2;
#X connect 21 0 17 2;
#X connect 21 0 16 2;
#X connect 21 0 15 2;
#X connect 21 1 22 0;
#X connect 22 0 14 2;
#X connect 22 1 15 2;
#X connect 22 2 16 2;
#X connect 22 3 17 2;
#X restore 93 330 pd synth;
#X obj 749 766 s \$0-GUI;
#N canvas 19 50 1164 887 czz_presets 0;
#X obj 91 26 inlet;
#X obj 83 653 outlet name;
#X obj 83 630 symbol;
#X obj 166 652 outlet parms;
#X obj 83 582 route name;
#X msg 59 220 name Thin-Short-Bass \, mod3d 0.559055 \, mod3c 0.181102
\, mod3b 0.173228 \, mod3a 0.275591 \, mod2d 0.141732 \, mod2c 0.393701
\, mod2b 0.220472 \, mod2a 0.472441 \, mod1d 0.574803 \, mod1c 0.669291
\, mod1b 0.0708661 \, mod1a 0.409449 \, osc3d 0.314961 \, osc3c 0.220472
\, osc3b 0.527559 \, osc3a 0.409449 \, osc2d 0.559055 \, osc2c 0.645669
\, osc2b 0.543307 \, osc2a 0.377953 \, osc1d 0.015748 \, osc1c 0 \,
osc1b 0 \, osc1a 0 \, env3r 0.0472441 \, env3s 0.0393701 \, env3d 0.0551181
\, env3a 0.0015748 \, env2r 0.0866142 \, env2s 0.0866142 \, env2d 0.0866142
\, env2a 0.0472441 \, env1r 0.149606 \, env1s 0.0629921 \, env1d 0.0787402
\, env1a 0 \,;
#X msg 57 236 name Full-Square-Lead \, mod3d 0.251969 \, mod3c 0.181102
\, mod3b 0.173228 \, mod3a 0.275591 \, mod2d 0.141732 \, mod2c 0.393701
\, mod2b 0.220472 \, mod2a 0.472441 \, mod1d 0 \, mod1c 0 \, mod1b
0 \, mod1a 1 \, osc3d 0.314961 \, osc3c 0.220472 \, osc3b 0.527559
\, osc3a 0.409449 \, osc2d 0.559055 \, osc2c 0.645669 \, osc2b 0.543307
\, osc2a 0.377953 \, osc1d 0.440945 \, osc1c 0 \, osc1b 0 \, osc1a
0 \, env3r 0.023622 \, env3s 0.527559 \, env3d 0.0551181 \, env3a 0.00944882
\, env2r 0.0393701 \, env2s 0.637795 \, env2d 0.0866142 \, env2a 0.0472441
\, env1r 0.0314961 \, env1s 0.708661 \, env1d 0.0787402 \, env1a 0.19685
\,;
#X msg 58 253 name Dull-Brass \, mod3d 0.251969 \, mod3c 0.181102 \,
mod3b 0.173228 \, mod3a 0.275591 \, mod2d 0.141732 \, mod2c 0.393701
\, mod2b 0.220472 \, mod2a 0.472441 \, mod1d 0 \, mod1c 0 \, mod1b
0 \, mod1a 0.188976 \, osc3d 0.251969 \, osc3c 0.220472 \, osc3b 0.527559
\, osc3a 0.409449 \, osc2d 0.559055 \, osc2c 0.645669 \, osc2b 0.543307
\, osc2a 0.377953 \, osc1d 0.952756 \, osc1c 0 \, osc1b 0 \, osc1a
0.440945 \, env3r 0.00787402 \, env3s 0.0866142 \, env3d 0.0944882
\, env3a 0.0330709 \, env2r 0.0393701 \, env2s 0.102362 \, env2d 0.23622
\, env2a 0.645669 \, env1r 0.0708661 \, env1s 0.0866142 \, env1d 0.0472441
\, env1a 0.0551181 \,;
#X msg 59 268 name Slow-Hollow \, mod3d 0.212598 \, mod3c 0.181102
\, mod3b 0.173228 \, mod3a 0.275591 \, mod2d 0.141732 \, mod2c 0.393701
\, mod2b 0.220472 \, mod2a 0.472441 \, mod1d 0.0314961 \, mod1c 0.0314961
\, mod1b 0.220472 \, mod1a 0.866142 \, osc3d 0.251969 \, osc3c 0.220472
\, osc3b 0.527559 \, osc3a 0.409449 \, osc2d 0.19685 \, osc2c 0.228346
\, osc2b 0.165354 \, osc2a 0.0944882 \, osc1d 0.440945 \, osc1c 0.0629921
\, osc1b 0.511811 \, osc1a 0.0866142 \, env3r 0.125984 \, env3s 0.244094
\, env3d 0.354331 \, env3a 0.655118 \, env2r 0.0787402 \, env2s 0.692913
\, env2d 0.291339 \, env2a 0.393701 \, env1r 0.133858 \, env1s 0.519685
\, env1d 0.448819 \, env1a 0.771654 \,;
#X msg 58 282 name Slow-Thin \, mod3d 0.212598 \, mod3c 0.181102 \,
mod3b 0.173228 \, mod3a 0.275591 \, mod2d 0.141732 \, mod2c 0.393701
\, mod2b 0.220472 \, mod2a 0.472441 \, mod1d 0 \, mod1c 0 \, mod1b
0.748031 \, mod1a 0.716535 \, osc3d 0.251969 \, osc3c 0.220472 \, osc3b
0.527559 \, osc3a 0.409449 \, osc2d 0.19685 \, osc2c 0.228346 \, osc2b
0.165354 \, osc2a 0.0944882 \, osc1d 0.0708661 \, osc1c 0.125984 \,
osc1b 0.346457 \, osc1a 0.0866142 \, env3r 0.125984 \, env3s 0.244094
\, env3d 0.354331 \, env3a 0.749606 \, env2r 0.0393701 \, env2s 0.440945
\, env2d 0.141732 \, env2a 0.0314961 \, env1r 0.133858 \, env1s 0.212598
\, env1d 0.125984 \, env1a 0.0629921 \,;
#X msg 483 175 env1a color 128 \, env1a label TONE-ATTACK \, env1d
color 128 \, env1d label TONE-DECAY \, env1r color 128 \, env1r label
TONE-REL \, env1s color 128 \, env1s label TONE-SUS \, env2a color
128 \, env2a label WIDTH-ATTACK \, env2d color 128 \, env2d label WIDTH-DECAY
\, env2r color 128 \, env2r label WIDTH-REL \, env2s color 128 \, env2s
label WIDTH-SUS \, env3a color 128 \, env3a label AMP-ATTACK \, env3d
color 128 \, env3d label AMP-DECAY \, env3r color 128 \, env3r label
AMP-REL \, env3s color 128 \, env3s label AMP-SUS \, mod1a color 128
\, mod1a label FILTER-AMT \, mod1b color 128 \, mod1b label DETUNE
\, mod1c color 128 \, mod1c label SYNC-AMT \, mod1d color 2 \, mod2a
color 2 \, mod2b color 2 \, mod2c color 2 \, mod2d color 2 \, mod3a
color 2 \, mod3b color 2 \, mod3c color 2 \, mod3d color 128 \, mod3d
label VOLME \, osc1a color 128 \, osc1a label OSC1-PW \, osc1b color
128 \, osc1b label OSC2-PW \, osc1c color 128 \, osc1c label OSC1-PWM
osc1d color 128 \, osc1d label OSC2-PWM \, osc2a color 2 \, osc2b color
2 \, osc2c color 2 \, osc2d color 2 \, osc3a color 2 \, osc3b color
2 \, osc3c color 2 \, osc3d color 2 \,;
#X text 481 92 set up the interface to be human readable and show which
controls are actually used;
#X text 483 122 Requires modified [g-hsl];
#X msg 341 750 name Crazy Thing \, mod3d 0.23622 \, mod3c 0.181102
\, mod3b 0.173228 \, mod3a 0.275591 \, mod2d 0.141732 \, mod2c 0.393701
\, mod2b 0.220472 \, mod2a 0.472441 \, mod1d 0 \, mod1c 1 \, mod1b
0 \, mod1a 0.0314961 \, osc3d 0.251969 \, osc3c 0.220472 \, osc3b 0.527559
\, osc3a 0.409449 \, osc2d 0.19685 \, osc2c 0.228346 \, osc2b 0.165354
\, osc2a 0.0944882 \, osc1d 0.732283 \, osc1c 0.740157 \, osc1b 1 \,
osc1a 1 \, env3r 0.0752688 \, env3s 0.748778 \, env3d 0.975562 \, env3a
0.0322581 \, env2r 0.0393701 \, env2s 0.440945 \, env2d 0.0787402 \,
env2a 0 \, env1r 0.76378 \, env1s 0 \, env1d 1 \, env1a 0.0708661 \,
;
#X msg 533 434 name lazer \, mod3d 0.212598 \, mod3c 0.181102 \, mod3b
0.173228 \, mod3a 0.275591 \, mod2d 0.141732 \, mod2c 0.393701 \, mod2b
0.220472 \, mod2a 0.472441 \, mod1d 0 \, mod1c 1 \, mod1b 0.448819
\, mod1a 0.0629921 \, osc3d 0.251969 \, osc3c 0.220472 \, osc3b 0.527559
\, osc3a 0.409449 \, osc2d 0.19685 \, osc2c 0.228346 \, osc2b 0.165354
\, osc2a 0.0944882 \, osc1d 0.834646 \, osc1c 0.692913 \, osc1b 0.92126
\, osc1a 0.677165 \, env3r 0.0342131 \, env3s 0 \, env3d 0.140762 \,
env3a 0 \, env2r 0.0393701 \, env2s 1 \, env2d 0.661417 \, env2a 0.314961
\, env1r 0.456693 \, env1s 0.110236 \, env1d 0.0314961 \, env1a 0 \,
;
#X obj 91 50 sel 0 1 2 3 4 5 6 7 8 9;
#X msg 544 587 name Bassic \, mod3d 0.9 \, mod3c 0.181102 \, mod3b
0.173228 \, mod3a 0.275591 \, mod2d 0.141732 \, mod2c 0.393701 \, mod2b
0.220472 \, mod2a 0.472441 \, mod1d 0 \, mod1c 0 \, mod1b 0.0314961
\, mod1a 0.0629921 \, osc3d 0.251969 \, osc3c 0.220472 \, osc3b 0.527559
\, osc3a 0.409449 \, osc2d 0.19685 \, osc2c 0.228346 \, osc2b 0.165354
\, osc2a 0.0944882 \, osc1d 0.566929 \, osc1c 0.0708661 \, osc1b 0.92126
\, osc1a 0.0551181 \, env3r 0.0551181 \, env3s 0.75 \, env3d 0.204724
\, env3a 0.00023622 \, env2r 0.0393701 \, env2s 0.440945 \, env2d 0.661417
\, env2a 0.314961 \, env1r 0.133858 \, env1s 0.724409 \, env1d 0.015748
\, env1a 0.669291 \,;
#X msg 1018 285 name FB-String-Brass1 \, mod3d 0.9 \, mod3c 0.181102
\, mod3b 0.173228 \, mod3a 0.275591 \, mod2d 0.141732 \, mod2c 0.393701
\, mod2b 0.220472 \, mod2a 0.472441 \, mod1d 0.299213 \, mod1c 0.125984
\, mod1b 0.19685 \, mod1a 0.133858 \, osc3d 0.314961 \, osc3c 0.220472
\, osc3b 0.527559 \, osc3a 0.409449 \, osc2d 0.559055 \, osc2c 0.645669
\, osc2b 0.543307 \, osc2a 0.377953 \, osc1d 0.9 \, osc1c 0.307087
\, osc1b 0.614173 \, osc1a 0.866142 \, env3r 0.133858 \, env3s 0.8
\, env3d 0.314961 \, env3a 0.259843 \, env2r 0.637795 \, env2s 0.401575
\, env2d 0.338583 \, env2a 0.299213 \, env1r 0.149606 \, env1s 0.110236
\, env1d 0.0551181 \, env1a 0.0551181 \,;
#X msg 1044 571 name Gentle-Sync \, mod3d 0.7 \, mod3c 0.181102 \,
mod3b 0.173228 \, mod3a 0.275591 \, mod2d 0.141732 \, mod2c 0.393701
\, mod2b 0.220472 \, mod2a 0.472441 \, mod1d 0.574803 \, mod1c 0.669291
\, mod1b 0.511811 \, mod1a 0.133858 \, osc3d 0.314961 \, osc3c 0.220472
\, osc3b 0.527559 \, osc3a 0.409449 \, osc2d 0.559055 \, osc2c 0.645669
\, osc2b 0.543307 \, osc2a 0.377953 \, osc1d 0.503937 \, osc1c 0.905512
\, osc1b 0.0629921 \, osc1a 0.401575 \, env3r 0.133858 \, env3s 0.55
\, env3d 0.314961 \, env3a 0.259843 \, env2r 0.0866142 \, env2s 0.0866142
\, env2d 0.251969 \, env2a 0.141732 \, env1r 0.149606 \, env1s 0.110236
\, env1d 0.952756 \, env1a 0 \,;
#X obj 483 146 r loadbang-\$1;
#X connect 0 0 15 0;
#X connect 2 0 1 0;
#X connect 4 0 2 0;
#X connect 4 1 3 0;
#X connect 5 0 4 0;
#X connect 6 0 4 0;
#X connect 7 0 4 0;
#X connect 8 0 4 0;
#X connect 9 0 4 0;
#X connect 10 0 3 0;
#X connect 13 0 4 0;
#X connect 14 0 4 0;
#X connect 15 0 17 0;
#X connect 15 1 18 0;
#X connect 15 2 13 0;
#X connect 15 3 5 0;
#X connect 15 4 6 0;
#X connect 15 5 7 0;
#X connect 15 6 8 0;
#X connect 15 7 9 0;
#X connect 15 8 16 0;
#X connect 15 9 14 0;
#X connect 16 0 4 0;
#X connect 17 0 4 0;
#X connect 18 0 4 0;
#X connect 19 0 10 0;
#X restore 654 745 pd czz_presets;
#X floatatom 523 640 5 0 0 0 - - -;
#X obj 1409 574 s czz-\$1-adsr-a;
#X msg 589 627 4;
#X msg 903 223 env3a \$1;
#X msg 894 351 env3d \$1;
#X obj 894 375 s \$0-GUI;
#X obj 903 247 s \$0-GUI;
#X obj 901 705 s \$0-GUI;
#X obj 901 519 s \$0-GUI;
#X msg 901 495 env3s \$1;
#X msg 901 681 env3r \$1;
#X obj 903 203 f;
#X obj 894 332 f;
#X obj 901 651 f;
#X obj 903 139 r czz_attack-\$1;
#X obj 901 176 / 2000;
#X obj 899 279 r czz_decay-\$1;
#X obj 896 311 / 4000;
#X obj 901 441 r czz_sustain-\$1;
#X obj 901 471 / 100;
#X obj 901 614 / 4000;
#X obj 901 569 r czz_release-\$1;
#X obj 654 604 r czz_preset-\$1;
#X obj 409 271 r ctrlIn-\$1;
#X obj 405 491 s ctrlOut-\$1;
#X connect 0 0 20 0;
#X connect 2 0 25 0;
#X connect 11 0 14 0;
#X connect 14 0 12 0;
#X connect 15 0 24 0;
#X connect 15 1 17 0;
#X connect 15 2 18 0;
#X connect 15 3 19 0;
#X connect 20 0 5 0;
#X connect 20 0 6 0;
#X connect 22 1 21 0;
#X connect 23 0 22 0;
#X connect 25 0 22 0;
#X connect 26 0 29 0;
#X connect 27 0 28 0;
#X connect 32 0 31 0;
#X connect 33 0 30 0;
#X connect 34 0 26 0;
#X connect 35 0 27 0;
#X connect 36 0 33 0;
#X connect 37 0 38 0;
#X connect 38 0 34 0;
#X connect 39 0 40 0;
#X connect 40 0 35 0;
#X connect 41 0 42 0;
#X connect 42 0 32 0;
#X connect 43 0 36 0;
#X connect 44 0 43 0;
#X connect 45 0 22 0;
#X connect 46 0 20 1;
