#N canvas 4 49 843 575 10;
#X obj 403 193 *~;
#X obj 349 338 *~ 1;
#X obj 210 119 *~ 1;
#X obj 170 45 inlet~;
#X obj 264 180 delwrite~ \$1 1000;
#X obj 354 270 vd~ \$1 1000;
#X obj 473 56 inlet~;
#X obj 339 52 inlet~;
#X obj 347 391 outlet~;
#X connect 0 0 4 0;
#X connect 1 0 8 0;
#X connect 2 0 1 0;
#X connect 2 0 4 0;
#X connect 3 0 2 0;
#X connect 5 0 0 0;
#X connect 5 0 1 0;
#X connect 6 0 0 1;
#X connect 7 0 5 0;
