#N canvas 698 393 2132 820 10;
#X obj 304 186 r notesIn-\$1;
#X obj 304 491 s notesOut-\$1;
#X obj 25 186 inlet~ inL-\$1;
#X obj 133 186 inlet~ inR-\$1;
#X obj 25 491 outlet~ outL-\$1;
#X obj 133 491 outlet~ outR-\$1;
#X obj 474 185 r auxIn-\$1;
#X obj 473 208 r expIn-\$1;
#X obj 473 233 r fsIn-\$1;
#N canvas 723 332 787 588 arrays 0;
#N canvas 0 50 450 300 (subpatch) 0;
#X array druma 44104 float 0;
#X coords 0 1.02 44103 -1.02 200 130 1;
#X restore 77 66 graph;
#N canvas 0 50 450 300 (subpatch) 0;
#X array drumb 44104 float 0;
#X coords 0 1.02 44103 -1.02 200 130 1 0 0;
#X restore 79 223 graph;
#N canvas 0 50 450 300 (subpatch) 0;
#X array drumc 44104 float 0;
#X coords 0 1.02 44103 -1.02 200 130 1 0 0;
#X restore 303 62 graph;
#N canvas 0 50 450 300 (subpatch) 0;
#X array drumd 44104 float 0;
#X coords 0 1.02 44103 -1.02 200 130 1 0 0;
#X restore 306 230 graph;
#X obj 252 523 soundfiler;
#X msg 488 465 read ./d.wav drumd;
#X msg 343 461 read ./c.wav drumc;
#X msg 204 462 read ./b.wav drumb;
#X msg 58 467 read ./a.wav druma;
#X obj 273 397 r loadbang-\$1;
#X connect 5 0 4 0;
#X connect 6 0 4 0;
#X connect 7 0 4 0;
#X connect 8 0 4 0;
#X connect 9 0 8 0;
#X connect 9 0 7 0;
#X connect 9 0 6 0;
#X connect 9 0 5 0;
#X restore 568 113 pd arrays;
#N canvas 694 164 1086 512 synth 0;
#X obj 32 156 poly 4 1;
#X obj 32 187 pack 0 0 0;
#X obj 35 261 route 1 2 3 4, f 33;
#X obj 34 389 *~ 0.75;
#X obj 216 436 r tunedel-\$1-drums-local;
#X obj 34 415 outlet~;
#X obj 37 27 inlet;
#X obj 35 303 td-stretchy \$1;
#X obj 109 343 td-stretchy \$1;
#X obj 181 303 td-stretchy \$1;
#X obj 252 342 td-stretchy \$1;
#X obj 492 130 route 1 2 3 4, f 33;
#N canvas 324 629 450 300 route 0;
#X obj 69 97 unpack 0 0 0;
#X obj 68 68 t l l;
#X obj 68 197 list;
#X obj 139 144 t b;
#X obj 139 123 route 1 0;
#X obj 226 163 unpack 0 0 0;
#X obj 226 194 pack 0 0 0;
#X obj 68 19 inlet msg;
#X obj 68 218 outlet global;
#X obj 226 215 outlet voice;
#X obj 187 162 - 1;
#X connect 0 2 4 0;
#X connect 1 0 0 0;
#X connect 1 1 2 1;
#X connect 1 1 5 0;
#X connect 2 0 8 0;
#X connect 3 0 2 0;
#X connect 4 0 3 0;
#X connect 4 1 3 0;
#X connect 4 2 10 0;
#X connect 5 0 6 1;
#X connect 5 1 6 2;
#X connect 6 0 9 0;
#X connect 7 0 1 0;
#X connect 10 0 6 0;
#X restore 35 73 pd route;
#N canvas 324 629 450 300 route 0;
#X obj 69 97 unpack 0 0 0;
#X obj 68 68 t l l;
#X obj 68 197 list;
#X obj 139 144 t b;
#X obj 139 123 route 1 0;
#X obj 234 171 unpack 0 0 0;
#X obj 234 202 pack 0 0 0;
#X obj 68 19 inlet msg;
#X obj 68 218 outlet global;
#X obj 234 223 outlet voice;
#X obj 190 158 - 1;
#X connect 0 2 4 0;
#X connect 1 0 0 0;
#X connect 1 1 2 1;
#X connect 1 1 5 0;
#X connect 2 0 8 0;
#X connect 3 0 2 0;
#X connect 4 0 3 0;
#X connect 4 1 3 0;
#X connect 4 2 10 0;
#X connect 5 0 6 1;
#X connect 5 1 6 2;
#X connect 6 0 9 0;
#X connect 7 0 1 0;
#X connect 10 0 6 0;
#X restore 166 79 pd route;
#X obj 165 35 inlet ctrl;
#X connect 0 0 1 0;
#X connect 0 1 1 1;
#X connect 0 2 1 2;
#X connect 1 0 2 0;
#X connect 2 0 7 0;
#X connect 2 1 8 0;
#X connect 2 2 9 0;
#X connect 2 3 10 0;
#X connect 3 0 5 0;
#X connect 4 0 7 1;
#X connect 4 0 10 1;
#X connect 4 0 8 1;
#X connect 4 0 9 1;
#X connect 6 0 12 0;
#X connect 7 0 3 0;
#X connect 8 0 3 0;
#X connect 9 0 3 0;
#X connect 10 0 3 0;
#X connect 11 0 10 2;
#X connect 11 1 7 2;
#X connect 11 2 8 2;
#X connect 11 3 9 2;
#X connect 12 0 0 0;
#X connect 12 1 2 0;
#X connect 13 0 7 2;
#X connect 13 0 10 2;
#X connect 13 0 9 2;
#X connect 13 0 8 2;
#X connect 13 1 11 0;
#X connect 14 0 13 0;
#X restore 65 311 pd synth;
#X text 497 19 C&G Plays drum samples into a tuned delay line for pseudo
plucked string effect;
#X obj 1648 287 * 2;
#X obj 973 375 lop~ 5;
#X obj 972 344 sig~;
#X obj 742 476 * 4;
#X obj 972 292 * 0.5;
#X obj 738 537 lop~ 5;
#X obj 738 504 sig~;
#X msg 1201 418 set druma;
#X obj 1316 368 sel 0 1 2 3;
#X msg 1284 416 set drumb;
#X msg 1369 418 set drumc;
#X msg 1450 417 set drumd;
#X obj 1648 249 + 0.01;
#X obj 666 253 / 100;
#X obj 666 275 mtof;
#X obj 666 297 / 8.1785;
#X obj 730 419 /;
#X obj 734 370 t b f;
#X msg 734 392 1;
#X text 736 228 get delay time \, 'string length';
#X text 742 245 from cents;
#X obj 738 574 s~ tunedel-\$1-dtime-local;
#X obj 972 441 s~ tunedel-\$1-fb-local;
#X obj 1201 468 s tunedel-\$1-drums-local;
#X obj 1618 331 s tunedel-\$1-tone-local;
#X obj 972 318 + 0.48;
#X obj 660 203 r td_dtime-\$1;
#X obj 972 221 r td_fb-\$1;
#X obj 972 269 / 100;
#X obj 1647 177 r td_tone-\$1;
#X obj 1662 214 / 100;
#X obj 1316 272 r td_sample-\$1;
#X obj 395 185 r ctrlIn-\$1;
#X obj 395 490 s ctrlOut-\$1;
#X connect 0 0 10 0;
#X connect 10 0 4 0;
#X connect 10 0 5 0;
#X connect 12 0 36 0;
#X connect 13 0 34 0;
#X connect 14 0 13 0;
#X connect 15 0 18 0;
#X connect 16 0 37 0;
#X connect 17 0 33 0;
#X connect 18 0 17 0;
#X connect 19 0 35 0;
#X connect 20 0 19 0;
#X connect 20 1 21 0;
#X connect 20 2 22 0;
#X connect 20 3 23 0;
#X connect 21 0 35 0;
#X connect 22 0 35 0;
#X connect 23 0 35 0;
#X connect 24 0 12 0;
#X connect 25 0 26 0;
#X connect 26 0 27 0;
#X connect 27 0 29 0;
#X connect 28 0 15 0;
#X connect 29 0 30 0;
#X connect 29 1 28 1;
#X connect 30 0 28 0;
#X connect 37 0 14 0;
#X connect 38 0 25 0;
#X connect 39 0 40 0;
#X connect 40 0 16 0;
#X connect 41 0 42 0;
#X connect 42 0 24 0;
#X connect 43 0 20 0;
#X connect 44 0 10 1;
