#N canvas 1239 473 1321 625 10;
#X obj 30 241 throw~ outL;
#X obj 120 241 throw~ outR;
#X obj 211 241 noteout 1;
#X obj 211 201 unpack 0 0;
#X obj 29 28 r~ outL-\$1;
#X obj 120 28 r~ outR-\$1;
#X obj 211 28 r notesOut-\$1;
#X obj 307 57 / 100;
#X obj 211 163 spigot 0;
#X obj 256 134 > 0;
#X obj 427 57 t f f;
#X obj 30 182 *~ 1;
#X obj 120 182 *~ 1;
#X obj 307 28 r r-out-gain-\$1-\$2;
#X obj 427 28 r r-out-midich-\$1-\$2;
#X connect 3 0 2 0;
#X connect 3 1 2 1;
#X connect 4 0 11 0;
#X connect 5 0 12 0;
#X connect 6 0 8 0;
#X connect 7 0 11 1;
#X connect 7 0 12 1;
#X connect 8 0 3 0;
#X connect 9 0 8 1;
#X connect 10 0 9 0;
#X connect 10 1 2 2;
#X connect 11 0 0 0;
#X connect 12 0 1 0;
#X connect 13 0 7 0;
#X connect 14 0 10 0;
