#N canvas 204 447 1566 382 10;
#X obj 202 80 r r-midi-notegate-\$1;
#X obj 61 81 r r-midi-ch-\$1;
#X obj 352 80 r r-midi-ctrlgate-\$1;
#X obj 54 237 r r-midi-auxcc-\$1;
#X obj 199 238 r r-midi-fscc-\$1;
#X obj 349 240 r r-midi-expcc-\$1;
#X obj 202 155 r r-midi-pgmgate-\$1;
#X obj 61 102 s midiCh;
#X obj 202 101 s midiNoteGate;
#X obj 352 101 s midiCtrlGate;
#X obj 202 176 s midiPgmGate;
#X obj 54 258 s midiAuxCC;
#X obj 199 259 s midiFsCC;
#X obj 349 261 s midiExpCC;
#X text 140 35 send router parameters to mother.pd to turn gates on/off
and select cc's;
#X obj 53 298 r r-midi-ppreset-cc-\$1;
#X obj 198 299 r r-midi-npreset-cc-\$1;
#X obj 348 298 r r-midi-save-preset-cc-\$1;
#X obj 53 319 s midiPrevPresetCC;
#X obj 198 320 s midiNextPresetCC;
#X obj 348 321 s midiSavePresetCC;
#X obj 61 177 s midiSelectModuleCC;
#X obj 61 156 r r-midi-module-cc-\$1;
#X obj 357 153 r r-instant-param-\$1;
#X obj 357 174 s instantParamBool;
#X connect 0 0 8 0;
#X connect 1 0 7 0;
#X connect 2 0 9 0;
#X connect 3 0 11 0;
#X connect 4 0 12 0;
#X connect 5 0 13 0;
#X connect 6 0 10 0;
#X connect 15 0 18 0;
#X connect 16 0 19 0;
#X connect 17 0 20 0;
#X connect 22 0 21 0;
#X connect 23 0 24 0;
