#N canvas 505 406 1540 726 10;
#X obj 304 186 r notesIn-\$1;
#X obj 304 491 s notesOut-\$1;
#X obj 23 9 r loaddefs-\$1;
#X msg 23 76 loaddefinitions \$1;
#X obj 181 9 r loadbang-\$1;
#X obj 181 76 print loading definiton for \$1;
#X obj 23 41 symbol;
#X obj 25 186 inlet~ inL-\$1;
#X obj 135 186 inlet~ inR-\$1;
#X obj 27 491 outlet~ outL-\$1;
#X obj 136 491 outlet~ outR-\$1;
#X obj 424 185 r auxIn-\$1;
#X obj 423 208 r expIn-\$1;
#X obj 423 233 r fsIn-\$1;
#X obj 516 45 int 0;
#X obj 516 76 s aux-led-\$1;
#X obj 628 169 s aux-label-\$1;
#X obj 23 112 KontrolModule \$1 U-norisampler;
#X obj 181 45 print loaded:nori sampler into \$1, f 35;
#N canvas 622 353 1408 955 synth 0;
#X text 267 567 final gain adjustment;
#X obj 147 267 pack 0 0 0;
#X text 40 41 sample is transposed by keys;
#X obj 600 274 / 44100;
#X floatatom 600 296 5 0 0 0 - - -, f 5;
#X obj 549 496 lop~ 5;
#X obj 647 457 lop~ 5;
#X obj 549 419 * 3;
#X obj 549 446 wrap, f 5;
#X obj 549 474 sig~ 0.1;
#X obj 647 435 sig~ 0.1;
#X obj 547 593 osc~;
#X obj 571 621 *~;
#X obj 546 527 *~;
#X obj 646 509 *~;
#X obj 546 561 *~ 10;
#X obj 572 659 +~ 1;
#X obj 156 226 poly 6 1, f 11;
#X obj 116 311 route 1 2 3 4 5 6, f 34;
#X floatatom 486 295 15 0 0 0 - - -, f 15;
#X obj 204 568 *~ 0.5;
#X text 42 18 sampler with recording;
#X text 489 229 length of sound in seconds and samples;
#X text 39 66 max recording time 1 min;
#X text 39 90 knobs control speed \, speed modulation \, loop start
\, and duration, f 66;
#N canvas 796 334 1161 613 record-load-sample 0;
#X msg 247 286 bang;
#X msg 543 271 0;
#X obj 471 90 sel 1 0;
#X obj 614 261 timer;
#X obj 614 291 * 44.1;
#X obj 355 409 *~;
#X obj 403 377 line~;
#X msg 426 264 1 1;
#X msg 465 265 0 2;
#X msg 506 270 1;
#X text 858 346 time length of recording in samples;
#X text 16 25 records as long as aux button or foot switch are held
down;
#X text 82 46 max 2 seconds;
#X obj 90 198 delay 2;
#X msg 101 269 stop;
#X obj 17 465 soundfiler;
#N canvas 0 50 450 300 (subpatch) 0;
#X array newsample-\$1 2.646e+06 float 0;
#X coords 0 1.02 2.646e+06 -1.02 200 130 1 0 0;
#X restore 794 32 graph;
#X obj 18 345 i;
#X msg 667 191 stop;
#X obj 393 128 t b b b b b;
#X msg 758 193 0;
#X obj 514 128 t b b b b b;
#X obj 470 41 i;
#X obj 470 63 change;
#X text 532 55 don't do things twice;
#X text 728 215 autostopper;
#X obj 685 236 delay 60000;
#X obj 616 356 expr if($f1 < 4410 \, 4410 \, $f1);
#X obj 879 295 soundfiler;
#X text 865 371 it must be at least 4410 cause this;
#X text 874 401 is what the player assumes;
#X obj 468 15 r auxIn-\$1;
#X obj 554 16 r fsIn-\$1;
#X obj 521 306 s aux-led-\$1;
#X obj 306 261 inlet~ inL;
#X obj 380 281 inlet~ inR;
#X obj 877 190 r loadbang-\$1;
#X obj 616 439 s dur-\$1;
#X obj 53 314 r dur-\$1;
#X obj 356 463 tabwrite~ newsample-\$1;
#X obj 879 224 symbol \$1;
#X msg 879 265 read ./sound.wav newsample-\$1;
#X obj 19 370 pack f s;
#X msg 19 398 write -nframes \$1 ./sound.wav newsample-\$2;
#X obj 76 341 symbol \$1;
#X obj 67 230 t b b b;
#X obj 1005 176 bng 15 250 50 0 empty empty empty 17 7 0 10 -262144
-1 -1;
#X connect 0 0 39 0;
#X connect 1 0 33 0;
#X connect 2 0 19 0;
#X connect 2 1 21 0;
#X connect 3 0 4 0;
#X connect 4 0 27 0;
#X connect 5 0 39 0;
#X connect 6 0 5 1;
#X connect 7 0 6 0;
#X connect 8 0 6 0;
#X connect 9 0 33 0;
#X connect 13 0 45 0;
#X connect 14 0 39 0;
#X connect 17 0 42 0;
#X connect 18 0 26 0;
#X connect 19 0 0 0;
#X connect 19 1 7 0;
#X connect 19 2 9 0;
#X connect 19 3 3 0;
#X connect 19 4 26 0;
#X connect 20 0 22 0;
#X connect 21 0 13 0;
#X connect 21 1 8 0;
#X connect 21 2 1 0;
#X connect 21 3 3 1;
#X connect 21 4 18 0;
#X connect 22 0 23 0;
#X connect 23 0 2 0;
#X connect 26 0 20 0;
#X connect 27 0 37 0;
#X connect 28 0 27 0;
#X connect 31 0 22 0;
#X connect 32 0 22 0;
#X connect 34 0 5 0;
#X connect 35 0 5 0;
#X connect 36 0 40 0;
#X connect 38 0 17 1;
#X connect 40 0 41 0;
#X connect 41 0 28 0;
#X connect 42 0 43 0;
#X connect 43 0 15 0;
#X connect 44 0 42 1;
#X connect 45 0 17 0;
#X connect 45 1 14 0;
#X connect 45 2 44 0;
#X connect 46 0 40 0;
#X restore 559 181 pd record-load-sample;
#X obj 139 599 outlet~ outL;
#X obj 249 597 outlet~ outR;
#X obj 568 351 r n_mod-\$1;
#X obj 568 372 / 100;
#X obj 152 189 r notesIn-\$1;
#X obj 552 144 inlet~;
#X obj 640 151 inlet~;
#X obj 111 367 samplervoice \$1;
#X obj 600 252 r dur-\$1;
#X obj 572 689 s~ mod-\$1;
#X obj 159 398 samplervoice \$1;
#X obj 181 425 samplervoice \$1;
#X obj 227 366 samplervoice \$1;
#X obj 269 398 samplervoice \$1;
#X obj 297 424 samplervoice \$1;
#X connect 1 0 18 0;
#X connect 3 0 4 0;
#X connect 5 0 13 0;
#X connect 5 0 13 1;
#X connect 6 0 14 1;
#X connect 6 0 14 0;
#X connect 7 0 8 0;
#X connect 8 0 9 0;
#X connect 9 0 5 0;
#X connect 10 0 6 0;
#X connect 11 0 12 0;
#X connect 12 0 16 0;
#X connect 13 0 15 0;
#X connect 14 0 12 1;
#X connect 15 0 11 0;
#X connect 16 0 35 0;
#X connect 17 0 1 0;
#X connect 17 1 1 1;
#X connect 17 2 1 2;
#X connect 18 0 33 0;
#X connect 18 1 36 0;
#X connect 18 2 37 0;
#X connect 18 3 38 0;
#X connect 18 4 39 0;
#X connect 18 5 40 0;
#X connect 20 0 26 0;
#X connect 20 0 27 0;
#X connect 28 0 29 0;
#X connect 29 0 7 0;
#X connect 29 0 10 0;
#X connect 30 0 17 0;
#X connect 31 0 25 0;
#X connect 32 0 25 1;
#X connect 33 0 20 0;
#X connect 34 0 3 0;
#X connect 34 0 19 0;
#X connect 36 0 20 0;
#X connect 37 0 20 0;
#X connect 38 0 20 0;
#X connect 39 0 20 0;
#X connect 40 0 20 0;
#X restore 127 312 pd synth;
#X msg 628 137 Aux/FS: Hold to REC;
#X connect 2 0 6 0;
#X connect 2 0 5 0;
#X connect 3 0 17 0;
#X connect 4 0 14 0;
#X connect 4 0 20 0;
#X connect 4 0 18 0;
#X connect 6 0 3 0;
#X connect 7 0 19 0;
#X connect 8 0 19 1;
#X connect 14 0 15 0;
#X connect 19 0 9 0;
#X connect 19 1 10 0;
#X connect 20 0 16 0;
