#N canvas 133 544 1540 726 10;
#X obj 304 186 r notesIn-\$1;
#X obj 304 491 s notesOut-\$1;
#X obj 628 5 r loadbang-\$1;
#X obj 25 186 inlet~ inL-\$1;
#X obj 135 186 inlet~ inR-\$1;
#X obj 27 491 outlet~ outL-\$1;
#X obj 136 491 outlet~ outR-\$1;
#X obj 499 186 r auxIn-\$1;
#X obj 498 209 r expIn-\$1;
#X obj 498 234 r fsIn-\$1;
#X obj 516 45 int 0;
#X obj 516 76 s aux-led-\$1;
#X obj 628 169 s aux-label-\$1;
#X obj 398 186 r ctrlIn-\$1;
#X obj 398 491 s ctrlOut-\$1;
#X msg 628 137 Empty Slot;
#X connect 2 0 10 0;
#X connect 2 0 15 0;
#X connect 10 0 11 0;
#X connect 15 0 12 0;
