#N canvas 0 543 1540 726 10;
#X obj 304 186 r notesIn-\$1;
#X obj 304 491 s notesOut-\$1;
#X obj 628 5 r loadbang-\$1;
#X obj 25 186 inlet~ inL-\$1;
#X obj 135 186 inlet~ inR-\$1;
#X obj 27 491 outlet~ outL-\$1;
#X obj 136 491 outlet~ outR-\$1;
#X obj 499 186 r auxIn-\$1;
#X obj 498 209 r expIn-\$1;
#X obj 498 234 r fsIn-\$1;
#X obj 516 45 int 0;
#X obj 516 76 s aux-led-\$1;
#X obj 628 109 s aux-label-\$1;
#X obj 398 186 r ctrlIn-\$1;
#X obj 398 491 s ctrlOut-\$1;
#X msg 628 77 Empty Slot;
#X obj 761 89 sel \$1;
#X msg 1089 394 /oled/gClear 3 1;
#X msg 665 389 /oled/gFlip 3;
#X obj 774 507 s oscOut;
#X obj 799 61 unpack s s;
#X obj 799 40 r activePage;
#X obj 811 152 &&;
#X msg 862 119 1;
#X msg 905 119 0;
#X obj 811 184 sel 1 0;
#X msg 744 119 1;
#X msg 787 119 0;
#X obj 862 89 sel pg_main;
#X text 868 184 page and module is active;
#X obj 811 299 t b b b b b;
#X msg 795 397 /oled/gPrintln 3 16 10 16 1 for \;;
#X msg 765 371 /oled/gPrintln 3 32 10 16 1 press enc \;;
#X msg 818 423 /oled/gPrintln 0 20 10 16 1 modules \;;
#X connect 0 0 1 0;
#X connect 2 0 10 0;
#X connect 2 0 15 0;
#X connect 10 0 11 0;
#X connect 13 0 14 0;
#X connect 15 0 12 0;
#X connect 16 0 26 0;
#X connect 16 1 27 0;
#X connect 17 0 19 0;
#X connect 18 0 19 0;
#X connect 20 0 16 0;
#X connect 20 1 28 0;
#X connect 21 0 20 0;
#X connect 22 0 25 0;
#X connect 23 0 22 1;
#X connect 24 0 22 1;
#X connect 25 0 30 0;
#X connect 26 0 22 0;
#X connect 27 0 22 0;
#X connect 28 0 23 0;
#X connect 28 1 24 0;
#X connect 30 0 18 0;
#X connect 30 1 32 0;
#X connect 30 2 31 0;
#X connect 30 3 33 0;
#X connect 30 4 17 0;
