#N canvas 366 180 1487 715 10;
#X declare -path externals;
#X obj 118 366 s adc0;
#X obj 179 366 s adc1;
#X obj 241 366 s adc2;
#X obj 305 366 s adc3;
#X obj 365 366 s adc4;
#X obj 429 366 s adc5;
#X obj 14 8 loadbang;
#X obj 14 34 delay 300;
#X obj 494 366 s adc6;
#X obj 554 366 s adc7;
#X msg 211 219 open;
#X obj 259 150 r initbang;
#X obj 14 60 s initbang;
#X msg 387 184 open adc;
#X obj 259 262 terminal_tedium_adc;
#X msg 16 247 smooth 4;
#X msg 15 202 deadband 2;
#X text 475 129 the "open" message opens the device. - don't supply
any parameter for use with the wm8731 version (= 6 ADC channels) -
use "open adc" for use with pcm5102a version (= 8 ADC channels). the
metro object determines the update rate (in ms).;
#X text 476 208 the "smooth" message adds (optional) averaging (not
connected in this example): 1 \, 2 \, 4 \, 8 \, and 16 are the options
(defaults to 1 \, ie no averaging) the "deadband" message can be used
to add some hysteresis (ditto: not connected here): 0 \, 1 \, 2 \,
3 \, 4 \, and 5 are legal values (default is 0).;
#X obj 887 602 tedium_input 4;
#X text 958 47 tact switches #0-2:;
#X obj 995 602 tedium_input 17;
#X obj 882 541 tedium_output 16;
#X obj 887 648 tedium_input 14;
#X obj 995 648 tedium_input 27;
#X obj 1012 541 tedium_output 12;
#X obj 557 658 tedium_output 26;
#X text 887 568 gate inputs #0-3:;
#X obj 935 153 s switch0;
#X obj 1140 153 s switch2;
#X obj 1038 153 s switch1;
#X obj 1012 491 r gateOut1;
#X obj 882 491 r gateOut0;
#X obj 557 608 r led0;
#X obj 887 625 s gateIn0;
#X obj 887 671 s gateIn2;
#X obj 995 625 s gateIn1;
#X obj 995 671 s gateIn3;
#X obj 981 212 r switch0;
#X obj 981 285 s gateOut0;
#X obj 981 242 tgl 15 0 empty empty empty 17 7 0 10 -262144 -1 -1 0
1;
#X obj 1053 241 tgl 15 0 empty empty empty 17 7 0 10 -262144 -1 -1
0 1;
#X obj 1053 211 r switch1;
#X obj 1053 284 s gateOut1;
#X obj 981 262 spigot 0;
#X obj 1053 260 spigot 0;
#X obj 1132 240 tgl 15 0 empty empty empty 17 7 0 10 -262144 -1 -1
0 1;
#X obj 1132 259 spigot 0;
#X obj 1132 283 s led0;
#X obj 1132 210 r switch2;
#X obj 1238 225 tgl 15 0 empty empty empty 17 7 0 10 -262144 -1 -1
0 1;
#X obj 633 37 declare -path externals;
#X obj 130 509 r adc0;
#X obj 130 591 s oknob1Raw;
#X obj 212 509 r adc1;
#X obj 212 591 s oknob2Raw;
#X obj 293 591 s oknob3Raw;
#X obj 371 591 s oknob4Raw;
#X text 128 471 mapping to kontrolrack msgs \, see pd rack;
#X obj 556 505 r switch0;
#X obj 628 505 r switch1;
#X obj 707 505 r switch2;
#X obj 556 574 s oenc;
#X obj 130 550 change -1;
#X obj 212 550 change -1;
#X obj 293 550 change -1;
#X obj 371 550 change -1;
#X obj 259 219 metro 10;
#X obj 935 94 tedium_switch 23;
#X obj 1038 94 tedium_switch 25;
#X obj 1140 94 tedium_switch 24;
#X obj 628 528 sel 1;
#X obj 556 528 sel 1;
#X obj 707 528 s oencbut;
#X obj 293 509 r adc3;
#X obj 371 509 r adc4;
#X obj 875 401 change -1;
#X obj 953 401 change -1;
#X obj 875 360 r adc2;
#X obj 953 360 r adc5;
#X obj 953 442 s cvIn1;
#X obj 875 442 s cvIn0;
#X obj 677 607 r initbang;
#X msg 677 630 0;
#X msg 556 551 0;
#X msg 628 551 1;
#X connect 6 0 7 0;
#X connect 7 0 12 0;
#X connect 10 0 14 0;
#X connect 11 0 10 0;
#X connect 11 0 13 0;
#X connect 11 0 16 0;
#X connect 11 0 15 0;
#X connect 11 0 67 0;
#X connect 14 0 0 0;
#X connect 14 1 1 0;
#X connect 14 2 2 0;
#X connect 14 3 3 0;
#X connect 14 4 4 0;
#X connect 14 5 5 0;
#X connect 15 0 14 0;
#X connect 16 0 14 0;
#X connect 19 0 34 0;
#X connect 21 0 36 0;
#X connect 23 0 35 0;
#X connect 24 0 37 0;
#X connect 31 0 25 0;
#X connect 32 0 22 0;
#X connect 33 0 26 0;
#X connect 38 0 40 0;
#X connect 40 0 44 0;
#X connect 41 0 45 0;
#X connect 42 0 41 0;
#X connect 44 0 39 0;
#X connect 45 0 43 0;
#X connect 46 0 47 0;
#X connect 47 0 48 0;
#X connect 49 0 46 0;
#X connect 50 0 47 1;
#X connect 50 0 45 1;
#X connect 50 0 44 1;
#X connect 52 0 63 0;
#X connect 54 0 64 0;
#X connect 59 0 72 0;
#X connect 60 0 71 0;
#X connect 61 0 73 0;
#X connect 63 0 53 0;
#X connect 64 0 55 0;
#X connect 65 0 56 0;
#X connect 66 0 57 0;
#X connect 67 0 14 0;
#X connect 68 1 28 0;
#X connect 69 1 30 0;
#X connect 70 1 29 0;
#X connect 71 0 85 0;
#X connect 72 0 84 0;
#X connect 74 0 65 0;
#X connect 75 0 66 0;
#X connect 76 0 81 0;
#X connect 77 0 80 0;
#X connect 78 0 76 0;
#X connect 79 0 77 0;
#X connect 82 0 83 0;
#X connect 83 0 26 0;
#X connect 84 0 62 0;
#X connect 85 0 62 0;
