#N canvas 1103 545 1315 687 10;
#X obj 304 186 r notesIn-\$1;
#X obj 304 491 s notesOut-\$1;
#X obj 25 186 inlet~ inL-\$1;
#X obj 137 186 inlet~ inR-\$1;
#X obj 27 491 outlet~ outL-\$1;
#X obj 136 491 outlet~ outR-\$1;
#X obj 547 184 r auxIn-\$1;
#X obj 546 207 r expIn-\$1;
#X obj 546 232 r fsIn-\$1;
#N canvas 521 293 1905 999 synth 1;
#X obj 66 274 pack 0 0 0, f 11;
#X obj 65 375 route 1 2 3 4, f 55;
#X obj 66 247 poly 4 1, f 11;
#X obj 213 826 outlet~;
#X obj 214 681 *~ 1;
#X obj 56 611 rs-voice \$1;
#X obj 214 703 lop~ 5000;
#X obj 146 612 rs-voice \$1;
#X obj 237 612 rs-voice \$1;
#X obj 337 612 rs-voice \$1;
#X obj 22 19 inlet notes;
#N canvas 324 629 450 300 route 0;
#X obj 69 97 unpack 0 0 0;
#X obj 68 68 t l l;
#X obj 68 197 list;
#X obj 139 144 t b;
#X obj 139 123 route 1 0;
#X obj 226 163 unpack 0 0 0;
#X obj 226 194 pack 0 0 0;
#X obj 68 19 inlet msg;
#X obj 68 218 outlet global;
#X obj 226 215 outlet voice;
#X obj 187 162 - 1;
#X connect 0 2 4 0;
#X connect 1 0 0 0;
#X connect 1 1 2 1;
#X connect 1 1 5 0;
#X connect 2 0 8 0;
#X connect 3 0 2 0;
#X connect 4 0 3 0;
#X connect 4 1 3 0;
#X connect 4 2 10 0;
#X connect 5 0 6 1;
#X connect 5 1 6 2;
#X connect 6 0 9 0;
#X connect 7 0 1 0;
#X connect 10 0 6 0;
#X restore 78 100 pd route;
#N canvas 324 629 450 300 route 0;
#X obj 69 97 unpack 0 0 0;
#X obj 68 68 t l l;
#X obj 68 197 list;
#X obj 139 144 t b;
#X obj 139 123 route 1 0;
#X obj 234 171 unpack 0 0 0;
#X obj 234 202 pack 0 0 0;
#X obj 68 19 inlet msg;
#X obj 68 218 outlet global;
#X obj 234 223 outlet voice;
#X obj 190 158 - 1;
#X connect 0 2 4 0;
#X connect 1 0 0 0;
#X connect 1 1 2 1;
#X connect 1 1 5 0;
#X connect 2 0 8 0;
#X connect 3 0 2 0;
#X connect 4 0 3 0;
#X connect 4 1 3 0;
#X connect 4 2 10 0;
#X connect 5 0 6 1;
#X connect 5 1 6 2;
#X connect 6 0 9 0;
#X connect 7 0 1 0;
#X connect 10 0 6 0;
#X restore 209 106 pd route;
#X obj 148 21 inlet ctrl;
#X obj 297 279 route 1 2 3 4, f 55;
#X obj 541 117 unpack 0 0 0;
#X obj 541 138 sel 123;
#X msg 541 159 stop;
#X connect 0 0 1 0;
#X connect 1 0 5 0;
#X connect 1 1 7 0;
#X connect 1 2 8 0;
#X connect 1 3 9 0;
#X connect 2 0 0 0;
#X connect 2 1 0 1;
#X connect 2 2 0 2;
#X connect 4 0 6 0;
#X connect 5 0 4 0;
#X connect 6 0 3 0;
#X connect 7 0 4 0;
#X connect 8 0 4 0;
#X connect 9 0 4 0;
#X connect 10 0 11 0;
#X connect 11 0 2 0;
#X connect 11 1 1 0;
#X connect 12 0 5 1;
#X connect 12 0 9 1;
#X connect 12 0 8 1;
#X connect 12 0 7 1;
#X connect 12 1 14 0;
#X connect 13 0 12 0;
#X connect 13 0 15 0;
#X connect 14 0 5 1;
#X connect 14 1 7 1;
#X connect 14 2 8 1;
#X connect 14 3 9 1;
#X connect 15 0 16 0;
#X connect 16 0 17 0;
#X connect 17 0 2 0;
#X restore 71 322 pd synth;
#X text 415 13 C&G ramp synth;
#X obj 419 186 r ctrlIn-\$1;
#X obj 405 491 s ctrlOut-\$1;
#X connect 0 0 9 0;
#X connect 9 0 4 0;
#X connect 9 0 5 0;
#X connect 11 0 9 1;
