#N canvas 871 66 1082 940 10;
#X text 351 43 note messages;
#X obj 605 628 f;
#X msg 605 664 0 \$1;
#X obj 303 96 unpack, f 9;
#X obj 363 124 sel 0;
#X text 413 122 selects note off messages so we can set decay time
later;
#X obj 303 44 inlet;
#X obj 315 931 outlet~;
#X text 643 631 decay time;
#X text 25 10 synth voice with waveform change;
#X obj 604 744 *~;
#X obj 83 685 osc~ 440;
#X msg 336 627 0;
#X msg 293 711 1;
#X msg 411 710 1;
#X msg 104 715 1;
#N canvas 1155 620 727 452 triangle 0;
#X obj 130 207 outlet~;
#X obj 131 65 inlet~;
#N canvas 700 255 779 606 triangle 0;
#X obj 80 290 -~ 0.5;
#X obj 228 290 -~ 0.5;
#X obj 134 340 -~;
#X obj 220 480 outlet~;
#X obj 80 91 phasor~ 0;
#X text 131 55 frequency;
#X obj 228 236 wrap~;
#N canvas 0 50 540 420 4*$v1*(1-$v1) 0;
#X obj 182 177 *~ 4;
#X obj 132 177 sig~ 1;
#X obj 132 200 -~;
#X obj 132 228 *~;
#X obj 182 76 inlet~;
#X obj 132 253 outlet~;
#X connect 0 0 3 1;
#X connect 1 0 2 0;
#X connect 2 0 3 0;
#X connect 3 0 5 0;
#X connect 4 0 2 1;
#X connect 4 0 0 0;
#X restore 228 262 pd 4*$v1*(1-$v1);
#N canvas 0 50 540 420 4*$v1*(1-$v1) 0;
#X obj 182 177 *~ 4;
#X obj 132 177 sig~ 1;
#X obj 132 200 -~;
#X obj 132 228 *~;
#X obj 182 76 inlet~;
#X obj 132 253 outlet~;
#X connect 0 0 3 1;
#X connect 1 0 2 0;
#X connect 2 0 3 0;
#X connect 3 0 5 0;
#X connect 4 0 2 1;
#X connect 4 0 0 0;
#X restore 79 261 pd 4*$v1*(1-$v1);
#X text 489 64 tri-saw factor (0-1);
#X obj 80 54 inlet~;
#X obj 430 66 inlet;
#X obj 430 89 clip 0.01 0.99;
#X obj 294 372 line~;
#X obj 294 350 pack 0 10;
#N canvas 0 50 540 420 4*$f1*(1-$f1) 0;
#X obj 185 177 * 4;
#X obj 137 72 inlet;
#X msg 137 171 1 \$1;
#X obj 137 200 -;
#X obj 137 228 *;
#X obj 137 107 t a a;
#X obj 137 253 outlet;
#X connect 0 0 4 1;
#X connect 1 0 5 0;
#X connect 2 0 3 0;
#X connect 3 0 4 0;
#X connect 4 0 6 0;
#X connect 5 0 2 0;
#X connect 5 1 0 0;
#X restore 430 290 pd 4*$f1*(1-$f1);
#X obj 245 151 line~;
#X obj 245 129 pack 0 10;
#X obj 227 177 +~;
#X msg 245 98 0.5;
#X obj 220 414 /~;
#X msg 294 318 1;
#X obj 241 45 inlet;
#X obj 245 77 r loadbang-\$1;
#X obj 294 293 r loadbang-\$1;
#X connect 0 0 2 0;
#X connect 1 0 2 1;
#X connect 2 0 20 0;
#X connect 4 0 8 0;
#X connect 4 0 18 0;
#X connect 6 0 7 0;
#X connect 7 0 1 0;
#X connect 8 0 0 0;
#X connect 10 0 4 0;
#X connect 11 0 12 0;
#X connect 12 0 15 0;
#X connect 12 0 17 0;
#X connect 13 0 20 1;
#X connect 14 0 13 0;
#X connect 15 0 14 0;
#X connect 16 0 18 1;
#X connect 17 0 16 0;
#X connect 18 0 6 0;
#X connect 19 0 17 0;
#X connect 20 0 3 0;
#X connect 21 0 14 0;
#X connect 22 0 4 1;
#X connect 23 0 19 0;
#X connect 24 0 21 0;
#X restore 130 162 pd triangle;
#X text 202 48 slope;
#X msg 194 123 0.5;
#X obj 189 96 r loadbang-\$1;
#X connect 1 0 2 0;
#X connect 2 0 0 0;
#X connect 4 0 2 2;
#X connect 5 0 4 0;
#X restore 502 685 pd triangle;
#X obj 104 613 sel 0 1 2 3;
#X msg 528 717 1;
#X text 93 420 change waveform;
#X obj 104 550 delay 2;
#X obj 104 583 f;
#X obj 104 474 t b a b, f 11;
#X obj 82 743 smoothswitch;
#X obj 266 749 smoothswitch;
#X obj 390 742 smoothswitch;
#X obj 501 746 smoothswitch;
#X obj 316 864 *~;
#X msg 547 615 \$1 5;
#X obj 482 264 t b f;
#X obj 514 290 * 0.00787402;
#X obj 605 693 vline~;
#X obj 303 536 +~;
#X obj 482 481 *~;
#X obj 316 910 hip~ 5;
#X obj 347 363 *~;
#X obj 303 262 +;
#X obj 303 328 sig~;
#X obj 303 285 mtof;
#X obj 303 569 *~ 1;
#X obj 510 326 r rs_ramp_attack-\$1;
#X obj 566 348 r rs_ramp_decay-\$1;
#X obj 623 572 r rs_decay-\$1;
#X obj 104 438 r rs_waveform-\$1;
#X obj 365 214 r rs_ramp_amt-\$1;
#X obj 159 107 r rs_trans-\$1;
#X obj 482 399 c_ead 3 50 \$1;
#X obj 270 679 s_blsquare \$1;
#X obj 391 683 s_blsaw \$1;
#X obj 299 648 sig~ 0.5;
#X obj 633 70 inlet ctrl;
#X obj 633 92 route 0 2;
#X obj 591 137 - 0.5;
#X obj 585 191 t b f;
#X text 656 146 PB = 0..1 \, but its biploar -1 to 1 \, so (x-0.5 *
2 * 48);
#X obj 303 177 +;
#X obj 764 98 r pb_range-\$1;
#X obj 764 119 * 2;
#X obj 591 158 * 2;
#X connect 1 0 2 0;
#X connect 2 0 31 0;
#X connect 3 0 55 0;
#X connect 3 1 4 0;
#X connect 4 0 1 0;
#X connect 4 1 29 0;
#X connect 6 0 3 0;
#X connect 10 0 27 1;
#X connect 11 0 23 0;
#X connect 12 0 23 1;
#X connect 12 0 24 1;
#X connect 12 0 25 1;
#X connect 12 0 26 1;
#X connect 13 0 24 1;
#X connect 14 0 25 1;
#X connect 15 0 23 1;
#X connect 16 0 26 0;
#X connect 17 0 15 0;
#X connect 17 1 13 0;
#X connect 17 2 14 0;
#X connect 17 3 18 0;
#X connect 18 0 26 1;
#X connect 20 0 21 0;
#X connect 21 0 17 0;
#X connect 22 0 20 0;
#X connect 22 1 21 1;
#X connect 22 2 12 0;
#X connect 23 0 27 0;
#X connect 24 0 27 0;
#X connect 25 0 27 0;
#X connect 26 0 27 0;
#X connect 27 0 34 0;
#X connect 28 0 31 0;
#X connect 29 0 46 0;
#X connect 29 1 30 0;
#X connect 30 0 28 0;
#X connect 31 0 10 1;
#X connect 31 0 10 0;
#X connect 32 0 39 0;
#X connect 33 0 32 1;
#X connect 34 0 7 0;
#X connect 35 0 33 1;
#X connect 36 0 38 0;
#X connect 37 0 32 0;
#X connect 37 0 35 0;
#X connect 38 0 37 0;
#X connect 39 0 11 0;
#X connect 39 0 16 0;
#X connect 39 0 47 0;
#X connect 39 0 48 0;
#X connect 40 0 46 1;
#X connect 41 0 46 2;
#X connect 42 0 1 1;
#X connect 43 0 22 0;
#X connect 44 0 35 1;
#X connect 45 0 36 1;
#X connect 46 0 33 0;
#X connect 47 0 24 0;
#X connect 48 0 25 0;
#X connect 49 0 47 1;
#X connect 50 0 51 0;
#X connect 51 0 52 0;
#X connect 52 0 58 0;
#X connect 53 0 55 0;
#X connect 53 1 55 1;
#X connect 55 0 36 0;
#X connect 56 0 57 0;
#X connect 57 0 58 1;
#X connect 58 0 53 0;
