#N canvas 776 125 701 866 10;
#X obj 187 60 inlet;
#X obj 187 106 unpack f f, f 21;
#X obj 193 567 *~;
#X obj 225 765 outlet~;
#X obj 349 317 sel 0;
#X obj 384 448 vline~;
#X msg 139 622 reset;
#X text 471 622 Q (1-4);
#X obj 103 369 *~;
#X obj 385 494 *~;
#X msg 349 401 0 50;
#X msg 412 393 \$1 10;
#X obj 412 356 / 127;
#X obj 15 285 receive~ as-\$1-offset;
#X obj 206 244 receive~ as-\$1-f;
#X obj 337 621 r~ as-\$1-resonance;
#X obj 261 572 r~ as-\$1-cutoff-local;
#X obj 193 531 *~ 1;
#X obj 225 738 hip~ 5;
#X obj 226 669 moog~;
#X obj 225 716 *~ 1;
#X obj 188 269 +~;
#X obj 187 215 sig~;
#X obj 187 163 +;
#X obj 187 185 mtof;
#X obj 102 398 blsaw \$1;
#X obj 164 384 blsaw \$1;
#X obj 205 138 r as_trans-\$1;
#X connect 0 0 1 0;
#X connect 1 0 23 0;
#X connect 1 1 4 0;
#X connect 2 0 19 0;
#X connect 4 0 10 0;
#X connect 4 1 12 0;
#X connect 5 0 9 1;
#X connect 5 0 9 0;
#X connect 6 0 19 0;
#X connect 8 0 25 0;
#X connect 9 0 2 1;
#X connect 10 0 5 0;
#X connect 11 0 5 0;
#X connect 12 0 11 0;
#X connect 13 0 8 1;
#X connect 14 0 21 1;
#X connect 15 0 19 2;
#X connect 16 0 19 1;
#X connect 17 0 2 0;
#X connect 18 0 3 0;
#X connect 19 0 20 0;
#X connect 20 0 18 0;
#X connect 21 0 8 0;
#X connect 21 0 26 0;
#X connect 22 0 21 0;
#X connect 23 0 24 0;
#X connect 24 0 22 0;
#X connect 25 0 17 0;
#X connect 26 0 17 0;
#X connect 27 0 23 1;
