#N canvas 508 203 2052 956 10;
#X obj 496 109 / 100;
#X obj 375 534 *;
#X obj 590 108 / 100;
#X obj 375 555 +;
#X obj 377 828 outlet msg;
#X obj 213 828 outlet ctrl;
#X obj 590 70 r m_offset_\$1-\$2;
#X obj 496 70 r m_amt_\$1-\$2;
#X obj 216 70 r m_bus_\$1-\$2;
#X obj 213 712 pack 0 0;
#X obj 294 712 < 10;
#X obj 213 772 spigot 0;
#X obj 422 729 != 1;
#X obj 377 772 spigot 0;
#X obj 375 585 clip 0 1;
#X obj 375 606 change -1;
#X obj 376 700 pack s 0 0;
#X obj 376 667 symbol \$1;
#X obj 375 635 t b f;
#X msg 377 799 modulate \$1 \$2 \$3;
#X obj 375 70 inlet value;
#X obj 420 188 > 0;
#X obj 375 241 spigot 0;
#X connect 0 0 1 1;
#X connect 1 0 3 0;
#X connect 2 0 3 1;
#X connect 3 0 14 0;
#X connect 6 0 2 0;
#X connect 7 0 0 0;
#X connect 7 0 21 0;
#X connect 8 0 9 0;
#X connect 8 0 10 0;
#X connect 8 0 16 1;
#X connect 9 0 11 0;
#X connect 10 0 11 1;
#X connect 10 0 12 0;
#X connect 11 0 5 0;
#X connect 12 0 13 1;
#X connect 13 0 19 0;
#X connect 14 0 15 0;
#X connect 15 0 18 0;
#X connect 16 0 13 0;
#X connect 17 0 16 0;
#X connect 18 0 9 0;
#X connect 18 0 17 0;
#X connect 18 1 16 2;
#X connect 18 1 9 1;
#X connect 19 0 4 0;
#X connect 20 0 22 0;
#X connect 21 0 22 1;
#X connect 22 0 1 0;
