#N canvas 474 185 1753 953 10;
#X obj 235 186 r notesIn-\$1;
#X obj 244 491 s notesOut-\$1;
#X obj 576 82 r loadbang-\$1;
#X obj 25 186 inlet~ inL-\$1;
#X obj 135 186 inlet~ inR-\$1;
#X obj 27 491 outlet~ outL-\$1;
#X obj 136 491 outlet~ outR-\$1;
#X obj 424 185 r auxIn-\$1;
#X obj 423 208 r expIn-\$1;
#X obj 423 233 r fsIn-\$1;
#X msg 575 105 1;
#X text 535 62 always running. mute incoming BPM to turn off in other
Modules;
#N canvas 648 206 1560 996 metro 1;
#X obj 217 164 tgl 15 0 empty empty empty 17 7 0 10 -262144 -1 -1 1
1;
#X floatatom 375 164 5 0 0 0 - - -;
#N canvas 285 609 292 294 mstobpm 0;
#X obj 45 13 inlet;
#X obj 46 145 timer;
#X obj 47 238 outlet;
#X obj 46 172 expr 60000 / $f1;
#X obj 46 108 t b b;
#X obj 45 78 sel 0;
#X text 97 55 time 16th notes;
#X obj 43 45 % 24;
#X obj 48 206 / 1;
#X connect 0 0 7 0;
#X connect 1 0 3 0;
#X connect 3 0 8 0;
#X connect 4 0 1 0;
#X connect 4 1 1 1;
#X connect 5 0 4 0;
#X connect 7 0 5 0;
#X connect 8 0 2 0;
#X restore 123 626 pd mstobpm;
#X floatatom 123 665 5 0 0 0 - - -;
#N canvas 603 767 902 691 mainmetro 0;
#X obj 254 49 inlet;
#X obj 443 49 inlet;
#X obj 280 156 metro 50;
#X obj 389 438 + 1, f 5;
#X obj 280 462 f;
#X floatatom 280 581 5 0 0 0 - - -;
#X obj 280 607 outlet;
#X msg 565 496 0;
#X obj 350 484 >= 23;
#X obj 350 516 sel 1;
#X obj 653 48 midirealtimein;
#X obj 280 387 spigot 1;
#X obj 408 388 spigot 0;
#X obj 423 300 tgl 15 0 empty empty empty 17 7 0 10 -262144 -1 -1 0
1;
#X obj 333 323 ==;
#X obj 333 349 tgl 15 0 empty empty empty 17 7 0 10 -262144 -1 -1 1
1;
#X obj 461 350 tgl 15 0 empty empty empty 17 7 0 10 -262144 -1 -1 0
1;
#X obj 408 167 sel 248 250 251;
#X obj 580 243 delay 1000;
#X msg 423 241 1;
#X obj 408 190 t b b b b, f 25;
#X msg 580 218 stop;
#X msg 580 267 0;
#X text 67 12 autoswitch between internal and MIDI clock;
#X text 525 144 MIDI 248 = clock \; 250 = start \; 251 = continue.
;
#X obj 562 362 s midi-clock-present;
#X msg 325 229 0;
#X obj 266 90 t f b;
#X text 28 87 reset back to 0 when it starts;
#X text 356 587 24 pulses per quarter note output;
#X text 503 50 metro speed in ms;
#X text 298 48 start stop;
#N canvas 948 352 174 209 dialinbpm 0;
#X obj 29 41 inlet;
#X obj 29 72 expr 1000/($f1/60);
#X floatatom 29 121 5 0 0 0 - - -;
#X obj 29 96 / 24;
#X obj 30 150 outlet;
#X connect 0 0 1 0;
#X connect 1 0 3 0;
#X connect 2 0 4 0;
#X connect 3 0 2 0;
#X restore 397 95 pd dialinbpm;
#X obj 325 207 r loadbang-\$1;
#X obj 471 131 spigot 1;
#X obj 608 85 r c_midiin-\$1;
#X connect 0 0 27 0;
#X connect 1 0 32 0;
#X connect 2 0 11 0;
#X connect 3 0 4 1;
#X connect 4 0 3 0;
#X connect 4 0 5 0;
#X connect 4 0 8 0;
#X connect 5 0 6 0;
#X connect 7 0 4 1;
#X connect 8 0 9 0;
#X connect 9 0 7 0;
#X connect 10 0 34 0;
#X connect 11 0 4 0;
#X connect 12 0 4 0;
#X connect 13 0 14 0;
#X connect 13 0 16 0;
#X connect 13 0 25 0;
#X connect 14 0 15 0;
#X connect 15 0 11 1;
#X connect 16 0 12 1;
#X connect 17 0 20 0;
#X connect 17 1 7 0;
#X connect 17 2 7 0;
#X connect 18 0 22 0;
#X connect 19 0 13 0;
#X connect 20 0 12 0;
#X connect 20 1 18 0;
#X connect 20 2 19 0;
#X connect 20 3 21 0;
#X connect 21 0 18 0;
#X connect 22 0 13 0;
#X connect 26 0 13 0;
#X connect 27 0 2 0;
#X connect 27 1 7 0;
#X connect 32 0 2 1;
#X connect 33 0 26 0;
#X connect 34 0 17 0;
#X connect 35 0 34 1;
#X restore 217 256 pd mainmetro;
#X obj 217 116 inlet;
#X obj 375 116 inlet;
#X obj 271 742 spigot 1;
#X obj 123 742 spigot 0;
#X obj 278 586 r midi-clock-present;
#X obj 278 630 ==;
#X obj 375 142 i;
#X obj 123 845 outlet;
#X obj 46 846 s bpm;
#X obj 269 845 outlet;
#N canvas 239 342 450 300 triplets 0;
#X obj 73 41 inlet;
#X obj 58 168 outlet;
#X obj 76 86 sel 0 8 16;
#X connect 0 0 2 0;
#X connect 2 0 1 0;
#X connect 2 1 1 0;
#X connect 2 2 1 0;
#X restore 1035 281 pd triplets;
#N canvas 600 167 450 300 sixteenths 0;
#X obj 73 41 inlet;
#X obj 58 168 outlet;
#X obj 76 86 sel 0 6 12 18;
#X connect 0 0 2 0;
#X connect 2 0 1 0;
#X connect 2 1 1 0;
#X connect 2 2 1 0;
#X connect 2 3 1 0;
#X restore 1131 282 pd sixteenths;
#X obj 1035 308 s triplets;
#X obj 1131 309 s sixteenths;
#X obj 793 312 s quarters;
#X obj 913 311 s eighths;
#X text 46 560 if getting clock from MIDI \, measure the BPM;
#N canvas 236 394 450 300 quarters 0;
#X obj 73 41 inlet;
#X obj 73 75 sel 0;
#X obj 73 111 outlet;
#X connect 0 0 1 0;
#X connect 1 0 2 0;
#X restore 793 282 pd quarters;
#N canvas 668 208 450 300 eighths 0;
#X obj 73 41 inlet;
#X obj 75 120 outlet;
#X obj 76 86 sel 0 12;
#X connect 0 0 2 0;
#X connect 2 0 1 0;
#X connect 2 1 1 0;
#X restore 913 282 pd eighths;
#X obj 721 282 s 24ppq;
#X obj 851 418 r 24ppq;
#X msg 851 496 248;
#X obj 851 538 midiout;
#X text 410 115 bpm input;
#X obj 953 172 r master-ticks;
#X text 256 867 separate BPM midi \, LINK \, and internal for display
purposes;
#N canvas 1250 729 815 554 LINK 0;
#X msg 355 126 tempo \$1;
#X msg 144 127 resolution \$1;
#X msg 247 147 reset \$1 \$2;
#X obj 247 126 pack f f;
#X floatatom 266 247 5 0 0 1 beat_time - -;
#X floatatom 267 304 5 0 0 1 phase - -;
#X floatatom 180 285 5 0 0 1 step - -;
#X floatatom 378 246 5 0 0 1 tempo - -;
#X obj 59 105 tgl 15 0 empty empty empty 17 7 0 10 -262144 -1 -1 1
1;
#X obj 180 199 abl_link~ 1 0 4 134;
#X floatatom 355 107 5 0 0 2 tempo - -;
#X floatatom 292 107 5 0 0 2 quantum - -;
#X floatatom 247 107 5 0 0 2 beat - -;
#X floatatom 144 107 5 0 0 2 resolution - -;
#X msg 59 125 connect \$1;
#X floatatom 501 206 5 0 0 0 - - -;
#X obj 501 184 r #abl_link_num_peers;
#X obj 32 67 delay 100;
#X obj 267 326 wrap;
#X floatatom 267 351 5 0 0 0 - - -;
#X obj 267 370 * 24;
#X obj 267 392 i;
#X floatatom 267 414 5 0 0 0 - - -;
#X obj 267 444 change;
#X obj 285 31 inlet;
#X obj 388 273 i;
#X obj 267 472 outlet;
#X obj 388 295 outlet;
#X obj 510 261 > 0;
#X obj 510 283 s link-session-present;
#X obj 32 12 r loadbang-\$1;
#X obj 31 38 bng 15 250 50 0 empty empty empty 17 7 0 10 -262144 -1
-1;
#X connect 0 0 9 0;
#X connect 1 0 9 0;
#X connect 2 0 9 0;
#X connect 3 0 2 0;
#X connect 5 0 18 0;
#X connect 7 0 25 0;
#X connect 8 0 14 0;
#X connect 9 0 6 0;
#X connect 9 1 5 0;
#X connect 9 2 4 0;
#X connect 9 3 7 0;
#X connect 10 0 0 0;
#X connect 11 0 3 1;
#X connect 12 0 3 0;
#X connect 13 0 1 0;
#X connect 14 0 9 0;
#X connect 15 0 28 0;
#X connect 16 0 15 0;
#X connect 17 0 8 0;
#X connect 18 0 19 0;
#X connect 19 0 20 0;
#X connect 20 0 21 0;
#X connect 21 0 22 0;
#X connect 22 0 23 0;
#X connect 23 0 26 0;
#X connect 24 0 10 0;
#X connect 25 0 27 0;
#X connect 28 0 29 0;
#X connect 30 0 31 0;
#X connect 31 0 17 0;
#X restore 537 270 pd LINK;
#X obj 487 413 s master-ticks;
#X obj 377 348 spigot 1;
#X obj 217 304 spigot 1;
#X obj 217 395 s master-ticks;
#X obj 489 353 spigot 0;
#X obj 580 129 r link-session-present;
#X floatatom 580 170 5 0 0 0 - - -;
#X obj 422 271 == 0;
#X obj 574 742 spigot 0;
#X obj 574 845 outlet;
#X obj 619 451 r link-session-present;
#X obj 487 381 spigot 0;
#X obj 123 587 r master-ticks;
#X text 183 7 a MIDI and LINK enabled master metronome;
#X text 162 31 if a LINK session is present \, use that. otherwise
use internal or MIDI clock if present.;
#X text 949 150 calculate beat divs, f 23;
#X obj 851 465 spigot 0;
#X obj 915 418 r c_midiout-\$1;
#X text 849 398 midi clock output;
#X obj 1216 440 r c_cvout-\$1;
#X msg 1216 461 set \$1;
#X obj 1155 708 dac~;
#X obj 1121 472 spigot 0;
#X obj 1121 493 t b b;
#X obj 1124 637 sig~;
#X msg 1161 514 1;
#X msg 1121 556 0;
#X obj 1121 535 delay 10;
#X obj 1123 429 r sixteenths;
#N canvas 1372 695 923 562 cvin 0;
#X obj 620 473 outlet bpm;
#X obj 456 475 outlet tick;
#X obj 212 18 r c_cvin-\$1;
#X msg 212 78 set \$1;
#X obj 85 120 adc~;
#X obj 85 331 timer;
#X obj 85 182 snapshot~;
#X obj 265 78 > 0;
#X obj 85 236 change 0;
#X obj 85 291 t b b;
#X obj 236 203 r loadbang-\$1;
#X obj 85 422 / 4;
#X msg 236 224 16;
#X obj 236 245 / 4;
#X obj 333 243 s cvin_clock_present;
#X obj 103 148 metro 1;
#X obj 85 203 > 0.4;
#X obj 85 257 sel 1;
#X msg 85 373 60000;
#X obj 85 394 / 1;
#X obj 601 206 + 1, f 5;
#X obj 492 230 f;
#X floatatom 492 349 5 0 0 0 - - -;
#X msg 777 264 0;
#X obj 562 252 >= 23;
#X obj 562 284 sel 1;
#X text 568 355 24 pulses per quarter note output;
#X obj 202 39 t b a a b;
#X obj 492 106 metro;
#X obj 85 352 t b f f;
#X obj 172 391 expr $f1 * ($f2/24);
#X connect 2 0 27 0;
#X connect 3 0 4 0;
#X connect 4 0 6 0;
#X connect 5 0 29 0;
#X connect 5 0 30 0;
#X connect 6 0 16 0;
#X connect 7 0 14 0;
#X connect 7 0 15 0;
#X connect 7 0 28 0;
#X connect 8 0 17 0;
#X connect 9 0 5 0;
#X connect 9 1 5 1;
#X connect 10 0 12 0;
#X connect 11 0 0 0;
#X connect 12 0 13 0;
#X connect 13 0 11 1;
#X connect 13 0 30 1;
#X connect 15 0 6 0;
#X connect 16 0 8 0;
#X connect 17 0 9 0;
#X connect 18 0 19 0;
#X connect 19 0 11 0;
#X connect 20 0 21 1;
#X connect 21 0 20 0;
#X connect 21 0 22 0;
#X connect 21 0 24 0;
#X connect 22 0 1 0;
#X connect 23 0 21 1;
#X connect 24 0 25 0;
#X connect 25 0 23 0;
#X connect 27 0 5 0;
#X connect 27 1 3 0;
#X connect 27 2 7 0;
#X connect 27 3 23 0;
#X connect 28 0 21 0;
#X connect 29 0 18 0;
#X connect 29 1 19 1;
#X connect 30 0 28 1;
#X restore 671 569 pd cvin;
#X obj 711 767 spigot 0;
#X obj 711 823 outlet;
#X obj 753 720 r cvin_clock_present;
#X obj 671 628 s master-ticks;
#X obj 727 131 r cvin_clock_present;
#X obj 646 208 t b f;
#X obj 646 229 ||;
#X obj 671 590 spigot 0;
#X obj 730 168 tgl 15 0 empty empty empty 17 7 0 10 -262144 -1 -1 1
1;
#X connect 0 0 4 0;
#X connect 0 0 36 1;
#X connect 1 0 33 0;
#X connect 1 0 31 0;
#X connect 1 0 4 1;
#X connect 2 0 3 0;
#X connect 3 0 8 0;
#X connect 4 0 34 0;
#X connect 5 0 0 0;
#X connect 6 0 11 0;
#X connect 7 0 13 0;
#X connect 7 0 14 0;
#X connect 8 0 13 0;
#X connect 8 0 12 0;
#X connect 9 0 8 1;
#X connect 9 0 10 0;
#X connect 10 0 7 1;
#X connect 11 0 1 0;
#X connect 15 0 17 0;
#X connect 16 0 18 0;
#X connect 22 0 19 0;
#X connect 23 0 20 0;
#X connect 25 0 48 0;
#X connect 26 0 27 0;
#X connect 29 0 22 0;
#X connect 29 0 23 0;
#X connect 29 0 15 0;
#X connect 29 0 16 0;
#X connect 29 0 24 0;
#X connect 31 0 36 0;
#X connect 31 1 40 0;
#X connect 33 0 7 0;
#X connect 34 0 35 0;
#X connect 36 0 43 0;
#X connect 37 0 38 0;
#X connect 38 0 43 1;
#X connect 38 0 68 0;
#X connect 39 0 33 1;
#X connect 39 0 34 1;
#X connect 40 0 13 0;
#X connect 40 0 41 0;
#X connect 42 0 40 1;
#X connect 43 0 32 0;
#X connect 44 0 2 0;
#X connect 48 0 26 0;
#X connect 49 0 48 1;
#X connect 51 0 52 0;
#X connect 51 0 54 1;
#X connect 52 0 53 0;
#X connect 54 0 55 0;
#X connect 55 0 59 0;
#X connect 55 1 57 0;
#X connect 56 0 53 0;
#X connect 57 0 56 0;
#X connect 58 0 56 0;
#X connect 59 0 58 0;
#X connect 60 0 54 0;
#X connect 61 0 69 0;
#X connect 61 1 62 0;
#X connect 62 0 63 0;
#X connect 64 0 62 1;
#X connect 66 0 70 0;
#X connect 67 0 68 0;
#X connect 67 1 68 1;
#X connect 68 0 39 0;
#X connect 69 0 65 0;
#X connect 70 0 67 0;
#X connect 70 0 69 1;
#X restore 577 181 pd metro;
#X text 704 214 Master Metro Module. Only use one for each Modular
Patch. Sends 24 ticks per Beat (master-ticks). Sends a Beat count relative
to set time signature (master-beats). master-timeSig sends how many
beats in a measure to use in other modules;
#X obj 602 427 s master-bpm;
#X obj 490 465 i;
#X obj 672 465 i;
#X obj 803 465 i;
#X text 1156 413 update row 5 only if active module;
#X obj 679 121 r c_bpm-\$1;
#X msg 636 627 Tempo 120 BPM CV;
#X msg 490 541 set Tempo \$1 BPM MIDI \;;
#X msg 672 541 set Tempo \$1 BPM \;;
#X msg 803 541 set Tempo \$1 BPM LINK \;;
#X obj 490 503 t b f;
#X obj 672 503 t b f;
#X obj 803 503 t b f;
#X obj 636 680 s aux-label-\$1;
#X obj 602 389 f;
#X obj 673 350 r loadbang-global;
#X obj 416 299 r ctrlIn-\$1;
#X obj 416 325 s ctrlOut-\$1;
#X obj 960 464 i;
#X obj 960 502 t b f;
#X msg 960 540 set Tempo \$1 BPM CV \;;
#X connect 2 0 10 0;
#X connect 10 0 12 0;
#X connect 12 0 15 0;
#X connect 12 0 28 0;
#X connect 12 1 28 0;
#X connect 12 1 16 0;
#X connect 12 2 17 0;
#X connect 12 2 28 0;
#X connect 12 3 32 0;
#X connect 12 3 28 0;
#X connect 15 0 24 0;
#X connect 16 0 25 0;
#X connect 17 0 26 0;
#X connect 19 0 12 1;
#X connect 20 0 27 0;
#X connect 21 0 20 0;
#X connect 22 0 20 0;
#X connect 23 0 20 0;
#X connect 24 0 20 0;
#X connect 24 1 21 0;
#X connect 25 0 20 0;
#X connect 25 1 22 0;
#X connect 26 0 20 0;
#X connect 26 1 23 0;
#X connect 28 0 14 0;
#X connect 29 0 28 0;
#X connect 32 0 33 0;
#X connect 33 0 20 0;
#X connect 33 1 34 0;
#X connect 34 0 20 0;
