#N canvas 536 260 1439 1087 10;
#X obj 814 46 r~ inL;
#X obj 901 46 r~ inR;
#X obj 822 663 throw~ outL;
#X obj 915 664 throw~ outR;
#X obj 688 164 chainin 1 \$1;
#X obj 687 339 chainout 1 \$1;
#X obj 677 219 fullmodule a1 \$1;
#X obj 677 244 fullmodule a2 \$1;
#X obj 677 268 fullmodule a3 \$1;
#X obj 1247 275 auxmodule m1 \$1;
#X obj 1247 297 auxmodule m2 \$1;
#X obj 1247 318 auxmodule m3 \$1;
#X obj 1249 182 auxmodule s1 \$1;
#X obj 1249 204 auxmodule s2 \$1;
#X obj 820 219 fullmodule b1 \$1;
#X obj 820 244 fullmodule b2 \$1;
#X obj 820 268 fullmodule b3 \$1;
#X obj 820 293 fullmodule b4 \$1;
#X obj 955 219 fullmodule c1 \$1;
#X obj 955 244 fullmodule c2 \$1;
#X obj 955 268 fullmodule c3 \$1;
#X obj 825 164 chainin 2 \$1;
#X obj 965 164 chainin 3 \$1;
#X obj 814 92 premodule p1 \$1;
#X obj 822 420 +~;
#X obj 915 420 +~;
#X obj 822 486 +~;
#X obj 915 486 +~;
#X obj 822 585 postmodule p2 \$1;
#X obj 964 339 chainout 3 \$1;
#X obj 829 339 chainout 2 \$1;
#X obj 240 186 r notesIn-\$1;
#X obj 242 491 s notesOut-\$1;
#X obj 25 186 inlet~ inL-\$1;
#X obj 135 186 inlet~ inR-\$1;
#X obj 27 491 outlet~ outL-\$1;
#X obj 136 491 outlet~ outR-\$1;
#X obj 425 186 r auxIn-\$1;
#X obj 507 186 r expIn-\$1;
#X obj 507 212 r fsIn-\$1;
#X obj 355 316 actmodhandler \$1;
#X obj 329 186 r ctrlIn-\$1;
#X obj 336 490 s ctrlOut-\$1;
#N canvas 1238 724 732 612 keyhandler 0;
#X obj 65 47 inlet note;
#X obj 197 47 inlet aux;
#X obj 182 203 i;
#X obj 65 85 unpack 0 0 0;
#X obj 65 278 spigot 1;
#X obj 237 278 spigot 0;
#X obj 110 234 == 0;
#X obj 110 134 == 0;
#X obj 65 177 spigot 0;
#X text 139 135 do on key release;
#X text 217 297 aux+key handling;
#X text 47 297 normal handling;
#X obj 65 198 - 60;
#X obj 237 340 outlet auxkey;
#X obj 65 336 outlet normkey;
#X connect 0 0 3 0;
#X connect 1 0 2 1;
#X connect 2 0 5 1;
#X connect 2 0 6 0;
#X connect 3 0 8 0;
#X connect 3 1 7 0;
#X connect 4 0 14 0;
#X connect 5 0 13 0;
#X connect 6 0 4 1;
#X connect 7 0 8 1;
#X connect 8 0 12 0;
#X connect 12 0 4 0;
#X connect 12 0 5 0;
#X restore 240 316 pd keyhandler;
#X msg 240 383 selectpage \$1;
#X obj 240 404 s rackMsgs;
#X connect 0 0 23 0;
#X connect 1 0 23 1;
#X connect 4 0 6 0;
#X connect 4 1 6 1;
#X connect 4 2 6 2;
#X connect 4 3 6 3;
#X connect 5 0 24 0;
#X connect 5 1 25 1;
#X connect 6 0 7 0;
#X connect 6 1 7 1;
#X connect 6 2 7 2;
#X connect 6 3 7 3;
#X connect 7 0 8 0;
#X connect 7 1 8 1;
#X connect 7 2 8 2;
#X connect 7 3 8 3;
#X connect 8 0 5 0;
#X connect 8 1 5 1;
#X connect 8 2 5 2;
#X connect 8 3 5 3;
#X connect 14 0 15 0;
#X connect 14 1 15 1;
#X connect 14 2 15 2;
#X connect 14 3 15 3;
#X connect 15 0 16 0;
#X connect 15 1 16 1;
#X connect 15 2 16 2;
#X connect 15 3 16 3;
#X connect 16 0 17 0;
#X connect 16 1 17 1;
#X connect 16 2 17 2;
#X connect 16 3 17 3;
#X connect 17 0 30 0;
#X connect 17 1 30 1;
#X connect 17 2 30 2;
#X connect 17 3 30 3;
#X connect 18 0 19 0;
#X connect 18 1 19 1;
#X connect 18 2 19 2;
#X connect 18 3 19 3;
#X connect 19 0 20 0;
#X connect 19 1 20 1;
#X connect 19 2 20 2;
#X connect 19 3 20 3;
#X connect 20 0 29 0;
#X connect 20 1 29 1;
#X connect 20 2 29 2;
#X connect 20 3 29 3;
#X connect 21 0 14 0;
#X connect 21 1 14 1;
#X connect 21 2 14 2;
#X connect 21 3 14 3;
#X connect 22 0 18 0;
#X connect 22 1 18 1;
#X connect 22 2 18 2;
#X connect 22 3 18 3;
#X connect 23 0 4 0;
#X connect 23 0 21 0;
#X connect 23 0 22 0;
#X connect 23 1 4 1;
#X connect 23 1 21 1;
#X connect 23 1 22 1;
#X connect 24 0 26 0;
#X connect 25 0 27 0;
#X connect 26 0 28 0;
#X connect 27 0 28 1;
#X connect 28 0 2 0;
#X connect 28 1 3 0;
#X connect 29 0 26 1;
#X connect 29 1 27 1;
#X connect 30 0 24 1;
#X connect 30 1 25 0;
#X connect 31 0 43 0;
#X connect 37 0 43 1;
#X connect 43 0 44 0;
#X connect 44 0 45 0;
