#N canvas 536 260 1439 1087 10;
#X obj 240 186 r notesIn-\$1;
#X obj 242 491 s notesOut-\$1;
#X obj 25 186 inlet~ inL-\$1;
#X obj 135 186 inlet~ inR-\$1;
#X obj 27 491 outlet~ outL-\$1;
#X obj 136 491 outlet~ outR-\$1;
#X obj 426 187 r auxIn-\$1;
#X obj 425 210 r expIn-\$1;
#X obj 425 235 r fsIn-\$1;
#X obj 426 272 actmodhandler \$1;
#X obj 814 46 r~ inL;
#X obj 901 46 r~ inR;
#X obj 822 663 throw~ outL;
#X obj 915 664 throw~ outR;
#X obj 688 164 chainin 1 \$1;
#X obj 687 339 chainout 1 \$1;
#X obj 329 185 r ctrlIn-\$1;
#X obj 336 490 s ctrlOut-\$1;
#X obj 677 219 fullmodule a1 \$1;
#X obj 677 244 fullmodule a2 \$1;
#X obj 677 268 fullmodule a3 \$1;
#X obj 1247 275 auxmodule m1 \$1;
#X obj 1247 297 auxmodule m2 \$1;
#X obj 1247 318 auxmodule m3 \$1;
#X obj 1249 182 auxmodule s1 \$1;
#X obj 1249 204 auxmodule s2 \$1;
#X obj 820 219 fullmodule b1 \$1;
#X obj 820 244 fullmodule b2 \$1;
#X obj 820 268 fullmodule b3 \$1;
#X obj 820 293 fullmodule b4 \$1;
#X obj 955 219 fullmodule c1 \$1;
#X obj 955 244 fullmodule c2 \$1;
#X obj 955 268 fullmodule c3 \$1;
#X obj 825 164 chainin 2 \$1;
#X obj 965 164 chainin 3 \$1;
#X obj 814 92 premodule p1 \$1;
#X obj 822 420 +~;
#X obj 915 420 +~;
#X obj 822 486 +~;
#X obj 915 486 +~;
#X obj 822 585 postmodule p2 \$1;
#X obj 964 339 chainout 3 \$1;
#X obj 829 339 chainout 2 \$1;
#X connect 10 0 35 0;
#X connect 11 0 35 1;
#X connect 14 0 18 0;
#X connect 14 1 18 1;
#X connect 14 2 18 2;
#X connect 14 3 18 3;
#X connect 15 0 36 0;
#X connect 15 1 37 1;
#X connect 18 0 19 0;
#X connect 18 1 19 1;
#X connect 18 2 19 2;
#X connect 18 3 19 3;
#X connect 19 0 20 0;
#X connect 19 1 20 1;
#X connect 19 2 20 2;
#X connect 19 3 20 3;
#X connect 20 0 15 0;
#X connect 20 1 15 1;
#X connect 20 2 15 2;
#X connect 20 3 15 3;
#X connect 26 0 27 0;
#X connect 26 1 27 1;
#X connect 26 2 27 2;
#X connect 26 3 27 3;
#X connect 27 0 28 0;
#X connect 27 1 28 1;
#X connect 27 2 28 2;
#X connect 27 3 28 3;
#X connect 28 0 29 0;
#X connect 28 1 29 1;
#X connect 28 2 29 2;
#X connect 28 3 29 3;
#X connect 29 0 42 0;
#X connect 29 1 42 1;
#X connect 29 2 42 2;
#X connect 29 3 42 3;
#X connect 30 0 31 0;
#X connect 30 1 31 1;
#X connect 30 2 31 2;
#X connect 30 3 31 3;
#X connect 31 0 32 0;
#X connect 31 1 32 1;
#X connect 31 2 32 2;
#X connect 31 3 32 3;
#X connect 32 0 41 0;
#X connect 32 1 41 1;
#X connect 32 2 41 2;
#X connect 32 3 41 3;
#X connect 33 0 26 0;
#X connect 33 1 26 1;
#X connect 33 2 26 2;
#X connect 33 3 26 3;
#X connect 34 0 30 0;
#X connect 34 1 30 1;
#X connect 34 2 30 2;
#X connect 34 3 30 3;
#X connect 35 0 14 0;
#X connect 35 0 33 0;
#X connect 35 0 34 0;
#X connect 35 1 14 1;
#X connect 35 1 33 1;
#X connect 35 1 34 1;
#X connect 36 0 38 0;
#X connect 37 0 39 0;
#X connect 38 0 40 0;
#X connect 39 0 40 1;
#X connect 40 0 12 0;
#X connect 40 1 13 0;
#X connect 41 0 38 1;
#X connect 41 1 39 1;
#X connect 42 0 36 1;
#X connect 42 1 37 0;
