#N canvas 993 366 902 541 10;
#X obj 40 48 inlet~;
#X obj 39 327 outlet~;
#N canvas 1022 374 594 632 pan_core 0;
#X obj 60 58 inlet~;
#X obj 59 259 *~;
#X obj 60 295 outlet~;
#X obj 189 258 *~;
#X text 202 346 Hans-Christoph Steiner \, 2004;
#X text 202 332 Adapted from [pan_core~];
#X obj 134 59 inlet~;
#X obj 264 58 inlet~;
#X obj 190 290 outlet~;
#X connect 0 0 1 0;
#X connect 0 0 3 0;
#X connect 1 0 2 0;
#X connect 3 0 8 0;
#X connect 6 0 1 1;
#X connect 7 0 3 1;
#X restore 39 266 pd pan_core;
#X text 443 359 Adapted from [equal_power_pan~] \, Hans-Christoph Steiner
\, 2004;
#X text 598 371 comment;
#X obj 75 175 expr~ cos($v1 * 3.14159 / 2);
#X obj 254 194 expr~ sin($v1 * 3.14159 / 2);
#X obj 211 67 inlet~;
#X obj 99 327 outlet~;
#X text 593 17 equal power pan at audio rate control;
#X text 217 44 coontrol (voltage control);
#X text 37 23 mono signal;
#X connect 0 0 2 0;
#X connect 2 0 1 0;
#X connect 2 1 8 0;
#X connect 5 0 2 1;
#X connect 6 0 2 2;
#X connect 7 0 5 0;
#X connect 7 0 6 0;
