#N canvas -3 34 1548 1271 10;
#X obj 304 186 r notesIn-\$1;
#X obj 304 971 s notesOut-\$1;
#X obj 23 9 r loaddefs-\$1;
#X msg 23 76 loaddefinitions \$1;
#X obj 181 9 r loadbang-\$1;
#X obj 181 76 print loading definiton for \$1;
#X obj 23 41 symbol;
#X obj 25 186 inlet~ inL-\$1;
#X obj 135 186 inlet~ inR-\$1;
#X obj 27 971 outlet~ outL-\$1;
#X obj 136 971 outlet~ outR-\$1;
#X obj 424 185 r auxIn-\$1;
#X obj 423 208 r expIn-\$1;
#X obj 423 233 r fsIn-\$1;
#X obj 700 468 AudioPan, f 28;
#X obj 864 252 +~ 0.5;
#X obj 864 230 *~ 0.5;
#X obj 863 201 *~ 0.1, f 16;
#X obj 864 280 clip~ 0 1;
#X obj 863 173 osc~ 0.01;
#X obj 838 659 hip~ 5;
#X obj 669 659 hip~ 5;
#X msg 1071 180 \$1 10;
#X obj 669 629 c_xfade, f 11;
#X obj 1071 462 lop~ 10;
#X obj 838 629 c_xfade, f 9;
#X obj 863 60 r pan_rate-\$1;
#X obj 956 60 r pan_depth-\$1;
#X obj 1071 60 r pan_dw-\$1;
#X obj 1071 105 / 100;
#X obj 956 105 / 100;
#X obj 181 35 print loaded:panner into \$1, f 35;
#X obj 23 112 KontrolModule \$1 F-panner;
#X connect 0 0 1 0;
#X connect 2 0 6 0;
#X connect 2 0 5 0;
#X connect 3 0 32 0;
#X connect 4 0 31 0;
#X connect 6 0 3 0;
#X connect 7 0 14 0;
#X connect 7 0 25 0;
#X connect 7 0 23 0;
#X connect 14 0 23 1;
#X connect 14 1 25 1;
#X connect 15 0 18 0;
#X connect 16 0 15 0;
#X connect 17 0 16 0;
#X connect 18 0 14 1;
#X connect 19 0 17 0;
#X connect 20 0 10 0;
#X connect 21 0 9 0;
#X connect 22 0 24 0;
#X connect 23 0 21 0;
#X connect 24 0 25 2;
#X connect 24 0 23 2;
#X connect 25 0 20 0;
#X connect 26 0 19 0;
#X connect 27 0 30 0;
#X connect 28 0 29 0;
#X connect 29 0 22 0;
#X connect 30 0 17 1;
