#N canvas 278 275 2052 952 10;
#X obj 304 96 r notesIn-\$1;
#X obj 304 681 s notesOut-\$1;
#X obj 25 96 inlet~ inL-\$1;
#X obj 135 96 inlet~ inR-\$1;
#X obj 27 681 outlet~ outL-\$1;
#X obj 136 681 outlet~ outR-\$1;
#X obj 424 95 r auxIn-\$1;
#X obj 423 118 r expIn-\$1;
#X obj 423 143 r fsIn-\$1;
#X obj 504 95 r ctrlIn-\$1;
#X obj 504 680 s ctrlOut-\$1;
#X obj 931 96 r m_offset_note-\$1;
#X obj 641 348 clip 0 127;
#X obj 700 637 pack 0 0 0;
#X obj 641 98 cvatoval note \$1;
#X obj 1072 97 cvatoval vel \$1;
#X obj 626 586 int;
#X obj 1072 260 * 127;
#X obj 1072 302 int;
#X obj 1072 344 > 0;
#X obj 1072 365 change 0;
#X obj 1072 323 t f f;
#X obj 1072 281 clip 0 127;
#X obj 743 496 sel 0;
#X obj 741 586 int;
#X obj 774 586 int 0;
#X obj 743 536 t b b;
#X obj 663 586 int;
#X obj 788 536 t b b;
#X obj 814 96 r m_volt_range-\$1;
#X obj 668 257 * 12;
#X obj 641 517 change 0;
#X obj 410 507 nbx 8 20 -1e+37 1e+37 0 0 empty empty empty 0 -8 0 15
-262144 -1 -1 35.474 256;
#X obj 700 658 print;
#X obj 641 285 * 120;
#X obj 641 306 + 60;
#X obj 409 234 nbx 8 20 -1e+37 1e+37 0 0 empty empty empty 0 -8 0 15
-262144 -1 -1 -1.91329 256;
#X obj 368 234 *;
#X obj 641 161 * 1;
#X obj 641 202 + 0;
#X obj 409 265 nbx 8 20 -1e+37 1e+37 0 0 empty empty empty 0 -8 0 15
-262144 -1 -1 -2.04384 256;
#X obj 368 261 *;
#X obj 843 208 r m_fine_offset-\$1;
#X obj 845 131 r m_fine_scale-\$1;
#X obj 845 173 + 1;
#X obj 843 229 / 1000;
#X obj 845 152 / 1000;
#X obj 408 538 nbx 8 20 -1e+37 1e+37 0 0 empty empty empty 0 -8 0 15
-262144 -1 -1 35.974 256;
#X obj 641 475 + 0.5;
#X connect 11 0 35 1;
#X connect 12 0 48 0;
#X connect 12 0 32 0;
#X connect 13 0 1 0;
#X connect 13 0 33 0;
#X connect 14 0 37 0;
#X connect 14 0 38 0;
#X connect 15 0 17 0;
#X connect 16 0 13 0;
#X connect 16 0 24 1;
#X connect 17 0 22 0;
#X connect 18 0 21 0;
#X connect 19 0 20 0;
#X connect 20 0 23 0;
#X connect 21 0 19 0;
#X connect 21 1 27 1;
#X connect 22 0 18 0;
#X connect 23 0 26 0;
#X connect 23 1 28 0;
#X connect 24 0 13 0;
#X connect 25 0 13 1;
#X connect 26 0 24 0;
#X connect 26 1 25 0;
#X connect 27 0 13 1;
#X connect 28 0 16 0;
#X connect 28 1 27 0;
#X connect 29 0 30 0;
#X connect 29 0 37 1;
#X connect 29 0 41 1;
#X connect 30 0 34 1;
#X connect 31 0 16 1;
#X connect 34 0 35 0;
#X connect 35 0 12 0;
#X connect 37 0 36 0;
#X connect 38 0 39 0;
#X connect 39 0 34 0;
#X connect 39 0 41 0;
#X connect 41 0 40 0;
#X connect 42 0 45 0;
#X connect 43 0 46 0;
#X connect 44 0 38 1;
#X connect 45 0 39 1;
#X connect 46 0 44 0;
#X connect 48 0 31 0;
#X connect 48 0 47 0;
