#N canvas 238 235 2052 952 10;
#X obj 304 186 r notesIn-\$1;
#X obj 304 601 s notesOut-\$1;
#X obj 25 186 inlet~ inL-\$1;
#X obj 135 186 inlet~ inR-\$1;
#X obj 27 601 outlet~ outL-\$1;
#X obj 136 601 outlet~ outR-\$1;
#X obj 424 185 r auxIn-\$1;
#X obj 423 208 r expIn-\$1;
#X obj 423 233 r fsIn-\$1;
#X obj 504 185 r ctrlIn-\$1;
#X obj 504 600 s ctrlOut-\$1;
#X obj 700 344 *;
#X obj 700 365 +;
#X obj 931 186 r m_offset_note-\$1;
#X obj 700 386 clip 0 127;
#X obj 700 557 pack 0 0 0;
#X obj 700 188 cvatoval note \$1;
#X obj 1077 187 cvatoval vel \$1;
#X obj 639 506 int;
#X obj 1077 208 * 127;
#X obj 1077 250 int;
#X obj 1077 292 > 0;
#X obj 1077 313 change 0;
#X obj 1077 271 t f f;
#X obj 1077 229 clip 0 127;
#X obj 1077 366 sel 0;
#X obj 741 506 int;
#X obj 774 506 int 0;
#X obj 1077 387 t b b;
#X obj 677 506 int;
#X obj 1121 392 t b b;
#X obj 814 186 r m_volt_range-\$1;
#X obj 814 207 * 12;
#X connect 11 0 12 0;
#X connect 12 0 14 0;
#X connect 13 0 12 1;
#X connect 14 0 18 1;
#X connect 15 0 1 0;
#X connect 16 0 11 0;
#X connect 17 0 19 0;
#X connect 18 0 15 0;
#X connect 18 0 26 1;
#X connect 19 0 24 0;
#X connect 20 0 23 0;
#X connect 21 0 22 0;
#X connect 22 0 25 0;
#X connect 23 0 21 0;
#X connect 23 1 29 1;
#X connect 24 0 20 0;
#X connect 25 0 28 0;
#X connect 25 1 30 0;
#X connect 26 0 15 0;
#X connect 27 0 15 1;
#X connect 28 0 26 0;
#X connect 28 1 27 0;
#X connect 29 0 15 1;
#X connect 30 0 18 0;
#X connect 30 1 29 0;
#X connect 31 0 32 0;
#X connect 32 0 11 1;
