#N canvas 30 52 1116 1079 10;
#X obj 304 186 r notesIn-\$1;
#X obj 304 671 s notesOut-\$1;
#X obj 23 9 r loaddefs-\$1;
#X msg 23 76 loaddefinitions \$1;
#X obj 181 9 r loadbang-\$1;
#X obj 181 76 print loading definiton for \$1;
#X obj 23 41 symbol;
#X obj 25 186 inlet~ inL-\$1;
#X obj 135 186 inlet~ inR-\$1;
#X obj 27 671 outlet~ outL-\$1;
#X obj 136 671 outlet~ outR-\$1;
#X obj 424 185 r auxIn-\$1;
#X obj 423 208 r expIn-\$1;
#X obj 423 233 r fsIn-\$1;
#X obj 518 375 *~ 0.7;
#X obj 496 430 c_xfade;
#X obj 703 254 lop~ 10;
#X obj 703 215 / 100;
#X obj 703 182 r ps_dw-\$1;
#X obj 589 187 r ps_pitch-\$1;
#X obj 23 112 KontrolModule \$1 F-pitchshift;
#X obj 181 35 print loaded:pitchshift into \$1, f 35;
#X obj 518 343 e_forcepitch \$1;
#X connect 2 0 6 0;
#X connect 2 0 5 0;
#X connect 3 0 20 0;
#X connect 4 0 21 0;
#X connect 6 0 3 0;
#X connect 7 0 15 0;
#X connect 7 0 22 0;
#X connect 14 0 15 1;
#X connect 15 0 9 0;
#X connect 15 0 10 0;
#X connect 16 0 15 2;
#X connect 17 0 16 0;
#X connect 18 0 17 0;
#X connect 19 0 22 1;
#X connect 22 0 14 0;
