#N canvas 43 70 1382 625 10;
#X obj 126 290 catch~ sampout;
#X obj 216 548 throw~ outL;
#X obj 322 566 throw~ outR;
#X obj 116 535 s~ recycle;
#X obj 146 390 sig~;
#X obj 146 412 lop~ 5;
#X obj 146 434 *~;
#X obj 117 503 *~;
#X obj 538 333 tgl 50 0 empty empty empty 17 7 0 100 -262144 -1 -1
0 1;
#X floatatom 591 422 5 0 0 0 - - -, f 5;
#X obj 725 449 player 0;
#X floatatom 797 425 5 0 0 0 - - -, f 5;
#X obj 724 333 tgl 50 0 empty empty empty 17 7 0 100 -262144 -1 -1
0 1;
#X obj 199 50 sig~;
#X obj 189 98 *~;
#X obj 146 166 *~;
#X obj 573 138 tgl 50 0 empty empty empty 17 7 0 100 -262144 -1 -1
0 1;
#X obj 668 314 + 1, f 4;
#X msg 545 293 1;
#X obj 574 197 sel 1 0;
#X msg 584 293 0;
#X msg 767 293 0;
#X msg 731 293 1;
#X obj 608 227 t b b b b;
#X obj 576 82 r aux;
#X obj 576 109 sel 1;
#X obj 523 81 r fs, f 5;
#X obj 777 136 - 59;
#X floatatom 755 234 5 0 0 0 - - -, f 5;
#X obj 751 257 t b b f;
#X obj 811 463 - 24;
#X obj 855 464 moses 0;
#X obj 775 205 + 0;
#X obj 108 25 r~ inL;
#X obj 146 204 s~ recorderin;
#X obj 59 24 r~ inR;
#X obj 322 425 r~ recorderin;
#X obj 146 368 r knob2;
#X obj 199 27 r knob1;
#X obj 268 267 t f f;
#X obj 270 292 *;
#X obj 270 318 * 1000;
#X obj 333 282 r knob4;
#X obj 248 384 delay5sec 5;
#X obj 281 347 + 10;
#X obj 656 -1 r notes;
#X obj 704 108 toggle-keys;
#X obj 653 24 stripnote;
#X obj 652 50 moses 60;
#X obj 704 77 moses 84;
#X obj 665 481 sel 0 1;
#X obj 466 460 sel 1;
#X msg 456 519 \; led 1;
#X msg 705 513 \; led 3;
#X msg 651 512 \; led 0;
#X obj 649 77 t b b;
#X obj 198 72 lop~ 20;
#X obj 264 234 r knob3;
#X obj 626 315 i 1;
#X obj 777 180 abs;
#X obj 777 158 - 25;
#X floatatom 415 352 5 0 0 0 - - -, f 5;
#X obj 641 266 r numSounds;
#X obj 415 376 s numSounds;
#X obj 641 288 t b f;
#X obj 655 405 ==;
#X obj 524 445 recorder 1;
#X obj 657 451 spigot 1;
#X obj 558 474 r looped;
#X obj 515 547 delay 100;
#X msg 498 491 stop;
#X msg 587 539 \; led 7;
#X obj 582 508 spigot 1;
#N canvas 15 73 450 300 getNumSounds 0;
#X obj 121 100 folder_list;
#X msg 120 58 symbol ./Sounds/*.wav;
#X obj 121 149 i 0;
#X obj 122 171 + 1;
#X obj 119 127 bang;
#X obj 124 -1 loadbang;
#X obj 124 21 t b b;
#X msg 183 132 0;
#X obj 121 208 outlet;
#X obj 73 9 inlet;
#X connect 0 0 4 0;
#X connect 1 0 0 0;
#X connect 2 0 3 0;
#X connect 3 0 2 1;
#X connect 3 0 8 0;
#X connect 4 0 2 0;
#X connect 5 0 6 0;
#X connect 6 0 1 0;
#X connect 6 1 7 0;
#X connect 7 0 2 1;
#X connect 9 0 6 0;
#X restore 415 320 pd getNumSounds;
#X msg 753 535 \; screenLine5 Playing \$1.wav \;;
#X obj 752 511 f;
#X obj 423 541 f;
#X msg 426 572 \; screenLine5 Recording \$1.wav \;;
#X msg 644 572 \; screenLine5 Stopped \;;
#X obj 791 507 print;
#X msg 665 110 60;
#X obj 865 10 loadbang;
#X msg 865 52 \; screenLine1 1: Input Level \; screenLine2 2: Recycle
Level \; screenLine3 3: Delay Time \; screenLine4 4: Feedback \; screenLine5
Aux: Rec / Play \;;
#X obj 867 185 i;
#X obj 867 208 change -1;
#X obj 867 142 r knob1;
#X obj 867 164 * 101;
#X msg 867 230 \; screenLine1 1: Input Level \$1 % \;;
#X obj 868 311 i;
#X obj 868 334 change -1;
#X obj 868 268 r knob2;
#X msg 868 356 \; screenLine2 2: Recycle Level \$1 % \;;
#X obj 868 290 * 100;
#X obj 1137 181 i;
#X obj 1137 204 change -1;
#X obj 1138 307 i;
#X obj 1138 330 change -1;
#X obj 1138 286 * 100;
#X obj 1137 138 r knob3;
#X obj 1137 160 * 1000;
#X msg 1137 226 \; screenLine3 3: Delay Time \$1 ms \;;
#X obj 1138 264 r knob4;
#X msg 1138 352 \; screenLine4 4: Feedback \$1 % \;;
#X obj 165 127 *~ 3;
#X connect 0 0 43 0;
#X connect 4 0 5 0;
#X connect 5 0 6 0;
#X connect 5 0 6 1;
#X connect 6 0 7 1;
#X connect 7 0 3 0;
#X connect 8 0 51 0;
#X connect 8 0 65 0;
#X connect 8 0 66 0;
#X connect 9 0 66 1;
#X connect 9 0 76 1;
#X connect 11 0 10 1;
#X connect 11 0 75 1;
#X connect 11 0 79 0;
#X connect 12 0 10 0;
#X connect 12 0 67 0;
#X connect 13 0 56 0;
#X connect 14 0 103 0;
#X connect 15 0 34 0;
#X connect 16 0 19 0;
#X connect 17 0 9 0;
#X connect 17 0 58 1;
#X connect 18 0 8 0;
#X connect 19 0 18 0;
#X connect 19 1 23 0;
#X connect 20 0 8 0;
#X connect 21 0 12 0;
#X connect 22 0 12 0;
#X connect 23 0 55 0;
#X connect 23 1 58 0;
#X connect 23 2 21 0;
#X connect 23 3 20 0;
#X connect 24 0 25 0;
#X connect 25 0 16 0;
#X connect 26 0 25 0;
#X connect 27 0 60 0;
#X connect 28 0 29 0;
#X connect 29 0 22 0;
#X connect 29 1 21 0;
#X connect 29 2 11 0;
#X connect 30 0 31 0;
#X connect 31 1 32 1;
#X connect 32 0 28 0;
#X connect 33 0 15 0;
#X connect 35 0 15 0;
#X connect 36 0 2 0;
#X connect 36 0 1 0;
#X connect 37 0 4 0;
#X connect 38 0 13 0;
#X connect 39 0 40 0;
#X connect 39 1 40 1;
#X connect 40 0 41 0;
#X connect 41 0 44 0;
#X connect 42 0 43 2;
#X connect 43 0 2 0;
#X connect 43 0 7 0;
#X connect 43 0 1 0;
#X connect 44 0 43 1;
#X connect 45 0 47 0;
#X connect 46 0 21 0;
#X connect 46 1 27 0;
#X connect 47 0 48 0;
#X connect 48 1 49 0;
#X connect 49 0 46 0;
#X connect 50 0 54 0;
#X connect 50 0 78 0;
#X connect 50 1 53 0;
#X connect 50 1 75 0;
#X connect 51 0 52 0;
#X connect 51 0 70 0;
#X connect 51 0 76 0;
#X connect 55 0 80 0;
#X connect 55 1 46 1;
#X connect 56 0 14 0;
#X connect 56 0 14 1;
#X connect 57 0 39 0;
#X connect 58 0 17 0;
#X connect 58 0 30 0;
#X connect 59 0 32 0;
#X connect 60 0 59 0;
#X connect 61 0 63 0;
#X connect 62 0 64 0;
#X connect 64 0 58 0;
#X connect 64 1 58 1;
#X connect 65 0 67 1;
#X connect 65 0 72 1;
#X connect 67 0 50 0;
#X connect 68 0 72 0;
#X connect 69 0 53 0;
#X connect 70 0 69 0;
#X connect 72 0 71 0;
#X connect 72 0 69 0;
#X connect 73 0 61 0;
#X connect 75 0 74 0;
#X connect 76 0 77 0;
#X connect 80 0 46 0;
#X connect 81 0 82 0;
#X connect 83 0 84 0;
#X connect 84 0 87 0;
#X connect 85 0 86 0;
#X connect 86 0 83 0;
#X connect 88 0 89 0;
#X connect 89 0 91 0;
#X connect 90 0 92 0;
#X connect 92 0 88 0;
#X connect 93 0 94 0;
#X connect 94 0 100 0;
#X connect 95 0 96 0;
#X connect 96 0 102 0;
#X connect 97 0 95 0;
#X connect 98 0 99 0;
#X connect 99 0 93 0;
#X connect 101 0 97 0;
#X connect 103 0 15 1;
