#N canvas 1382 202 1004 616 10;
#X msg 185 450 start;
#X msg 142 450 stop;
#X obj 352 71 tgl 50 0 empty empty empty 17 7 0 100 -262144 -1 -1 0
1;
#X obj 362 168 sel 1 0;
#X obj 276 622 writesf~;
#X obj 435 229 t b b;
#X obj 436 257 delay 5;
#X obj 489 369 line~;
#X obj 489 391 *~;
#X obj 321 535 *~;
#X msg 505 340 0 5;
#X obj 314 375 t b b;
#X msg 323 289 1 5;
#X obj 333 199 t b b;
#X obj 334 227 delay 5;
#X obj 315 21 inlet;
#X obj 338 261 t b b;
#X obj 296 412 i \$1;
#X obj 639 88 inlet;
#X msg 240 448 open ./Sounds/\$1.wav;
#X obj 383 486 r~ recorderin-\$2;
#X obj 285 487 r~ recycle-\$2;
#X connect 0 0 4 0;
#X connect 1 0 4 0;
#X connect 2 0 3 0;
#X connect 3 0 13 0;
#X connect 3 1 5 0;
#X connect 5 0 6 0;
#X connect 5 1 10 0;
#X connect 6 0 1 0;
#X connect 7 0 8 0;
#X connect 7 0 8 1;
#X connect 8 0 9 1;
#X connect 9 0 4 0;
#X connect 10 0 7 0;
#X connect 11 0 0 0;
#X connect 11 1 17 0;
#X connect 12 0 7 0;
#X connect 13 0 14 0;
#X connect 13 1 10 0;
#X connect 14 0 16 0;
#X connect 15 0 2 0;
#X connect 16 0 12 0;
#X connect 16 1 11 0;
#X connect 17 0 19 0;
#X connect 18 0 17 1;
#X connect 19 0 4 0;
#X connect 20 0 9 0;
#X connect 21 0 9 0;
