#N canvas 270 388 1589 785 10;
#X obj 1319 344 until;
#X obj 1319 372 f;
#X obj 1352 372 + 1;
#X msg 1367 340 0;
#X obj 1319 289 t b b;
#X msg 1319 313 14;
#X obj 1319 396 * 9;
#X obj 923 286 until;
#X obj 923 314 f;
#X obj 956 314 + 1;
#X msg 971 282 0;
#X obj 1010 377 * 9;
#X msg 923 255 14;
#X obj 923 336 sel 2 6 9 13 14;
#X obj 900 203 t b b b, f 41;
#X obj 1551 372 s oscOut;
#X obj 150 230 unpack, f 14;
#X msg 1190 93 read keys-diagram.txt;
#X obj 149 439 unpack;
#X obj 149 517 pack 0 0 0, f 14;
#X obj 149 539 t b a;
#X msg 149 602 /oled/gFlip 3;
#X obj 900 231 t b b b;
#X obj 449 167 b;
#X msg 906 632 /oled/gFlip 3;
#X obj 1197 404 + 10;
#X obj 1010 436 pack 0 0;
#X msg 252 48 write keys-diagram.txt;
#X obj 1319 440 pack 0 0;
#X obj 150 128 inlet;
#X obj 449 129 inlet bang to redraw;
#X msg 1614 404 /oled/gClear 3 1;
#X obj 244 440 sel 0;
#X msg 244 462 0;
#X obj 276 461 b;
#X msg 276 483 1;
#X msg 1551 343 /oled/gFillArea 3 0 \$1 128 20 0;
#X obj 188 463 + \$1;
#X obj 1551 300 \$1;
#X obj 1063 405 \$1;
#X msg 1010 497 /oled/gCircle 3 \$1 \$2 3 1;
#X msg 1319 497 /oled/gCircle 3 \$1 \$2 3 1;
#X obj 149 265 - 1;
#X msg 180 573 /oled/gFilledCircle 3 \$1 \$2 2 \$3;
#X obj 149 461 + 1;
#X obj 1320 418 + 4;
#X obj 1010 403 + 9;
#X obj 1551 322 - 2;
#X obj 1190 128 text define keys-diagram-\$2;
#X obj 149 417 text get keys-diagram-\$2;
#X obj 1190 59 bng 15 250 50 0 empty empty empty 17 7 0 10 -262144
-1 -1;
#X obj 1190 28 r loadbang-\$2;
#X obj 408 129 bng 15 250 50 0 empty empty empty 17 7 0 10 -262144
-1 -1;
#X obj 407 51 array define keystate-\$2 25;
#X obj 8 303 array set keystate-\$2;
#X obj 449 238 array size keystate-\$2;
#X obj 449 272 until;
#X obj 449 294 f;
#X obj 449 350 t f f;
#X obj 448 404 pack 0 0;
#X obj 492 295 + 1;
#X msg 473 220 0;
#X obj 489 378 array get keystate-\$2 0 1;
#X obj 449 190 t b b b;
#X obj 8 276 f;
#X obj 8 237 t b f;
#X obj 449 373 + 1;
#X obj 670 130 inlet active;
#X obj 906 708 spigot 1;
#X obj 149 288 spigot 0;
#X obj 149 640 s oscOutRaw;
#X obj 906 747 s oscOutRaw;
#X connect 0 0 1 0;
#X connect 1 0 2 0;
#X connect 1 0 6 0;
#X connect 2 0 1 1;
#X connect 3 0 1 1;
#X connect 4 0 5 0;
#X connect 4 1 3 0;
#X connect 5 0 0 0;
#X connect 6 0 45 0;
#X connect 7 0 8 0;
#X connect 8 0 9 0;
#X connect 8 0 13 0;
#X connect 9 0 8 1;
#X connect 10 0 8 1;
#X connect 11 0 46 0;
#X connect 12 0 7 0;
#X connect 13 5 11 0;
#X connect 14 0 22 0;
#X connect 14 1 4 0;
#X connect 14 2 38 0;
#X connect 16 0 42 0;
#X connect 16 1 32 0;
#X connect 16 1 64 1;
#X connect 17 0 48 0;
#X connect 18 0 44 0;
#X connect 18 1 37 0;
#X connect 19 0 20 0;
#X connect 20 0 21 0;
#X connect 20 1 43 0;
#X connect 21 0 70 0;
#X connect 22 0 24 0;
#X connect 22 1 12 0;
#X connect 22 2 10 0;
#X connect 23 0 63 0;
#X connect 24 0 68 0;
#X connect 25 0 28 1;
#X connect 26 0 40 0;
#X connect 28 0 41 0;
#X connect 29 0 16 0;
#X connect 30 0 23 0;
#X connect 31 0 68 0;
#X connect 32 0 33 0;
#X connect 32 1 34 0;
#X connect 33 0 19 2;
#X connect 34 0 35 0;
#X connect 35 0 19 2;
#X connect 36 0 15 0;
#X connect 37 0 19 1;
#X connect 38 0 47 0;
#X connect 39 0 26 1;
#X connect 39 0 25 0;
#X connect 40 0 68 0;
#X connect 41 0 68 0;
#X connect 42 0 65 0;
#X connect 42 0 69 0;
#X connect 43 0 70 0;
#X connect 44 0 19 0;
#X connect 45 0 28 0;
#X connect 46 0 26 0;
#X connect 47 0 36 0;
#X connect 49 0 18 0;
#X connect 50 0 17 0;
#X connect 50 0 39 0;
#X connect 51 0 50 0;
#X connect 52 0 23 0;
#X connect 55 0 56 0;
#X connect 56 0 57 0;
#X connect 57 0 58 0;
#X connect 57 0 60 0;
#X connect 58 0 66 0;
#X connect 58 1 62 0;
#X connect 59 0 16 0;
#X connect 60 0 57 1;
#X connect 61 0 57 1;
#X connect 62 0 59 1;
#X connect 63 0 55 0;
#X connect 63 1 61 0;
#X connect 63 2 14 0;
#X connect 64 0 54 0;
#X connect 65 0 64 0;
#X connect 65 1 54 1;
#X connect 66 0 59 0;
#X connect 67 0 68 1;
#X connect 67 0 69 1;
#X connect 68 0 71 0;
#X connect 69 0 49 0;
