#N canvas 518 337 1506 707 10;
#X obj 304 186 r notesIn-\$1;
#X obj 304 491 s notesOut-\$1;
#X obj 25 186 inlet~ inL-\$1;
#X obj 135 186 inlet~ inR-\$1;
#X obj 27 491 outlet~ outL-\$1;
#X obj 136 491 outlet~ outR-\$1;
#X obj 603 186 r auxIn-\$1;
#X obj 602 209 r expIn-\$1;
#X obj 602 234 r fsIn-\$1;
#N canvas 577 188 1917 1017 sequencer 0;
#N canvas 670 69 450 300 press-n-hold 0;
#X obj 135 147 f;
#X obj 135 94 sel 1;
#X obj 120 54 t f f;
#X obj 135 173 sel 1;
#X obj 135 119 del 500;
#X obj 108 7 inlet;
#X obj 131 225 outlet;
#X text 184 17 aux button in;
#X text 200 213 bang if held for 1/2 second;
#X connect 0 0 3 0;
#X connect 1 0 4 0;
#X connect 2 0 1 0;
#X connect 2 1 0 1;
#X connect 3 0 6 0;
#X connect 4 0 0 0;
#X connect 5 0 2 0;
#X restore 954 160 pd press-n-hold;
#X text 126 519 check every quater note how many sounding;
#X msg 97 605 0;
#X obj 171 665 + 1;
#X obj 51 709 i, f 4;
#X obj 171 637 i 0;
#X obj 51 519 t b b b;
#X obj 991 765 delay 100;
#X obj 825 640 delay 100;
#X obj 906 632 sel 0 1 2 3;
#X obj 781 718 delay 300;
#X obj 906 666 b;
#X obj 991 684 b;
#X obj 77 741 s pb-\$1-number-playing-local;
#X obj 74 550 s pb-\$1-are-you-playing, f 21;
#X obj 171 590 r pb-\$1-i-am-playing;
#X obj 954 214 s pb-\$1-cancel;
#X msg 813 693 1;
#X msg 781 742 0;
#X msg 825 663 0;
#X msg 882 727 6;
#X msg 991 788 0;
#X msg 1025 728 7;
#X obj 906 442 r master-ticks;
#X obj 781 535 r pb-\$1-cancel;
#X obj 906 552 sel 0;
#X obj 631 110 s pb-\$1-note-len-local;
#X obj 480 110 s pb-\$1-div-local;
#X msg 825 590 stop;
#X obj 906 466 spigot 0;
#X obj 944 297 r pb-\$1-notes-in;
#X obj 944 319 stripnote;
#X msg 944 367 1;
#X obj 781 566 t b b b, f 13;
#X msg 869 589 0;
#X obj 478 191 s pb-\$1-vel-local;
#X obj 911 389 tgl 15 0 empty empty empty 17 7 0 10 -262144 -1 -1 0
1;
#X obj 911 273 sel 1;
#N canvas 12 50 604 357 swing-sixteenths 0;
#X obj 162 54 inlet;
#X obj 161 128 sel 0 12;
#X obj 207 318 outlet;
#X obj 269 189 timer;
#X obj 338 40 t b f;
#X obj 438 175 * 100;
#X obj 457 98 / 4;
#X obj 412 103 f;
#X obj 356 200 sel 6 18;
#X obj 365 246 delay 0;
#X obj 465 41 inlet;
#X connect 0 0 1 0;
#X connect 0 0 8 0;
#X connect 1 0 2 0;
#X connect 1 0 3 0;
#X connect 1 1 2 0;
#X connect 1 1 3 1;
#X connect 3 0 4 0;
#X connect 4 0 7 0;
#X connect 4 1 6 0;
#X connect 5 0 9 1;
#X connect 6 0 5 1;
#X connect 7 0 5 0;
#X connect 8 0 9 0;
#X connect 8 1 9 0;
#X connect 9 0 2 0;
#X connect 10 0 7 1;
#X restore 519 518 pd swing-sixteenths;
#X obj 519 547 s pb-\$1-ticks;
#X obj 781 590 t b b;
#X obj 51 496 spigot;
#X msg 109 468 0;
#X msg 90 373 1;
#X obj 109 448 t b b;
#X obj 109 426 r pb-\$1-disable;
#X obj 90 351 r pb-\$1-enable;
#X obj 90 395 t f f;
#X obj 911 135 spigot;
#X msg 950 100 0;
#X msg 1064 80 1;
#X obj 950 80 t b b;
#X obj 950 58 r pb-\$1-disable;
#X obj 1064 58 r pb-\$1-enable;
#X obj 51 65 pb-notes 0 \$1;
#X obj 976 367 s pb-\$1-check-it;
#X obj 51 321 r pb-\$1-check-it;
#X obj 944 344 t b b;
#X obj 933 240 s pb-\$1-check-it;
#X obj 286 388 s pb-\$1-check-it;
#X text 442 323 when page changes print;
#X msg 939 886 0;
#X msg 1053 866 1;
#X obj 939 866 t b b;
#X obj 939 844 r pb-\$1-disable;
#X obj 1053 844 r pb-\$1-enable;
#X obj 880 917 spigot 1;
#X obj 759 349 r pb-\$1-disable;
#X msg 759 371 0;
#X obj 248 321 r pb-\$1-enable;
#X obj 248 343 del 100;
#X obj 478 147 r pb_note_vel-\$1;
#X obj 480 50 r pb_div-\$1;
#X obj 631 52 r pb_note_len-\$1;
#X obj 631 193 / 100;
#X obj 911 34 r auxIn-\$1;
#X msg 50 911 [ 0 ] Notes Latched;
#X obj 632 151 r pb_swing-\$1;
#X obj 781 50 r loadbang-\$1;
#X obj 784 101 s pb-\$1-enable;
#X obj 784 77 tgl 15 0 empty empty empty 17 7 0 10 -262144 -1 -1 1
1;
#X obj 345 323 r page-ready-\$1;
#X obj 906 585 counter-up 4 \$1;
#X obj 275 65 pb-notes 16 \$1;
#X obj 275 92 pb-notes 17 \$1;
#X obj 275 254 pb-notes 23 \$1;
#X obj 51 92 pb-notes 1 \$1;
#X obj 51 119 pb-notes 2 \$1;
#X obj 51 146 pb-notes 3 \$1;
#X obj 51 173 pb-notes 4 \$1;
#X obj 51 200 pb-notes 5 \$1;
#X obj 51 227 pb-notes 6 \$1;
#X obj 51 254 pb-notes 7 \$1;
#X obj 159 254 pb-notes 15 \$1;
#X obj 159 227 pb-notes 14 \$1;
#X obj 159 200 pb-notes 13 \$1;
#X obj 159 173 pb-notes 12 \$1;
#X obj 159 146 pb-notes 11 \$1;
#X obj 159 119 pb-notes 10 \$1;
#X obj 159 92 pb-notes 9 \$1;
#X obj 159 65 pb-notes 8 \$1;
#X obj 275 119 pb-notes 18 \$1;
#X obj 275 146 pb-notes 19 \$1;
#X obj 275 173 pb-notes 20 \$1;
#X obj 275 200 pb-notes 21 \$1;
#X obj 275 227 pb-notes 22 \$1;
#X obj 51 812 t b f;
#X msg 78 849 set [ \$1 ] Notes Latched \;;
#X obj 49 992 s aux-label-\$1;
#X obj 880 943 s aux-led-\$1;
#X connect 0 0 16 0;
#X connect 0 0 58 0;
#X connect 2 0 5 1;
#X connect 2 0 4 1;
#X connect 3 0 5 1;
#X connect 3 0 4 1;
#X connect 4 0 13 0;
#X connect 4 0 106 0;
#X connect 5 0 3 0;
#X connect 6 0 4 0;
#X connect 6 1 14 0;
#X connect 6 2 2 0;
#X connect 7 0 21 0;
#X connect 8 0 19 0;
#X connect 9 0 11 0;
#X connect 9 1 12 0;
#X connect 9 2 12 0;
#X connect 9 3 12 0;
#X connect 10 0 18 0;
#X connect 11 0 8 0;
#X connect 11 0 20 0;
#X connect 12 0 7 0;
#X connect 12 0 22 0;
#X connect 15 0 5 0;
#X connect 17 0 66 0;
#X connect 18 0 66 0;
#X connect 19 0 66 0;
#X connect 20 0 66 0;
#X connect 21 0 66 0;
#X connect 22 0 66 0;
#X connect 23 0 29 0;
#X connect 24 0 33 0;
#X connect 25 0 82 0;
#X connect 28 0 8 0;
#X connect 28 0 7 0;
#X connect 29 0 25 0;
#X connect 29 0 38 0;
#X connect 30 0 31 0;
#X connect 31 0 57 0;
#X connect 32 0 36 0;
#X connect 33 0 40 0;
#X connect 33 1 28 0;
#X connect 33 2 34 0;
#X connect 34 0 29 1;
#X connect 36 0 29 1;
#X connect 37 0 36 0;
#X connect 38 0 39 0;
#X connect 40 0 10 0;
#X connect 40 1 17 0;
#X connect 41 0 6 0;
#X connect 42 0 41 1;
#X connect 43 0 47 0;
#X connect 44 0 42 0;
#X connect 45 0 44 0;
#X connect 46 0 43 0;
#X connect 47 0 41 1;
#X connect 48 0 37 0;
#X connect 48 0 0 0;
#X connect 49 0 48 1;
#X connect 50 0 48 1;
#X connect 51 0 49 0;
#X connect 52 0 51 0;
#X connect 53 0 50 0;
#X connect 56 0 41 0;
#X connect 57 0 32 0;
#X connect 57 1 55 0;
#X connect 61 0 66 1;
#X connect 62 0 66 1;
#X connect 63 0 61 0;
#X connect 64 0 63 0;
#X connect 65 0 62 0;
#X connect 66 0 109 0;
#X connect 67 0 68 0;
#X connect 68 0 36 0;
#X connect 69 0 70 0;
#X connect 70 0 59 0;
#X connect 71 0 35 0;
#X connect 72 0 27 0;
#X connect 73 0 26 0;
#X connect 74 0 38 1;
#X connect 75 0 48 0;
#X connect 76 0 108 0;
#X connect 77 0 74 0;
#X connect 78 0 80 0;
#X connect 80 0 79 0;
#X connect 81 0 59 0;
#X connect 82 0 9 0;
#X connect 106 0 76 0;
#X connect 106 1 107 0;
#X connect 107 0 76 0;
#X restore 306 326 pd sequencer;
#X obj 304 288 s pb-\$1-notes-in;
#X obj 305 358 r pb-\$1-notes-out;
#X obj 498 185 r ctrlIn-\$1;
#X obj 498 490 s ctrlOut-\$1;
#X obj 305 393 list append 0;
#X obj 949 79 sel \$1;
#X obj 987 51 unpack s s;
#X obj 987 30 r activePage;
#X obj 999 142 &&;
#X msg 1050 109 1;
#X msg 1093 109 0;
#X msg 932 109 1;
#X msg 975 109 0;
#X text 1056 174 page and module is active;
#X obj 1111 289 bng 15 250 50 0 empty empty empty 17 7 0 10 -262144
-1 -1;
#X obj 984 295 unpack 0 0;
#X obj 984 317 + 1;
#X obj 984 339 pack 0 0;
#X obj 1183 283 del 20;
#X obj 1183 261 r loadbang-\$1;
#X obj 854 195 r ppb-tracker-\$1;
#X obj 1002 200 sel 1;
#X obj 1141 332 spigot 0;
#X obj 1050 79 sel pg_graphics;
#X obj 984 366 cg-print-kb 100 \$1;
#X obj 1002 221 del 500;
#X obj 304 207 list split 2;
#X connect 0 0 36 0;
#X connect 11 0 14 0;
#X connect 14 0 1 0;
#X connect 15 0 21 0;
#X connect 15 1 22 0;
#X connect 16 0 15 0;
#X connect 16 1 33 0;
#X connect 17 0 16 0;
#X connect 18 0 31 0;
#X connect 18 0 32 1;
#X connect 18 0 34 2;
#X connect 19 0 18 1;
#X connect 20 0 18 1;
#X connect 21 0 18 0;
#X connect 22 0 18 0;
#X connect 24 0 34 1;
#X connect 25 0 26 0;
#X connect 25 1 27 1;
#X connect 26 0 27 0;
#X connect 27 0 34 0;
#X connect 28 0 32 0;
#X connect 29 0 28 0;
#X connect 30 0 25 0;
#X connect 31 0 35 0;
#X connect 32 0 34 1;
#X connect 33 0 19 0;
#X connect 33 1 20 0;
#X connect 35 0 32 0;
#X connect 36 0 10 0;
