#N canvas 769 368 647 787 10;
#X obj 270 77 stripnote;
#X obj 270 164 % 24;
#X obj 270 138 abs;
#X text 328 198 second argument (key number);
#X obj 270 99 expr if ($f1 > 59 \, $f1 - 60 \, $f1 - 12);
#X obj 270 305 tgl 15 0 empty empty empty 17 7 0 10 -262144 -1 -1 0
1;
#X obj 198 392 spigot;
#X obj 252 394 sel 1;
#X obj 256 366 t f f;
#X obj 273 456 i;
#X msg 308 265 0;
#X obj 101 388 sel 1;
#X obj 249 332 t f f;
#X text 338 299 loop the sound the presc;
#X obj 331 353 i;
#X obj 331 378 sel 1;
#X obj 273 606 makenote 100 200;
#X obj 273 581 + 60;
#X obj 273 556 f \$1;
#X obj 270 190 sel \$1;
#X obj 273 640 pack;
#X obj 270 -59 r pb-\$2-notes-in;
#X obj 273 766 s pb-\$2-notes-out;
#X obj 273 527 b;
#X obj 331 400 s pb-\$2-i-am-playing;
#X obj 367 320 r pb-\$2-are-you-playing;
#X obj 308 229 r pb-\$2-cancel;
#X obj 77 469 s pb-\$2-start-metro;
#X obj 9 61 r pb-\$2-ticks;
#X obj 300 424 r pb-\$2-div-local;
#X obj 376 565 r pb-\$2-note-len-local;
#X obj 364 499 r pb-\$2-vel-local;
#X obj 235 424 t b b b;
#X obj 328 537 f 100;
#X obj 270 44 spigot;
#X msg 309 9 0;
#X msg 409 41 1;
#X obj 309 -11 t b b;
#X msg 349 20 1;
#X obj 273 738 spigot;
#X msg 312 703 0;
#X msg 412 735 1;
#X obj 312 683 t b b;
#X msg 352 714 1;
#X obj 309 -33 r pb-\$2-disable;
#X obj 409 19 r pb-\$2-enable;
#X obj 312 661 r pb-\$2-disable;
#X obj 412 713 r pb-\$2-enable;
#X obj 198 497 counter-up 16 \$2;
#X obj 452 352 list prepend \$1;
#X obj 452 379 s ppb-tracker-\$2;
#X connect 0 0 4 0;
#X connect 1 0 19 0;
#X connect 2 0 1 0;
#X connect 4 0 2 0;
#X connect 5 0 12 0;
#X connect 5 0 14 1;
#X connect 5 0 49 0;
#X connect 6 0 48 0;
#X connect 7 0 32 0;
#X connect 8 0 6 1;
#X connect 8 1 7 0;
#X connect 9 0 48 2;
#X connect 10 0 5 0;
#X connect 11 0 27 0;
#X connect 12 0 11 0;
#X connect 12 1 8 0;
#X connect 14 0 15 0;
#X connect 15 0 24 0;
#X connect 16 0 20 0;
#X connect 16 1 20 1;
#X connect 17 0 16 0;
#X connect 18 0 17 0;
#X connect 19 0 5 0;
#X connect 20 0 39 0;
#X connect 21 0 34 0;
#X connect 23 0 18 0;
#X connect 25 0 14 0;
#X connect 26 0 10 0;
#X connect 28 0 6 0;
#X connect 29 0 9 1;
#X connect 30 0 16 2;
#X connect 31 0 33 1;
#X connect 32 0 48 1;
#X connect 32 1 9 0;
#X connect 32 2 33 0;
#X connect 33 0 16 1;
#X connect 34 0 0 0;
#X connect 35 0 34 1;
#X connect 36 0 34 1;
#X connect 37 0 35 0;
#X connect 37 1 38 0;
#X connect 39 0 22 0;
#X connect 40 0 39 1;
#X connect 41 0 39 1;
#X connect 42 0 40 0;
#X connect 42 1 43 0;
#X connect 44 0 37 0;
#X connect 45 0 36 0;
#X connect 46 0 42 0;
#X connect 47 0 41 0;
#X connect 48 1 23 0;
#X connect 49 0 50 0;
