#N canvas 630 50 668 632 10;
#N canvas 35 62 1032 793 e1 0;
#X obj 100 100 cnv 15 150 150 empty e1_rcv Envelope-1 20 12 0 14 -66577
-262144 0;
#X obj 107 262 outlet;
#X obj 107 49 inlet;
#X obj 107 130 g_synsl env1a 0 1;
#X obj 107 159 g_synsl env1d 0 1;
#X obj 107 189 g_synsl env1s 0 1;
#X obj 107 219 g_synsl env1r 0 1;
#X connect 2 0 3 0;
#X connect 3 0 4 0;
#X connect 4 0 5 0;
#X connect 5 0 6 0;
#X connect 6 0 1 0;
#X coords 0 -1 1 1 150 150 1 100 100;
#X restore 100 101 pd e1;
#N canvas 4 50 658 559 e2 0;
#X obj 100 100 cnv 15 150 150 empty e2_rcv Envelope-2 20 12 0 14 -66577
-262144 0;
#X obj 107 262 outlet;
#X obj 107 49 inlet;
#X obj 107 124 g_synsl env2a 0 1;
#X obj 107 155 g_synsl env2d 0 1;
#X obj 107 186 g_synsl env2s 0 1;
#X obj 107 216 g_synsl env2r 0 1;
#X connect 2 0 3 0;
#X connect 3 0 4 0;
#X connect 4 0 5 0;
#X connect 5 0 6 0;
#X connect 6 0 1 0;
#X coords 0 -1 1 1 150 150 1 100 100;
#X restore 250 101 pd e2;
#N canvas 11 50 658 559 e3 0;
#X obj 100 101 cnv 15 150 150 empty e3_rcv Envelope-3 20 12 0 14 -66577
-262144 0;
#X obj 108 262 outlet;
#X obj 108 49 inlet;
#X obj 108 160 g_synsl env3d 0 1;
#X obj 108 132 g_synsl env3a 0 1;
#X obj 108 188 g_synsl env3s 0 1;
#X obj 108 217 g_synsl env3r 0 1;
#X connect 2 0 4 0;
#X connect 3 0 5 0;
#X connect 4 0 3 0;
#X connect 5 0 6 0;
#X connect 6 0 1 0;
#X coords 0 -1 1 1 150 150 1 100 100;
#X restore 400 101 pd e3;
#N canvas 0 50 658 559 o1 0;
#X obj 100 100 cnv 15 150 150 empty o1_rcv Oscillator-1 20 12 0 14
-66577 -262144 0;
#X obj 107 262 outlet;
#X obj 107 66 inlet;
#X obj 107 133 g_synsl osc1a 0 1;
#X obj 107 161 g_synsl osc1b 0 1;
#X obj 107 189 g_synsl osc1c 0 1;
#X obj 107 217 g_synsl osc1d 0 1;
#X connect 2 0 3 0;
#X connect 3 0 4 0;
#X connect 4 0 5 0;
#X connect 5 0 6 0;
#X connect 6 0 1 0;
#X coords 0 -1 1 1 150 150 1 100 100;
#X restore 100 252 pd o1;
#N canvas 0 50 658 559 o2 0;
#X obj 100 100 cnv 15 150 150 empty o2_rcv Oscillator-2 20 12 0 14
-66577 -262144 0;
#X obj 107 262 outlet;
#X obj 107 49 inlet;
#X obj 107 128 g_synsl osc2a 0 1;
#X obj 107 157 g_synsl osc2b 0 1;
#X obj 107 186 g_synsl osc2c 0 1;
#X obj 107 216 g_synsl osc2d 0 1;
#X connect 2 0 3 0;
#X connect 3 0 4 0;
#X connect 4 0 5 0;
#X connect 5 0 6 0;
#X connect 6 0 1 0;
#X coords 0 -1 1 1 150 150 1 100 100;
#X restore 250 252 pd o2;
#N canvas 0 50 658 559 o3 0;
#X obj 100 100 cnv 15 150 150 empty o3_rcv Oscillator-3 20 12 0 14
-66577 -262144 0;
#X obj 107 262 outlet;
#X obj 107 49 inlet;
#X obj 107 126 g_synsl osc3a 0 1;
#X obj 107 156 g_synsl osc3b 0 1;
#X obj 107 187 g_synsl osc3c 0 1;
#X obj 107 217 g_synsl osc3d 0 1;
#X connect 2 0 3 0;
#X connect 3 0 4 0;
#X connect 4 0 5 0;
#X connect 5 0 6 0;
#X connect 6 0 1 0;
#X coords 0 -1 1 1 150 150 1 100 100;
#X restore 400 252 pd o3;
#N canvas 0 50 658 559 m1 0;
#X obj 100 100 cnv 15 150 150 empty m1_rcv Modifier-1 20 12 0 14 -66577
-262144 0;
#X obj 107 262 outlet;
#X obj 107 49 inlet;
#X obj 107 129 g_synsl mod1a 0 1;
#X obj 107 159 g_synsl mod1b 0 1;
#X obj 107 189 g_synsl mod1c 0 1;
#X obj 107 219 g_synsl mod1d 0 1;
#X connect 2 0 3 0;
#X connect 3 0 4 0;
#X connect 4 0 5 0;
#X connect 5 0 6 0;
#X connect 6 0 1 0;
#X coords 0 -1 1 1 150 150 1 100 100;
#X restore 101 400 pd m1;
#N canvas 0 50 658 559 m2 0;
#X obj 100 100 cnv 15 150 150 empty m2_rcv Modifier-2 20 12 0 14 -66577
-262144 0;
#X obj 107 262 outlet;
#X obj 107 49 inlet;
#X obj 107 133 g_synsl mod2a 0 1;
#X obj 107 162 g_synsl mod2b 0 1;
#X obj 107 191 g_synsl mod2c 0 1;
#X obj 107 221 g_synsl mod2d 0 1;
#X connect 2 0 3 0;
#X connect 3 0 4 0;
#X connect 4 0 5 0;
#X connect 5 0 6 0;
#X connect 6 0 1 0;
#X coords 0 -1 1 1 150 150 1 100 100;
#X restore 249 400 pd m2;
#N canvas 4 50 658 559 m3 0;
#X obj 100 100 cnv 15 150 150 empty m3_rcv Modifier-3 20 12 0 14 -66577
-262144 0;
#X obj 107 262 outlet;
#X obj 107 49 inlet;
#X obj 107 130 g_synsl mod3a 0 1;
#X obj 107 160 g_synsl mod3b 0 1;
#X obj 107 190 g_synsl mod3c 0 1;
#X obj 107 219 g_synsl mod3d 0 1;
#X connect 2 0 3 0;
#X connect 3 0 4 0;
#X connect 4 0 5 0;
#X connect 5 0 6 0;
#X connect 6 0 1 0;
#X coords 0 -1 1 1 150 150 1 100 100;
#X restore 399 400 pd m3;
#X obj 399 578 outlet;
#X obj 100 74 inlet;
#X connect 0 0 3 0;
#X connect 1 0 4 0;
#X connect 2 0 5 0;
#X connect 3 0 6 0;
#X connect 4 0 7 0;
#X connect 5 0 8 0;
#X connect 6 0 1 0;
#X connect 7 0 2 0;
#X connect 8 0 9 0;
#X connect 10 0 0 0;
#X coords 0 -1 1 1 450 450 1 100 100;
