#N canvas 420 103 606 616 10;
#X obj 281 314 vline~;
#X obj 158 65 max 0.1;
#X obj 258 65 max 0.1;
#X text 156 22 attack (ms);
#X text 256 22 decay (ms);
#X text 86 22 trigger;
#X obj 87 45 inlet;
#X obj 158 45 inlet;
#X obj 258 45 inlet;
#X obj 144 467 outlet~;
#X obj 87 65 b;
#X obj 87 308 vline~;
#X obj 87 215 pack 3 4;
#X text 129 283 attack;
#X text 317 285 decay;
#X msg 87 261 1 \, 0 \$1 0 \, 1 0 \$1;
#X msg 281 261 0 \, 1 0 \$1 \, 0 \$2 \$1;
#X obj 87 195 f 3;
#X obj 251 127 f \$1;
#X obj 251 153 select 0;
#X obj 325 152 select 0;
#X obj 325 126 f \$2;
#X msg 21 261 1;
#X obj 62 337 sig~ 1;
#X obj 61 410 -~;
#X obj 78 387 *~;
#X obj 78 366 *~;
#X obj 280 392 *~;
#X obj 281 369 *~;
#N canvas 228 198 627 317 LICENSE-BSD 0;
#X text 121 56 This software is copyrighted by Miller Puckette \, Reality
Jockey Ltd. and others. The terms (the "Standard Improved BSD License")
apply to all files associated with the software unless explicitly disclaimed
in individual files.;
#X text 123 148 See the file LICENSE.txt for the full license text.
;
#X restore 463 60 pd LICENSE-BSD;
#X obj 251 102 r loadbang-\$3;
#X obj 344 101 r loadbang-\$3;
#X obj 21 239 r loadbang-\$3;
#X connect 0 0 28 0;
#X connect 0 0 28 1;
#X connect 1 0 17 1;
#X connect 2 0 12 1;
#X connect 6 0 10 0;
#X connect 7 0 1 0;
#X connect 8 0 2 0;
#X connect 10 0 17 0;
#X connect 11 0 26 0;
#X connect 11 0 26 1;
#X connect 12 0 16 0;
#X connect 12 0 15 0;
#X connect 15 0 11 0;
#X connect 16 0 0 0;
#X connect 17 0 12 0;
#X connect 18 0 19 0;
#X connect 19 1 17 1;
#X connect 20 1 12 1;
#X connect 21 0 20 0;
#X connect 22 0 11 0;
#X connect 23 0 24 0;
#X connect 24 0 9 0;
#X connect 25 0 24 1;
#X connect 26 0 25 0;
#X connect 26 0 25 1;
#X connect 27 0 9 0;
#X connect 28 0 27 0;
#X connect 28 0 27 1;
#X connect 30 0 18 0;
#X connect 31 0 21 0;
#X connect 32 0 22 0;
