#N canvas 76 540 1772 778 10;
#X obj 304 186 r notesIn-\$1;
#X obj 304 491 s notesOut-\$1;
#X obj 25 186 inlet~ inL-\$1;
#X obj 135 186 inlet~ inR-\$1;
#X obj 27 491 outlet~ outL-\$1;
#X obj 136 491 outlet~ outR-\$1;
#X obj 424 185 r auxIn-\$1;
#X obj 423 208 r expIn-\$1;
#X obj 423 233 r fsIn-\$1;
#X obj 919 226 - 1;
#X obj 919 248 abs;
#X obj 737 133 - 1;
#X obj 737 163 abs;
#X obj 737 216 + 1.4;
#X obj 737 194 * 6.6;
#X obj 737 238 pack 0 30;
#X obj 737 259 line;
#X obj 641 452 hip~ 5;
#X obj 641 430 e_bitcrusher \$1-bcwhatever 128;
#X text 637 21 C & G bit-crusher effect module;
#X obj 734 109 / 100;
#X obj 912 155 / 100;
#X obj 744 51 r bc_depth-\$1;
#X obj 919 87 r bc_dw-\$1;
#X obj 416 299 r ctrlIn-\$1;
#X obj 416 325 s ctrlOut-\$1;
#X connect 2 0 18 0;
#X connect 9 0 10 0;
#X connect 10 0 18 2;
#X connect 11 0 12 0;
#X connect 12 0 14 0;
#X connect 13 0 15 0;
#X connect 14 0 13 0;
#X connect 15 0 16 0;
#X connect 16 0 18 1;
#X connect 17 0 5 0;
#X connect 17 0 4 0;
#X connect 18 0 17 0;
#X connect 20 0 11 0;
#X connect 21 0 9 0;
#X connect 22 0 20 0;
#X connect 23 0 21 0;
