#N canvas 577 106 1572 758 10;
#X obj 334 130 r notesIn-\$1;
#X obj 334 495 s notesOut-\$1;
#X obj 331 330 voice \$1;
#X obj 18 130 inlet~ inL;
#X obj 103 130 inlet~ inR;
#X obj 132 495 outlet~ outR;
#X obj 18 495 outlet~ outL;
#X obj 203 131 r auxIn-\$1;
#X obj 202 154 r expIn-\$1;
#X obj 202 179 r fsIn-\$1;
#X obj 334 266 pack 0 0;
#X obj 334 182 unpack 0 0 0;
#X obj 444 131 r ctrlIn-\$1;
#X obj 494 483 s ctrlOut-\$1;
#X obj 435 270 pack 0 0;
#X obj 446 183 unpack 0 0 0;
#X connect 0 0 11 0;
#X connect 2 0 5 0;
#X connect 2 0 6 0;
#X connect 10 0 2 0;
#X connect 11 0 10 0;
#X connect 11 1 10 1;
#X connect 12 0 15 0;
#X connect 14 0 2 1;
#X connect 15 0 14 0;
#X connect 15 1 14 1;
