#N canvas 966 208 1131 925 10;
#X obj 404 242 phasor~ 1;
#X obj 513 498 *~ 256;
#X obj 389 714 *~;
#X obj 360 377 samphold~;
#X obj 262 263 sig~ 200;
#X obj 322 419 *~;
#X floatatom 446 65 5 0 0 0 - - -, f 5;
#X obj 442 186 expr 1 / ($f1 / 1000);
#X obj 362 184 / 1000;
#X floatatom 362 206 5 0 0 0 - - -, f 5;
#X obj 295 300 *~;
#X obj 261 228 * -1;
#X obj 261 196 - 1000;
#X floatatom 260 118 5 0 0 0 - - -, f 5;
#X obj 261 169 * 1000;
#X obj 261 142 clip 0.5 2;
#X obj 452 144 clip 10 500;
#X obj 501 263 noise~;
#X obj 501 291 *~ 0.5;
#X obj 501 320 +~ 0.5;
#X obj 501 348 *~ 4000;
#X obj 501 407 samphold~;
#X obj 321 488 +~;
#X text 557 306 location;
#X text 470 42 grain size;
#X text 209 145 speed;
#X obj 245 32 inlet;
#X obj 393 873 outlet~;
#X obj 446 94 t f b;
#X obj 454 118 +;
#X obj 503 93 random 25;
#X obj 501 377 +~ 0;
#X text 561 384 comment;
#X obj 58 600 noise~;
#X obj 58 628 *~ 0.5;
#X obj 57 657 +~ 0.5;
#X obj 58 684 samphold~;
#X obj 357 804 *~, f 6;
#X text 46 574 density control;
#X obj 227 655 sig~;
#X obj 228 681 samphold~;
#X obj 57 713 expr~ if($v1 < $v2 \, 1 \, 0);
#X obj 228 626 + 0.01;
#X obj 671 307 r f_grainspread-\$1;
#X obj 227 553 r f_density-\$1;
#X obj 512 532 tabread4~ hanning-\$1;
#X obj 321 523 vd~ del-\$1;
#X obj 438 21 r f_grainsize-\$1;
#X obj 227 603 / 100;
#X connect 0 0 1 0;
#X connect 0 0 3 1;
#X connect 0 0 5 0;
#X connect 0 0 21 1;
#X connect 0 0 36 1;
#X connect 0 0 40 1;
#X connect 1 0 45 0;
#X connect 2 0 37 1;
#X connect 3 0 5 1;
#X connect 4 0 10 0;
#X connect 5 0 22 0;
#X connect 6 0 28 0;
#X connect 7 0 0 0;
#X connect 8 0 9 0;
#X connect 9 0 10 1;
#X connect 10 0 3 0;
#X connect 11 0 4 0;
#X connect 12 0 11 0;
#X connect 13 0 15 0;
#X connect 14 0 12 0;
#X connect 15 0 14 0;
#X connect 16 0 7 0;
#X connect 16 0 8 0;
#X connect 17 0 18 0;
#X connect 18 0 19 0;
#X connect 19 0 20 0;
#X connect 20 0 31 0;
#X connect 21 0 22 1;
#X connect 22 0 46 0;
#X connect 26 0 13 0;
#X connect 28 0 29 0;
#X connect 28 1 30 0;
#X connect 29 0 16 0;
#X connect 30 0 29 1;
#X connect 31 0 21 0;
#X connect 33 0 34 0;
#X connect 34 0 35 0;
#X connect 35 0 36 0;
#X connect 36 0 41 0;
#X connect 37 0 27 0;
#X connect 39 0 40 0;
#X connect 40 0 41 1;
#X connect 41 0 37 0;
#X connect 42 0 39 0;
#X connect 43 0 20 1;
#X connect 44 0 48 0;
#X connect 45 0 2 1;
#X connect 46 0 2 0;
#X connect 47 0 6 0;
#X connect 48 0 42 0;
