#N canvas 857 213 764 836 10;
#X obj 306 37 inlet;
#X obj 317 600 vline~;
#X obj 311 632 *~;
#X obj 379 726 *~;
#X obj 247 723 *~;
#X msg 229 548 0 500;
#X msg 250 416 1 500;
#X obj 303 110 mtof;
#X floatatom 276 188 50 0 0 0 - - -, f 50;
#X floatatom 315 73 5 0 0 0 - - -, f 5;
#X obj 294 152 / 523.251;
#X obj 337 326 bang;
#X obj 59 249 grain \$1;
#X obj 248 753 throw~ grainoutL-\$1;
#X obj 380 753 throw~ grainoutR-\$1;
#X obj 213 326 r allon-\$1;
#X obj 211 483 r alloff-\$1;
#X obj 540 252 grain \$1;
#X connect 0 0 9 0;
#X connect 1 0 2 1;
#X connect 1 0 2 0;
#X connect 2 0 3 1;
#X connect 2 0 4 0;
#X connect 3 0 14 0;
#X connect 4 0 13 0;
#X connect 5 0 1 0;
#X connect 6 0 1 0;
#X connect 7 0 10 0;
#X connect 8 0 11 0;
#X connect 8 0 12 0;
#X connect 8 0 17 0;
#X connect 9 0 7 0;
#X connect 10 0 8 0;
#X connect 11 0 6 0;
#X connect 12 0 4 1;
#X connect 15 0 6 0;
#X connect 16 0 5 0;
#X connect 17 0 3 0;
