#N canvas 52 440 1393 715 10;
#X obj 304 186 r notesIn-\$1;
#X obj 304 601 s notesOut-\$1;
#X obj 23 9 r loaddefs-\$1;
#X msg 23 76 loaddefinitions \$1;
#X obj 181 9 r loadbang-\$1;
#X obj 181 76 print loading definiton for \$1;
#X obj 23 41 symbol;
#X obj 25 186 inlet~ inL-\$1;
#X obj 135 186 inlet~ inR-\$1;
#X obj 27 601 outlet~ outL-\$1;
#X obj 136 601 outlet~ outR-\$1;
#X obj 424 185 r auxIn-\$1;
#X obj 423 208 r expIn-\$1;
#X obj 423 233 r fsIn-\$1;
#X obj 628 276 tanh~;
#X obj 629 243 *~, f 7;
#X obj 674 102 lop~ 8;
#X obj 675 136 *~, f 5;
#X obj 674 210 +~ 1;
#X obj 674 188 *~ 200;
#X obj 711 503 hip~ 5;
#X obj 628 298 *~ 0.2;
#X obj 711 455 c_xfade, f 28;
#X obj 906 86 lop~ 10;
#X obj 693 46 r dtanh_level-\$1;
#X obj 891 41 r dtanh_dw-\$1;
#X obj 181 35 print loaded:dtanh into \$1, f 35;
#X obj 23 112 KontrolModule \$1 F-dtanh;
#X text 761 15 C&G Simple Distort Module using tanh~;
#X obj 694 70 / 100;
#X obj 899 65 / 100;
#X connect 0 0 1 0;
#X connect 2 0 6 0;
#X connect 2 0 5 0;
#X connect 3 0 27 0;
#X connect 4 0 26 0;
#X connect 6 0 3 0;
#X connect 7 0 15 0;
#X connect 14 0 21 0;
#X connect 15 0 14 0;
#X connect 16 0 17 0;
#X connect 16 0 17 1;
#X connect 17 0 19 0;
#X connect 18 0 15 1;
#X connect 19 0 18 0;
#X connect 20 0 9 0;
#X connect 20 0 10 0;
#X connect 21 0 22 1;
#X connect 22 0 20 0;
#X connect 23 0 22 2;
#X connect 24 0 29 0;
#X connect 25 0 30 0;
#X connect 29 0 16 0;
#X connect 30 0 23 0;
