#N canvas 73 398 1464 696 10;
#X obj 304 186 r notesIn-\$1;
#X obj 301 612 s notesOut-\$1;
#X obj 23 9 r loaddefs-\$1;
#X msg 23 76 loaddefinitions \$1;
#X obj 181 9 r loadbang-\$1;
#X obj 181 76 print loading definiton for \$1;
#X obj 23 41 symbol;
#X obj 25 186 inlet~ inL-\$1;
#X obj 135 186 inlet~ inR-\$1;
#X obj 27 491 outlet~ outL-\$1;
#X obj 136 491 outlet~ outR-\$1;
#X obj 424 185 r auxIn-\$1;
#X obj 423 208 r expIn-\$1;
#X obj 423 233 r fsIn-\$1;
#X obj 181 35 print loaded:grds into \$1, f 35;
#X obj 23 112 KontrolModule \$1 U-grds;
#X obj 949 95 vsl 15 128 0 127 0 0 empty empty chaos 0 -10 0 10 -262144
-1 -1 0 1;
#X obj 893 95 vsl 15 128 0 127 0 0 empty empty map_y 0 -10 0 10 -262144
-1 -1 0 1;
#X obj 821 95 vsl 15 128 0 127 0 0 empty empty map_x 0 -10 0 10 -262144
-1 -1 0 1;
#X obj 718 95 vsl 15 128 0 100 0 0 empty empty hihat 0 -9 0 10 -262144
-1 -1 0 1;
#X obj 638 95 vsl 15 128 0 100 0 0 empty empty snare 0 -9 0 10 -262144
-1 -1 0 1;
#X obj 549 94 vsl 15 128 0 100 0 0 empty empty bass 0 -9 0 10 -262144
-1 -1 0 1;
#X obj 549 242 * 1.27;
#X obj 638 242 * 1.27;
#X obj 718 242 * 1.27;
#X obj 627 27 r g_snare-\$1;
#X obj 712 27 r g_hihat-\$1;
#X obj 821 27 r g_mapx-\$1;
#X obj 892 27 r g_mapy-\$1;
#X obj 967 26 r g_chaos-\$1;
#X obj 549 27 r g_kick-\$1;
#X obj 1052 198 r g_e_kick-\$1;
#X obj 1140 198 r g_e_snare-\$1;
#X obj 1245 198 r g_e_hihat-\$1;
#X text 1052 180 euclidean lengths;
#X obj 550 304 grids, f 38;
#X msg 540 407 60 \$1;
#X obj 430 29 r master-ticks;
#N canvas 789 387 588 535 32nds 0;
#X obj 125 33 inlet;
#X obj 127 359 outlet;
#X obj 125 54 % 3;
#X obj 126 88 sel 0;
#X obj 126 109 f;
#X obj 128 236 % 32;
#X obj 171 150 + 1;
#X connect 0 0 2 0;
#X connect 2 0 3 0;
#X connect 3 0 4 0;
#X connect 4 0 6 0;
#X connect 4 0 5 0;
#X connect 5 0 1 0;
#X connect 6 0 4 1;
#X restore 436 83 pd 32nds;
#X msg 553 528 60 0;
#X obj 553 490 del;
#X obj 1015 421 r g_note_len-\$1;
#X obj 550 375 t b f;
#X obj 586 408 bng 15 250 50 0 empty empty empty 17 7 0 10 -262144
-1 -1;
#X obj 619 491 del;
#X obj 616 376 t b f;
#X obj 652 409 bng 15 250 50 0 empty empty empty 17 7 0 10 -262144
-1 -1;
#X obj 688 492 del;
#X obj 685 377 t b f;
#X obj 721 410 bng 15 250 50 0 empty empty empty 17 7 0 10 -262144
-1 -1;
#X obj 760 493 del;
#X obj 757 378 t b f;
#X obj 793 411 bng 15 250 50 0 empty empty empty 17 7 0 10 -262144
-1 -1;
#X obj 829 494 del;
#X obj 826 379 t b f;
#X obj 862 412 bng 15 250 50 0 empty empty empty 17 7 0 10 -262144
-1 -1;
#X obj 897 495 del;
#X obj 894 380 t b f;
#X obj 930 413 bng 15 250 50 0 empty empty empty 17 7 0 10 -262144
-1 -1;
#X msg 606 408 61 \$1;
#X msg 675 409 62 \$1;
#X msg 747 410 63 \$1;
#X msg 816 411 64 \$1;
#X msg 884 412 65 \$1;
#X msg 619 528 61 0;
#X msg 688 530 62 0;
#X msg 760 531 63 0;
#X msg 829 532 64 0;
#X msg 897 533 65 0;
#X connect 2 0 6 0;
#X connect 2 0 5 0;
#X connect 3 0 15 0;
#X connect 4 0 14 0;
#X connect 6 0 3 0;
#X connect 16 0 35 6;
#X connect 17 0 35 5;
#X connect 18 0 35 4;
#X connect 19 0 24 0;
#X connect 20 0 23 0;
#X connect 21 0 22 0;
#X connect 22 0 35 1;
#X connect 23 0 35 2;
#X connect 24 0 35 3;
#X connect 25 0 20 0;
#X connect 26 0 19 0;
#X connect 27 0 18 0;
#X connect 28 0 17 0;
#X connect 29 0 16 0;
#X connect 30 0 21 0;
#X connect 31 0 35 7;
#X connect 32 0 35 8;
#X connect 33 0 35 9;
#X connect 35 0 42 0;
#X connect 35 1 45 0;
#X connect 35 2 48 0;
#X connect 35 3 51 0;
#X connect 35 4 54 0;
#X connect 35 5 57 0;
#X connect 36 0 1 0;
#X connect 37 0 38 0;
#X connect 38 0 35 0;
#X connect 39 0 1 0;
#X connect 40 0 39 0;
#X connect 41 0 40 1;
#X connect 41 0 44 1;
#X connect 41 0 47 1;
#X connect 41 0 50 1;
#X connect 41 0 53 1;
#X connect 42 0 40 0;
#X connect 42 0 43 0;
#X connect 42 1 36 0;
#X connect 44 0 64 0;
#X connect 45 0 44 0;
#X connect 45 0 46 0;
#X connect 45 1 59 0;
#X connect 47 0 65 0;
#X connect 48 0 47 0;
#X connect 48 0 49 0;
#X connect 48 1 60 0;
#X connect 50 0 66 0;
#X connect 51 0 50 0;
#X connect 51 0 52 0;
#X connect 51 1 61 0;
#X connect 53 0 67 0;
#X connect 54 0 53 0;
#X connect 54 0 55 0;
#X connect 54 1 62 0;
#X connect 56 0 68 0;
#X connect 57 0 56 0;
#X connect 57 0 58 0;
#X connect 57 1 63 0;
#X connect 59 0 1 0;
#X connect 60 0 1 0;
#X connect 61 0 1 0;
#X connect 62 0 1 0;
#X connect 63 0 1 0;
#X connect 64 0 1 0;
#X connect 65 0 1 0;
#X connect 66 0 1 0;
#X connect 67 0 1 0;
#X connect 68 0 1 0;
