#N canvas 116 400 1315 687 10;
#X obj 304 186 r notesIn-\$1;
#X obj 304 491 s notesOut-\$1;
#X obj 25 186 inlet~ inL-\$1;
#X obj 137 186 inlet~ inR-\$1;
#X obj 27 491 outlet~ outL-\$1;
#X obj 136 491 outlet~ outR-\$1;
#X obj 424 185 r auxIn-\$1;
#X obj 423 208 r expIn-\$1;
#X obj 423 233 r fsIn-\$1;
#N canvas 655 346 1905 999 synth 0;
#X obj 22 72 pack 0 0 0, f 11;
#X obj 22 98 route 1 2 3 4, f 55;
#X obj 22 45 poly 4 1, f 11;
#X obj 179 339 outlet~;
#X obj 22 19 inlet;
#X obj 180 194 *~ 1;
#X obj 22 124 rs-voice \$1;
#X obj 180 216 lop~ 5000;
#X obj 112 125 rs-voice \$1;
#X obj 203 125 rs-voice \$1;
#X obj 303 125 rs-voice \$1;
#X connect 0 0 1 0;
#X connect 1 0 6 0;
#X connect 1 1 8 0;
#X connect 1 2 9 0;
#X connect 1 3 10 0;
#X connect 2 0 0 0;
#X connect 2 1 0 1;
#X connect 2 2 0 2;
#X connect 4 0 2 0;
#X connect 5 0 7 0;
#X connect 6 0 5 0;
#X connect 7 0 3 0;
#X connect 8 0 5 0;
#X connect 9 0 5 0;
#X connect 10 0 5 0;
#X restore 71 322 pd synth;
#X text 415 13 C&G ramp synth;
#X connect 0 0 9 0;
#X connect 9 0 4 0;
#X connect 9 0 5 0;
