#N canvas 8 38 1515 1172 10;
#X obj 304 186 r notesIn-\$1;
#X obj 304 491 s notesOut-\$1;
#X obj 23 9 r loaddefs-\$1;
#X msg 23 76 loaddefinitions \$1;
#X obj 181 9 r loadbang-\$1;
#X obj 181 76 print loading definiton for \$1;
#X obj 23 41 symbol;
#X obj 25 186 inlet~ inL-\$1;
#X obj 135 186 inlet~ inR-\$1;
#X obj 27 1001 outlet~ outL-\$1;
#X obj 136 1001 outlet~ outR-\$1;
#X obj 424 185 r auxIn-\$1;
#X obj 423 208 r expIn-\$1;
#X obj 423 233 r fsIn-\$1;
#X obj 503 757 bob~, f 21;
#X obj 646 710 line~;
#X obj 646 685 pack 0 50;
#X obj 646 660 * 3.8;
#X obj 563 231 pack 0 50;
#X obj 563 258 line~;
#X obj 651 334 osc~;
#X obj 650 392 *~, f 10;
#X obj 651 310 line~;
#X obj 651 286 pack 0 50;
#X obj 563 429 +~, f 13;
#X obj 735 290 line~;
#X obj 735 266 pack 0 50;
#X obj 716 360 *~;
#X obj 503 779 hip~ 5;
#X obj 563 147 r moog_cut-\$1;
#X obj 651 147 r moog_rate-\$1;
#X obj 752 147 r moog_depth-\$1;
#X obj 646 507 r moog_res-\$1;
#X obj 735 242 / 100;
#X text 495 30 C&G Moog Resonant Filter effect module \, with LFO oscillation
;
#X obj 646 635 / 100;
#X obj 181 35 print loaded:mooglfo into \$1, f 35;
#X obj 23 112 KontrolModule \$1 F-mooglfo;
#X connect 2 0 6 0;
#X connect 2 0 5 0;
#X connect 3 0 37 0;
#X connect 4 0 36 0;
#X connect 6 0 3 0;
#X connect 7 0 14 0;
#X connect 14 0 28 0;
#X connect 15 0 14 2;
#X connect 16 0 15 0;
#X connect 17 0 16 0;
#X connect 18 0 19 0;
#X connect 19 0 24 0;
#X connect 19 0 27 0;
#X connect 20 0 21 0;
#X connect 21 0 24 1;
#X connect 22 0 20 0;
#X connect 23 0 22 0;
#X connect 24 0 14 1;
#X connect 25 0 27 1;
#X connect 26 0 25 0;
#X connect 27 0 21 1;
#X connect 28 0 9 0;
#X connect 28 0 10 0;
#X connect 29 0 18 0;
#X connect 30 0 23 0;
#X connect 31 0 33 0;
#X connect 32 0 35 0;
#X connect 33 0 26 0;
#X connect 35 0 17 0;
