#N canvas 532 222 1353 741 10;
#X obj 304 186 r notesIn-\$1;
#X obj 304 601 s notesOut-\$1;
#X obj 25 186 inlet~ inL-\$1;
#X obj 135 186 inlet~ inR-\$1;
#X obj 27 601 outlet~ outL-\$1;
#X obj 136 601 outlet~ outR-\$1;
#X obj 424 185 r auxIn-\$1;
#X obj 423 208 r expIn-\$1;
#X obj 423 233 r fsIn-\$1;
#X obj 504 185 r ctrlIn-\$1;
#X obj 504 600 s ctrlOut-\$1;
#X obj 76 318 r m_offset_note-\$1;
#X obj 304 286 unpack 0 0 0;
#X obj 277 318 r m_ch_note-\$1;
#X obj 590 329 r m_ch_gate-\$1;
#X obj 786 323 r m_ch_vel-\$1;
#X obj 496 363 t f f;
#X msg 277 399 set \$1;
#X obj 202 372 spigot 0;
#X obj 277 339 t a a;
#X obj 496 384 spigot 0;
#X obj 695 407 spigot 0;
#X obj 590 350 t a a;
#X obj 786 344 t a a;
#X obj 496 405 > 0;
#X obj 496 530 dac~;
#X msg 560 406 set \$1;
#X msg 791 407 set \$1;
#X obj 695 428 / 127;
#X obj 695 529 dac~;
#X obj 202 431 -;
#X obj 202 452 /;
#X obj 202 483 clip -1 1;
#X obj 202 535 dac~;
#X obj 496 450 sig~;
#X obj 695 449 sig~;
#X obj 202 504 sig~;
#X obj 34 377 r m_volt_range-\$1;
#X obj 34 398 * 12;
#X connect 0 0 12 0;
#X connect 11 0 30 1;
#X connect 12 0 18 0;
#X connect 12 1 16 0;
#X connect 13 0 19 0;
#X connect 14 0 22 0;
#X connect 15 0 23 0;
#X connect 16 0 20 0;
#X connect 16 1 21 0;
#X connect 17 0 33 0;
#X connect 18 0 30 0;
#X connect 19 0 18 1;
#X connect 19 1 17 0;
#X connect 20 0 24 0;
#X connect 21 0 28 0;
#X connect 22 0 20 1;
#X connect 22 1 26 0;
#X connect 23 0 21 1;
#X connect 23 1 27 0;
#X connect 24 0 34 0;
#X connect 26 0 25 0;
#X connect 27 0 29 0;
#X connect 28 0 35 0;
#X connect 30 0 31 0;
#X connect 31 0 32 0;
#X connect 32 0 36 0;
#X connect 34 0 25 0;
#X connect 35 0 29 0;
#X connect 36 0 33 0;
#X connect 37 0 38 0;
#X connect 38 0 31 1;
