#N canvas 136 335 1572 758 10;
#X obj 334 130 r notesIn-\$1;
#X obj 334 615 s notesOut-\$1;
#X obj 193 8 r loadbang-\$1;
#X obj 16 9 r loaddefs-\$1;
#X msg 16 58 loaddefinitions \$1;
#X obj 16 34 symbol;
#X obj 192 83 print loading definiton for \$1;
#X obj 18 556 +~;
#X obj 105 556 +~;
#X obj 18 130 inlet~ inL;
#X obj 103 130 inlet~ inR;
#X obj 132 615 outlet~ outR;
#X obj 18 615 outlet~ outL;
#X obj 203 131 r auxIn-\$1;
#X obj 202 154 r expIn-\$1;
#X obj 202 179 r fsIn-\$1;
#X obj 405 387 efficient-kick;
#X obj 405 466 *~;
#X obj 598 382 efficient-snare;
#X obj 598 461 *~;
#X obj 779 461 *~;
#X obj 420 435 / 127;
#X obj 794 432 / 127;
#X obj 405 302 spigot 0;
#X obj 478 175 float;
#X obj 478 125 t b f;
#X obj 598 300 spigot 0;
#X obj 779 300 spigot 0;
#X obj 824 276 == 62;
#X obj 643 276 == 61;
#X obj 598 333 > 0;
#X obj 781 333 > 0;
#X obj 193 34 print loaded:edrum into \$1, f 12;
#X obj 17 88 KontrolModule \$1 S-edrum;
#X obj 689 333 tgl 15 0 empty empty empty 17 7 0 10 -262144 -1 -1 0
1;
#X obj 871 329 tgl 15 0 empty empty empty 17 7 0 10 -262144 -1 -1 0
1;
#X obj 474 278 == 60;
#X obj 502 337 tgl 15 0 empty empty empty 17 7 0 10 -262144 -1 -1 0
1;
#X obj 478 89 stripnote;
#X obj 613 422 / 127;
#X obj 597 575 *~ 1;
#X obj 405 326 > 0;
#X obj 405 361 nbx 5 14 -1e+37 1e+37 0 0 empty empty empty 0 -8 0 10
-262144 -1 -1 0 256;
#X obj 779 382 efficient-fmhh \$1;
#X connect 0 0 1 0;
#X connect 0 0 38 0;
#X connect 2 0 32 0;
#X connect 3 0 5 0;
#X connect 3 0 6 0;
#X connect 4 0 33 0;
#X connect 5 0 4 0;
#X connect 7 0 12 0;
#X connect 8 0 11 0;
#X connect 9 0 7 0;
#X connect 10 0 8 0;
#X connect 16 0 17 0;
#X connect 17 0 40 0;
#X connect 18 0 19 0;
#X connect 19 0 40 0;
#X connect 20 0 40 0;
#X connect 21 0 17 1;
#X connect 22 0 20 1;
#X connect 23 0 21 0;
#X connect 23 0 41 0;
#X connect 24 0 23 0;
#X connect 24 0 26 0;
#X connect 24 0 27 0;
#X connect 25 0 24 0;
#X connect 25 1 29 0;
#X connect 25 1 28 0;
#X connect 25 1 36 0;
#X connect 26 0 30 0;
#X connect 27 0 31 0;
#X connect 27 0 22 0;
#X connect 28 0 27 1;
#X connect 28 0 35 0;
#X connect 29 0 26 1;
#X connect 29 0 34 0;
#X connect 30 0 18 0;
#X connect 30 0 39 0;
#X connect 31 0 43 0;
#X connect 36 0 23 1;
#X connect 36 0 37 0;
#X connect 38 0 25 0;
#X connect 38 1 24 1;
#X connect 39 0 19 1;
#X connect 40 0 8 1;
#X connect 40 0 7 1;
#X connect 41 0 42 0;
#X connect 42 0 16 0;
#X connect 43 0 20 0;
