#N canvas 577 106 1572 758 10;
#X obj 463 389 *~ 0.3;
#X obj 423 262 pack 0 0 0;
#X obj 423 286 route 1 2 3 4;
#X obj 424 182 unpack 0 0;
#X obj 424 206 - 24;
#X obj 423 238 poly 4 1;
#X obj 334 130 r notesIn-\$1;
#X obj 334 495 s notesOut-\$1;
#X obj 193 8 r loadbang-\$1;
#X obj 16 9 r loaddefs-\$1;
#X msg 16 58 loaddefinitions \$1;
#X obj 16 34 symbol;
#X obj 192 83 print loading definiton for \$1;
#X obj 17 88 KontrolModule \$1 S-brds;
#X obj 193 34 print loaded:brds into \$1, f 12;
#X obj 18 436 +~;
#X obj 105 436 +~;
#X obj 378 348 voice \$1;
#X obj 434 348 voice \$1;
#X obj 491 348 voice \$1;
#X obj 547 348 voice \$1;
#X obj 18 130 inlet~ inL;
#X obj 103 130 inlet~ inR;
#X obj 132 495 outlet~ outR;
#X obj 18 495 outlet~ outL;
#X obj 203 131 r auxIn-\$1;
#X obj 202 154 r expIn-\$1;
#X obj 202 179 r fsIn-\$1;
#X connect 0 0 16 1;
#X connect 0 0 15 1;
#X connect 1 0 2 0;
#X connect 2 0 17 0;
#X connect 2 1 18 0;
#X connect 2 2 19 0;
#X connect 2 3 20 0;
#X connect 3 0 4 0;
#X connect 3 1 5 1;
#X connect 4 0 5 0;
#X connect 5 0 1 0;
#X connect 5 1 1 1;
#X connect 5 2 1 2;
#X connect 6 0 7 0;
#X connect 6 0 3 0;
#X connect 8 0 14 0;
#X connect 9 0 11 0;
#X connect 9 0 12 0;
#X connect 10 0 13 0;
#X connect 11 0 10 0;
#X connect 15 0 24 0;
#X connect 16 0 23 0;
#X connect 17 0 0 0;
#X connect 18 0 0 0;
#X connect 19 0 0 0;
#X connect 20 0 0 0;
#X connect 21 0 15 0;
#X connect 22 0 16 0;
