#N canvas 1039 446 689 405 10;
#X obj 59 19 r m_in_ch_\$1-\$2;
#X obj 59 315 outlet;
#X obj 59 199 r adc0;
#X obj 59 222 spigot 0;
#X obj 59 40 t f b;
#X msg 236 60 0;
#X msg 59 176 1;
#X obj 59 273 / 4000;
#X obj 122 222 spigot 0;
#X msg 122 176 1;
#X obj 184 222 spigot 0;
#X msg 184 176 1;
#X obj 242 222 spigot 0;
#X msg 242 176 1;
#X obj 59 86 route 1 2 3 4 5 6;
#X obj 313 222 spigot 0;
#X msg 313 176 1;
#X obj 371 222 spigot 0;
#X msg 371 176 1;
#X obj 122 199 r adc1;
#X obj 184 199 r adc2;
#X obj 242 199 r adc3;
#X obj 313 199 r adc4;
#X obj 371 199 r adc5;
#X connect 0 0 4 0;
#X connect 2 0 3 0;
#X connect 3 0 7 0;
#X connect 4 0 14 0;
#X connect 4 1 5 0;
#X connect 5 0 8 1;
#X connect 5 0 17 1;
#X connect 5 0 15 1;
#X connect 5 0 12 1;
#X connect 5 0 10 1;
#X connect 5 0 3 1;
#X connect 6 0 3 1;
#X connect 7 0 1 0;
#X connect 8 0 7 0;
#X connect 9 0 8 1;
#X connect 10 0 7 0;
#X connect 11 0 10 1;
#X connect 12 0 7 0;
#X connect 13 0 12 1;
#X connect 14 0 6 0;
#X connect 14 1 9 0;
#X connect 14 2 11 0;
#X connect 14 3 13 0;
#X connect 14 4 16 0;
#X connect 14 5 18 0;
#X connect 15 0 7 0;
#X connect 16 0 15 1;
#X connect 17 0 7 0;
#X connect 18 0 17 1;
#X connect 19 0 8 0;
#X connect 20 0 10 0;
#X connect 21 0 12 0;
#X connect 22 0 15 0;
#X connect 23 0 17 0;
