#N canvas 1039 446 689 405 10;
#X obj 59 19 r m_in_ch_\$1-\$2;
#X obj 59 315 outlet;
#X obj 59 222 spigot 0;
#X obj 59 40 t f b;
#X msg 236 60 0;
#X msg 59 176 1;
#X obj 122 222 spigot 0;
#X msg 122 176 1;
#X obj 184 222 spigot 0;
#X msg 184 176 1;
#X obj 242 222 spigot 0;
#X msg 242 176 1;
#X obj 59 86 route 1 2 3 4;
#X obj 59 199 r gateIn0;
#X obj 122 199 r gateIn1;
#X obj 184 199 r gateIn2;
#X obj 242 199 r gateIn3;
#X connect 0 0 3 0;
#X connect 2 0 1 0;
#X connect 3 0 12 0;
#X connect 3 1 4 0;
#X connect 4 0 6 1;
#X connect 4 0 10 1;
#X connect 4 0 8 1;
#X connect 4 0 2 1;
#X connect 5 0 2 1;
#X connect 7 0 6 1;
#X connect 9 0 8 1;
#X connect 11 0 10 1;
#X connect 12 0 5 0;
#X connect 12 1 7 0;
#X connect 12 2 9 0;
#X connect 12 3 11 0;
#X connect 13 0 2 0;
#X connect 14 0 6 0;
#X connect 15 0 8 0;
#X connect 16 0 10 0;
