#N canvas 31 288 1335 682 10;
#X declare -path subpatches;
#X obj 89 25 declare -path subpatches;
#X obj 87 64 bela_enableLeds;
#X obj 138 155 adc~ 3 4 5 6 7 8 9 10;
#X obj 134 279 snapshot~;
#X obj 813 27 loadbang;
#X obj 231 279 snapshot~;
#X obj 306 279 snapshot~;
#X obj 391 279 snapshot~;
#X obj 486 279 snapshot~;
#X obj 583 279 snapshot~;
#X obj 658 279 snapshot~;
#X obj 743 279 snapshot~;
#X obj 133 349 s a_cvIn1;
#X obj 230 349 s a_cvIn2;
#X obj 304 349 s a_cvIn3;
#X obj 389 349 s a_cvIn4;
#X obj 486 349 s a_cvIn5;
#X obj 583 349 s a_cvIn6;
#X obj 658 349 s a_cvIn7;
#X obj 743 349 s a_cvIn8;
#X obj 201 601 s d_cvIn1;
#X obj 299 601 s d_cvIn2;
#X obj 374 601 s d_cvIn3;
#X obj 459 601 s d_cvIn4;
#X obj 614 538 change -1;
#X obj 614 559 sel 1;
#X obj 614 601 s rackMsgs;
#X msg 614 580 nextpreset;
#X text 711 415 switch changes preset;
#X obj 202 552 change -1;
#X obj 299 552 change -1;
#X obj 374 552 change -1;
#X obj 459 552 change -1;
#X obj 134 300 change -1;
#X obj 231 300 change -1;
#X obj 306 300 change -1;
#X obj 391 300 change -1;
#X obj 486 300 change -1;
#X obj 583 300 change -1;
#X obj 658 300 change -1;
#X obj 743 300 change -1;
#X obj 804 102 metro 200;
#X obj 1009 311 t b b b b b;
#X obj 923 451 s bela_setDigital;
#X obj 615 494 r bela_digitalIn17;
#X obj 299 507 r bela_digitalIn25;
#X obj 203 484 r bela_digitalIn26;
#X obj 381 480 r bela_digitalIn12;
#X obj 459 512 r bela_digitalIn14;
#X msg 922 408 in 17;
#X msg 968 408 in 26;
#X msg 1017 408 in 25;
#X msg 1066 408 in 12;
#X msg 1110 408 in 14;
#X connect 2 0 3 0;
#X connect 2 1 5 0;
#X connect 2 2 6 0;
#X connect 2 3 7 0;
#X connect 2 4 8 0;
#X connect 2 5 9 0;
#X connect 2 6 10 0;
#X connect 2 7 11 0;
#X connect 3 0 33 0;
#X connect 4 0 41 0;
#X connect 4 0 42 0;
#X connect 5 0 34 0;
#X connect 6 0 35 0;
#X connect 7 0 36 0;
#X connect 8 0 37 0;
#X connect 9 0 38 0;
#X connect 10 0 39 0;
#X connect 11 0 40 0;
#X connect 24 0 25 0;
#X connect 25 0 27 0;
#X connect 27 0 26 0;
#X connect 29 0 20 0;
#X connect 30 0 21 0;
#X connect 31 0 22 0;
#X connect 32 0 23 0;
#X connect 33 0 12 0;
#X connect 34 0 13 0;
#X connect 35 0 14 0;
#X connect 36 0 15 0;
#X connect 37 0 16 0;
#X connect 38 0 17 0;
#X connect 39 0 18 0;
#X connect 40 0 19 0;
#X connect 41 0 3 0;
#X connect 41 0 11 0;
#X connect 41 0 10 0;
#X connect 41 0 9 0;
#X connect 41 0 8 0;
#X connect 41 0 7 0;
#X connect 41 0 6 0;
#X connect 41 0 5 0;
#X connect 42 0 49 0;
#X connect 42 1 50 0;
#X connect 42 2 51 0;
#X connect 42 3 52 0;
#X connect 42 4 53 0;
#X connect 44 0 24 0;
#X connect 45 0 30 0;
#X connect 46 0 29 0;
#X connect 47 0 31 0;
#X connect 48 0 32 0;
#X connect 49 0 43 0;
#X connect 50 0 43 0;
#X connect 51 0 43 0;
#X connect 52 0 43 0;
#X connect 53 0 43 0;
