#N canvas 32 256 1335 682 10;
#X declare -path subpatches;
#X obj 108 25 declare -path subpatches;
#X obj 87 64 bela_enableLeds;
#X obj 138 155 adc~ 3 4 5 6 7 8 9 10;
#X obj 134 279 snapshot~;
#X obj 804 102 metro 100;
#X obj 813 27 loadbang;
#X obj 231 279 snapshot~;
#X obj 306 279 snapshot~;
#X obj 391 279 snapshot~;
#X obj 486 279 snapshot~;
#X obj 583 279 snapshot~;
#X obj 658 279 snapshot~;
#X obj 743 279 snapshot~;
#X obj 133 349 s a_cvIn1;
#X obj 213 349 s a_cvIn2;
#X obj 288 349 s a_cvIn3;
#X obj 358 349 s a_cvIn4;
#X obj 430 349 s a_cvIn5;
#X obj 497 349 s a_cvIn6;
#X obj 567 349 s a_cvIn7;
#X obj 639 349 s a_cvIn8;
#X obj 202 531 snapshot~;
#X obj 299 531 snapshot~;
#X obj 374 531 snapshot~;
#X obj 459 531 snapshot~;
#X obj 206 407 adc~ 26 25 12 14;
#X obj 201 601 s d_cvIn1;
#X obj 281 601 s d_cvIn2;
#X obj 356 601 s d_cvIn3;
#X obj 426 601 s d_cvIn4;
#X connect 2 0 3 0;
#X connect 2 1 6 0;
#X connect 2 2 7 0;
#X connect 2 3 8 0;
#X connect 2 4 9 0;
#X connect 2 5 10 0;
#X connect 2 6 11 0;
#X connect 2 7 12 0;
#X connect 3 0 13 0;
#X connect 4 0 3 0;
#X connect 4 0 12 0;
#X connect 4 0 11 0;
#X connect 4 0 10 0;
#X connect 4 0 9 0;
#X connect 4 0 8 0;
#X connect 4 0 7 0;
#X connect 4 0 6 0;
#X connect 4 0 21 0;
#X connect 4 0 22 0;
#X connect 4 0 23 0;
#X connect 4 0 24 0;
#X connect 5 0 4 0;
#X connect 6 0 14 0;
#X connect 7 0 15 0;
#X connect 8 0 16 0;
#X connect 9 0 17 0;
#X connect 10 0 18 0;
#X connect 11 0 19 0;
#X connect 12 0 20 0;
#X connect 21 0 26 0;
#X connect 22 0 27 0;
#X connect 23 0 28 0;
#X connect 24 0 29 0;
#X connect 25 0 21 0;
#X connect 25 1 22 0;
#X connect 25 2 23 0;
#X connect 25 3 24 0;
