#N canvas 863 367 848 579 10;
#X obj 179 259 cos~;
#X obj 179 282 +~ 1;
#X obj 266 143 +~ 0.25;
#X obj 266 258 cos~;
#X obj 266 281 +~ 1;
#X obj 179 425 outlet~;
#X obj 266 426 outlet~;
#X obj 365 190 +~ 0.25;
#X obj 365 257 cos~;
#X obj 365 280 +~ 1;
#X obj 460 230 +~ 0.25;
#X obj 460 255 cos~;
#X obj 460 278 +~ 1;
#X obj 14 32 inlet~;
#X obj 535 284 line~;
#X obj 460 339 *~;
#X obj 365 341 *~;
#X obj 266 342 *~;
#X obj 179 343 *~;
#X obj 180 94 line~;
#X obj 180 73 pack 0 50;
#X obj 179 124 phasor~;
#X obj 365 424 outlet~;
#X obj 460 421 outlet~;
#X text 609 238 modulation;
#X text 174 28 frequence;
#X obj 460 376 +~ 0;
#X obj 366 376 +~ 0;
#X obj 266 379 +~ 0;
#X obj 180 376 +~ 0;
#N canvas 317 244 450 300 sampledur 1;
#X obj 70 100 samplerate~;
#X obj 70 144 swap 1000;
#X obj 70 172 /;
#X msg 82 77 bang;
#X obj 70 205 outlet;
#X obj 70 51 r loadbang-\$1;
#X connect 0 0 1 0;
#X connect 1 0 2 0;
#X connect 1 1 2 1;
#X connect 2 0 4 0;
#X connect 3 0 0 0;
#X connect 5 0 0 0;
#X restore 546 343 pd sampledur;
#X obj 14 63 *~ 0.5;
#X obj 535 263 pack 0 40;
#X obj 180 48 r freq\$1;
#X obj 14 91 delwrite~ \$1-c 2000;
#X obj 179 404 vd~ \$1-c;
#X obj 266 404 vd~ \$1-c;
#X obj 365 402 vd~ \$1-c;
#X obj 460 400 vd~ \$1-c;
#X obj 535 239 r mod\$1;
#X connect 0 0 1 0;
#X connect 1 0 18 0;
#X connect 2 0 3 0;
#X connect 2 0 7 0;
#X connect 3 0 4 0;
#X connect 4 0 17 0;
#X connect 7 0 8 0;
#X connect 7 0 10 0;
#X connect 8 0 9 0;
#X connect 9 0 16 0;
#X connect 10 0 11 0;
#X connect 11 0 12 0;
#X connect 12 0 15 0;
#X connect 13 0 31 0;
#X connect 14 0 15 1;
#X connect 14 0 16 1;
#X connect 14 0 17 1;
#X connect 14 0 18 1;
#X connect 15 0 26 0;
#X connect 16 0 27 0;
#X connect 17 0 28 0;
#X connect 18 0 29 0;
#X connect 19 0 21 0;
#X connect 20 0 19 0;
#X connect 21 0 0 0;
#X connect 21 0 2 0;
#X connect 26 0 38 0;
#X connect 27 0 37 0;
#X connect 28 0 36 0;
#X connect 29 0 35 0;
#X connect 30 0 26 1;
#X connect 30 0 27 1;
#X connect 30 0 28 1;
#X connect 30 0 29 1;
#X connect 31 0 34 0;
#X connect 32 0 14 0;
#X connect 33 0 20 0;
#X connect 35 0 5 0;
#X connect 36 0 6 0;
#X connect 37 0 22 0;
#X connect 38 0 23 0;
#X connect 39 0 32 0;
