#N canvas 182 582 1540 726 10;
#X obj 304 186 r notesIn-\$1;
#X obj 304 491 s notesOut-\$1;
#X obj 628 5 r loadbang-\$1;
#X obj 25 186 inlet~ inL-\$1;
#X obj 135 186 inlet~ inR-\$1;
#X obj 27 491 outlet~ outL-\$1;
#X obj 136 491 outlet~ outR-\$1;
#X obj 499 186 r auxIn-\$1;
#X obj 498 209 r expIn-\$1;
#X obj 498 234 r fsIn-\$1;
#X obj 516 45 int 0;
#X obj 516 76 s aux-led-\$1;
#X obj 398 186 r ctrlIn-\$1;
#X obj 398 491 s ctrlOut-\$1;
#X obj 758 195 sel \$1;
#X msg 1089 455 /oled/gClear 3 1;
#X msg 586 458 /oled/gFlip 3;
#X obj 774 568 s oscOut;
#X obj 796 167 unpack s s;
#X obj 796 15 r activePage;
#X obj 808 258 &&;
#X msg 859 225 1;
#X msg 902 225 0;
#X obj 808 290 sel 1 0;
#X msg 741 225 1;
#X msg 784 225 0;
#X obj 859 195 sel pg_main;
#X text 865 290 page and module is active;
#X obj 880 349 t b b b b b;
#X msg 765 432 /oled/gPrintln 3 4 32 8 1 Press encoder \;;
#X msg 795 458 /oled/gPrintln 3 4 42 8 1 to select modules \;;
#X msg 694 487 /oled/gPrintln 3 4 10 8 1 Empty slot \;;
#X obj 809 47 t b a;
#X obj 796 133 list;
#X obj 772 82 del 500;
#X connect 0 0 1 0;
#X connect 2 0 10 0;
#X connect 10 0 11 0;
#X connect 12 0 13 0;
#X connect 14 0 24 0;
#X connect 14 1 25 0;
#X connect 15 0 17 0;
#X connect 16 0 17 0;
#X connect 18 0 14 0;
#X connect 18 1 26 0;
#X connect 19 0 32 0;
#X connect 20 0 23 0;
#X connect 21 0 20 1;
#X connect 22 0 20 1;
#X connect 23 0 28 0;
#X connect 24 0 20 0;
#X connect 25 0 20 0;
#X connect 26 0 21 0;
#X connect 26 1 22 0;
#X connect 28 0 16 0;
#X connect 28 1 31 0;
#X connect 28 2 29 0;
#X connect 28 3 30 0;
#X connect 28 4 15 0;
#X connect 29 0 17 0;
#X connect 30 0 17 0;
#X connect 31 0 17 0;
#X connect 32 0 34 0;
#X connect 32 1 33 1;
#X connect 33 0 18 0;
#X connect 34 0 33 0;
