#N canvas 231 486 969 792 10;
#X obj 304 186 r notesIn-\$1;
#X obj 304 491 s notesOut-\$1;
#X obj 25 186 inlet~ inL-\$1;
#X obj 135 186 inlet~ inR-\$1;
#X obj 27 491 outlet~ outL-\$1;
#X obj 136 491 outlet~ outR-\$1;
#X obj 424 185 r auxIn-\$1;
#X obj 423 208 r expIn-\$1;
#X obj 423 233 r fsIn-\$1;
#X obj 404 410 rngs_reverb~, f 15;
#X msg 865 305 lp \$1;
#X msg 675 305 time \$1;
#X msg 762 305 diffusion \$1;
#X obj 583 262 / 100;
#X obj 675 261 / 100;
#X obj 762 262 / 100;
#X obj 865 262 / 100;
#X obj 583 217 r r_amount-\$1;
#X obj 675 217 r r_time-\$1;
#X obj 762 217 r r_diff-\$1;
#X obj 865 217 r r_cutoff-\$1;
#X connect 2 0 9 0;
#X connect 3 0 9 1;
#X connect 9 0 4 0;
#X connect 9 1 5 0;
#X connect 10 0 9 0;
#X connect 11 0 9 0;
#X connect 12 0 9 0;
#X connect 13 0 9 2;
#X connect 14 0 11 0;
#X connect 15 0 12 0;
#X connect 16 0 10 0;
#X connect 17 0 13 0;
#X connect 18 0 14 0;
#X connect 19 0 15 0;
#X connect 20 0 16 0;
