#N canvas 0 0 797 492 10;
#X obj 151 86 route persist;
#X obj 151 117 list prepend \$1;
#X obj 150 196 list trim;
#X obj 150 222 route \$1;
#X msg 150 328 setonly \$1;
#X obj 150 248 t a a;
#X obj 150 306 list;
#X obj 150 174 r RJ_SCENE_LOAD;
#X obj 151 144 s RJ_SCENE;
#X obj 305 98 r RJ_SCENE_SAVE;
#X obj 151 54 r \$2-SSSAD_ADMIN;
#X obj 150 352 s \$2-SSSAD_ADMIN;
#X obj 182 270 s \$2-SSSAD;
#X obj 305 137 s \$2-SSSAD_ADMIN;
#X msg 429 97 save;
#X obj 429 71 inlet;
#X obj 57 131 outlet;
#X text 35 94 Store presets;
#N canvas 228 198 627 317 LICENSE-BSD 0;
#X text 121 56 This software is copyrighted by Miller Puckette \, Reality
Jockey Ltd. and others. The terms (the "Standard Improved BSD License")
apply to all files associated with the software unless explicitly disclaimed
in individual files.;
#X text 123 148 See the file LICENSE.txt for the full license text.
;
#X restore 523 60 pd LICENSE-BSD;
#X connect 0 0 1 0;
#X connect 0 0 16 0;
#X connect 1 0 8 0;
#X connect 2 0 3 0;
#X connect 3 0 5 0;
#X connect 4 0 11 0;
#X connect 5 0 6 0;
#X connect 5 1 12 0;
#X connect 6 0 4 0;
#X connect 7 0 2 0;
#X connect 9 0 13 0;
#X connect 10 0 0 0;
#X connect 14 0 13 0;
#X connect 15 0 14 0;
