#N canvas 496 503 1405 714 10;
#X obj 304 186 r notesIn-\$1;
#X obj 304 491 s notesOut-\$1;
#X obj 23 9 r loaddefs-\$1;
#X msg 23 76 loaddefinitions \$1;
#X obj 181 9 r loadbang-\$1;
#X obj 181 76 print loading definiton for \$1;
#X obj 23 41 symbol;
#X obj 27 186 inlet~ inL-\$1;
#X obj 136 186 inlet~ inR-\$1;
#X obj 27 491 outlet~ outL-\$1;
#X obj 136 491 outlet~ outR-\$1;
#X obj 424 185 r auxIn-\$1;
#X obj 423 208 r expIn-\$1;
#X obj 768 125 r fsIn-\$1;
#X obj 23 112 KontrolModule \$1 S-analogstyle;
#X obj 181 35 print loaded:analog style into \$1, f 35;
#N canvas 33 220 607 535 synth 0;
#X obj 154 158 pack f f f;
#X obj 154 183 route 1 2 3 4;
#X obj 154 128 poly 4 1;
#X obj 154 96 unpack 0 0;
#X obj 193 262 *~ 2;
#X obj 193 284 outlet~;
#X obj 154 68 inlet;
#X obj 38 221 as-simple \$1;
#X obj 248 220 as-simple \$1;
#X obj 148 220 as-simple \$1;
#X obj 354 220 as-simple \$1;
#X connect 0 0 1 0;
#X connect 1 0 7 0;
#X connect 1 1 9 0;
#X connect 1 2 8 0;
#X connect 1 3 10 0;
#X connect 2 0 0 0;
#X connect 2 1 0 1;
#X connect 2 2 0 2;
#X connect 3 0 2 0;
#X connect 3 1 2 1;
#X connect 4 0 5 0;
#X connect 6 0 3 0;
#X connect 7 0 4 0;
#X connect 8 0 4 0;
#X connect 9 0 4 0;
#X connect 10 0 4 0;
#X restore 58 337 pd synth;
#X obj 628 152 sig~;
#X obj 627 183 lop~ 5;
#X obj 938 105 sig~;
#X obj 937 134 lop~ 5;
#X obj 938 82 * 2;
#X obj 625 447 sig~;
#X obj 625 475 lop~ 5;
#X obj 625 419 * 4;
#X obj 803 437 sig~;
#X obj 803 462 lop~ 5;
#X obj 681 188 + 1;
#X floatatom 681 211 5 0 0 0 - - -, f 5;
#X obj 628 235 *~ 1;
#X obj 628 103 mtof;
#X obj 628 125 / 8.1785;
#X obj 628 259 send~ as-\$1-f;
#X obj 936 160 send~ as-\$1-offset;
#X obj 625 503 send~ as-\$1-resonance;
#X obj 803 487 s~ as-\$1-cutoff-local;
#X obj 627 26 r as_tune-\$1;
#X obj 939 18 r as_oscratio-\$1;
#X obj 803 362 r as_cutoff-\$1;
#X obj 625 363 r as_reso-\$1;
#X obj 938 52 / 100;
#X obj 625 391 / 100;
#X obj 27 442 +~;
#X obj 136 444 +~;
#X connect 0 0 1 0;
#X connect 0 0 16 0;
#X connect 2 0 6 0;
#X connect 2 0 5 0;
#X connect 3 0 14 0;
#X connect 4 0 15 0;
#X connect 6 0 3 0;
#X connect 7 0 42 0;
#X connect 8 0 43 0;
#X connect 13 0 27 0;
#X connect 16 0 42 1;
#X connect 16 0 43 1;
#X connect 17 0 18 0;
#X connect 18 0 29 0;
#X connect 19 0 20 0;
#X connect 20 0 33 0;
#X connect 21 0 19 0;
#X connect 22 0 23 0;
#X connect 23 0 34 0;
#X connect 24 0 22 0;
#X connect 25 0 26 0;
#X connect 26 0 35 0;
#X connect 27 0 28 0;
#X connect 28 0 29 1;
#X connect 29 0 32 0;
#X connect 30 0 31 0;
#X connect 31 0 17 0;
#X connect 36 0 30 0;
#X connect 37 0 40 0;
#X connect 38 0 25 0;
#X connect 39 0 41 0;
#X connect 40 0 21 0;
#X connect 41 0 24 0;
#X connect 42 0 9 0;
#X connect 43 0 10 0;
