#N canvas 750 386 1484 828 10;
#X declare -path Sounds/s24-sounds;
#X obj 304 186 r notesIn-\$1;
#X obj 304 491 s notesOut-\$1;
#X obj 23 9 r loaddefs-\$1;
#X msg 23 76 loaddefinitions \$1;
#X obj 181 9 r loadbang-\$1;
#X obj 181 76 print loading definiton for \$1;
#X obj 23 41 symbol;
#X obj 27 186 inlet~ inL-\$1;
#X obj 135 186 inlet~ inR-\$1;
#X obj 27 491 outlet~ outL-\$1;
#X obj 136 491 outlet~ outR-\$1;
#X obj 424 185 r auxIn-\$1;
#X obj 423 208 r expIn-\$1;
#X obj 423 233 r fsIn-\$1;
#X obj 23 112 KontrolModule \$1 S-sampler24;
#X obj 181 35 print loaded:sampler24 into \$1, f 35;
#N canvas 1108 482 412 316 load 0;
#X obj 158 6 declare -path Sounds/s24-sounds;
#X obj 38 51 load-24 1.wav s24 \$1;
#X obj 38 91 load-24 3.wav s24 \$1;
#X obj 38 71 load-24 2.wav s24 \$1;
#X obj 38 111 load-24 4.wav s24 \$1;
#X obj 38 131 load-24 5.wav s24 \$1;
#X obj 38 151 load-24 6.wav s24 \$1;
#X obj 39 171 load-24 7.wav s24 \$1;
#X obj 38 191 load-24 8.wav s24 \$1;
#X obj 38 211 load-24 9.wav s24 \$1;
#X obj 38 231 load-24 10.wav s24 \$1;
#X obj 38 251 load-24 11.wav s24 \$1;
#X obj 38 271 load-24 12.wav s24 \$1;
#X restore 579 191 pd load sounds;
#X text 691 191 Loads samples to Ram;
#X text 722 233 clickless looping;
#N canvas 887 215 450 300 synth 0;
#X obj 76 141 abs;
#X obj 76 100 expr if ($f1 > 59 \, $f1 - 60 \, $f1 - 12);
#X text 82 120 allow all midi notes to trigger samples...;
#X obj 76 219 pack 0 0, f 10;
#X obj 76 58 unpack 0 0;
#X text 171 201 Notes in to Sampler Player;
#X obj 76 189 + 1;
#N canvas 1232 464 848 369 Battleship 0;
#X obj 24 52 inlet;
#X obj 24 166 route 1 2 3 4 5 6 7 8 9 10 11 12, f 106;
#X obj 24 103 poly 12 1, f 10;
#X obj 24 231 s24-voice \$1;
#X obj 24 125 pack 0 0 0;
#X obj 158 53 unpack 0 0;
#X obj 156 124 pack 1 0 0;
#X obj 173 86 t b f;
#X obj 42 251 s24-voice \$1;
#X obj 542 291 s24-voice \$1;
#X obj 412 291 s24-voice \$1;
#X obj 655 271 s24-voice \$1;
#X obj 162 251 s24-voice \$1;
#X obj 293 291 s24-voice \$1;
#X obj 144 231 s24-voice \$1;
#X obj 274 271 s24-voice \$1;
#X obj 394 271 s24-voice \$1;
#X obj 524 271 s24-voice \$1;
#X obj 672 292 s24-voice \$1;
#X connect 0 0 2 0;
#X connect 1 0 3 0;
#X connect 1 1 8 0;
#X connect 1 2 14 0;
#X connect 1 3 12 0;
#X connect 1 4 15 0;
#X connect 1 5 13 0;
#X connect 1 6 16 0;
#X connect 1 7 10 0;
#X connect 1 8 17 0;
#X connect 1 9 9 0;
#X connect 1 10 11 0;
#X connect 1 11 18 0;
#X connect 2 0 4 0;
#X connect 2 1 4 1;
#X connect 2 2 4 2;
#X connect 4 0 1 0;
#X connect 5 0 7 0;
#X connect 5 1 6 2;
#X connect 6 0 1 0;
#X connect 7 0 6 0;
#X connect 7 1 6 1;
#X restore 76 249 pd Battleship;
#X obj 76 31 inlet;
#X obj 76 167 % 12;
#X connect 0 0 9 0;
#X connect 1 0 0 0;
#X connect 3 0 7 0;
#X connect 4 0 1 0;
#X connect 4 1 3 1;
#X connect 6 0 3 0;
#X connect 8 0 4 0;
#X connect 9 0 6 0;
#X restore 334 334 pd synth;
#X text 401 334 the synth;
#X text 766 124 ***samples halfed for multisynth module(12);
#X text 754 81 C&G A Sampler Module that keeps looping until note off
is recieved.;
#X obj 68 319 catch~ s24-\$1-voice-out;
#X obj 731 411 t f f;
#X obj 731 433 *;
#X obj 856 361 s s24-\$1-speed-local;
#X obj 579 425 s s24-\$1-release-local;
#X obj 731 467 s s24-\$1-start-local;
#X obj 731 364 t f f;
#X obj 731 386 *;
#X obj 1029 351 t f f;
#X obj 1029 373 *;
#X obj 1028 425 s s24-\$1-decay-local;
#X obj 579 281 r s24_release-\$1;
#X obj 729 285 r s24_start-\$1;
#X obj 857 284 r s24_speed-\$1;
#X obj 1029 278 r s24_decay-\$1;
#X obj 1029 300 / 100;
#X obj 1475 790;
#X obj 857 312 / 100;
#X obj 731 328 / 100;
#X obj 578 233 crown-window s24 \$1;
#X connect 0 0 19 0;
#X connect 2 0 6 0;
#X connect 2 0 5 0;
#X connect 3 0 14 0;
#X connect 4 0 15 0;
#X connect 6 0 3 0;
#X connect 23 0 9 0;
#X connect 23 0 10 0;
#X connect 24 0 25 0;
#X connect 24 1 25 1;
#X connect 25 0 28 0;
#X connect 29 0 30 0;
#X connect 29 1 30 1;
#X connect 30 0 24 0;
#X connect 31 0 32 0;
#X connect 31 1 32 1;
#X connect 32 0 33 0;
#X connect 34 0 27 0;
#X connect 35 0 41 0;
#X connect 36 0 40 0;
#X connect 37 0 38 0;
#X connect 38 0 31 0;
#X connect 40 0 26 0;
#X connect 41 0 29 0;
