#N canvas 0 22 450 300 10;
#X obj 181 174 threshold~ 0.1 1 0.1 1;
#X obj 309 215 outlet;
#X text 32 66 scale the freq;
#X obj 153 121 wrap~;
#X obj 136 67 *~ \$1;
#X obj 134 33 inlet~;
#X connect 0 1 1 0;
#X connect 3 0 0 0;
#X connect 4 0 3 0;
#X connect 5 0 4 0;
