#N struct 6578-symarray float x array symbols 6578-sym;
#N struct 6578-sym symbol name float on;
#N canvas 225 50 877 510 10;
#X declare -path .;
#X declare -path .;
#N canvas 87 50 1081 586 detailed_help 0;
#X obj 719 26 declare -path .;
#X obj 22 284 soundoutput;
#X msg 186 132 save;
#X obj 575 9 r \$0-GUI;
#X obj 21 105 random 12;
#X obj 21 132 m_majorscale 50;
#X obj 21 154 makenote 80 300;
#X obj 21 78 metro 500;
#X obj 21 54 tgl 15 0 empty empty empty 17 7 0 10 -262144 -1 -1 0 1
;
#X obj 21 211 pack;
#N canvas 109 50 1013 367 midi-control 0;
#X obj 37 214 m_symbolarray;
#X obj 21 110 ctlin;
#X obj 21 186 / 127;
#X obj 125 65 loadbang;
#X obj 21 297 s \$0-GUI;
#X msg 125 91 91 env1a \, 92 env1d;
#X text 124 31 add your midi controller mappings here. Format: <ctl-num>
<method name>;
#X floatatom 47 144 5 0 0 0 - - -, f 5;
#X floatatom 88 145 5 0 0 0 - - -, f 5;
#X obj 21 260 list prepend;
#X text 119 259 swap;
#X msg 558 66 env1a \, env1d \, env1r \, env1s \, env2a \, env2d \,
env2r \, env2s \, env3a \, env3d \, env3r \, env3s \, mod1a \, mod1b
\, mod1c \, mod1d \, mod2a \, mod2b \, mod2c \, mod2d \, mod3a \, mod3b
\, mod3c \, mod3d \, osc1a \, osc1b \, osc1c \, osc1d \, osc2a \, osc2b
\, osc2c \, osc2d \, osc3a \, osc3b \, osc3c \, osc3d \,;
#X msg 201 222 dump;
#X symbolatom 37 241 10 0 0 0 - - -, f 10;
#X obj 201 276 print;
#X obj 201 244 u_dumpfile controls.txt cr;
#X text 552 32 Control Template - These are the methods \, that s_czz
accepts. They all expect values in a range of 0-1.;
#X text 241 220 You can also keep your settings in a file.;
#X obj 201 336 declare -path .;
#X text 317 339 let me find "controls.txt" here.;
#X connect 0 0 9 1;
#X connect 0 0 13 0;
#X connect 1 0 7 0;
#X connect 1 0 2 0;
#X connect 1 1 8 0;
#X connect 1 1 0 0;
#X connect 2 0 9 0;
#X connect 3 0 5 0;
#X connect 5 0 0 1;
#X connect 9 0 4 0;
#X connect 12 0 15 0;
#X connect 15 0 0 1;
#X connect 15 0 14 0;
#X restore 356 103 pd midi-control;
#X obj 27 174 notein;
#X text 346 84 Set controllers here:;
#X obj 144 272 u_cocollect;
#X obj 186 193 t a b;
#X obj 186 59 bng 64 250 50 0 empty empty empty 17 7 0 10 -4034 -1
-1;
#X obj 144 480 s \$0-GUI;
#X obj 152 300 loadbang;
#X obj 156 243 r \$0-control;
#X obj 575 528 s \$0-control;
#X symbolatom 350 271 20 0 0 0 - - -, f 20;
#X obj 445 251 s \$0-GUI;
#X obj 350 200 nbx 3 20 0 256 0 0 empty empty empty 0 -8 0 16 -260097
-262144 -1 0 256;
#X obj 350 177 pgmin 1;
#X msg 144 325 mod3d 0.165354 \, mod3c 0.181102 \, mod3b 0.173228 \,
mod3a 0.275591 \, mod2d 0.141732 \, mod2c 0.393701 \, mod2b 0.220472
\, mod2a 0.472441 \, mod1d 0.574803 \, mod1c 0.669291 \, mod1b 0.700787
\, mod1a 0.125984 \, osc3d 0.314961 \, osc3c 0.220472 \, osc3b 0.527559
\, osc3a 0.409449 \, osc2d 0.559055 \, osc2c 0.645669 \, osc2b 0.543307
\, osc2a 0.377953 \, osc1d 0.503937 \, osc1c 0.905512 \, osc1b 0.0629921
\, osc1a 0.401575 \, env3r 1 \, env3s 0.440945 \, env3d 0.023622 \,
env3a 0 \, env2r 0.0866142 \, env2s 0.0866142 \, env2d 0.590551 \,
env2a 0 \, env1r 0.149606 \, env1s 0.110236 \, env1d 0.952756 \, env1a
0 \,;
#X text 28 226 ajf \, fbar \, 2010;
#X obj 350 155 hradio 15 1 0 9 empty empty empty 0 -8 0 10 -262144
-1 -1 6;
#N canvas 0 50 990 677 czz_presets 0;
#X obj 91 26 inlet;
#X obj 91 50 sel 0 1 2 3 4 5 6 7 8;
#X obj 83 653 outlet name;
#X obj 83 630 symbol;
#X obj 166 652 outlet parms;
#X obj 83 582 route name;
#X msg 57 187 name FB-String-Brass1 \, mod3d 0.165354 \, mod3c 0.181102
\, mod3b 0.173228 \, mod3a 0.275591 \, mod2d 0.141732 \, mod2c 0.393701
\, mod2b 0.220472 \, mod2a 0.472441 \, mod1d 0.299213 \, mod1c 0.125984
\, mod1b 0.19685 \, mod1a 0.133858 \, osc3d 0.314961 \, osc3c 0.220472
\, osc3b 0.527559 \, osc3a 0.409449 \, osc2d 0.559055 \, osc2c 0.645669
\, osc2b 0.543307 \, osc2a 0.377953 \, osc1d 0.377953 \, osc1c 0.307087
\, osc1b 0.614173 \, osc1a 0.866142 \, env3r 0.133858 \, env3s 0.15748
\, env3d 0.314961 \, env3a 0.259843 \, env2r 0.637795 \, env2s 0.401575
\, env2d 0.338583 \, env2a 0.299213 \, env1r 0.149606 \, env1s 0.110236
\, env1d 0.0551181 \, env1a 0.0551181 \,;
#X msg 57 172 name Gentle-Sync \, mod3d 0.165354 \, mod3c 0.181102
\, mod3b 0.173228 \, mod3a 0.275591 \, mod2d 0.141732 \, mod2c 0.393701
\, mod2b 0.220472 \, mod2a 0.472441 \, mod1d 0.574803 \, mod1c 0.669291
\, mod1b 0.511811 \, mod1a 0.133858 \, osc3d 0.314961 \, osc3c 0.220472
\, osc3b 0.527559 \, osc3a 0.409449 \, osc2d 0.559055 \, osc2c 0.645669
\, osc2b 0.543307 \, osc2a 0.377953 \, osc1d 0.503937 \, osc1c 0.905512
\, osc1b 0.0629921 \, osc1a 0.401575 \, env3r 0.133858 \, env3s 0.15748
\, env3d 0.314961 \, env3a 0.259843 \, env2r 0.0866142 \, env2s 0.0866142
\, env2d 0.251969 \, env2a 0.141732 \, env1r 0.149606 \, env1s 0.110236
\, env1d 0.952756 \, env1a 0 \,;
#X msg 59 205 name RoughSync-Bass \, mod3d 0.165354 \, mod3c 0.181102
\, mod3b 0.173228 \, mod3a 0.275591 \, mod2d 0.141732 \, mod2c 0.393701
\, mod2b 0.220472 \, mod2a 0.472441 \, mod1d 0.574803 \, mod1c 0.669291
\, mod1b 0.511811 \, mod1a 0.133858 \, osc3d 0.314961 \, osc3c 0.220472
\, osc3b 0.527559 \, osc3a 0.409449 \, osc2d 0.559055 \, osc2c 0.645669
\, osc2b 0.543307 \, osc2a 0.377953 \, osc1d 0.503937 \, osc1c 0.905512
\, osc1b 0.0629921 \, osc1a 0.401575 \, env3r 0.0472441 \, env3s 0.0629921
\, env3d 0.0551181 \, env3a 0.0015748 \, env2r 0.0866142 \, env2s 0.0866142
\, env2d 0.181102 \, env2a 0.0472441 \, env1r 0.149606 \, env1s 0.110236
\, env1d 0.11811 \, env1a 0 \,;
#X msg 59 220 name Thin-Short-Bass \, mod3d 0.559055 \, mod3c 0.181102
\, mod3b 0.173228 \, mod3a 0.275591 \, mod2d 0.141732 \, mod2c 0.393701
\, mod2b 0.220472 \, mod2a 0.472441 \, mod1d 0.574803 \, mod1c 0.669291
\, mod1b 0.0708661 \, mod1a 0.409449 \, osc3d 0.314961 \, osc3c 0.220472
\, osc3b 0.527559 \, osc3a 0.409449 \, osc2d 0.559055 \, osc2c 0.645669
\, osc2b 0.543307 \, osc2a 0.377953 \, osc1d 0.015748 \, osc1c 0 \,
osc1b 0 \, osc1a 0 \, env3r 0.0472441 \, env3s 0.0393701 \, env3d 0.0551181
\, env3a 0.0015748 \, env2r 0.0866142 \, env2s 0.0866142 \, env2d 0.0866142
\, env2a 0.0472441 \, env1r 0.149606 \, env1s 0.0629921 \, env1d 0.0787402
\, env1a 0 \,;
#X msg 57 236 name Full-Square-Lead \, mod3d 0.251969 \, mod3c 0.181102
\, mod3b 0.173228 \, mod3a 0.275591 \, mod2d 0.141732 \, mod2c 0.393701
\, mod2b 0.220472 \, mod2a 0.472441 \, mod1d 0 \, mod1c 0 \, mod1b
0 \, mod1a 1 \, osc3d 0.314961 \, osc3c 0.220472 \, osc3b 0.527559
\, osc3a 0.409449 \, osc2d 0.559055 \, osc2c 0.645669 \, osc2b 0.543307
\, osc2a 0.377953 \, osc1d 0.440945 \, osc1c 0 \, osc1b 0 \, osc1a
0 \, env3r 0.023622 \, env3s 0.527559 \, env3d 0.0551181 \, env3a 0.00944882
\, env2r 0.0393701 \, env2s 0.637795 \, env2d 0.0866142 \, env2a 0.0472441
\, env1r 0.0314961 \, env1s 0.708661 \, env1d 0.0787402 \, env1a 0.19685
\,;
#X msg 58 253 name Dull-Brass \, mod3d 0.251969 \, mod3c 0.181102 \,
mod3b 0.173228 \, mod3a 0.275591 \, mod2d 0.141732 \, mod2c 0.393701
\, mod2b 0.220472 \, mod2a 0.472441 \, mod1d 0 \, mod1c 0 \, mod1b
0 \, mod1a 0.188976 \, osc3d 0.251969 \, osc3c 0.220472 \, osc3b 0.527559
\, osc3a 0.409449 \, osc2d 0.559055 \, osc2c 0.645669 \, osc2b 0.543307
\, osc2a 0.377953 \, osc1d 0.952756 \, osc1c 0 \, osc1b 0 \, osc1a
0.440945 \, env3r 0.00787402 \, env3s 0.0866142 \, env3d 0.0944882
\, env3a 0.0330709 \, env2r 0.0393701 \, env2s 0.102362 \, env2d 0.23622
\, env2a 0.645669 \, env1r 0.0708661 \, env1s 0.0866142 \, env1d 0.0472441
\, env1a 0.0551181 \,;
#X msg 59 268 name Slow-Hollow \, mod3d 0.212598 \, mod3c 0.181102
\, mod3b 0.173228 \, mod3a 0.275591 \, mod2d 0.141732 \, mod2c 0.393701
\, mod2b 0.220472 \, mod2a 0.472441 \, mod1d 0.0314961 \, mod1c 0.0314961
\, mod1b 0.220472 \, mod1a 0.866142 \, osc3d 0.251969 \, osc3c 0.220472
\, osc3b 0.527559 \, osc3a 0.409449 \, osc2d 0.19685 \, osc2c 0.228346
\, osc2b 0.165354 \, osc2a 0.0944882 \, osc1d 0.440945 \, osc1c 0.0629921
\, osc1b 0.511811 \, osc1a 0.0866142 \, env3r 0.125984 \, env3s 0.244094
\, env3d 0.354331 \, env3a 0.655118 \, env2r 0.0787402 \, env2s 0.692913
\, env2d 0.291339 \, env2a 0.393701 \, env1r 0.133858 \, env1s 0.519685
\, env1d 0.448819 \, env1a 0.771654 \,;
#X msg 58 282 name Slow-Thin \, mod3d 0.212598 \, mod3c 0.181102 \,
mod3b 0.173228 \, mod3a 0.275591 \, mod2d 0.141732 \, mod2c 0.393701
\, mod2b 0.220472 \, mod2a 0.472441 \, mod1d 0 \, mod1c 0 \, mod1b
0.748031 \, mod1a 0.716535 \, osc3d 0.251969 \, osc3c 0.220472 \, osc3b
0.527559 \, osc3a 0.409449 \, osc2d 0.19685 \, osc2c 0.228346 \, osc2b
0.165354 \, osc2a 0.0944882 \, osc1d 0.0708661 \, osc1c 0.125984 \,
osc1b 0.346457 \, osc1a 0.0866142 \, env3r 0.125984 \, env3s 0.244094
\, env3d 0.354331 \, env3a 0.749606 \, env2r 0.0393701 \, env2s 0.440945
\, env2d 0.141732 \, env2a 0.0314961 \, env1r 0.133858 \, env1s 0.212598
\, env1d 0.125984 \, env1a 0.0629921 \,;
#X obj 483 146 loadbang;
#X msg 483 175 env1a color 128 \, env1a label TONE-ATTACK \, env1d
color 128 \, env1d label TONE-DECAY \, env1r color 128 \, env1r label
TONE-REL \, env1s color 128 \, env1s label TONE-SUS \, env2a color
128 \, env2a label WIDTH-ATTACK \, env2d color 128 \, env2d label WIDTH-DECAY
\, env2r color 128 \, env2r label WIDTH-REL \, env2s color 128 \, env2s
label WIDTH-SUS \, env3a color 128 \, env3a label AMP-ATTACK \, env3d
color 128 \, env3d label AMP-DECAY \, env3r color 128 \, env3r label
AMP-REL \, env3s color 128 \, env3s label AMP-SUS \, mod1a color 128
\, mod1a label FILTER-AMT \, mod1b color 128 \, mod1b label DETUNE
\, mod1c color 128 \, mod1c label SYNC-AMT \, mod1d color 2 \, mod2a
color 2 \, mod2b color 2 \, mod2c color 2 \, mod2d color 2 \, mod3a
color 2 \, mod3b color 2 \, mod3c color 2 \, mod3d color 128 \, mod3d
label VOLME \, osc1a color 128 \, osc1a label OSC1-PW \, osc1b color
128 \, osc1b label OSC2-PW \, osc1c color 128 \, osc1c label OSC1-PWM
osc1d color 128 \, osc1d label OSC2-PWM \, osc2a color 2 \, osc2b color
2 \, osc2c color 2 \, osc2d color 2 \, osc3a color 2 \, osc3b color
2 \, osc3c color 2 \, osc3d color 2 \,;
#X text 481 92 set up the interface to be human readable and show which
controls are actually used;
#X text 483 122 Requires modified [g-hsl];
#X msg 60 299 name BASSIC \, mod3d 0.212598 \, mod3c 0.181102 \, mod3b
0.173228 \, mod3a 0.275591 \, mod2d 0.141732 \, mod2c 0.393701 \, mod2b
0.220472 \, mod2a 0.472441 \, mod1d 0 \, mod1c 0 \, mod1b 0.0314961
\, mod1a 0.0629921 \, osc3d 0.251969 \, osc3c 0.220472 \, osc3b 0.527559
\, osc3a 0.409449 \, osc2d 0.19685 \, osc2c 0.228346 \, osc2b 0.165354
\, osc2a 0.0944882 \, osc1d 0.566929 \, osc1c 0.0708661 \, osc1b 0.92126
\, osc1a 0.0551181 \, env3r 0.00787402 \, env3s 0 \, env3d 0.133858
\, env3a 0.00023622 \, env2r 0.0393701 \, env2s 0.440945 \, env2d 0.661417
\, env2a 0.314961 \, env1r 0.133858 \, env1s 0.724409 \, env1d 0.015748
\, env1a 0.669291 \,;
#X connect 0 0 1 0;
#X connect 1 0 6 0;
#X connect 1 1 7 0;
#X connect 1 2 8 0;
#X connect 1 3 9 0;
#X connect 1 4 10 0;
#X connect 1 5 11 0;
#X connect 1 6 12 0;
#X connect 1 7 13 0;
#X connect 1 8 18 0;
#X connect 3 0 2 0;
#X connect 5 0 3 0;
#X connect 5 1 4 0;
#X connect 6 0 5 0;
#X connect 7 0 5 0;
#X connect 8 0 5 0;
#X connect 9 0 5 0;
#X connect 10 0 5 0;
#X connect 11 0 5 0;
#X connect 12 0 5 0;
#X connect 13 0 5 0;
#X connect 14 0 15 0;
#X connect 15 0 4 0;
#X connect 18 0 5 0;
#X restore 350 230 pd czz_presets;
#X obj 575 54 g_synthcontrol;
#X obj 21 243 s_czz \$0-TAG;
#X obj 276 24 r notes;
#X obj 276 51 unpack 0 0;
#X obj 276 73 - 20;
#X obj 276 95 pack 0 0;
#X connect 2 0 14 0;
#X connect 3 0 28 0;
#X connect 4 0 5 0;
#X connect 5 0 6 0;
#X connect 6 0 9 0;
#X connect 6 1 9 1;
#X connect 7 0 4 0;
#X connect 8 0 7 0;
#X connect 9 0 29 0;
#X connect 11 0 9 0;
#X connect 11 1 9 1;
#X connect 13 0 24 0;
#X connect 14 0 29 1;
#X connect 14 1 13 1;
#X connect 15 0 2 0;
#X connect 17 0 24 0;
#X connect 18 0 29 1;
#X connect 22 0 27 0;
#X connect 23 0 22 0;
#X connect 24 0 16 0;
#X connect 26 0 22 0;
#X connect 27 0 20 0;
#X connect 27 1 21 0;
#X connect 28 0 19 0;
#X connect 29 0 1 0;
#X connect 29 0 1 1;
#X connect 29 1 13 0;
#X connect 30 0 31 0;
#X connect 31 0 32 0;
#X connect 31 1 33 1;
#X connect 32 0 33 0;
#X restore 565 253 pd detailed_help;
#N canvas 377 111 827 710 REFERENCE 0;
#X text 114 174 Argument 0: name for state saving (required);
#X text 114 121 Name: s_czz;
#X text 114 141 Summary: dual square wave synthesizer;
#X text 114 214 Inlet 0: pitch/velocity pairs.;
#X text 114 357 Outlet 0: synth audio signal.;
#X text 114 374 Outlet 1: will report internal settings when receiving
"save" message to second inlet.;
#X text 122 529 Tags: synthesizer;
#X text 114 234 Inlet 1: control inlet to set parameters. See example
help for details. Possible message are (in alphabetical order): env1a
\, env1d \, env1r \, env1s \, env2a \, env2d \, env2r \, env2s \, env3a
\, env3d \, env3r \, env3s \, mod1a \, mod1b \, mod1c \, mod1d \, mod2a
\, mod2b \, mod2c \, mod2d \, mod3a \, mod3b \, mod3c \, mod3d \, osc1a
\, osc1b \, osc1c \, osc1d \, osc2a \, osc2b \, osc2c \, osc2d \, osc3a
\, osc3b \, osc3c \, osc3d. They all accept a float in the range 0-1
;
#X text 112 411 Description: s_czz is a dual square wave synthesizer
with modifiable PWM and sync. It can behave a bit like some Sequential
Circuits PRO-ONE sounds \, good for analogue bass and simple brassy
sounds.;
#X coords 0 -1 1 1 450 450 1 100 100;
#X restore 5 48 pd REFERENCE;
#X text 498 230 Please see inside for help and an example.;
#X obj 519 75 notein;
#X obj 519 96 pack;
#X obj 493 156 soundoutput;
#X text 608 97 control inlet;
#X text 607 143 preset outlet;
#X text 7 14 s_czz - a synthesizer;
#X obj 519 119 s_czz \$0-MYTAG;
#X connect 3 0 4 0;
#X connect 3 1 4 1;
#X connect 4 0 9 0;
#X connect 9 0 5 0;
#X connect 9 0 5 1;
