#N canvas 58 94 1884 976 10;
#X obj 304 186 r notesIn-\$1;
#X obj 304 821 s notesOut-\$1;
#X obj 23 9 r loaddefs-\$1;
#X msg 23 76 loaddefinitions \$1;
#X obj 181 9 r loadbang-\$1;
#X obj 181 76 print loading definiton for \$1;
#X obj 23 41 symbol;
#X obj 25 186 inlet~ inL-\$1;
#X obj 135 186 inlet~ inR-\$1;
#X obj 27 821 outlet~ outL-\$1;
#X obj 136 821 outlet~ outR-\$1;
#X obj 424 185 r auxIn-\$1;
#X obj 423 208 r expIn-\$1;
#X obj 423 233 r fsIn-\$1;
#X obj 694 542 *~ 1;
#N canvas 7 50 612 483 crossfade 0;
#X obj 33 48 inlet~;
#X obj 211 67 inlet;
#X obj 39 327 outlet~;
#X obj 49 194 expr cos($f1 * 3.14159 / 2);
#X obj 244 194 expr sin($f1 * 3.14159 / 2);
#X obj 211 143 clip 0 1;
#N canvas 7 50 594 632 pan_core 0;
#X obj 21 106 inlet~;
#X obj 226 126 inlet;
#X obj 59 259 *~;
#X obj 123 303 outlet~;
#X obj 189 258 *~;
#X obj 205 234 line~;
#X obj 75 234 line~;
#X obj 96 127 inlet;
#X obj 179 104 inlet~;
#X text 223 350 comment;
#X obj 75 195 pack f 5;
#X obj 205 195 pack f 5;
#X text 202 346 Hans-Christoph Steiner \, 2004;
#X text 202 332 Adapted from [pan_core~];
#X connect 0 0 2 0;
#X connect 1 0 11 0;
#X connect 2 0 3 0;
#X connect 4 0 3 0;
#X connect 5 0 4 1;
#X connect 6 0 2 1;
#X connect 7 0 10 0;
#X connect 8 0 4 0;
#X connect 10 0 6 0;
#X connect 11 0 5 0;
#X restore 39 266 pd pan_core;
#X text 165 300 Adapted from [equal_power_pan~] \, Hans-Christoph Steiner
\, 2004;
#X text 320 312 comment;
#X obj 128 46 inlet~;
#X connect 0 0 6 0;
#X connect 1 0 5 0;
#X connect 3 0 6 1;
#X connect 4 0 6 3;
#X connect 5 0 3 0;
#X connect 5 0 4 0;
#X connect 6 0 2 0;
#X connect 9 0 6 2;
#X restore 693 505 pd crossfade;
#X obj 727 332 e_phaser \$1-phase;
#X text 736 53 C&G Phaser Effect Module;
#X obj 762 437 r phaser_dw-\$1;
#X obj 774 136 r phaser_depth-\$1;
#X obj 826 187 r phaser_freq-\$1;
#X obj 774 161 / 100;
#X obj 762 467 / 100;
#X obj 181 35 print loaded:phaser into \$1, f 35;
#X obj 23 112 KontrolModule \$1 F-phaser;
#X connect 0 0 1 0;
#X connect 2 0 6 0;
#X connect 2 0 5 0;
#X connect 3 0 24 0;
#X connect 4 0 23 0;
#X connect 6 0 3 0;
#X connect 7 0 16 0;
#X connect 7 0 15 0;
#X connect 14 0 10 0;
#X connect 14 0 9 0;
#X connect 15 0 14 0;
#X connect 16 0 15 1;
#X connect 18 0 22 0;
#X connect 19 0 21 0;
#X connect 20 0 16 2;
#X connect 21 0 16 1;
#X connect 22 0 15 2;
