#N canvas 140 347 1847 726 10;
#X obj 304 186 r notesIn-\$1;
#X obj 304 491 s notesOut-\$1;
#X obj 25 186 inlet~ inL-\$1;
#X obj 135 186 inlet~ inR-\$1;
#X obj 27 491 outlet~ outL-\$1;
#X obj 136 491 outlet~ outR-\$1;
#X obj 536 187 r auxIn-\$1;
#X obj 535 210 r expIn-\$1;
#X obj 535 235 r fsIn-\$1;
#N canvas 393 290 986 858 synth 1;
#X obj 234 341 outlet~;
#X obj 234 315 hip~ 5;
#X obj 234 293 lop~ 1000;
#X obj 234 182 bp-voice \$1;
#X obj 234 233 *~ 1;
#X obj 314 91 inlet ctrl;
#X obj 234 90 inlet notes;
#X obj 362 180 list;
#X obj 314 112 list split 2;
#X connect 1 0 0 0;
#X connect 2 0 1 0;
#X connect 3 0 4 0;
#X connect 4 0 2 0;
#X connect 5 0 8 0;
#X connect 6 0 3 0;
#X connect 8 0 3 1;
#X restore 142 319 pd synth;
#X obj 410 186 r ctrlIn-\$1;
#X obj 410 491 s ctrlOut-\$1;
#X connect 0 0 9 0;
#X connect 9 0 4 0;
#X connect 9 0 5 0;
#X connect 10 0 9 1;
