#N canvas 52 537 1861 804 10;
#X obj 304 186 r notesIn-\$1;
#X obj 304 491 s notesOut-\$1;
#X obj 25 186 inlet~ inL-\$1;
#X obj 135 186 inlet~ inR-\$1;
#X obj 27 491 outlet~ outL-\$1;
#X obj 136 491 outlet~ outR-\$1;
#X obj 505 188 r auxIn-\$1;
#X obj 504 211 r expIn-\$1;
#X obj 503 238 r fsIn-\$1;
#X text 57 76 Fender Rhodes style voice using rjdj rhodey abstraction
\, which is itself based on the STK Rhodey code;
#N canvas 485 88 1360 849 synth 0;
#X obj 57 246 pack 0 0 0, f 11;
#X obj 54 479 route 1 2 3 4 5 6 7 8, f 91;
#X obj 54 617 *~ 0.3;
#X obj 57 213 poly 8 1, f 11;
#X obj 54 691 outlet~;
#X obj 57 84 inlet;
#X obj 54 525 rhodey-voice \$1;
#X obj 54 661 hip~ 5;
#X obj 217 526 rhodey-voice \$1;
#X obj 133 551 rhodey-voice \$1;
#X obj 289 549 rhodey-voice \$1;
#X obj 377 521 rhodey-voice \$1;
#X obj 452 555 rhodey-voice \$1;
#X obj 538 522 rhodey-voice \$1;
#X obj 600 549 rhodey-voice \$1;
#X obj 328 91 inlet ctrl;
#N canvas 324 629 450 300 route 0;
#X obj 69 97 unpack 0 0 0;
#X obj 68 68 t l l;
#X obj 68 197 list;
#X obj 139 144 t b;
#X obj 139 123 route 1 0;
#X obj 226 163 unpack 0 0 0;
#X obj 226 194 pack 0 0 0;
#X obj 68 19 inlet msg;
#X obj 68 218 outlet global;
#X obj 226 215 outlet voice;
#X obj 187 162 - 1;
#X connect 0 2 4 0;
#X connect 1 0 0 0;
#X connect 1 1 2 1;
#X connect 1 1 5 0;
#X connect 2 0 8 0;
#X connect 3 0 2 0;
#X connect 4 0 3 0;
#X connect 4 1 3 0;
#X connect 4 2 10 0;
#X connect 5 0 6 1;
#X connect 5 1 6 2;
#X connect 6 0 9 0;
#X connect 7 0 1 0;
#X connect 10 0 6 0;
#X restore 58 146 pd route;
#N canvas 324 629 450 300 route 0;
#X obj 69 97 unpack 0 0 0;
#X obj 68 68 t l l;
#X obj 68 197 list;
#X obj 139 144 t b;
#X obj 139 123 route 1 0;
#X obj 234 171 unpack 0 0 0;
#X obj 234 202 pack 0 0 0;
#X obj 68 19 inlet msg;
#X obj 68 218 outlet global;
#X obj 234 223 outlet voice;
#X obj 190 158 - 1;
#X connect 0 2 4 0;
#X connect 1 0 0 0;
#X connect 1 1 2 1;
#X connect 1 1 5 0;
#X connect 2 0 8 0;
#X connect 3 0 2 0;
#X connect 4 0 3 0;
#X connect 4 1 3 0;
#X connect 4 2 10 0;
#X connect 5 0 6 1;
#X connect 5 1 6 2;
#X connect 6 0 9 0;
#X connect 7 0 1 0;
#X connect 10 0 6 0;
#X restore 328 145 pd route;
#X obj 473 355 route 1 2 3 4 5 6 7 8, f 91;
#X connect 0 0 1 0;
#X connect 1 0 6 0;
#X connect 1 1 9 0;
#X connect 1 2 8 0;
#X connect 1 3 10 0;
#X connect 1 4 11 0;
#X connect 1 5 12 0;
#X connect 1 6 13 0;
#X connect 1 7 14 0;
#X connect 2 0 7 0;
#X connect 3 0 0 0;
#X connect 3 1 0 1;
#X connect 3 2 0 2;
#X connect 5 0 16 0;
#X connect 6 0 2 0;
#X connect 7 0 4 0;
#X connect 8 0 2 0;
#X connect 9 0 2 0;
#X connect 10 0 2 0;
#X connect 11 0 2 0;
#X connect 12 0 2 0;
#X connect 13 0 2 0;
#X connect 14 0 2 0;
#X connect 15 0 17 0;
#X connect 16 0 3 0;
#X connect 16 1 1 0;
#X connect 17 0 14 1;
#X connect 17 0 13 1;
#X connect 17 0 12 1;
#X connect 17 0 11 1;
#X connect 17 0 10 1;
#X connect 17 0 9 1;
#X connect 17 0 8 1;
#X connect 17 1 18 0;
#X connect 18 0 6 1;
#X connect 18 1 9 1;
#X connect 18 2 8 1;
#X connect 18 3 10 1;
#X connect 18 4 11 1;
#X connect 18 5 12 1;
#X connect 18 6 13 1;
#X connect 18 7 14 1;
#X restore 62 315 pd synth;
#X text 68 37 C&G Rhodey synth;
#X obj 405 186 r ctrlIn-\$1;
#X obj 405 491 s ctrlOut-\$1;
#X connect 0 0 10 0;
#X connect 10 0 4 0;
#X connect 10 0 5 0;
#X connect 12 0 10 1;
