#N canvas 331 364 2052 956 10;
#X obj 496 109 / 100;
#X obj 229 322 *;
#X msg 375 595 modulate \$1 \$2;
#X obj 375 497 pack 0 0;
#X obj 495 268 < 10;
#X obj 229 420 t b f;
#X obj 216 568 spigot 0;
#X obj 496 297 != 1;
#X obj 375 542 spigot 0;
#X obj 590 108 / 100;
#X obj 229 343 +;
#X obj 229 370 clip 0 1;
#X obj 229 391 change -1;
#X obj 375 616 outlet msg;
#X obj 215 616 outlet ctrl;
#X obj 590 68 r m_offset_\$1-\$2;
#X obj 496 69 r m_amt_\$1-\$2;
#X obj 497 207 r m_bus_\$1-\$2;
#X obj 229 67 r m_\$1-\$2;
#X connect 0 0 1 1;
#X connect 1 0 10 0;
#X connect 2 0 13 0;
#X connect 3 0 6 0;
#X connect 3 0 8 0;
#X connect 4 0 6 1;
#X connect 4 0 7 0;
#X connect 5 0 3 0;
#X connect 5 1 3 1;
#X connect 6 0 14 0;
#X connect 7 0 8 1;
#X connect 8 0 2 0;
#X connect 9 0 10 1;
#X connect 10 0 11 0;
#X connect 11 0 12 0;
#X connect 12 0 5 0;
#X connect 15 0 9 0;
#X connect 16 0 0 0;
#X connect 17 0 3 0;
#X connect 17 0 4 0;
#X connect 18 0 1 0;
