#N canvas 293 301 2002 936 10;
#X obj 304 186 r notesIn-\$1;
#X obj 304 491 s notesOut-\$1;
#X obj 515 13 r loadbang-\$1;
#X obj 25 186 inlet~ inL-\$1;
#X obj 135 186 inlet~ inR-\$1;
#X obj 27 491 outlet~ outL-\$1;
#X obj 136 491 outlet~ outR-\$1;
#X obj 424 185 r auxIn-\$1;
#X obj 423 208 r expIn-\$1;
#X obj 423 233 r fsIn-\$1;
#X obj 516 45 int 0;
#X obj 516 76 s aux-led-\$1;
#N canvas 901 185 1578 955 sequencer 1;
#N canvas 7 50 703 371 24-pulses-to-phasor 0;
#X floatatom 160 65 5 0 0 0 - - -;
#X obj 127 173 timer;
#X obj 160 90 sel 0;
#X obj 160 118 t b b b;
#X msg 260 199 0;
#X floatatom 120 225 5 0 0 0 - - -;
#X obj 120 203 expr 1/($f1 / 1000);
#X obj 166 29 inlet;
#X obj 143 293 phasor~;
#X obj 143 333 outlet~;
#X obj 266 319 outlet;
#X obj 330 321 outlet;
#X text 300 112 input 24 pulses per quarter note count (0-23) \, output
a phasor \, frequency \, rollover.;
#X connect 0 0 2 0;
#X connect 1 0 6 0;
#X connect 2 0 3 0;
#X connect 3 0 1 0;
#X connect 3 1 1 1;
#X connect 3 2 4 0;
#X connect 4 0 8 1;
#X connect 4 0 11 0;
#X connect 5 0 8 0;
#X connect 5 0 10 0;
#X connect 6 0 5 0;
#X connect 7 0 0 0;
#X connect 8 0 9 0;
#X restore 1367 220 pd 24-pulses-to-phasor;
#X obj 1115 202 phasor~;
#X floatatom 1114 74 5 0 0 0 - - -;
#X floatatom 1114 121 5 0 0 0 - - -;
#X obj 1114 96 / 240;
#X obj 163 402 moses 72;
#X obj 258 461 f;
#X obj 218 431 t f b;
#X obj 219 486 pack;
#X obj 169 433 t f b;
#X obj 177 486 pack;
#X obj 246 526 stripnote;
#X obj 188 541 sel 1;
#X obj 107 571 latch-notes2;
#X text 1383 201 cool but not used;
#X text 1015 11 tempo stuff;
#X text 130 321 notes \, split keyboard;
#X text 506 20 Rhythmicon with transpose and panning;
#N canvas 4 50 450 300 once 0;
#X obj 179 28 inlet;
#X msg 138 64 0;
#X obj 38 21 inlet;
#X obj 59 142 i 0;
#X obj 117 142 + 1;
#X obj 46 68 bang;
#X obj 58 184 sel 0;
#X obj 52 254 outlet;
#X connect 0 0 1 0;
#X connect 1 0 3 1;
#X connect 2 0 5 0;
#X connect 3 0 4 0;
#X connect 3 0 6 0;
#X connect 4 0 3 1;
#X connect 5 0 3 0;
#X connect 6 0 7 0;
#X restore 165 657 pd once;
#X obj 113 615 bng 15 250 50 0 empty empty empty 17 7 0 10 -262144
-1 -1;
#X obj 274 614 bng 15 250 50 0 empty empty empty 17 7 0 10 -262144
-1 -1;
#X obj 188 690 bng 15 250 50 0 empty empty empty 17 7 0 10 -262144
-1 -1;
#X msg 1213 144 0;
#X msg 1323 128 0, f 2;
#X obj 1114 140 f;
#X obj 1114 168 spigot;
#X msg 1181 135 1;
#X obj 1291 104 t b b;
#X msg 1291 129 0, f 2;
#X obj 1182 104 t b b b;
#X obj 427 566 phasebang 4;
#X obj 427 590 bng 15 250 50 0 empty empty empty 17 7 0 10 -262144
-1 -1;
#X obj 448 633 bng 15 250 50 0 empty empty empty 17 7 0 10 -262144
-1 -1;
#X obj 457 673 delay 100;
#X obj 1114 12 r master-bpm;
#X obj 1114 49 float 120;
#X obj 1019 26 r loadbang-\$1;
#X obj 1125 493 s aux-label-\$1;
#X obj 1125 431 r loadbang-\$1;
#X msg 1125 462 Aux: Release Latch;
#X obj 1114 236 s~ base-rhythm-phasor-\$1;
#X obj 1182 76 r reset-phase-\$1;
#X obj 1286 77 r stop-phasor-\$1;
#X obj 242 662 s stop-phasor-\$1;
#X obj 188 713 s reset-phase-\$1;
#X obj 107 736 s rhythmicon-notes-\$1;
#X obj 427 541 r~ base-rhythm-phasor-\$1;
#X obj 459 760 s aux-led-\$1;
#X msg 458 704 0;
#X msg 533 667 7;
#X obj 171 520 r auxIn-\$1;
#X obj 185 349 r notesIn-\$1;
#X msg 193 606 0;
#X obj 65 63 rhythmicon-voice 1 60 \$1;
#X obj 249 561 - 72;
#X obj 249 582 s transpose-\$1;
#X obj 64 88 rhythmicon-voice 2 61 \$1;
#X obj 63 116 rhythmicon-voice 3 62 \$1;
#X obj 62 141 rhythmicon-voice 4 63 \$1;
#X obj 64 170 rhythmicon-voice 5 64 \$1;
#X obj 63 195 rhythmicon-voice 6 65 \$1;
#X obj 227 65 rhythmicon-voice 7 66 \$1;
#X obj 226 90 rhythmicon-voice 8 67 \$1;
#X obj 225 118 rhythmicon-voice 9 68 \$1;
#X obj 224 143 rhythmicon-voice 10 69 \$1;
#X obj 226 172 rhythmicon-voice 11 70 \$1;
#X obj 225 197 rhythmicon-voice 12 71 \$1;
#X obj 392 62 rhythmicon-voice 13 72 \$1;
#X obj 391 87 rhythmicon-voice 14 73 \$1;
#X obj 390 115 rhythmicon-voice 15 74 \$1;
#X obj 389 140 rhythmicon-voice 16 75 \$1;
#X obj 391 169 rhythmicon-voice 17 76 \$1;
#X obj 390 194 rhythmicon-voice 18 77 \$1;
#X obj 575 61 rhythmicon-voice 19 78 \$1;
#X obj 574 86 rhythmicon-voice 20 79 \$1;
#X obj 573 114 rhythmicon-voice 21 80 \$1;
#X obj 572 139 rhythmicon-voice 22 81 \$1;
#X obj 574 168 rhythmicon-voice 23 82 \$1;
#X obj 573 193 rhythmicon-voice 24 83 \$1;
#X obj 185 371 unpack 0 0 0;
#X connect 1 0 40 0;
#X connect 2 0 4 0;
#X connect 3 0 24 0;
#X connect 4 0 3 0;
#X connect 5 0 9 0;
#X connect 5 1 7 0;
#X connect 6 0 8 1;
#X connect 6 0 10 1;
#X connect 7 0 8 0;
#X connect 7 1 6 0;
#X connect 8 0 11 0;
#X connect 9 0 10 0;
#X connect 9 1 6 0;
#X connect 10 0 13 0;
#X connect 11 0 54 0;
#X connect 12 0 13 1;
#X connect 13 0 45 0;
#X connect 13 1 19 0;
#X connect 13 2 52 0;
#X connect 13 2 20 0;
#X connect 18 0 21 0;
#X connect 19 0 18 0;
#X connect 20 0 18 1;
#X connect 20 0 43 0;
#X connect 21 0 44 0;
#X connect 22 0 1 1;
#X connect 23 0 25 1;
#X connect 24 0 25 0;
#X connect 25 0 1 0;
#X connect 26 0 25 1;
#X connect 27 0 28 0;
#X connect 27 1 23 0;
#X connect 28 0 1 0;
#X connect 29 0 24 0;
#X connect 29 1 26 0;
#X connect 29 2 22 0;
#X connect 30 0 31 0;
#X connect 31 0 32 0;
#X connect 32 0 49 0;
#X connect 32 0 33 0;
#X connect 33 0 48 0;
#X connect 34 0 35 0;
#X connect 35 0 2 0;
#X connect 36 0 35 0;
#X connect 38 0 39 0;
#X connect 39 0 37 0;
#X connect 41 0 29 0;
#X connect 42 0 27 0;
#X connect 46 0 30 0;
#X connect 48 0 47 0;
#X connect 49 0 47 0;
#X connect 50 0 12 0;
#X connect 51 0 79 0;
#X connect 52 0 47 0;
#X connect 54 0 55 0;
#X connect 79 0 5 0;
#X connect 79 1 6 1;
#X restore 310 318 pd sequencer;
#X connect 2 0 10 0;
#X connect 10 0 11 0;
