#N canvas 919 328 1386 760 10;
#X obj 175 193 bng 15 250 50 0 empty empty empty 17 7 0 10 -262144
-1 -1;
#X obj 176 154 phasebang \$1;
#X obj 337 179 sel \$2;
#X obj 337 140 unpack;
#X obj 337 209 f;
#X obj 336 257 sel 0;
#X obj 158 502 makenote 100 50;
#X obj 175 239 f \$2;
#X obj 158 403 spigot 0;
#X msg 334 333 0;
#X msg 366 333 1;
#X obj 337 114 r rhythmicon-notes-\$3;
#X obj 163 112 r~ base-rhythm-phasor-\$3;
#X obj 173 336 +;
#X obj 177 364 +;
#X obj 206 342 r transpose-\$3;
#X obj 202 305 r r_trans-\$3;
#X obj 467 384 r r_velo-\$3;
#X obj 471 422 r r_dur-\$3;
#X obj 160 630 s notesOut-\$3;
#X obj 159 595 pack 0 0 0;
#X connect 0 0 7 0;
#X connect 1 0 0 0;
#X connect 2 0 4 0;
#X connect 3 0 2 0;
#X connect 3 1 4 1;
#X connect 4 0 5 0;
#X connect 5 0 9 0;
#X connect 5 1 10 0;
#X connect 6 0 20 0;
#X connect 6 1 20 1;
#X connect 7 0 13 0;
#X connect 8 0 6 0;
#X connect 9 0 8 1;
#X connect 10 0 8 1;
#X connect 11 0 3 0;
#X connect 12 0 1 0;
#X connect 13 0 14 0;
#X connect 14 0 8 0;
#X connect 15 0 14 1;
#X connect 16 0 13 1;
#X connect 17 0 6 1;
#X connect 18 0 6 2;
#X connect 20 0 19 0;
