#N canvas 272 368 2052 956 10;
#X obj 304 186 r notesIn-\$1;
#X obj 304 601 s notesOut-\$1;
#X obj 25 186 inlet~ inL-\$1;
#X obj 135 186 inlet~ inR-\$1;
#X obj 27 601 outlet~ outL-\$1;
#X obj 136 601 outlet~ outR-\$1;
#X obj 424 185 r auxIn-\$1;
#X obj 423 208 r expIn-\$1;
#X obj 423 233 r fsIn-\$1;
#X obj 504 185 r ctrlIn-\$1;
#X obj 504 600 s ctrlOut-\$1;
#X obj 670 600 s rackMsgs;
#X obj 488 447 macro_p p1 \$1;
#X obj 485 291 r a_cvIn1;
#X obj 565 291 r a_cvIn2;
#X obj 640 291 r a_cvIn3;
#X obj 710 291 r a_cvIn4;
#X obj 782 291 r a_cvIn5;
#X obj 849 291 r a_cvIn6;
#X obj 919 291 r a_cvIn7;
#X obj 991 291 r a_cvIn8;
#X obj 583 447 macro_p p2 \$1;
#X obj 674 447 macro_p p3 \$1;
#X obj 768 447 macro_p p4 \$1;
#X obj 860 447 macro_p p5 \$1;
#X obj 958 447 macro_p p6 \$1;
#X obj 1064 447 macro_p p7 \$1;
#X obj 1158 447 macro_p p8 \$1;
#X connect 12 0 10 0;
#X connect 12 1 11 0;
#X connect 13 0 12 0;
#X connect 14 0 21 0;
#X connect 15 0 22 0;
#X connect 16 0 23 0;
#X connect 17 0 24 0;
#X connect 18 0 25 0;
#X connect 19 0 26 0;
#X connect 20 0 27 0;
#X connect 21 0 10 0;
#X connect 21 1 11 0;
#X connect 22 0 10 0;
#X connect 22 1 11 0;
#X connect 23 0 10 0;
#X connect 23 1 11 0;
#X connect 24 0 10 0;
#X connect 24 1 11 0;
#X connect 25 0 10 0;
#X connect 25 1 11 0;
#X connect 26 0 10 0;
#X connect 26 1 11 0;
#X connect 27 0 10 0;
#X connect 27 1 11 0;
