#N canvas 207 190 1572 758 10;
#X obj 209 629 throw~ outL;
#X obj 389 627 throw~ outR;
#X obj 291 432 *~ 0.3;
#X obj 233 335 voice;
#X obj 276 249 pack 0 0 0;
#X obj 276 273 route 1 2 3 4;
#X obj 284 169 unpack 0 0;
#X obj 274 131 r notes;
#X obj 428 133 r notes_seq;
#X obj 334 132 r zero_notes;
#X obj 277 193 - 24;
#X obj 526 133 sequencer2;
#X obj 302 515 rngs_reverb~;
#X msg 499 456 diffusion \$1;
#X msg 671 457 time \$1;
#X msg 586 457 lp \$1;
#X obj 442 386 r r_amt;
#X obj 503 386 r r_diff;
#X obj 566 386 r r_cutoff;
#X obj 671 386 r r_time;
#X obj 437 424 / 100;
#X obj 566 408 / 100;
#X obj 503 408 / 100;
#X obj 671 408 / 100;
#X obj 276 225 poly 4 1;
#X obj 135 52 oscparse;
#X obj 135 73 list trim;
#X obj 134 28 netreceive -b -u 9002;
#X obj 135 120 route t3d;
#N canvas 1126 819 1236 410 handleTouch 0;
#X obj 326 17 inlet tch;
#X obj 86 309 outlet;
#X obj 139 309 outlet;
#X obj 192 309 outlet;
#X obj 239 309 outlet;
#X obj 289 309 outlet;
#X obj 337 309 outlet;
#X obj 396 310 outlet;
#X obj 449 310 outlet;
#X obj 502 310 outlet;
#X obj 549 310 outlet;
#X obj 599 310 outlet;
#X obj 647 310 outlet;
#X obj 701 311 outlet;
#X obj 748 311 outlet;
#X obj 798 311 outlet;
#X obj 327 112 route control tch0 tch1 tch2 tch3 tch4 tch5 tch6 tch7
tch8 tch9 tch10 tch11 tch12 tch13 tch14 tch15;
#X obj 847 313 outlet;
#X obj 895 311 outlet, f 15;
#X connect 0 0 16 0;
#X connect 16 0 1 0;
#X connect 16 1 2 0;
#X connect 16 2 3 0;
#X connect 16 3 4 0;
#X connect 16 4 5 0;
#X connect 16 5 6 0;
#X connect 16 6 7 0;
#X connect 16 7 8 0;
#X connect 16 8 9 0;
#X connect 16 9 10 0;
#X connect 16 10 11 0;
#X connect 16 11 12 0;
#X connect 16 12 13 0;
#X connect 16 13 14 0;
#X connect 16 14 15 0;
#X connect 16 15 17 0;
#X connect 16 16 18 0;
#X restore 90 178 pd handleTouch;
#X obj 287 335 voice;
#X obj 339 335 voice;
#X obj 391 335 voice;
#N canvas 680 234 1529 830 rack 0;
#X obj 219 453 r seq-display;
#X obj 213 538 list;
#X obj 219 478 t b a;
#X obj 214 507 f;
#X obj 213 566 route 1 2 3 4;
#X obj 234 603 s screenLine5;
#X text 123 400 put the sequencer messages;
#X text 124 415 on all pages except menu;
#X obj 292 186 r knob1Raw;
#X msg 292 222 knob1Raw \$1;
#X obj 298 60 hsl 128 15 0 1024 0 0 knob1Raw empty knob1 -2 -8 0 10
-262144 -1 -1 0 1;
#X obj 296 92 hsl 128 15 0 1024 0 0 knob3Raw empty knob3 -2 -8 0 10
-262144 -1 -1 0 1;
#X obj 451 59 hsl 128 15 0 1024 0 0 knob2Raw empty knob2 -2 -8 0 10
-262144 -1 -1 0 1;
#X obj 451 93 hsl 128 15 0 1024 0 0 knob4Raw empty knob4 -2 -8 0 10
-262144 -1 -1 0 1;
#X obj 374 185 r knob2Raw;
#X obj 458 184 r knob3Raw;
#X obj 547 184 r knob4Raw;
#X msg 547 220 knob4Raw \$1;
#X msg 458 220 knob3Raw \$1;
#X msg 374 221 knob2Raw \$1;
#X obj 635 184 r enc;
#X msg 635 220 enc \$1;
#X msg 724 220 encbut \$1;
#X obj 724 184 r encbut;
#X obj 458 458 r seq-display;
#X obj 473 608 s screenLine5;
#X obj 833 183 ctlin;
#X obj 833 221 pack f f;
#X msg 833 244 midiCC \$2 \$1;
#X obj 327 305 KontrolRack 8000 9000;
#X connect 0 0 2 0;
#X connect 1 0 4 0;
#X connect 2 0 3 0;
#X connect 2 1 1 1;
#X connect 3 0 1 0;
#X connect 4 0 5 0;
#X connect 4 1 5 0;
#X connect 4 2 5 0;
#X connect 4 3 5 0;
#X connect 8 0 9 0;
#X connect 9 0 29 0;
#X connect 14 0 19 0;
#X connect 15 0 18 0;
#X connect 16 0 17 0;
#X connect 17 0 29 0;
#X connect 18 0 29 0;
#X connect 19 0 29 0;
#X connect 20 0 21 0;
#X connect 21 0 29 0;
#X connect 22 0 29 0;
#X connect 23 0 22 0;
#X connect 24 0 25 0;
#X connect 26 0 27 0;
#X connect 26 1 27 1;
#X connect 27 0 28 0;
#X connect 28 0 29 0;
#X restore 22 11 pd rack;
#X obj 678 623 KontrolModule braids brds;
#X obj 781 519 loadbang;
#X obj 781 550 t b b;
#X msg 636 585 loadpreset Default;
#X msg 781 581 loadsettings braids;
#X connect 2 0 12 0;
#X connect 2 0 12 1;
#X connect 3 0 2 0;
#X connect 4 0 5 0;
#X connect 5 0 3 1;
#X connect 5 1 30 1;
#X connect 5 2 31 1;
#X connect 5 3 32 1;
#X connect 6 0 10 0;
#X connect 6 1 24 1;
#X connect 7 0 6 0;
#X connect 8 0 6 0;
#X connect 9 0 6 0;
#X connect 10 0 24 0;
#X connect 12 0 0 0;
#X connect 12 1 1 0;
#X connect 13 0 12 0;
#X connect 14 0 12 0;
#X connect 15 0 12 0;
#X connect 16 0 20 0;
#X connect 17 0 22 0;
#X connect 18 0 21 0;
#X connect 19 0 23 0;
#X connect 20 0 12 2;
#X connect 21 0 15 0;
#X connect 22 0 13 0;
#X connect 23 0 14 0;
#X connect 24 0 4 0;
#X connect 24 1 4 1;
#X connect 24 2 4 2;
#X connect 25 0 26 0;
#X connect 26 0 28 0;
#X connect 27 0 25 0;
#X connect 28 0 29 0;
#X connect 29 1 3 0;
#X connect 29 2 30 0;
#X connect 29 3 31 0;
#X connect 29 4 32 0;
#X connect 30 0 2 0;
#X connect 31 0 2 0;
#X connect 32 0 2 0;
#X connect 35 0 36 0;
#X connect 36 0 37 0;
#X connect 36 1 38 0;
#X connect 37 0 34 0;
#X connect 38 0 34 0;
