#N canvas 444 255 1484 707 10;
#X obj 304 186 r notesIn-\$1;
#X obj 838 562 s notesOut-\$1;
#X obj 410 7 r loadbang-\$1;
#X obj 25 186 inlet~ inL-\$1;
#X obj 135 186 inlet~ inR-\$1;
#X obj 27 491 outlet~ outL-\$1;
#X obj 136 491 outlet~ outR-\$1;
#X obj 487 182 r auxIn-\$1;
#X obj 651 174 r expIn-\$1;
#X obj 651 199 r fsIn-\$1;
#X obj 651 222 r ctrlIn-\$1;
#X obj 1115 552 s ctrlOut-\$1;
#X obj 927 188 oscparse;
#X obj 927 209 list trim;
#X obj 927 256 route t3d;
#N canvas 1115 859 1236 410 handleTouch 0;
#X obj 326 17 inlet tch;
#X obj 86 309 outlet;
#X obj 139 309 outlet;
#X obj 192 309 outlet;
#X obj 239 309 outlet;
#X obj 289 309 outlet;
#X obj 337 309 outlet;
#X obj 396 310 outlet;
#X obj 449 310 outlet;
#X obj 502 310 outlet;
#X obj 549 310 outlet;
#X obj 599 310 outlet;
#X obj 647 310 outlet;
#X obj 701 311 outlet;
#X obj 748 311 outlet;
#X obj 798 311 outlet;
#X obj 847 313 outlet;
#X obj 895 311 outlet, f 15;
#X obj 327 112 route control tch1 tch2 tch3 tch4 tch5 tch6 tch7 tch8
tch9 tch10 tch11 tch12 tch13 tch14 tch15 tch16;
#X connect 0 0 18 0;
#X connect 18 0 1 0;
#X connect 18 1 2 0;
#X connect 18 2 3 0;
#X connect 18 3 4 0;
#X connect 18 4 5 0;
#X connect 18 5 6 0;
#X connect 18 6 7 0;
#X connect 18 7 8 0;
#X connect 18 8 9 0;
#X connect 18 9 10 0;
#X connect 18 10 11 0;
#X connect 18 11 12 0;
#X connect 18 12 13 0;
#X connect 18 13 14 0;
#X connect 18 14 15 0;
#X connect 18 15 16 0;
#X connect 18 16 17 0;
#X restore 882 314 pd handleTouch;
#X f 77;
#X obj 958 71 r udpport-\$1;
#X msg 940 94 listen \$1;
#X obj 926 164 netreceive -b -u 3123;
#X obj 990 116 print;
#X obj 913 389 t3dconv 0;
#X obj 1110 391 t3dconv 3;
#X obj 1047 391 t3dconv 2;
#X obj 978 390 t3dconv 1;
#X connect 12 0 13 0;
#X connect 13 0 14 0;
#X connect 14 0 15 0;
#X connect 15 1 20 0;
#X connect 15 2 23 0;
#X connect 15 3 22 0;
#X connect 15 4 21 0;
#X connect 16 0 17 0;
#X connect 17 0 19 0;
#X connect 17 0 18 0;
#X connect 18 0 12 0;
#X connect 20 0 1 0;
#X connect 20 1 11 0;
#X connect 21 0 1 0;
#X connect 21 1 11 0;
#X connect 22 0 1 0;
#X connect 22 1 11 0;
#X connect 23 0 1 0;
#X connect 23 1 11 0;
