#N canvas 795 270 1052 667 10;
#X obj 366 30 inlet touch;
#X obj 273 624 outlet note;
#X obj 618 570 outlet ctrl;
#X obj 366 58 unpack 0 0 0 0;
#X obj 329 547 int \$1;
#X obj 730 426 pack 0 0 0;
#X obj 730 301 t b b;
#X obj 479 505 pack 0 0 0;
#X obj 473 388 t b b;
#X obj 822 426 pack 0 0 0;
#X obj 822 301 t b b;
#X obj 183 312 &&;
#X obj 255 254 float 0;
#X obj 206 393 sel 1;
#X obj 206 365 int;
#X obj 533 367 -;
#X obj 482 292 t f b;
#X obj 206 436 t b b;
#X obj 536 409 / 48;
#X obj 536 430 + 1;
#X obj 536 451 / 2;
#X obj 562 363 r pb_range-\$2;
#X text 62 189 note on handling;
#X text 34 205 only sent note on initially;
#X text 504 346 pb is relative to note on;
#X text 722 267 y - timbre;
#X text 816 267 z - pressure;
#X text 493 268 x - pb!;
#X obj 246 311 &&;
#X obj 217 345 ||;
#X obj 730 325 int 2;
#X obj 773 325 int \$1;
#X obj 822 325 int 3;
#X obj 865 325 int \$1;
#X obj 467 426 int 0;
#X obj 491 457 int \$1;
#X obj 182 487 float 0;
#X obj 521 324 float;
#X obj 293 372 * 127;
#X obj 293 393 sel 0;
#X obj 275 444 int 0;
#X obj 328 475 sel 0;
#X obj 328 496 int 100;
#X obj 328 454 * 1;
#X obj 330 336 r vel_scale-\$2;
#X obj 140 540 float;
#X text 19 512 store note on \, for off;
#X obj 272 576 pack 0 0 0;
#X obj 227 192 t f f;
#X obj 132 287 > 0.01;
#X obj 281 287 > 0.01;
#X obj 229 287 < 0.01;
#X obj 183 287 < 0.01;
#X obj 242 144 t f f b;
#X obj 366 110 t b b b b f;
#X connect 0 0 3 0;
#X connect 3 0 54 0;
#X connect 3 1 5 1;
#X connect 3 2 9 1;
#X connect 3 2 38 0;
#X connect 3 2 53 0;
#X connect 3 3 16 0;
#X connect 3 3 36 1;
#X connect 4 0 47 2;
#X connect 5 0 2 0;
#X connect 6 0 30 0;
#X connect 6 1 31 0;
#X connect 7 0 2 0;
#X connect 8 0 34 0;
#X connect 8 1 35 0;
#X connect 9 0 2 0;
#X connect 10 0 32 0;
#X connect 10 1 33 0;
#X connect 11 0 29 0;
#X connect 12 0 50 0;
#X connect 12 0 52 0;
#X connect 13 0 17 0;
#X connect 14 0 13 0;
#X connect 15 0 18 0;
#X connect 16 0 15 0;
#X connect 16 1 37 0;
#X connect 17 0 36 0;
#X connect 17 1 4 0;
#X connect 18 0 19 0;
#X connect 19 0 20 0;
#X connect 20 0 7 1;
#X connect 21 0 18 1;
#X connect 28 0 29 1;
#X connect 29 0 14 1;
#X connect 30 0 5 0;
#X connect 31 0 5 2;
#X connect 32 0 9 0;
#X connect 33 0 9 2;
#X connect 34 0 7 0;
#X connect 35 0 7 2;
#X connect 36 0 37 1;
#X connect 36 0 45 1;
#X connect 36 0 47 0;
#X connect 37 0 15 1;
#X connect 38 0 39 0;
#X connect 39 0 40 0;
#X connect 39 0 45 0;
#X connect 39 1 43 0;
#X connect 40 0 47 1;
#X connect 41 0 42 0;
#X connect 41 1 47 1;
#X connect 42 0 47 1;
#X connect 43 0 41 0;
#X connect 44 0 43 1;
#X connect 45 0 36 0;
#X connect 47 0 1 0;
#X connect 48 0 49 0;
#X connect 48 1 51 0;
#X connect 49 0 11 0;
#X connect 50 0 28 1;
#X connect 51 0 28 0;
#X connect 52 0 11 1;
#X connect 53 0 12 1;
#X connect 53 1 48 0;
#X connect 53 2 12 0;
#X connect 54 0 14 0;
#X connect 54 1 6 0;
#X connect 54 2 8 0;
#X connect 54 3 10 0;
