#N canvas 1011 218 1052 667 10;
#X obj 366 30 inlet touch;
#X obj 275 563 outlet note;
#X obj 618 570 outlet ctrl;
#X obj 366 58 unpack 0 0 0 0;
#X obj 275 516 pack 0 0 0;
#X obj 274 492 int \$1;
#X obj 366 110 t b b b b f;
#X obj 343 443 * 127;
#X obj 730 363 pack 0 0 0;
#X obj 730 325 int \$1;
#X obj 730 301 t b b;
#X obj 479 505 pack 0 0 0;
#X obj 473 412 int \$1;
#X obj 473 388 t b b;
#X obj 773 325 int 2;
#X obj 499 431 int 0;
#X obj 822 363 pack 0 0 0;
#X obj 822 325 int \$1;
#X obj 822 301 t b b;
#X obj 865 325 int 3;
#X obj 175 280 > 0;
#X obj 207 305 &&;
#X obj 269 250 float 0;
#X obj 207 279 == 0, f 5;
#X obj 205 393 sel 1;
#X obj 242 144 t b f f b f;
#X obj 206 365 int;
#X obj 533 367 -;
#X obj 482 292 t f b;
#X obj 521 324 int;
#X obj 303 443 int 0;
#X obj 205 414 t b b;
#X obj 536 409 / 48;
#X obj 536 430 + 1;
#X obj 536 451 / 2;
#X obj 562 363 r pb_range-\$2;
#X text 62 189 note on handling;
#X text 61 220 only sent note on initially;
#X text 470 477 pb is relative to note on;
#X text 722 267 y - timbre;
#X text 816 270 z - pressure;
#X text 493 268 x - pb!;
#X obj 335 276 > 0;
#X obj 270 304 &&;
#X obj 253 280 == 0;
#X obj 241 338 ||;
#X connect 0 0 3 0;
#X connect 3 0 6 0;
#X connect 3 1 8 2;
#X connect 3 2 16 2;
#X connect 3 2 7 0;
#X connect 3 2 25 0;
#X connect 3 3 28 0;
#X connect 3 3 30 1;
#X connect 4 0 1 0;
#X connect 5 0 4 0;
#X connect 6 0 26 0;
#X connect 6 1 10 0;
#X connect 6 2 13 0;
#X connect 6 3 18 0;
#X connect 7 0 4 2;
#X connect 8 0 2 0;
#X connect 9 0 8 0;
#X connect 10 0 9 0;
#X connect 10 1 14 0;
#X connect 11 0 2 0;
#X connect 12 0 11 0;
#X connect 13 0 12 0;
#X connect 13 1 15 0;
#X connect 14 0 8 1;
#X connect 15 0 11 1;
#X connect 16 0 2 0;
#X connect 17 0 16 0;
#X connect 17 0 2 0;
#X connect 18 0 17 0;
#X connect 18 0 2 0;
#X connect 18 1 19 0;
#X connect 19 0 16 1;
#X connect 19 0 2 0;
#X connect 20 0 21 0;
#X connect 21 0 45 0;
#X connect 22 0 23 0;
#X connect 22 0 42 0;
#X connect 23 0 21 1;
#X connect 24 0 31 0;
#X connect 25 1 22 1;
#X connect 25 2 20 0;
#X connect 25 2 44 0;
#X connect 25 3 22 0;
#X connect 26 0 24 0;
#X connect 27 0 32 0;
#X connect 28 0 27 0;
#X connect 28 1 29 0;
#X connect 29 0 27 1;
#X connect 30 0 4 1;
#X connect 30 0 29 1;
#X connect 31 0 5 0;
#X connect 31 1 30 0;
#X connect 32 0 33 0;
#X connect 33 0 34 0;
#X connect 34 0 11 2;
#X connect 35 0 32 1;
#X connect 42 0 43 1;
#X connect 43 0 45 1;
#X connect 44 0 43 0;
#X connect 45 0 26 1;
