#N canvas 521 363 984 832 10;
#X obj 179 583 hip~ 5;
#X obj 180 509 line~;
#X msg 266 415 0;
#X obj 191 373 t b b;
#X obj 152 455 pack 44100 1000;
#X msg 165 407 44100;
#X obj 180 640 *~ 0.25;
#X obj 216 408 * 1;
#X obj 220 236 * 1;
#X obj 323 583 line~;
#X obj 220 262 t f b;
#X msg 361 500 0 2;
#X obj 191 300 t b f;
#X obj 190 323 delay 2;
#X obj 180 610 *~;
#X obj 210 691 expr 1000/$f1;
#X obj 210 720 sig~;
#X obj 209 785 lop~ 100;
#X obj 191 176 bang;
#X msg 191 198 1000;
#X obj 180 544 tabread4~ drumc;
#X obj 179 39 stripnote, f 25;
#X obj 176 813 delay_onesec \$0-delay;
#X obj 179 4 inlet;
#X obj 175 843 outlet~;
#X obj 209 756 *~;
#X obj 431 17 inlet;
#X obj 213 116 r tunedel-\$1-tone-local;
#X obj 251 728 r~ tunedel-\$1-dtime-local;
#X obj 278 766 r~ tunedel-\$1-fb-local;
#X obj 351 243 / 127;
#X obj 351 265 t f f;
#X obj 351 293 *;
#X obj 323 479 f;
#X msg 322 503 \$1 2;
#X obj 194 346 b;
#X obj 179 123 +;
#X obj 179 146 mtof;
#X obj 40 6 r td_trans-\$1;
#X obj 518 28 inlet ctrl;
#X obj 179 80 + 0;
#X obj 525 74 route 0 2;
#X obj 483 119 - 0.5;
#X obj 477 173 t b f;
#X obj 238 200 + 0;
#X obj 238 158 t b b f;
#X obj 685 75 r pb_range-\$1;
#X obj 685 96 * 2;
#X obj 483 140 * 2;
#X obj 720 187 r y_depth-\$1;
#X obj 720 208 / 100;
#X obj 415 119 * 0.25;
#X connect 0 0 14 0;
#X connect 1 0 20 0;
#X connect 2 0 1 0;
#X connect 3 0 5 0;
#X connect 3 1 2 0;
#X connect 4 0 1 0;
#X connect 5 0 4 0;
#X connect 6 0 22 0;
#X connect 7 0 4 1;
#X connect 8 0 10 0;
#X connect 9 0 14 1;
#X connect 10 0 12 0;
#X connect 10 1 11 0;
#X connect 11 0 9 0;
#X connect 12 0 13 0;
#X connect 12 1 7 0;
#X connect 13 0 35 0;
#X connect 14 0 6 0;
#X connect 15 0 16 0;
#X connect 16 0 25 0;
#X connect 17 0 22 1;
#X connect 18 0 19 0;
#X connect 19 0 8 0;
#X connect 20 0 0 0;
#X connect 21 0 40 0;
#X connect 21 1 30 0;
#X connect 22 0 24 0;
#X connect 23 0 21 0;
#X connect 25 0 17 0;
#X connect 26 0 20 0;
#X connect 27 0 44 0;
#X connect 28 0 25 1;
#X connect 29 0 22 2;
#X connect 30 0 31 0;
#X connect 31 0 32 0;
#X connect 31 1 32 1;
#X connect 32 0 33 1;
#X connect 33 0 34 0;
#X connect 34 0 9 0;
#X connect 35 0 33 0;
#X connect 35 0 3 0;
#X connect 36 0 37 0;
#X connect 37 0 18 0;
#X connect 37 0 15 0;
#X connect 38 0 36 1;
#X connect 39 0 41 0;
#X connect 40 0 36 0;
#X connect 41 0 42 0;
#X connect 41 1 51 0;
#X connect 42 0 48 0;
#X connect 43 0 40 0;
#X connect 43 1 40 1;
#X connect 44 0 8 1;
#X connect 45 0 8 0;
#X connect 45 1 44 0;
#X connect 45 2 44 1;
#X connect 46 0 47 0;
#X connect 47 0 48 1;
#X connect 48 0 43 0;
#X connect 49 0 50 0;
#X connect 50 0 51 1;
#X connect 51 0 45 0;
