#N canvas 632 166 1043 795 10;
#X declare -path rj;
#X text 552 538 Inlet 0: midi note/velocity pairs;
#X text 137 616 It's a clone of the STK Rhodey.;
#X obj 424 485 s \$0-in1;
#X msg 422 449 tone \$1;
#X obj 692 237 s \$0-in1;
#X obj 804 236 s \$0-in1;
#X obj 788 494 s \$0-in1;
#X msg 788 473 mod \$1;
#X msg 692 213 vib-freq \$1;
#X msg 804 213 vib-depth \$1;
#X text 614 579 tone: float from 0...1 \, default is 0.5);
#X text 614 620 vib-freq: vibrato frequency (try 11);
#X text 615 640 vib-depth: vibrato depth (try 1);
#X text 552 559 Inlet 1 accepts various methods:;
#X obj 903 243 s \$0-in1;
#X msg 903 220 adsr24 \$1;
#X text 615 685 adsr24: depth of the modulating operator's (2 and 4)
envelopes (0-127 \, default 127) (this is an exotic parameter...);
#X text 615 664 mod: modulation index for first operator pair (default
1);
#X obj 593 485 s \$0-in1;
#X msg 593 462 decay \$1;
#X text 614 597 decay: decay of note in msec (default: 1500);
#X obj 57 73 inlet;
#X obj 55 470 outlet~;
#X obj 186 393 r \$0-in1;
#X obj 419 397 * 0.9;
#X msg 673 171 11;
#X msg 803 170 1;
#X obj 415 425 hsl 128 15 0 1 0 0 empty empty tone_(0...1) 20 7 1 10
-262144 -1 -1 6251 1;
#X msg 905 191 120;
#X obj 569 77 declare -path rj;
#X obj 56 420 s_rhodey mypiano \$1;
#X obj 419 327 r r_tone-\$1;
#X obj 420 369 / 100;
#X obj 596 384 r r_decay-\$1;
#X obj 775 122 r loadbang-\$1;
#X obj 788 391 r r_mod-\$1;
#X obj 788 412 / 100;
#X obj 139 98 inlet ctrl;
#X obj 788 433 * 4;
#X connect 3 0 2 0;
#X connect 7 0 6 0;
#X connect 8 0 4 0;
#X connect 9 0 5 0;
#X connect 15 0 14 0;
#X connect 19 0 18 0;
#X connect 21 0 30 0;
#X connect 23 0 30 2;
#X connect 24 0 27 0;
#X connect 25 0 8 0;
#X connect 26 0 9 0;
#X connect 27 0 3 0;
#X connect 28 0 15 0;
#X connect 30 0 22 0;
#X connect 31 0 32 0;
#X connect 32 0 24 0;
#X connect 33 0 19 0;
#X connect 34 0 26 0;
#X connect 34 0 25 0;
#X connect 34 0 28 0;
#X connect 35 0 36 0;
#X connect 36 0 38 0;
#X connect 37 0 30 1;
#X connect 38 0 7 0;
