#N canvas 814 260 1455 824 10;
#N canvas 424 366 478 366 pmosc 0;
#X obj 119 199 cos~;
#X obj 119 167 +~;
#X obj 120 273 outlet~;
#X obj 119 115 phasor~;
#X obj 119 86 inlet~;
#X obj 136 146 inlet~;
#X obj 160 199 inlet~;
#X obj 120 236 *~;
#X text 38 21 phase-modulation oscillator;
#X text 38 57 signal inlets: 1: freq \, 2: phase \, 3: amp;
#X connect 0 0 7 0;
#X connect 1 0 0 0;
#X connect 3 0 1 0;
#X connect 4 0 3 0;
#X connect 5 0 1 1;
#X connect 6 0 7 1;
#X connect 7 0 2 0;
#X restore 390 372 pd pmosc;
#N canvas 425 363 478 366 pmosc 0;
#X obj 119 199 cos~;
#X obj 119 167 +~;
#X obj 120 273 outlet~;
#X obj 119 115 phasor~;
#X obj 119 86 inlet~;
#X obj 136 146 inlet~;
#X obj 160 199 inlet~;
#X obj 120 236 *~;
#X text 38 21 phase-modulation oscillator;
#X text 38 57 signal inlets: 1: freq \, 2: phase \, 3: amp;
#X connect 0 0 7 0;
#X connect 1 0 0 0;
#X connect 3 0 1 0;
#X connect 4 0 3 0;
#X connect 5 0 1 1;
#X connect 6 0 7 1;
#X connect 7 0 2 0;
#X restore 365 416 pd pmosc;
#N canvas 424 366 478 366 pmosc 0;
#X obj 119 199 cos~;
#X obj 119 167 +~;
#X obj 120 273 outlet~;
#X obj 119 115 phasor~;
#X obj 119 86 inlet~;
#X obj 136 146 inlet~;
#X obj 160 199 inlet~;
#X obj 120 236 *~;
#X text 38 21 phase-modulation oscillator;
#X text 38 57 signal inlets: 1: freq \, 2: phase \, 3: amp;
#X connect 0 0 7 0;
#X connect 1 0 0 0;
#X connect 3 0 1 0;
#X connect 4 0 3 0;
#X connect 5 0 1 1;
#X connect 6 0 7 1;
#X connect 7 0 2 0;
#X restore 256 374 pd pmosc;
#N canvas 425 363 478 366 pmosc 0;
#X obj 119 199 cos~;
#X obj 119 167 +~;
#X obj 120 273 outlet~;
#X obj 119 115 phasor~;
#X obj 119 86 inlet~;
#X obj 136 146 inlet~;
#X obj 160 199 inlet~;
#X obj 120 236 *~;
#X text 38 21 phase-modulation oscillator;
#X text 38 57 signal inlets: 1: freq \, 2: phase \, 3: amp;
#X connect 0 0 7 0;
#X connect 1 0 0 0;
#X connect 3 0 1 0;
#X connect 4 0 3 0;
#X connect 5 0 1 1;
#X connect 6 0 7 1;
#X connect 7 0 2 0;
#X restore 229 419 pd pmosc;
#X obj 228 189 mtof;
#X obj 231 596 outlet~;
#X obj 517 169 * 0.535887;
#X obj 787 169 * 0.108819;
#X obj 791 301 / 127;
#X obj 517 306 / 127;
#X obj 517 147 / 127;
#X obj 517 192 t a a;
#X obj 517 328 t a a;
#X obj 791 323 t a a;
#X obj 787 189 t a a;
#X obj 787 143 / 127;
#X obj 791 273 r \$0-vel;
#X obj 787 114 r \$0-vel;
#X obj 517 278 r \$0-vel;
#X obj 517 121 r \$0-vel;
#X obj 228 103 unpack 0 0;
#X obj 295 125 s \$0-vel;
#X obj 228 77 inlet;
#X text 811 533 + --> Out;
#X text 764 547 2->1--/;
#X text 645 533 Algorithm 5 is : 4->3--;
#X text 671 491 4-op FM Rhodey piano based on algorithm 5:;
#X text 430 391 op 4;
#X text 397 433 op 3;
#X text 264 437 op 1;
#X text 289 390 op 2;
#X text 911 236 op 4;
#X text 939 344 op 3;
#X text 692 350 op 1;
#X text 693 218 op 2;
#X obj 960 51 inlet;
#X text 222 51 Midi: <pitch> <velocity>;
#X obj 232 566 c_xfade f;
#X text 652 590 Clone of the STK Rhodey;
#N canvas 29 50 450 300 vib 0;
#X obj 144 64 inlet~;
#X obj 145 210 outlet~;
#X obj 144 168 +~;
#X obj 200 95 osc~ 0;
#X obj 200 64 inlet;
#X obj 281 65 inlet;
#X obj 199 123 *~ 0;
#X connect 0 0 2 0;
#X connect 2 0 1 0;
#X connect 3 0 6 0;
#X connect 4 0 3 0;
#X connect 5 0 6 1;
#X connect 6 0 2 1;
#X restore 228 298 pd vib;
#X obj 960 123 u_dispatch \$0 tone;
#X obj 960 143 u_dispatch \$0 mod;
#X obj 1019 100 u_loader s_rhodey-\$1 \$0;
#X obj 318 496 r \$0-tone;
#X obj 960 164 u_dispatch \$0 vib-freq;
#X obj 960 186 u_dispatch \$0 vib-depth;
#X obj 270 240 r \$0-vib-freq;
#X obj 282 263 r \$0-vib-depth;
#X obj 390 346 * 15;
#X obj 256 350 * 0.5;
#X obj 960 206 u_dispatch \$0 adsr24;
#X obj 681 108 r \$0-adsr24;
#X obj 681 132 / 127;
#X obj 786 242 *~ 1;
#X obj 517 241 *~ 1;
#X obj 317 304 r \$0-mod;
#X msg 402 500 0.5;
#X obj 599 193 r \$0-decay;
#X obj 960 227 u_dispatch \$0 decay;
#X obj 599 321 r \$0-decay;
#N canvas 172 83 586 377 LICENSE-GPL 0;
#X text 57 88 This program is free software: you can redistribute it
and/or modify it under the terms of the GNU General Public License
as published by the Free Software Foundation \, either version 3 of
the License \, or (at your option) any later version.;
#X text 58 168 This program is distributed in the hope that it will
be useful \, but WITHOUT ANY WARRANTY \; without even the implied warranty
of MERCHANTABILITY or FITNESS FOR A PARTICULAR PURPOSE. See the GNU
General Public License for more details.;
#X text 57 261 You should have received a copy of the GNU General Public
License along with this program. If not \, see <http://www.gnu.org/licenses/>.
;
#X text 61 54 Copyright (C) 2009 \, Reality Jockey Ltd.;
#X text 60 325 See the file LICENSE.txt for the full license text.
;
#X restore 1092 49 pd LICENSE-GPL;
#X obj 317 333 lop~ 5;
#X obj 255 396 *~;
#X obj 788 217 c_adsr 1 1 4000 0 600;
#X obj 228 168 +;
#X obj 517 219 c_adsr 1 5 6000 0 600;
#X obj 517 353 c_adsr 1 3 6000 0 600;
#X obj 793 350 c_adsr 1 1 250 0 40;
#X obj 95 102 r r_trans-\$2;
#X obj 402 478 r loadbang-\$1;
#X obj 444 91 inlet ctrl;
#X obj 429 122 route 0 2;
#X obj 387 167 - 0.5;
#X obj 381 221 t b f;
#X obj 230 145 + 0;
#X obj 318 517 +;
#X obj 450 185 t b f;
#X obj 362 123 * 2;
#X obj 362 102 r pb_range-\$2;
#X obj 387 188 * 2;
#X connect 0 0 1 1;
#X connect 1 0 37 1;
#X connect 2 0 62 0;
#X connect 3 0 37 0;
#X connect 4 0 39 0;
#X connect 4 0 48 0;
#X connect 4 0 49 0;
#X connect 6 0 11 0;
#X connect 7 0 14 0;
#X connect 8 0 13 0;
#X connect 9 0 12 0;
#X connect 10 0 6 0;
#X connect 11 0 65 0;
#X connect 11 1 65 1;
#X connect 12 0 66 0;
#X connect 12 1 66 1;
#X connect 13 0 67 0;
#X connect 13 1 67 1;
#X connect 14 0 63 0;
#X connect 14 1 63 1;
#X connect 15 0 7 0;
#X connect 16 0 8 0;
#X connect 17 0 15 0;
#X connect 18 0 9 0;
#X connect 19 0 10 0;
#X connect 20 0 74 0;
#X connect 20 1 21 0;
#X connect 22 0 20 0;
#X connect 35 0 40 0;
#X connect 37 0 5 0;
#X connect 39 0 3 0;
#X connect 39 0 1 0;
#X connect 40 0 41 0;
#X connect 41 0 44 0;
#X connect 43 0 75 0;
#X connect 44 0 45 0;
#X connect 45 0 50 0;
#X connect 46 0 39 1;
#X connect 47 0 39 2;
#X connect 48 0 0 0;
#X connect 49 0 2 0;
#X connect 50 0 58 0;
#X connect 51 0 52 0;
#X connect 52 0 53 1;
#X connect 52 0 54 1;
#X connect 53 0 0 2;
#X connect 54 0 2 2;
#X connect 55 0 61 0;
#X connect 57 0 65 3;
#X connect 59 0 66 3;
#X connect 61 0 62 1;
#X connect 62 0 3 1;
#X connect 63 0 53 0;
#X connect 64 0 4 0;
#X connect 65 0 54 0;
#X connect 66 0 3 2;
#X connect 67 0 1 2;
#X connect 68 0 64 1;
#X connect 69 0 56 0;
#X connect 70 0 71 0;
#X connect 71 0 72 0;
#X connect 71 1 76 0;
#X connect 72 0 79 0;
#X connect 73 0 74 0;
#X connect 73 1 74 1;
#X connect 74 0 64 0;
#X connect 75 0 37 2;
#X connect 76 0 75 0;
#X connect 76 1 75 1;
#X connect 77 0 79 1;
#X connect 78 0 77 0;
#X connect 79 0 73 0;
