#N canvas 197 414 1703 687 10;
#X obj 304 186 r notesIn-\$1;
#X obj 304 491 s notesOut-\$1;
#X obj 422 8 r loadbang-\$1;
#X obj 25 186 inlet~ inL-\$1;
#X obj 135 186 inlet~ inR-\$1;
#X obj 27 491 outlet~ outL-\$1;
#X obj 136 491 outlet~ outR-\$1;
#X obj 424 185 r auxIn-\$1;
#X obj 423 208 r expIn-\$1;
#X obj 423 233 r fsIn-\$1;
#N canvas 767 201 1793 1004 sequencer 0;
#X obj 360 644 i;
#X obj 466 148 stripnote;
#X obj 146 455 + 60;
#X obj 392 390 + 60;
#X obj 538 393 + 60;
#X obj 466 180 t b f;
#X obj 635 191 i;
#X obj 508 298 unpack 0 0 0 0;
#X obj 667 395 + 60;
#N canvas 663 235 1419 1045 chords 0;
#X msg 239 276 0 4 7;
#X msg 239 300 0 3 7;
#X msg 239 324 0 5 7;
#X obj 375 219 i;
#X msg 239 376 0 4 7 11;
#X msg 239 349 0 4 8;
#X msg 238 401 0 4 7 10;
#X msg 239 423 0 3 7 10;
#X msg 239 450 0 3 6 10;
#X msg 240 479 0 3 6 9;
#X msg 239 577 0 12 24;
#X obj 375 247 route 0 1 2 3 4 5 6 7 8 9 10 11;
#X obj 329 94 inlet;
#X obj 463 109 inlet;
#X text 261 98 get it!;
#X obj 421 657 outlet;
#X msg 238 551 0 7;
#X msg 239 506 0 4;
#X msg 239 530 0 3;
#X msg 596 528 read chord-list.txt;
#X obj 779 279 text get croll-\$1-txt;
#X obj 596 556 text define croll-\$1-txt;
#X obj 329 116 b;
#X obj 596 496 r loadbang-\$1;
#X obj 779 320 s aux-label-\$1;
#X connect 0 0 15 0;
#X connect 1 0 15 0;
#X connect 2 0 15 0;
#X connect 3 0 11 0;
#X connect 4 0 15 0;
#X connect 5 0 15 0;
#X connect 6 0 15 0;
#X connect 7 0 15 0;
#X connect 8 0 15 0;
#X connect 9 0 15 0;
#X connect 10 0 15 0;
#X connect 11 0 0 0;
#X connect 11 1 1 0;
#X connect 11 2 2 0;
#X connect 11 3 5 0;
#X connect 11 4 4 0;
#X connect 11 5 6 0;
#X connect 11 6 7 0;
#X connect 11 7 8 0;
#X connect 11 8 9 0;
#X connect 11 9 17 0;
#X connect 11 10 18 0;
#X connect 11 11 16 0;
#X connect 11 12 10 0;
#X connect 12 0 22 0;
#X connect 13 0 3 1;
#X connect 13 0 20 0;
#X connect 16 0 15 0;
#X connect 17 0 15 0;
#X connect 18 0 15 0;
#X connect 19 0 21 0;
#X connect 20 0 24 0;
#X connect 22 0 3 0;
#X connect 23 0 19 0;
#X restore 508 271 pd chords;
#X obj 341 480 f;
#X obj 370 418 t b f;
#X obj 341 452 delay;
#X obj 504 476 f;
#X obj 523 416 t b f;
#X obj 504 448 delay;
#X obj 640 493 f;
#X obj 663 423 t b f;
#X obj 640 465 delay;
#X obj 146 490 pack 0 100;
#X obj 343 503 pack 0 100;
#X obj 504 501 pack 0 100;
#X obj 642 521 pack 0 100;
#X obj 321 283 * 1;
#X obj 365 282 * 2;
#X obj 411 286 * 3;
#X text 813 154 and then the chord is 'rolled' at a selectable speed
(knob3);
#X text 597 270 get the chord;
#X text 255 324 roll the chord using delays;
#X text 695 338 add the root;
#X text 834 131 A note is converted into a selected chord (knob2);
#X obj 146 708 makenote 100 100, f 22;
#X obj 466 24 r croll-\$1-notes-in;
#X obj 526 173 s \$0-velocity;
#X obj 385 478 r \$0-velocity;
#X obj 186 468 r \$0-velocity;
#X obj 535 474 r \$0-velocity;
#X obj 705 494 r \$0-velocity;
#X obj 146 581 unpack 0 0, f 11;
#X obj 146 730 pack 0 0, f 22;
#X obj 146 862 s croll-\$1-notes-out;
#X text 863 97 Chord Roll Module;
#X obj 498 206 s croll-\$1-root;
#X text 978 303 Speed for Roll \, Chord Select \, Note out Length;
#X obj 146 832 spigot;
#X obj 185 755 r croll-\$1-disable;
#X msg 185 777 0;
#X msg 221 801 1;
#X obj 221 779 r croll-\$1-enable;
#X obj 466 122 spigot;
#X obj 505 45 r croll-\$1-disable;
#X msg 505 67 0;
#X msg 541 91 1;
#X obj 541 69 r croll-\$1-enable;
#X obj 404 165 bag;
#X msg 404 115 flush;
#X obj 321 77 r croll_speed-\$1;
#X obj 321 153 int;
#X obj 635 128 r croll_chord-\$1;
#X obj 361 570 r croll_length-\$1;
#X obj 568 358 r croll_root-\$1;
#X obj 171 385 r croll-\$1-root;
#X obj 434 370 r croll-\$1-root;
#X obj 691 361 r croll-\$1-root;
#X connect 0 0 31 2;
#X connect 1 0 5 0;
#X connect 1 1 33 0;
#X connect 2 0 19 0;
#X connect 3 0 11 0;
#X connect 4 0 14 0;
#X connect 5 0 9 0;
#X connect 5 1 42 0;
#X connect 6 0 9 1;
#X connect 7 0 2 0;
#X connect 7 1 3 0;
#X connect 7 2 4 0;
#X connect 7 3 8 0;
#X connect 8 0 17 0;
#X connect 9 0 7 0;
#X connect 10 0 20 0;
#X connect 11 0 12 0;
#X connect 11 1 10 1;
#X connect 12 0 10 0;
#X connect 13 0 21 0;
#X connect 14 0 15 0;
#X connect 14 1 13 1;
#X connect 15 0 13 0;
#X connect 16 0 22 0;
#X connect 17 0 18 0;
#X connect 17 1 16 1;
#X connect 18 0 16 0;
#X connect 19 0 38 0;
#X connect 20 0 38 0;
#X connect 21 0 38 0;
#X connect 22 0 38 0;
#X connect 23 0 12 1;
#X connect 24 0 15 1;
#X connect 25 0 18 1;
#X connect 31 0 39 0;
#X connect 31 1 39 1;
#X connect 32 0 49 0;
#X connect 32 0 54 0;
#X connect 34 0 20 1;
#X connect 35 0 19 1;
#X connect 36 0 21 1;
#X connect 37 0 22 1;
#X connect 38 0 31 0;
#X connect 38 1 31 1;
#X connect 39 0 44 0;
#X connect 44 0 40 0;
#X connect 45 0 46 0;
#X connect 46 0 44 1;
#X connect 47 0 44 1;
#X connect 48 0 47 0;
#X connect 49 0 1 0;
#X connect 50 0 51 0;
#X connect 50 0 55 0;
#X connect 51 0 49 1;
#X connect 52 0 49 1;
#X connect 53 0 52 0;
#X connect 54 0 1 0;
#X connect 55 0 54 0;
#X connect 56 0 57 0;
#X connect 57 0 23 0;
#X connect 57 0 24 0;
#X connect 57 0 25 0;
#X connect 58 0 6 0;
#X connect 59 0 0 0;
#X connect 60 0 4 1;
#X connect 61 0 2 1;
#X connect 62 0 3 1;
#X connect 63 0 8 1;
#X restore 303 337 pd sequencer;
#X obj 307 262 s croll-\$1-notes-in;
#X obj 293 433 r croll-\$1-notes-out;
#X obj 423 37 s croll-\$1-enable;
#X connect 0 0 11 0;
#X connect 2 0 13 0;
#X connect 12 0 1 0;
