#N canvas 124 537 1660 710 10;
#X obj 304 186 r notesIn-\$1;
#X obj 304 491 s notesOut-\$1;
#X obj 23 9 r loaddefs-\$1;
#X msg 23 76 loaddefinitions \$1;
#X obj 181 9 r loadbang-\$1;
#X obj 181 76 print loading definiton for \$1;
#X obj 23 41 symbol;
#X obj 28 186 inlet~ inL-\$1;
#X obj 135 186 inlet~ inR-\$1;
#X obj 27 491 outlet~ outL-\$1;
#X obj 136 491 outlet~ outR-\$1;
#X obj 424 185 r auxIn-\$1;
#X obj 423 208 r expIn-\$1;
#X obj 423 233 r fsIn-\$1;
#X text 589 77 sample is transposed by keys;
#N canvas 924 435 984 695 array 0;
#X obj 150 227 soundfiler;
#N canvas 0 50 450 300 (subpatch) 0;
#X array bsamp-\$1-newsample 271582 float 0;
#X coords 0 1.02 271581 -1.02 200 130 1 0 0;
#X restore 382 297 graph;
#X text 111 45 load .wav into the table below;
#X obj 182 276 s bsamp-\$1-dur;
#X msg 61 361 \; bsamp-\$1-newsample normalize 1;
#X obj 150 249 t b f;
#X msg 149 190 read -resize Sounds/BasicSampler-sound/wave-bsamp.wav
bsamp-\$1-newsample;
#X obj 150 101 del 1000;
#X obj 392 30 r loadbang-\$1;
#X obj 150 156 symbol \$1;
#X obj 61 334 symbol \$1;
#X connect 0 0 5 0;
#X connect 5 0 10 0;
#X connect 5 1 3 0;
#X connect 6 0 0 0;
#X connect 7 0 9 0;
#X connect 8 0 7 0;
#X connect 9 0 6 0;
#X connect 10 0 4 0;
#X restore 577 154 pd array;
#N canvas 633 128 711 641 synth 0;
#X obj 43 291 pack 0 0 0;
#X obj 44 515 *~ 1;
#X obj 43 332 route 1 2 3 4 5 6, f 47;
#X obj 43 253 poly 6 1, f 11;
#X obj 43 566 outlet~;
#X obj 43 141 inlet;
#X obj 82 395 bsamp-voice \$1;
#X obj 43 364 bsamp-voice \$1;
#X obj 148 364 bsamp-voice \$1;
#X obj 256 364 bsamp-voice \$1;
#X obj 218 386 bsamp-voice \$1;
#X obj 326 386 bsamp-voice \$1;
#X connect 0 0 2 0;
#X connect 1 0 4 0;
#X connect 2 0 7 0;
#X connect 2 1 6 0;
#X connect 2 2 8 0;
#X connect 2 3 10 0;
#X connect 2 4 9 0;
#X connect 2 5 11 0;
#X connect 3 0 0 0;
#X connect 3 1 0 1;
#X connect 3 2 0 2;
#X connect 5 0 3 0;
#X connect 6 0 1 0;
#X connect 7 0 1 0;
#X connect 8 0 1 0;
#X connect 9 0 1 0;
#X connect 10 0 1 0;
#X connect 11 0 1 0;
#X restore 65 338 pd synth;
#X obj 181 35 print loaded:sampler into \$1, f 35;
#X obj 23 112 KontrolModule \$1 S-sampler;
#X text 646 150 reads the file wave-bsamp.wav in the Sounds Folder.
, f 22;
#X text 591 54 C&G basic sampler with recording;
#X connect 0 0 16 0;
#X connect 2 0 6 0;
#X connect 2 0 5 0;
#X connect 3 0 18 0;
#X connect 4 0 17 0;
#X connect 6 0 3 0;
#X connect 16 0 9 0;
#X connect 16 0 10 0;
