#N canvas 140 347 1847 726 10;
#X obj 304 186 r notesIn-\$1;
#X obj 304 491 s notesOut-\$1;
#X obj 23 9 r loaddefs-\$1;
#X msg 23 76 loaddefinitions \$1;
#X obj 181 9 r loadbang-\$1;
#X obj 181 76 print loading definiton for \$1;
#X obj 23 41 symbol;
#X obj 25 186 inlet~ inL-\$1;
#X obj 135 186 inlet~ inR-\$1;
#X obj 27 491 outlet~ outL-\$1;
#X obj 136 491 outlet~ outR-\$1;
#X obj 424 185 r auxIn-\$1;
#X obj 423 208 r expIn-\$1;
#X obj 423 233 r fsIn-\$1;
#N canvas 1288 304 562 493 synth 0;
#X obj 16 108 pack 0 0 0, f 11;
#X obj 16 134 route 1 2 3 4 5 6 7 8, f 81;
#X text 365 112 aircraft carrier;
#X obj 232 233 *~ 0.3;
#X obj 16 81 poly 8 1, f 11;
#X obj 234 341 outlet~;
#X obj 16 55 inlet;
#X obj 86 199 bp-voice \$1;
#X obj 233 315 hip~ 5;
#X obj 233 293 lop~ 1000;
#X obj 16 162 bp-voice \$1;
#X obj 158 163 bp-voice \$1;
#X obj 227 188 bp-voice \$1;
#X obj 296 162 bp-voice \$1;
#X obj 368 194 bp-voice \$1;
#X obj 439 166 bp-voice \$1;
#X obj 508 193 bp-voice \$1;
#X connect 0 0 1 0;
#X connect 1 0 10 0;
#X connect 1 1 7 0;
#X connect 1 2 11 0;
#X connect 1 3 12 0;
#X connect 1 4 13 0;
#X connect 1 5 14 0;
#X connect 1 6 15 0;
#X connect 1 7 16 0;
#X connect 3 0 9 0;
#X connect 4 0 0 0;
#X connect 4 1 0 1;
#X connect 4 2 0 2;
#X connect 6 0 4 0;
#X connect 7 0 3 0;
#X connect 8 0 5 0;
#X connect 9 0 8 0;
#X connect 10 0 3 0;
#X connect 11 0 3 0;
#X connect 12 0 3 0;
#X connect 13 0 3 0;
#X connect 14 0 3 0;
#X connect 15 0 3 0;
#X connect 16 0 3 0;
#X restore 143 324 pd synth;
#X text 446 35 C&G basic polyphonic patch with 8 voices;
#X obj 181 35 print loaded:basic poly into \$1, f 35;
#X obj 23 112 KontrolModule \$1 S-basicpoly;
#X connect 0 0 14 0;
#X connect 2 0 6 0;
#X connect 2 0 5 0;
#X connect 3 0 17 0;
#X connect 4 0 16 0;
#X connect 6 0 3 0;
#X connect 14 0 10 0;
#X connect 14 0 9 0;
