#N canvas 15 50 861 613 10;
#X obj 343 305 -;
#X obj 343 327 abs;
#X obj 211 209 spigot;
#X obj 332 211 spigot;
#X obj 339 94 tgl 15 0 empty empty empty 17 7 0 10 -262144 -1 -1 0
1;
#X obj 339 138 - 1;
#X obj 339 162 abs;
#X obj 212 129 t f f;
#X text 414 135 if the knob is locked \, route to check for unlock
;
#X obj 332 248 t f b;
#X text 440 248 snapshot of knob1 before it was locked;
#X obj 212 62 inlet;
#X obj 343 384 sel 1;
#X msg 343 411 0;
#X obj 161 427 outlet;
#X text 391 317 if it changes more than 20 it has been moved \, so
disable lock;
#X obj 491 394 outlet;
#X obj 339 114 t f f f, f 8;
#X obj 367 -18 inlet;
#X obj 339 65 r \$0-lock;
#X obj 343 436 s \$0-lock;
#X obj 213 256 v \$0-snapshot;
#X msg 361 31 1;
#X obj 427 12 loadbang;
#X msg 428 44 0;
#X obj 362 6 bang;
#X obj 364 276 v \$0-snapshot;
#X obj 343 351 > \$1;
#X connect 0 0 1 0;
#X connect 1 0 27 0;
#X connect 2 0 21 0;
#X connect 2 0 14 0;
#X connect 3 0 9 0;
#X connect 4 0 17 0;
#X connect 5 0 6 0;
#X connect 6 0 2 1;
#X connect 7 0 2 0;
#X connect 7 1 3 0;
#X connect 9 0 0 0;
#X connect 9 1 26 0;
#X connect 11 0 7 0;
#X connect 12 0 13 0;
#X connect 13 0 20 0;
#X connect 17 0 5 0;
#X connect 17 1 3 1;
#X connect 17 2 16 0;
#X connect 18 0 25 0;
#X connect 19 0 4 0;
#X connect 22 0 4 0;
#X connect 23 0 24 0;
#X connect 24 0 4 0;
#X connect 25 0 22 0;
#X connect 26 0 0 1;
#X connect 27 0 12 0;
