#N canvas 119 194 1977 878 10;
#X obj 304 186 r notesIn-\$1;
#X obj 304 491 s notesOut-\$1;
#X obj 797 26 r loadbang-\$1;
#X obj 25 186 inlet~ inL-\$1;
#X obj 135 186 inlet~ inR-\$1;
#X obj 27 771 outlet~ outL-\$1;
#X obj 136 771 outlet~ outR-\$1;
#X obj 424 185 r auxIn-\$1;
#X obj 423 208 r expIn-\$1;
#X obj 423 233 r fsIn-\$1;
#N canvas 4 50 612 483 equal_power_crossfade 0;
#X obj 33 48 inlet~;
#X obj 244 58 inlet;
#X obj 33 332 outlet~;
#X msg 319 74 0.5;
#X obj 49 194 expr cos($f1 * 3.14159 / 2);
#X obj 244 194 expr sin($f1 * 3.14159 / 2);
#X obj 244 134 clip 0 1;
#N canvas 0 50 450 300 pan_core 0;
#X obj 21 106 inlet~;
#X obj 226 126 inlet;
#X obj 80 453 *~;
#X obj 144 497 outlet~;
#X obj 210 452 *~;
#X obj 226 428 line~;
#X obj 96 428 line~;
#X obj 96 127 inlet;
#X obj 179 104 inlet~;
#X text 244 544 comment;
#X obj 96 389 pack f 5;
#X obj 226 389 pack f 5;
#X text 223 540 Hans-Christoph Steiner \, 2004;
#X text 223 526 Adapted from [pan_core~];
#X connect 0 0 2 0;
#X connect 1 0 11 0;
#X connect 2 0 3 0;
#X connect 4 0 3 0;
#X connect 5 0 4 1;
#X connect 6 0 2 1;
#X connect 7 0 10 0;
#X connect 8 0 4 0;
#X connect 10 0 6 0;
#X connect 11 0 5 0;
#X restore 39 266 pd pan_core;
#X text 256 437 Adapted from [equal_power_pan~] \, Hans-Christoph Steiner
\, 2004;
#X text 411 449 comment;
#X obj 128 46 inlet~;
#X obj 319 54 r loadbang-\$1;
#X connect 0 0 7 0;
#X connect 1 0 6 0;
#X connect 3 0 6 0;
#X connect 4 0 7 1;
#X connect 5 0 7 3;
#X connect 6 0 4 0;
#X connect 6 0 5 0;
#X connect 7 0 2 0;
#X connect 10 0 7 2;
#X connect 11 0 3 0;
#X restore 526 639 pd equal_power_crossfade;
#X obj 719 585 hsl 128 25 0 1 0 0 empty crossfade-\$1 Dry_---_Wet_(crossfade)
-2 -8 0 10 -4034 -1 -1 0 1;
#X obj 631 586 *~ 10;
#X obj 1311 184 *;
#X obj 1311 158 t f f;
#X obj 1311 211 * 127;
#X obj 1445 187 *;
#X obj 1445 161 t f f;
#X obj 1445 214 * 127;
#X obj 1445 251 f;
#X obj 1524 219 t b f;
#X text 569 16 Spectral Delay Effect Moduled;
#X obj 632 199 Guitar_specdelay~ \$1;
#X obj 1551 316 s fbscale;
#X obj 1313 316 s del-sin;
#X obj 1445 316 s fb-sin;
#X msg 797 95 \; del-sin 1 \; fb-sin 1 \; gain-flat 1 \; lp-freq 220
\; slope -0.04 \; crossfade 0.5 \;;
#X obj 797 54 bng 15 250 50 0 empty empty empty 17 7 0 10 -262144 -1
-1;
#X obj 1311 64 r specdel_time-\$1;
#X obj 1445 64 r specdel_fb-\$1;
#X obj 1557 64 r specdel_fbscale-\$1;
#X obj 1713 64 r specdel_dw-\$1;
#X obj 1311 116 / 100;
#X obj 1445 116 / 100;
#X obj 1557 116 / 100;
#X obj 1713 116 / 100;
#X obj 1713 316 s crossfade-\$1;
#X connect 2 0 27 0;
#X connect 3 0 22 0;
#X connect 3 0 10 0;
#X connect 10 0 6 0;
#X connect 10 0 5 0;
#X connect 11 0 10 2;
#X connect 12 0 10 1;
#X connect 13 0 15 0;
#X connect 14 0 13 0;
#X connect 14 1 13 1;
#X connect 15 0 24 0;
#X connect 16 0 18 0;
#X connect 17 0 16 0;
#X connect 17 1 16 1;
#X connect 18 0 19 0;
#X connect 19 0 25 0;
#X connect 20 0 19 0;
#X connect 20 1 23 0;
#X connect 22 0 12 0;
#X connect 27 0 26 0;
#X connect 28 0 32 0;
#X connect 29 0 33 0;
#X connect 30 0 34 0;
#X connect 31 0 35 0;
#X connect 32 0 14 0;
#X connect 33 0 17 0;
#X connect 34 0 20 0;
#X connect 35 0 36 0;
