#N canvas 882 512 1405 714 10;
#X obj 239 185 r notesIn-\$1;
#X obj 304 491 s notesOut-\$1;
#X obj 27 186 inlet~ inL-\$1;
#X obj 136 186 inlet~ inR-\$1;
#X obj 27 491 outlet~ outL-\$1;
#X obj 136 491 outlet~ outR-\$1;
#X obj 424 185 r auxIn-\$1;
#X obj 423 208 r expIn-\$1;
#X obj 768 125 r fsIn-\$1;
#N canvas 1055 438 1180 808 synth 1;
#X obj 154 342 pack f f f;
#X obj 154 367 route 1 2 3 4;
#X obj 154 312 poly 4 1;
#X obj 241 574 *~ 2;
#X obj 241 596 outlet~;
#X obj 86 533 as-simple \$1;
#X obj 296 532 as-simple \$1;
#X obj 196 532 as-simple \$1;
#X obj 402 532 as-simple \$1;
#X obj 171 63 inlet notes;
#X obj 302 68 inlet ctrl;
#N canvas 324 629 450 300 route 0;
#X obj 69 97 unpack 0 0 0;
#X obj 68 68 t l l;
#X obj 68 197 list;
#X obj 139 144 t b;
#X obj 139 123 route 1 0;
#X obj 226 163 unpack 0 0 0;
#X obj 226 194 pack 0 0 0;
#X obj 68 19 inlet msg;
#X obj 68 218 outlet global;
#X obj 226 215 outlet voice;
#X obj 187 162 - 1;
#X connect 0 2 4 0;
#X connect 1 0 0 0;
#X connect 1 1 2 1;
#X connect 1 1 5 0;
#X connect 2 0 8 0;
#X connect 3 0 2 0;
#X connect 4 0 3 0;
#X connect 4 1 3 0;
#X connect 4 2 10 0;
#X connect 5 0 6 1;
#X connect 5 1 6 2;
#X connect 6 0 9 0;
#X connect 7 0 1 0;
#X connect 10 0 6 0;
#X restore 171 97 pd route;
#N canvas 324 629 450 300 route 0;
#X obj 69 97 unpack 0 0 0;
#X obj 68 68 t l l;
#X obj 68 197 list;
#X obj 139 144 t b;
#X obj 139 123 route 1 0;
#X obj 234 171 unpack 0 0 0;
#X obj 234 202 pack 0 0 0;
#X obj 68 19 inlet msg;
#X obj 68 218 outlet global;
#X obj 234 223 outlet voice;
#X obj 190 158 - 1;
#X connect 0 2 4 0;
#X connect 1 0 0 0;
#X connect 1 1 2 1;
#X connect 1 1 5 0;
#X connect 2 0 8 0;
#X connect 3 0 2 0;
#X connect 4 0 3 0;
#X connect 4 1 3 0;
#X connect 4 2 10 0;
#X connect 5 0 6 1;
#X connect 5 1 6 2;
#X connect 6 0 9 0;
#X connect 7 0 1 0;
#X connect 10 0 6 0;
#X restore 317 132 pd route;
#X msg 57 192 stop;
#X obj 420 276 route 1 2 3 4;
#X obj 227 133 unpack 0 0 0;
#X obj 227 154 sel 123;
#X msg 227 175 stop;
#X connect 0 0 1 0;
#X connect 1 0 5 0;
#X connect 1 1 7 0;
#X connect 1 2 6 0;
#X connect 1 3 8 0;
#X connect 2 0 0 0;
#X connect 2 1 0 1;
#X connect 2 2 0 2;
#X connect 3 0 4 0;
#X connect 5 0 3 0;
#X connect 6 0 3 0;
#X connect 7 0 3 0;
#X connect 8 0 3 0;
#X connect 9 0 11 0;
#X connect 10 0 12 0;
#X connect 10 0 15 0;
#X connect 11 0 2 0;
#X connect 11 1 1 0;
#X connect 12 0 5 1;
#X connect 12 0 8 1;
#X connect 12 0 7 1;
#X connect 12 0 6 1;
#X connect 12 1 14 0;
#X connect 13 0 2 0;
#X connect 14 0 5 1;
#X connect 14 1 7 1;
#X connect 14 2 6 1;
#X connect 14 3 8 1;
#X connect 15 0 16 0;
#X connect 16 0 17 0;
#X connect 17 0 2 0;
#X restore 58 337 pd synth;
#X obj 628 152 sig~;
#X obj 627 183 lop~ 5;
#X obj 938 105 sig~;
#X obj 937 134 lop~ 5;
#X obj 938 82 * 2;
#X obj 625 447 sig~;
#X obj 625 475 lop~ 5;
#X obj 625 419 * 4;
#X obj 803 437 sig~;
#X obj 803 462 lop~ 5;
#X obj 681 188 + 1;
#X floatatom 681 211 5 0 0 0 - - -;
#X obj 628 235 *~ 1;
#X obj 628 103 mtof;
#X obj 628 125 / 8.1785;
#X obj 628 259 send~ as-\$1-f;
#X obj 936 160 send~ as-\$1-offset;
#X obj 625 503 send~ as-\$1-resonance;
#X obj 803 487 s~ as-\$1-cutoff-local;
#X obj 627 26 r as_tune-\$1;
#X obj 939 18 r as_oscratio-\$1;
#X obj 803 362 r as_cutoff-\$1;
#X obj 625 363 r as_reso-\$1;
#X obj 938 52 / 100;
#X obj 625 391 / 100;
#X obj 346 187 r ctrlIn-\$1;
#X obj 421 278 s ctrlOut-\$1;
#X connect 0 0 9 0;
#X connect 8 0 20 0;
#X connect 9 0 4 0;
#X connect 9 0 5 0;
#X connect 10 0 11 0;
#X connect 11 0 22 0;
#X connect 12 0 13 0;
#X connect 13 0 26 0;
#X connect 14 0 12 0;
#X connect 15 0 16 0;
#X connect 16 0 27 0;
#X connect 17 0 15 0;
#X connect 18 0 19 0;
#X connect 19 0 28 0;
#X connect 20 0 21 0;
#X connect 21 0 22 1;
#X connect 22 0 25 0;
#X connect 23 0 24 0;
#X connect 24 0 10 0;
#X connect 29 0 23 0;
#X connect 30 0 33 0;
#X connect 31 0 18 0;
#X connect 32 0 34 0;
#X connect 33 0 14 0;
#X connect 34 0 17 0;
#X connect 35 0 9 1;
