#N canvas 31 50 1042 660 10;
#X msg 319 312 start;
#X obj 304 24 tgl 50 0 empty empty empty 17 7 0 100 -262144 -1 -1 0
1;
#X obj 330 237 delay 100;
#X text 569 348 offset cause we waited a little;
#X msg 387 403 start;
#X obj 387 371 t b b;
#X obj 327 168 delay 5;
#X obj 304 -10 inlet;
#X obj 307 468 readsf~;
#X obj 372 306 i \$1;
#X obj 439 403 i \$1;
#X obj 582 79 inlet;
#X msg 220 337 0;
#X obj 594 447 line~;
#X obj 594 469 *~;
#X obj 301 559 *~;
#X msg 586 422 0 5;
#X obj 327 138 t b b;
#X text 406 238 a little time to close file if it was just recorded
;
#X obj 332 270 t b b b;
#X msg 271 339 1 5;
#X obj 211 230 delay 5;
#X obj 211 200 t b b;
#X msg 253 277 0 5;
#X obj 304 97 sel 0 1;
#X obj 794 75 inlet;
#X text 790 132 mute;
#X msg 372 345 open ./Sounds/\$1.wav 4410;
#X msg 425 441 open ./Sounds/\$1.wav;
#X obj 370 498 s looped-\$2;
#X obj 302 595 throw~ sampout-\$2;
#X connect 0 0 8 0;
#X connect 1 0 24 0;
#X connect 2 0 19 0;
#X connect 4 0 8 0;
#X connect 5 0 4 0;
#X connect 5 1 10 0;
#X connect 6 0 2 0;
#X connect 7 0 1 0;
#X connect 8 0 15 0;
#X connect 8 1 5 0;
#X connect 8 1 29 0;
#X connect 9 0 27 0;
#X connect 9 0 10 1;
#X connect 10 0 28 0;
#X connect 11 0 9 1;
#X connect 12 0 8 0;
#X connect 13 0 14 0;
#X connect 13 0 14 1;
#X connect 14 0 15 1;
#X connect 15 0 30 0;
#X connect 16 0 13 0;
#X connect 17 0 6 0;
#X connect 17 1 16 0;
#X connect 19 0 20 0;
#X connect 19 1 0 0;
#X connect 19 2 9 0;
#X connect 20 0 13 0;
#X connect 21 0 12 0;
#X connect 22 0 21 0;
#X connect 22 1 23 0;
#X connect 23 0 13 0;
#X connect 24 0 22 0;
#X connect 24 1 17 0;
#X connect 25 0 16 0;
#X connect 27 0 8 0;
#X connect 28 0 8 0;
