#N canvas 680 302 1071 479 10;
#X declare -path externals;
#X declare -path subpatches;
#N canvas 932 475 1338 833 rack 0;
#X msg 234 183 knob1Raw \$1;
#X msg 490 183 knob4Raw \$1;
#X msg 406 183 knob3Raw \$1;
#X msg 322 183 knob2Raw \$1;
#X msg 577 183 enc \$1;
#X msg 633 183 encbut \$1;
#X obj 44 29 loadbang;
#X obj 920 183 routeOSC /key;
#X obj 920 145 r oscIn;
#X msg 920 219 key \$1 \$2;
#X msg 116 145 loadsettings rack;
#X obj 118 110 s rackloaded;
#X obj 21 232 r rackMsgs;
#X obj 44 67 t b b;
#X msg 723 183 pgm \$1;
#X obj 234 145 r oknob1Raw;
#X obj 322 145 r oknob2Raw;
#X obj 406 145 r oknob3Raw;
#X obj 490 145 r oknob4Raw;
#X obj 577 145 r oenc;
#X obj 633 145 r oencbut;
#X obj 723 145 r opgmChg;
#X obj 812 76 ctlin;
#X obj 812 142 pack 0 0 0;
#X obj 812 98 t b f;
#X msg 812 183 midiCC \$1 \$2 \$3;
#X obj 812 120 f 0;
#X obj 656 549 r oselectmodule;
#X obj 892 398 r osavepreset;
#X obj 795 399 r onextpreset;
#X obj 657 399 r oprevpreset;
#X obj 657 420 sel 1;
#X obj 657 462 s rackMsgs;
#X obj 795 420 sel 1;
#X obj 795 462 s rackMsgs;
#X obj 892 419 sel 1;
#X obj 892 461 s rackMsgs;
#X obj 656 591 s rackMsgs;
#X msg 795 441 nextpreset;
#X msg 657 441 prevpreset;
#X msg 892 440 savecurrentpreset;
#X msg 656 570 selectmodule \$1;
#X obj 116 463 KontrolRack midi 6000 6001;
#X connect 0 0 42 0;
#X connect 1 0 42 0;
#X connect 2 0 42 0;
#X connect 3 0 42 0;
#X connect 4 0 42 0;
#X connect 5 0 42 0;
#X connect 6 0 13 0;
#X connect 7 0 9 0;
#X connect 8 0 7 0;
#X connect 9 0 42 0;
#X connect 10 0 42 0;
#X connect 12 0 42 0;
#X connect 13 0 10 0;
#X connect 13 1 11 0;
#X connect 14 0 42 0;
#X connect 15 0 0 0;
#X connect 16 0 3 0;
#X connect 17 0 2 0;
#X connect 18 0 1 0;
#X connect 19 0 4 0;
#X connect 20 0 5 0;
#X connect 21 0 14 0;
#X connect 22 0 24 0;
#X connect 22 1 23 1;
#X connect 22 2 26 1;
#X connect 23 0 25 0;
#X connect 24 0 26 0;
#X connect 24 1 23 2;
#X connect 25 0 42 0;
#X connect 26 0 23 0;
#X connect 27 0 41 0;
#X connect 28 0 35 0;
#X connect 29 0 33 0;
#X connect 30 0 31 0;
#X connect 31 0 39 0;
#X connect 33 0 38 0;
#X connect 35 0 40 0;
#X connect 38 0 34 0;
#X connect 39 0 32 0;
#X connect 40 0 36 0;
#X connect 41 0 37 0;
#X restore 50 9 pd rack;
#X text 50 38 module slots;
#X text 395 39 dummy targets;
#X obj 748 65 declare -path externals;
#N canvas 778 635 763 454 startup 0;
#X obj 175 39 r activeModule;
#X obj 63 39 loadbang;
#X obj 63 202 symbol m0;
#X obj 63 70 del 500;
#X obj 63 264 s activeModule;
#X obj 63 233 spigot 0;
#X obj 63 101 t b b b;
#X msg 111 136 1;
#X msg 47 136 0;
#X text 297 38 a temporary fix;
#X text 300 68 during startup modules might 'miss' the active module
being set \, as they are not loaded yet \, so here we repeat it after
500ms;
#X obj 175 86 symbol;
#X msg 211 130;
#X obj 211 151 s screenLine5;
#X obj 331 129 int 0;
#X obj 331 150 s led;
#X connect 0 0 11 0;
#X connect 1 0 3 0;
#X connect 1 0 12 0;
#X connect 1 0 14 0;
#X connect 2 0 5 0;
#X connect 3 0 6 0;
#X connect 5 0 4 0;
#X connect 6 0 8 0;
#X connect 6 1 2 0;
#X connect 6 2 7 0;
#X connect 7 0 5 1;
#X connect 8 0 5 1;
#X connect 11 0 2 1;
#X connect 12 0 13 0;
#X connect 14 0 15 0;
#X restore 114 9 pd startup;
#X obj 748 88 declare -path subpatches;
#X text 194 8 ORAC module v2;
#N canvas 676 605 946 579 a1 0;
#X obj 10 10 r~ inL-a1;
#X obj 110 10 r~ inR-a1;
#X obj 10 60 modules/utility/empty/module a1;
#X obj 10 110 s~ outL-a1;
#X obj 110 110 s~ outR-a1;
#X obj 400 1 r rackloaded;
#X obj 400 30 t b b;
#X msg 400 60 loaddefinitions modules/utility/empty/module.json;
#X obj 400 110 KontrolModule a1 utility/empty;
#X obj 600 110 send loadbang-a1;
#X connect 0 0 2 0;
#X connect 1 0 2 1;
#X connect 2 0 3 0;
#X connect 2 1 4 0;
#X connect 5 0 6 0;
#X connect 6 0 9 0;
#X connect 6 1 7 0;
#X connect 7 0 8 0;
#X restore 140 60 pd a1;
#N canvas 526 920 794 264 s1 0;
#X obj 10 10 r~ inL-s1;
#X obj 110 10 r~ inR-s1;
#X obj 10 60 modules/router/parallel/module s1;
#X obj 10 110 s~ outL-s1;
#X obj 110 110 s~ outR-s1;
#X obj 400 1 r rackloaded;
#X obj 400 30 t b b;
#X msg 400 60 loaddefinitions modules/router/parallel/module.json;
#X obj 400 110 KontrolModule s1 router/parallel;
#X obj 600 110 send loadbang-s1;
#X connect 0 0 2 0;
#X connect 1 0 2 1;
#X connect 2 0 3 0;
#X connect 2 1 4 0;
#X connect 5 0 6 0;
#X connect 6 0 9 0;
#X connect 6 1 7 0;
#X connect 7 0 8 0;
#X restore 35 60 pd s1;
#N canvas 526 418 1035 347 a2 0;
#X obj 10 10 r~ inL-a2;
#X obj 110 10 r~ inR-a2;
#X obj 10 60 modules/utility/empty/module a2;
#X obj 10 110 s~ outL-a2;
#X obj 110 110 s~ outR-a2;
#X obj 400 1 r rackloaded;
#X obj 400 30 t b b;
#X msg 400 60 loaddefinitions modules/utility/empty/module.json;
#X obj 400 110 KontrolModule a2 utility/empty;
#X obj 600 110 send loadbang-a2;
#X connect 0 0 2 0;
#X connect 1 0 2 1;
#X connect 2 0 3 0;
#X connect 2 1 4 0;
#X connect 5 0 6 0;
#X connect 6 0 9 0;
#X connect 6 1 7 0;
#X connect 7 0 8 0;
#X restore 140 90 pd a2;
#N canvas 653 563 885 356 s2 0;
#X obj 10 10 r~ inL-s2;
#X obj 110 10 r~ inR-s2;
#X obj 10 60 modules/utility/clock/module s2;
#X obj 10 110 s~ outL-s2;
#X obj 110 110 s~ outR-s2;
#X obj 400 1 r rackloaded;
#X obj 400 30 t b b;
#X msg 400 60 loaddefinitions modules/utility/clock/module.json;
#X obj 400 110 KontrolModule s2 utility/clock;
#X obj 600 110 send loadbang-s2;
#X connect 0 0 2 0;
#X connect 1 0 2 1;
#X connect 2 0 3 0;
#X connect 2 1 4 0;
#X connect 5 0 6 0;
#X connect 6 0 9 0;
#X connect 6 1 7 0;
#X connect 7 0 8 0;
#X restore 35 90 pd s2;
#N canvas 714 538 943 317 a3 0;
#X obj 10 10 r~ inL-a3;
#X obj 110 10 r~ inR-a3;
#X obj 10 60 modules/utility/empty/module a3;
#X obj 10 110 s~ outL-a3;
#X obj 110 110 s~ outR-a3;
#X obj 400 1 r rackloaded;
#X obj 400 30 t b b;
#X msg 400 60 loaddefinitions modules/utility/empty/module.json;
#X obj 400 110 KontrolModule a3 utility/empty;
#X obj 600 110 send loadbang-a3;
#X connect 0 0 2 0;
#X connect 1 0 2 1;
#X connect 2 0 3 0;
#X connect 2 1 4 0;
#X connect 5 0 6 0;
#X connect 6 0 9 0;
#X connect 6 1 7 0;
#X connect 7 0 8 0;
#X restore 140 118 pd a3;
#N canvas 325 605 946 579 b1 0;
#X obj 10 10 r~ inL-b1;
#X obj 110 10 r~ inR-b1;
#X obj 10 60 modules/utility/empty/module b1;
#X obj 10 110 s~ outL-b1;
#X obj 110 110 s~ outR-b1;
#X obj 400 1 r rackloaded;
#X obj 400 30 t b b;
#X msg 400 60 loaddefinitions modules/utility/empty/module.json;
#X obj 400 110 KontrolModule b1 utility/empty;
#X obj 600 110 send loadbang-b1;
#X connect 0 0 2 0;
#X connect 1 0 2 1;
#X connect 2 0 3 0;
#X connect 2 1 4 0;
#X connect 5 0 6 0;
#X connect 6 0 9 0;
#X connect 6 1 7 0;
#X connect 7 0 8 0;
#X restore 190 60 pd b1;
#N canvas 325 605 946 579 m1 0;
#X obj 10 10 r~ inL-m1;
#X obj 110 10 r~ inR-m1;
#X obj 10 60 modules/utility/empty/module m1;
#X obj 10 110 s~ outL-m1;
#X obj 110 110 s~ outR-m1;
#X obj 400 1 r rackloaded;
#X obj 400 30 t b b;
#X msg 400 60 loaddefinitions modules/utility/empty/module.json;
#X obj 400 110 KontrolModule m1 utility/empty;
#X obj 600 110 send loadbang-m1;
#X connect 0 0 2 0;
#X connect 1 0 2 1;
#X connect 2 0 3 0;
#X connect 2 1 4 0;
#X connect 5 0 6 0;
#X connect 6 0 9 0;
#X connect 6 1 7 0;
#X connect 7 0 8 0;
#X restore 88 60 pd m1;
#N canvas 325 605 946 579 b2 0;
#X obj 10 10 r~ inL-b2;
#X obj 110 10 r~ inR-b2;
#X obj 10 60 modules/utility/empty/module b2;
#X obj 10 110 s~ outL-b2;
#X obj 110 110 s~ outR-b2;
#X obj 400 1 r rackloaded;
#X obj 400 30 t b b;
#X msg 400 60 loaddefinitions modules/utility/empty/module.json;
#X obj 400 110 KontrolModule b2 utility/empty;
#X obj 600 110 send loadbang-b2;
#X connect 0 0 2 0;
#X connect 1 0 2 1;
#X connect 2 0 3 0;
#X connect 2 1 4 0;
#X connect 5 0 6 0;
#X connect 6 0 9 0;
#X connect 6 1 7 0;
#X connect 7 0 8 0;
#X restore 190 90 pd b2;
#N canvas 495 614 693 304 m2 0;
#X obj 10 10 r~ inL-m2;
#X obj 110 10 r~ inR-m2;
#X obj 10 60 modules/utility/empty/module m2;
#X obj 10 110 s~ outL-m2;
#X obj 110 110 s~ outR-m2;
#X obj 400 1 r rackloaded;
#X obj 400 30 t b b;
#X msg 400 60 loaddefinitions modules/utility/empty/module.json;
#X obj 400 110 KontrolModule m2 utility/empty;
#X obj 600 110 send loadbang-m2;
#X connect 0 0 2 0;
#X connect 1 0 2 1;
#X connect 2 0 3 0;
#X connect 2 1 4 0;
#X connect 5 0 6 0;
#X connect 6 0 9 0;
#X connect 6 1 7 0;
#X connect 7 0 8 0;
#X restore 88 90 pd m2;
#N canvas 856 535 919 329 b3 0;
#X obj 10 10 r~ inL-b3;
#X obj 110 10 r~ inR-b3;
#X obj 10 60 modules/utility/empty/module b3;
#X obj 10 110 s~ outL-b3;
#X obj 110 110 s~ outR-b3;
#X obj 400 1 r rackloaded;
#X obj 400 30 t b b;
#X msg 400 60 loaddefinitions modules/utility/empty/module.json;
#X obj 400 110 KontrolModule b3 utility/empty;
#X obj 600 110 send loadbang-b3;
#X connect 0 0 2 0;
#X connect 1 0 2 1;
#X connect 2 0 3 0;
#X connect 2 1 4 0;
#X connect 5 0 6 0;
#X connect 6 0 9 0;
#X connect 6 1 7 0;
#X connect 7 0 8 0;
#X restore 190 118 pd b3;
#N canvas 714 538 943 317 m3 0;
#X obj 10 10 r~ inL-m3;
#X obj 110 10 r~ inR-m3;
#X obj 10 60 modules/utility/empty/module m3;
#X obj 10 110 s~ outL-m3;
#X obj 110 110 s~ outR-m3;
#X obj 400 1 r rackloaded;
#X obj 400 30 t b b;
#X msg 400 60 loaddefinitions modules/utility/empty/module.json;
#X obj 400 110 KontrolModule m3 utility/empty;
#X obj 600 110 send loadbang-m3;
#X connect 0 0 2 0;
#X connect 1 0 2 1;
#X connect 2 0 3 0;
#X connect 2 1 4 0;
#X connect 5 0 6 0;
#X connect 6 0 9 0;
#X connect 6 1 7 0;
#X connect 7 0 8 0;
#X restore 88 118 pd m3;
#N canvas 714 538 943 317 b4 0;
#X obj 10 10 r~ inL-b4;
#X obj 110 10 r~ inR-b4;
#X obj 10 60 modules/utility/empty/module b4;
#X obj 10 110 s~ outL-b4;
#X obj 110 110 s~ outR-b4;
#X obj 400 1 r rackloaded;
#X obj 400 30 t b b;
#X msg 400 60 loaddefinitions modules/utility/empty/module.json;
#X obj 400 110 KontrolModule b4 utility/empty;
#X obj 600 110 send loadbang-b4;
#X connect 0 0 2 0;
#X connect 1 0 2 1;
#X connect 2 0 3 0;
#X connect 2 1 4 0;
#X connect 5 0 6 0;
#X connect 6 0 9 0;
#X connect 6 1 7 0;
#X connect 7 0 8 0;
#X restore 190 144 pd b4;
#X obj 405 351 s rackMsgs;
#X obj 404 187 r rackloaded;
#X msg 405 260 setmoduleorder a1 s1 a2 s2 a3 b1 m1 b2 m2 b3 m3 b4 c1
p1 c2 p2 c3, f 16;
#N canvas 547 477 946 579 c1 0;
#X obj 10 10 r~ inL-c1;
#X obj 110 10 r~ inR-c1;
#X obj 10 60 modules/utility/empty/module c1;
#X obj 10 110 s~ outL-c1;
#X obj 110 110 s~ outR-c1;
#X obj 400 1 r rackloaded;
#X obj 400 30 t b b;
#X msg 400 60 loaddefinitions modules/utility/empty/module.json;
#X obj 400 110 KontrolModule c1 utility/empty;
#X obj 600 110 send loadbang-c1;
#X connect 0 0 2 0;
#X connect 1 0 2 1;
#X connect 2 0 3 0;
#X connect 2 1 4 0;
#X connect 5 0 6 0;
#X connect 6 0 9 0;
#X connect 6 1 7 0;
#X connect 7 0 8 0;
#X restore 237 60 pd c1;
#N canvas 526 418 1035 347 c2 0;
#X obj 10 10 r~ inL-c2;
#X obj 110 10 r~ inR-c2;
#X obj 10 60 modules/utility/empty/module c2;
#X obj 10 110 s~ outL-c2;
#X obj 110 110 s~ outR-c2;
#X obj 400 1 r rackloaded;
#X obj 400 30 t b b;
#X msg 400 60 loaddefinitions modules/utility/empty/module.json;
#X obj 400 110 KontrolModule c2 utility/empty;
#X obj 600 110 send loadbang-c2;
#X connect 0 0 2 0;
#X connect 1 0 2 1;
#X connect 2 0 3 0;
#X connect 2 1 4 0;
#X connect 5 0 6 0;
#X connect 6 0 9 0;
#X connect 6 1 7 0;
#X connect 7 0 8 0;
#X restore 237 90 pd c2;
#N canvas 714 538 943 317 c3 0;
#X obj 10 10 r~ inL-c3;
#X obj 110 10 r~ inR-c3;
#X obj 10 60 modules/utility/empty/module c3;
#X obj 10 110 s~ outL-c3;
#X obj 110 110 s~ outR-c3;
#X obj 400 1 r rackloaded;
#X obj 400 30 t b b;
#X msg 400 60 loaddefinitions modules/utility/empty/module.json;
#X obj 400 110 KontrolModule c3 utility/empty;
#X obj 600 110 send loadbang-c3;
#X connect 0 0 2 0;
#X connect 1 0 2 1;
#X connect 2 0 3 0;
#X connect 2 1 4 0;
#X connect 5 0 6 0;
#X connect 6 0 9 0;
#X connect 6 1 7 0;
#X connect 7 0 8 0;
#X restore 237 118 pd c3;
#N canvas 504 887 794 264 p1 0;
#X obj 10 10 r~ inL-p1;
#X obj 110 10 r~ inR-p1;
#X obj 10 60 modules/utility/empty/module p1;
#X obj 10 110 s~ outL-p1;
#X obj 110 110 s~ outR-p1;
#X obj 400 1 r rackloaded;
#X obj 400 30 t b b;
#X msg 400 60 loaddefinitions modules/utility/empty/module.json;
#X obj 400 110 KontrolModule p1 utility/empty;
#X obj 600 110 send loadbang-p1;
#X connect 0 0 2 0;
#X connect 1 0 2 1;
#X connect 2 0 3 0;
#X connect 2 1 4 0;
#X connect 5 0 6 0;
#X connect 6 0 9 0;
#X connect 6 1 7 0;
#X connect 7 0 8 0;
#X restore 282 60 pd p1;
#N canvas 653 563 885 356 p2 0;
#X obj 10 10 r~ inL-p2;
#X obj 110 10 r~ inR-p2;
#X obj 10 60 modules/utility/empty/module p2;
#X obj 10 110 s~ outL-p2;
#X obj 110 110 s~ outR-p2;
#X obj 400 1 r rackloaded;
#X obj 400 30 t b b;
#X msg 400 60 loaddefinitions modules/utility/empty/module.json;
#X obj 400 110 KontrolModule p2 utility/empty;
#X obj 600 110 send loadbang-p2;
#X connect 0 0 2 0;
#X connect 1 0 2 1;
#X connect 2 0 3 0;
#X connect 2 1 4 0;
#X connect 5 0 6 0;
#X connect 6 0 9 0;
#X connect 6 1 7 0;
#X connect 7 0 8 0;
#X restore 282 90 pd p2;
#X text 410 241 Organelle;
#X text 571 241 non-keyboard;
#X obj 395 63 r onotes;
#X obj 453 63 r oencbut;
#X obj 518 63 r oaux;
#X obj 560 63 r oexp;
#X obj 611 63 r ofs;
#X obj 395 85 r octrl;
#X msg 552 259 setmoduleorder a1 a2 a3 b1 b2 b3 b4 c1 c2 c3 p1 p2 m1
m2 m3 s1 s2, f 16;
#X connect 20 0 35 0;
#X connect 21 0 19 0;
#X connect 35 0 19 0;
