#N canvas 1548 597 690 265 10;
#X obj 76 75 loadbang;
#N canvas 140 53 922 604 audioIO 0;
#X obj 513 376 dac~;
#X obj 192 166 adc~, f 6;
#X obj 482 219 clip~ -1 1;
#X obj 571 219 clip~ -1 1;
#X obj 483 273 *~ 1;
#X obj 572 275 *~ 1;
#X text 137 376 removed : tb_peakcomp~ -3 8 10 100 0;
#X obj 481 128 catch~ ooutL;
#X obj 634 134 catch~ ooutR;
#X obj 285 244 s~ oinR;
#X obj 110 244 s~ oinL;
#X connect 1 0 10 0;
#X connect 1 1 9 0;
#X connect 2 0 4 0;
#X connect 3 0 5 0;
#X connect 4 0 0 0;
#X connect 5 0 0 1;
#X connect 7 0 2 0;
#X connect 8 0 3 0;
#X restore 155 77 pd audioIO;
#N canvas 781 227 1779 821 MIDI 0;
#X obj 44 166 spigot 1;
#N canvas 1280 389 1280 956 chsel 0;
#X obj 207 372 f;
#X obj 168 372 f;
#X obj 237 123 f;
#X obj 152 87 t b f;
#X obj 237 145 sel 1;
#X obj 342 33 r midiCh;
#X obj 117 35 inlet;
#X obj 199 37 inlet;
#X obj 274 39 inlet;
#X obj 186 444 outlet;
#X obj 364 129 == 0;
#X obj 302 246 bng 15 250 50 0 empty empty empty 17 7 0 10 -262144
-1 -1;
#X obj 325 173 spigot 1;
#X obj 187 417 pack 0 0 0;
#X obj 237 373 f;
#X obj 237 325 t b b b;
#X connect 0 0 13 1;
#X connect 1 0 13 0;
#X connect 2 0 4 0;
#X connect 3 0 2 0;
#X connect 3 1 1 1;
#X connect 4 0 15 0;
#X connect 4 1 12 0;
#X connect 5 0 4 1;
#X connect 5 0 10 0;
#X connect 6 0 3 0;
#X connect 7 0 0 1;
#X connect 8 0 2 1;
#X connect 8 0 14 1;
#X connect 10 0 12 1;
#X connect 11 0 15 0;
#X connect 12 0 11 0;
#X connect 13 0 9 0;
#X connect 14 0 13 2;
#X connect 15 0 1 0;
#X connect 15 1 0 0;
#X connect 15 2 14 0;
#X restore 44 108 pd chsel;
#X obj 940 44 pgmin;
#X obj 940 153 spigot 1;
#X obj 1033 121 loadbang;
#X obj 940 213 spigot 0;
#X msg 1033 177 1;
#X obj 1033 149 delay 500;
#X msg 1033 205 0;
#X text 1110 148 speed limit these;
#X obj 940 256 t f b b;
#N canvas 1101 410 681 530 chsel 0;
#X obj 159 28 r midiCh;
#X obj 67 61 swap;
#X obj 67 86 pack;
#X obj 44 29 inlet;
#X obj 97 28 inlet;
#X obj 67 347 outlet;
#X obj 67 169 route 1;
#X obj 159 167 == 0;
#X obj 120 234 unpack;
#X obj 120 211 spigot 1;
#X connect 0 0 6 1;
#X connect 0 0 7 0;
#X connect 1 0 2 0;
#X connect 1 1 2 1;
#X connect 2 0 6 0;
#X connect 3 0 1 0;
#X connect 4 0 1 1;
#X connect 6 0 5 0;
#X connect 6 1 9 0;
#X connect 7 0 9 1;
#X connect 8 1 5 0;
#X connect 9 0 8 0;
#X restore 940 93 pd chsel;
#X obj 534 196 >= 64;
#X obj 350 181 t f b;
#X obj 350 208 / 127;
#N canvas 312 499 743 412 chsel 0;
#X obj 159 28 r midiCh;
#X obj 67 61 swap;
#X obj 67 86 pack;
#X obj 44 29 inlet;
#X obj 97 28 inlet;
#X obj 67 347 outlet;
#X obj 67 169 route 1;
#X obj 159 167 == 0;
#X obj 120 234 unpack;
#X obj 120 211 spigot 1;
#X connect 0 0 6 1;
#X connect 0 0 7 0;
#X connect 1 0 2 0;
#X connect 1 1 2 1;
#X connect 2 0 6 0;
#X connect 3 0 1 0;
#X connect 4 0 1 1;
#X connect 6 0 5 0;
#X connect 6 1 9 0;
#X connect 7 0 9 1;
#X connect 8 1 5 0;
#X connect 9 0 8 0;
#X restore 534 127 pd chsel;
#N canvas 312 499 743 412 chsel 0;
#X obj 159 28 r midiCh;
#X obj 67 61 swap;
#X obj 67 86 pack;
#X obj 44 29 inlet;
#X obj 97 28 inlet;
#X obj 67 347 outlet;
#X obj 67 169 route 1;
#X obj 159 167 == 0;
#X obj 120 234 unpack;
#X obj 120 211 spigot 1;
#X connect 0 0 6 1;
#X connect 0 0 7 0;
#X connect 1 0 2 0;
#X connect 1 1 2 1;
#X connect 2 0 6 0;
#X connect 3 0 1 0;
#X connect 4 0 1 1;
#X connect 6 0 5 0;
#X connect 6 1 9 0;
#X connect 7 0 9 1;
#X connect 8 1 5 0;
#X connect 9 0 8 0;
#X restore 350 127 pd chsel;
#X obj 38 4 cnv 15 300 25 empty empty MIDI_IN 0 12 0 14 -4032 -66577
0;
#X obj 44 43 notein;
#X obj 357 372 ctlin;
#X obj 439 452 route 74 1;
#X obj 357 452 / 127;
#N canvas 1280 389 1280 956 chsel 0;
#X obj 207 372 f;
#X obj 168 372 f;
#X obj 237 123 f;
#X obj 152 87 t b f;
#X obj 237 145 sel 1;
#X obj 342 33 r midiCh;
#X obj 117 35 inlet;
#X obj 199 37 inlet;
#X obj 274 39 inlet;
#X obj 186 444 outlet;
#X obj 364 129 == 0;
#X obj 302 246 bng 15 250 50 0 empty empty empty 17 7 0 10 -262144
-1 -1;
#X obj 325 173 spigot 1;
#X obj 187 417 pack 0 0 0;
#X obj 237 373 f;
#X obj 237 325 t b b b;
#X connect 0 0 13 1;
#X connect 1 0 13 0;
#X connect 2 0 4 0;
#X connect 3 0 2 0;
#X connect 3 1 1 1;
#X connect 4 0 15 0;
#X connect 4 1 12 0;
#X connect 5 0 4 1;
#X connect 5 0 10 0;
#X connect 6 0 3 0;
#X connect 7 0 0 1;
#X connect 8 0 2 1;
#X connect 8 0 14 1;
#X connect 10 0 12 1;
#X connect 11 0 15 0;
#X connect 12 0 11 0;
#X connect 13 0 9 0;
#X connect 14 0 13 2;
#X connect 15 0 1 0;
#X connect 15 1 0 0;
#X connect 15 2 14 0;
#X restore 340 530 pd chsel;
#X msg 471 491 1;
#X msg 438 490 2;
#X obj 340 594 spigot 1;
#X obj 440 413 f;
#X obj 347 413 t b f;
#X obj 579 372 bendin;
#X obj 591 452 / 16383;
#X obj 565 594 spigot 1;
#N canvas 1280 389 1280 956 chsel 0;
#X obj 207 372 f;
#X obj 168 372 f;
#X obj 237 123 f;
#X obj 152 87 t b f;
#X obj 237 145 sel 1;
#X obj 342 33 r midiCh;
#X obj 117 35 inlet;
#X obj 199 37 inlet;
#X obj 274 39 inlet;
#X obj 186 444 outlet;
#X obj 364 129 == 0;
#X obj 302 246 bng 15 250 50 0 empty empty empty 17 7 0 10 -262144
-1 -1;
#X obj 325 173 spigot 1;
#X obj 187 417 pack 0 0 0;
#X obj 237 373 f;
#X obj 237 325 t b b b;
#X connect 0 0 13 1;
#X connect 1 0 13 0;
#X connect 2 0 4 0;
#X connect 3 0 2 0;
#X connect 3 1 1 1;
#X connect 4 0 15 0;
#X connect 4 1 12 0;
#X connect 5 0 4 1;
#X connect 5 0 10 0;
#X connect 6 0 3 0;
#X connect 7 0 0 1;
#X connect 8 0 2 1;
#X connect 8 0 14 1;
#X connect 10 0 12 1;
#X connect 11 0 15 0;
#X connect 12 0 11 0;
#X connect 13 0 9 0;
#X connect 14 0 13 2;
#X connect 15 0 1 0;
#X connect 15 1 0 0;
#X connect 15 2 14 0;
#X restore 565 530 pd chsel;
#X obj 579 416 t b f;
#X msg 559 452 0;
#X obj 734 594 spigot 1;
#N canvas 1280 389 1280 956 chsel 0;
#X obj 207 372 f;
#X obj 168 372 f;
#X obj 237 123 f;
#X obj 152 87 t b f;
#X obj 237 145 sel 1;
#X obj 342 33 r midiCh;
#X obj 117 35 inlet;
#X obj 199 37 inlet;
#X obj 274 39 inlet;
#X obj 186 444 outlet;
#X obj 364 129 == 0;
#X obj 302 246 bng 15 250 50 0 empty empty empty 17 7 0 10 -262144
-1 -1;
#X obj 325 173 spigot 1;
#X obj 187 417 pack 0 0 0;
#X obj 237 373 f;
#X obj 237 325 t b b b;
#X connect 0 0 13 1;
#X connect 1 0 13 0;
#X connect 2 0 4 0;
#X connect 3 0 2 0;
#X connect 3 1 1 1;
#X connect 4 0 15 0;
#X connect 4 1 12 0;
#X connect 5 0 4 1;
#X connect 5 0 10 0;
#X connect 6 0 3 0;
#X connect 7 0 0 1;
#X connect 8 0 2 1;
#X connect 8 0 14 1;
#X connect 10 0 12 1;
#X connect 11 0 15 0;
#X connect 12 0 11 0;
#X connect 13 0 9 0;
#X connect 14 0 13 2;
#X connect 15 0 1 0;
#X connect 15 1 0 0;
#X connect 15 2 14 0;
#X restore 734 530 pd chsel;
#X obj 748 418 t b f;
#X obj 748 372 touchin;
#X obj 760 452 / 127;
#X msg 728 452 3;
#X obj 112 114 r midiNoteGate;
#X obj 434 559 r midiCtrlGate;
#X obj 638 559 r midiCtrlGate;
#X obj 811 559 r midiCtrlGate;
#X obj 402 43 r midiExpCC;
#X obj 598 43 r midiFsCC;
#X obj 350 43 ctlin;
#X obj 350 154 change -1;
#X obj 534 227 change -1;
#X obj 534 43 ctlin;
#X obj 555 75 == 64;
#X obj 534 100 spigot 1;
#X obj 399 75 == 4;
#X obj 350 100 spigot 1;
#X obj 534 154 change -1;
#X obj 940 284 change -1;
#X obj 1033 93 r midiPgmGate;
#X obj 748 194 >= 64;
#N canvas 312 499 743 412 chsel 0;
#X obj 159 28 r midiCh;
#X obj 67 61 swap;
#X obj 67 86 pack;
#X obj 44 29 inlet;
#X obj 97 28 inlet;
#X obj 67 347 outlet;
#X obj 67 169 route 1;
#X obj 159 167 == 0;
#X obj 120 234 unpack;
#X obj 120 211 spigot 1;
#X connect 0 0 6 1;
#X connect 0 0 7 0;
#X connect 1 0 2 0;
#X connect 1 1 2 1;
#X connect 2 0 6 0;
#X connect 3 0 1 0;
#X connect 4 0 1 1;
#X connect 6 0 5 0;
#X connect 6 1 9 0;
#X connect 7 0 9 1;
#X connect 8 1 5 0;
#X connect 9 0 8 0;
#X restore 748 127 pd chsel;
#X obj 748 227 change -1;
#X obj 748 43 ctlin;
#X obj 748 100 spigot 1;
#X obj 748 154 change -1;
#X obj 812 43 r midiAuxCC;
#X obj 769 73 == 69;
#X obj 109 372 ctlin;
#N canvas 1280 389 1280 956 chsel 0;
#X obj 207 372 f;
#X obj 168 372 f;
#X obj 237 123 f;
#X obj 152 87 t b f;
#X obj 237 145 sel 1;
#X obj 342 33 r midiCh;
#X obj 117 35 inlet;
#X obj 199 37 inlet;
#X obj 274 39 inlet;
#X obj 186 444 outlet;
#X obj 364 129 == 0;
#X obj 302 246 bng 15 250 50 0 empty empty empty 17 7 0 10 -262144
-1 -1;
#X obj 325 173 spigot 1;
#X obj 187 417 pack 0 0 0;
#X obj 237 373 f;
#X obj 237 325 t b b b;
#X connect 0 0 13 1;
#X connect 1 0 13 0;
#X connect 2 0 4 0;
#X connect 3 0 2 0;
#X connect 3 1 1 1;
#X connect 4 0 15 0;
#X connect 4 1 12 0;
#X connect 5 0 4 1;
#X connect 5 0 10 0;
#X connect 6 0 3 0;
#X connect 7 0 0 1;
#X connect 8 0 2 1;
#X connect 8 0 14 1;
#X connect 10 0 12 1;
#X connect 11 0 15 0;
#X connect 12 0 11 0;
#X connect 13 0 9 0;
#X connect 14 0 13 2;
#X connect 15 0 1 0;
#X connect 15 1 0 0;
#X connect 15 2 14 0;
#X restore 92 530 pd chsel;
#X obj 92 594 spigot 1;
#X obj 192 413 f;
#X obj 99 413 t b f;
#X obj 186 559 r midiCtrlGate;
#X obj 43 262 s onotes;
#X obj 350 261 s oexp;
#X obj 534 262 s ofs;
#X obj 748 262 s oaux;
#X obj 940 311 s opgmChg;
#X obj 734 677 s octrl;
#X obj 565 677 s octrl;
#X obj 339 677 s octrl;
#X obj 91 677 s omidiCC;
#X connect 0 0 71 0;
#X connect 1 0 0 0;
#X connect 2 0 11 0;
#X connect 2 1 11 1;
#X connect 3 0 5 0;
#X connect 4 0 7 0;
#X connect 5 0 10 0;
#X connect 6 0 5 1;
#X connect 7 0 6 0;
#X connect 8 0 5 1;
#X connect 10 0 55 0;
#X connect 10 1 7 0;
#X connect 10 2 8 0;
#X connect 11 0 3 0;
#X connect 12 0 48 0;
#X connect 13 0 14 0;
#X connect 14 0 72 0;
#X connect 15 0 54 0;
#X connect 16 0 47 0;
#X connect 18 0 1 0;
#X connect 18 1 1 1;
#X connect 18 2 1 2;
#X connect 19 0 27 0;
#X connect 19 1 26 1;
#X connect 19 2 22 2;
#X connect 20 0 24 0;
#X connect 20 1 23 0;
#X connect 21 0 22 1;
#X connect 22 0 25 0;
#X connect 23 0 22 0;
#X connect 24 0 22 0;
#X connect 25 0 78 0;
#X connect 26 0 20 0;
#X connect 27 0 26 0;
#X connect 27 1 21 0;
#X connect 28 0 32 0;
#X connect 28 1 31 2;
#X connect 29 0 31 1;
#X connect 30 0 77 0;
#X connect 31 0 30 0;
#X connect 32 0 33 0;
#X connect 32 1 29 0;
#X connect 33 0 31 0;
#X connect 34 0 76 0;
#X connect 35 0 34 0;
#X connect 36 0 39 0;
#X connect 36 1 38 0;
#X connect 37 0 36 0;
#X connect 37 1 35 2;
#X connect 38 0 35 1;
#X connect 39 0 35 0;
#X connect 40 0 0 1;
#X connect 41 0 25 1;
#X connect 42 0 30 1;
#X connect 43 0 34 1;
#X connect 44 0 52 1;
#X connect 45 0 50 1;
#X connect 46 0 53 0;
#X connect 46 1 52 0;
#X connect 46 2 16 1;
#X connect 47 0 13 0;
#X connect 48 0 73 0;
#X connect 49 0 51 0;
#X connect 49 1 50 0;
#X connect 49 2 15 1;
#X connect 50 0 51 1;
#X connect 51 0 15 0;
#X connect 52 0 53 1;
#X connect 53 0 16 0;
#X connect 54 0 12 0;
#X connect 55 0 75 0;
#X connect 56 0 3 1;
#X connect 57 0 59 0;
#X connect 58 0 62 0;
#X connect 59 0 74 0;
#X connect 60 0 61 0;
#X connect 60 1 64 0;
#X connect 60 2 58 1;
#X connect 61 0 58 0;
#X connect 62 0 57 0;
#X connect 63 0 64 1;
#X connect 64 0 61 1;
#X connect 65 0 69 0;
#X connect 65 1 68 1;
#X connect 65 2 66 2;
#X connect 66 0 67 0;
#X connect 67 0 79 0;
#X connect 68 0 66 0;
#X connect 69 0 68 0;
#X connect 69 1 66 1;
#X connect 70 0 67 1;
#X restore 234 77 pd MIDI;
#X msg 77 143 \; pd dsp 1, f 10;
#X obj 77 114 delay 200;
#X connect 0 0 4 0;
#X connect 4 0 3 0;
