#N canvas 1006 782 690 265 10;
#X declare -path subpatches;
#X obj 76 75 loadbang;
#N canvas 140 53 922 604 audioIO 0;
#X obj 513 376 dac~;
#X obj 192 166 adc~, f 6;
#X obj 482 219 clip~ -1 1;
#X obj 571 219 clip~ -1 1;
#X obj 483 273 *~ 1;
#X obj 572 275 *~ 1;
#X text 137 376 removed : tb_peakcomp~ -3 8 10 100 0;
#X obj 481 128 catch~ ooutL;
#X obj 634 134 catch~ ooutR;
#X obj 285 244 s~ oinR;
#X obj 110 244 s~ oinL;
#X connect 1 0 10 0;
#X connect 1 1 9 0;
#X connect 2 0 4 0;
#X connect 3 0 5 0;
#X connect 4 0 0 0;
#X connect 5 0 0 1;
#X connect 7 0 2 0;
#X connect 8 0 3 0;
#X restore 155 77 pd audioIO;
#N canvas 766 64 1887 1239 MIDI 1;
#X obj 44 166 spigot 1;
#X obj 76 783 pgmin;
#X obj 76 892 spigot 1;
#X obj 169 860 loadbang;
#X obj 76 952 spigot 0;
#X msg 169 916 1;
#X obj 169 888 delay 500;
#X msg 169 944 0;
#X text 246 887 speed limit these;
#X obj 76 995 t f b b;
#X obj 534 196 >= 64;
#X obj 350 181 t f b;
#X obj 350 208 / 127;
#X obj 38 4 cnv 15 300 25 empty empty MIDI_IN 0 12 0 14 -4032 -66577
0;
#X obj 44 43 notein;
#X obj 357 372 ctlin;
#X obj 357 452 / 127;
#X msg 471 491 1;
#X msg 438 490 2;
#X obj 340 594 spigot 1;
#X obj 440 413 f;
#X obj 347 413 t b f;
#X obj 579 372 bendin;
#X obj 591 452 / 16383;
#X obj 565 594 spigot 1;
#X obj 579 416 t b f;
#X msg 559 452 0;
#X obj 734 594 spigot 1;
#X obj 748 418 t b f;
#X obj 748 372 touchin;
#X obj 760 452 / 127;
#X msg 728 452 3;
#X obj 112 114 r midiNoteGate;
#X obj 434 559 r midiCtrlGate;
#X obj 638 559 r midiCtrlGate;
#X obj 811 559 r midiCtrlGate;
#X obj 402 43 r midiExpCC;
#X obj 598 43 r midiFsCC;
#X obj 350 43 ctlin;
#X obj 350 154 change -1;
#X obj 534 227 change -1;
#X obj 534 43 ctlin;
#X obj 555 75 == 64;
#X obj 534 100 spigot 1;
#X obj 399 75 == 4;
#X obj 350 100 spigot 1;
#X obj 534 154 change -1;
#X obj 76 1023 change -1;
#X obj 169 832 r midiPgmGate;
#X obj 748 194 >= 64;
#X obj 748 227 change -1;
#X obj 748 43 ctlin;
#X obj 748 100 spigot 1;
#X obj 748 154 change -1;
#X obj 812 43 r midiAuxCC;
#X obj 769 73 == 69;
#X obj 109 372 ctlin;
#X obj 92 594 spigot 1;
#X obj 192 413 f;
#X obj 99 413 t b f;
#X obj 186 559 r midiCtrlGate;
#X obj 43 262 s onotes;
#X obj 350 261 s oexp;
#X obj 534 262 s ofs;
#X obj 748 262 s oaux;
#X obj 76 1050 s opgmChg;
#X obj 734 677 s octrl;
#X obj 565 677 s octrl;
#X obj 339 677 s octrl;
#X obj 91 677 s omidiCC;
#X obj 44 108 midisel3;
#X obj 92 530 midisel3;
#X obj 340 530 midisel3;
#X obj 565 530 midisel3;
#X obj 734 530 midisel3;
#X obj 350 127 midisel2;
#X obj 534 127 midisel2;
#X obj 748 127 midisel2;
#X obj 76 832 midisel2;
#X obj 1406 427 r midiCh;
#X obj 259 1245 >= 64;
#X obj 259 1278 change -1;
#X obj 259 1094 ctlin;
#X obj 259 1151 spigot 1;
#X obj 259 1205 change -1;
#X obj 259 1178 midisel2;
#X obj 280 1124 == 101;
#X obj 78 1245 >= 64;
#X obj 78 1278 change -1;
#X obj 78 1094 ctlin;
#X obj 78 1151 spigot 1;
#X obj 78 1205 change -1;
#X obj 78 1178 midisel2;
#X obj 259 1311 s onextpreset;
#X obj 78 1313 s oprevpreset;
#X obj 99 1124 == 100;
#X obj 458 1244 >= 64;
#X obj 458 1277 change -1;
#X obj 458 1093 ctlin;
#X obj 458 1150 spigot 1;
#X obj 458 1204 change -1;
#X obj 458 1177 midisel2;
#X obj 458 1310 s osavepreset;
#X obj 479 1123 == 102;
#X obj 401 990 change -1;
#X obj 401 806 ctlin;
#X obj 401 863 spigot 1;
#X obj 401 890 midisel2;
#X obj 401 1023 s oselectmodule;
#X obj 465 806 r midiSelectModuleCC;
#X obj 522 1093 r midiSavePresetCC;
#X obj 323 1094 r midiNextPresetCC;
#X obj 142 1094 r midiPrevPresetCC;
#X obj 422 836 == 0;
#X obj 439 452 route 74 1 123;
#X msg 506 491 123;
#X connect 0 0 61 0;
#X connect 1 0 78 0;
#X connect 1 1 78 1;
#X connect 2 0 4 0;
#X connect 3 0 6 0;
#X connect 4 0 9 0;
#X connect 5 0 4 1;
#X connect 6 0 5 0;
#X connect 7 0 4 1;
#X connect 9 0 47 0;
#X connect 9 1 6 0;
#X connect 9 2 7 0;
#X connect 10 0 40 0;
#X connect 11 0 12 0;
#X connect 12 0 62 0;
#X connect 14 0 70 0;
#X connect 14 1 70 1;
#X connect 14 2 70 2;
#X connect 15 0 21 0;
#X connect 15 1 20 1;
#X connect 15 2 72 2;
#X connect 16 0 72 1;
#X connect 17 0 72 0;
#X connect 18 0 72 0;
#X connect 19 0 68 0;
#X connect 20 0 114 0;
#X connect 21 0 20 0;
#X connect 21 1 16 0;
#X connect 22 0 25 0;
#X connect 22 1 73 2;
#X connect 23 0 73 1;
#X connect 24 0 67 0;
#X connect 25 0 26 0;
#X connect 25 1 23 0;
#X connect 26 0 73 0;
#X connect 27 0 66 0;
#X connect 28 0 31 0;
#X connect 28 1 30 0;
#X connect 29 0 28 0;
#X connect 29 1 74 2;
#X connect 30 0 74 1;
#X connect 31 0 74 0;
#X connect 32 0 0 1;
#X connect 33 0 19 1;
#X connect 34 0 24 1;
#X connect 35 0 27 1;
#X connect 36 0 44 1;
#X connect 37 0 42 1;
#X connect 38 0 45 0;
#X connect 38 1 44 0;
#X connect 38 2 75 1;
#X connect 39 0 11 0;
#X connect 40 0 63 0;
#X connect 41 0 43 0;
#X connect 41 1 42 0;
#X connect 41 2 76 1;
#X connect 42 0 43 1;
#X connect 43 0 76 0;
#X connect 44 0 45 1;
#X connect 45 0 75 0;
#X connect 46 0 10 0;
#X connect 47 0 65 0;
#X connect 48 0 2 1;
#X connect 49 0 50 0;
#X connect 50 0 64 0;
#X connect 51 0 52 0;
#X connect 51 1 55 0;
#X connect 51 2 77 1;
#X connect 52 0 77 0;
#X connect 53 0 49 0;
#X connect 54 0 55 1;
#X connect 55 0 52 1;
#X connect 56 0 59 0;
#X connect 56 1 58 1;
#X connect 56 2 71 2;
#X connect 57 0 69 0;
#X connect 58 0 71 0;
#X connect 59 0 58 0;
#X connect 59 1 71 1;
#X connect 60 0 57 1;
#X connect 70 0 0 0;
#X connect 71 0 57 0;
#X connect 72 0 19 0;
#X connect 73 0 24 0;
#X connect 74 0 27 0;
#X connect 75 0 39 0;
#X connect 76 0 46 0;
#X connect 77 0 53 0;
#X connect 78 0 2 0;
#X connect 79 0 70 3;
#X connect 79 0 75 2;
#X connect 79 0 76 2;
#X connect 79 0 77 2;
#X connect 79 0 78 2;
#X connect 79 0 71 3;
#X connect 79 0 72 3;
#X connect 79 0 73 3;
#X connect 79 0 74 3;
#X connect 79 0 107 2;
#X connect 79 0 101 2;
#X connect 79 0 85 2;
#X connect 79 0 92 2;
#X connect 80 0 81 0;
#X connect 81 0 93 0;
#X connect 82 0 83 0;
#X connect 82 1 86 0;
#X connect 82 2 85 1;
#X connect 83 0 85 0;
#X connect 84 0 80 0;
#X connect 85 0 84 0;
#X connect 86 0 83 1;
#X connect 87 0 88 0;
#X connect 88 0 94 0;
#X connect 89 0 90 0;
#X connect 89 1 95 0;
#X connect 89 2 92 1;
#X connect 90 0 92 0;
#X connect 91 0 87 0;
#X connect 92 0 91 0;
#X connect 95 0 90 1;
#X connect 96 0 97 0;
#X connect 97 0 102 0;
#X connect 98 0 99 0;
#X connect 98 1 103 0;
#X connect 98 2 101 1;
#X connect 99 0 101 0;
#X connect 100 0 96 0;
#X connect 101 0 100 0;
#X connect 103 0 99 1;
#X connect 104 0 108 0;
#X connect 105 0 106 0;
#X connect 105 1 113 0;
#X connect 105 2 107 1;
#X connect 106 0 107 0;
#X connect 107 0 104 0;
#X connect 109 0 113 1;
#X connect 110 0 103 1;
#X connect 111 0 86 1;
#X connect 112 0 95 1;
#X connect 113 0 106 1;
#X connect 114 0 18 0;
#X connect 114 1 17 0;
#X connect 114 2 115 0;
#X connect 115 0 72 0;
#X restore 234 77 pd MIDI;
#X msg 77 143 \; pd dsp 1, f 10;
#X obj 77 114 delay 200;
#X obj 325 78 declare -path subpatches;
#X connect 0 0 4 0;
#X connect 4 0 3 0;
