#N canvas 57 277 1366 898 10;
#X obj 88 610 spigot;
#X obj 404 618 spigot;
#X obj 663 621 spigot;
#X obj 925 620 spigot;
#X obj 85 468 inlet;
#X obj 663 646 s bela_digitalOut23 @hv_param;
#X obj 541 292 s bela_setDigital @hv_param;
#X obj 527 41 inlet trig;
#X obj 804 40 inlet enabled;
#X obj 540 209 route 1 0;
#X obj 540 184 pack 0 0;
#X obj 540 159 i;
#X obj 804 77 i;
#X msg 627 259 disable \$1;
#X obj 527 62 t b f;
#X msg 541 259 out \$1;
#X obj 521 393 swap;
#X obj 521 414 pack 0 0;
#X text 234 44 digital out 19 to 26;
#X obj 533 109 + 18;
#X obj 521 435 route 1 2 3 4 5 6 7 8;
#X obj 207 688 spigot;
#X obj 478 696 spigot;
#X obj 747 692 spigot;
#X obj 1040 698 spigot;
#X obj 88 640 s bela_digitalOut19 @hv_param;
#X obj 207 718 s bela_digitalOut20 @hv_param;
#X obj 404 641 s bela_digitalOut21 @hv_param;
#X obj 478 719 s bela_digitalOut22 @hv_param;
#X obj 747 717 s bela_digitalOut24 @hv_param;
#X obj 927 645 s bela_digitalOut25 @hv_param;
#X obj 1042 723 s bela_digitalOut26 @hv_param;
#X connect 0 0 25 0;
#X connect 1 0 27 0;
#X connect 2 0 5 0;
#X connect 3 0 30 0;
#X connect 4 0 1 0;
#X connect 4 0 3 0;
#X connect 4 0 2 0;
#X connect 4 0 0 0;
#X connect 7 0 14 0;
#X connect 8 0 12 0;
#X connect 9 0 15 0;
#X connect 9 1 13 0;
#X connect 10 0 9 0;
#X connect 10 0 16 0;
#X connect 11 0 10 1;
#X connect 12 0 10 0;
#X connect 13 0 6 0;
#X connect 14 0 12 0;
#X connect 14 1 19 0;
#X connect 15 0 6 0;
#X connect 16 0 17 0;
#X connect 16 1 17 1;
#X connect 17 0 20 0;
#X connect 19 0 11 0;
#X connect 20 0 0 1;
#X connect 20 1 21 1;
#X connect 20 2 1 1;
#X connect 20 3 22 1;
#X connect 20 4 2 1;
#X connect 20 5 23 1;
#X connect 20 6 3 1;
#X connect 20 7 24 1;
#X connect 21 0 26 0;
#X connect 22 0 28 0;
#X connect 23 0 29 0;
#X connect 24 0 31 0;
