#N canvas 88 473 1012 772 10;
#X obj 358 429 inlet~;
#X text 195 502 Only enable the corresponding output;
#X obj 447 292 s bela_setDigital @hv_param;
#X obj 433 41 inlet trig;
#X obj 710 40 inlet enabled;
#X obj 446 209 route 1 0;
#X obj 446 184 pack 0 0;
#X obj 446 159 i;
#X obj 710 77 i;
#X msg 533 259 disable \$1;
#X obj 433 62 t b f;
#X msg 447 259 out \$1 ~;
#X obj 460 331 swap;
#X obj 460 352 pack;
#X obj 441 95 + 18;
#X text 224 62 digital outputs 19-26;
#X obj 460 389 route 1 2 3 4 5 6 7 8;
#X obj 471 563 dac~ 19 20 21 22 23 24 25 26;
#X obj 461 506 *~ 0;
#X obj 513 505 *~ 0;
#X obj 487 525 *~ 0;
#X obj 539 524 *~ 0;
#X obj 571 506 *~ 0;
#X obj 598 529 *~ 0;
#X obj 650 528 *~ 0;
#X obj 623 505 *~ 0;
#X connect 0 0 18 0;
#X connect 0 0 24 0;
#X connect 0 0 23 0;
#X connect 0 0 22 0;
#X connect 0 0 21 0;
#X connect 0 0 20 0;
#X connect 0 0 19 0;
#X connect 0 0 25 0;
#X connect 3 0 10 0;
#X connect 4 0 8 0;
#X connect 5 0 11 0;
#X connect 5 1 9 0;
#X connect 6 0 5 0;
#X connect 6 0 12 0;
#X connect 7 0 6 1;
#X connect 8 0 6 0;
#X connect 9 0 2 0;
#X connect 10 0 8 0;
#X connect 10 1 14 0;
#X connect 11 0 2 0;
#X connect 12 0 13 0;
#X connect 12 1 13 1;
#X connect 13 0 16 0;
#X connect 14 0 7 0;
#X connect 16 0 18 1;
#X connect 16 1 20 1;
#X connect 16 2 19 1;
#X connect 16 3 21 1;
#X connect 16 4 22 1;
#X connect 16 5 23 1;
#X connect 16 6 25 1;
#X connect 16 7 24 1;
#X connect 18 0 17 0;
#X connect 19 0 17 2;
#X connect 20 0 17 1;
#X connect 21 0 17 3;
#X connect 22 0 17 4;
#X connect 23 0 17 5;
#X connect 24 0 17 7;
#X connect 25 0 17 6;
