#N canvas 417 804 952 503 10;
#X obj 283 449 outlet~;
#X obj 264 279 s bela_setDigital @hv_param;
#X obj 250 28 inlet trig;
#X obj 527 27 inlet enabled;
#X obj 263 196 route 1 0;
#X obj 263 171 pack 0 0;
#X obj 263 146 i;
#X obj 527 64 i;
#X msg 350 246 disable \$1;
#X obj 250 49 t b f;
#X msg 264 246 in \$1 ~;
#X text 28 49 digital inputs 11-18;
#X obj 262 85 + 10;
#X obj 256 370 adc~ 11 12 13 14 15 16 17 18;
#X connect 2 0 9 0;
#X connect 3 0 7 0;
#X connect 4 0 10 0;
#X connect 4 1 8 0;
#X connect 5 0 4 0;
#X connect 6 0 5 1;
#X connect 7 0 5 0;
#X connect 8 0 1 0;
#X connect 9 0 7 0;
#X connect 9 1 12 0;
#X connect 10 0 1 0;
#X connect 12 0 6 0;
#X connect 13 0 0 0;
#X connect 13 1 0 0;
#X connect 13 2 0 0;
#X connect 13 3 0 0;
#X connect 13 4 0 0;
#X connect 13 5 0 0;
#X connect 13 6 0 0;
#X connect 13 7 0 0;
