#N canvas 492 493 1296 766 10;
#X obj 264 279 s bela_setDigital @hv_param;
#X msg 264 246 in \$1;
#X obj 409 586 outlet;
#X obj 651 437 r bela_digitalIn14;
#X obj 250 28 inlet trig;
#X obj 527 27 inlet enabled;
#X obj 263 196 route 1 0;
#X obj 263 171 pack 0 0;
#X obj 263 146 i;
#X obj 525 87 i;
#X msg 350 246 disable \$1;
#X obj 250 49 t b f;
#X obj 263 89 + 10;
#X obj 218 437 r bela_digitalIn11;
#X obj 359 437 r bela_digitalIn12;
#X obj 506 437 r bela_digitalIn13;
#X obj 222 472 r bela_digitalIn15;
#X obj 363 472 r bela_digitalIn16;
#X obj 510 472 r bela_digitalIn17;
#X obj 655 472 r bela_digitalIn18;
#X text 80 88 digital inputs 11-18;
#X connect 1 0 0 0;
#X connect 3 0 2 0;
#X connect 4 0 11 0;
#X connect 5 0 9 0;
#X connect 6 0 1 0;
#X connect 6 1 10 0;
#X connect 7 0 6 0;
#X connect 8 0 7 1;
#X connect 9 0 7 0;
#X connect 10 0 0 0;
#X connect 11 0 9 0;
#X connect 11 1 12 0;
#X connect 12 0 8 0;
#X connect 13 0 2 0;
#X connect 14 0 2 0;
#X connect 15 0 2 0;
#X connect 16 0 2 0;
#X connect 17 0 2 0;
#X connect 18 0 2 0;
#X connect 19 0 2 0;
