#N canvas 272 368 2052 956 10;
#X obj 322 186 r notesIn-\$1;
#X obj 304 601 s notesOut-\$1;
#X obj 25 186 inlet~ inL-\$1;
#X obj 135 186 inlet~ inR-\$1;
#X obj 27 601 outlet~ outL-\$1;
#X obj 136 601 outlet~ outR-\$1;
#X obj 510 180 r auxIn-\$1;
#X obj 869 181 r expIn-\$1;
#X obj 869 206 r fsIn-\$1;
#X obj 509 441 r ctrlIn-\$1;
#X obj 504 600 s ctrlOut-\$1;
#X obj 785 387 midiout_p p1 \$1;
#X obj 785 411 midiout_p p2 \$1;
#X obj 785 436 midiout_p p3 \$1;
#X obj 783 461 midiout_p p4 \$1;
#X obj 321 375 spigot 1;
#X obj 321 523 noteout;
#X obj 366 258 r m_note_out-\$1;
#X obj 415 372 r m_midi_ch-\$1;
#X obj 321 451 unpack 0 0 0;
#X obj 585 236 r m_aux_note-\$1;
#X obj 549 264 f;
#X obj 484 296 pack 0 0;
#X obj 510 201 t b f;
#X obj 536 238 * 100;
#X connect 0 0 15 0;
#X connect 6 0 23 0;
#X connect 15 0 19 0;
#X connect 17 0 15 1;
#X connect 18 0 16 2;
#X connect 19 0 16 0;
#X connect 19 1 16 1;
#X connect 20 0 21 1;
#X connect 21 0 22 0;
#X connect 22 0 15 0;
#X connect 23 0 21 0;
#X connect 23 1 24 0;
#X connect 24 0 22 1;
