#N canvas 235 59 742 466 10;
#X obj 94 107 r oscIn;
#X obj 94 285 s \$1Desc;
#X msg 94 261 label \$1;
#X obj 94 237 symbol;
#X obj 209 104 r oscIn;
#X msg 208 262 label \$1;
#X obj 208 238 symbol;
#X obj 208 286 s \$1Value;
#X obj 328 103 r oscIn;
#X obj 329 283 s \$1Ctrl;
#X obj 416 109 r \$1Ctrl;
#X obj 417 236 pack s f;
#X obj 417 182 t b f;
#X obj 417 285 s oscOut;
#X obj 414 209 symbol \$1;
#X msg 417 257 send /\$1Ctrl \$2;
#X obj 73 167 route /\$1Desc;
#X obj 193 169 route /\$1Value;
#X obj 308 171 route /\$1Ctrl;
#X connect 0 0 16 0;
#X connect 2 0 1 0;
#X connect 3 0 2 0;
#X connect 4 0 17 0;
#X connect 5 0 7 0;
#X connect 6 0 5 0;
#X connect 8 0 18 0;
#X connect 10 0 12 0;
#X connect 11 0 15 0;
#X connect 12 0 14 0;
#X connect 12 1 11 1;
#X connect 14 0 11 0;
#X connect 15 0 13 0;
#X connect 16 0 3 0;
#X connect 17 0 6 0;
#X connect 18 0 9 0;
#X coords 0 466 1 465 100 100 0;
