#N canvas 780 175 1540 726 10;
#X obj 304 186 r notesIn-\$1;
#X obj 304 491 s notesOut-\$1;
#X obj 492 28 r loadbang-\$1;
#X obj 25 186 inlet~ inL-\$1;
#X obj 135 186 inlet~ inR-\$1;
#X obj 27 491 outlet~ outL-\$1;
#X obj 136 491 outlet~ outR-\$1;
#X obj 306 110 r auxIn-\$1;
#X obj 305 133 r expIn-\$1;
#X obj 305 158 r fsIn-\$1;
#X obj 398 186 r ctrlIn-\$1;
#X obj 398 491 s ctrlOut-\$1;
#N canvas 739 249 433 609 waveformReader 0;
#X obj 27 32 inlet;
#X obj 135 409 list prepend;
#X msg 99 136 128;
#X obj 99 158 until;
#X obj 104 203 f 0;
#X obj 260 416 t l;
#X obj 104 225 i;
#X obj 104 269 * 0.5;
#X obj 104 291 + 0.5;
#X obj 104 355 i;
#X msg 24 457 sendtyped /oled/gWaveform ib 3;
#X obj 88 513 list append;
#X obj 88 535 list trim;
#X obj 88 557 outlet;
#X obj 158 204 + 8;
#X msg 148 162 0;
#N canvas 4 50 450 250 (subpatch) 0;
#X array scope-\$1 1024 float 2;
#X coords 0 1 1024 -1 128 64 1 0 0;
#X restore 251 299 graph;
#X obj 76 94 t b b b b b b;
#X obj 254 188 inlet~;
#X obj 104 313 * 64;
#X obj 104 335 + 0;
#X obj 254 215 tabwrite~ scope-\$1;
#X obj 104 247 tabread scope-\$1;
#X connect 0 0 17 0;
#X connect 1 0 5 0;
#X connect 1 0 11 1;
#X connect 2 0 3 0;
#X connect 3 0 4 0;
#X connect 4 0 6 0;
#X connect 4 0 14 0;
#X connect 5 0 1 1;
#X connect 6 0 22 0;
#X connect 7 0 8 0;
#X connect 8 0 19 0;
#X connect 9 0 1 0;
#X connect 10 0 11 0;
#X connect 11 0 12 0;
#X connect 12 0 13 0;
#X connect 14 0 4 1;
#X connect 15 0 4 1;
#X connect 17 0 10 0;
#X connect 17 1 2 0;
#X connect 17 2 15 0;
#X connect 17 3 1 0;
#X connect 17 4 1 1;
#X connect 17 5 21 0;
#X connect 18 0 21 0;
#X connect 19 0 20 0;
#X connect 20 0 9 0;
#X connect 22 0 7 0;
#X restore 802 461 pd waveformReader;
#X obj 761 89 sel \$1;
#X msg 830 314 stop;
#X msg 931 461 /oled/gClear 3 1;
#X msg 703 461 /oled/gFlip 3;
#X obj 810 343 metro 100;
#X obj 799 61 unpack s s;
#X obj 799 40 r activePage;
#X obj 811 152 &&;
#X msg 862 119 1;
#X msg 905 119 0;
#X obj 810 249 sel 1 0;
#X msg 744 119 1;
#X msg 787 119 0;
#X obj 862 89 sel pg_main;
#X text 867 249 page and module is active;
#X obj 810 364 t b b b b;
#X msg 1056 462 /oled/gShowInfoBar 3 0;
#X msg 516 461 /oled/gShowInfoBar 3 1;
#X obj 839 283 t b b;
#X obj 969 350 s oscOutGate;
#X obj 811 187 t f f;
#X obj 773 572 s oscOutRaw;
#X connect 3 0 12 1;
#X connect 12 0 34 0;
#X connect 13 0 24 0;
#X connect 13 1 25 0;
#X connect 14 0 17 0;
#X connect 15 0 34 0;
#X connect 16 0 34 0;
#X connect 17 0 28 0;
#X connect 18 0 13 0;
#X connect 18 1 26 0;
#X connect 19 0 18 0;
#X connect 20 0 33 0;
#X connect 21 0 20 1;
#X connect 22 0 20 1;
#X connect 23 0 17 0;
#X connect 23 1 31 0;
#X connect 24 0 20 0;
#X connect 25 0 20 0;
#X connect 26 0 21 0;
#X connect 26 1 22 0;
#X connect 28 0 16 0;
#X connect 28 1 12 0;
#X connect 28 2 15 0;
#X connect 28 3 29 0;
#X connect 29 0 34 0;
#X connect 30 0 34 0;
#X connect 31 0 30 0;
#X connect 31 1 14 0;
#X connect 33 0 23 0;
#X connect 33 1 32 0;
