#N canvas 992 176 612 663 10;
#X obj 15 450 i, f 5;
#X obj 93 101 sel 0, f 8;
#X msg 93 153 0;
#X obj 89 58 unpack 0 0;
#N canvas 830 378 460 529 bang 0;
#X obj 34 291 f;
#X obj 64 291 + 1;
#X msg 52 267 0;
#X obj 56 126 t b b b, f 12;
#X obj 34 319 %, f 10;
#X obj 134 224 sel, f 6;
#X obj 173 156 t f f, f 14;
#X obj 173 182 - 1;
#X obj 56 34 inlet;
#X obj 34 490 outlet;
#X msg 87 155 0;
#X msg 56 154 1;
#X obj 34 361 expr 1 - ($f1 * (1 / $f2)), f 30;
#X obj 34 453 int;
#X text 84 12 bang when velocity is zero/release;
#X obj 34 383 t f f;
#X obj 34 405 *, f 5;
#X obj 241 329 + 1;
#X obj 213 41 inlet;
#X text 256 42 kill;
#X obj 213 63 b;
#X obj 34 85 r nr-\$1-speed-local;
#X obj 173 113 r nr-\$1-number-local;
#X obj 34 189 spigot 0;
#X obj 34 431 * 100;
#X connect 0 0 1 0;
#X connect 0 0 4 0;
#X connect 1 0 0 1;
#X connect 2 0 0 1;
#X connect 3 0 11 0;
#X connect 3 1 10 0;
#X connect 3 2 2 0;
#X connect 4 0 5 0;
#X connect 4 0 12 0;
#X connect 5 0 10 0;
#X connect 6 0 7 0;
#X connect 6 1 4 1;
#X connect 7 0 5 1;
#X connect 8 0 3 0;
#X connect 10 0 23 1;
#X connect 11 0 23 1;
#X connect 12 0 15 0;
#X connect 13 0 9 0;
#X connect 15 0 16 0;
#X connect 15 1 16 1;
#X connect 16 0 24 0;
#X connect 17 0 12 1;
#X connect 18 0 20 0;
#X connect 20 0 10 0;
#X connect 21 0 23 0;
#X connect 22 0 6 0;
#X connect 22 0 17 0;
#X connect 23 0 0 0;
#X connect 24 0 13 0;
#X restore 264 246 pd bang times;
#X obj 93 123 t b b;
#X obj 154 351 t b f;
#X obj 93 351 t b b;
#X obj 89 4 inlet;
#X obj 15 538 outlet;
#X obj 15 484 pack 0 0;
#X msg 143 159 1;
#X obj 143 123 t b b;
#X obj 15 64 stripnote;
#X obj 89 26 t a a;
#X obj 264 214 spigot;
#X obj 304 144 <= 0;
#X text 285 98 if voice number is 0 turn off;
#X obj 303 186 tgl 15 0 empty empty empty 17 7 0 10 -262144 -1 -1 1
1;
#X obj 304 166 ==;
#X obj 325 209 sel 0;
#X obj 304 120 r nr-\$1-number-local;
#X obj 93 184 r nr-\$1-speed-local;
#X obj 93 249 spigot 0;
#X msg 125 387 100;
#X obj 208 52 r nr-\$1-superkill;
#X msg 208 74 0;
#X connect 0 0 10 0;
#X connect 1 0 5 0;
#X connect 1 1 12 0;
#X connect 2 0 23 1;
#X connect 3 1 1 0;
#X connect 4 0 6 0;
#X connect 5 0 2 0;
#X connect 5 1 15 0;
#X connect 6 0 0 0;
#X connect 6 1 10 1;
#X connect 7 0 0 0;
#X connect 7 1 24 0;
#X connect 8 0 14 0;
#X connect 10 0 9 0;
#X connect 11 0 23 1;
#X connect 12 0 11 0;
#X connect 13 0 0 0;
#X connect 14 0 3 0;
#X connect 14 1 13 0;
#X connect 15 0 4 0;
#X connect 16 0 19 0;
#X connect 18 0 15 1;
#X connect 18 0 20 0;
#X connect 19 0 18 0;
#X connect 20 0 4 1;
#X connect 21 0 16 0;
#X connect 22 0 23 0;
#X connect 23 0 7 0;
#X connect 24 0 10 1;
#X connect 25 0 26 0;
#X connect 26 0 20 0;
#X connect 26 0 23 1;
