#N canvas 0 23 785 853 10;
#X obj 211 301 vline~;
#X obj 197 516 *~;
#X obj 165 348 cos~;
#X obj 181 218 t f f;
#X obj 165 328 *~;
#X msg 181 192 70;
#X obj 190 633 outlet~;
#X obj 246 680 switch~;
#X obj 246 632 env~;
#X obj 246 656 > 0.1;
#X msg 315 276 1;
#X obj 215 142 t b b b;
#X obj 215 88 inlet;
#X text 347 639 ajf;
#X obj 211 359 *~;
#X obj 197 493 cos~;
#X obj 161 655 s~ \$0-fb;
#X obj 100 350 r~ \$0-fb;
#X obj 150 399 +~;
#X obj 99 426 *~;
#X obj 212 384 *~;
#X obj 151 374 sig~ 5;
#X msg 237 196 6;
#X obj 181 244 /;
#X msg 211 279 1 0 0 \, 0 \$1 3;
#X text 317 527 efficient snare drum;
#X obj 215 113 sel 1;
#X obj 135 167 del 5;
#X msg 135 192 90;
#X obj 197 537 *~ 4;
#X obj 297 510 r s-gain-\$1;
#X obj 298 553 / 100;
#X obj 197 558 *~ 1;
#X connect 0 0 4 0;
#X connect 0 0 14 0;
#X connect 0 0 14 1;
#X connect 1 0 8 0;
#X connect 1 0 16 0;
#X connect 1 0 29 0;
#X connect 2 0 18 1;
#X connect 3 0 23 0;
#X connect 3 1 24 0;
#X connect 4 0 2 0;
#X connect 5 0 3 0;
#X connect 8 0 9 0;
#X connect 9 0 7 0;
#X connect 10 0 7 0;
#X connect 11 0 27 0;
#X connect 11 1 22 0;
#X connect 11 2 10 0;
#X connect 12 0 26 0;
#X connect 14 0 20 0;
#X connect 14 0 20 1;
#X connect 15 0 1 0;
#X connect 17 0 19 0;
#X connect 18 0 19 1;
#X connect 19 0 15 0;
#X connect 20 0 1 1;
#X connect 21 0 18 0;
#X connect 22 0 23 1;
#X connect 23 0 4 1;
#X connect 24 0 0 0;
#X connect 26 0 11 0;
#X connect 27 0 28 0;
#X connect 27 0 5 0;
#X connect 28 0 3 0;
#X connect 29 0 32 0;
#X connect 30 0 31 0;
#X connect 31 0 32 1;
#X connect 32 0 6 0;
