#N canvas 295 292 1572 758 10;
#X obj 476 48 r notesIn-\$1;
#X obj 334 615 s notesOut-\$1;
#X obj 18 130 inlet~ inL;
#X obj 103 130 inlet~ inR;
#X obj 132 615 outlet~ outR;
#X obj 18 615 outlet~ outL;
#X obj 203 131 r auxIn-\$1;
#X obj 202 154 r expIn-\$1;
#X obj 202 179 r fsIn-\$1;
#X obj 405 466 *~;
#X obj 598 461 *~;
#X obj 779 461 *~;
#X obj 420 435 / 127;
#X obj 794 432 / 127;
#X obj 405 302 spigot 0;
#X obj 478 175 float;
#X obj 478 125 t b f;
#X obj 598 300 spigot 0;
#X obj 779 300 spigot 0;
#X obj 598 333 > 0;
#X obj 781 333 > 0;
#X obj 689 333 tgl 15 0 empty empty empty 17 7 0 10 -262144 -1 -1 0
1;
#X obj 871 329 tgl 15 0 empty empty empty 17 7 0 10 -262144 -1 -1 0
1;
#X obj 502 337 tgl 15 0 empty empty empty 17 7 0 10 -262144 -1 -1 1
1;
#X obj 478 89 stripnote;
#X obj 613 422 / 127;
#X obj 95 522 *~ 1;
#X obj 405 326 > 0;
#X obj 405 361 nbx 5 14 -1e+37 1e+37 0 0 empty empty empty 0 -8 0 10
-262144 -1 -1 1 256;
#X obj 779 382 efficient-fmhh \$1;
#X obj 671 118 r ctrlIn-\$1;
#X obj 224 615 s ctrlOut-\$1;
#X obj 586 212 int;
#X obj 474 278 == 0;
#X obj 643 276 == 1;
#X obj 824 276 == 2;
#X obj 586 191 % 12;
#X obj 405 387 efficient-kick \$1;
#X obj 598 382 efficient-snare \$1;
#X connect 0 0 24 0;
#X connect 9 0 26 0;
#X connect 10 0 26 0;
#X connect 11 0 26 0;
#X connect 12 0 9 1;
#X connect 13 0 11 1;
#X connect 14 0 12 0;
#X connect 14 0 27 0;
#X connect 15 0 14 0;
#X connect 15 0 17 0;
#X connect 15 0 18 0;
#X connect 16 0 15 0;
#X connect 16 1 36 0;
#X connect 17 0 19 0;
#X connect 18 0 20 0;
#X connect 18 0 13 0;
#X connect 19 0 25 0;
#X connect 19 0 38 0;
#X connect 20 0 29 0;
#X connect 24 0 16 0;
#X connect 24 1 15 1;
#X connect 25 0 10 1;
#X connect 26 0 4 0;
#X connect 26 0 5 0;
#X connect 27 0 28 0;
#X connect 28 0 37 0;
#X connect 29 0 11 0;
#X connect 32 0 33 0;
#X connect 32 0 34 0;
#X connect 32 0 35 0;
#X connect 33 0 23 0;
#X connect 33 0 14 1;
#X connect 34 0 17 1;
#X connect 34 0 21 0;
#X connect 35 0 18 1;
#X connect 35 0 22 0;
#X connect 36 0 32 0;
#X connect 37 0 9 0;
#X connect 38 0 10 0;
