#N canvas 22 36 1448 1201 10;
#X obj 304 186 r notesIn-\$1;
#X obj 304 841 s notesOut-\$1;
#X obj 23 9 r loaddefs-\$1;
#X msg 23 76 loaddefinitions \$1;
#X obj 181 9 r loadbang-\$1;
#X obj 181 76 print loading definiton for \$1;
#X obj 23 41 symbol;
#X obj 25 186 inlet~ inL-\$1;
#X obj 135 186 inlet~ inR-\$1;
#X obj 27 841 outlet~ outL-\$1;
#X obj 136 841 outlet~ outR-\$1;
#X obj 424 185 r auxIn-\$1;
#X obj 423 208 r expIn-\$1;
#X obj 423 233 r fsIn-\$1;
#X msg 888 542 wet \$1;
#X msg 995 542 dry \$1;
#X obj 577 663 freeverb~;
#X msg 888 421 \$1 40;
#X msg 995 471 \$1 40;
#X obj 995 501 line 0 1;
#X obj 888 449 line 0 1;
#X obj 995 411 - 1;
#X obj 995 438 abs;
#X msg 574 425 \$1 40;
#X obj 574 453 line 0 1;
#X msg 575 542 roomsize \$1;
#X obj 573 397 * 0.9;
#X msg 739 413 \$1 40;
#X obj 739 441 line 0 1;
#X msg 737 542 damping \$1;
#X obj 995 378 * 0.5;
#X obj 448 547 hip~ 100;
#X obj 572 275 r rev_size-\$1;
#X obj 739 278 r rev_damp-\$1;
#X obj 995 278 r rev_dw-\$1;
#X obj 995 333 / 100;
#X obj 739 337 / 100;
#X obj 181 35 print loaded:reverb into \$1, f 35;
#X obj 23 110 KontrolModule \$1 F-reverb;
#X obj 574 336 / 100;
#X connect 2 0 6 0;
#X connect 2 0 5 0;
#X connect 3 0 38 0;
#X connect 4 0 37 0;
#X connect 6 0 3 0;
#X connect 7 0 31 0;
#X connect 14 0 16 0;
#X connect 15 0 16 0;
#X connect 16 0 9 0;
#X connect 16 1 10 0;
#X connect 17 0 20 0;
#X connect 18 0 19 0;
#X connect 19 0 15 0;
#X connect 20 0 14 0;
#X connect 21 0 22 0;
#X connect 22 0 18 0;
#X connect 23 0 24 0;
#X connect 24 0 25 0;
#X connect 25 0 16 0;
#X connect 26 0 23 0;
#X connect 27 0 28 0;
#X connect 28 0 29 0;
#X connect 29 0 16 0;
#X connect 30 0 21 0;
#X connect 30 0 17 0;
#X connect 31 0 16 0;
#X connect 31 0 16 1;
#X connect 32 0 39 0;
#X connect 33 0 36 0;
#X connect 34 0 35 0;
#X connect 35 0 30 0;
#X connect 36 0 27 0;
#X connect 39 0 26 0;
