#N canvas 17 50 997 660 10;
#X obj 364 212 sig~;
#X obj 158 308 *~ 1;
#X obj 532 263 lop~ 5;
#X obj 534 232 sig~;
#X obj 513 371 *~;
#X obj 157 111 inlet~;
#X obj 364 117 inlet;
#X obj 534 134 inlet;
#X obj 363 645 *~ 1;
#X obj 362 712 outlet~;
#X obj 363 325 vd~ \$0del 5000;
#X obj 157 558 delwrite~ \$0del 5000;
#X obj 363 264 lop~ \$1;
#X obj 534 327 *~ 0.99;
#X connect 0 0 12 0;
#X connect 1 0 8 0;
#X connect 1 0 11 0;
#X connect 2 0 13 0;
#X connect 3 0 2 0;
#X connect 4 0 11 0;
#X connect 4 0 8 0;
#X connect 5 0 1 0;
#X connect 6 0 0 0;
#X connect 7 0 3 0;
#X connect 8 0 9 0;
#X connect 10 0 4 0;
#X connect 12 0 10 0;
#X connect 13 0 4 1;
