#N canvas 504 365 2052 956 10;
#X obj 496 108 / 100;
#X obj 377 322 *;
#X obj 377 343 +;
#X obj 590 68 r m_offset_\$1-\$2;
#X obj 496 69 r m_amt_\$1-\$2;
#X obj 377 67 r m_\$1-\$2;
#X obj 377 112 / 100;
#X obj 377 373 clip -1 1;
#X obj 208 204 r m_ch_\$1-\$2;
#X msg 210 354 set \$1;
#X obj 376 560 dac~;
#X obj 377 394 sig~;
#X obj 377 216 f;
#X obj 496 129 t b f;
#X obj 590 129 t b f;
#X obj 208 225 t b f;
#X obj 377 133 * 2;
#X obj 377 154 - 1;
#X connect 0 0 13 0;
#X connect 1 0 2 0;
#X connect 2 0 7 0;
#X connect 3 0 14 0;
#X connect 4 0 0 0;
#X connect 5 0 6 0;
#X connect 6 0 16 0;
#X connect 7 0 11 0;
#X connect 8 0 15 0;
#X connect 9 0 10 0;
#X connect 11 0 10 0;
#X connect 12 0 1 0;
#X connect 13 0 12 0;
#X connect 13 1 1 1;
#X connect 14 0 12 0;
#X connect 14 1 2 1;
#X connect 15 0 12 0;
#X connect 15 1 9 0;
#X connect 16 0 17 0;
#X connect 17 0 12 0;
