#N canvas 20 64 1522 1074 10;
#X obj 304 186 r notesIn-\$1;
#X obj 304 681 s notesOut-\$1;
#X obj 25 186 inlet~ inL-\$1;
#X obj 135 186 inlet~ inR-\$1;
#X obj 27 681 outlet~ outL-\$1;
#X obj 136 681 outlet~ outR-\$1;
#X obj 424 185 r auxIn-\$1;
#X obj 423 208 r expIn-\$1;
#X obj 423 233 r fsIn-\$1;
#X obj 768 424 - 1;
#X obj 768 446 abs;
#X obj 680 493 e_tremolo mtrem;
#X text 698 74 C&G Tremolo Effects Module;
#X obj 768 401 / 100;
#X obj 722 300 r trem_freq-\$1;
#X obj 768 369 r trem_dw-\$1;
#X obj 423 267 r ctrlIn-\$1;
#X obj 423 293 s ctrlOut-\$1;
#X connect 2 0 11 0;
#X connect 9 0 10 0;
#X connect 10 0 11 2;
#X connect 11 0 4 0;
#X connect 11 0 5 0;
#X connect 13 0 9 0;
#X connect 14 0 11 1;
#X connect 15 0 13 0;
