#N canvas 97 92 1370 729 10;
#X obj 40 299 rngs~;
#X obj 798 251 / 100;
#X obj 902 271 / 100;
#X obj 1005 251 / 100;
#X obj 758 428 / 100;
#X msg 489 324 pitch \$1;
#X msg 798 302 structure \$1;
#X msg 902 302 brightness \$1;
#X msg 1005 302 damping \$1;
#X msg 758 464 position \$1;
#X msg 376 655 bypass \$1;
#X msg 237 655 easter_egg \$1;
#X msg 888 464 poly \$1;
#X msg 1001 464 model \$1;
#X msg 674 302 transpose \$1;
#X msg 776 651 gen_note \$1;
#X msg 635 654 gen_exciter \$1;
#X msg 490 655 gen_strum \$1;
#X msg 891 649 chord \$1;
#X msg 1044 650 fm \$1;
#X obj 553 263 > 0;
#X msg 553 302 trig \$1;
#X text 13 318 odd;
#X text 82 314 even;
#X obj 489 216 spigot 0;
#X obj 553 216 > 0;
#X obj 305 131 r notesIn-\$1;
#X obj 798 214 r rngs_struct-\$1;
#X obj 902 214 r rngs_bright-\$1;
#X obj 1005 214 r rngs_damp-\$1;
#X obj 758 391 r rngs_pos-\$1;
#X obj 888 392 r rngs_poly-\$1;
#X obj 1001 392 r rngs_model-\$1;
#X obj 237 561 r rngs_easter-\$1;
#X obj 376 561 r rngs_bypass-\$1;
#X obj 490 561 r rngs_i_strum-\$1;
#X obj 635 561 r rngs_i_exciter-\$1;
#X obj 776 561 r rngs_i_note-\$1;
#X obj 891 561 r rngs_chord-\$1;
#X obj 1044 562 r rngs_fm-\$1;
#X obj 635 783 s rngs_params-\$1;
#X obj 489 409 s rngs_params-\$1;
#X obj 888 521 s rngs_params-\$1;
#X obj 74 220 r rngs_params-\$1;
#X obj 305 434 s notesOut-\$1;
#X obj 18 130 inlet~ inL;
#X obj 104 437 outlet~ outR;
#X obj 11 435 outlet~ outL;
#X obj 103 130 inlet~ inR;
#X obj 203 131 r auxIn-\$1;
#X obj 202 154 r expIn-\$1;
#X obj 202 179 r fsIn-\$1;
#X obj 489 298 + 1.46;
#X text 399 267 pitch issue?;
#X obj 1188 37 r ctrlIn-\$1;
#X obj 204 424 s ctrlOut-\$1;
#X obj 1189 81 route 0 2;
#X obj 850 249 t b f;
#X obj 902 243 + 0;
#X obj 489 277 + 0;
#X obj 1190 204 t b f;
#X obj 674 214 r rngs_tune-\$1;
#X obj 489 247 + 0;
#X obj 659 172 r rngs_finetune-\$1;
#X obj 659 193 / 100;
#X obj 1008 60 r pb_range-\$1;
#X obj 1008 81 * 2;
#X obj 1190 183 * 2;
#X obj 798 281 + 0;
#X obj 1189 102 unpack 0 0;
#X obj 1189 123 - 0.5;
#X obj 478 178 poly 1 1;
#X connect 0 0 47 0;
#X connect 0 1 46 0;
#X connect 1 0 68 0;
#X connect 2 0 7 0;
#X connect 3 0 8 0;
#X connect 4 0 9 0;
#X connect 5 0 41 0;
#X connect 6 0 41 0;
#X connect 7 0 41 0;
#X connect 8 0 41 0;
#X connect 9 0 42 0;
#X connect 10 0 40 0;
#X connect 11 0 40 0;
#X connect 12 0 42 0;
#X connect 13 0 42 0;
#X connect 14 0 41 0;
#X connect 15 0 40 0;
#X connect 16 0 40 0;
#X connect 17 0 40 0;
#X connect 18 0 40 0;
#X connect 19 0 40 0;
#X connect 20 0 21 0;
#X connect 21 0 41 0;
#X connect 24 0 62 0;
#X connect 25 0 20 0;
#X connect 26 0 71 0;
#X connect 27 0 1 0;
#X connect 28 0 58 0;
#X connect 29 0 3 0;
#X connect 30 0 4 0;
#X connect 31 0 12 0;
#X connect 32 0 13 0;
#X connect 33 0 11 0;
#X connect 34 0 10 0;
#X connect 35 0 17 0;
#X connect 36 0 16 0;
#X connect 37 0 15 0;
#X connect 38 0 18 0;
#X connect 39 0 19 0;
#X connect 43 0 0 0;
#X connect 45 0 0 0;
#X connect 52 0 5 0;
#X connect 54 0 56 0;
#X connect 56 0 69 0;
#X connect 56 1 57 0;
#X connect 57 0 68 0;
#X connect 57 1 68 1;
#X connect 58 0 2 0;
#X connect 59 0 52 0;
#X connect 60 0 59 0;
#X connect 60 1 59 1;
#X connect 61 0 14 0;
#X connect 62 0 59 0;
#X connect 63 0 64 0;
#X connect 64 0 62 1;
#X connect 65 0 66 0;
#X connect 66 0 67 1;
#X connect 67 0 60 0;
#X connect 68 0 6 0;
#X connect 69 0 70 0;
#X connect 70 0 67 0;
#X connect 71 1 24 0;
#X connect 71 2 25 0;
#X connect 71 2 24 1;
