#N canvas 12 136 1370 729 10;
#X obj 295 128 r notesIn-\$1;
#X obj 295 607 s notesOut-\$1;
#X obj 101 127 inlet~ inR;
#X obj 16 126 inlet~ inL;
#X obj 9 612 outlet~ outL;
#X obj 93 612 outlet~ outR;
#X obj 203 131 r auxIn-\$1;
#X obj 202 154 r expIn-\$1;
#X obj 202 179 r fsIn-\$1;
#X obj 47 346 wrps~;
#X obj 130 244 r wrps_param-\$1;
#X msg 712 118 shape \$1;
#X msg 828 118 algo \$1;
#X msg 921 118 timbre \$1;
#X msg 393 308 note \$1;
#X obj 393 267 + 1;
#X obj 828 76 / 100;
#X obj 921 76 / 100;
#X obj 634 76 > 0.5;
#X msg 1050 116 drive1 \$1;
#X msg 1167 116 drive2 \$1;
#X obj 1050 76 / 100;
#X obj 1167 76 / 100;
#X obj 924 370 s wrps_param-\$1;
#X obj 713 34 r w_shape-\$1;
#X obj 828 36 r w_algo-\$1;
#X obj 921 36 r w_timbre-\$1;
#X obj 340 264 > 0;
#X obj 340 350 tgl 15 0 empty empty empty 17 7 0 10 -262144 -1 -1 0
1;
#X obj 340 292 +;
#X obj 340 321 > 0;
#X obj 474 453 adsr 1 10 100 50 500;
#X obj 474 506 *~;
#X obj 520 417 r e_attack-\$1;
#X obj 605 417 r e_decay-\$1;
#X obj 694 417 r e_sustain-\$1;
#X obj 793 417 r e_release-\$1;
#X obj 40 545 *~;
#X obj 79 545 *~;
#X obj 634 119 t b f;
#X obj 1050 36 r w_drive1-\$1;
#X obj 1167 36 r w_drive2-\$1;
#X obj 634 36 r w_gate-\$1;
#X obj 434 127 r ctrlIn-\$1;
#X obj 417 609 s ctrlOut-\$1;
#X obj 295 207 poly 1 1;
#X obj 432 156 unpack 0 0 0;
#X obj 432 177 sel 123;
#X msg 432 198 stop;
#X connect 0 0 45 0;
#X connect 2 0 9 1;
#X connect 3 0 9 0;
#X connect 9 0 37 0;
#X connect 9 1 38 0;
#X connect 10 0 9 0;
#X connect 11 0 23 0;
#X connect 12 0 23 0;
#X connect 13 0 23 0;
#X connect 14 0 23 0;
#X connect 15 0 14 0;
#X connect 16 0 12 0;
#X connect 17 0 13 0;
#X connect 18 0 39 0;
#X connect 19 0 23 0;
#X connect 20 0 23 0;
#X connect 21 0 19 0;
#X connect 22 0 20 0;
#X connect 24 0 11 0;
#X connect 25 0 16 0;
#X connect 26 0 17 0;
#X connect 27 0 29 0;
#X connect 28 0 31 0;
#X connect 29 0 30 0;
#X connect 30 0 28 0;
#X connect 31 0 32 1;
#X connect 31 0 32 0;
#X connect 32 0 38 1;
#X connect 32 0 37 1;
#X connect 33 0 31 2;
#X connect 34 0 31 3;
#X connect 35 0 31 4;
#X connect 36 0 31 5;
#X connect 37 0 4 0;
#X connect 38 0 5 0;
#X connect 39 0 29 0;
#X connect 39 1 29 1;
#X connect 40 0 21 0;
#X connect 41 0 22 0;
#X connect 42 0 18 0;
#X connect 43 0 46 0;
#X connect 45 1 15 0;
#X connect 45 2 27 0;
#X connect 46 0 47 0;
#X connect 47 0 48 0;
#X connect 48 0 45 0;
