#N canvas 166 447 1572 758 10;
#X obj 608 474 *~ 0.3;
#X obj 423 262 pack 0 0 0;
#X obj 423 286 route 1 2 3 4;
#X obj 423 238 poly 4 1;
#X obj 421 44 r notesIn-\$1;
#X obj 240 575 s notesOut-\$1;
#X obj 523 433 voice \$1;
#X obj 579 433 voice \$1;
#X obj 636 433 voice \$1;
#X obj 692 433 voice \$1;
#X obj 18 130 inlet~ inL;
#X obj 103 130 inlet~ inR;
#X obj 133 572 outlet~ outR;
#X obj 19 572 outlet~ outL;
#X obj 203 131 r auxIn-\$1;
#X obj 202 154 r expIn-\$1;
#X obj 202 179 r fsIn-\$1;
#N canvas 324 629 450 300 route 0;
#X obj 69 97 unpack 0 0 0;
#X obj 68 68 t l l;
#X obj 68 197 list;
#X obj 139 144 t b;
#X obj 139 123 route 1 0;
#X obj 226 163 unpack 0 0 0;
#X obj 226 194 pack 0 0 0;
#X obj 68 19 inlet msg;
#X obj 68 218 outlet global;
#X obj 226 215 outlet voice;
#X obj 187 162 - 1;
#X connect 0 2 4 0;
#X connect 1 0 0 0;
#X connect 1 1 2 1;
#X connect 1 1 5 0;
#X connect 2 0 8 0;
#X connect 3 0 2 0;
#X connect 4 0 3 0;
#X connect 4 1 3 0;
#X connect 4 2 10 0;
#X connect 5 0 6 1;
#X connect 5 1 6 2;
#X connect 6 0 9 0;
#X connect 7 0 1 0;
#X connect 10 0 6 0;
#X restore 423 179 pd route;
#N canvas 324 629 450 300 route 0;
#X obj 69 97 unpack 0 0 0;
#X obj 68 68 t l l;
#X obj 68 197 list;
#X obj 139 144 t b;
#X obj 139 123 route 1 0;
#X obj 234 171 unpack 0 0 0;
#X obj 234 202 pack 0 0 0;
#X obj 68 19 inlet msg;
#X obj 68 218 outlet global;
#X obj 234 223 outlet voice;
#X obj 190 158 - 1;
#X connect 0 2 4 0;
#X connect 1 0 0 0;
#X connect 1 1 2 1;
#X connect 1 1 5 0;
#X connect 2 0 8 0;
#X connect 3 0 2 0;
#X connect 4 0 3 0;
#X connect 4 1 3 0;
#X connect 4 2 10 0;
#X connect 5 0 6 1;
#X connect 5 1 6 2;
#X connect 6 0 9 0;
#X connect 7 0 1 0;
#X connect 10 0 6 0;
#X restore 669 177 pd route;
#X obj 607 98 r ctrlIn-\$1;
#X obj 753 288 route 1 2 3 4;
#X obj 339 577 s ctrlOut-\$1;
#X obj 523 160 unpack 0 0 0;
#X obj 523 181 sel 123;
#X msg 523 202 stop;
#X connect 0 0 12 0;
#X connect 0 0 13 0;
#X connect 1 0 2 0;
#X connect 2 0 6 0;
#X connect 2 1 7 0;
#X connect 2 2 8 0;
#X connect 2 3 9 0;
#X connect 3 0 1 0;
#X connect 3 1 1 1;
#X connect 3 2 1 2;
#X connect 4 0 17 0;
#X connect 6 0 0 0;
#X connect 7 0 0 0;
#X connect 8 0 0 0;
#X connect 9 0 0 0;
#X connect 17 0 3 0;
#X connect 17 1 2 0;
#X connect 18 0 6 1;
#X connect 18 0 9 1;
#X connect 18 0 8 1;
#X connect 18 0 7 1;
#X connect 18 1 20 0;
#X connect 19 0 18 0;
#X connect 19 0 22 0;
#X connect 20 0 6 1;
#X connect 20 1 7 1;
#X connect 20 2 8 1;
#X connect 20 3 9 1;
#X connect 22 0 23 0;
#X connect 23 0 24 0;
#X connect 24 0 3 0;
