#N canvas 1778 266 1481 712 10;
#X obj 443 528 bob~;
#X obj 441 432 *~;
#X obj 542 122 unpack 0 0;
#X obj 689 481 sig~;
#X obj 795 285 adsr 1 10 100 50 500;
#X obj 454 487 +~ 100;
#X obj 544 320 *~;
#X obj 686 419 lop~ 5;
#X obj 443 573 outlet~;
#X obj 441 398 brds~;
#X msg 167 155 shape \$1;
#X msg 82 156 colour \$1;
#X msg 83 325 timbre \$1;
#X msg 451 319 pitch \$1;
#X obj 451 269 * 128;
#X obj 601 459 +~;
#X obj 601 398 *~ 15000;
#X obj 802 420 / 100;
#X obj 802 444 * 3.7;
#X obj 1156 105 / 100;
#X obj 70 244 / 100;
#X obj 82 120 / 100;
#X obj 167 114 / 47;
#X obj 1112 283 adsr 1 10 100 50 500;
#X obj 470 117 stripnote;
#X obj 584 327 / 127;
#X obj 768 352 *~;
#X obj 517 378 *~;
#X obj 81 74 r o_colour-\$1;
#X obj 167 74 r o_shape-\$1;
#X obj 948 83 r e_attack-\$1;
#X obj 948 105 r e_decay-\$1;
#X obj 948 131 r e_sustain-\$1;
#X obj 948 155 r e_release-\$1;
#X obj 1156 83 r f_env_amt-\$1;
#X obj 1263 83 r f_attack-\$1;
#X obj 1263 107 r f_decay-\$1;
#X obj 1263 131 r f_sustain-\$1;
#X obj 1263 155 r f_release-\$1;
#X obj 802 396 r f_reson-\$1;
#X obj 686 397 r f_cutoff-\$1;
#X obj 70 216 r o_timbre-\$1;
#X obj 477 66 inlet notes;
#X obj 714 80 inlet ctrl;
#X obj 713 151 - 0.5;
#X obj 713 195 t b f;
#X obj 452 171 + 0;
#X obj 70 290 + 0, f 5;
#X obj 124 260 t b f;
#X obj 452 202 + 0;
#X obj 820 98 r pb_range-\$1;
#X obj 820 119 * 2;
#X obj 713 172 * 2;
#X obj 714 108 route 0 2 123;
#X msg 805 160 0;
#X obj 229 198 / 100;
#X obj 229 231 * 0.25;
#X obj 229 177 r y_depth-\$1;
#X obj 260 66 r o_transpose-\$1;
#X obj 346 92 r o_fine_tune-\$1;
#X obj 346 113 / 100;
#X obj 385 222 +;
#X obj 346 134 t b f;
#X connect 0 0 8 0;
#X connect 1 0 0 0;
#X connect 2 1 4 0;
#X connect 2 1 23 0;
#X connect 3 0 0 2;
#X connect 4 0 6 1;
#X connect 4 0 6 0;
#X connect 5 0 0 1;
#X connect 6 0 27 0;
#X connect 7 0 15 1;
#X connect 9 0 1 0;
#X connect 10 0 9 0;
#X connect 11 0 9 0;
#X connect 12 0 9 0;
#X connect 13 0 9 0;
#X connect 14 0 13 0;
#X connect 15 0 5 0;
#X connect 16 0 15 0;
#X connect 17 0 18 0;
#X connect 18 0 3 0;
#X connect 19 0 26 1;
#X connect 20 0 47 0;
#X connect 21 0 11 0;
#X connect 22 0 10 0;
#X connect 23 0 26 0;
#X connect 24 0 46 0;
#X connect 24 1 25 0;
#X connect 25 0 27 1;
#X connect 26 0 16 0;
#X connect 27 0 1 1;
#X connect 28 0 21 0;
#X connect 29 0 22 0;
#X connect 30 0 4 2;
#X connect 31 0 4 3;
#X connect 32 0 4 4;
#X connect 33 0 4 5;
#X connect 34 0 19 0;
#X connect 35 0 23 2;
#X connect 36 0 23 3;
#X connect 37 0 23 4;
#X connect 38 0 23 5;
#X connect 39 0 17 0;
#X connect 40 0 7 0;
#X connect 41 0 20 0;
#X connect 42 0 2 0;
#X connect 42 0 24 0;
#X connect 43 0 53 0;
#X connect 44 0 52 0;
#X connect 45 0 46 0;
#X connect 45 1 46 1;
#X connect 46 0 49 0;
#X connect 47 0 12 0;
#X connect 48 0 47 0;
#X connect 48 1 47 1;
#X connect 49 0 14 0;
#X connect 50 0 51 0;
#X connect 51 0 52 1;
#X connect 52 0 45 0;
#X connect 53 0 44 0;
#X connect 53 1 56 0;
#X connect 53 2 54 0;
#X connect 54 0 4 0;
#X connect 55 0 56 1;
#X connect 56 0 48 0;
#X connect 57 0 55 0;
#X connect 58 0 61 0;
#X connect 59 0 60 0;
#X connect 60 0 62 0;
#X connect 61 0 49 1;
#X connect 62 0 61 0;
#X connect 62 1 61 1;
