#N canvas 1098 377 1047 909 10;
#X obj 46 334 spigot 1;
#X obj 313 443 == 0;
#X obj 46 402 s;
#X obj 449 83 r loadbang-\$1;
#X obj 451 173 t b;
#X obj 849 686 s;
#X msg 897 589 fsIn-\$1;
#X obj 672 686 s;
#X msg 720 589 expIn-\$1;
#X obj 504 688 s;
#X msg 566 591 auxIn-\$1;
#X text 44 191 fixme: we probably need to turn all notes (etc) off
when switch modules!, f 26;
#X text 58 14 Active module handling for notes etc;
#X obj 504 638 spigot 1;
#X obj 25 685 s;
#X obj 897 638 symbol fsIn-p1;
#X obj 566 638 symbol auxIn-p1;
#X obj 720 638 symbol expIn-p1;
#X obj 42 79 inlet mod;
#X text 237 483 if encbutton press ignore \, as used for shortcut;
#X obj 784 269 r activeModule;
#X obj 784 295 symbol;
#X text 557 735 for now these ALWAYS go to the active module;
#X obj 46 246 r onotes;
#X obj 25 622 r octrl;
#X obj 313 391 r oencbut;
#X obj 503 591 r oaux;
#X obj 673 589 r oexp;
#X obj 849 589 r ofs;
#X obj 133 250 pack s s;
#X msg 133 287 actnote-\$1-\$2;
#X obj 250 188 symbol \$1;
#X obj 133 324 symbol actnote-a1-s1;
#X obj 94 578 pack s s;
#X obj 94 646 symbol actctrl-a1-s1;
#X msg 94 612 actctrl-\$1-\$2;
#X connect 0 0 2 0;
#X connect 1 0 0 1;
#X connect 1 0 13 1;
#X connect 3 0 4 0;
#X connect 3 0 31 0;
#X connect 4 0 15 0;
#X connect 4 0 16 0;
#X connect 4 0 17 0;
#X connect 4 0 32 0;
#X connect 4 0 34 0;
#X connect 6 0 15 0;
#X connect 8 0 17 0;
#X connect 10 0 16 0;
#X connect 13 0 9 0;
#X connect 15 0 5 1;
#X connect 16 0 9 1;
#X connect 17 0 7 1;
#X connect 18 0 29 0;
#X connect 18 0 33 0;
#X connect 20 0 21 0;
#X connect 21 0 10 0;
#X connect 21 0 8 0;
#X connect 21 0 6 0;
#X connect 23 0 0 0;
#X connect 24 0 14 0;
#X connect 25 0 1 0;
#X connect 26 0 13 0;
#X connect 27 0 7 0;
#X connect 28 0 5 0;
#X connect 29 0 30 0;
#X connect 30 0 32 0;
#X connect 31 0 29 1;
#X connect 31 0 33 1;
#X connect 32 0 2 1;
#X connect 33 0 35 0;
#X connect 34 0 14 1;
#X connect 35 0 34 0;
