#N canvas 1098 306 1047 909 10;
#X msg 144 333 notesIn-\$1;
#X obj 46 334 spigot 1;
#X obj 313 443 == 0;
#X obj 46 402 s;
#X obj 449 83 r loadbang-\$1;
#X obj 451 173 t b;
#X obj 849 686 s;
#X msg 897 589 fsIn-\$1;
#X obj 672 686 s;
#X msg 720 589 expIn-\$1;
#X obj 504 688 s;
#X msg 566 591 auxIn-\$1;
#X text 44 191 fixme: we probably need to turn all notes (etc) off
when switch modules!, f 26;
#X text 58 14 Active module handling for notes etc;
#X obj 504 638 spigot 1;
#X obj 44 544 s;
#X msg 110 481 ctrlIn-\$1;
#X obj 897 638 symbol fsIn-p1;
#X obj 566 638 symbol auxIn-p1;
#X obj 110 518 symbol ctrlIn-p1;
#X obj 720 638 symbol expIn-p1;
#X obj 144 370 symbol notesIn-p1;
#X obj 42 79 inlet mod;
#X text 237 483 if encbutton press ignore \, as used for shortcut;
#X obj 784 269 r activeModule;
#X obj 784 295 symbol;
#X text 557 735 for now these ALWAYS go to the active module;
#X obj 46 246 r onotes;
#X obj 44 481 r octrl;
#X obj 313 391 r oencbut;
#X obj 503 591 r oaux;
#X obj 673 589 r oexp;
#X obj 849 589 r ofs;
#X connect 0 0 21 0;
#X connect 1 0 3 0;
#X connect 2 0 1 1;
#X connect 2 0 14 1;
#X connect 4 0 5 0;
#X connect 5 0 17 0;
#X connect 5 0 18 0;
#X connect 5 0 20 0;
#X connect 5 0 21 0;
#X connect 5 0 19 0;
#X connect 7 0 17 0;
#X connect 9 0 20 0;
#X connect 11 0 18 0;
#X connect 14 0 10 0;
#X connect 16 0 19 0;
#X connect 17 0 6 1;
#X connect 18 0 10 1;
#X connect 19 0 15 1;
#X connect 20 0 8 1;
#X connect 21 0 3 1;
#X connect 22 0 0 0;
#X connect 22 0 16 0;
#X connect 24 0 25 0;
#X connect 25 0 11 0;
#X connect 25 0 9 0;
#X connect 25 0 7 0;
#X connect 27 0 1 0;
#X connect 28 0 15 0;
#X connect 29 0 2 0;
#X connect 30 0 14 0;
#X connect 31 0 8 0;
#X connect 32 0 6 0;
