#N canvas 662 368 1047 909 10;
#X obj 35 128 r notes;
#X obj 414 38 r activeModule;
#X obj 414 94 symbol;
#X msg 133 215 notesIn-\$1;
#X obj 35 216 spigot 1;
#X obj 89 177 == 0;
#X obj 89 128 r encbut;
#X obj 55 284 s;
#X obj 557 37 r loadbang-\$1;
#X obj 557 86 t b;
#X obj 661 402 r fs;
#X obj 661 459 s;
#X msg 709 402 fsIn-\$1;
#X obj 843 464 s;
#X obj 843 393 r exp;
#X msg 890 394 expIn-\$1;
#X obj 261 288 s;
#X msg 323 212 auxIn-\$1;
#X text 48 318 fixme: we probably need to turn all notes (etc) off
when switch modules!, f 26;
#N canvas 792 251 898 1064 auxhandling 1;
#X obj 126 225 s agClear;
#X obj 126 244 r agClear;
#X obj 226 225 s agClear;
#X obj 226 244 r agClear;
#X obj 326 225 s agClear;
#X obj 326 244 r agClear;
#X obj 426 225 s agClear;
#X obj 426 244 r agClear;
#X obj 536 225 s agClear;
#X obj 536 244 r agClear;
#X obj 127 425 s agClear;
#X obj 127 444 r agClear;
#X obj 227 425 s agClear;
#X obj 227 444 r agClear;
#X obj 327 425 s agClear;
#X obj 327 444 r agClear;
#X obj 427 425 s agClear;
#X obj 427 444 r agClear;
#X obj 537 425 s agClear;
#X obj 537 444 r agClear;
#X obj 261 38 inlet module;
#X obj 87 192 t b b 0;
#X obj 187 192 t b b 0;
#X obj 287 192 t b b 0;
#X obj 387 192 t b b 0;
#X obj 497 192 t b b 0;
#X obj 88 392 t b b 0;
#X obj 188 392 t b b 0;
#X obj 288 392 t b b 0;
#X obj 388 392 t b b 0;
#X obj 498 392 t b b 0;
#X obj 240 122 select a1 a2 a3 b1 b2 b3 b4 c1 c2 c3 p1 p2 s1 s2;
#X obj 87 344 auxgate a1;
#X obj 187 344 auxgate a2;
#X obj 287 344 auxgate a3;
#X obj 387 344 auxgate b1;
#X obj 497 344 auxgate b2;
#X obj 88 544 auxgate b3;
#X obj 188 544 auxgate b4;
#X obj 288 544 auxgate c1;
#X obj 388 543 auxgate c2;
#X obj 498 544 auxgate c3;
#X obj 141 606 s agClear;
#X obj 141 625 r agClear;
#X obj 241 606 s agClear;
#X obj 241 625 r agClear;
#X obj 341 606 s agClear;
#X obj 341 625 r agClear;
#X obj 441 606 s agClear;
#X obj 441 625 r agClear;
#X obj 102 573 t b b 0;
#X obj 202 573 t b b 0;
#X obj 302 573 t b b 0;
#X obj 402 573 t b b 0;
#X obj 302 725 auxgate s1;
#X obj 202 725 auxgate p2;
#X obj 102 725 auxgate p1;
#X obj 402 724 auxgate s2;
#X connect 1 0 32 1;
#X connect 3 0 33 1;
#X connect 5 0 34 1;
#X connect 7 0 35 1;
#X connect 9 0 36 1;
#X connect 11 0 37 1;
#X connect 13 0 38 1;
#X connect 15 0 39 1;
#X connect 17 0 40 1;
#X connect 19 0 41 1;
#X connect 20 0 31 0;
#X connect 21 0 32 0;
#X connect 21 1 32 1;
#X connect 21 2 0 0;
#X connect 22 0 33 0;
#X connect 22 1 33 1;
#X connect 22 2 2 0;
#X connect 23 0 34 0;
#X connect 23 1 34 1;
#X connect 23 2 4 0;
#X connect 24 0 35 0;
#X connect 24 1 35 1;
#X connect 24 2 6 0;
#X connect 25 0 36 0;
#X connect 25 1 36 1;
#X connect 25 2 8 0;
#X connect 26 0 37 0;
#X connect 26 1 37 1;
#X connect 26 2 10 0;
#X connect 27 0 38 0;
#X connect 27 1 38 1;
#X connect 27 2 12 0;
#X connect 28 0 39 0;
#X connect 28 1 39 1;
#X connect 28 2 14 0;
#X connect 29 0 40 0;
#X connect 29 1 40 1;
#X connect 29 2 16 0;
#X connect 30 0 41 0;
#X connect 30 1 41 1;
#X connect 30 2 18 0;
#X connect 31 0 21 0;
#X connect 31 1 22 0;
#X connect 31 2 23 0;
#X connect 31 3 24 0;
#X connect 31 4 25 0;
#X connect 31 5 26 0;
#X connect 31 6 27 0;
#X connect 31 7 28 0;
#X connect 31 8 29 0;
#X connect 31 9 30 0;
#X connect 31 10 50 0;
#X connect 31 11 51 0;
#X connect 31 12 52 0;
#X connect 31 13 53 0;
#X connect 43 0 56 1;
#X connect 45 0 55 1;
#X connect 47 0 54 1;
#X connect 49 0 57 1;
#X connect 50 0 56 0;
#X connect 50 1 56 1;
#X connect 50 2 42 0;
#X connect 51 0 55 0;
#X connect 51 1 55 1;
#X connect 51 2 44 0;
#X connect 52 0 54 0;
#X connect 52 1 54 1;
#X connect 52 2 46 0;
#X connect 53 0 57 0;
#X connect 53 1 57 1;
#X connect 53 2 48 0;
#X restore 500 423 pd auxhandling;
#X text 58 14 Active module handling for notes etc;
#X text 493 399 handle aux label and led;
#X text 31 107 if encbutton press ignore \, as used for shortcut;
#X obj 262 213 spigot 1;
#X obj 262 125 r aux;
#X obj 62 467 spigot 1;
#X obj 116 428 == 0;
#X obj 61 535 s;
#X msg 160 466 ctrlIn-\$1;
#X obj 62 379 r ctrl;
#X obj 709 438 symbol fsIn-p1;
#X obj 323 248 symbol auxIn-p1;
#X obj 160 503 symbol ctrlIn-p1;
#X obj 890 430 symbol expIn-p1;
#X obj 133 252 symbol notesIn-p1;
#X connect 0 0 4 0;
#X connect 1 0 2 0;
#X connect 2 0 3 0;
#X connect 2 0 12 0;
#X connect 2 0 15 0;
#X connect 2 0 17 0;
#X connect 2 0 19 0;
#X connect 2 0 28 0;
#X connect 3 0 34 0;
#X connect 4 0 7 0;
#X connect 5 0 4 1;
#X connect 5 0 23 1;
#X connect 5 0 26 0;
#X connect 6 0 5 0;
#X connect 8 0 9 0;
#X connect 9 0 30 0;
#X connect 9 0 31 0;
#X connect 9 0 33 0;
#X connect 9 0 34 0;
#X connect 10 0 11 0;
#X connect 12 0 30 0;
#X connect 14 0 13 0;
#X connect 15 0 33 0;
#X connect 17 0 31 0;
#X connect 23 0 16 0;
#X connect 24 0 23 0;
#X connect 25 0 27 0;
#X connect 26 0 25 1;
#X connect 28 0 32 0;
#X connect 29 0 25 0;
#X connect 30 0 11 1;
#X connect 31 0 16 1;
#X connect 32 0 27 1;
#X connect 33 0 13 1;
#X connect 34 0 7 1;
