#N canvas 662 368 1047 909 10;
#X obj 35 128 r notes;
#X obj 414 38 r activeModule;
#X obj 414 94 symbol;
#X msg 133 215 notesIn-\$1;
#X obj 35 216 spigot 1;
#X obj 89 177 == 0;
#X obj 89 128 r encbut;
#X obj 55 284 s;
#X obj 557 37 r loadbang-\$1;
#X obj 557 86 t b;
#X obj 661 402 r fs;
#X obj 661 459 s;
#X msg 709 402 fsIn-\$1;
#X obj 843 464 s;
#X obj 843 393 r exp;
#X msg 890 394 expIn-\$1;
#X obj 261 288 s;
#X msg 323 212 auxIn-\$1;
#X text 48 318 fixme: we probably need to turn all notes (etc) off
when switch modules!, f 26;
#X obj 133 252 symbol notesIn-m0;
#X obj 709 438 symbol fsIn-m0;
#X obj 890 430 symbol expIn-m0;
#X obj 323 248 symbol auxIn-m0;
#N canvas 787 544 788 672 auxhandling 0;
#X obj 240 122 select m0 m1 m2 m3 m4 m5 m6 m7 m8 m9;
#X obj 126 225 s agClear;
#X obj 126 244 r agClear;
#X obj 226 225 s agClear;
#X obj 226 244 r agClear;
#X obj 326 225 s agClear;
#X obj 326 244 r agClear;
#X obj 426 225 s agClear;
#X obj 426 244 r agClear;
#X obj 536 225 s agClear;
#X obj 536 244 r agClear;
#X obj 127 425 s agClear;
#X obj 127 444 r agClear;
#X obj 227 425 s agClear;
#X obj 227 444 r agClear;
#X obj 327 425 s agClear;
#X obj 327 444 r agClear;
#X obj 427 425 s agClear;
#X obj 427 444 r agClear;
#X obj 537 425 s agClear;
#X obj 537 444 r agClear;
#X obj 261 38 inlet module;
#X obj 87 192 t b b 0;
#X obj 187 192 t b b 0;
#X obj 187 344 auxgate m1;
#X obj 287 192 t b b 0;
#X obj 387 192 t b b 0;
#X obj 497 192 t b b 0;
#X obj 88 392 t b b 0;
#X obj 188 392 t b b 0;
#X obj 288 392 t b b 0;
#X obj 388 392 t b b 0;
#X obj 498 392 t b b 0;
#X obj 87 344 auxgate m0;
#X obj 287 344 auxgate m2;
#X obj 387 344 auxgate m3;
#X obj 497 344 auxgate m4;
#X obj 88 544 auxgate m5;
#X obj 188 544 auxgate m6;
#X obj 288 544 auxgate m7;
#X obj 388 543 auxgate m8;
#X obj 498 544 auxgate m9;
#X connect 0 0 22 0;
#X connect 0 1 23 0;
#X connect 0 2 25 0;
#X connect 0 3 26 0;
#X connect 0 4 27 0;
#X connect 0 5 28 0;
#X connect 0 6 29 0;
#X connect 0 7 30 0;
#X connect 0 8 31 0;
#X connect 0 9 32 0;
#X connect 2 0 33 1;
#X connect 4 0 24 1;
#X connect 6 0 34 1;
#X connect 8 0 35 1;
#X connect 10 0 36 1;
#X connect 12 0 37 1;
#X connect 14 0 38 1;
#X connect 16 0 39 1;
#X connect 18 0 40 1;
#X connect 20 0 41 1;
#X connect 21 0 0 0;
#X connect 22 0 33 0;
#X connect 22 1 33 1;
#X connect 22 2 1 0;
#X connect 23 0 24 0;
#X connect 23 1 24 1;
#X connect 23 2 3 0;
#X connect 25 0 34 0;
#X connect 25 1 34 1;
#X connect 25 2 5 0;
#X connect 26 0 35 0;
#X connect 26 1 35 1;
#X connect 26 2 7 0;
#X connect 27 0 36 0;
#X connect 27 1 36 1;
#X connect 27 2 9 0;
#X connect 28 0 37 0;
#X connect 28 1 37 1;
#X connect 28 2 11 0;
#X connect 29 0 38 0;
#X connect 29 1 38 1;
#X connect 29 2 13 0;
#X connect 30 0 39 0;
#X connect 30 1 39 1;
#X connect 30 2 15 0;
#X connect 31 0 40 0;
#X connect 31 1 40 1;
#X connect 31 2 17 0;
#X connect 32 0 41 0;
#X connect 32 1 41 1;
#X connect 32 2 19 0;
#X restore 500 423 pd auxhandling;
#X text 58 14 Active module handling for notes etc;
#X text 493 399 handle aux label and led;
#X text 31 107 if encbutton press ignore \, as used for shortcut;
#X obj 262 213 spigot 1;
#X obj 262 125 r aux;
#X connect 0 0 4 0;
#X connect 1 0 2 0;
#X connect 2 0 3 0;
#X connect 2 0 12 0;
#X connect 2 0 15 0;
#X connect 2 0 17 0;
#X connect 2 0 23 0;
#X connect 3 0 19 0;
#X connect 4 0 7 0;
#X connect 5 0 4 1;
#X connect 5 0 27 1;
#X connect 6 0 5 0;
#X connect 8 0 9 0;
#X connect 9 0 19 0;
#X connect 9 0 20 0;
#X connect 9 0 21 0;
#X connect 9 0 22 0;
#X connect 10 0 11 0;
#X connect 12 0 20 0;
#X connect 14 0 13 0;
#X connect 15 0 21 0;
#X connect 17 0 22 0;
#X connect 19 0 7 1;
#X connect 20 0 11 1;
#X connect 21 0 13 1;
#X connect 22 0 16 1;
#X connect 27 0 16 0;
#X connect 28 0 27 0;
