#N canvas 921 801 719 458 10;
#X obj 85 160 list prepend set;
#X obj 85 190 list trim;
#X obj 85 130 r aux-label-\$1;
#X obj 294 226 int;
#X obj 294 284 spigot 0;
#X obj 286 31 inlet gate;
#X obj 19 31 inlet bang;
#X obj 85 280 spigot 0;
#X obj 294 130 r aux-led-\$1;
#X obj 294 372 s led;
#X obj 286 67 tgl 15 0 empty empty empty 17 7 0 10 -262144 -1 -1 0
1;
#X obj 85 220 t b a;
#X msg 85 250;
#X obj 85 372 s auxLine;
#X connect 0 0 1 0;
#X connect 1 0 11 0;
#X connect 2 0 0 0;
#X connect 3 0 4 0;
#X connect 4 0 9 0;
#X connect 5 0 10 0;
#X connect 6 0 12 0;
#X connect 6 0 3 0;
#X connect 7 0 13 0;
#X connect 8 0 3 0;
#X connect 10 0 7 1;
#X connect 10 0 4 1;
#X connect 11 0 12 0;
#X connect 11 1 12 0;
#X connect 12 0 7 0;
