#N canvas 857 571 1216 774 10;
#X obj 14 51 / 100;
#X obj 224 254 *~;
#X obj 13 115 *;
#X obj 13 88 t f f;
#X obj 13 143 sig~;
#X obj 13 168 lop~ 5;
#X obj 224 24 inlet~ inL;
#X obj 224 599 outlet~ outL;
#X obj 759 34 notein;
#X obj 759 95 pack 0 0;
#X obj 797 237 == 0;
#X obj 762 299 spigot 0;
#X obj 823 35 r r-chin-midich-\$1-\$2;
#X obj 762 340 outlet notes, f 13;
#X obj 27 308 sig~;
#X obj 27 333 lop~ 5;
#X obj 224 422 o_2pan;
#X obj 376 599 outlet~ outR;
#X obj 14 22 r r-chin-gain-\$1-\$2;
#X obj 27 272 r r-chin-pan-\$1-\$2;
#X connect 0 0 3 0;
#X connect 1 0 16 0;
#X connect 2 0 4 0;
#X connect 3 0 2 0;
#X connect 3 1 2 1;
#X connect 4 0 5 0;
#X connect 5 0 1 1;
#X connect 6 0 1 0;
#X connect 8 0 9 0;
#X connect 8 1 9 1;
#X connect 8 2 10 0;
#X connect 9 0 11 0;
#X connect 10 0 11 1;
#X connect 11 0 13 0;
#X connect 12 0 10 1;
#X connect 14 0 15 0;
#X connect 15 0 16 1;
#X connect 16 0 7 0;
#X connect 16 1 17 0;
#X connect 18 0 0 0;
#X connect 19 0 14 0;
