#N canvas 130 461 1912 848 10;
#X obj 14 51 / 100;
#X obj 224 254 *~;
#X obj 343 254 *~;
#X obj 13 115 *;
#X obj 13 88 t f f;
#X obj 13 143 sig~;
#X obj 13 168 lop~ 5;
#X obj 224 24 inlet~ inL;
#X obj 343 26 inlet~ inR;
#X obj 376 599 outlet~ outR;
#X obj 224 599 outlet~ outL;
#X obj 470 57 / 100;
#X obj 469 121 *;
#X obj 469 94 t f f;
#X obj 469 149 sig~;
#X obj 469 174 lop~ 5;
#X obj 14 22 r r-chin-l-gain-\$1-\$2;
#X obj 470 28 r r-chin-r-gain-\$1-\$2;
#X obj 27 308 sig~;
#X obj 27 333 lop~ 5;
#X obj 27 272 r r-chin-l-pan-\$1-\$2;
#X obj 462 311 sig~;
#X obj 462 336 lop~ 5;
#X obj 462 275 r r-chin-r-pan-\$1-\$2;
#X obj 224 422 o_2pan;
#X obj 343 424 o_2pan;
#X obj 777 32 notein;
#X obj 1311 23 ctlin;
#X obj 1228 105 route 74 1;
#X obj 1314 105 / 127;
#X msg 1260 128 1;
#X msg 1227 127 2;
#X obj 1229 80 f;
#X obj 1304 80 t b f;
#X obj 1409 23 bendin;
#X obj 1424 105 / 16383;
#X obj 1412 80 t b f;
#X msg 1392 105 0;
#X obj 1505 80 t b f;
#X obj 1502 23 touchin;
#X obj 1517 105 / 127;
#X msg 1485 105 3;
#X obj 779 285 outlet notes;
#X obj 1073 34 r r-chin-midich-\$1-\$2;
#X obj 919 33 r r-chin-midigate-\$1-\$2;
#X obj 779 257 spigot 1;
#X obj 779 236 midisel3;
#X obj 1304 179 midisel3;
#X obj 1405 179 midisel3;
#X obj 1498 179 midisel3;
#X obj 1304 324 outlet ctrl, f 13;
#X obj 1304 267 spigot 1, f 13;
#X connect 0 0 4 0;
#X connect 1 0 24 0;
#X connect 2 0 25 0;
#X connect 3 0 5 0;
#X connect 4 0 3 0;
#X connect 4 1 3 1;
#X connect 5 0 6 0;
#X connect 6 0 1 1;
#X connect 7 0 1 0;
#X connect 8 0 2 0;
#X connect 11 0 13 0;
#X connect 12 0 14 0;
#X connect 13 0 12 0;
#X connect 13 1 12 1;
#X connect 14 0 15 0;
#X connect 15 0 2 1;
#X connect 16 0 0 0;
#X connect 17 0 11 0;
#X connect 18 0 19 0;
#X connect 19 0 24 1;
#X connect 20 0 18 0;
#X connect 21 0 22 0;
#X connect 22 0 25 1;
#X connect 23 0 21 0;
#X connect 24 0 10 0;
#X connect 24 1 9 0;
#X connect 25 0 10 0;
#X connect 25 1 9 0;
#X connect 26 0 46 0;
#X connect 26 1 46 1;
#X connect 26 2 46 2;
#X connect 27 0 33 0;
#X connect 27 1 32 1;
#X connect 27 2 47 2;
#X connect 28 0 31 0;
#X connect 28 1 30 0;
#X connect 29 0 47 1;
#X connect 30 0 47 0;
#X connect 31 0 47 0;
#X connect 32 0 28 0;
#X connect 33 0 32 0;
#X connect 33 1 29 0;
#X connect 34 0 36 0;
#X connect 34 1 48 2;
#X connect 35 0 48 1;
#X connect 36 0 37 0;
#X connect 36 1 35 0;
#X connect 37 0 48 0;
#X connect 38 0 41 0;
#X connect 38 1 40 0;
#X connect 39 0 38 0;
#X connect 39 1 49 2;
#X connect 40 0 49 1;
#X connect 41 0 49 0;
#X connect 43 0 46 3;
#X connect 43 0 47 3;
#X connect 43 0 48 3;
#X connect 43 0 49 3;
#X connect 44 0 45 1;
#X connect 44 0 51 0;
#X connect 45 0 42 0;
#X connect 46 0 45 0;
#X connect 47 0 51 0;
#X connect 48 0 51 0;
#X connect 49 0 51 0;
#X connect 51 0 50 0;
