#N canvas 588 528 1216 774 10;
#X obj 14 51 / 100;
#X obj 221 237 *~;
#X obj 310 237 *~;
#X obj 13 115 *;
#X obj 13 88 t f f;
#X obj 13 143 sig~;
#X obj 13 168 lop~ 5;
#X obj 221 36 inlet~ inL;
#X obj 310 36 inlet~ inR;
#X obj 343 450 outlet~ outR;
#X obj 221 450 outlet~ outL;
#X obj 14 22 r r-chout-gain-\$1-\$2;
#X obj 619 306 noteout 1;
#X obj 619 266 unpack 0 0;
#X obj 619 228 spigot 0;
#X obj 664 199 > 0;
#X obj 657 107 t f f;
#X obj 617 41 inlet notes;
#X obj 657 78 r r-chout-midich-\$1-\$2;
#X obj 9 268 sig~;
#X obj 9 293 lop~ 5;
#X obj 9 233 r r-chout-l-pan-\$1-\$2;
#X obj 374 270 sig~;
#X obj 374 295 lop~ 5;
#X obj 374 235 r r-chout-r-pan-\$1-\$2;
#X obj 310 352 o_2pan;
#X obj 221 351 o_2pan;
#X connect 0 0 4 0;
#X connect 1 0 26 0;
#X connect 2 0 25 0;
#X connect 3 0 5 0;
#X connect 4 0 3 0;
#X connect 4 1 3 1;
#X connect 5 0 6 0;
#X connect 6 0 1 1;
#X connect 6 0 2 1;
#X connect 7 0 1 0;
#X connect 8 0 2 0;
#X connect 11 0 0 0;
#X connect 13 0 12 0;
#X connect 13 1 12 1;
#X connect 14 0 13 0;
#X connect 15 0 14 1;
#X connect 16 0 15 0;
#X connect 16 1 12 2;
#X connect 17 0 14 0;
#X connect 18 0 16 0;
#X connect 19 0 20 0;
#X connect 20 0 26 1;
#X connect 21 0 19 0;
#X connect 22 0 23 0;
#X connect 23 0 25 1;
#X connect 24 0 22 0;
#X connect 25 0 10 0;
#X connect 25 1 9 0;
#X connect 26 0 10 0;
#X connect 26 1 9 0;
