#N canvas 857 571 1216 774 10;
#X obj 14 51 / 100;
#X obj 224 254 *~;
#X obj 343 254 *~;
#X obj 13 115 *;
#X obj 13 88 t f f;
#X obj 13 143 sig~;
#X obj 13 168 lop~ 5;
#X obj 222 24 inlet~ inL;
#X obj 340 26 inlet~ inR;
#X obj 324 599 outlet~ outR;
#X obj 224 599 outlet~ outL;
#X obj 759 34 notein;
#X obj 759 95 pack 0 0;
#X obj 797 237 == 0;
#X obj 762 299 spigot 0;
#X obj 823 35 r r-chin-midich-\$1-\$2;
#X obj 762 340 outlet notes, f 13;
#X obj 470 57 / 100;
#X obj 469 121 *;
#X obj 469 94 t f f;
#X obj 469 149 sig~;
#X obj 469 174 lop~ 5;
#X obj 14 22 r r-chin-l-gain-\$1-\$2;
#X obj 470 28 r r-chin-r-gain-\$1-\$2;
#X obj 27 308 sig~;
#X obj 27 333 lop~ 5;
#X obj 27 272 r r-chin-l-pan-\$1-\$2;
#X obj 224 422 c_xfade;
#X obj 462 311 sig~;
#X obj 462 336 lop~ 5;
#X obj 324 424 c_xfade;
#X obj 462 275 r r-chin-r-pan-\$1-\$2;
#X connect 0 0 4 0;
#X connect 1 0 27 0;
#X connect 1 0 30 0;
#X connect 2 0 27 1;
#X connect 2 0 30 1;
#X connect 3 0 5 0;
#X connect 4 0 3 0;
#X connect 4 1 3 1;
#X connect 5 0 6 0;
#X connect 6 0 1 1;
#X connect 7 0 1 0;
#X connect 8 0 2 0;
#X connect 11 0 12 0;
#X connect 11 1 12 1;
#X connect 11 2 13 0;
#X connect 12 0 14 0;
#X connect 13 0 14 1;
#X connect 14 0 16 0;
#X connect 15 0 13 1;
#X connect 17 0 19 0;
#X connect 18 0 20 0;
#X connect 19 0 18 0;
#X connect 19 1 18 1;
#X connect 20 0 21 0;
#X connect 21 0 2 1;
#X connect 22 0 0 0;
#X connect 23 0 17 0;
#X connect 24 0 25 0;
#X connect 25 0 27 2;
#X connect 26 0 24 0;
#X connect 27 0 10 0;
#X connect 28 0 29 0;
#X connect 29 0 30 2;
#X connect 30 0 9 0;
#X connect 31 0 28 0;
