#N canvas 130 461 1912 848 10;
#X obj 14 51 / 100;
#X obj 224 254 *~;
#X obj 343 254 *~;
#X obj 13 115 *;
#X obj 13 88 t f f;
#X obj 13 143 sig~;
#X obj 13 168 lop~ 5;
#X obj 224 24 inlet~ inL;
#X obj 343 26 inlet~ inR;
#X obj 376 599 outlet~ outR;
#X obj 224 599 outlet~ outL;
#X obj 470 57 / 100;
#X obj 469 121 *;
#X obj 469 94 t f f;
#X obj 469 149 sig~;
#X obj 469 174 lop~ 5;
#X obj 14 22 r r-chin-l-gain-\$1-\$2;
#X obj 470 28 r r-chin-r-gain-\$1-\$2;
#X obj 27 308 sig~;
#X obj 27 333 lop~ 5;
#X obj 27 272 r r-chin-l-pan-\$1-\$2;
#X obj 462 311 sig~;
#X obj 462 336 lop~ 5;
#X obj 462 275 r r-chin-r-pan-\$1-\$2;
#X obj 224 422 o_2pan;
#X obj 343 424 o_2pan;
#N canvas 1280 389 1280 956 chsel 0;
#X obj 207 372 f;
#X obj 168 372 f;
#X obj 237 123 f;
#X obj 152 87 t b f;
#X obj 237 145 sel 1;
#X obj 117 35 inlet;
#X obj 199 37 inlet;
#X obj 274 39 inlet;
#X obj 186 444 outlet;
#X obj 364 129 == 0;
#X obj 302 246 bng 15 250 50 0 empty empty empty 17 7 0 10 -262144
-1 -1;
#X obj 325 173 spigot 1;
#X obj 187 417 pack 0 0 0;
#X obj 237 373 f;
#X obj 237 325 t b b b;
#X obj 324 9 r r-chin-midich-\$1-\$2;
#X obj 162 7 r r-chin-midigate-\$1-\$2;
#X obj 117 56 spigot 1;
#X connect 0 0 12 1;
#X connect 1 0 12 0;
#X connect 2 0 4 0;
#X connect 3 0 2 0;
#X connect 3 1 1 1;
#X connect 4 0 14 0;
#X connect 4 1 11 0;
#X connect 5 0 17 0;
#X connect 6 0 0 1;
#X connect 7 0 2 1;
#X connect 7 0 13 1;
#X connect 9 0 11 1;
#X connect 10 0 14 0;
#X connect 11 0 10 0;
#X connect 12 0 8 0;
#X connect 13 0 12 2;
#X connect 14 0 1 0;
#X connect 14 1 0 0;
#X connect 14 2 13 0;
#X connect 15 0 4 1;
#X connect 15 0 9 0;
#X connect 16 0 17 1;
#X connect 17 0 3 0;
#X restore 777 69 pd chsel;
#X obj 777 32 notein;
#X obj 976 30 ctlin;
#X obj 890 81 route 74 1;
#X obj 976 82 / 127;
#N canvas 1280 389 1280 956 chsel 0;
#X obj 207 372 f;
#X obj 168 372 f;
#X obj 237 123 f;
#X obj 152 87 t b f;
#X obj 237 145 sel 1;
#X obj 117 35 inlet;
#X obj 199 37 inlet;
#X obj 274 39 inlet;
#X obj 186 444 outlet;
#X obj 364 129 == 0;
#X obj 302 246 bng 15 250 50 0 empty empty empty 17 7 0 10 -262144
-1 -1;
#X obj 325 173 spigot 1;
#X obj 187 417 pack 0 0 0;
#X obj 237 373 f;
#X obj 237 325 t b b b;
#X obj 324 9 r r-chin-midich-\$1-\$2;
#X obj 162 7 r r-chin-midigate-\$1-\$2;
#X obj 117 56 spigot 1;
#X connect 0 0 12 1;
#X connect 1 0 12 0;
#X connect 2 0 4 0;
#X connect 3 0 2 0;
#X connect 3 1 1 1;
#X connect 4 0 14 0;
#X connect 4 1 11 0;
#X connect 5 0 17 0;
#X connect 6 0 0 1;
#X connect 7 0 2 1;
#X connect 7 0 13 1;
#X connect 9 0 11 1;
#X connect 10 0 14 0;
#X connect 11 0 10 0;
#X connect 12 0 8 0;
#X connect 13 0 12 2;
#X connect 14 0 1 0;
#X connect 14 1 0 0;
#X connect 14 2 13 0;
#X connect 15 0 4 1;
#X connect 15 0 9 0;
#X connect 16 0 17 1;
#X connect 17 0 3 0;
#X restore 959 127 pd chsel;
#X msg 922 104 1;
#X msg 889 103 2;
#X obj 891 56 f;
#X obj 966 53 t b f;
#X obj 1074 36 bendin;
#X obj 1086 84 / 16383;
#N canvas 1280 389 1280 956 chsel 0;
#X obj 207 372 f;
#X obj 168 372 f;
#X obj 237 123 f;
#X obj 152 87 t b f;
#X obj 237 145 sel 1;
#X obj 117 35 inlet;
#X obj 199 37 inlet;
#X obj 274 39 inlet;
#X obj 186 444 outlet;
#X obj 364 129 == 0;
#X obj 302 246 bng 15 250 50 0 empty empty empty 17 7 0 10 -262144
-1 -1;
#X obj 325 173 spigot 1;
#X obj 187 417 pack 0 0 0;
#X obj 237 373 f;
#X obj 237 325 t b b b;
#X obj 324 9 r r-chin-midich-\$1-\$2;
#X obj 162 7 r r-chin-midigate-\$1-\$2;
#X obj 117 56 spigot 1;
#X connect 0 0 12 1;
#X connect 1 0 12 0;
#X connect 2 0 4 0;
#X connect 3 0 2 0;
#X connect 3 1 1 1;
#X connect 4 0 14 0;
#X connect 4 1 11 0;
#X connect 5 0 17 0;
#X connect 6 0 0 1;
#X connect 7 0 2 1;
#X connect 7 0 13 1;
#X connect 9 0 11 1;
#X connect 10 0 14 0;
#X connect 11 0 10 0;
#X connect 12 0 8 0;
#X connect 13 0 12 2;
#X connect 14 0 1 0;
#X connect 14 1 0 0;
#X connect 14 2 13 0;
#X connect 15 0 4 1;
#X connect 15 0 9 0;
#X connect 16 0 17 1;
#X connect 17 0 3 0;
#X restore 1060 118 pd chsel;
#X obj 1074 57 t b f;
#X msg 1054 86 0;
#N canvas 1224 284 1280 956 chsel 0;
#X obj 207 372 f;
#X obj 168 372 f;
#X obj 237 123 f;
#X obj 152 87 t b f;
#X obj 237 145 sel 1;
#X obj 117 35 inlet;
#X obj 199 37 inlet;
#X obj 274 39 inlet;
#X obj 186 444 outlet;
#X obj 364 129 == 0;
#X obj 302 246 bng 15 250 50 0 empty empty empty 17 7 0 10 -262144
-1 -1;
#X obj 325 173 spigot 1;
#X obj 187 417 pack 0 0 0;
#X obj 237 373 f;
#X obj 237 325 t b b b;
#X obj 324 9 r r-chin-midich-\$1-\$2;
#X obj 162 7 r r-chin-midigate-\$1-\$2;
#X obj 117 56 spigot 1;
#X connect 0 0 12 1;
#X connect 1 0 12 0;
#X connect 2 0 4 0;
#X connect 3 0 2 0;
#X connect 3 1 1 1;
#X connect 4 0 14 0;
#X connect 4 1 11 0;
#X connect 5 0 17 0;
#X connect 6 0 0 1;
#X connect 7 0 2 1;
#X connect 7 0 13 1;
#X connect 9 0 11 1;
#X connect 10 0 14 0;
#X connect 11 0 10 0;
#X connect 12 0 8 0;
#X connect 13 0 12 2;
#X connect 14 0 1 0;
#X connect 14 1 0 0;
#X connect 14 2 13 0;
#X connect 15 0 4 1;
#X connect 15 0 9 0;
#X connect 16 0 17 1;
#X connect 17 0 3 0;
#X restore 1153 119 pd chsel;
#X obj 1167 58 t b f;
#X obj 1167 37 touchin;
#X obj 1179 85 / 127;
#X msg 1147 87 3;
#X obj 777 118 outlet notes;
#X obj 956 243 outlet ctrl, f 13;
#X connect 0 0 4 0;
#X connect 1 0 24 0;
#X connect 2 0 25 0;
#X connect 3 0 5 0;
#X connect 4 0 3 0;
#X connect 4 1 3 1;
#X connect 5 0 6 0;
#X connect 6 0 1 1;
#X connect 7 0 1 0;
#X connect 8 0 2 0;
#X connect 11 0 13 0;
#X connect 12 0 14 0;
#X connect 13 0 12 0;
#X connect 13 1 12 1;
#X connect 14 0 15 0;
#X connect 15 0 2 1;
#X connect 16 0 0 0;
#X connect 17 0 11 0;
#X connect 18 0 19 0;
#X connect 19 0 24 1;
#X connect 20 0 18 0;
#X connect 21 0 22 0;
#X connect 22 0 25 1;
#X connect 23 0 21 0;
#X connect 24 0 10 0;
#X connect 24 1 9 0;
#X connect 25 0 10 0;
#X connect 25 1 9 0;
#X connect 26 0 46 0;
#X connect 27 0 26 0;
#X connect 27 1 26 1;
#X connect 27 2 26 2;
#X connect 28 0 35 0;
#X connect 28 1 34 1;
#X connect 28 2 31 2;
#X connect 29 0 33 0;
#X connect 29 1 32 0;
#X connect 30 0 31 1;
#X connect 31 0 47 0;
#X connect 32 0 31 0;
#X connect 33 0 31 0;
#X connect 34 0 29 0;
#X connect 35 0 34 0;
#X connect 35 1 30 0;
#X connect 36 0 39 0;
#X connect 36 1 38 2;
#X connect 37 0 38 1;
#X connect 38 0 47 0;
#X connect 39 0 40 0;
#X connect 39 1 37 0;
#X connect 40 0 38 0;
#X connect 41 0 47 0;
#X connect 42 0 45 0;
#X connect 42 1 44 0;
#X connect 43 0 42 0;
#X connect 43 1 41 2;
#X connect 44 0 41 1;
#X connect 45 0 41 0;
