#N canvas 588 528 1216 774 10;
#X obj 457 79 / 100;
#X obj 325 242 *~;
#X obj 414 242 *~;
#X obj 456 143 *;
#X obj 456 116 t f f;
#X obj 456 171 sig~;
#X obj 456 196 lop~ 5;
#X obj 241 52 inlet~ inL;
#X obj 330 52 inlet~ inR;
#X obj 457 50 r r-chout-gain-\$1-\$2;
#X obj 1026 298 noteout 1;
#X obj 1026 258 unpack 0 0;
#X obj 1026 220 spigot 0;
#X obj 1071 191 > 0;
#X obj 1064 99 t f f;
#X obj 1024 33 inlet notes;
#X obj 1064 70 r r-chout-midich-\$1-\$2;
#X obj 87 200 sig~;
#X obj 414 387 o_2pan;
#X obj 325 386 o_2pan;
#X text 351 7 THIS IS EXPERIMENTAL ONLY - DO NOT USE;
#X obj 87 165 r r-chout-l-pan-\$1-\$2;
#X obj 290 523 o_2pan;
#X obj 397 695 outlet~ outFR;
#X obj 211 693 outlet~ outFL;
#X obj 529 693 outlet~ outBL;
#X obj 651 694 outlet~ outBR;
#X obj 566 523 o_2pan;
#X obj 63 259 +~;
#X obj 63 280 clip~ 0 1;
#X obj 87 221 lop~ 5;
#X obj 595 174 sig~;
#X obj 571 233 +~;
#X obj 571 254 clip~ 0 1;
#X obj 595 195 lop~ 5;
#X obj 595 139 r r-chout-r-pan-\$1-\$2;
#X obj 705 344 sig~;
#X obj 681 403 +~;
#X obj 681 424 clip~ 0 1;
#X obj 705 365 lop~ 5;
#X obj 705 309 r r-chout-fb-pan-\$1-\$2;
#X obj 668 284 catch~ quad-mod-fb-\$1;
#X obj 558 114 catch~ quad-mod-right-\$1;
#X obj 50 140 catch~ quad-mod-left-\$1;
#X connect 0 0 4 0;
#X connect 1 0 19 0;
#X connect 2 0 18 0;
#X connect 3 0 5 0;
#X connect 4 0 3 0;
#X connect 4 1 3 1;
#X connect 5 0 6 0;
#X connect 6 0 1 1;
#X connect 6 0 2 1;
#X connect 7 0 1 0;
#X connect 8 0 2 0;
#X connect 9 0 0 0;
#X connect 11 0 10 0;
#X connect 11 1 10 1;
#X connect 12 0 11 0;
#X connect 13 0 12 1;
#X connect 14 0 13 0;
#X connect 14 1 10 2;
#X connect 15 0 12 0;
#X connect 16 0 14 0;
#X connect 17 0 30 0;
#X connect 18 0 22 0;
#X connect 18 1 27 0;
#X connect 19 0 22 0;
#X connect 19 1 27 0;
#X connect 21 0 17 0;
#X connect 22 0 24 0;
#X connect 22 1 25 0;
#X connect 27 0 23 0;
#X connect 27 1 26 0;
#X connect 28 0 29 0;
#X connect 29 0 19 1;
#X connect 30 0 28 1;
#X connect 31 0 34 0;
#X connect 32 0 33 0;
#X connect 33 0 18 1;
#X connect 34 0 32 1;
#X connect 35 0 31 0;
#X connect 36 0 39 0;
#X connect 37 0 38 0;
#X connect 38 0 27 1;
#X connect 38 0 22 1;
#X connect 39 0 37 1;
#X connect 40 0 36 0;
#X connect 41 0 37 0;
#X connect 42 0 32 0;
#X connect 43 0 28 0;
