#N canvas 720 536 961 628 10;
#X obj 220 15 r~ inL;
#X obj 311 15 r~ inR;
#X obj 686 333 s notesIn-\$1, f 13;
#X obj 16 85 / 100;
#X obj 683 27 notein;
#X obj 683 88 pack 0 0;
#X obj 730 230 == 0;
#X obj 60 225 *~ 1;
#X obj 151 223 *~ 1;
#X obj 686 292 spigot 0;
#X obj 777 28 r r-in-midich-\$1-\$2;
#X obj 322 282 s~ inL-\$1, f 10;
#X obj 413 282 s~ inR-\$1, f 10;
#X obj 443 75 / 100;
#X obj 322 219 *~ 1;
#X obj 413 217 *~ 1;
#X obj 16 64 r r-thru-gain-\$1-\$3;
#X obj 443 54 r r-in-gain-\$1-\$3;
#X obj 210 477 s~ inL-\$2;
#X obj 285 477 s~ inR-\$2, f 10;
#X obj 322 310 r~ inL-\$1;
#X obj 413 310 r~ inR-\$1;
#X obj 210 388 +~;
#X obj 285 388 +~;
#X connect 0 0 7 0;
#X connect 0 0 14 0;
#X connect 1 0 8 0;
#X connect 1 0 15 0;
#X connect 3 0 7 1;
#X connect 3 0 8 1;
#X connect 4 0 5 0;
#X connect 4 1 5 1;
#X connect 4 2 6 0;
#X connect 5 0 9 0;
#X connect 6 0 9 1;
#X connect 7 0 23 0;
#X connect 8 0 22 0;
#X connect 9 0 2 0;
#X connect 10 0 6 1;
#X connect 13 0 14 1;
#X connect 13 0 15 1;
#X connect 14 0 11 0;
#X connect 15 0 12 0;
#X connect 16 0 3 0;
#X connect 17 0 13 0;
#X connect 20 0 22 1;
#X connect 21 0 23 1;
#X connect 22 0 18 0;
#X connect 23 0 19 0;
