#N canvas 1076 424 951 505 10;
#X obj 34 32 r~ outL-\$1;
#X obj 124 32 r~ outR-\$1;
#X obj 210 32 r notesOut-\$1;
#X obj 34 153 s~ inL-\$2, f 10;
#X obj 124 153 s~ inR-\$2, f 10;
#X obj 210 153 s notesIn-\$2, f 13;
#X obj 349 61 / 100;
#X obj 34 112 *~ 1;
#X obj 124 112 *~ 1;
#X obj 210 114 spigot 1;
#X obj 349 32 r r-gain-\$1-\$3;
#X obj 511 32 r r-notethru-\$1-\$3;
#X connect 0 0 7 0;
#X connect 1 0 8 0;
#X connect 2 0 9 0;
#X connect 6 0 7 1;
#X connect 6 0 8 1;
#X connect 7 0 3 0;
#X connect 8 0 4 0;
#X connect 9 0 5 0;
#X connect 10 0 6 0;
#X connect 11 0 9 1;
