#N canvas 1344 297 1216 1001 10;
#X obj 15 51 / 100;
#X obj 769 263 spigot 1;
#X obj 529 129 / 100;
#X obj 265 479 +~;
#X obj 344 476 +~;
#X obj 769 30 inlet notes;
#X obj 769 475 outlet notes;
#X obj 15 22 r r-thru-gain-\$1-\$2;
#X obj 529 102 r r-gain-\$1-\$2;
#X obj 1083 29 r r-notethru-\$1-\$2;
#X obj 885 235 s notesIn-\$1, f 13;
#X obj 885 262 r notesOut-\$1;
#X obj 336 232 r~ outL-\$1;
#X obj 100 412 *~;
#X obj 190 412 *~;
#X obj 14 108 *;
#X obj 14 81 t f f;
#X obj 13 357 sig~;
#X obj 13 382 lop~ 5;
#X obj 529 194 *;
#X obj 529 167 t f f;
#X obj 529 221 sig~;
#X obj 529 248 lop~ 5;
#X obj 336 415 *~;
#X obj 426 415 *~;
#X obj 336 200 s~ inL-\$1, f 10;
#X obj 426 200 s~ inR-\$1;
#X obj 426 232 r~ outR-\$1;
#X obj 222 36 inlet~ inL;
#X obj 312 36 inlet~ inR;
#X obj 344 601 outlet~ outR;
#X obj 265 601 outlet~ outL;
#X obj 72 81 / 100;
#X obj 14 136 * 100;
#X obj 72 50 r thru_gain-\$1;
#X obj 71 105 t b f;
#X obj 35 800 s rackMsgs;
#X obj 35 687 r loadbang-\$2;
#X msg 35 760 getparam \$1 thru_gain 100 thru_gain-\$1;
#X obj 35 721 symbol \$1;
#X obj 126 687 r loadbang-\$1;
#X text 31 665 if module or router is loaded check thru gain;
#X obj 984 263 spigot 1;
#X obj 984 30 inlet ctrl;
#X obj 1099 239 s ctrlIn-\$1, f 13;
#X obj 1099 266 r ctrlOut-\$1;
#X obj 984 475 outlet ctrl;
#X obj 559 11 r r-bypass-\$1-\$2;
#X obj 14 159 f;
#X obj 559 30 t b f;
#X obj 885 208 spigot 1;
#X obj 1099 212 spigot 1;
#X obj 814 169 ||;
#X obj 473 113 sig~;
#X obj 473 138 lop~ 5;
#X obj 426 165 *~;
#X obj 336 165 *~;
#X obj 661 52 == 0;
#X text 28 625 bypass prevent audio/notes going to module turn on audio/note
thru;
#X obj 14 219 pack 0 0;
#X obj 14 241 route 0 1;
#X obj 14 192 t b f;
#X msg 37 261 1;
#X connect 0 0 16 0;
#X connect 1 0 6 0;
#X connect 2 0 20 0;
#X connect 3 0 31 0;
#X connect 4 0 30 0;
#X connect 5 0 1 0;
#X connect 5 0 50 0;
#X connect 7 0 0 0;
#X connect 8 0 2 0;
#X connect 9 0 52 0;
#X connect 11 0 6 0;
#X connect 12 0 23 0;
#X connect 13 0 3 0;
#X connect 14 0 4 0;
#X connect 15 0 33 0;
#X connect 16 0 15 0;
#X connect 16 1 15 1;
#X connect 17 0 18 0;
#X connect 18 0 13 1;
#X connect 18 0 14 1;
#X connect 19 0 21 0;
#X connect 20 0 19 0;
#X connect 20 1 19 1;
#X connect 21 0 22 0;
#X connect 22 0 23 1;
#X connect 22 0 24 1;
#X connect 23 0 3 1;
#X connect 24 0 4 1;
#X connect 27 0 24 0;
#X connect 28 0 13 0;
#X connect 28 0 56 0;
#X connect 29 0 14 0;
#X connect 29 0 55 0;
#X connect 32 0 35 0;
#X connect 33 0 48 0;
#X connect 34 0 32 0;
#X connect 35 0 33 0;
#X connect 35 1 33 1;
#X connect 37 0 39 0;
#X connect 38 0 36 0;
#X connect 39 0 38 0;
#X connect 40 0 39 0;
#X connect 42 0 46 0;
#X connect 43 0 42 0;
#X connect 43 0 51 0;
#X connect 45 0 46 0;
#X connect 47 0 49 0;
#X connect 48 0 61 0;
#X connect 49 0 52 0;
#X connect 49 0 48 0;
#X connect 49 1 52 1;
#X connect 49 1 57 0;
#X connect 49 1 59 0;
#X connect 50 0 10 0;
#X connect 51 0 44 0;
#X connect 52 0 1 1;
#X connect 52 0 42 1;
#X connect 53 0 54 0;
#X connect 54 0 55 1;
#X connect 54 0 56 1;
#X connect 55 0 26 0;
#X connect 56 0 25 0;
#X connect 57 0 53 0;
#X connect 57 0 50 1;
#X connect 57 0 51 1;
#X connect 59 0 60 0;
#X connect 60 0 17 0;
#X connect 60 1 62 0;
#X connect 61 0 59 0;
#X connect 61 1 59 1;
#X connect 62 0 17 0;
