#N canvas 98 429 741 557 10;
#X obj 67 61 swap;
#X obj 67 86 pack;
#X obj 44 29 inlet;
#X obj 97 28 inlet;
#X obj 67 347 outlet;
#X obj 67 169 route 1;
#X obj 159 167 == 0;
#X obj 120 234 unpack;
#X obj 120 211 spigot 1;
#X obj 159 28 inlet midiCh;
#X connect 0 0 1 0;
#X connect 0 1 1 1;
#X connect 1 0 5 0;
#X connect 2 0 0 0;
#X connect 3 0 0 1;
#X connect 5 0 4 0;
#X connect 5 1 8 0;
#X connect 6 0 8 1;
#X connect 7 1 4 0;
#X connect 8 0 7 0;
#X connect 9 0 5 1;
#X connect 9 0 6 0;
