#N canvas 1080 680 723 508 10;
#X obj 207 372 f;
#X obj 168 372 f;
#X obj 237 123 f;
#X obj 152 87 t b f;
#X obj 237 145 sel 1;
#X obj 117 35 inlet;
#X obj 199 35 inlet;
#X obj 274 35 inlet;
#X obj 186 444 outlet;
#X obj 364 129 == 0;
#X obj 264 246 bng 15 250 50 0 empty empty empty 17 7 0 10 -262144
-1 -1;
#X obj 264 182 spigot 1;
#X obj 187 417 pack 0 0 0;
#X obj 237 325 t b b b;
#X obj 342 35 inlet midiCh;
#X obj 366 180 spigot 1;
#X obj 427 131 sel 0;
#X obj 237 373 f 0;
#X obj 429 180 i 0;
#X obj 429 158 t b;
#X text 465 179 send on voice 0 if ! multi channel;
#X connect 0 0 12 1;
#X connect 1 0 12 0;
#X connect 2 0 4 0;
#X connect 3 0 2 0;
#X connect 3 1 1 1;
#X connect 4 0 13 0;
#X connect 4 1 11 0;
#X connect 5 0 3 0;
#X connect 6 0 0 1;
#X connect 7 0 2 1;
#X connect 7 0 15 0;
#X connect 9 0 11 1;
#X connect 9 0 15 1;
#X connect 10 0 13 0;
#X connect 11 0 10 0;
#X connect 12 0 8 0;
#X connect 13 0 1 0;
#X connect 13 1 0 0;
#X connect 13 2 17 0;
#X connect 14 0 4 1;
#X connect 14 0 9 0;
#X connect 14 0 16 0;
#X connect 15 0 17 1;
#X connect 16 1 19 0;
#X connect 17 0 12 2;
#X connect 18 0 17 1;
#X connect 19 0 18 0;
