#N canvas 1148 681 988 620 10;
#X obj 405 72 bng 15 250 50 0 empty empty empty 17 7 0 10 -262144 -1
-1;
#X obj 650 72 bng 15 250 50 0 empty empty empty 17 7 0 10 -262144 -1
-1;
#X obj 99 460 bng 15 250 50 0 empty empty empty 17 7 0 10 -262144 -1
-1;
#X obj 431 464 bng 15 250 50 0 empty empty empty 17 7 0 10 -262144
-1 -1;
#X obj 672 373 bng 15 250 50 0 empty empty empty 17 7 0 10 -262144
-1 -1;
#X msg 205 115 savesettings orac;
#X msg 74 116 updatepreset Init;
#X obj 99 381 bng 15 250 50 0 empty empty empty 17 7 0 10 -262144 -1
-1;
#X obj 431 385 bng 15 250 50 0 empty empty empty 17 7 0 10 -262144
-1 -1;
#X obj 830 72 bng 15 250 50 0 empty empty empty 17 7 0 10 -262144 -1
-1;
#X obj 871 373 bng 15 250 50 0 empty empty empty 17 7 0 10 -262144
-1 -1;
#X obj 871 452 s rackMsgs;
#X obj 672 452 s rackMsgs;
#X obj 498 536 s rackMsgs;
#X obj 166 524 s rackMsgs;
#X obj 409 165 s rackMsgs;
#X obj 654 165 s rackMsgs;
#X obj 836 165 s rackMsgs;
#X obj 208 175 s rackMsgs;
#X text 87 21 testing only;
#X obj 882 499 bng 15 250 50 0 empty empty empty 17 7 0 10 -262144
-1 -1;
#X obj 882 578 s rackMsgs;
#X obj 1112 476 bng 15 250 50 0 empty empty empty 17 7 0 10 -262144
-1 -1;
#X obj 1112 555 s rackMsgs;
#X msg 405 111 loadmodule m1 modules/S-rngs;
#X msg 650 111 loadmodule m1 modules/F-clds;
#X msg 830 111 loadmodule m1 modules/S-brds;
#X msg 99 420 loadmodule m2 modules/F-clds;
#X msg 431 503 loadmodule m3 modules/U-default;
#X msg 99 499 loadmodule m2 modules/U-default;
#X msg 672 412 loadmodule m4 modules/U-default;
#X msg 871 412 loadmodule m5 modules/R-1x10;
#X msg 882 538 loadmodule m5 modules/U-default;
#X msg 1112 515 loadmodule m6 modules/U-default;
#X msg 431 424 loadmodule m3 modules/S-rngs;
#X obj 1315 473 bng 15 250 50 0 empty empty empty 17 7 0 10 -262144
-1 -1;
#X obj 1315 552 s rackMsgs;
#X msg 1315 512 loadmodule m9 modules/U-default;
#X connect 0 0 24 0;
#X connect 1 0 25 0;
#X connect 2 0 29 0;
#X connect 3 0 28 0;
#X connect 4 0 30 0;
#X connect 5 0 18 0;
#X connect 6 0 18 0;
#X connect 7 0 27 0;
#X connect 8 0 34 0;
#X connect 9 0 26 0;
#X connect 10 0 31 0;
#X connect 20 0 32 0;
#X connect 22 0 33 0;
#X connect 24 0 15 0;
#X connect 25 0 16 0;
#X connect 26 0 17 0;
#X connect 27 0 14 0;
#X connect 28 0 13 0;
#X connect 29 0 14 0;
#X connect 30 0 12 0;
#X connect 31 0 11 0;
#X connect 32 0 21 0;
#X connect 33 0 23 0;
#X connect 34 0 13 0;
#X connect 35 0 37 0;
#X connect 37 0 36 0;
