#N canvas 965 408 1540 726 10;
#X obj 304 186 r notesIn-\$1;
#X obj 304 491 s notesOut-\$1;
#X obj 181 9 r loadbang-\$1;
#X obj 25 186 inlet~ inL-\$1;
#X obj 135 186 inlet~ inR-\$1;
#X obj 27 491 outlet~ outL-\$1;
#X obj 136 491 outlet~ outR-\$1;
#X obj 424 185 r auxIn-\$1;
#X obj 423 208 r expIn-\$1;
#X obj 423 233 r fsIn-\$1;
#X obj 516 45 int 0;
#X obj 516 76 s aux-led-\$1;
#X obj 628 169 s aux-label-\$1;
#N canvas 290 325 1408 955 synth 1;
#X text 267 567 final gain adjustment;
#X obj 116 270 pack 0 0 0;
#X text 40 41 sample is transposed by keys;
#X obj 1155 260 / 44100;
#X floatatom 1155 282 5 0 0 0 - - -;
#X obj 1104 482 lop~ 5;
#X obj 1202 443 lop~ 5;
#X obj 1104 405 * 3;
#X obj 1104 432 wrap, f 5;
#X obj 1104 460 sig~ 0.1;
#X obj 1202 421 sig~ 0.1;
#X obj 1102 579 osc~;
#X obj 1126 607 *~;
#X obj 1101 513 *~;
#X obj 1201 495 *~;
#X obj 1101 547 *~ 10;
#X obj 1127 645 +~ 1;
#X obj 116 229 poly 6 1, f 11;
#X obj 116 311 route 1 2 3 4 5 6, f 34;
#X floatatom 1041 281 15 0 0 0 - - -;
#X obj 204 568 *~ 0.5;
#X text 42 18 sampler with recording;
#X text 1044 215 length of sound in seconds and samples;
#X text 39 66 max recording time 1 min;
#X text 39 90 knobs control speed \, speed modulation \, loop start
\, and duration, f 66;
#N canvas 357 496 2148 668 record-load-sample 0;
#X msg 127 304 bang;
#X msg 543 271 0;
#X obj 471 90 sel 1 0;
#X obj 614 261 timer;
#X obj 614 291 * 44.1;
#X obj 235 427 *~;
#X obj 283 395 line~;
#X msg 306 282 1 1;
#X msg 465 265 0 2;
#X msg 506 270 1;
#X text 858 346 time length of recording in samples;
#X text 16 25 records as long as aux button or foot switch are held
down;
#X text 82 46 max 2 seconds;
#X obj 38 187 delay 2;
#X msg 51 272 stop;
#X obj 1444 538 soundfiler;
#N canvas 0 50 450 300 (subpatch) 0;
#X array newsample-\$1 451456 float 0;
#X coords 0 1.02 451455 -1.02 200 130 1 0 0;
#X restore 794 32 graph;
#X msg 667 191 stop;
#X msg 758 193 0;
#X obj 514 128 t b b b b b;
#X obj 470 41 i;
#X obj 470 63 change;
#X text 532 55 don't do things twice;
#X text 728 215 autostopper;
#X obj 685 236 delay 60000;
#X obj 616 356 expr if($f1 < 4410 \, 4410 \, $f1);
#X obj 1166 531 soundfiler;
#X text 865 371 it must be at least 4410 cause this;
#X text 874 401 is what the player assumes;
#X obj 468 15 r auxIn-\$1;
#X obj 554 16 r fsIn-\$1;
#X obj 521 306 s aux-led-\$1;
#X obj 186 279 inlet~ inL;
#X obj 260 299 inlet~ inR;
#X obj 616 439 s dur-\$1;
#X obj 236 481 tabwrite~ newsample-\$1;
#X obj 1191 433 list;
#N canvas 338 792 803 448 sampleDir 0;
#X obj 442 163 s rackMsgs;
#X obj 442 84 symbol \$1;
#X obj 370 14 r loadbang-\$1;
#X obj 441 219 symbol \$1;
#X obj 74 387 outlet;
#X obj 245 387 outlet;
#X text 81 25 samples dir bang;
#X obj 76 47 inlet kit;
#X msg 442 138 getsetting mediaDir ./data rackMediaDir-\$1;
#X obj 535 189 r rackMediaDir-\$1;
#X obj 442 186 r rackMediaDir;
#X obj 152 46 inlet slot;
#X obj 80 88 t b f;
#X obj 154 90 t b f;
#X obj 303 86 symbol newsample-\$1;
#X obj 370 39 t b b;
#X obj 233 45 inlet dur;
#X obj 249 276 pack s f f s f;
#X obj 266 131 i;
#X obj 244 328 t b l;
#X obj 303 107 t b s;
#X connect 1 0 8 0;
#X connect 2 0 15 0;
#X connect 3 0 17 0;
#X connect 7 0 12 0;
#X connect 8 0 0 0;
#X connect 9 0 3 0;
#X connect 10 0 3 0;
#X connect 11 0 13 0;
#X connect 12 0 17 0;
#X connect 12 1 17 1;
#X connect 13 0 17 0;
#X connect 13 1 17 2;
#X connect 14 0 20 0;
#X connect 15 0 14 0;
#X connect 15 1 1 0;
#X connect 16 0 18 0;
#X connect 17 0 19 0;
#X connect 18 0 17 4;
#X connect 19 0 4 0;
#X connect 19 1 5 0;
#X connect 20 0 17 0;
#X connect 20 1 17 3;
#X restore 1187 380 pd sampleDir;
#X obj 1183 323 r s_kit-\$1;
#X obj 1269 322 r s_slot1-\$1;
#X msg 1443 489 write -nframes \$5 \$1/samples/kit-\$2/\$3.wav \$4
;
#X obj 1440 435 list;
#X obj 1358 323 r dur-\$1;
#X obj 1503 324 r rackSavePreset;
#X obj 1503 402 bng 15 250 50 0 empty empty empty 17 7 0 10 -262144
-1 -1;
#X obj 1316 594 print soundfiler;
#X obj 40 212 t b b;
#X msg 1220 488 read -resize \$1/samples/kit-\$2/\$3.wav \$4;
#X msg 455 379 resize 96000;
#X obj 455 400 s newsample-\$1;
#X obj 393 128 t b b b b b b;
#X connect 0 0 35 0;
#X connect 1 0 31 0;
#X connect 2 0 50 0;
#X connect 2 1 19 0;
#X connect 3 0 4 0;
#X connect 4 0 25 0;
#X connect 5 0 35 0;
#X connect 6 0 5 1;
#X connect 7 0 6 0;
#X connect 8 0 6 0;
#X connect 9 0 31 0;
#X connect 13 0 46 0;
#X connect 14 0 35 0;
#X connect 17 0 24 0;
#X connect 18 0 20 0;
#X connect 19 0 13 0;
#X connect 19 1 8 0;
#X connect 19 2 1 0;
#X connect 19 3 3 1;
#X connect 19 4 17 0;
#X connect 20 0 21 0;
#X connect 21 0 2 0;
#X connect 24 0 18 0;
#X connect 25 0 34 0;
#X connect 26 0 25 0;
#X connect 29 0 20 0;
#X connect 30 0 20 0;
#X connect 32 0 5 0;
#X connect 33 0 5 0;
#X connect 36 0 47 0;
#X connect 37 0 36 0;
#X connect 37 1 36 1;
#X connect 37 1 41 1;
#X connect 38 0 37 0;
#X connect 39 0 37 1;
#X connect 40 0 15 0;
#X connect 40 0 45 0;
#X connect 41 0 40 0;
#X connect 42 0 37 2;
#X connect 43 0 44 0;
#X connect 44 0 41 0;
#X connect 46 0 41 0;
#X connect 46 1 14 0;
#X connect 47 0 26 0;
#X connect 47 0 45 0;
#X connect 48 0 49 0;
#X connect 50 0 0 0;
#X connect 50 1 7 0;
#X connect 50 2 9 0;
#X connect 50 3 3 0;
#X connect 50 4 24 0;
#X connect 50 5 48 0;
#X restore 1114 167 pd record-load-sample;
#X obj 139 599 outlet~ outL;
#X obj 249 597 outlet~ outR;
#X obj 1123 337 r n_mod-\$1;
#X obj 1123 358 / 100;
#X obj 69 153 r notesIn-\$1;
#X obj 1107 130 inlet~;
#X obj 1195 137 inlet~;
#X obj 10 396 samplervoice \$1;
#X obj 1155 238 r dur-\$1;
#X obj 1127 675 s~ mod-\$1;
#X obj 124 398 samplervoice \$1;
#X obj 227 398 samplervoice \$1;
#X obj 341 399 samplervoice \$1;
#X obj 465 397 samplervoice \$1;
#X obj 578 395 samplervoice \$1;
#X obj 527 136 r ctrlIn-\$1;
#X obj 557 308 route 1 2 3 4 5 6, f 34;
#N canvas 324 629 450 300 route 0;
#X obj 69 97 unpack 0 0 0;
#X obj 68 68 t l l;
#X obj 68 197 list;
#X obj 139 144 t b;
#X obj 139 123 route 1 0;
#X obj 226 163 unpack 0 0 0;
#X obj 226 194 pack 0 0 0;
#X obj 68 19 inlet msg;
#X obj 68 218 outlet global;
#X obj 226 215 outlet voice;
#X obj 187 162 - 1;
#X connect 0 2 4 0;
#X connect 1 0 0 0;
#X connect 1 1 2 1;
#X connect 1 1 5 0;
#X connect 2 0 8 0;
#X connect 3 0 2 0;
#X connect 4 0 3 0;
#X connect 4 1 3 0;
#X connect 4 2 10 0;
#X connect 5 0 6 1;
#X connect 5 1 6 2;
#X connect 6 0 9 0;
#X connect 7 0 1 0;
#X connect 10 0 6 0;
#X restore 230 192 pd route;
#N canvas 324 629 450 300 route 0;
#X obj 69 97 unpack 0 0 0;
#X obj 68 68 t l l;
#X obj 68 197 list;
#X obj 139 144 t b;
#X obj 139 123 route 1 0;
#X obj 234 171 unpack 0 0 0;
#X obj 234 202 pack 0 0 0;
#X obj 68 19 inlet msg;
#X obj 68 218 outlet global;
#X obj 234 223 outlet voice;
#X obj 190 158 - 1;
#X connect 0 2 4 0;
#X connect 1 0 0 0;
#X connect 1 1 2 1;
#X connect 1 1 5 0;
#X connect 2 0 8 0;
#X connect 3 0 2 0;
#X connect 4 0 3 0;
#X connect 4 1 3 0;
#X connect 4 2 10 0;
#X connect 5 0 6 1;
#X connect 5 1 6 2;
#X connect 6 0 9 0;
#X connect 7 0 1 0;
#X connect 10 0 6 0;
#X restore 520 203 pd route;
#X obj 735 190 unpack 0 0 0;
#X obj 735 211 sel 123;
#X msg 735 232 stop;
#X connect 1 0 18 0;
#X connect 3 0 4 0;
#X connect 5 0 13 0;
#X connect 5 0 13 1;
#X connect 6 0 14 1;
#X connect 6 0 14 0;
#X connect 7 0 8 0;
#X connect 8 0 9 0;
#X connect 9 0 5 0;
#X connect 10 0 6 0;
#X connect 11 0 12 0;
#X connect 12 0 16 0;
#X connect 13 0 15 0;
#X connect 14 0 12 1;
#X connect 15 0 11 0;
#X connect 16 0 35 0;
#X connect 17 0 1 0;
#X connect 17 1 1 1;
#X connect 17 2 1 2;
#X connect 18 0 33 0;
#X connect 18 1 36 0;
#X connect 18 2 37 0;
#X connect 18 3 38 0;
#X connect 18 4 39 0;
#X connect 18 5 40 0;
#X connect 20 0 26 0;
#X connect 20 0 27 0;
#X connect 28 0 29 0;
#X connect 29 0 7 0;
#X connect 29 0 10 0;
#X connect 30 0 43 0;
#X connect 31 0 25 0;
#X connect 32 0 25 1;
#X connect 33 0 20 0;
#X connect 34 0 3 0;
#X connect 34 0 19 0;
#X connect 36 0 20 0;
#X connect 37 0 20 0;
#X connect 38 0 20 0;
#X connect 39 0 20 0;
#X connect 40 0 20 0;
#X connect 41 0 44 0;
#X connect 41 0 45 0;
#X connect 42 0 33 1;
#X connect 42 1 36 1;
#X connect 42 2 37 1;
#X connect 42 3 38 1;
#X connect 42 4 39 1;
#X connect 42 5 40 1;
#X connect 43 0 17 0;
#X connect 43 1 18 0;
#X connect 44 0 33 1;
#X connect 44 0 40 1;
#X connect 44 0 39 1;
#X connect 44 0 38 1;
#X connect 44 0 37 1;
#X connect 44 0 36 1;
#X connect 44 1 42 0;
#X connect 45 0 46 0;
#X connect 46 0 47 0;
#X connect 47 0 17 0;
#X restore 127 312 pd synth;
#X msg 628 137 Aux/FS: Hold to REC;
#X obj 504 193 r ctrlIn-\$1;
#X obj 504 498 s ctrlOut-\$1;
#X connect 2 0 10 0;
#X connect 2 0 14 0;
#X connect 3 0 13 0;
#X connect 4 0 13 1;
#X connect 10 0 11 0;
#X connect 13 0 5 0;
#X connect 13 1 6 0;
#X connect 14 0 12 0;
