#N canvas 218 100 1994 1103 10;
#X obj 240 186 r notesIn-\$1;
#X obj 242 491 s notesOut-\$1;
#X obj 23 9 r loaddefs-\$1;
#X msg 23 58 loaddefinitions \$1;
#X obj 166 5 r loadbang-\$1;
#X obj 181 76 print loading definiton for \$1;
#X obj 23 34 symbol;
#X obj 25 186 inlet~ inL-\$1;
#X obj 135 186 inlet~ inR-\$1;
#X obj 27 491 outlet~ outL-\$1;
#X obj 136 491 outlet~ outR-\$1;
#X obj 181 35 print loaded:linear router into \$1, f 39;
#X obj 23 112 KontrolModule \$1 R-2x4+2-BELA;
#X text 44 577 this is a simple routing module \, we could have different
ones! in this router we route notes etc to the active module \, and
audio and notes from m1 to m5 note: if you add more modules \, then
this module needs updating...;
#X obj 336 187 r auxIn-\$1;
#X obj 335 210 r expIn-\$1;
#X obj 335 235 r fsIn-\$1;
#X obj 841 621 s~ inR-m8, f 10;
#X obj 750 621 s~ inL-m8, f 10;
#X obj 748 497 +~;
#X obj 839 496 +~;
#X text 633 53 2 chains of 4 into 2 master;
#X obj 328 294 actmodhandler \$1;
#X obj 623 250 connectin m0 \$1;
#X obj 750 685 connectout m9 \$1;
#X obj 623 274 connectmod m0 m1 \$1;
#X obj 750 663 connectmod m8 m9 \$1;
#X obj 623 298 connectmod m1 m2 \$1;
#X obj 623 322 connectmod m2 m3 \$1;
#X obj 955 279 connectmod m4 m5 \$1;
#X obj 955 303 connectmod m5 m6 \$1;
#X obj 955 327 connectmod m6 m7 \$1;
#X obj 956 253 connectin m4 \$1;
#X obj 930 621 s notesIn-m8, f 13;
#X obj 624 366 chainout m3 \$1;
#X obj 949 366 chainout m7 \$1;
#X obj 516 705 bela_enableLeds;
#X obj 515 736 r led;
#X obj 515 769 bela_led 1;
#X obj 903 728 adc~ 3 4 5 6 7 8 9 10;
#X obj 904 769 dac~ 3 4 5 6 7 8 9 10;
#X obj 673 883 snapshot~;
#X obj 738 784 bela_trigIn 1;
#X obj 673 913 * 127;
#X obj 680 967 int;
#X obj 738 838 t b f;
#X obj 771 883 * 100;
#X obj 749 931 pack f f;
#X obj 657 836 bela_led 1;
#X obj 1008 890 snapshot~;
#X obj 1008 920 * 127;
#X obj 1015 974 int;
#X obj 1073 845 t b f;
#X obj 1106 890 * 100;
#X obj 1084 938 pack f f;
#X obj 992 843 bela_led 2;
#X obj 1073 791 bela_trigIn 2;
#X obj 731 977 s notesIn-m0;
#X obj 1066 984 s notesIn-m4;
#X connect 0 0 1 0;
#X connect 2 0 6 0;
#X connect 2 0 5 0;
#X connect 3 0 12 0;
#X connect 4 0 11 0;
#X connect 6 0 3 0;
#X connect 7 0 9 0;
#X connect 8 0 10 0;
#X connect 19 0 18 0;
#X connect 20 0 17 0;
#X connect 34 0 19 0;
#X connect 34 1 19 1;
#X connect 34 2 33 0;
#X connect 35 0 20 0;
#X connect 35 1 20 1;
#X connect 35 2 33 0;
#X connect 37 0 38 0;
#X connect 39 0 40 0;
#X connect 39 0 41 0;
#X connect 39 1 40 1;
#X connect 39 1 49 0;
#X connect 39 2 40 2;
#X connect 39 3 40 3;
#X connect 39 4 40 4;
#X connect 39 5 40 5;
#X connect 39 6 40 6;
#X connect 39 7 40 7;
#X connect 41 0 43 0;
#X connect 42 0 45 0;
#X connect 42 0 48 0;
#X connect 43 0 44 0;
#X connect 44 0 47 0;
#X connect 45 0 41 0;
#X connect 45 1 46 0;
#X connect 46 0 47 1;
#X connect 47 0 57 0;
#X connect 49 0 50 0;
#X connect 50 0 51 0;
#X connect 51 0 54 0;
#X connect 52 0 49 0;
#X connect 52 1 53 0;
#X connect 53 0 54 1;
#X connect 54 0 58 0;
#X connect 56 0 52 0;
#X connect 56 0 55 0;
