#N canvas 699 104 1994 1103 10;
#X obj 240 186 r notesIn-\$1;
#X obj 242 491 s notesOut-\$1;
#X obj 23 9 r loaddefs-\$1;
#X msg 23 58 loaddefinitions \$1;
#X obj 166 5 r loadbang-\$1;
#X obj 181 76 print loading definiton for \$1;
#X obj 23 34 symbol;
#X obj 25 186 inlet~ inL-\$1;
#X obj 135 186 inlet~ inR-\$1;
#X obj 27 491 outlet~ outL-\$1;
#X obj 136 491 outlet~ outR-\$1;
#X obj 181 35 print loaded:linear router into \$1, f 39;
#X obj 23 112 KontrolModule \$1 R-2x4+2-BELA;
#X text 44 577 this is a simple routing module \, we could have different
ones! in this router we route notes etc to the active module \, and
audio and notes from m1 to m5 note: if you add more modules \, then
this module needs updating...;
#X obj 336 187 r auxIn-\$1;
#X obj 335 210 r expIn-\$1;
#X obj 335 235 r fsIn-\$1;
#X obj 328 294 actmodhandler \$1;
#X obj 400 804 bela_enableLeds;
#X obj 399 835 r led;
#X obj 399 868 bela_led 1;
#X obj 768 719 adc~ 3 4 5 6 7 8 9 10;
#X obj 769 774 dac~ 3 4 5 6 7 8 9 10;
#X obj 602 902 snapshot~;
#X obj 667 803 bela_trigIn 1;
#X obj 602 932 * 127;
#X obj 609 986 int;
#X obj 667 857 t b f;
#X obj 700 902 * 100;
#X obj 678 950 pack f f;
#X obj 586 855 bela_led 1;
#X obj 1008 890 snapshot~;
#X obj 1008 920 * 127;
#X obj 1015 974 int;
#X obj 1073 845 t b f;
#X obj 1106 890 * 100;
#X obj 1084 938 pack f f;
#X obj 992 843 bela_led 2;
#X obj 1073 791 bela_trigIn 2;
#X obj 660 996 s notesIn-m0;
#X obj 1066 984 s notesIn-m4;
#X text 843 25 2 chains of 4 into 2 master;
#X obj 852 69 r~ inL;
#X obj 939 68 r~ inR;
#X obj 851 687 throw~ outL;
#X obj 941 687 throw~ outR;
#X obj 853 193 chainin 1 \$1;
#X obj 852 545 connectmod m9 \$1;
#X obj 852 238 connectmod m0 \$1;
#X obj 853 263 connectmod m1 \$1;
#X obj 853 287 connectmod m2 \$1;
#X obj 853 313 connectmod m3 \$1;
#X obj 978 239 connectmod m4 \$1;
#X obj 978 266 connectmod m5 \$1;
#X obj 978 289 connectmod m6 \$1;
#X obj 978 313 connectmod m7 \$1;
#X obj 852 516 connectmod m8 \$1;
#X obj 978 347 chainout 2 \$1;
#X obj 853 424 +~;
#X obj 944 423 +~;
#X obj 978 193 chainin 2 \$1;
#X obj 853 348 chainout 1 \$1;
#X connect 2 0 6 0;
#X connect 2 0 5 0;
#X connect 3 0 12 0;
#X connect 4 0 11 0;
#X connect 6 0 3 0;
#X connect 19 0 20 0;
#X connect 21 0 22 0;
#X connect 21 0 23 0;
#X connect 21 1 22 1;
#X connect 21 1 31 0;
#X connect 21 2 22 2;
#X connect 21 3 22 3;
#X connect 21 4 22 4;
#X connect 21 5 22 5;
#X connect 21 6 22 6;
#X connect 21 7 22 7;
#X connect 23 0 25 0;
#X connect 24 0 27 0;
#X connect 24 0 30 0;
#X connect 25 0 26 0;
#X connect 26 0 29 0;
#X connect 27 0 23 0;
#X connect 27 1 28 0;
#X connect 28 0 29 1;
#X connect 29 0 39 0;
#X connect 31 0 32 0;
#X connect 32 0 33 0;
#X connect 33 0 36 0;
#X connect 34 0 31 0;
#X connect 34 1 35 0;
#X connect 35 0 36 1;
#X connect 36 0 40 0;
#X connect 38 0 34 0;
#X connect 38 0 37 0;
#X connect 42 0 46 0;
#X connect 42 0 60 0;
#X connect 43 0 46 1;
#X connect 43 0 60 1;
#X connect 46 0 48 0;
#X connect 46 1 48 1;
#X connect 46 2 48 2;
#X connect 47 0 44 0;
#X connect 47 1 45 0;
#X connect 48 0 49 0;
#X connect 48 1 49 1;
#X connect 48 2 49 2;
#X connect 49 0 50 0;
#X connect 49 1 50 1;
#X connect 49 2 50 2;
#X connect 50 0 51 0;
#X connect 50 1 51 1;
#X connect 50 2 51 2;
#X connect 51 0 61 0;
#X connect 51 1 61 1;
#X connect 51 2 61 2;
#X connect 52 0 53 0;
#X connect 52 1 53 1;
#X connect 52 2 53 2;
#X connect 53 0 54 0;
#X connect 53 1 54 1;
#X connect 53 2 54 2;
#X connect 54 0 55 0;
#X connect 54 1 55 1;
#X connect 54 2 55 2;
#X connect 55 0 57 0;
#X connect 55 1 57 1;
#X connect 55 2 57 2;
#X connect 56 0 47 0;
#X connect 56 1 47 1;
#X connect 56 2 47 2;
#X connect 57 0 58 1;
#X connect 57 1 59 1;
#X connect 58 0 56 0;
#X connect 59 0 56 1;
#X connect 60 0 52 0;
#X connect 60 1 52 1;
#X connect 60 2 52 2;
#X connect 61 0 58 0;
#X connect 61 1 59 0;
