#N canvas 310 95 1515 1172 10;
#X obj 304 186 r notesIn-\$1;
#X obj 295 441 s notesOut-\$1;
#X obj 23 9 r loaddefs-\$1;
#X msg 23 76 loaddefinitions \$1;
#X obj 181 9 r loadbang-\$1;
#X obj 181 76 print loading definiton for \$1;
#X obj 23 41 symbol;
#X obj 25 186 inlet~ inL-\$1;
#X obj 135 186 inlet~ inR-\$1;
#X obj 37 440 outlet~ outL-\$1;
#X obj 146 440 outlet~ outR-\$1;
#X obj 424 185 r auxIn-\$1;
#X obj 423 208 r expIn-\$1;
#X obj 423 233 r fsIn-\$1;
#X obj 181 35 print loaded:quadlfo into \$1, f 35;
#X obj 23 112 KontrolModule \$1 U-quadlfo;
#X obj 870 319 quadlfo fb-1 \$1;
#X obj 615 319 quadlfo left-1 \$1;
#X obj 734 319 quadlfo right-1 \$1;
#X obj 615 343 quadlfo left-2 \$1;
#X obj 616 373 quadlfo left-3 \$1;
#X obj 617 402 quadlfo left-4 \$1;
#X obj 734 343 quadlfo right-2 \$1;
#X obj 735 373 quadlfo right-3 \$1;
#X obj 736 402 quadlfo right-4 \$1;
#X obj 870 343 quadlfo fb-2 \$1;
#X obj 871 373 quadlfo fb-3 \$1;
#X obj 872 402 quadlfo fb-4 \$1;
#X connect 2 0 6 0;
#X connect 2 0 5 0;
#X connect 3 0 15 0;
#X connect 4 0 14 0;
#X connect 6 0 3 0;
