#N canvas 948 312 1053 849 10;
#X obj 264 299 osc~;
#X obj 264 347 *~, f 10;
#X obj 263 234 line~;
#X obj 263 210 pack 0 50;
#X obj 507 234 line~;
#X obj 507 210 pack 0 50;
#X obj 507 186 / 100;
#X obj 263 134 r lfo-rate-\$1-\$2;
#X obj 507 133 r lfo-depth-\$1-\$2;
#X obj 385 134 r lfo-phase-\$1-\$2;
#X obj 386 179 / 100;
#X obj 263 553 throw~ quad-mod-\$1;
#X obj 624 133 r lfo-offset-\$1-\$2;
#X obj 264 409 +~;
#X obj 624 199 line~;
#X obj 624 175 pack 0 50;
#X obj 264 379 /~ 2;
#X connect 0 0 1 0;
#X connect 1 0 16 0;
#X connect 2 0 0 0;
#X connect 3 0 2 0;
#X connect 4 0 1 1;
#X connect 5 0 4 0;
#X connect 6 0 5 0;
#X connect 7 0 3 0;
#X connect 8 0 6 0;
#X connect 9 0 10 0;
#X connect 10 0 0 1;
#X connect 12 0 15 0;
#X connect 13 0 11 0;
#X connect 14 0 13 1;
#X connect 15 0 14 0;
#X connect 16 0 13 0;
