#N canvas 139 296 1323 890 10;
#X obj 304 186 r notesIn-\$1;
#X obj 304 601 s notesOut-\$1;
#X obj 25 186 inlet~ inL-\$1;
#X obj 135 186 inlet~ inR-\$1;
#X obj 27 601 outlet~ outL-\$1;
#X obj 136 601 outlet~ outR-\$1;
#X obj 424 185 r auxIn-\$1;
#X obj 423 208 r expIn-\$1;
#X obj 423 233 r fsIn-\$1;
#X obj 504 185 r ctrlIn-\$1;
#X obj 504 600 s ctrlOut-\$1;
#X obj 670 600 s rackMsgs;
#X obj 488 447 macro_p p1 \$1;
#X obj 583 447 macro_p p2 \$1;
#X obj 674 447 macro_p p3 \$1;
#X obj 768 447 macro_p p4 \$1;
#X obj 476 297 cvatoval p1 \$1;
#X obj 570 297 cvatoval p2 \$1;
#X obj 667 297 cvatoval p3 \$1;
#X obj 769 297 cvatoval p4 \$1;
#X connect 12 0 10 0;
#X connect 12 1 11 0;
#X connect 13 0 10 0;
#X connect 13 1 11 0;
#X connect 14 0 10 0;
#X connect 14 1 11 0;
#X connect 15 0 10 0;
#X connect 15 1 11 0;
#X connect 16 0 12 0;
#X connect 17 0 13 0;
#X connect 18 0 14 0;
#X connect 19 0 15 0;
