#N canvas 508 201 2052 956 10;
#X obj 377 668 outlet msg;
#X obj 217 668 outlet ctrl;
#X obj 217 69 r m_bus_\$1-\$2;
#X obj 217 552 pack 0 0;
#X obj 298 552 < 10;
#X obj 217 612 spigot 0;
#X obj 422 569 != 1;
#X obj 377 612 spigot 0;
#X obj 375 446 change -1;
#X obj 376 540 pack s 0 0;
#X obj 376 507 symbol \$1;
#X obj 375 475 t b f;
#X msg 377 639 modulate \$1 \$2 \$3;
#X obj 373 69 inlet value;
#X obj 420 188 > 0;
#X obj 375 241 spigot 0;
#X connect 2 0 3 0;
#X connect 2 0 4 0;
#X connect 2 0 9 1;
#X connect 2 0 14 0;
#X connect 3 0 5 0;
#X connect 4 0 5 1;
#X connect 4 0 6 0;
#X connect 5 0 1 0;
#X connect 6 0 7 1;
#X connect 7 0 12 0;
#X connect 8 0 11 0;
#X connect 9 0 7 0;
#X connect 10 0 9 0;
#X connect 11 0 3 0;
#X connect 11 0 10 0;
#X connect 11 1 9 2;
#X connect 11 1 3 1;
#X connect 12 0 0 0;
#X connect 13 0 15 0;
#X connect 14 0 15 1;
#X connect 15 0 8 0;
