#N canvas 308 598 1531 750 10;
#X obj 304 186 r notesIn-\$1;
#X obj 304 491 s notesOut-\$1;
#X obj 25 186 inlet~ inL-\$1;
#X obj 135 186 inlet~ inR-\$1;
#X obj 27 491 outlet~ outL-\$1;
#X obj 136 491 outlet~ outR-\$1;
#X obj 424 185 r auxIn-\$1;
#X obj 423 208 r expIn-\$1;
#X obj 423 233 r fsIn-\$1;
#N canvas 437 142 1844 1157 seq2 0;
#X obj 990 408 bng 15 250 50 0 empty empty empty 17 7 0 10 -262144
-1 -1;
#X obj 990 508 qlist;
#X obj 226 415 f;
#X obj 226 362 sel 1;
#X obj 1050 408 bng 15 250 50 0 empty empty empty 17 7 0 10 -262144
-1 -1;
#X msg 1050 447 rewind;
#X obj 1060 509 bng 15 250 50 0 empty empty empty 17 7 0 10 -262144
-1 -1;
#X obj 1198 461 timer;
#X obj 1238 335 unpack;
#X obj 1175 584 pack s 0 s 0 0;
#X msg 1160 511 add;
#X obj 1175 623 route list;
#X obj 1198 379 t b b b b f;
#X obj 1262 252 spigot 0;
#X obj 1345 222 tgl 15 0 empty empty empty 17 7 0 10 -262144 -1 -1
0 1;
#X msg 1109 461 clear;
#X obj 1395 329 f;
#X obj 1493 333 + 1;
#X obj 1352 302 bng 15 250 50 0 empty empty empty 17 7 0 10 -262144
-1 -1;
#X floatatom 1395 373 5 0 0 0 - - -;
#X obj 1413 264 sel 1;
#X msg 1413 289 0;
#X obj 1395 408 sel 0;
#X obj 1298 379 t f b;
#X obj 1177 223 bng 15 250 50 0 empty empty empty 17 7 0 10 -262144
-1 -1;
#X msg 1177 248 0 0;
#X floatatom 123 387 5 0 0 0 - - -;
#X obj 123 418 sel 1;
#X obj 123 444 bng 15 250 50 0 empty empty empty 17 7 0 10 -262144
-1 -1;
#X obj 123 591 sel 0 1 2 3, f 54;
#X obj 123 666 t b b;
#X msg 155 701 1;
#X obj 216 642 t b b;
#X msg 240 663 0;
#X msg 309 487 2;
#X obj 211 322 t f f;
#X obj 226 441 sel 1;
#X obj 278 415 bng 15 250 50 0 empty empty empty 17 7 0 10 -262144
-1 -1;
#X obj 310 643 t b b;
#X msg 342 678 0;
#X obj 404 646 t b b b;
#X msg 463 673 1;
#X msg 1452 470 3;
#X msg 1345 193 1;
#X msg 1430 233 0;
#X obj 226 469 t b b b;
#X obj 585 741 bag;
#X msg 599 713 flush;
#X obj 585 765 pack 0 0;
#X msg 299 991 Sequencer: Playing;
#X msg 447 991 Sequencer: Stopped;
#X msg 602 991 Sequencer: Enabled;
#X msg 756 990 Sequencer: Recording;
#X text 1246 705 states are: 0 = stopped \, 1 = playing \, 2 = rec
enabled \, 3 = recording, f 70;
#X text 284 884 Controls LED & Screen Infomation:;
#X obj 226 387 del 500;
#X text 96 250 Controls State With Aux Button;
#X text 1131 138 Record Notes To List. First note starts recording.
;
#X text 534 653 Kills notes left on by sequence.;
#X obj 1060 635 t b b;
#X obj 1123 729 sel 0 1 2 3, f 33;
#X obj 1123 681 delay 100;
#X text 1023 835 Flashes LED at loop & sets color after sequence stop
;
#X obj 1395 440 t b b b;
#X msg 1396 569 1;
#X obj 990 348 spigot 0, f 9;
#X text 995 278 avoid playing 0 len seq;
#X msg 715 434 tempo \$1;
#X obj 1142 192 t b b;
#X msg 523 472 1;
#X obj 299 905 r seq2-\$1-start;
#X obj 447 908 r seq2-\$1-stop;
#X obj 602 906 r seq2-\$1-recenable;
#X obj 756 905 r seq2-\$1-record;
#X obj 1142 158 r seq2-\$1-end_seq;
#X obj 1345 166 r seq2-\$1-recenable;
#X obj 1408 199 r seq2-\$1-start;
#X obj 1506 198 r seq2-\$1-stop;
#X obj 1426 526 s seq2-\$1-record;
#X obj 1397 602 s seq2-\$1-something-recorded;
#X obj 523 494 s seq2-\$1-something-recorded;
#X obj 585 674 r seq2-\$1-notes_seq;
#X obj 723 674 r seq2-\$1-stop;
#X obj 819 674 r seq2-\$1-quitting;
#X obj 585 791 s seq2-\$1-zero_notes;
#X obj 123 775 s seq2-\$1-start;
#X obj 216 743 s seq2-\$1-stop;
#X obj 310 745 s seq2-\$1-stop;
#X obj 404 748 s seq2-\$1-start;
#X obj 427 720 s seq2-\$1-end_seq;
#X obj 162 724 v seq2-\$1-state;
#X obj 240 685 v seq2-\$1-state;
#X obj 342 700 v seq2-\$1-state;
#X obj 463 695 v seq2-\$1-state;
#X obj 226 561 s seq2-\$1-recenable;
#X obj 249 534 s seq2-\$1-stop;
#X obj 309 509 v seq2-\$1-state;
#X obj 123 477 v seq2-\$1-state;
#X obj 547 1065 s seq2-\$1-aux-label;
#X obj 1123 705 v seq2-\$1-state;
#X obj 1384 51 r seq2-\$1-zero_notes;
#X obj 1530 51 r seq2-\$1-notes_seq;
#X obj 1452 492 v seq2-\$1-state;
#X msg 1123 756 0;
#X msg 1180 755 3;
#X msg 1237 756 6;
#X msg 1294 756 1;
#X obj 1123 798 s seq2-\$1-led;
#X msg 1060 679 7;
#X msg 1252 490 symbol seq2-\$1-notes_seq;
#X obj 990 304 r seq2-\$1-start;
#X obj 1050 324 r seq2-\$1-something-recorded;
#X obj 715 403 r seq2-\$1-tempo;
#X obj 1050 370 r seq2-\$1-stop;
#X obj 123 273 inlet;
#X obj 1323 106 outlet;
#X obj 1262 17 inlet, f 17;
#X obj 1298 641 print;
#X obj 731 1062 s seq2-\$1-led;
#X msg 316 1019 3;
#X msg 455 1015 0;
#X msg 605 1017 6;
#X msg 747 1024 1;
#N canvas 1071 461 1006 722 clock-control 0;
#X obj 95 121 midirealtimein;
#X obj 95 177 sel 248 250 251 252, f 22;
#X obj 267 219 bng 15 250 50 0 empty empty empty 17 7 0 10 -262144
-1 -1;
#X obj 260 355 t b b;
#X msg 292 390 0;
#X obj 369 364 t b b;
#X msg 401 399 0;
#X obj 482 368 t b b b;
#X msg 541 395 1;
#X obj 260 309 sel 1 2 3, f 37;
#X obj 69 222 bng 15 250 50 0 empty empty empty 17 7 0 10 -262144 -1
-1;
#X obj 69 313 sel 0 1 2 3, f 12;
#X text 78 509 states are: 0 = stopped \, 1 = playing \, 2 = rec enabled
\, 3 = recording, f 70;
#X obj 69 351 t b b;
#X msg 101 386 1;
#X text 262 143 MIDI 248 = clock \; 250 = start \; 251 = continue \;
252 = stop, f 18;
#X text 23 15 This subpatch handles MIDI commands for starting/stopping
sequencer., f 69;
#X obj 260 456 s seq2-\$1-stop;
#X obj 369 466 s seq2-\$1-stop;
#X obj 482 470 s seq2-\$1-start;
#X obj 505 442 s seq2-\$1-end_seq;
#X obj 541 417 v seq2-\$1-state;
#X obj 401 421 v seq2-\$1-state;
#X obj 292 412 v seq2-\$1-state;
#X obj 101 408 v seq2-\$1-state;
#X obj 69 461 s seq2-\$1-start;
#X obj 260 272 v seq2-\$1-state;
#X obj 69 276 v seq2-\$1-state;
#X obj 410 115 r clock_start;
#X obj 417 145 r clock_stop;
#X obj 268 240 bng 15 250 50 0 empty empty empty 17 7 0 10 -262144
-1 -1;
#X obj 69 244 bng 15 250 50 0 empty empty empty 17 7 0 10 -262144 -1
-1;
#X connect 0 0 1 0;
#X connect 1 1 10 0;
#X connect 1 2 10 0;
#X connect 1 3 2 0;
#X connect 3 0 17 0;
#X connect 3 1 4 0;
#X connect 4 0 23 0;
#X connect 5 0 18 0;
#X connect 5 1 6 0;
#X connect 6 0 22 0;
#X connect 7 0 19 0;
#X connect 7 1 20 0;
#X connect 7 2 8 0;
#X connect 8 0 21 0;
#X connect 9 0 3 0;
#X connect 9 1 5 0;
#X connect 9 2 7 0;
#X connect 11 0 13 0;
#X connect 13 0 25 0;
#X connect 13 1 14 0;
#X connect 14 0 24 0;
#X connect 26 0 9 0;
#X connect 27 0 11 0;
#X connect 28 0 31 0;
#X connect 29 0 30 0;
#X connect 30 0 26 0;
#X connect 31 0 27 0;
#X restore 113 164 pd clock-control;
#X obj 1304 436 symbol \$1;
#X obj 458 290 t b l;
#X obj 457 267 list;
#X obj 686 102 r rackSavePreset;
#X obj 486 355 print sequence;
#X obj 709 359 print sequence;
#N canvas 100 635 803 448 presetDir 0;
#X obj 88 153 s rackMsgs;
#X obj 88 106 symbol \$1;
#X msg 88 128 getsetting currentPreset Defaut rackCurrentPreset-\$1
;
#X obj 88 181 r rackCurrentPreset;
#X obj 215 181 r rackCurrentPreset-\$1;
#X obj 87 215 symbol \$1;
#X obj 442 163 s rackMsgs;
#X obj 442 113 symbol \$1;
#X obj 204 50 r loadbang-\$1;
#X obj 442 186 r rackDataDir;
#X obj 535 189 r rackDataDir-\$1;
#X msg 442 138 getsetting dataDir ./data rackDataDir-\$1;
#X obj 441 219 symbol \$1;
#X obj 249 276 pack s s s;
#X obj 255 210 symbol \$1;
#X obj 205 76 t b b b;
#X obj 444 71 bng 15 250 50 0 empty empty empty 17 7 0 10 -262144 -1
-1;
#X obj 71 67 bng 15 250 50 0 empty empty empty 17 7 0 10 -262144 -1
-1;
#X obj 114 243 t b b s;
#X obj 255 232 t b s;
#X obj 111 387 outlet;
#X obj 219 386 outlet;
#X text 81 25 track preset directory and bang on change;
#X connect 1 0 2 0;
#X connect 2 0 0 0;
#X connect 3 0 5 0;
#X connect 4 0 5 0;
#X connect 5 0 18 0;
#X connect 7 0 11 0;
#X connect 8 0 15 0;
#X connect 9 0 12 0;
#X connect 10 0 12 0;
#X connect 11 0 6 0;
#X connect 12 0 13 0;
#X connect 13 0 21 0;
#X connect 14 0 19 0;
#X connect 15 0 1 0;
#X connect 15 1 14 0;
#X connect 15 2 7 0;
#X connect 16 0 7 0;
#X connect 17 0 1 0;
#X connect 18 0 20 0;
#X connect 18 1 13 0;
#X connect 18 2 13 1;
#X connect 19 0 13 0;
#X connect 19 1 13 2;
#X restore 460 85 pd presetDir;
#X msg 486 322 read \$1/presets/\$2/\$3-sequence.txt;
#X msg 709 323 write \$1/presets/\$2/\$3-sequence.txt;
#N canvas 103 262 721 484 savePreset 0;
#X obj 343 124 r saveState;
#X obj 252 232 list;
#X obj 146 127 unpack s s s;
#X obj 251 167 pack s s s;
#X obj 272 127 symbol \$1;
#X obj 113 96 list;
#X obj 233 101 t b b a b;
#X obj 106 54 inlet;
#X obj 258 286 outlet;
#X obj 229 39 inlet;
#X connect 0 0 1 0;
#X connect 1 0 8 0;
#X connect 2 0 3 0;
#X connect 2 2 3 2;
#X connect 3 0 1 1;
#X connect 4 0 3 1;
#X connect 5 0 2 0;
#X connect 6 0 1 0;
#X connect 6 1 3 0;
#X connect 6 2 4 0;
#X connect 6 3 5 0;
#X connect 7 0 5 1;
#X connect 9 0 6 0;
#X restore 690 131 pd savePreset;
#X connect 0 0 1 0;
#X connect 1 1 6 0;
#X connect 2 0 36 0;
#X connect 3 0 55 0;
#X connect 4 0 5 0;
#X connect 5 0 1 0;
#X connect 6 0 0 0;
#X connect 6 0 59 0;
#X connect 7 0 9 1;
#X connect 8 0 12 0;
#X connect 8 1 23 0;
#X connect 9 0 11 0;
#X connect 9 0 117 0;
#X connect 10 0 9 0;
#X connect 11 0 1 0;
#X connect 12 0 7 0;
#X connect 12 1 10 0;
#X connect 12 2 7 1;
#X connect 12 3 124 0;
#X connect 12 4 9 3;
#X connect 13 0 8 0;
#X connect 14 0 13 1;
#X connect 14 0 20 0;
#X connect 15 0 1 0;
#X connect 16 0 17 0;
#X connect 16 0 19 0;
#X connect 17 0 16 1;
#X connect 18 0 16 0;
#X connect 19 0 22 0;
#X connect 20 0 21 0;
#X connect 21 0 16 1;
#X connect 22 0 7 0;
#X connect 22 0 15 0;
#X connect 22 0 63 0;
#X connect 23 0 9 4;
#X connect 23 1 18 0;
#X connect 24 0 25 0;
#X connect 25 0 8 0;
#X connect 26 0 27 0;
#X connect 27 0 28 0;
#X connect 28 0 97 0;
#X connect 29 0 30 0;
#X connect 29 1 32 0;
#X connect 29 2 38 0;
#X connect 29 3 40 0;
#X connect 30 0 85 0;
#X connect 30 1 31 0;
#X connect 31 0 90 0;
#X connect 32 0 86 0;
#X connect 32 1 33 0;
#X connect 33 0 91 0;
#X connect 34 0 96 0;
#X connect 35 0 3 0;
#X connect 35 1 2 1;
#X connect 36 0 45 0;
#X connect 38 0 87 0;
#X connect 38 1 39 0;
#X connect 39 0 92 0;
#X connect 40 0 88 0;
#X connect 40 1 89 0;
#X connect 40 2 41 0;
#X connect 41 0 93 0;
#X connect 42 0 102 0;
#X connect 43 0 14 0;
#X connect 44 0 14 0;
#X connect 45 0 94 0;
#X connect 45 1 95 0;
#X connect 45 2 34 0;
#X connect 46 0 48 0;
#X connect 47 0 46 0;
#X connect 48 0 84 0;
#X connect 49 0 98 0;
#X connect 50 0 98 0;
#X connect 51 0 98 0;
#X connect 52 0 98 0;
#X connect 55 0 2 0;
#X connect 55 0 37 0;
#X connect 59 0 108 0;
#X connect 59 1 61 0;
#X connect 60 0 103 0;
#X connect 60 1 104 0;
#X connect 60 2 105 0;
#X connect 60 3 106 0;
#X connect 61 0 99 0;
#X connect 63 0 64 0;
#X connect 63 1 78 0;
#X connect 63 2 42 0;
#X connect 64 0 79 0;
#X connect 65 0 0 0;
#X connect 67 0 1 0;
#X connect 68 1 24 0;
#X connect 69 0 80 0;
#X connect 70 0 49 0;
#X connect 70 0 119 0;
#X connect 71 0 50 0;
#X connect 71 0 120 0;
#X connect 72 0 51 0;
#X connect 72 0 121 0;
#X connect 73 0 52 0;
#X connect 73 0 122 0;
#X connect 74 0 68 0;
#X connect 75 0 43 0;
#X connect 76 0 44 0;
#X connect 77 0 44 0;
#X connect 81 0 46 0;
#X connect 82 0 47 0;
#X connect 83 0 47 0;
#X connect 97 0 29 0;
#X connect 99 0 60 0;
#X connect 100 0 115 0;
#X connect 101 0 115 0;
#X connect 103 0 107 0;
#X connect 104 0 107 0;
#X connect 105 0 107 0;
#X connect 106 0 107 0;
#X connect 108 0 107 0;
#X connect 109 0 9 2;
#X connect 110 0 65 0;
#X connect 111 0 65 1;
#X connect 112 0 67 0;
#X connect 113 0 4 0;
#X connect 114 0 26 0;
#X connect 114 0 35 0;
#X connect 116 0 13 0;
#X connect 116 0 115 0;
#X connect 119 0 118 0;
#X connect 120 0 118 0;
#X connect 121 0 118 0;
#X connect 122 0 118 0;
#X connect 124 0 109 0;
#X connect 125 0 69 0;
#X connect 125 1 131 0;
#X connect 126 0 125 0;
#X connect 127 0 133 1;
#X connect 130 0 126 0;
#X connect 130 1 126 1;
#X connect 130 1 133 0;
#X connect 131 0 1 0;
#X connect 131 0 128 0;
#X connect 132 0 1 0;
#X connect 132 0 129 0;
#X connect 133 0 132 0;
#X restore 304 296 pd seq2;
#X text 595 38 Sequencer2: A simple sequencer Module.;
#X text 584 138 uses the input aux button to start / stop / record
a sequence. Only two inputs needed: (r seq2-\$1-aux) and (r seq2-\$1-notes-in)
, f 43;
#X obj 748 244 r seq2-\$1-led;
#X obj 582 247 r seq2-\$1-aux-label;
#X obj 582 280 s aux-label-\$1;
#X obj 749 276 s aux-led-\$1;
#X obj 405 105 s aux-label-\$1;
#X obj 405 43 r loadbang-\$1;
#X msg 405 73 Aux:Play/Hold Record;
#X obj 304 207 list split 2;
#X obj 304 317 list append 0;
#X connect 0 0 19 0;
#X connect 6 0 9 0;
#X connect 9 0 20 0;
#X connect 12 0 15 0;
#X connect 13 0 14 0;
#X connect 17 0 18 0;
#X connect 18 0 16 0;
#X connect 19 0 9 0;
#X connect 20 0 1 0;
