#N canvas 334 546 823 684 10;
#X obj 304 186 r notesIn-\$1;
#X obj 304 491 s notesOut-\$1;
#X obj 23 9 r loaddefs-\$1;
#X msg 23 76 loaddefinitions \$1;
#X obj 181 9 r loadbang-\$1;
#X obj 181 76 print loading definiton for \$1;
#X obj 23 41 symbol;
#X obj 25 186 inlet~ inL-\$1;
#X obj 135 186 inlet~ inR-\$1;
#X obj 27 491 outlet~ outL-\$1;
#X obj 136 491 outlet~ outR-\$1;
#X obj 424 185 r auxIn-\$1;
#X obj 423 208 r expIn-\$1;
#X obj 423 233 r fsIn-\$1;
#X obj 532 390 rngs_chorus~;
#X obj 578 350 / 100;
#X obj 670 350 / 100;
#X obj 578 314 r rc_amount-\$1;
#X obj 670 314 r rc_depth-\$1;
#X obj 23 112 KontrolModule \$1 F-r_chorus;
#X obj 181 35 print loaded:chorus into \$1, f 35;
#X connect 2 0 6 0;
#X connect 2 0 5 0;
#X connect 3 0 19 0;
#X connect 4 0 20 0;
#X connect 6 0 3 0;
#X connect 7 0 14 0;
#X connect 8 0 14 1;
#X connect 14 0 9 0;
#X connect 14 1 10 0;
#X connect 15 0 14 2;
#X connect 16 0 14 3;
#X connect 17 0 15 0;
#X connect 18 0 16 0;
