#N canvas 856 525 1324 497 10;
#X obj 180 227 r nui_num_encoders;
#X obj 180 250 print num encoders;
#X obj 179 177 r nui_num_buttons;
#X obj 179 200 print num buttons;
#X obj 838 22 r nui_encoder;
#X obj 697 22 r nui_button;
#X obj 8 236 NuiPd;
#X msg 176 12 clear;
#X msg 177 75 paint;
#X obj 8 56 tgl 15 0 empty empty empty 17 7 0 10 -262144 -1 -1 1 1
;
#X msg 179 135 info;
#X msg 8 168 process 1;
#X obj 697 45 route 0 1 2;
#X obj 697 187 tgl 15 0 empty empty empty 17 7 0 10 -262144 -1 -1 0
1;
#X obj 718 187 tgl 15 0 empty empty empty 17 7 0 10 -262144 -1 -1 0
1;
#X obj 739 187 tgl 15 0 empty empty empty 17 7 0 10 -262144 -1 -1 0
1;
#X obj 838 45 route 0 1 2 3;
#X obj 838 106 t b f;
#X obj 838 129 f 0;
#X obj 838 152 +;
#X obj 838 186 nbx 5 14 -1e+37 1e+37 0 0 empty empty empty 0 -8 0 10
-262144 -1 -1 0 256;
#X obj 908 105 t b f;
#X obj 908 128 f 0;
#X obj 908 151 +;
#X obj 908 185 nbx 5 14 -1e+37 1e+37 0 0 empty empty empty 0 -8 0 10
-262144 -1 -1 0 256;
#X obj 976 104 t b f;
#X obj 976 127 f 0;
#X obj 976 150 +;
#X obj 976 184 nbx 5 14 -1e+37 1e+37 0 0 empty empty empty 0 -8 0 10
-262144 -1 -1 0 256;
#X obj 1041 104 t b f;
#X obj 1041 127 f 0;
#X obj 1041 150 +;
#X obj 1041 184 nbx 5 14 -1e+37 1e+37 0 0 empty empty empty 0 -8 0
10 -262144 -1 -1 0 256;
#X obj 8 7 loadbang;
#X obj 8 32 delay 1;
#X obj 838 223 s enc0;
#X obj 908 223 s enc1;
#X obj 976 223 s enc2;
#X obj 1041 223 s enc3;
#X obj 703 104 s but0;
#X obj 747 156 s but2;
#X obj 725 128 s but1;
#X obj 47 205 r NuiMsg;
#N canvas 0 54 714 311 dispButton 0;
#X obj 17 22 r but0;
#X obj 214 200 s NuiMsg;
#X msg 17 154 displayText 15 0 0 button one;
#X msg 44 119 clearText 0 0;
#X obj 17 53 sel 1;
#X obj 17 84 t b b;
#X msg 241 119 clearText 0 0;
#X obj 214 53 sel 1;
#X obj 214 84 t b b;
#X obj 214 22 r but1;
#X msg 214 154 displayText 15 0 0 button two;
#X msg 438 120 clearText 0 0;
#X obj 411 54 sel 1;
#X obj 411 85 t b b;
#X obj 411 23 r but2;
#X msg 411 155 displayText 15 0 0 button three;
#X connect 0 0 4 0;
#X connect 2 0 1 0;
#X connect 3 0 1 0;
#X connect 4 0 5 0;
#X connect 5 0 2 0;
#X connect 5 1 3 0;
#X connect 6 0 1 0;
#X connect 7 0 8 0;
#X connect 8 0 10 0;
#X connect 8 1 6 0;
#X connect 9 0 7 0;
#X connect 10 0 1 0;
#X connect 11 0 1 0;
#X connect 12 0 13 0;
#X connect 13 0 15 0;
#X connect 13 1 11 0;
#X connect 14 0 12 0;
#X connect 15 0 1 0;
#X restore 695 312 pd dispButton;
#N canvas 1354 590 953 501 dispEncoder 0;
#X obj 214 266 s NuiMsg;
#X obj 17 22 r enc0;
#X msg 66 122 clearText 0 1;
#X obj 211 84 t f b;
#X msg 238 119 clearText 0 2;
#X obj 211 22 r enc1;
#X obj 412 84 t f b;
#X obj 609 84 t f b;
#X msg 439 119 clearText 0 3;
#X msg 636 119 clearText 0 4;
#X obj 609 22 r enc3;
#X obj 412 22 r enc2;
#X obj 17 84 t f b;
#X msg 17 166 displayText 15 1 0 enc0 [\$1];
#X msg 211 166 displayText 15 2 0 enc1 [\$1];
#X msg 412 166 displayText 15 3 0 enc2 [\$1];
#X msg 609 166 displayText 15 4 0 enc3 [\$1];
#X connect 1 0 12 0;
#X connect 2 0 0 0;
#X connect 3 0 14 0;
#X connect 3 1 4 0;
#X connect 4 0 0 0;
#X connect 5 0 3 0;
#X connect 6 0 15 0;
#X connect 6 1 8 0;
#X connect 7 0 16 0;
#X connect 7 1 9 0;
#X connect 8 0 0 0;
#X connect 9 0 0 0;
#X connect 10 0 7 0;
#X connect 11 0 6 0;
#X connect 12 0 13 0;
#X connect 12 1 2 0;
#X connect 13 0 0 0;
#X connect 14 0 0 0;
#X connect 15 0 0 0;
#X connect 16 0 0 0;
#X restore 791 312 pd dispEncoder;
#X msg 378 181 clearRect 1 0 0 128 32;
#X obj 176 35 s NuiMsg;
#X obj 177 101 s NuiMsg;
#X obj 179 157 s NuiMsg;
#X msg 355 209 drawText 14 10 20 hello world;
#X obj 355 140 bng 15 250 50 0 empty empty empty 17 7 0 10 -262144
-1 -1;
#X obj 355 160 t b b;
#X obj 355 250 s NuiMsg;
#X text 691 278 simply display button and encoder value;
#X obj 346 54 s NuiMsg;
#X msg 346 31 invertText 0;
#X text 17 333 note:;
#X obj 8 80 metro 1 10 msec;
#X text 19 352 process - dispatches button and encoder events optionally
can call paint arg = 1 \, performs paint on each call arg = 0 (def)
\, user should call paint;
#X connect 0 0 1 0;
#X connect 2 0 3 0;
#X connect 4 0 16 0;
#X connect 5 0 12 0;
#X connect 7 0 46 0;
#X connect 8 0 47 0;
#X connect 9 0 57 0;
#X connect 10 0 48 0;
#X connect 11 0 6 0;
#X connect 12 0 13 0;
#X connect 12 0 39 0;
#X connect 12 1 14 0;
#X connect 12 1 41 0;
#X connect 12 2 15 0;
#X connect 12 2 40 0;
#X connect 16 0 17 0;
#X connect 16 1 21 0;
#X connect 16 2 25 0;
#X connect 16 3 29 0;
#X connect 17 0 18 0;
#X connect 17 1 19 1;
#X connect 18 0 19 0;
#X connect 19 0 20 0;
#X connect 19 0 18 1;
#X connect 20 0 35 0;
#X connect 21 0 22 0;
#X connect 21 1 23 1;
#X connect 22 0 23 0;
#X connect 23 0 24 0;
#X connect 23 0 22 1;
#X connect 24 0 36 0;
#X connect 25 0 26 0;
#X connect 25 1 27 1;
#X connect 26 0 27 0;
#X connect 27 0 28 0;
#X connect 27 0 26 1;
#X connect 28 0 37 0;
#X connect 29 0 30 0;
#X connect 29 1 31 1;
#X connect 30 0 31 0;
#X connect 31 0 32 0;
#X connect 31 0 30 1;
#X connect 32 0 38 0;
#X connect 33 0 34 0;
#X connect 34 0 9 0;
#X connect 42 0 6 0;
#X connect 45 0 52 0;
#X connect 49 0 52 0;
#X connect 50 0 51 0;
#X connect 51 0 49 0;
#X connect 51 1 45 0;
#X connect 55 0 54 0;
#X connect 57 0 11 0;
